<?xml version="1.0" encoding="UTF-8" standalone="no"?>
<!-- Created with Inkscape (http://www.inkscape.org/) -->

<svg
   width="210mm"
   height="297mm"
   viewBox="0 0 210 297"
   version="1.1"
   id="svg1"
   xml:space="preserve"
   inkscape:version="1.4 (e7c3feb1, 2024-10-09)"
   sodipodi:docname="Oceania.svg"
   xmlns:inkscape="http://www.inkscape.org/namespaces/inkscape"
   xmlns:sodipodi="http://sodipodi.sourceforge.net/DTD/sodipodi-0.dtd"
   xmlns="http://www.w3.org/2000/svg"
   xmlns:svg="http://www.w3.org/2000/svg"><sodipodi:namedview
     id="namedview1"
     pagecolor="#ffffff"
     bordercolor="#000000"
     borderopacity="0.25"
     inkscape:showpageshadow="2"
     inkscape:pageopacity="0.0"
     inkscape:pagecheckerboard="0"
     inkscape:deskcolor="#d1d1d1"
     inkscape:document-units="mm"
     inkscape:zoom="0.37332816"
     inkscape:cx="361.61215"
     inkscape:cy="373.66589"
     inkscape:window-width="1104"
     inkscape:window-height="1040"
     inkscape:window-x="0"
     inkscape:window-y="39"
     inkscape:window-maximized="0"
     inkscape:current-layer="svg1" /><defs
     id="defs1" /><g
     inkscape:label="Oceania Trace line"
     inkscape:groupmode="layer"
     id="layer1"><path
       style="fill:#000000"
       d="m 165.11096,220.10211 -0.72691,-0.0528 -0.87094,-0.64844 -0.87095,-0.64844 -1.53229,-0.15049 c -0.84276,-0.0828 -1.5772,-0.18776 -1.63208,-0.23331 -0.0549,-0.0455 -0.21878,-0.45512 -0.3642,-0.91015 l -0.26439,-0.82733 0.78132,-1.56199 0.78132,-1.562 1.82911,-2.0118 1.82911,-2.01181 0.91206,-0.36867 c 1.56121,-0.63106 4.53874,-2.95104 6.08893,-4.74425 0.81936,-0.94781 0.90905,-1.09305 1.49226,-2.41656 0.56891,-1.29105 0.66366,-1.44725 1.13953,-1.87856 l 0.51903,-0.47042 0.21365,-1.0378 0.21366,-1.03781 1.06934,-0.93847 c 0.58814,-0.51616 1.10667,-0.93846 1.15228,-0.93846 0.26451,0 0.41019,0.2387 0.91668,1.502 l 0.56009,1.39699 0.84981,-0.63875 c 0.59386,-0.44638 0.91301,-0.6298 1.05963,-0.60902 0.1609,0.0228 0.3097,0.22044 0.63812,0.84751 l 0.42829,0.81777 0.003,0.97266 0.003,0.97267 -0.62186,1.02632 c -1.10865,1.82973 -2.31695,3.58341 -2.95353,4.28664 l -0.62234,0.68749 0.46333,0.83262 c 0.25483,0.45793 0.46333,0.90734 0.46333,0.99867 0,0.27553 -0.30241,0.35418 -1.36178,0.35418 h -1.01027 l -1.12666,0.68711 c -0.61966,0.37791 -1.14636,0.75613 -1.17046,0.84049 -0.758,2.65393 -2.09024,6.16008 -2.49792,6.57394 -0.13105,0.13304 -0.99287,0.85881 -1.91516,1.61283 l -1.67689,1.37094 -0.73098,-0.0154 c -0.40204,-0.008 -1.05809,-0.0391 -1.45789,-0.0682 z m 3.54366,-1.92222 c 0.84958,-0.69984 1.63156,-1.36284 1.73774,-1.47333 0.25161,-0.26181 1.64272,-3.86387 2.07779,-5.38009 0.18642,-0.64967 0.40595,-1.249 0.48786,-1.33184 0.0819,-0.0828 0.67153,-0.46682 1.31028,-0.8533 l 1.16136,-0.70268 0.84823,-0.0444 0.84822,-0.0444 -0.39727,-0.70643 c -0.26597,-0.47295 -0.3768,-0.76186 -0.33536,-0.87417 0.034,-0.0923 0.36875,-0.49485 0.74377,-0.89465 0.64452,-0.68709 1.91128,-2.51152 3.04628,-4.38734 0.50088,-0.82782 0.51048,-0.85662 0.51048,-1.53195 0,-0.59732 -0.0377,-0.75901 -0.28525,-1.22346 -0.15689,-0.29435 -0.31421,-0.53519 -0.3496,-0.53519 -0.0354,0 -0.40935,0.26024 -0.83102,0.5783 -0.92557,0.69814 -1.10551,0.76995 -1.28549,0.51301 -0.0725,-0.10347 -0.35194,-0.73834 -0.62105,-1.41082 -0.2691,-0.67248 -0.51968,-1.22325 -0.55685,-1.22393 -0.0372,-6.7e-4 -0.38934,0.28231 -0.78262,0.62887 l -0.71506,0.6301 -0.16212,0.84642 c -0.22043,1.15081 -0.24189,1.19532 -0.84582,1.75446 -0.48295,0.44712 -0.58442,0.61358 -1.14096,1.87156 -0.56519,1.27754 -0.67529,1.45624 -1.47253,2.38995 -0.92058,1.07816 -2.23877,2.24111 -4.17223,3.68085 -0.92212,0.68665 -1.37781,0.95848 -2.07748,1.23924 l -0.89626,0.35964 -1.75398,1.91776 -1.75398,1.91775 -0.69021,1.3884 -0.69022,1.3884 0.15184,0.54116 c 0.0835,0.29764 0.19651,0.55723 0.25111,0.57688 0.0546,0.0196 0.72197,0.0942 1.48305,0.16571 l 1.38378,0.13 0.93323,0.68611 0.93323,0.6861 1.18122,-1.6e-4 1.18122,-1.6e-4 z m -65.18925,-10.08842 c -0.12214,-0.0488 -0.60593,-0.11391 -1.0751,-0.14473 -0.58486,-0.0384 -0.90554,-0.10156 -1.02002,-0.20085 -0.0918,-0.0797 -0.5451,-0.86036 -1.00726,-1.73492 l -0.840297,-1.59011 -0.200894,-1.27208 c -0.20089,-1.27207 -0.200907,-1.27211 -1.035008,-2.94957 l -0.834115,-1.67748 0.05567,-0.82126 c 0.08138,-1.2006 0.09148,-1.23014 0.420708,-1.23014 0.856374,0 1.964047,0.31425 3.230591,0.91652 l 1.28846,0.61269 1.84632,-0.59418 1.84633,-0.59417 0.90285,0.1191 c 0.59589,0.0786 0.95463,0.17088 1.05512,0.27137 0.12765,0.12765 0.1621,0.44433 0.21314,1.95933 0.0335,0.99389 0.0836,2.01248 0.11129,2.26354 0.0487,0.44085 0.0331,0.48062 -0.45572,1.16192 l -0.50613,0.70544 -0.0913,0.97337 c -0.20829,2.21982 -0.22483,2.29089 -0.53303,2.29089 -0.0796,0 -0.3307,-0.18314 -0.55796,-0.40699 l -0.4132,-0.40698 -0.88927,1.22475 c -0.93232,1.28404 -0.995,1.33069 -1.51113,1.12454 z m 1.12777,-1.769 c 0.87597,-1.22282 1.09836,-1.49272 1.22996,-1.49272 0.0463,0 0.2287,0.1269 0.40535,0.282 0.17665,0.1551 0.32336,0.26754 0.32601,0.24987 0.003,-0.0177 0.0575,-0.54992 0.12188,-1.18279 l 0.11705,-1.15066 0.47949,-0.6468 0.47949,-0.6468 -0.0573,-1.15559 c -0.0315,-0.63558 -0.0813,-1.54906 -0.1106,-2.02996 l -0.0533,-0.87437 -0.64978,-0.0817 c -0.6488,-0.0816 -0.65255,-0.0808 -2.49046,0.52709 -1.44785,0.47884 -1.89386,0.59266 -2.08986,0.53329 -0.13704,-0.0415 -0.78072,-0.33076 -1.43039,-0.64276 -1.027907,-0.49366 -2.035062,-0.81274 -2.566886,-0.81324 -0.07925,-8e-5 -0.113579,0.17873 -0.113579,0.59151 0,0.56212 0.03924,0.66972 0.786862,2.158 l 0.786862,1.56638 0.20918,1.31752 0.209181,1.31751 0.78982,1.49925 c 0.4344,0.82458 0.79795,1.51028 0.80789,1.52377 0.01,0.0135 0.36141,0.0502 0.78103,0.0815 0.41962,0.0314 0.84472,0.0893 0.94467,0.12872 0.1,0.0394 0.20217,0.0732 0.22716,0.0751 0.025,0.002 0.41211,-0.50852 0.86027,-1.13413 z m 78.82353,-5.87687 c -0.10025,-0.16242 -0.20691,-0.38972 -0.23701,-0.50511 -0.0394,-0.15108 -0.22732,-0.28697 -0.6712,-0.48544 -0.36461,-0.16303 -0.63408,-0.34306 -0.6596,-0.44068 -0.0254,-0.0971 0.28403,-0.77643 0.75144,-1.64984 l 0.79461,-1.48481 -0.22369,-0.49974 c -0.12303,-0.27487 -0.30059,-0.67502 -0.39458,-0.88923 -0.16498,-0.37599 -0.22369,-0.41534 -1.69466,-1.13579 l -1.52377,-0.74631 -0.0289,-0.59061 c -0.0501,-1.0227 0.024,-1.14336 1.11604,-1.81727 0.52637,-0.32483 0.97639,-0.65194 1.00006,-0.7269 0.0237,-0.075 0.12896,-0.66785 0.23399,-1.31752 0.15463,-0.95642 0.17923,-1.38008 0.12924,-2.22615 l -0.0617,-1.04492 -0.58509,-1.24005 c -0.45593,-0.9663 -0.57152,-1.29413 -0.5236,-1.48504 0.054,-0.21536 -0.0156,-0.32364 -0.57615,-0.89524 -1.01859,-1.03873 -2.74515,-3.50898 -3.48544,-4.98673 -0.72635,-1.44993 -0.74652,-1.63705 -0.19347,-1.79469 0.50781,-0.14474 1.05456,-0.201 1.1621,-0.11958 0.0523,0.0396 0.42585,0.48094 0.83,0.98069 l 0.73483,0.90863 0.9967,0.38916 c 0.54819,0.21404 1.0604,0.43892 1.13826,0.49975 0.0816,0.0637 0.30197,0.7461 0.51999,1.60983 0.34078,1.35007 0.44329,1.61886 1.03023,2.70143 0.35848,0.6612 0.68246,1.20297 0.71994,1.20394 0.0375,9.6e-4 0.0688,-0.21292 0.0695,-0.47528 7.6e-4,-0.26237 0.0314,-0.52091 0.0682,-0.57453 0.18454,-0.2695 0.3997,-0.20304 1.13416,0.35031 l 0.74986,0.56495 0.21435,1.32653 0.21435,1.32652 1.05855,0.51755 c 0.85868,0.41982 1.21006,0.53994 1.86096,0.63618 l 0.80241,0.11864 0.82528,-0.67382 c 0.91046,-0.74337 0.76945,-0.71486 1.89645,-0.3835 0.33153,0.0975 0.64833,0.23211 0.70399,0.29918 0.11259,0.13567 0.10137,0.20755 -0.34602,2.21599 -0.25836,1.15987 -0.94696,3.11555 -1.21865,3.4611 -0.072,0.0915 -0.3434,0.11469 -1.10004,0.0939 -0.55249,-0.0152 -1.04883,-7e-5 -1.10298,0.0335 -0.0542,0.0336 -0.20692,0.2176 -0.33947,0.40888 l -0.24101,0.34777 0.12923,0.72385 c 0.15258,0.85461 0.32319,0.42473 -1.48632,3.74509 -0.99492,1.82565 -1.37753,2.44546 -1.63091,2.64204 -0.79784,0.61899 -1.99935,1.37861 -2.18057,1.37861 -0.12492,0 -0.26458,-0.10857 -0.37984,-0.2953 z m 2.65293,-2.33821 c 0.17552,-0.32567 0.74175,-1.36901 1.2583,-2.31853 0.51655,-0.94952 0.99265,-1.83126 1.058,-1.95942 0.0979,-0.19192 0.0978,-0.35371 -1.8e-4,-0.91736 -0.13583,-0.78112 -0.11372,-0.87167 0.39611,-1.62243 l 0.36922,-0.5437 h 1.07697 1.07698 l 0.37143,-0.93135 c 0.37278,-0.93475 0.98025,-3.41628 0.89236,-3.64532 -0.0258,-0.0673 -0.16292,-0.14577 -0.30464,-0.17436 -0.14173,-0.0286 -0.31932,-0.0759 -0.39466,-0.10505 -0.0861,-0.0334 -0.42279,0.18367 -0.90642,0.58425 -0.86949,0.72016 -0.88005,0.72263 -2.18656,0.51053 -0.63176,-0.10255 -0.99913,-0.23756 -1.96909,-0.72361 -0.65584,-0.32864 -1.2159,-0.63549 -1.24458,-0.68189 -0.0287,-0.0464 -0.13812,-0.65084 -0.24319,-1.34319 -0.18098,-1.19239 -0.20617,-1.27218 -0.47751,-1.51224 l -0.28646,-0.25343 -0.0574,0.25343 c -0.0316,0.13938 -0.0622,0.54486 -0.0682,0.90106 -0.0115,0.69162 -0.1317,0.91199 -0.44351,0.81302 -0.10224,-0.0325 -0.58133,-0.79743 -1.21394,-1.93835 -1.00074,-1.80485 -1.05938,-1.9406 -1.38332,-3.20226 -0.18605,-0.72463 -0.37315,-1.40137 -0.41576,-1.50385 -0.0537,-0.12901 -0.39131,-0.30932 -1.09738,-0.586 l -1.01989,-0.39967 -0.72117,-0.89052 c -0.69409,-0.85708 -0.93529,-1.03451 -1.03899,-0.76428 -0.10037,0.26158 0.90897,2.02847 2.05602,3.59914 0.63869,0.87456 1.29294,1.71277 1.45391,1.8627 0.16096,0.14992 0.4484,0.46715 0.63875,0.70496 0.28874,0.36072 0.33802,0.48215 0.29735,0.73276 -0.0394,0.24283 0.0582,0.51367 0.50923,1.41347 l 0.55797,1.11309 0.0867,1.21291 c 0.0759,1.06213 0.0641,1.34094 -0.0948,2.24299 -0.0998,0.56655 -0.20741,1.19365 -0.23907,1.39355 -0.0317,0.19989 -0.092,0.43082 -0.13419,0.51317 -0.0421,0.0823 -0.4861,0.40278 -0.98655,0.71208 -0.50046,0.3093 -0.92673,0.58955 -0.94727,0.62278 -0.0205,0.0332 -0.0514,0.24434 -0.0686,0.46914 l -0.0313,0.40872 1.45381,0.72691 1.45381,0.7269 0.48944,0.9995 c 0.26918,0.54972 0.48929,1.10171 0.48913,1.22665 -1.7e-4,0.12494 -0.31241,0.80521 -0.69388,1.51171 -0.38146,0.7065 -0.69357,1.32459 -0.69357,1.37354 0,0.049 0.20192,0.17292 0.44871,0.27548 0.34793,0.1446 0.49039,0.26817 0.63425,0.55016 l 0.18554,0.36369 0.89449,-0.60468 c 0.80475,-0.544 0.92652,-0.66408 1.21362,-1.1968 z m -85.07033,-7.92935 c -0.96649,-0.65808 -1.42353,-0.90638 -2.106079,-1.14419 -0.479445,-0.16705 -0.894234,-0.36239 -0.921753,-0.43411 -0.02752,-0.0717 0.01246,-0.39984 0.08883,-0.72917 0.07638,-0.32933 0.1251,-0.61255 0.108272,-0.62938 -0.01683,-0.0168 -0.216643,0.0595 -0.444035,0.16969 -0.276568,0.13398 -0.798897,0.60639 -1.577755,1.42695 -0.640373,0.67465 -1.232181,1.26012 -1.315128,1.30104 -0.101758,0.0502 -0.53321,-0.0788 -1.32645,-0.3965 -2.061924,-0.82588 -2.85018,-1.08492 -3.734308,-1.22719 -0.775313,-0.12476 -1.257762,-0.25916 -1.802762,-0.5022 -0.09995,-0.0446 -0.549723,-0.21838 -0.999495,-0.38622 l -0.817769,-0.30518 -0.847066,-0.991 c -0.465886,-0.54504 -0.908581,-1.08061 -0.983767,-1.19015 -0.07519,-0.10953 -0.257572,-0.80653 -0.405302,-1.54887 -0.38989,-1.95921 -0.716897,-2.76326 -1.46027,-3.59057 l -0.599645,-0.66735 -1.350208,-0.20776 c -0.742615,-0.11426 -1.401319,-0.25014 -1.463787,-0.30194 -0.186688,-0.15481 -0.131855,-0.35151 0.324663,-1.16471 l 0.434941,-0.77477 -0.187038,-0.69451 c -0.102871,-0.38198 -0.213943,-0.72142 -0.246827,-0.7543 -0.03288,-0.0329 -0.27722,0.31299 -0.542971,0.7686 -0.544086,0.93281 -0.362332,0.82819 -2.263827,1.30308 -1.398817,0.34936 -1.601313,0.11265 -0.785469,-0.91817 0.981651,-1.24032 0.979923,-1.23708 1.197837,-2.2463 0.183849,-0.85145 0.265578,-1.04817 0.717838,-1.72776 0.541967,-0.81439 0.601373,-1.08254 0.436984,-1.97246 l -0.06291,-0.34057 -0.8632,1.09062 c -0.75463,0.95345 -0.973052,1.16387 -1.736582,1.67296 l -0.873381,0.58233 -0.518172,1.30265 c -0.527735,1.32668 -0.680322,1.56193 -0.946825,1.45973 -0.180319,-0.0692 -2.202393,-1.35579 -2.328724,-1.48177 -0.0495,-0.0494 -0.07796,-0.4989 -0.06441,-1.01742 l 0.02428,-0.92897 -0.822,-1.13225 c -0.577666,-0.79569 -1.051426,-1.3304 -1.593841,-1.7989 -0.795126,-0.68677 -0.936119,-0.95368 -0.635546,-1.20313 0.07496,-0.0622 0.136295,-0.16161 0.136295,-0.22089 0,-0.0593 -0.712914,-0.50405 -1.584252,-0.98837 -1.402206,-0.7794 -1.635598,-0.88059 -2.031093,-0.88059 -1.265776,0 -1.505776,-0.0738 -2.853872,-0.87704 -1.480908,-0.88242 -1.119787,-0.82989 -4.27125,-0.62133 l -2.063031,0.13652 -3.41722,1.13943 -3.417219,1.13944 -1.29919,-0.10791 -1.299189,-0.10791 -1.534542,0.86454 c -1.21448,0.68423 -1.765866,0.93634 -2.643624,1.20877 -1.06427,0.33031 -1.111491,0.35556 -1.168709,0.62483 -0.175962,0.8281 -0.449665,1.41281 -0.982023,2.09788 -0.647705,0.83351 -0.676284,0.84438 -2.252133,0.85647 -0.482857,0.004 -1.198405,0.0681 -1.590106,0.14301 -0.976707,0.1869 -1.146411,0.17667 -2.438921,-0.14701 l -1.131357,-0.28333 -1.024259,0.18806 c -0.563342,0.10343 -1.420832,0.21593 -1.905532,0.25 l -0.881275,0.0619 -0.839155,0.9072 -0.839156,0.9072 -0.456873,-0.0541 c -0.437857,-0.0519 -0.48538,-0.0346 -1.141761,0.4154 -0.376688,0.25823 -0.975458,0.70493 -1.330599,0.99267 l -0.645711,0.52317 -2.112499,-0.0551 -2.1125,-0.0551 -1.527788,-1.10584 c -0.988076,-0.71518 -1.779127,-1.21331 -2.239265,-1.41007 -0.391312,-0.16733 -0.762588,-0.34284 -0.825056,-0.39002 -0.1397,-0.10552 -0.159734,-2.0791 -0.02369,-2.33331 0.05277,-0.0986 0.381125,-0.26522 0.795053,-0.40345 0.898879,-0.30018 1.03415,-0.49493 0.966394,-1.3913 -0.02841,-0.37586 0.01828,-1.03885 0.120109,-1.70529 0.156374,-1.02349 0.157674,-1.14689 0.0212,-2.01211 -0.125376,-0.79486 -0.246898,-1.14662 -0.882769,-2.55529 -0.979086,-2.16899 -1.239809,-3.16469 -1.16948,-4.46622 l 0.05116,-0.9468 -0.539363,-0.9956 c -0.369324,-0.68174 -0.557958,-1.14236 -0.598342,-1.46108 -0.05294,-0.41784 -0.121326,-0.53057 -0.66818,-1.10152 l -0.609201,-0.63604 -0.161758,-1.22666 -0.161757,-1.22665 -0.805317,-1.25278 c -0.6167651,-0.95946 -0.8605842,-1.43397 -1.0413658,-2.02666 -0.2635114,-0.86392 -0.2231835,-1.03656 0.2421396,-1.03656 h 0.2601886 l -0.1865875,-0.4987 c -0.1026232,-0.27429 -0.1736041,-0.61161 -0.1577353,-0.74962 0.050268,-0.43717 0.38097,-0.37385 1.2911454,0.24724 0.444341,0.30321 0.825631,0.53355 0.84731,0.51187 0.02168,-0.0217 -0.28406,-0.60536 -0.679421,-1.29706 -0.395362,-0.69171 -0.773106,-1.46209 -0.839433,-1.71196 -0.066327,-0.24988 -0.2815906,-0.68683 -0.4783633,-0.97101 l -0.3577686,-0.51668 0.1562247,-0.93713 c 0.1566629,-0.93975 0.248988,-1.1921 0.5940057,-1.62357 0.1020925,-0.12768 0.2625845,-0.53134 0.3566495,-0.89704 0.157688,-0.61304 0.160891,-0.7225 0.04106,-1.4034 -0.07148,-0.40618 -0.130025,-0.84409 -0.130094,-0.97314 -1.48e-4,-0.27945 1.023398,-2.24122 1.287608,-2.46788 0.311749,-0.26745 0.47197,-0.0799 0.575713,0.6739 l 0.09161,0.66567 0.312334,-0.54518 c 0.171784,-0.29985 0.374521,-0.59199 0.450526,-0.64921 0.076,-0.0572 0.605904,-0.30255 1.177553,-0.54518 0.900312,-0.38213 1.131685,-0.52732 1.729442,-1.08523 0.927421,-0.8656 2.624469,-1.76435 3.66737,-1.94224 0.64342,-0.10974 0.737969,-0.10582 1.071158,0.0444 l 0.365445,0.1648 1.154991,-0.55502 c 0.804686,-0.38667 1.352858,-0.58832 1.807373,-0.66484 0.748445,-0.12599 0.743223,-0.12337 1.011543,-0.50772 0.286952,-0.41105 0.875492,-0.58492 1.937434,-0.57239 0.756685,0.009 1.000481,-0.0342 2.201037,-0.38925 l 1.350098,-0.39928 0.739755,-0.64191 c 0.664202,-0.57635 0.770715,-0.71484 1.042888,-1.35604 0.268607,-0.6328 0.400842,-0.80728 1.161003,-1.5319 l 0.857871,-0.81777 0.07006,-1.32941 0.07006,-1.32942 1.069533,-1.33383 c 0.859848,-1.07232 1.108379,-1.3283 1.26767,-1.30562 0.15462,0.022 0.322728,0.28343 0.765422,1.19024 0.54619,1.11882 0.574911,1.15806 0.772337,1.05533 0.112778,-0.0587 0.219429,-0.11894 0.237001,-0.1339 0.01757,-0.015 -0.13576,-0.26142 -0.340737,-0.54767 -0.204978,-0.28624 -0.372686,-0.60073 -0.372686,-0.69886 0,-0.0981 0.209966,-0.5208 0.466592,-0.93927 0.523833,-0.8542 0.628374,-0.90127 1.272233,-0.57279 0.202751,0.10343 0.383825,0.17287 0.402387,0.15431 0.01856,-0.0186 0.08517,-0.42007 0.148016,-0.89225 l 0.114266,-0.85851 0.84695,-0.81418 c 0.48294,-0.46425 0.969355,-1.03051 1.131753,-1.31752 0.327335,-0.5785 0.378761,-0.61881 1.115026,-0.87406 0.445784,-0.15455 0.549817,-0.2291 0.570617,-0.40889 0.08083,-0.69866 0.160907,-0.75767 0.804774,-0.59308 l 0.441873,0.11296 0.09086,-0.27564 c 0.08476,-0.25713 0.170199,-0.30103 1.272085,-0.65357 1.82251,-0.58309 1.564825,-0.6034 2.864731,0.22579 0.929473,0.59289 1.263959,0.86996 1.860155,1.54082 l 0.726906,0.81795 0.954063,0.0121 c 0.524735,0.007 1.147995,0.044 1.385022,0.083 0.237028,0.039 0.446969,0.0549 0.466537,0.0354 0.01957,-0.0196 -0.04148,-0.23837 -0.135654,-0.48622 -0.09418,-0.24786 -0.17123,-0.5274 -0.17123,-0.62121 0,-0.0938 0.319021,-0.7155 0.708935,-1.38152 0.660595,-1.12839 0.74435,-1.23166 1.228299,-1.51444 0.500016,-0.29217 0.514225,-0.31081 0.381423,-0.50041 -0.07587,-0.10832 -0.137941,-0.27382 -0.137941,-0.36779 0,-0.094 0.288626,-0.56908 0.641391,-1.05583 0.606036,-0.8362 0.690376,-0.91332 1.530081,-1.39904 0.969078,-0.56056 1.129323,-0.59104 1.964074,-0.37362 0.520054,0.13546 0.575868,0.13192 1.57204,-0.0997 0.964245,-0.22423 1.029358,-0.25317 0.980376,-0.43574 -0.02886,-0.10757 -0.05302,-0.32277 -0.05371,-0.47823 -0.0012,-0.26462 -0.04742,-0.30377 -0.724621,-0.61333 -0.397859,-0.18186 -0.759884,-0.33066 -0.8045,-0.33066 -0.04462,0 -0.190973,-0.10181 -0.325236,-0.22624 -0.381424,-0.35349 -0.217625,-0.52058 0.790921,-0.80679 l 0.854045,-0.24237 1.035423,0.39316 c 0.827648,0.31426 1.184138,0.51013 1.776529,0.97612 0.670017,0.52705 0.844334,0.61436 1.817264,0.91016 1.055516,0.32092 1.084511,0.32453 1.511632,0.18817 l 0.435474,-0.13902 0.860938,0.42767 0.860939,0.42767 0.723276,-0.36366 c 0.747259,-0.37571 1.015859,-0.42457 1.527472,-0.27784 0.261012,0.0749 0.348456,0.0511 0.684903,-0.18604 0.228936,-0.16137 0.444929,-0.24913 0.531449,-0.21593 0.175146,0.0672 1.527152,1.55853 1.527152,1.68451 0,0.0486 -0.177505,0.46598 -0.394455,0.92743 -0.52402,1.11458 -1.457023,2.15651 -1.931064,2.15651 -0.341037,0 -0.358509,0.0471 -0.212554,0.57268 0.0891,0.32087 0.06865,0.3954 -0.286793,1.04493 -0.210508,0.38467 -0.620178,1.04696 -0.91038,1.47174 -0.716969,1.04947 -0.712905,1.06217 0.652587,2.03808 0.77669,0.5551 1.383397,0.90109 2.178394,1.24229 1.220514,0.52384 2.219836,1.18435 3.634205,2.40207 0.831208,0.71563 0.921011,0.76885 1.297431,0.76885 0.306156,0 0.595294,0.10154 1.190066,0.41795 0.692602,0.36844 0.811704,0.46935 1.005587,0.85196 l 0.219932,0.43401 1.156708,0.42356 c 0.636189,0.23296 1.200279,0.41179 1.253534,0.39741 0.05326,-0.0144 0.431958,-0.20334 0.841564,-0.4199 l 0.744737,-0.39376 0.200046,-0.60574 c 0.110026,-0.33316 0.351678,-0.95329 0.537005,-1.37808 0.185327,-0.42478 0.406813,-1.09944 0.492191,-1.49924 0.08538,-0.3998 0.344023,-1.24995 0.574765,-1.88922 l 0.419532,-1.16232 -0.159881,-0.61643 c -0.117988,-0.45491 -0.144407,-0.78127 -0.100824,-1.24556 0.04106,-0.43739 0.01423,-0.83681 -0.08802,-1.3106 -0.141461,-0.65547 -0.139278,-0.72625 0.05719,-1.85479 0.160632,-0.92267 0.251627,-1.2296 0.425964,-1.43679 l 0.221695,-0.26347 -0.202177,-0.43165 -0.202177,-0.43166 0.37962,-0.84308 c 0.513527,-1.14048 0.907634,-2.33245 0.907634,-2.74513 0,-0.286 0.08829,-0.44154 0.556161,-0.97981 0.842644,-0.96943 0.97169,-0.96136 1.572058,0.0983 0.342294,0.60416 0.428263,0.85376 0.50509,1.46648 0.05092,0.40611 0.09259,0.78974 0.09259,0.8525 0,0.0628 0.157868,0.19466 0.350818,0.29309 0.364102,0.18575 0.46334,0.42919 0.465951,1.14303 6.68e-4,0.18265 0.177372,0.53259 0.532454,1.05444 0.6046,0.88855 0.657982,1.08951 0.697243,2.62473 0.02566,1.00352 0.04129,1.07643 0.394348,1.83998 0.202194,0.43728 0.388491,0.79505 0.413994,0.79505 0.0255,0 0.349438,-0.184 0.719857,-0.40888 0.924391,-0.56122 1.030367,-0.54736 1.590285,0.20793 0.251497,0.33925 0.786917,0.89276 1.189823,1.23002 0.402906,0.33726 0.731947,0.68324 0.731217,0.76885 -7.4e-4,0.0856 -0.06212,0.41341 -0.136395,0.72847 -0.131499,0.55777 -0.12785,0.60195 0.138825,1.68097 0.59897,2.42352 0.63631,2.52181 1.05352,2.77381 0.37147,0.22438 0.38058,0.24268 0.76753,1.54131 l 0.39159,1.31423 -0.11282,0.78026 -0.11281,0.78027 0.39161,0.89597 0.39162,0.89597 1.43259,0.72118 c 1.06893,0.53811 1.96272,1.09233 3.52095,2.18325 1.33474,0.93446 2.08835,1.51794 2.08835,1.61689 0,0.0851 -0.06,0.23419 -0.1334,0.3312 -0.0734,0.097 -0.13471,0.22618 -0.1363,0.28705 -0.002,0.0609 0.27029,0.42887 0.60416,0.81777 0.33388,0.3889 0.66233,0.77313 0.72989,0.85384 0.0676,0.0807 0.3286,0.75537 0.58007,1.49924 0.25146,0.74387 0.49285,1.38874 0.5364,1.43303 0.0458,0.0466 0.21789,-0.001 0.40819,-0.11358 0.40487,-0.23887 0.72469,-0.24806 0.88136,-0.0253 0.0653,0.0928 0.2759,0.34255 0.468,0.55489 l 0.34928,0.38609 0.31084,-0.1674 c 0.57875,-0.31168 0.61804,-0.22339 1.01394,2.27834 l 0.15739,0.99458 1.75287,1.64046 c 0.96408,0.90225 2.1959,2.14727 2.73738,2.76671 l 0.98451,1.12625 0.417,1.32705 c 0.38777,1.23399 0.41839,1.40352 0.43673,2.41741 0.0108,0.5997 -0.0124,1.44032 -0.0516,1.86806 l -0.0713,0.7777 0.65259,1.30269 0.65259,1.30269 -0.0628,1.41784 c -0.0554,1.25012 -0.0985,1.53071 -0.36396,2.37191 -0.1656,0.52474 -0.44724,1.51136 -0.62586,2.1925 -0.28668,1.09319 -0.32477,1.36791 -0.32477,2.34249 0,0.88254 -0.0477,1.29949 -0.23797,2.07807 -0.22167,0.90728 -1.37839,3.99118 -1.61159,4.29661 -0.0572,0.0749 -0.56399,0.49682 -1.12621,0.93755 -0.56221,0.44073 -1.02221,0.83982 -1.02221,0.88686 0,0.22272 -0.9735,2.48463 -1.37893,3.20392 -0.34578,0.61348 -0.56083,1.17404 -0.88884,2.31701 -0.38371,1.33702 -0.49491,1.60548 -0.9821,2.37094 -0.47532,0.74683 -0.5933,1.02565 -0.87513,2.06823 -0.40907,1.51328 -0.68919,3.30234 -0.66438,4.24337 l 0.0191,0.72352 -0.88033,0.67132 -0.88034,0.67131 -1.52754,0.0448 -1.52753,0.0448 -1.29378,0.71699 c -1.10784,0.61395 -1.38861,0.81703 -1.95356,1.41305 -0.87925,0.92759 -2.39916,2.30514 -2.54335,2.30512 -0.0635,-1e-5 -0.67088,-0.37823 -1.34978,-0.84049 z m 2.05465,-0.64062 c 0.39841,-0.36484 1.04574,-0.99592 1.4385,-1.40239 0.61096,-0.63228 0.90229,-0.8444 2.01669,-1.46835 l 1.30257,-0.7293 1.56326,-0.0635 1.56327,-0.0635 0.69948,-0.52708 0.69949,-0.52708 -0.0686,-0.43526 c -0.0963,-0.61118 0.20716,-2.57057 0.65836,-4.25151 0.3253,-1.21192 0.42837,-1.46364 0.93012,-2.27158 0.46584,-0.75012 0.61681,-1.09886 0.86537,-1.99899 0.4546,-1.64632 0.50427,-1.77789 1.03487,-2.74125 0.2706,-0.4913 0.71177,-1.45994 0.98036,-2.15252 l 0.48836,-1.25924 1.04492,-0.81481 1.04493,-0.81481 0.57791,-1.37875 c 0.34089,-0.81328 0.70418,-1.88185 0.88576,-2.60541 0.28096,-1.11949 0.30293,-1.30327 0.2515,-2.10369 -0.0534,-0.83123 -0.0365,-0.95224 0.32427,-2.31701 0.20935,-0.79199 0.49891,-1.80797 0.64347,-2.25774 0.21091,-0.65617 0.27827,-1.07814 0.34087,-2.13529 l 0.078,-1.31752 -0.67305,-1.35521 -0.67306,-1.35521 0.11049,-1.09496 c 0.15684,-1.55426 0.0675,-2.48387 -0.37403,-3.8922 l -0.36225,-1.15544 -1.0647,-1.20818 c -0.58558,-0.66449 -1.37136,-1.4841 -1.74617,-1.82133 -0.37481,-0.33724 -1.14259,-1.05226 -1.70617,-1.58894 l -1.02469,-0.97577 -0.19605,-1.33862 -0.19606,-1.33862 -0.32393,0.0503 c -0.30809,0.0479 -0.34807,0.0217 -0.81811,-0.53501 l -0.49419,-0.58532 -0.524,0.28353 c -0.4145,0.22428 -0.55806,0.26308 -0.68703,0.1857 -0.1031,-0.0619 -0.36564,-0.69317 -0.71411,-1.71716 l -0.55107,-1.61932 -0.76645,-0.90344 c -0.42154,-0.49689 -0.79188,-0.97127 -0.82298,-1.05417 -0.0311,-0.0829 0.003,-0.26788 0.0759,-0.41106 0.0728,-0.14317 0.0983,-0.29369 0.0565,-0.3345 -0.0417,-0.0408 -0.8708,-0.63173 -1.84238,-1.31317 -1.29356,-0.90728 -2.15715,-1.43368 -3.22564,-1.9662 -0.80253,-0.39997 -1.50786,-0.77544 -1.5674,-0.83439 -0.0595,-0.0589 -0.3181,-0.5735 -0.57456,-1.14345 l -0.46631,-1.03628 0.13595,-0.79448 0.13595,-0.79449 -0.36068,-1.14532 c -0.34943,-1.10957 -0.37168,-1.15093 -0.71296,-1.32504 -0.40015,-0.20414 -0.39842,-0.19968 -1.020938,-2.63641 -0.357851,-1.40074 -0.40215,-1.98684 -0.203214,-2.68866 0.04335,-0.15293 -0.06391,-0.28545 -0.550799,-0.68048 -0.332549,-0.26981 -0.778095,-0.72399 -0.990103,-1.00929 l -0.385468,-0.51872 -0.838353,0.50259 c -1.06091,0.63601 -1.064044,0.63442 -1.732961,-0.87918 -0.479333,-1.08462 -0.493842,-1.14146 -0.472851,-1.85244 0.01191,-0.40342 -0.01796,-1.00901 -0.06638,-1.34576 -0.07559,-0.52571 -0.158756,-0.71261 -0.58822,-1.32202 -0.432807,-0.61416 -0.508831,-0.78624 -0.564415,-1.27754 -0.06116,-0.54058 -0.08054,-0.5761 -0.404585,-0.74141 -0.367014,-0.18724 -0.360064,-0.16661 -0.50504,-1.49855 -0.03838,-0.35263 -0.155817,-0.71624 -0.332499,-1.02952 l -0.273157,-0.48434 -0.298227,0.28906 c -0.220334,0.21355 -0.313663,0.39939 -0.357325,0.71149 -0.07853,0.56133 -0.455014,1.69914 -0.872749,2.63761 l -0.338896,0.76135 0.210325,0.45397 c 0.234516,0.50618 0.217698,0.62835 -0.140655,1.02182 -0.206601,0.22684 -0.274577,0.43679 -0.405051,1.25102 -0.148667,0.92776 -0.148609,1.02187 0.0011,1.81726 0.12344,0.65577 0.137549,0.93416 0.06465,1.27564 -0.0765,0.35833 -0.06251,0.53789 0.07788,0.99949 0.09412,0.30948 0.170943,0.64447 0.170718,0.74442 -2.24e-4,0.0999 -0.184882,0.67239 -0.410351,1.27208 -0.225468,0.5997 -0.492145,1.46475 -0.592615,1.92234 -0.10047,0.45759 -0.338776,1.19358 -0.52957,1.63554 -0.190794,0.44196 -0.440169,1.08978 -0.554167,1.4396 -0.113998,0.34982 -0.246986,0.68627 -0.295529,0.74765 -0.131552,0.16636 -1.93391,1.11505 -2.118406,1.11505 -0.240853,0 -2.696632,-0.92153 -2.889927,-1.08444 -0.0928,-0.0782 -0.230679,-0.29691 -0.306385,-0.48599 -0.193373,-0.48294 -1.221332,-1.06165 -1.888936,-1.06341 -0.444424,-0.001 -0.482265,-0.0236 -1.499243,-0.88877 -1.475432,-1.25518 -2.342317,-1.82725 -3.542049,-2.33742 -0.765811,-0.32565 -1.366147,-0.67236 -2.247482,-1.29801 -1.049795,-0.74523 -1.213633,-0.89596 -1.289766,-1.18654 -0.20964,-0.80014 -0.222108,-0.74581 0.357887,-1.55951 0.302779,-0.42479 0.712416,-1.06313 0.910304,-1.41854 l 0.359796,-0.6462 -0.134744,-0.44416 c -0.250893,-0.82702 -0.137589,-1.03477 0.564349,-1.03477 0.305734,0 0.413603,-0.0655 0.86046,-0.52246 0.296293,-0.303 0.643893,-0.78977 0.827497,-1.15881 l 0.316591,-0.63635 -0.471144,-0.53099 c -0.430625,-0.48533 -0.482179,-0.5177 -0.599449,-0.3764 -0.219432,0.2644 -0.494506,0.31417 -0.999723,0.1809 l -0.473624,-0.12494 -0.85174,0.4231 -0.851741,0.4231 -0.905307,-0.44543 c -0.806719,-0.39693 -0.931029,-0.43371 -1.141497,-0.33782 -0.368222,0.16778 -0.620594,0.13368 -1.878456,-0.25375 -1.072718,-0.33041 -1.237166,-0.41129 -1.919462,-0.94407 -0.874727,-0.68303 -2.288983,-1.29978 -2.680931,-1.16913 -0.204223,0.0681 -0.168521,0.0998 0.415816,0.3691 0.351571,0.16205 0.663483,0.35787 0.693138,0.43515 0.105909,0.27599 0.05833,1.7354 -0.05966,1.82983 -0.06247,0.05 -0.665573,0.21593 -1.340232,0.36874 l -1.226653,0.27784 -0.681474,-0.16402 -0.681474,-0.16402 -0.408884,0.23332 c -0.990439,0.56514 -1.202061,0.73836 -1.675955,1.37178 l -0.501152,0.66985 0.199253,0.35453 c 0.252209,0.44874 0.196514,0.5439 -0.603629,1.03133 -0.402428,0.24515 -0.682628,0.49363 -0.821901,0.72887 -1.093964,1.84768 -1.029833,1.61896 -0.69776,2.48857 0.435971,1.14169 0.345729,1.21277 -1.214353,0.95644 -0.449773,-0.0739 -1.213339,-0.13452 -1.696813,-0.13471 l -0.879044,-3.5e-4 -0.837774,-0.9057 c -0.646945,-0.6994 -1.051555,-1.0407 -1.776315,-1.49837 l -0.938541,-0.59266 -1.069492,0.32418 c -0.588221,0.1783 -1.072584,0.33123 -1.076362,0.33986 -0.0038,0.009 -0.05826,0.19442 -0.121072,0.41289 l -0.114202,0.3972 -0.379216,-0.0507 c -0.208569,-0.0279 -0.471214,-0.0785 -0.583658,-0.1125 -0.172814,-0.0523 -0.204442,-0.0277 -0.204442,0.15857 0,0.34269 -0.177099,0.49077 -0.847939,0.709 -0.583367,0.18977 -0.639868,0.23283 -0.93748,0.71451 -0.174184,0.28192 -0.663001,0.83984 -1.086259,1.23982 l -0.769561,0.72723 -0.132694,0.9083 c -0.182769,1.25107 -0.202421,1.31491 -0.431208,1.4007 -0.148234,0.0556 -0.337357,0.007 -0.713231,-0.18144 l -0.511506,-0.25708 -0.289313,0.46541 c -0.28782,0.463 -0.288438,0.46661 -0.119876,0.69997 0.703728,0.97421 0.76646,1.08677 0.708112,1.27061 -0.07421,0.23382 -1.360553,0.85496 -1.607953,0.77644 -0.101027,-0.0321 -0.360404,-0.46189 -0.663466,-1.09947 l -0.497592,-1.04683 -0.750645,0.93924 -0.750644,0.93924 -0.103255,1.2767 c -0.05679,0.70219 -0.130672,1.36309 -0.164182,1.46867 -0.03351,0.10558 -0.437513,0.53833 -0.897783,0.96167 -0.758355,0.6975 -0.866688,0.83957 -1.154877,1.51458 -0.295893,0.69305 -0.376767,0.79571 -1.162297,1.4754 l -0.844276,0.73052 -1.518167,0.44707 c -1.371096,0.40376 -1.597389,0.44553 -2.335936,0.43123 -1.054358,-0.0204 -1.254302,0.04 -1.534515,0.4634 -0.255136,0.38554 -0.240879,0.37916 -1.327439,0.59425 -0.55645,0.11016 -1.069972,0.30217 -1.838582,0.68746 -0.586566,0.29404 -1.150919,0.53461 -1.254119,0.53461 -0.1032,0 -0.313973,-0.0653 -0.468385,-0.14518 -0.476558,-0.24644 -1.101325,-0.10228 -2.415711,0.55739 -0.913517,0.45848 -1.299241,0.7139 -1.837675,1.2169 -0.588269,0.54954 -0.831983,0.70226 -1.781928,1.11658 l -1.100454,0.47996 -0.609422,1.06764 c -0.615649,1.07855 -0.79523,1.23996 -1.044883,0.93915 -0.05865,-0.0707 -0.135313,-0.38756 -0.170355,-0.70419 l -0.06371,-0.5757 -0.278906,0.49209 -0.278906,0.49209 0.115334,0.6437 c 0.161566,0.90172 0.151597,1.23575 -0.06183,2.07165 -0.123197,0.48252 -0.287382,0.86316 -0.482586,1.11881 -0.23752,0.31107 -0.318318,0.53417 -0.409738,1.13136 l -0.1138761,0.74389 0.3180761,0.46946 c 0.174942,0.2582 0.364665,0.65346 0.421607,0.87835 0.05694,0.22488 0.425503,0.98132 0.819026,1.68096 l 0.715495,1.27209 0.02004,0.93401 c 0.01215,0.56635 -0.01803,0.97209 -0.07667,1.03074 -0.176889,0.17689 -0.428978,0.0369 -0.751248,-0.41716 -0.419301,-0.59078 -0.930499,-1.11732 -0.970433,-0.99956 -0.01748,0.0515 0.09131,0.45788 0.241761,0.90296 0.150448,0.44509 0.273542,0.90236 0.273542,1.01616 0,0.22037 -0.238875,0.39875 -0.438506,0.32746 -0.06627,-0.0237 0.114074,0.31919 0.400756,0.7619 0.286682,0.44271 0.59426,0.92759 0.683507,1.07751 0.0986,0.16564 0.224829,0.73605 0.321718,1.45381 l 0.15945,1.18123 0.626909,0.65235 c 0.588469,0.61236 0.631019,0.68479 0.69394,1.18123 0.04837,0.38164 0.217623,0.81974 0.607996,1.57379 l 0.540965,1.04492 -0.05144,0.90863 c -0.072,1.27188 0.199697,2.31208 1.152585,4.41265 0.641754,1.41469 0.742488,1.71112 0.887246,2.61086 0.153804,0.95596 0.154675,1.07494 0.01498,2.04613 -0.08158,0.56714 -0.148318,1.40539 -0.148318,1.86279 0,0.76879 -0.02103,0.8658 -0.278288,1.2839 -0.254743,0.41401 -0.330672,0.46915 -0.897392,0.65168 l -0.619103,0.19939 -0.06066,0.66943 c -0.03336,0.36819 -0.03901,0.70447 -0.01254,0.7473 0.02647,0.0428 0.324705,0.19389 0.662748,0.3357 0.361077,0.15147 1.223138,0.69942 2.089724,1.32829 l 1.4751,1.07046 1.023638,0.009 c 0.563,0.005 1.404829,0.0354 1.870729,0.0682 l 0.847092,0.0597 0.522959,-0.42314 c 0.287628,-0.23273 0.887759,-0.68084 1.333625,-0.9958 0.762835,-0.53886 0.838406,-0.57162 1.280829,-0.55511 l 0.470163,0.0175 0.74182,-0.79363 c 0.408001,-0.4365 0.792635,-0.82248 0.854742,-0.85772 0.06211,-0.0352 0.579814,-0.109 1.15046,-0.16388 0.570646,-0.0549 1.474754,-0.18049 2.009129,-0.27913 l 0.97159,-0.17933 1.254558,0.31333 c 1.244382,0.31078 1.260085,0.31227 1.936032,0.18375 0.37481,-0.0713 1.267402,-0.15594 1.983537,-0.18817 l 1.302063,-0.0586 0.449708,-0.59405 c 0.343711,-0.45403 0.514474,-0.80252 0.724492,-1.47852 0.151132,-0.48646 0.323713,-0.9226 0.383515,-0.9692 0.0598,-0.0466 0.650048,-0.25533 1.31166,-0.46387 0.98039,-0.30901 1.483338,-0.53871 2.718639,-1.24163 l 1.515708,-0.86248 1.370205,0.1014 1.370205,0.1014 3.407369,-1.13433 3.40737,-1.13434 2.601343,-0.15741 2.601344,-0.15742 1.345869,0.80591 1.34587,0.80592 1.004831,0.0508 1.004832,0.0508 1.831423,1.01995 c 1.007282,0.56098 1.884785,1.08425 1.950006,1.16284 0.09937,0.11974 0.08456,0.20199 -0.0914,0.50775 -0.241088,0.4189 -0.274963,0.35753 0.598954,1.08497 0.265492,0.22099 0.875361,0.95115 1.391188,1.66558 l 0.918462,1.27208 -0.05742,0.8632 -0.05742,0.8632 0.574361,0.35624 c 0.315899,0.19593 0.700146,0.43089 0.853884,0.52213 l 0.279522,0.16588 0.438177,-1.11273 c 0.240997,-0.61201 0.483099,-1.17 0.538005,-1.23999 0.0549,-0.07 0.483933,-0.38412 0.953396,-0.69805 0.775603,-0.51867 0.960441,-0.70416 2.023606,-2.03075 0.64352,-0.80297 1.224286,-1.45995 1.290591,-1.45995 0.297126,0 0.39818,0.32018 0.510158,1.6164 l 0.112165,1.29838 -0.552764,0.83829 c -0.499166,0.75701 -0.575209,0.93772 -0.784232,1.86368 -0.205141,0.90876 -0.277327,1.08381 -0.634687,1.53913 -0.221772,0.28256 -0.389394,0.52757 -0.372495,0.54447 0.0169,0.0169 0.302503,-0.0375 0.634674,-0.12098 0.682828,-0.17152 0.648319,-0.13489 1.466909,-1.5574 0.821054,-1.42679 0.962061,-1.38647 1.435428,0.41046 0.182905,0.69432 0.332554,1.33698 0.332554,1.42813 0,0.0912 -0.145511,0.43046 -0.323358,0.75402 -0.177846,0.32355 -0.29029,0.61816 -0.249873,0.65468 0.04042,0.0365 0.548093,0.13653 1.128172,0.22223 l 1.054689,0.15582 0.781023,0.78714 c 0.726782,0.73249 0.803877,0.8471 1.110095,1.65035 0.18099,0.47476 0.453152,1.47581 0.604805,2.22454 l 0.275733,1.36134 0.816875,0.98003 c 0.449282,0.53901 0.896077,1.02241 0.992879,1.07422 0.59228,0.31698 2.593386,0.98205 3.258732,1.08304 0.7867,0.11942 1.885518,0.47802 3.686024,1.20292 l 1.005559,0.40485 1.19404,-1.24586 c 1.155612,-1.20577 1.221049,-1.25775 2.03321,-1.6151 1.186741,-0.52216 1.330915,-0.40381 1.029375,0.84502 -0.200146,0.8289 -0.21323,0.80412 0.569712,1.0787 0.471997,0.16552 1.048736,0.4839 1.749116,0.96558 0.57471,0.39525 1.06651,0.72053 1.09288,0.72284 0.0264,0.002 0.37393,-0.29431 0.77234,-0.65915 z m 55.83143,-53.57125 c -2.04358,-1.10814 -3.99608,-2.67364 -5.61726,-4.50386 -0.79307,-0.89534 -1.01552,-1.21059 -1.188,-1.68363 -0.28697,-0.78703 -0.2326,-0.85796 0.68305,-0.89109 l 0.71733,-0.0259 0.81777,0.51467 c 0.88689,0.55817 1.89106,1.33818 2.68046,2.08212 0.27486,0.25904 1.01086,0.88188 1.63554,1.38411 0.62469,0.50223 1.4985,1.25844 1.94182,1.68047 0.71118,0.67702 0.7945,0.78886 0.70805,0.95039 -0.13015,0.24319 -1.20712,0.93957 -1.42955,0.92437 -0.0965,-0.007 -0.52361,-0.20082 -0.94921,-0.4316 z m 1.45529,-0.65253 c 0,-0.10869 -1.04757,-1.04799 -2.40787,-2.15901 -0.74962,-0.61225 -1.73095,-1.4372 -2.18072,-1.83322 -1.06565,-0.9383 -2.28636,-1.72639 -2.67411,-1.72639 -0.26049,0 -0.2844,0.0215 -0.22675,0.20444 0.10211,0.324 1.72361,2.11455 2.71913,3.00261 1.00091,0.89287 2.4238,1.89069 3.54105,2.4832 0.7064,0.37462 0.73053,0.38043 0.97678,0.23496 0.13887,-0.082 0.25249,-0.175 0.25249,-0.20659 z m 30.12196,-11.36929 c -0.39935,-0.0983 -0.77253,-0.21722 -0.82928,-0.26432 -0.0568,-0.0471 -0.17633,-0.43415 -0.26572,-0.86011 l -0.16253,-0.77447 0.39972,-0.40728 c 0.21984,-0.224 0.55006,-0.51146 0.73381,-0.63881 l 0.33411,-0.23153 0.59311,0.17794 0.59312,0.17794 0.31882,-0.21664 c 0.17534,-0.11916 0.39254,-0.21597 0.48264,-0.21515 0.0901,8.2e-4 0.42805,0.23976 0.75098,0.53098 l 0.58714,0.52948 -0.25806,0.87387 c -0.14194,0.48063 -0.32437,0.93103 -0.40542,1.0009 -0.14476,0.12481 -1.743,0.52762 -2.01005,0.50661 -0.075,-0.006 -0.46304,-0.0911 -0.86239,-0.18941 z m 1.70576,-0.68289 0.70707,-0.15798 0.17132,-0.54777 0.17132,-0.54777 -0.26719,-0.27259 c -0.26609,-0.27146 -0.26834,-0.27193 -0.54502,-0.11358 -0.3392,0.19414 -0.62497,0.19887 -1.21433,0.0201 l -0.45148,-0.13695 -0.39333,0.39332 c -0.38573,0.38573 -0.39164,0.40081 -0.3062,0.78105 0.0479,0.21325 0.10773,0.40834 0.13292,0.43354 0.0644,0.0644 0.88713,0.28525 1.10612,0.29693 0.1,0.005 0.49991,-0.0614 0.8888,-0.1483 z m 1.31925,-2.93918 c -0.22542,-0.13145 -0.59323,-1.32337 -0.46963,-1.52185 0.11599,-0.18625 1.62175,-0.82954 1.94154,-0.82947 0.12494,3e-5 0.68762,-0.23601 1.25042,-0.52453 1.29532,-0.66405 1.32876,-0.65221 1.36502,0.48337 0.0177,0.5545 -0.0109,0.85722 -0.0909,0.96171 -0.12566,0.16418 -1.47015,0.72397 -2.9286,1.21935 -0.49708,0.16884 -0.90596,0.30573 -0.90863,0.30421 -0.003,-0.002 -0.0743,-0.0433 -0.15926,-0.0928 z m 1.20464,-0.998 c 0.42186,-0.15168 1.0839,-0.4016 1.47121,-0.55539 0.65121,-0.25857 0.70419,-0.29935 0.70419,-0.54198 0,-0.14431 -0.0226,-0.26238 -0.0501,-0.26238 -0.0276,0 -0.32402,0.13908 -0.65876,0.30906 -0.33475,0.16998 -0.79263,0.3361 -1.01751,0.36915 -0.22489,0.0331 -0.6401,0.16997 -0.9227,0.30427 -0.46413,0.22056 -0.50615,0.26394 -0.43453,0.44861 0.0436,0.11245 0.0932,0.20445 0.11025,0.20445 0.017,0 0.37613,-0.12411 0.79798,-0.27579 z m -32.86018,-0.24807 c -0.0543,-0.0367 -0.30982,-0.35868 -0.56789,-0.71549 -0.49141,-0.6794 -0.55883,-0.94813 -0.38767,-1.54495 0.072,-0.25121 0.0562,-0.29592 -0.13593,-0.38346 -0.14679,-0.0669 -0.29338,-0.0702 -0.45096,-0.0103 -0.33927,0.12899 -0.56364,-0.0292 -0.81882,-0.57725 -0.19746,-0.4241 -0.21883,-0.59117 -0.21963,-1.71744 -8.8e-4,-1.2397 4.9e-4,-1.24798 0.21606,-1.30209 0.31976,-0.0802 1.65523,0.81305 1.77421,1.18678 0.16317,0.51249 0.47027,2.33003 0.4203,2.48747 -0.0357,0.1123 0.19764,0.40034 0.81726,1.00904 0.53613,0.52669 0.84846,0.90056 0.8182,0.97941 -0.0269,0.0701 -0.0489,0.14652 -0.0489,0.16971 0,0.0232 -0.21466,0.14213 -0.47703,0.26428 -0.48794,0.22717 -0.76435,0.27259 -0.93916,0.15432 z m 0.49089,-0.78004 c -0.0158,-0.007 -0.14846,-0.11584 -0.29477,-0.24078 l -0.26601,-0.22716 0.20481,0.29638 c 0.11265,0.163 0.24529,0.27135 0.29477,0.24077 0.0495,-0.0306 0.077,-0.0617 0.0612,-0.0692 z m -1.46841,-2.76223 c -0.0239,-0.0875 -0.0908,-0.42517 -0.14858,-0.75047 -0.0919,-0.5171 -0.14306,-0.61637 -0.40727,-0.78956 -0.16621,-0.10896 -0.32144,-0.17887 -0.34496,-0.15535 -0.0728,0.0728 0.0315,1.34059 0.13204,1.60452 0.0816,0.21429 0.14624,0.24987 0.45373,0.24987 0.29749,0 0.35114,-0.0271 0.31504,-0.15901 z m -15.37709,-13.08569 c -0.19781,-0.13488 -1.23298,-1.92925 -1.20329,-2.08579 0.0508,-0.26769 0.45312,-0.23661 1.31126,0.1013 0.44424,0.17493 0.97126,0.36267 1.17116,0.4172 0.27442,0.0748 0.45844,0.21988 0.75118,0.59201 0.74855,0.95155 0.67391,1.04532 -0.83045,1.04342 -0.60607,-7.6e-4 -1.14601,-0.0314 -1.19986,-0.0681 z m 1.32457,-0.60451 c 0,-0.16357 -0.13951,-0.32545 -0.28048,-0.32545 -0.0936,0 -0.33624,-0.0664 -0.53922,-0.14767 -0.20299,-0.0812 -0.38548,-0.13125 -0.40554,-0.11119 -0.0201,0.0201 0.047,0.16829 0.14899,0.32939 0.16773,0.26493 0.22803,0.29292 0.63085,0.29292 0.24497,0 0.4454,-0.0171 0.4454,-0.038 z m -34.47886,-0.14999 -0.41772,-0.38504 -2.41727,-0.34267 c -1.32949,-0.18847 -2.51834,-0.36805 -2.64189,-0.39905 -0.29834,-0.0749 -2.70835,-2.109741 -3.56774,-3.012383 -0.47454,-0.498425 -0.87349,-1.050112 -1.31383,-1.81683 l -0.63236,-1.101058 -1.730084,-0.562166 -1.730082,-0.562167 -1.075955,0.365015 c -0.923574,0.31332 -2.307047,0.957313 -2.539682,1.182196 -0.03959,0.03827 -1.7e-5,0.486677 0.08793,0.996468 0.111,0.643426 0.1319,0.971287 0.06834,1.07205 -0.107575,0.170542 -2.17818,1.112885 -2.453443,1.116574 -0.103636,0.0014 -0.512889,-0.09459 -0.90945,-0.213285 -0.559995,-0.167614 -1.049824,-0.230768 -2.193305,-0.282785 -0.858205,-0.03904 -1.527676,-0.110094 -1.605087,-0.170357 -0.114186,-0.08889 -0.141859,-1.403038 -0.197422,-9.375384 -0.05965,-8.559258 -0.05306,-9.283561 0.08576,-9.422385 0.180422,-0.180422 -0.01029,-0.240909 3.021062,0.958146 1.212499,0.479605 3.365449,1.228489 4.815749,1.675113 l 2.622911,0.807734 0.944854,0.694853 c 0.519669,0.38217 1.343684,1.047434 1.831141,1.478366 l 0.88629,0.783512 0.21003,0.805016 0.21003,0.805016 1.86594,0.685392 c 1.02627,0.376966 2.07039,0.762972 2.32027,0.857791 0.41371,0.15699 0.47981,0.224092 0.73965,0.750804 0.45336,0.919025 0.54359,1.2425 0.38919,1.39522 -0.0731,0.07229 -0.485,0.169394 -0.94712,0.223271 -0.44977,0.05244 -0.94858,0.11733 -1.10845,0.144206 l -0.29069,0.04887 0.24525,0.693343 0.24526,0.693342 1.21897,0.897853 1.21898,0.897852 0.87315,1.426755 0.87315,1.426756 0.77407,-0.03186 c 0.96302,-0.03964 1.04347,0.02591 0.96407,0.785597 l -0.0546,0.522686 0.97324,0.210933 c 0.53528,0.116013 1.02191,0.250914 1.08141,0.29978 0.1214,0.0997 0.0683,0.314607 -0.13657,0.55315 -0.0754,0.08776 -0.12029,0.173069 -0.0998,0.18957 0.0205,0.0165 0.54451,0.231796 1.16442,0.478434 0.61992,0.246633 1.1707,0.517513 1.22396,0.601943 0.12058,0.19116 -0.17568,1.13348 -0.39152,1.24531 -0.0783,0.0405 -0.38763,0.10019 -0.68747,0.13254 -0.29985,0.0324 -0.73658,0.0818 -0.9705,0.10992 -0.40328,0.0485 -0.44697,0.0311 -0.84304,-0.33395 z m 1.68343,-0.44805 c 0.26921,0 0.60094,-0.2526 0.47668,-0.36297 -0.0407,-0.0361 -0.6766,-0.30352 -1.41313,-0.59415 -1.36558,-0.538855 -1.5846,-0.703301 -1.33588,-1.002994 0.0612,-0.07377 0.0951,-0.150366 0.0752,-0.17021 -0.0198,-0.01984 -0.31928,-0.101757 -0.66541,-0.182031 -0.83948,-0.194688 -0.88075,-0.236886 -0.81112,-0.829292 l 0.057,-0.485141 -0.74935,-0.02659 -0.74936,-0.02658 -0.92992,-1.519103 -0.92992,-1.519103 -1.12682,-0.828715 c -0.61975,-0.455794 -1.19742,-0.891879 -1.28371,-0.969079 -0.0863,-0.0772 -0.30981,-0.60501 -0.49672,-1.172911 -0.42441,-1.289498 -0.44191,-1.263365 0.96221,-1.436782 0.56338,-0.06958 1.05058,-0.152767 1.08268,-0.184858 0.0321,-0.03209 -0.0429,-0.248814 -0.16672,-0.481605 -0.19714,-0.370731 -0.29272,-0.448492 -0.77025,-0.626619 -0.29985,-0.111849 -1.28117,-0.473904 -2.18071,-0.804565 -0.89955,-0.330661 -1.71993,-0.655498 -1.82307,-0.72186 -0.13508,-0.08691 -0.23447,-0.332826 -0.35539,-0.879268 -0.164,-0.741134 -0.18166,-0.771903 -0.76654,-1.33554 -0.329267,-0.317311 -1.096959,-0.951821 -1.705981,-1.410023 L 97.293106,82.842617 94.720459,82.053434 C 93.28909,81.614348 91.180403,80.881371 89.967096,80.40117 l -2.180717,-0.86308 -0.02321,7.983521 c -0.01276,4.390937 0.0077,8.324493 0.04543,8.741236 l 0.06864,0.757715 1.317516,0.05747 c 0.967101,0.04219 1.474599,0.108332 1.908127,0.248702 0.324836,0.105176 0.66012,0.191757 0.745077,0.192402 0.137637,0.001 1.770368,-0.666721 1.867381,-0.763734 0.02134,-0.02134 -0.03256,-0.473679 -0.119782,-1.005191 -0.136239,-0.830202 -0.140584,-0.984245 -0.03083,-1.093117 0.310129,-0.30764 1.869273,-1.047191 3.050048,-1.446733 l 1.286755,-0.435403 1.711731,0.56644 c 0.941455,0.311542 1.834395,0.623156 1.984325,0.692475 0.20501,0.09479 0.44826,0.427451 0.98125,1.341892 0.62464,1.071705 0.82394,1.327548 1.68097,2.157904 0.53477,0.518125 1.36347,1.257555 1.84156,1.643177 l 0.86926,0.701132 1.12973,0.180031 c 0.62135,0.099 1.80333,0.27071 2.62661,0.38154 l 1.49688,0.20151 0.36582,0.35143 c 0.33824,0.32494 0.39588,0.34773 0.76467,0.30232 0.21936,-0.027 0.51288,-0.0491 0.65226,-0.0491 z m 27.11648,-1.511615 c -0.71567,-0.126872 -1.31413,-0.427245 -1.52442,-0.765116 -0.13427,-0.21574 0.0934,-1.43015 0.2876,-1.534085 0.27912,-0.149381 2.06923,0.333237 2.6452,0.713152 0.50099,0.330458 1.09035,1.06933 1.09035,1.366948 0,0.374835 -1.08407,0.469891 -2.49873,0.219101 z m 1.49761,-0.656978 c -9e-4,-0.03166 -0.19707,-0.185284 -0.43594,-0.341397 -0.42809,-0.279781 -1.66676,-0.637292 -1.83907,-0.530801 -0.13727,0.08484 -0.0991,0.463334 0.0601,0.595418 0.29083,0.241365 2.22079,0.482532 2.21496,0.27678 z m 1.25203,-0.861012 c -1.09543,-1.281361 -1.11909,-1.31847 -1.41129,-2.213825 -0.16345,-0.50084 -0.27306,-0.973468 -0.24359,-1.050284 0.0631,-0.16433 0.32066,-0.245475 0.78473,-0.247195 0.65038,-0.0024 0.72988,0.07863 1.26044,1.284859 0.3563,0.810046 0.64663,1.311149 1.04478,1.803249 0.30325,0.374811 0.57664,0.748882 0.60753,0.83127 0.0342,0.09135 -0.0508,0.29521 -0.2179,0.522464 -0.44983,0.61167 -0.54989,0.560639 -1.8247,-0.930538 z m -0.20845,-1.84293 c -0.22325,-0.481004 -0.40591,-0.889889 -0.40591,-0.908632 0,-0.01874 -0.061,-0.03408 -0.13551,-0.03408 -0.11122,0 -0.0957,0.105799 0.0866,0.59014 0.20679,0.549395 0.64616,1.227115 0.79555,1.227121 0.0358,2e-6 -0.11749,-0.393547 -0.34074,-0.874552 z m -4.36912,-1.020045 c -2.1576,-1.194931 -3.7536,-2.38465 -3.75805,-2.801384 -0.002,-0.224831 0.42691,-0.574082 0.70567,-0.574082 0.26468,0 0.5411,0.134975 2.29296,1.11965 1.45567,0.818196 1.61996,0.936413 1.9736,1.420099 0.30651,0.419232 0.3905,0.615916 0.40888,0.957536 0.0384,0.713927 -0.13791,0.700692 -1.62306,-0.121819 z m 0.45446,-0.689642 c -0.0537,-0.13997 -2.65683,-1.638867 -2.72603,-1.569669 -0.0809,0.08092 2.43262,1.648487 2.71098,1.690702 0.0359,0.0054 0.0427,-0.04902 0.0151,-0.121033 z m -7.25995,-2.236239 c -0.40422,-0.219066 -0.86248,-0.578561 -1.2525,-0.982547 -0.5433,-0.562758 -0.60812,-0.666885 -0.55568,-0.892545 0.0798,-0.343354 0.28811,-0.664346 0.43112,-0.664346 0.15451,0 1.6258,1.022671 2.48046,1.724127 0.7403,0.607603 0.82993,0.848183 0.39725,1.066302 -0.37716,0.190134 -0.82485,0.115256 -1.50065,-0.250991 z m -4.8414,-1.570593 c -0.41149,-0.365046 -0.90311,-0.937561 -1.29565,-1.508839 -0.57585,-0.838068 -0.66278,-1.027044 -0.96978,-2.108254 l -0.33722,-1.187668 0.29408,-0.262759 c 0.47853,-0.427566 0.70219,-0.351324 0.93843,0.319897 0.0829,0.235601 0.26578,0.46066 0.54219,0.667306 0.22939,0.171494 0.72005,0.709868 1.09036,1.196386 0.48933,0.642896 0.86568,1.02487 1.37747,1.39806 0.42533,0.310139 0.70335,0.577153 0.70207,0.674265 -0.001,0.08843 -0.11361,0.364728 -0.24987,0.613995 -0.26318,0.481434 -0.54905,0.675053 -1.09892,0.7443 -0.30122,0.03793 -0.38799,-0.0098 -0.99316,-0.546689 z m 1.34458,-0.332803 c 0.1,-0.09995 0.18001,-0.232837 0.17791,-0.295305 -0.002,-0.06247 -0.25669,-0.297577 -0.56574,-0.522464 -0.35118,-0.255535 -0.81832,-0.740308 -1.24555,-1.29258 -0.63991,-0.827181 -1.13949,-1.325767 -1.23385,-1.231403 -0.11199,0.111985 0.34827,1.124995 0.81961,1.803927 0.5748,0.827977 1.45113,1.708666 1.70688,1.715378 0.0875,0.0023 0.24079,-0.0776 0.34074,-0.177553 z m -18.40746,-1.179877 c -0.65389,-0.238158 -1.57388,-0.63233 -2.04442,-0.875938 -0.80197,-0.415187 -0.85479,-0.459992 -0.84356,-0.715513 0.0201,-0.457748 0.20901,-1.023119 0.36137,-1.081582 0.0793,-0.03044 0.69009,0.03169 1.35726,0.138067 0.90647,0.144528 1.38521,0.177276 1.89424,0.129577 l 0.68118,-0.06383 0.19704,-0.606041 c 0.2229,-0.685592 0.35988,-0.833199 0.77324,-0.833199 0.37473,0 0.45281,0.106623 0.58965,0.805225 l 0.11322,0.578068 0.55408,-0.06025 c 0.5284,-0.05746 0.57425,-0.08301 0.98978,-0.551461 0.23965,-0.270165 0.73283,-0.676393 1.09598,-0.90273 l 0.66026,-0.411521 -0.13547,-0.776794 c -0.17566,-1.007313 -0.16347,-1.020262 1.03426,-1.098635 l 0.90724,-0.05936 0.40888,0.313009 0.40889,0.31301 -0.001,0.948439 -0.001,0.948439 -0.52995,0.937485 c -0.29146,0.515616 -0.5772,0.952523 -0.63496,0.970904 -0.0578,0.01838 -0.39289,0.0792 -0.74474,0.135158 -0.6152,0.09784 -0.64855,0.116357 -0.8701,0.48314 -0.21543,0.356656 -0.3331,0.427196 -1.81358,1.087161 l -1.58321,0.705758 -0.81777,-0.01178 c -0.7333,-0.01056 -0.94057,-0.05651 -2.00665,-0.444795 z m 4.13184,-0.89379 c 1.30894,-0.583955 1.40432,-0.643802 1.64675,-1.033302 0.27106,-0.435486 0.35248,-0.47482 1.19067,-0.575207 l 0.51031,-0.06112 0.42104,-0.756132 c 0.39679,-0.712586 0.42103,-0.795612 0.42103,-1.441663 0,-0.584771 -0.0258,-0.699357 -0.17575,-0.779592 -0.20064,-0.107381 -1.27971,-0.129314 -1.27487,-0.02591 0.002,0.03748 0.0605,0.333923 0.13066,0.658759 0.16227,0.751892 0.1253,0.811655 -0.89505,1.446882 -0.43091,0.268264 -0.78504,0.512455 -0.78696,0.542646 -0.002,0.03019 -0.1757,0.249506 -0.38617,0.487365 l -0.38268,0.432472 -0.93324,0.119735 c -1.07433,0.137836 -1.09409,0.128904 -1.25162,-0.565736 l -0.095,-0.418942 -0.15953,0.469102 c -0.0877,0.258006 -0.20942,0.488243 -0.27038,0.511637 -0.061,0.0234 -0.47797,0.0919 -0.92668,0.152232 -0.72834,0.09793 -0.93234,0.08957 -1.90213,-0.07794 -1.04893,-0.181179 -1.22543,-0.169576 -1.22849,0.08076 -9.1e-4,0.07491 1.49798,0.736674 2.48396,1.096679 0.77492,0.282944 1.04451,0.337997 1.69795,0.34674 0.77233,0.01033 0.78469,0.0069 2.16619,-0.609464 z m 5.70154,-3.219114 c -0.0704,-0.112444 -0.24135,-0.551066 -0.37989,-0.974716 -0.40862,-1.249537 -0.6604,-1.559469 -2.18418,-2.688602 -1.12325,-0.832333 -1.51865,-1.067802 -2.43845,-1.452123 -0.96677,-0.403949 -1.1011,-0.486512 -1.12535,-0.691686 -0.0217,-0.183878 0.0644,-0.309007 0.40888,-0.593677 0.24004,-0.198381 0.5001,-0.383698 0.57793,-0.411815 0.1601,-0.05785 1.47907,0.614541 2.91086,1.483899 0.71229,0.432495 1.27395,0.880643 2.1606,1.723956 l 1.19809,1.139539 0.18098,0.757702 c 0.0995,0.416737 0.15891,0.8272 0.13195,0.912141 -0.07,0.220388 -1.0281,0.985915 -1.24738,0.996604 -0.0363,0.0018 -0.12365,-0.08878 -0.19404,-0.201222 z m 0.72671,-1.141324 c -0.023,-0.08441 -0.0897,-0.357919 -0.14811,-0.607793 -0.0892,-0.38122 -0.18167,-0.515359 -0.57502,-0.833717 -0.25783,-0.20867 -0.48351,-0.364666 -0.50152,-0.346658 -0.018,0.01801 0.11101,0.270515 0.2867,0.561127 0.1757,0.290612 0.38564,0.764209 0.46654,1.052439 0.13507,0.481212 0.16206,0.516044 0.33019,0.426067 0.10887,-0.05827 0.16612,-0.1602 0.14122,-0.251465 z m -1.96965,-2.613903 c -0.2228,-0.228803 -0.69131,-0.583151 -1.04113,-0.787441 -0.34983,-0.20429 -0.73827,-0.433473 -0.8632,-0.509296 -0.44276,-0.268702 -0.02,0.08999 1.05056,0.891366 0.5966,0.446587 1.1239,0.814091 1.17179,0.816676 0.0479,0.0026 -0.0952,-0.182503 -0.31802,-0.411305 z m -3.11952,-2.003264 c -0.37349,-0.191642 -0.65769,-0.287359 -0.70695,-0.238098 -0.0493,0.04926 0.14703,0.176358 0.48828,0.316156 0.82474,0.337866 0.94535,0.29481 0.21867,-0.07806 z"
       id="path1"
       inkscape:label="Outline" /><path
       style="fill:#ffffff;stroke:#000000;stroke-width:4.76881"
       d="m 380.0511,714.38875 c -6.12999,-3.30187 -6.13344,-3.30594 -5.63084,-6.62918 0.2766,-1.82891 0.11432,-3.56545 -0.36063,-3.85899 -1.65619,-1.02358 -7.73529,2.34124 -12.23423,6.77174 l -4.53202,4.46307 -7.63484,-2.60896 c -4.19916,-1.43492 -10.8078,-3.54235 -14.68586,-4.68318 -6.16499,-1.81358 -7.48207,-2.58961 -10.48126,-6.17568 -2.51572,-3.00798 -3.72232,-5.54311 -4.52579,-9.50893 -2.2271,-10.99266 -6.50909,-16.88899 -12.97696,-17.86932 -4.33988,-0.65781 -4.56501,-0.88655 -3.2644,-3.31677 0.57799,-1.08 0.79117,-3.04115 0.47371,-4.35812 -2.59791,-10.77749 -3.56263,-11.44885 -7.2964,-5.07766 -2.28604,3.90084 -5.7984,6.94241 -5.7984,5.02119 0,-0.48387 0.35567,-1.09959 0.79039,-1.36826 0.43473,-0.26868 1.26999,-2.39311 1.85615,-4.72096 0.58616,-2.32786 1.92251,-5.43567 2.96966,-6.90626 1.42848,-2.00611 1.85673,-3.82245 1.715,-7.27376 -0.39133,-9.52961 -1.56032,-9.86991 -7.72087,-2.24753 -2.44489,3.02506 -5.97622,6.51323 -7.84737,7.7515 -2.27754,1.50721 -3.90218,3.56083 -4.91496,6.21277 -1.64229,4.30027 -2.51493,4.70082 -5.57368,2.55839 -1.46641,-1.02712 -2.00303,-2.31149 -2.00303,-4.7941 0,-2.55178 -0.90012,-4.60251 -3.63667,-8.28544 -2.00017,-2.69188 -4.4449,-5.51298 -5.43273,-6.26911 -1.10645,-0.84694 -1.69985,-2.21677 -1.5455,-3.56772 0.21689,-1.89839 -0.77836,-2.77226 -7.41007,-6.50634 -5.46988,-3.07989 -8.65782,-4.31478 -11.14771,-4.31821 -2.34423,-0.003 -5.1503,-0.99762 -8.56186,-3.03414 l -5.07475,-3.02934 -9.91373,0.62496 c -8.44369,0.53228 -11.83124,1.26423 -22.8451,4.9361 -11.12801,3.70992 -13.64169,4.24804 -18.02496,3.85866 -4.49069,-0.39891 -5.68032,-0.12147 -10.05041,2.34389 -2.72624,1.538 -7.3902,3.66704 -10.36436,4.73122 -5.18952,1.85685 -5.52627,2.17084 -8.35233,7.78809 l -2.94479,5.85323 -8.10233,0.61164 c -5.14914,0.38871 -9.48473,0.23941 -11.89504,-0.40963 -2.8853,-0.77693 -5.78871,-0.74722 -12.13545,0.12416 -7.56494,1.03863 -8.61358,1.42486 -11.24785,4.14274 -1.59781,1.64853 -3.766215,2.99732 -4.81867,2.99732 -1.052455,0 -4.087858,1.62224 -6.745338,3.60499 -4.67823,3.49043 -5.056962,3.60499 -11.917481,3.60499 -6.849004,0 -7.248226,-0.12006 -11.951199,-3.59435 -2.676026,-1.9769 -6.321078,-4.28848 -8.100114,-5.13684 -2.051984,-0.97852 -3.059851,-1.9979 -2.756624,-2.78809 0.262892,-0.68509 0.477986,-1.77682 0.477986,-2.42607 0,-0.64925 1.002198,-1.432 2.227106,-1.73943 3.299334,-0.82808 4.063281,-3.08432 4.677165,-13.81358 l 0.555868,-9.71529 -3.858492,-9.45843 c -2.792086,-6.84432 -3.935967,-11.00245 -4.138817,-15.04505 -0.168424,-3.35651 -1.016578,-7.02979 -2.124699,-9.20189 -1.014405,-1.98839 -1.844372,-4.22565 -1.844372,-4.97169 0,-0.74602 -1.160646,-2.6886 -2.579213,-4.31682 -1.726958,-1.98221 -2.795405,-4.44943 -3.233485,-7.46666 -0.35985,-2.47844 -1.459002,-5.81806 -2.442561,-7.42139 -0.983558,-1.60334 -1.891949,-4.75145 -2.018647,-6.99583 l -0.23036,-4.08067 1.930538,1.81364 c 2.973915,2.79385 4.067487,2.26849 4.067487,-1.95405 0,-2.71224 -1.219372,-6.18374 -4.352779,-12.39217 -4.644012,-9.2015 -4.707109,-9.8539 -1.611049,-16.65781 0.992833,-2.18186 1.534224,-5.27554 1.41946,-8.11124 -0.240981,-5.95439 0.06466,-7.83585 0.828758,-5.10156 0.987081,3.53225 2.515173,3.15144 5.108035,-1.27295 1.785749,-3.04715 3.657621,-4.761 7.053278,-6.45782 2.542318,-1.27042 5.6363,-3.25724 6.875516,-4.41516 3.663319,-3.42301 12.220661,-6.94384 15.256376,-6.27708 1.766157,0.38791 3.751671,-3e-5 6.080315,-1.18801 1.901774,-0.97022 5.280519,-2.24964 7.50832,-2.84316 2.227802,-0.59353 4.658892,-1.60014 5.402422,-2.23692 0.74353,-0.63678 3.379681,-1.43113 5.85811,-1.76522 12.1621,-1.63944 18.34412,-5.06369 22.08058,-12.23053 0.9045,-1.73491 3.09956,-4.55201 4.87789,-6.26022 2.73956,-2.63153 3.23335,-3.70506 3.23335,-7.02943 0,-4.24922 1.49294,-7.86643 4.29236,-10.39987 1.71894,-1.55562 1.8074,-1.52203 2.89298,1.0988 1.79245,4.32738 3.05452,4.92323 6.73182,3.17824 1.76361,-0.83689 3.20388,-1.77957 3.20062,-2.09486 -0.003,-0.31528 -0.79554,-1.77109 -1.7606,-3.23513 -2.14195,-3.2494 -1.02956,-5.28244 2.41702,-4.41741 2.60128,0.65288 3.8212,-0.72346 3.84196,-4.33457 0.0168,-2.92881 8.24653,-12.8288 11.93411,-14.35624 1.37481,-0.56947 2.49966,-1.39176 2.49966,-1.82731 0,-0.43555 0.8475,-0.7919 1.88335,-0.7919 1.03584,0 2.55669,-0.79058 3.37968,-1.75683 0.82298,-0.96626 2.9158,-2.1202 4.6507,-2.56431 3.62563,-0.92812 5.82241,0.22226 12.61747,6.60733 3.95291,3.7144 4.24391,3.82285 11.49042,4.2821 4.08914,0.25915 7.62038,0.1709 7.84721,-0.19611 0.22681,-0.367 -0.0393,-2.13905 -0.59138,-3.93789 -0.90269,-2.9412 -0.76279,-3.63476 1.38889,-6.88618 1.31597,-1.98856 3.42844,-4.29423 4.69438,-5.12371 1.51099,-0.99003 2.2136,-2.18047 2.04525,-3.46522 -0.5809,-4.43283 6.12903,-10.11379 10.868,-9.2014 1.29953,0.2502 4.50956,0.0252 7.13341,-0.49993 5.30307,-1.06141 6.90809,-2.87447 6.28754,-7.10255 -0.46629,-3.177 -0.1885,-3.19737 4.07676,-0.29906 4.27687,2.90622 9.9017,4.90881 13.78775,4.90881 1.65576,0 4.4437,0.68345 6.19542,1.51879 2.98664,1.42423 3.38326,1.42423 6.3699,0 4.01176,-1.91308 9.73212,-1.97781 11.26772,-0.12752 0.96506,1.16283 0.72139,2.00774 -1.48398,5.14559 -1.45124,2.06488 -3.64482,3.99278 -4.8746,4.28424 -1.84949,0.43831 -2.24154,1.07998 -2.26813,3.71228 -0.0202,2.00405 -1.10476,4.8539 -2.92905,7.6968 -4.00837,6.2465 -3.82484,8.62511 0.93339,12.09709 2.10667,1.53719 6.5429,4.16843 9.8583,5.84718 3.31539,1.67876 8.33558,4.93184 11.15596,7.22908 2.82039,2.29723 6.5509,4.56967 8.29003,5.04987 1.73914,0.4802 4.58653,2.25652 6.32755,3.94737 3.56595,3.46321 11.37289,6.34151 14.84006,5.47131 4.94688,-1.24159 7.39148,-4.96235 11.34029,-17.2603 3.73923,-11.64525 3.75868,-11.77695 3.21072,-21.74107 -0.45922,-8.35049 -0.29644,-10.56191 0.9746,-13.24043 0.85481,-1.80136 1.27076,-4.01944 0.94579,-5.04335 -0.49637,-1.56393 0.40606,-4.78245 4.57123,-16.30316 0.77836,-2.1529 3.06376,1.56896 3.06376,4.98944 0,1.69785 0.72582,3.49929 1.8025,4.47367 0.99137,0.89718 1.8025,2.41828 1.8025,3.38023 0,0.96195 0.87551,2.97854 1.94557,4.4813 1.26511,1.77669 2.16324,4.81984 2.56792,8.70099 0.82495,7.91166 2.96765,12.72804 5.66242,12.72804 1.12227,0 2.87965,-0.58776 3.90527,-1.30614 1.72564,-1.20868 2.12632,-1.03831 5.36991,2.28343 2.60404,2.66678 3.44205,4.21893 3.25979,6.0377 -0.36213,3.61349 3.17915,16.48052 5.12491,18.62113 2.39877,2.63897 3.99853,8.27369 3.3986,11.97063 -0.37709,2.3237 0.0777,4.33076 1.71197,7.55592 1.87238,3.69495 3.11728,4.8401 7.84668,7.21788 8.98856,4.51913 18.68934,11.5766 18.68934,13.59677 0,0.96996 1.35769,3.45407 3.01709,5.52024 1.65941,2.06617 3.97528,6.52335 5.14639,9.90484 2.10555,6.07959 2.16069,6.14229 4.94314,5.62029 2.12642,-0.39892 3.21511,-0.0845 4.4564,1.28713 0.9034,0.99825 2.14998,1.815 2.77018,1.815 0.67324,0 1.38342,1.85991 1.76243,4.61568 0.60742,4.41645 1.08875,5.06807 11.15089,15.09591 12.11187,12.0706 13.00464,13.87342 13.22812,26.71237 0.11979,6.88157 0.51562,8.85948 2.59377,12.9605 2.16782,4.278 2.38073,5.45706 1.8348,10.16081 -0.33967,2.92667 -1.40828,7.84183 -2.37468,10.92258 -0.9664,3.08075 -2.09627,9.25142 -2.51081,13.71259 -1.0876,11.70423 -5.17028,21.94891 -10.22983,25.66974 -2.98585,2.19582 -4.49667,4.40282 -7.27774,10.63125 -1.9303,4.3231 -4.48159,10.6839 -5.66952,14.13512 -1.18793,3.45122 -2.97442,7.65549 -3.96997,9.34282 -2.18915,3.71033 -5.01913,13.96119 -5.87803,21.29161 -0.81818,6.98285 -2.39397,8.2804 -11.05605,9.10391 -8.01654,0.76214 -12.52569,3.0715 -20.42442,10.46037 -3.09371,2.89402 -5.77603,5.22775 -5.96071,5.18607 -0.18467,-0.0417 -3.09597,-1.56253 -6.46954,-3.37968 z"
       id="path2"
       transform="scale(0.26458333)" /><path
       style="fill:#ffffff;stroke:#000000;stroke-width:4.76881"
       d="m 387.92753,782.99571 c -2.3652,-0.30053 -3.22668,-1.22165 -5.97611,-6.38981 -1.82002,-3.42114 -3.45931,-8.02543 -3.78187,-10.62214 -0.31313,-2.5209 -1.98368,-7.45437 -3.71231,-10.96327 -3.92643,-7.9701 -4.05327,-9.65517 -0.66454,-8.82808 1.36314,0.3327 4.65664,1.59335 7.3189,2.80145 5.91225,2.6829 6.17316,2.68413 14.37236,0.068 3.62745,-1.15739 7.58168,-1.91581 8.78717,-1.68536 2.11058,0.40346 2.19182,0.69453 2.19182,7.853 0,6.06933 -0.33089,7.85465 -1.8025,9.7255 -1.14635,1.45735 -1.80249,3.65617 -1.80249,6.04039 0,3.29532 -0.21076,3.68199 -1.74196,3.19601 -1.35667,-0.43059 -2.57664,0.55265 -5.51577,4.44551 -2.0756,2.74911 -4.02926,4.93348 -4.34147,4.85415 -0.31221,-0.0793 -1.81126,-0.30225 -3.33123,-0.49539 z"
       id="path3"
       transform="scale(0.26458333)" /><path
       style="fill:#ffffff;stroke:#000000;stroke-width:4.76881"
       d="m 425.83017,381.21401 c -1.34813,-0.94579 -17.1964,-4.04163 -20.69002,-4.04163 -1.71644,0 -13.81041,-11.98849 -16.68399,-16.53848 -3.50276,-5.54622 -3.59251,-5.61121 -11.14714,-8.07148 l -7.61594,-2.48024 -6.17408,2.32372 c -9.39498,3.53596 -10.2297,4.27535 -10.2297,9.0614 0,3.76866 -0.22857,4.17633 -2.98804,5.32932 -2.16897,0.90625 -3.96007,1.02306 -6.53405,0.42613 -1.9503,-0.45229 -5.26964,-0.83202 -7.37631,-0.84385 l -3.83031,-0.0215 v -32.40454 -32.40455 l 6.08343,2.34231 c 3.34588,1.28828 11.2608,4.03282 17.58869,6.09899 9.56497,3.12313 12.45241,4.51067 17.12147,8.22761 3.08891,2.45901 6.14524,5.67832 6.79185,7.15403 0.6466,1.47571 1.47331,3.24448 1.83713,3.93061 0.36382,0.68613 4.49975,2.7249 9.19096,4.53062 8.31231,3.19953 10.87716,5.55817 6.72697,6.18616 -4.73174,0.71598 -5.85663,1.23619 -5.83448,2.69817 0.0506,3.34055 3.33583,8.3317 7.76125,11.79145 2.60761,2.03861 6.08119,6.00816 7.95118,9.08649 2.84703,4.68673 3.69699,5.4664 5.95915,5.4664 2.22052,0 2.63849,0.36049 2.63849,2.27565 0,1.8075 0.55622,2.38689 2.70374,2.8164 1.49202,0.2984 2.70375,1.11851 2.70375,1.82991 0,0.70904 2.02781,2.13188 4.50624,3.16187 4.5094,1.87402 5.89497,3.47651 2.92906,3.38762 -0.86745,-0.026 -2.39264,-0.61936 -3.3893,-1.31859 z"
       id="path4"
       transform="scale(0.26458333)" /><path
       style="fill:#ffffff;stroke:#000000;stroke-width:0.336829"
       d="m 423.92137,336.5132 c -1.38327,-0.10533 -2.55025,-0.39805 -4.71059,-1.18156 -1.20385,-0.43661 -3.31416,-1.26687 -4.55145,-1.79069 l -0.73205,-0.30991 -0.0173,-1.18784 c -0.0146,-1.00417 -0.003,-1.18783 0.0752,-1.18783 0.0509,0 0.61724,0.0839 1.25863,0.18641 1.87599,0.29988 2.31803,0.34458 3.39413,0.34325 1.09494,-10e-4 1.6169,-0.0504 3.69208,-0.34671 1.97114,-0.28148 2.5694,-0.40735 2.75334,-0.57931 0.23854,-0.223 0.67345,-1.18087 1.07128,-2.35945 0.19844,-0.58789 0.36998,-1.05972 0.3812,-1.0485 0.0112,0.0112 0.12397,0.4779 0.25056,1.03707 0.39103,1.72729 0.55221,2.15935 0.92146,2.47004 0.51894,0.43666 1.08386,0.41913 5.73025,-0.17787 1.7219,-0.22124 1.75316,-0.22788 1.9097,-0.4059 0.0875,-0.0995 0.58488,-0.66533 1.10524,-1.25733 0.52035,-0.592 1.14367,-1.33903 1.38514,-1.66006 0.4963,-0.65981 0.7501,-0.84897 3.42788,-2.55488 1.83796,-1.17089 2.34238,-1.53711 2.83184,-2.05597 0.78119,-0.8281 0.79507,-1.18823 0.16535,-4.29029 -0.14215,-0.70023 -0.2729,-1.33619 -0.29056,-1.41325 -0.027,-0.11771 0.006,-0.15091 0.20703,-0.20763 0.65932,-0.18614 3.10415,-0.12685 4.09889,0.0994 0.51403,0.11691 0.75744,0.29603 0.92106,0.67779 0.10062,0.23476 0.11921,0.5032 0.13976,2.01829 0.0395,2.91355 0.064,2.83362 -2.04526,6.66916 -0.96093,1.74735 -1.11142,1.98759 -1.24611,1.98927 -0.35219,0.004 -3.32869,0.40222 -3.84896,0.51442 -1.15057,0.24813 -1.54966,0.54978 -2.39592,1.81097 -0.59055,0.8801 -1.02216,1.33727 -1.62939,1.72588 -0.55087,0.35254 -2.61386,1.33905 -5.17215,2.4733 -3.5147,1.55828 -4.34432,1.86071 -5.50261,2.00595 -0.59863,0.0751 -2.55483,0.0717 -3.5776,-0.006 z"
       id="path5"
       transform="scale(0.26458333)" /><path
       style="fill:#ffffff;stroke:#000000;stroke-width:0.185931"
       d="m 456.72128,318.78729 c -0.14708,-0.15594 -0.28234,-0.50117 -0.53217,-1.35819 -0.44676,-1.53262 -1.05416,-2.90836 -1.98757,-4.50179 -0.54966,-0.93834 -0.98703,-1.7999 -0.93839,-1.84854 0.0298,-0.0298 0.58554,0.33078 1.06521,0.6911 1.485,1.1155 2.2016,1.81785 2.54325,2.49271 0.18269,0.36086 0.28744,0.7182 0.65088,2.22037 0.38107,1.57508 0.38357,1.59312 0.25483,1.83814 -0.12537,0.23863 -0.53173,0.52279 -0.81283,0.56841 -0.11266,0.0183 -0.14068,0.007 -0.24321,-0.10221 z"
       id="path6"
       transform="scale(0.26458333)" /><path
       style="fill:#ffffff;stroke:#000000;stroke-width:0.185931"
       d="m 451.26792,309.26925 c -1.34777,-0.82983 -6.17094,-4.40996 -8.04647,-5.9727 -0.90557,-0.75455 -0.86563,-0.7501 0.49194,0.0548 0.46383,0.275 1.34933,0.79692 1.96777,1.1598 0.61844,0.36289 1.37285,0.82426 1.67648,1.02526 1.04072,0.68897 2.20359,1.59885 2.88733,2.25917 0.62332,0.60197 1.41955,1.55332 1.38551,1.65543 -0.006,0.0189 -0.16945,-0.0629 -0.36256,-0.18178 z"
       id="path7"
       transform="scale(0.26458333)" /><path
       style="fill:#ffffff;stroke:#000000;stroke-width:0.0551311"
       d="m 440.21945,301.5079 c -0.5352,-0.0976 -2.4297,-0.81733 -3.30652,-1.25607 -0.60707,-0.30376 -0.96639,-0.56872 -0.96639,-0.71262 0,-0.0744 0.0643,-0.10867 0.20463,-0.109 0.42332,-10e-4 1.4413,0.39752 2.70752,1.05999 0.92545,0.48419 1.4827,0.82816 1.56969,0.9689 0.022,0.0356 0.0221,0.0372 0.003,0.051 -0.024,0.0176 -0.10896,0.0167 -0.21229,-0.002 z"
       id="path8"
       transform="scale(0.26458333)" /><path
       style="fill:#ffffff;stroke:#000000;stroke-width:0.318221"
       d="m 485.73678,342.57133 c -1.62065,-0.91704 -4.87861,-4.5378 -6.59743,-7.33211 -1.26327,-2.05374 -2.47031,-4.70576 -2.47031,-5.42762 0,-0.53924 0.40585,-0.3501 1.46566,0.68302 0.85837,0.83677 1.5141,1.58813 2.9143,3.33933 2.26103,2.82784 3.53745,4.15439 5.18229,5.38581 0.71114,0.5324 1.52322,1.23718 1.74838,1.51736 0.24118,0.30012 0.2147,0.46343 -0.16038,0.98906 -0.29911,0.41917 -0.60524,0.67439 -1.07682,0.89773 -0.40064,0.18974 -0.59543,0.17956 -1.00569,-0.0526 z"
       id="path9"
       transform="scale(0.26458333)" /><path
       style="fill:#ffffff;stroke:#000000;stroke-width:0.851694"
       d="m 694.86095,754.49288 c -0.53438,-1.14092 -1.30427,-1.86688 -2.63329,-2.48304 -1.95106,-0.90454 -1.96265,-0.47404 0.12036,-4.47198 2.14947,-4.1255 3.2865,-6.50672 3.4159,-7.15375 0.11765,-0.58821 -0.70871,-2.69616 -2.43758,-6.21801 l -1.25068,-2.54772 -5.46775,-2.7348 -5.46774,-2.73479 0.11262,-1.38804 c 0.062,-0.76343 0.17665,-1.50768 0.2549,-1.65389 0.0783,-0.14622 1.41218,-1.07812 2.96427,-2.0709 1.55209,-0.99278 3.1787,-2.08702 3.61468,-2.43164 0.94238,-0.74491 0.93689,-0.72586 1.93924,-6.72757 0.74129,-4.43852 0.81563,-6.46048 0.42431,-11.53987 l -0.2108,-2.73632 -1.76821,-3.6216 c -2.00563,-4.10787 -2.37446,-5.08186 -2.24592,-5.9308 0.17475,-1.15404 -0.51402,-2.2728 -3.13673,-5.09496 -5.12295,-5.51255 -13.50742,-18.24785 -13.56094,-20.59791 -0.0335,-1.47221 0.94665,-0.70701 4.22033,3.29471 l 2.17266,2.65584 2.91271,1.16299 c 3.4909,1.39385 4.55626,1.92375 4.94299,2.45861 0.16003,0.22132 0.77028,2.2132 1.35611,4.4264 0.58583,2.2132 1.20871,4.45859 1.38416,4.98976 0.81575,2.46954 5.4869,11.14104 7.91189,14.6876 0.70548,1.03176 0.8562,1.16667 1.30094,1.16449 1.04219,-0.005 1.23151,-0.45861 1.40265,-3.35991 0.15484,-2.62508 0.28551,-3.68723 0.46745,-3.79967 0.23927,-0.14788 1.57762,1.21127 1.84106,1.86967 0.14709,0.36762 0.59264,2.6323 0.99011,5.03263 0.68575,4.14124 0.74499,4.38282 1.15949,4.72807 0.69759,0.58105 7.55077,3.95637 8.99787,4.43162 1.65895,0.54482 4.8953,1.0795 6.5343,1.07954 1.58587,4e-5 2.13027,-0.26491 4.62224,-2.24963 1.01808,-0.81083 2.15999,-1.65794 2.53758,-1.88246 l 0.68654,-0.40823 1.08402,0.2679 c 1.60249,0.39603 1.70989,0.51173 1.60724,1.73131 -0.10438,1.24024 -0.72434,4.03081 -1.65519,7.45043 -0.80181,2.94558 -1.22425,4.22107 -2.27897,6.88103 l -0.74993,1.89128 h -4.07856 -4.07856 l -1.43051,2.16124 c -1.85651,2.80485 -1.90927,3.03171 -1.44864,6.22986 l 0.34328,2.38342 -0.47525,1.0109 c -0.70665,1.50313 -8.86503,16.5172 -9.39545,17.29067 -0.25144,0.36666 -0.78546,0.95564 -1.18673,1.30885 -0.80654,0.70995 -5.63216,4.0605 -5.84812,4.0605 -0.0749,0 -0.30722,-0.36532 -0.51635,-0.81183 z"
       id="path10"
       transform="scale(0.26458333)" /><path
       style="fill:#ffffff;stroke:#000000;stroke-width:0.851694"
       d="m 619.21305,826.76889 c -2.76966,-2.05023 -3.5892,-2.57848 -4.10448,-2.64564 -0.35412,-0.0461 -2.56329,-0.2681 -4.90928,-0.49322 -5.83468,-0.55991 -5.36906,-0.45151 -5.76939,-1.34321 -0.37303,-0.83088 -0.99093,-2.88896 -0.99093,-3.30053 0,-0.14591 1.15999,-2.5844 2.57776,-5.41886 l 2.57776,-5.15357 6.60286,-7.21542 6.60285,-7.21541 2.12683,-0.85662 c 4.15724,-1.6744 6.1719,-2.90003 11.39925,-6.93484 6.91388,-5.33657 10.93874,-9.05439 14.4712,-13.36724 1.96237,-2.3959 2.63369,-3.54465 4.57352,-7.8261 0.93363,-2.06065 1.95987,-4.16118 2.28053,-4.66784 0.32065,-0.50666 1.33438,-1.6877 2.25273,-2.62454 1.0178,-1.03828 1.79269,-1.98131 1.98466,-2.41529 0.17321,-0.39157 0.5761,-2.01533 0.8953,-3.60834 0.31921,-1.59301 0.61346,-3.05421 0.65391,-3.2471 0.0809,-0.38584 5.24915,-5.04145 5.59657,-5.04145 0.12748,0 0.77492,1.43579 2.37712,5.2716 1.73928,4.16398 1.97314,4.63115 2.48669,4.96764 0.37402,0.24507 0.45339,0.24513 1.08441,7.5e-4 0.37446,-0.14502 1.58624,-0.91972 2.69284,-1.72156 1.1066,-0.80184 2.42367,-1.74217 2.92683,-2.08962 l 0.91483,-0.63173 0.34283,0.43584 c 0.18856,0.23972 0.68228,1.11964 1.09717,1.95538 l 0.75434,1.51954 v 2.59048 c 0,2.99597 0.14512,2.57812 -2.28827,6.58892 -4.09339,6.74688 -8.45923,12.92893 -11.55576,16.363 -0.5987,0.66396 -1.37484,1.58444 -1.72476,2.04552 -0.55073,0.72568 -0.62077,0.90951 -0.52123,1.36816 0.11664,0.53743 1.04638,2.45 2.07139,4.26106 l 0.56309,0.9949 -0.43495,0.0832 c -0.23922,0.0458 -1.63008,0.12873 -3.09079,0.18438 l -2.65584,0.10119 -2.57536,1.54602 c -1.41645,0.85032 -3.56816,2.19027 -4.78158,2.97767 l -2.20622,1.43165 -0.47596,1.2352 c -0.26178,0.67937 -0.852,2.46655 -1.31159,3.97153 -1.55215,5.08266 -5.38992,15.29832 -7.01437,18.67135 -0.79781,1.65657 -0.42961,1.31182 -8.66745,8.11552 l -4.49813,3.71504 -4.43515,-0.008 -4.43514,-0.008 z"
       id="path11"
       transform="scale(0.26458333)" /><path
       style="fill:#ffffff;stroke:#000000;stroke-width:0.663589"
       d="m 605.8899,437.10332 c -0.59155,-0.17084 -0.86787,-0.81125 -1.0845,-2.51345 -0.25783,-2.02597 -0.35754,-3.89899 -0.21859,-4.10629 0.23892,-0.35646 1.86253,0.71224 2.21703,1.4593 0.2114,0.44548 1.06002,4.34907 1.0603,4.87727 10e-5,0.1982 -0.1003,0.28659 -0.39177,0.34488 -0.52013,0.10403 -1.08485,0.082 -1.58247,-0.0617 z"
       id="path12"
       transform="scale(0.26458333)" /><path
       style="fill:#ffffff;stroke:#000000;stroke-width:0.663589"
       d="m 602.38688,511.74716 c -2.80546,-1.40475 -6.51899,-3.75467 -9.7669,-6.18048 -2.8603,-2.13631 -4.73348,-3.76226 -7.33231,-6.36454 -4.67008,-4.67629 -7.92678,-8.60727 -7.58672,-9.15751 0.0438,-0.0709 0.37759,-0.12884 0.74175,-0.12884 0.5387,0 0.89382,0.11396 1.90511,0.61138 2.3924,1.17676 4.979,3.05022 9.20655,6.66828 1.55195,1.32821 4.43012,3.74319 6.39593,5.36662 5.53979,4.57495 8.87043,7.49196 9.69107,8.48753 l 0.35662,0.43265 -0.77933,0.5037 c -0.42864,0.27704 -0.90749,0.50371 -1.06412,0.50371 -0.15662,0 -0.95207,-0.33413 -1.76765,-0.7425 z"
       id="path13"
       transform="scale(0.26458333)" /><path
       style="fill:#ffffff;stroke:#000000;stroke-width:0.663589"
       d="m 721.0199,465.96066 c -2.26594,-0.5923 -2.21285,-0.5562 -2.5262,-1.71752 -0.50491,-1.87121 -0.40967,-2.13172 1.44671,-3.9571 l 0.98999,-0.97346 1.24979,0.36949 c 2.68526,0.79387 3.53718,0.80535 5.02987,0.0678 1.06902,-0.52821 1.02855,-0.53974 2.16798,0.61743 l 0.80623,0.81878 -0.61243,1.95855 c -0.35634,1.13958 -0.69347,2.00013 -0.80623,2.05799 -0.23487,0.12053 -2.79897,0.69009 -4.26964,0.94842 -1.45631,0.2558 -1.85206,0.23413 -3.47607,-0.19038 z"
       id="path14"
       transform="scale(0.26458333)" /><path
       style="fill:#ffffff;stroke:#000000;stroke-width:0.142007"
       d="m 732.71365,451.86325 c -0.13595,-0.21734 -0.36156,-0.7824 -0.38207,-0.95691 -0.0444,-0.37759 0.19488,-0.5754 1.41676,-1.17135 1.27475,-0.62173 2.6748,-1.1057 3.7657,-1.30174 0.64063,-0.11512 1.35969,-0.33241 2.24095,-0.67718 0.69684,-0.27261 0.92767,-0.37777 2.22753,-1.01477 1.18474,-0.58057 1.81714,-0.87279 1.88884,-0.87279 0.1,0 0.16266,0.34983 0.16353,0.91248 8.7e-4,0.56588 -0.0273,0.67499 -0.23187,0.89884 -0.23311,0.25506 -0.64897,0.47876 -1.67289,0.89987 -1.63128,0.6709 -5.14718,1.99543 -7.52798,2.83598 -0.66141,0.23352 -1.74139,0.59867 -1.77062,0.59867 -0.0129,0 -0.0659,-0.068 -0.11788,-0.1511 z"
       id="path15"
       transform="scale(0.26458333)" /><path
       style="fill:#ffffff;stroke:#000000;stroke-width:0.501507"
       d="m 422.9978,336.18141 c -1.49882,-0.25671 -2.94749,-0.73326 -6.43231,-2.11596 -1.88665,-0.74858 -2.32476,-0.95664 -2.39316,-1.13656 -0.092,-0.24186 -0.11699,-1.81914 -0.0289,-1.81914 0.0302,0 0.80855,0.11054 1.72972,0.24565 1.44362,0.21174 1.89074,0.23932 3.23869,0.19983 1.87877,-0.055 5.45007,-0.55433 5.99179,-0.83766 0.24397,-0.12761 0.60179,-0.79315 1.0146,-1.88718 l 0.3694,-0.97897 0.0975,0.37335 c 0.0536,0.20534 0.1636,0.63355 0.24436,0.95159 0.21007,0.82723 0.37833,1.18495 0.70276,1.4941 0.39524,0.37662 0.94034,0.45849 2.27772,0.34209 1.4902,-0.12969 4.81054,-0.55207 5.2419,-0.66681 0.3571,-0.095 1.0173,-0.78912 2.81641,-2.96115 0.6366,-0.76856 0.83444,-0.92815 2.50666,-2.022 3.49739,-2.28774 3.96218,-2.65082 4.34736,-3.39612 0.17185,-0.33251 0.18794,-0.48675 0.13841,-1.3269 -0.0308,-0.52287 -0.18558,-1.59042 -0.34391,-2.37235 -0.15833,-0.78192 -0.28803,-1.44984 -0.28823,-1.48425 -7.8e-4,-0.13322 1.61859,-0.1847 2.72861,-0.0868 2.14208,0.18902 2.1447,0.19254 2.14897,2.88892 0.003,1.67313 -0.0251,2.09214 -0.17023,2.56802 -0.18814,0.61701 -1.1466,2.52093 -2.22304,4.41589 l -0.67791,1.1934 -0.97447,0.11423 c -1.79384,0.21029 -3.32192,0.48686 -3.7614,0.68078 -0.55187,0.24352 -1.02607,0.70168 -1.67523,1.61859 -0.91091,1.28663 -1.21604,1.52393 -3.21492,2.50011 -1.91313,0.93431 -4.63036,2.15622 -6.35018,2.85562 -1.7079,0.69454 -2.25802,0.79093 -4.4546,0.78043 -1.06609,-0.005 -2.20664,-0.0623 -2.60642,-0.13079 z"
       id="path16"
       transform="scale(0.26458333)" /></g></svg>
