<?xml version="1.0" encoding="UTF-8" standalone="no"?>
<!-- Created with Inkscape (http://www.inkscape.org/) -->

<svg
   width="210mm"
   height="297mm"
   viewBox="0 0 210 297"
   version="1.1"
   id="svg1"
   xml:space="preserve"
   inkscape:version="1.4 (e7c3feb1, 2024-10-09)"
   sodipodi:docname="China Silhouette.svg"
   xmlns:inkscape="http://www.inkscape.org/namespaces/inkscape"
   xmlns:sodipodi="http://sodipodi.sourceforge.net/DTD/sodipodi-0.dtd"
   xmlns="http://www.w3.org/2000/svg"
   xmlns:svg="http://www.w3.org/2000/svg"><sodipodi:namedview
     id="namedview1"
     pagecolor="#ffffff"
     bordercolor="#000000"
     borderopacity="0.25"
     inkscape:showpageshadow="2"
     inkscape:pageopacity="0.0"
     inkscape:pagecheckerboard="0"
     inkscape:deskcolor="#d1d1d1"
     inkscape:document-units="mm"
     showgrid="false"
     inkscape:zoom="0.54784142"
     inkscape:cx="3.6506915"
     inkscape:cy="827.79429"
     inkscape:window-width="1712"
     inkscape:window-height="1040"
     inkscape:window-x="0"
     inkscape:window-y="39"
     inkscape:window-maximized="0"
     inkscape:current-layer="svg1"><inkscape:grid
       id="grid1"
       units="mm"
       originx="0"
       originy="0"
       spacingx="0.99999998"
       spacingy="1"
       empcolor="#0099e5"
       empopacity="0.30196078"
       color="#0099e5"
       opacity="0.14901961"
       empspacing="5"
       enabled="true"
       visible="false" /></sodipodi:namedview><defs
     id="defs1" /><g
     inkscape:label="China trace Line"
     inkscape:groupmode="layer"
     id="layer1"><path
       style="fill:#050505;stroke:none"
       d="m 154.12776,72.843327 c -0.6151,2.060903 -0.37655,6.142109 -1.11589,7.425497 -0.65992,1.14552 -2.39907,2.266362 -3.74427,2.317822 -0.92361,0.03532 -1.87983,-0.35494 -2.77476,0.06369 -2.13521,0.998791 -3.15916,4.811544 -3.21196,6.967052 -0.0212,0.866228 -0.0374,1.789693 0.61494,2.451963 1.62993,1.654811 5.28047,0.333748 6.97855,-0.59882 0.55861,-0.306787 1.25646,-1.104527 1.89834,-1.160328 0.52021,-0.04523 0.89451,0.577396 1.19177,0.913952 0.93821,1.062214 2.05311,2.267155 2.46053,3.651741 -2.91611,-0.541386 -7.22649,-0.07856 -9.11289,2.483185 -0.75907,1.030805 -0.46501,3.345929 -1.55864,3.939829 -1.03952,0.56451 -2.33523,-0.19726 -3.49508,0.5127 -1.13263,0.69329 -1.42745,2.62418 -2.77747,2.92782 -0.73558,0.16545 -1.49962,-0.38875 -2.19104,-0.56388 -1.49075,-0.37758 -3.05891,-0.0388 -4.22228,0.99352 -1.03636,0.91961 -1.07063,2.10826 -0.0951,3.0775 0.48844,0.4853 1.61344,1.01837 1.06058,1.82057 -0.51136,0.74199 -1.33142,1.33149 -2.0017,1.92156 -1.71652,1.51112 -4.04925,4.09681 -6.42707,4.45535 -0.91647,0.13819 -1.86328,-0.31106 -2.77532,-0.37498 -1.39458,-0.0977 -2.77913,0.18209 -4.08995,0.65022 -2.58824,0.92432 -4.67747,3.49292 -7.59562,3.40772 -2.83369,-0.0827 -5.41659,-2.87341 -8.03383,-3.8234 -3.403408,-1.23533 -6.802336,-1.27583 -10.37095,-1.2701 -1.955911,0.003 -4.153161,0.50894 -5.842225,-0.80766 -1.244,-0.96967 -1.450703,-2.6698 -2.159596,-4.01264 -1.192861,-2.2596 -2.782657,-4.48437 -4.85231,-6.02379 -1.785181,-1.32783 -3.915655,-2.05318 -6.134926,-2.15036 -1.058367,-0.0463 -3.166722,0.43618 -3.849886,-0.60591 -0.452567,-0.69034 0.291716,-1.70362 0.600286,-2.321233 0.909463,-1.820317 1.139413,-3.535708 1.185805,-5.550648 0.02698,-1.171758 -0.693956,-2.238992 -1.455513,-3.067463 -1.366982,-1.487086 -3.038514,-2.638258 -4.292824,-4.23602 -1.284979,-1.636829 -1.69551,-3.531776 -3.873441,-4.231741 -1.054182,-0.338802 -2.412351,-0.428455 -2.826043,0.872709 -0.226286,0.711716 0.11023,1.603076 -0.688192,2.040358 -1.090735,0.597384 -2.77823,-0.54753 -3.388684,1.027212 -0.572555,1.476994 1.539094,3.590288 -0.40282,4.539206 -1.471689,0.719142 -2.823297,0.01581 -3.857544,-1.059005 -0.596965,-0.620386 -1.297327,-1.567004 -2.275126,-1.456533 -1.805602,0.203993 -4.028577,4.112337 -4.439119,5.717347 -0.248495,0.971483 0.961314,2.521913 -0.527361,2.82402 -0.982362,0.199356 -1.855354,-0.902844 -2.629143,-1.337852 -1.557999,-0.875874 -4.383142,-0.908656 -5.632811,0.589458 -0.993854,1.191444 0.940089,1.430777 1.479519,2.047124 0.470764,0.537892 0.391613,1.361415 0.258214,2.012176 -0.826652,4.032665 -3.548327,6.421735 -6.475868,9.030965 -2.10771,1.87854 -5.09456,0.92173 -7.592918,1.84875 -1.080335,0.40085 -1.082813,1.91188 -2.423899,1.98952 -1.605971,0.093 -2.768329,-1.3701 -4.29801,-1.57735 -1.912197,-0.25907 -5.786392,3.11616 -6.203678,4.92185 -0.3179074,1.37565 0.329197,2.76298 1.675519,3.27732 0.677781,0.25894 1.719803,0.0277 2.040241,0.8212 0.746728,1.84899 -0.05059,4.48524 0.02412,6.41849 0.03621,0.93688 0.85176,1.56281 0.865372,2.48319 0.017,1.14978 -0.738974,2.56084 -0.02908,3.63642 1.07352,1.62651 4.482314,1.14662 5.350252,2.82187 0.332661,0.64208 1.024115,3.24225 0.858497,3.91266 -0.177219,0.71735 -1.008574,1.19556 -1.297157,1.8989 -0.865347,2.10906 0.111625,4.80067 2.12049,5.84279 -1.304158,0.6276 -2.574001,0.17401 -3.797812,-0.39989 -0.463872,-0.21754 -1.211696,-0.54351 -1.580618,0.008 -0.261589,0.39114 -0.154591,0.97028 -0.197013,1.41427 -0.125059,1.30882 -0.409833,4.16897 0.670274,5.16327 0.94756,0.87228 2.270841,0.88905 3.180397,1.99628 1.09756,1.33608 1.58199,3.05231 2.676817,4.37409 1.512125,1.82558 2.807766,0.43626 4.598602,0.40609 0.963721,-0.0162 1.774545,0.56305 2.48262,1.1504 4.375854,3.6298 5.916907,9.76952 10.955789,12.82033 1.678203,1.01607 3.643477,1.20008 5.550647,0.90222 1.01643,-0.15875 2.703002,-0.84912 3.64374,-0.24864 1.326619,0.84682 -0.01064,3.36176 1.338521,3.87412 1.539103,0.58449 2.943253,-2.81201 4.658337,-2.93232 1.113594,-0.0781 2.184916,1.00794 3.067463,1.55255 1.603481,0.9895 4.344895,2.27298 6.280996,2.00992 0.800575,-0.10877 1.540819,-0.47847 1.836917,-1.27067 0.311454,-0.83327 0.03879,-1.98043 1.086732,-2.34635 0.582727,-0.20348 1.285714,0.0499 1.89665,-0.0155 1.502318,-0.16094 2.563414,-1.22922 3.067463,-2.6039 0.775825,0.57108 1.284537,1.70549 2.337226,1.80344 0.911589,0.0848 1.436866,-0.71259 2.190933,-1.05258 1.192308,-0.53758 2.726534,0.54492 3.213533,1.58625 -0.836384,0.2391 -3.061138,1.04123 -1.835562,2.22024 1.537623,1.47919 3.653975,0.12007 5.341234,0.46335 1.04392,0.21238 2.250359,1.82614 2.716491,2.72099 1.303777,2.50291 1.278261,6.01479 1.544323,8.76418 0.133258,1.37703 0.504316,3.00461 0.288644,4.38209 -0.25268,1.61385 -1.843113,2.85162 -1.680924,4.67423 0.13102,1.47229 1.570721,2.13925 2.828183,2.48318 -0.352639,1.10439 -1.999329,2.11055 -1.687237,3.35735 0.284882,1.1381 1.902329,0.98653 2.709163,1.55774 1.498649,1.061 1.634653,4.13696 4.090289,2.68369 0.359691,-0.21287 0.686966,-0.48558 1.022711,-0.7335 0.0048,1.6746 1.956062,3.86042 3.740218,2.48183 1.617982,-1.25019 -1.183241,-3.83572 0.237022,-5.38745 0.86463,-0.94464 2.27953,-1.05181 3.47231,-1.0377 2.35256,0.0278 5.15725,0.8812 7.44956,0.0654 0.96218,-0.34245 1.65942,-0.97364 2.21076,-1.81878 0.21905,-0.33575 0.53107,-1.15955 1.01584,-1.16044 0.45281,-8.2e-4 0.84634,0.6467 1.16856,0.90324 0.91616,0.72941 3.60211,0.68255 4.05964,1.59335 0.66013,1.31412 -1.07923,2.5894 0.60783,3.82712 2.35434,1.72727 6.94612,0.65849 9.63428,0.52781 0.75271,-0.0366 1.58355,-0.2951 2.3307,-0.0771 0.63848,0.1863 0.77299,0.80374 0.70926,1.39735 -0.13665,1.27289 -1.19526,2.80505 -0.49005,4.07462 0.81892,1.47428 3.85493,0.80223 4.25146,-0.71512 0.27083,-1.03635 -1.13031,-2.13713 -0.5517,-3.04031 0.54581,-0.85199 2.05749,-1.30375 2.95272,-1.663 3.04805,-1.22318 7.71494,-2.09061 7.88777,-6.10574 3.92605,3.41865 7.77617,-0.31264 11.39343,-2.48318 2.9907,-1.79458 6.3007,-3.40263 8.43023,-6.281 2.78056,-3.75834 3.16216,-8.56955 5.12224,-12.70806 1.13588,-2.39826 3.59092,-4.21781 4.38197,-6.7192 0.67086,-2.12138 0.40964,-4.78254 -0.29011,-6.86528 -0.31395,-0.93442 -0.91244,-2.08251 -2.01488,-2.17289 -1.25412,-0.10283 -2.13637,1.08652 -3.06746,1.73468 0.86203,-1.73308 3.75931,-1.90176 4.05873,-3.79781 0.5935,-3.75831 -3.5732,-6.68484 -5.28353,-9.49453 -0.86188,-1.41588 -1.14441,-3.30923 -2.29621,-4.5223 -0.87636,-0.92298 -3.60939,-1.03844 -3.87997,-2.19916 -0.21344,-0.91553 0.45163,-2.00992 0.87349,-2.77306 1.46594,-2.65192 4.22827,-4.20796 6.52749,-6.04724 0.91024,-0.72814 2.93468,-1.881 2.53165,-3.30122 -0.75185,-2.64943 -5.52388,-3.2129 -7.34564,-1.57566 -1.12601,1.01196 -1.28035,2.99723 -3.07377,3.16698 -2.63516,0.24942 -2.02572,-2.0664 -3.39083,-3.28296 -1.22086,-1.08802 -4.68231,0.24504 -4.07281,-2.39831 0.0687,-0.29791 0.16155,-0.60039 0.29439,-0.87631 0.75342,-1.5649 2.38299,-0.67501 3.66358,-1.35543 1.15367,-0.61298 1.38145,-1.78096 2.10606,-2.73452 0.55817,-0.73454 2.9909,-4.7419 3.74314,-5.34349 0.99913,-0.79903 2.76806,-0.65788 3.00504,0.81522 0.0476,0.29562 -0.68335,5.27464 0.40624,5.56471 1.75576,0.46741 8.30659,-5.52794 8.99822,-6.14166 1.19987,-1.0647 2.55048,-2.01422 3.4527,-3.36693 0.65311,-0.97921 0.78156,-2.31776 1.5707,-3.19404 1.49293,-1.6578 3.32613,0.70309 4.8877,-9e-4 1.09623,-0.4942 -0.3879,-1.67209 0.0115,-2.39742 0.49828,-0.90491 2.02963,-2.43404 3.6222,-3.23709 1.7267,-0.87067 3.68805,-3.61487 3.93317,-4.31682 0.89623,-2.56651 -0.64153,-4.215064 -1.65498,-6.427069 -0.30642,-0.668814 -0.29941,-1.264353 0.0978,-1.898344 0.42746,-0.682223 1.71413,-1.655087 2.5995,-1.35948 1.01457,0.338749 1.29218,1.684081 2.48261,0.463003 0.85431,-0.876302 0.94589,-2.194014 1.09474,-3.340105 0.37691,-2.902145 -0.11039,-5.849847 -0.039,-8.764179 0.0307,-1.253236 0.34904,-3.051772 -0.24356,-4.220116 -0.60821,-1.199137 -2.62671,-0.229375 -3.41032,0.291569 -2.18074,1.449749 -4.17481,5.664497 -7.44955,4.100186 -2.03683,-0.972972 -2.50826,-3.512591 -4.67423,-4.478555 -2.25923,-1.007563 -5.02469,0.771074 -6.83405,-1.250044 -1.1012,-1.230073 -1.26576,-3.343323 -2.01861,-4.813987 -1.49193,-2.914421 -4.61068,-6.22777 -7.65321,-7.505684 -3.00935,-1.26397 -9.42778,-0.885317 -10.63445,3.936996 m 41.74729,10.141823 c 0.40245,1.690322 0.14607,3.534879 0.14607,5.258508 0,2.145167 0.23458,4.27499 0.14032,6.427065 -0.0518,1.183045 -0.12996,3.062506 -1.30888,3.651742 -1.3382,-2.194789 -4.50131,-0.226281 -5.17679,1.606766 -0.82266,2.232457 1.87314,4.099767 2.0834,6.280995 0.15798,1.63888 -0.30558,2.94601 -2.42617,4.44497 -1.44666,2.13992 -5.88785,3.22954 -5.43567,6.36419 -0.62307,-0.20268 -1.24717,-0.44677 -1.8989,-0.54044 -3.30927,-0.4756 -3.32036,3.02556 -4.9383,4.90946 -1.57448,1.83328 -9.52853,9.2455 -10.768,8.67664 -1.21991,-0.55987 0.27185,-5.51356 0.0701,-5.88825 -1.0579,-1.96466 -3.83198,-1.53892 -5.05834,6.8e-4 -0.48404,0.60767 -3.39361,6.12245 -4.74862,7.18536 -0.90967,0.71356 -2.04148,0.15786 -3.04042,0.5401 -1.60857,0.61551 -2.47374,3.44497 -1.3862,4.82053 1.06356,1.34521 2.81201,0.23302 3.97477,1.14612 0.51892,0.40751 0.40018,1.09309 0.62621,1.64453 0.43609,1.06394 1.65629,1.79398 2.77408,1.88526 0.82048,0.067 1.64904,-0.0364 2.33701,-0.51936 1.11779,-0.78472 1.27577,-2.17723 2.25946,-3.02395 1.2126,-1.04376 4.88624,-0.63613 5.44493,1.07591 0.35146,1.07698 -2.46348,2.68788 -3.17613,3.24159 -2.58414,2.00788 -7.04327,4.86657 -6.7033,8.73398 0.2006,2.28173 2.90724,1.57348 4.16467,2.83078 1.0646,1.06449 1.41503,3.02012 2.16287,4.32663 1.07466,1.87751 2.73652,3.2728 3.87197,5.11244 0.60892,0.98656 1.95084,3.03339 1.06959,4.18632 -1.00599,1.31611 -4.43251,1.46963 -3.73435,3.99133 0.61991,2.23906 2.87636,-1.3674 3.98299,-1.06239 0.67042,0.18478 0.93916,1.06698 1.12358,1.64892 0.54828,1.72998 0.74661,3.92334 0.30792,5.69672 -0.62093,2.51012 -3.29184,4.49633 -4.4221,6.86527 -1.82305,3.82101 -2.27786,8.1908 -4.52127,11.83165 -2.16175,3.50831 -6.31921,5.32124 -9.71849,7.36186 -1.74938,1.05018 -3.46852,2.41057 -5.40457,3.09091 -1.53542,0.53955 -2.86987,-0.21866 -3.85405,-1.39702 -0.34257,-0.41015 -1.10952,-1.72424 -1.79567,-1.31834 -0.5825,0.34459 -0.0932,1.29339 0.0365,1.75711 0.27384,0.97883 0.13976,1.84275 -0.55294,2.62339 -1.68577,1.89978 -5.00845,2.48113 -7.27226,3.45001 -0.98846,0.42303 -2.34356,0.92893 -2.83766,1.961 -0.57325,1.19741 0.66128,1.83622 0.56738,2.91452 -0.0677,0.77703 -1.19329,0.9643 -1.80379,0.86097 -0.84116,-0.14237 -0.54203,-1.15639 -0.39932,-1.73108 0.34482,-1.38859 1.09931,-3.10625 -0.34961,-4.14067 -0.97752,-0.69787 -2.26093,-0.28289 -3.35691,-0.243 -2.64515,0.0963 -5.75869,0.81353 -8.32585,-0.11011 -2.01083,-0.72349 0.006,-2.5135 -0.83889,-3.82948 -0.87803,-1.36701 -2.89283,-0.78722 -4.12545,-1.64228 -0.61255,-0.42491 -1.12119,-1.37978 -1.90105,-1.49112 -1.44892,-0.20687 -2.22416,2.6413 -3.50579,3.16507 -3.53787,1.44582 -7.99579,-1.58289 -11.244993,1.04514 -1.326377,1.0728 -1.087588,2.58474 -0.636353,4.03292 0.133499,0.42845 0.563523,1.38928 -0.11845,1.55447 -2.663694,0.64519 -0.811113,-2.79083 -1.766138,-3.29479 -1.12004,-0.59105 -2.106366,1.91701 -3.292995,1.62096 -0.673647,-0.16807 -0.95153,-1.57387 -1.376955,-2.07113 -0.870854,-1.01789 -1.943937,-1.28611 -3.182311,-1.60732 0.363498,-1.0696 2.076679,-2.09963 1.620068,-3.35735 -0.467808,-1.28859 -2.76031,-1.01783 -2.693159,-2.63151 0.06702,-1.61046 1.475835,-2.73976 1.679231,-4.23602 0.196602,-1.44631 -0.149618,-3.08567 -0.289207,-4.52816 -0.411917,-4.25661 -0.399239,-10.26777 -4.803386,-12.57822 -0.544378,-0.28559 -1.372666,0.15484 -1.940612,0.24423 -1.038,0.16339 -2.064486,0.0538 -3.067463,-0.228 v -0.14607 c 0.68352,-0.23312 1.671425,-0.56145 1.930239,-1.32049 0.510901,-1.49834 -2.094416,-2.79164 -3.244866,-2.88804 -1.152024,-0.0965 -2.113031,1.32059 -3.042103,1.13802 -0.919314,-0.18065 -1.121194,-1.70292 -2.216293,-1.67574 -1.085105,0.0269 -1.418527,1.58776 -2.204793,2.11778 -1.332507,0.89826 -2.996144,-0.20937 -4.172681,1.04931 -0.77673,0.83096 -0.297524,2.60807 -1.513105,2.95566 -3.462829,0.99018 -6.24623,-3.4456 -9.345753,-3.54805 -1.986424,-0.0657 -2.998797,1.88378 -4.38209,2.9019 0,-1.21458 0.133432,-2.56938 -0.891748,-3.44808 -1.328459,-1.13866 -3.28844,-0.29285 -4.804969,-0.0993 -1.979804,0.2527 -3.742962,-0.0469 -5.404578,-1.21014 -4.29372,-3.00579 -6.034175,-8.37374 -9.737753,-11.9315 -1.031196,-0.9906 -2.352188,-1.89722 -3.846725,-1.73808 -0.938604,0.1 -1.804133,0.87192 -2.77476,0.49817 -1.467605,-0.56512 -2.098695,-3.06197 -2.926127,-4.27366 -0.594184,-0.87013 -1.272591,-1.5644 -2.186875,-2.09908 -0.454412,-0.26574 -1.255612,-0.34701 -1.586367,-0.75864 -0.88171,-1.09731 -0.316097,-3.59436 -0.312539,-4.88397 1.372008,0.57121 2.559648,1.13683 4.089951,0.81003 0.593778,-0.1268 1.466195,-0.49413 1.375715,-1.2478 -0.08211,-0.68395 -0.933008,-1.14619 -1.360386,-1.60935 -0.681447,-0.7385 -1.038856,-1.76447 -0.96219,-2.77318 0.105096,-1.38279 1.145409,-1.7793 1.617586,-2.92151 0.401635,-0.97157 -0.610587,-2.88868 -0.754693,-3.94377 -0.0529,-0.38729 0.01216,-0.91592 -0.212229,-1.25343 -0.97044,-1.45965 -4.990742,-1.00776 -5.500154,-2.85184 -0.270651,-0.97977 0.317217,-2.05526 0.261257,-3.05214 -0.04703,-0.83791 -0.751757,-1.38516 -0.853425,-2.19105 -0.250443,-1.98517 0.361541,-4.11835 0.06357,-6.13492 -0.09746,-0.65957 -0.360741,-1.39526 -0.984843,-1.72669 -1.254182,-0.66603 -3.958697,-0.54201 -2.634664,-2.94179 0.627938,-1.13813 3.611232,-3.85475 4.97809,-3.5982 1.593065,0.299 2.681016,1.6877 4.44408,1.5619 1.578585,-0.11264 1.688962,-1.70084 2.878789,-2.12398 2.00251,-0.71217 4.518989,-8.3e-4 6.40768,-1.01877 1.013423,-0.54621 1.786574,-1.49038 2.629254,-2.25146 2.319448,-2.09485 3.962783,-3.90084 5.04876,-6.89007 0.406613,-1.11923 0.824492,-2.665199 0.255281,-3.797694 -0.341691,-0.679825 -0.952014,-0.994502 -1.50623,-1.460813 1.23261,-0.646918 2.669375,-0.787531 3.943881,-0.146185 1.448259,0.728779 2.496352,2.262377 4.235456,1.169458 1.589698,-0.999023 0.413039,-1.739989 0.485209,-3.068248 0.07242,-1.33285 1.505715,-2.941435 2.292818,-3.943881 0.295046,-0.375766 0.664763,-0.950442 1.16698,-1.058782 0.842191,-0.181678 1.77861,1.285358 2.336553,1.758025 1.146331,0.971126 2.86877,1.216968 4.235908,0.556551 1.303412,-0.629631 1.63526,-1.827404 1.292085,-3.1547 -0.128226,-0.495945 -0.621434,-1.480952 -0.263289,-1.956837 0.646962,-0.85964 2.538749,0.128149 3.441882,-0.970975 0.633666,-0.771181 0.131823,-2.751323 1.518402,-2.540778 2.238898,0.339962 2.820056,2.603792 4.041486,4.153963 1.147713,1.456614 2.658336,2.530231 3.949966,3.839518 0.733393,0.743418 1.523095,1.779511 1.472309,2.879687 -0.06434,1.393742 -0.08532,2.781725 -0.619896,4.089951 -0.518287,1.268347 -1.989539,2.84597 -1.006935,4.23377 1.056153,1.49167 3.156644,0.96181 4.724949,1.03049 1.945391,0.0852 3.842179,0.71358 5.404578,1.87794 1.994804,1.48662 3.498905,3.50822 4.636472,5.71193 0.798449,1.54677 1.059113,3.34596 2.521057,4.44724 1.96751,1.48211 4.461357,0.95749 6.719089,0.95734 3.721148,-2.5e-4 7.35309,0.0694 10.80915,1.65185 2.5666,1.1752 5.13295,3.90798 8.17991,3.37076 2.88492,-0.50866 4.85476,-2.70892 7.59562,-3.55819 2.24167,-0.6946 4.14727,0.32708 6.28099,-0.072 2.69377,-0.50386 5.20012,-3.27215 7.15742,-5.0199 0.7507,-0.67033 1.71304,-1.34807 2.24841,-2.21528 1.10368,-1.78778 -3.39739,-2.64888 -1.50218,-4.32506 2.15093,-1.90233 3.8158,0.41678 5.97297,-0.13863 1.55773,-0.40107 1.70433,-2.01481 2.80237,-2.89107 1.18454,-0.94528 2.60203,0.10156 3.76851,-0.64143 1.45497,-0.92674 0.8225,-2.710196 1.62852,-3.981521 1.37636,-2.170888 4.35948,-2.482436 6.69971,-2.483185 0.79299,-2.58e-4 2.7214,0.494483 2.82739,-0.732604 0.0783,-0.906846 -0.77572,-1.941815 -1.26402,-2.626998 -0.65355,-0.917072 -2.15847,-3.3828 -3.46228,-3.246894 -0.8519,0.0888 -1.62547,0.981513 -2.33711,1.402542 -1.09207,0.646098 -2.40622,0.976083 -3.65174,1.153561 -0.84504,0.120412 -1.98912,0.194695 -2.37476,-0.772723 -0.65848,-1.651896 0.42762,-4.242261 1.1707,-5.693899 0.30567,-0.597135 0.70573,-1.374343 1.3632,-1.644408 0.77439,-0.3181 1.67029,0.07851 2.47011,0.02343 1.30926,-0.09015 2.69288,-0.924828 3.64588,-1.782471 1.82918,-1.646154 1.28221,-3.783903 1.49135,-5.94501 0.10612,-1.096557 0.37688,-2.238204 0.89897,-3.213533 0.13496,-0.252118 1.14974,-1.936942 1.71092,-2.913368 0.79015,-1.374829 1.68792,-3.930033 2.33169,-4.146526 1.68513,-0.566692 3.60859,-1.12858 5.40457,-0.949007 3.7092,0.370863 6.71245,3.647784 8.71335,6.548226 1.29936,1.883517 1.39577,4.647055 2.98756,6.267355 2.20039,2.239776 4.81968,0.16522 7.28815,1.448643 2.12702,1.1059 2.50044,3.88388 4.96637,4.584736 4.38302,1.245747 6.11624,-4.294237 9.78667,-5.143321 M 170.4477,192.08066 c -1.46107,0.28363 -1.64856,1.9578 -2.46853,2.9933 -0.71533,0.90336 -1.80588,1.43275 -2.48983,2.35593 -1.10326,1.48917 -0.92264,3.99422 -0.41578,5.68365 0.57515,1.91706 2.26649,4.71899 4.64379,4.26025 1.65345,-0.31906 2.33924,-2.08089 2.7547,-3.5299 0.64782,-2.25939 0.94576,-4.60565 1.58503,-6.86528 0.26323,-0.9305 0.96632,-2.23932 0.70881,-3.21297 -0.40114,-1.51663 -3.02004,-1.93698 -4.31819,-1.68498 m 0.15408,1.01742 c 0.79001,-0.23188 2.81166,0.0609 3.10375,0.97447 0.25317,0.79182 -0.54012,2.26663 -0.75255,3.05213 -0.61363,2.26889 -0.86253,4.62431 -1.59167,6.86528 -0.27543,0.8465 -0.71506,2.00282 -1.64453,2.30229 -1.97937,0.63773 -3.46826,-2.42206 -3.79499,-3.90906 -0.25564,-1.16345 -0.42414,-3.04221 0.25011,-4.08995 0.69747,-1.08383 1.94555,-1.77873 2.76709,-2.77532 0.54266,-0.6583 0.79498,-2.16512 1.66279,-2.41984 m -23.67129,8.55476 -0.14607,0.14607 0.14607,-0.14607 m -17.67443,22.34866 v 0.14607 h 2.19104 c 1.49861,-0.5083 3.26654,-0.69206 4.16546,-2.19161 0.40776,-0.6802 0.27145,-1.54411 0.73724,-2.18247 0.50722,-0.69517 1.52341,-0.69695 1.93643,-1.47512 1.16244,-2.19018 -1.97797,-3.48089 -3.6256,-3.1315 -2.1788,0.46205 -5.58229,1.82318 -6.84995,3.7223 -1.2171,1.82341 -1.1691,4.71872 1.44538,5.11233 m 5.69671,-7.84019 c 0.82775,-0.13792 2.81711,0.20732 2.37972,1.51908 -0.20648,0.61919 -1.45517,0.94137 -1.87828,1.50306 -0.46148,0.61265 -0.3088,1.37932 -0.64795,2.04116 -0.65124,1.27083 -2.34511,1.68847 -3.6513,1.85821 -2.50876,0.32602 -4.10404,-1.52073 -2.4018,-3.75341 1.16286,-1.52521 4.33067,-2.85674 6.19961,-3.1681"
       id="path7"
       sodipodi:nodetypes="csssscssscsssssssssscscscssscsssssssssssssssssssscssscsssssscscsssscssssssssssccsscsssssscssscsssssssssssssssscsssssscsssssssssssssssssssssssssssssssssssssccsscssccsssssssssssssscssssssssssssssscssssssssscssssssssscssssssccsssssssccsscscsssscsssssssssssssssssssscsssssssssssssssssssssssssssssssssssssssssssssassssssccsssssssccssssssscccccccsssssccsssssc" /><path
       style="fill:#ffffff;stroke:#000000;stroke-width:5.47475"
       d="m 504.39763,802.76673 c 0,-0.99766 0.53949,-4.42586 1.19886,-7.61821 1.52238,-7.37063 0.63344,-10.92659 -3.23109,-12.92501 -2.60722,-1.34825 -4.91073,-1.40866 -16.28093,-0.42694 -14.39888,1.24322 -24.50494,0.85825 -28.1093,-1.07074 -2.10103,-1.12444 -2.23835,-1.73609 -1.61895,-7.21089 0.63735,-5.63341 0.51504,-6.10947 -2.09758,-8.16456 -1.52592,-1.20029 -4.90538,-2.5019 -7.5099,-2.89247 -3.27765,-0.49151 -5.92167,-1.78177 -8.58854,-4.19112 -2.11918,-1.91455 -4.81223,-3.481 -5.98458,-3.481 -1.31371,0 -4.1878,2.36415 -7.49092,6.16183 -6.4925,7.46458 -9.38324,8.18929 -25.19231,6.31572 -12.75548,-1.5117 -10.75725,-1.10649 -17.39824,2.04214 -4.29409,2.03591 -6.49449,6.23467 -4.85835,20.61902 0.20596,1.81072 -3.25457,1.64155 -4.63356,1.91996 -2.65263,0.53556 -3.71068,-1.50751 -3.72946,-7.20144 -0.0113,-3.41565 -0.48881,-4.98545 -1.65246,-5.43198 -2.22847,-0.85515 -1.81069,-1.04205 -6.58323,2.94529 -4.79102,4.00279 -6.53092,3.88547 -8.37422,-0.56462 -1.5981,-3.85818 -6.60543,-8.11419 -10.4516,-8.88342 -1.62774,-0.32556 -2.95953,-0.79757 -2.95953,-1.04894 0,-0.25138 1.10996,-1.93917 2.46656,-3.75065 3.73579,-4.98841 4.0853,-7.23334 1.61512,-10.37368 -1.1894,-1.51207 -2.75498,-2.74923 -3.47908,-2.74923 -2.00601,0 -4.74124,-3.50361 -4.74124,-6.07315 0,-1.25891 1.47761,-5.12806 3.28359,-8.59813 l 3.28359,-6.30921 -1.84473,-19.1693 c -2.68725,-27.92448 -6.09933,-37.95912 -15.00603,-44.13146 -3.9779,-2.75668 -4.50143,-2.85602 -9.63604,-1.82836 -2.98628,0.59768 -6.73581,0.83533 -8.33228,0.52811 l -2.90269,-0.5586 3.16136,-1.92253 c 5.01829,-3.05181 4.00247,-8.26271 -2.37966,-12.20709 -4.47995,-2.76875 -9.8966,-2.75105 -14.64039,0.0479 l -3.74508,2.20965 -3.34729,-3.24432 c -4.61285,-4.47096 -8.10074,-4.32821 -11.05534,0.45242 -2.59069,4.19182 -5.49822,5.61522 -11.47004,5.61522 -5.92403,0 -7.96304,1.47726 -9.28491,6.72688 -1.52594,6.06004 -2.96232,7.08963 -9.07182,6.50258 -3.82893,-0.36791 -7.22644,-1.8678 -14.22125,-6.27824 -5.05475,-3.18716 -10.4739,-6.10626 -12.04257,-6.48689 -4.77311,-1.1582 -9.61261,0.41436 -14.49145,4.70888 l -4.64516,4.08884 -0.66909,-4.18423 c -0.38914,-2.43352 -1.77817,-5.29331 -3.31983,-6.83497 -2.83969,-2.83969 -3.122,-2.84944 -20.72757,-0.71537 -13.42038,1.62676 -23.43453,-6.13456 -40.19832,-31.15511 -12.98737,-19.38412 -22.84305,-27.0489 -31.460663,-24.467 -8.566318,2.56653 -11.129406,0.99748 -16.650681,-10.19304 -2.990196,-6.06054 -8.838638,-12.09645 -13.075643,-13.4948 -4.289168,-1.41555 -6.04077,-6.12572 -5.024868,-13.51221 0.592944,-4.31121 1.009299,-5.07992 2.420123,-4.46819 0.937185,0.40636 4.632462,0.95877 8.211724,1.22757 5.247697,0.3941 6.90046,0.13334 8.53596,-1.34677 2.852251,-2.58125 2.575079,-3.86105 -1.974705,-9.11792 -6.291824,-7.26963 -6.305926,-10.31058 -0.09262,-19.97123 l 2.096572,-3.25982 -2.22413,-9.15612 c -2.469764,-10.16733 -3.996263,-12.1579 -10.618787,-13.847 -11.406197,-2.90919 -13.454828,-5.07869 -12.005982,-12.71437 0.751083,-3.95834 0.58916,-5.77559 -0.783635,-8.79462 -1.323224,-2.91001 -1.745164,-7.00368 -1.793353,-17.39909 -0.07228,-15.59281 -0.620154,-16.83658 -8.372444,-19.00709 -5.419531,-1.51737 -7.11839,-3.22925 -6.170019,-6.2173 1.721041,-5.42252 13.862243,-15.54079 18.561996,-15.46924 1.168981,0.0178 4.453411,1.17754 7.298731,2.5772 7.638543,3.75752 12.468465,3.43759 17.152434,-1.13619 4.176337,-4.07808 8.7293,-5.53692 17.50874,-5.61006 8.3443,-0.0695 13.16889,-2.79911 24.09816,-13.634 7.90773,-7.83943 10.46806,-11.18088 13.6593,-17.82657 5.01227,-10.43794 5.5973,-18.55102 1.64183,-22.76893 -3.05858,-3.26152 -2.45609,-4.00277 3.35796,-4.13132 3.39222,-0.075 5.83442,0.72905 9.91134,3.26312 6.01187,3.73678 10.73669,4.2858 14.45709,1.67993 2.17585,-1.52402 2.33779,-2.20006 1.71709,-7.16806 -0.49591,-3.96907 -0.25551,-6.31656 0.86966,-8.49241 2.73857,-5.29582 9.94671,-13.69666 11.75208,-13.69666 0.96109,0 3.72288,1.93875 6.13729,4.30832 3.82252,3.75152 5.10949,4.368 9.95789,4.77007 10.73727,0.89041 15.36664,-4.02318 13.1689,-13.97742 -0.65773,-2.97901 -0.90376,-5.88899 -0.54675,-6.46664 0.357,-0.57765 2.62782,-1.05027 5.04626,-1.05027 5.54646,0 8.00475,-1.78979 9.42211,-6.8599 2.11098,-7.55129 8.10931,-5.47834 14.89806,5.14857 2.23718,3.50202 8.29498,10.50854 13.46177,15.57004 7.10904,6.96417 9.55669,10.06904 10.06228,12.7641 1.09108,5.81592 -0.45534,14.47585 -3.75071,21.00392 -3.28401,6.50562 -3.73166,9.24709 -2.0293,12.42796 1.7815,3.32879 5.23462,4.41377 15.05959,4.73185 13.75507,0.4453 19.62372,2.92953 28.94812,12.25393 6.22676,6.22676 8.3654,9.35622 13.29233,19.45051 8.31838,17.04272 7.44833,16.61773 35.79581,17.48532 15.50638,0.47456 24.11025,1.19216 28.40174,2.3688 5.78085,1.58499 8.4074,2.85743 25.40067,12.30544 5.67512,3.15529 7.7264,3.74284 13.13627,3.76267 5.55766,0.0204 7.48564,-0.54852 14.48526,-4.27418 19.01416,-10.12061 17.16395,-9.55673 30.54558,-9.30924 11.17651,0.20671 12.53056,0.0186 17.31523,-2.40602 8.63152,-4.37392 30.05317,-23.8085 30.05317,-27.26544 0,-1.10473 -1.9755,-3.92602 -4.38999,-6.26953 -4.81989,-4.6782 -4.72901,-6.40002 0.49432,-9.36702 2.31074,-1.31255 3.50464,-1.27893 9.96631,0.28068 6.44112,1.55465 7.76806,1.59346 10.82408,0.31657 1.91566,-0.8004 4.52338,-3.13864 5.79495,-5.19608 3.31572,-5.36496 5.94284,-6.84324 12.16141,-6.84324 6.5818,0 9.23632,-2.29642 10.21746,-8.83913 1.64271,-10.95441 8.36391,-15.11057 25.80579,-15.95746 l 11.38128,-0.55263 0.30672,-3.1279 c 0.34401,-3.50837 -5.26687,-13.07133 -11.06494,-18.85866 -4.25002,-4.24215 -7.48794,-4.29899 -13.55633,-0.23798 -8.45794,5.66011 -19.92044,7.84694 -23.31864,4.44874 -2.46379,-2.46379 -1.59156,-10.64895 1.96174,-18.4093 4.21943,-9.21517 5.05096,-9.85735 12.76386,-9.85735 7.38435,0 12.50463,-2.06729 17.06317,-6.88921 3.60049,-3.8085 4.98047,-7.5993 4.98047,-13.68135 0,-9.6353 2.08857,-16.89106 7.77882,-27.02388 3.03588,-5.40611 6.58335,-12.052 7.88328,-14.76864 2.10378,-4.39655 2.93647,-5.11523 7.57731,-6.53986 9.08989,-2.79038 15.90906,-2.95386 22.28571,-0.53427 12.46226,4.72875 25.47088,18.8286 30.60767,33.17517 5.26165,14.69532 9.04523,17.63813 22.67742,17.63813 10.94292,0 13.36629,1.13468 19.52938,9.14406 6.13076,7.96739 9.19636,9.90372 15.64912,9.88453 6.60227,-0.0196 9.70058,-1.70643 19.52458,-10.62959 7.14231,-6.48738 11.46482,-9.31166 12.566,-8.21049 0.20761,0.2076 0.52171,11.55843 0.69803,25.22405 0.29219,22.64729 0.15313,25.1027 -1.57102,27.74 -1.7467,2.67178 -2.03033,2.76786 -3.70279,1.2543 -4.51401,-4.08512 -14.69865,-0.0829 -18.1162,7.11908 -2.09267,4.40996 -1.80631,5.69725 3.72418,16.74103 3.57899,7.14687 4.10991,9.01518 3.49436,12.29638 -0.87842,4.68234 -8.46178,13.09088 -17.87154,19.81619 -7.728,5.52334 -11.67888,9.99651 -11.67888,13.22279 0,2.30551 -0.23329,2.36939 -6.74428,1.84675 -8.17956,-0.65657 -9.30746,0.13784 -14.66141,10.32641 -2.80664,5.34106 -6.38446,9.61821 -14.69083,17.56236 -12.5723,12.02407 -26.54816,22.79436 -28.98085,22.33368 -2.26499,-0.42893 -2.62216,-4.93391 -1.12767,-14.22287 l 1.24185,-7.71855 -2.88647,-2.48283 c -2.42469,-2.08563 -3.68915,-2.4057 -7.90397,-2.00071 -6.46493,0.6212 -8.61714,2.68314 -16.44508,15.75539 -9.24939,15.44597 -10.03618,16.24312 -16.95892,17.18257 -6.48077,0.87946 -9.3978,2.87961 -11.52327,7.90135 -3.34368,7.89991 -0.14367,14.77716 6.87584,14.77716 5.17513,0 9.20525,1.56602 9.94505,3.86445 2.16861,6.73747 3.03093,7.88434 7.37189,9.80456 3.29062,1.45559 5.65675,1.82103 8.58628,1.32608 4.21725,-0.71249 5.83837,-2.08314 11.61663,-9.82178 l 3.47652,-4.65598 h 6.80851 c 5.24356,0 7.30895,0.45304 8.98581,1.97102 4.46153,4.03882 3.92709,4.71786 -15.15777,19.25896 -11.84102,9.02189 -17.26272,15.63808 -18.9338,23.10526 -1.78233,7.96429 -0.15682,10.96259 7.22843,13.33308 7.10918,2.2819 9.69036,4.74474 12.59938,12.02173 2.95486,7.39164 4.18045,9.36797 11.32125,18.2562 9.58182,11.92658 12.86772,18.56967 11.29206,22.82908 -0.43068,1.16421 -3.57576,3.60525 -6.98908,5.42454 -6.48605,3.45703 -7.46047,4.69384 -7.46047,9.46947 0,6.11254 3.31836,6.1894 11.14514,0.25813 3.20177,-2.42637 3.49027,-2.47023 5.32519,-0.80965 2.59643,2.34973 4.37079,9.84594 4.3439,18.35183 -0.0262,8.29913 -1.79411,12.25683 -10.54318,23.60258 -6.43405,8.34365 -8.46877,12.75454 -14.09169,30.54818 -8.3912,26.55384 -12.93336,31.82584 -42.78835,49.66376 -10.47674,6.25971 -20.39224,11.96328 -22.03444,12.67461 -5.85169,2.5347 -8.6746,1.70846 -15.09896,-4.41934 -4.32365,-4.12407 -6.49095,-5.52011 -7.79368,-5.0202 -1.46935,0.56384 -1.66256,1.38477 -1.04015,4.41934 1.56001,7.60593 1.03179,9.63355 -3.57459,13.72136 -2.387,2.11828 -6.52266,4.65072 -9.19034,5.62763 -16.61854,6.08581 -15.97645,6.83305 -18.81368,9.22042 -2.79626,2.3529 -4.01201,6.40446 -3.43583,9.66755 1.58101,8.95368 -3.00489,7.88316 -6.65671,8.23527 -2.63834,0.25438 -3.36265,-0.0665 -3.36265,-1.48972 z"
       id="path9"
       transform="scale(0.26458333)"
       sodipodi:nodetypes="sssssssssssssssssssssssssscsssscssscsssssssscssssssssssssscsssssssssssssssssssssssssssssssssssssssssssssssssscssssssssssssssssssssssssssssssscsssssssssscsssssssssssssssssssssssssss" /><path
       style="fill:#ffffff;stroke:#000000;stroke-width:0.965148"
       d="m 637.27735,779.51471 c -3.66867,-1.36264 -7.39285,-6.27976 -9.43945,-12.46311 -1.11051,-3.35517 -1.69865,-8.27131 -1.38525,-11.57894 0.47402,-5.0028 1.6026,-6.77264 7.7921,-12.21952 3.8029,-3.34662 4.59377,-4.27123 5.82273,-6.80734 1.75334,-3.61822 1.95934,-4.00131 2.62641,-4.88436 1.03101,-1.3648 1.90953,-1.75015 4.18672,-1.83644 3.64878,-0.13828 7.18314,0.92328 8.79535,2.6417 1.41283,1.5059 1.2044,3.64397 -0.90574,9.29084 -1.4021,3.75211 -1.84618,5.53118 -3.86668,15.49083 -2.59852,12.80887 -4.3721,18.09783 -6.95352,20.73596 -1.34547,1.37504 -2.37112,1.83599 -4.26818,1.91823 -1.1106,0.0481 -1.68504,-0.0206 -2.40449,-0.28785 z"
       id="path10"
       transform="scale(0.26458333)" /><path
       style="fill:#ffffff;stroke:#000000;stroke-width:0.965148"
       d="m 490.61436,842.87402 c -1.59211,-0.34586 -3.40604,-1.28612 -4.45815,-2.31091 -2.89146,-2.81637 -2.73901,-7.02147 0.40874,-11.27498 1.05092,-1.4201 1.99165,-2.34057 3.82131,-3.73905 4.93967,-3.77556 13.99238,-7.62187 19.91195,-8.46019 2.29701,-0.32529 5.41728,0.31142 7.14974,1.45895 1.44051,0.95415 1.98656,2.277 1.57504,3.81563 -0.29737,1.11184 -1.257,1.98514 -3.94135,3.58677 -2.18498,1.30369 -3.23615,2.22741 -3.82036,3.35713 -0.1673,0.32353 -0.54348,1.74433 -0.83594,3.15733 -0.29246,1.41299 -0.74273,3.00391 -1.0006,3.53537 -0.97636,2.01224 -3.35932,4.01895 -6.12847,5.16086 -3.95461,1.63075 -9.56947,2.38921 -12.68191,1.71309 z"
       id="path11"
       transform="scale(0.26458333)" /></g></svg>
