<?xml version="1.0" encoding="UTF-8" standalone="no"?>
<!-- Created with Inkscape (http://www.inkscape.org/) -->

<svg
   width="210mm"
   height="297mm"
   viewBox="0 0 210 297"
   version="1.1"
   id="svg1"
   xml:space="preserve"
   inkscape:version="1.4 (e7c3feb1, 2024-10-09)"
   sodipodi:docname="Africa.svg"
   xmlns:inkscape="http://www.inkscape.org/namespaces/inkscape"
   xmlns:sodipodi="http://sodipodi.sourceforge.net/DTD/sodipodi-0.dtd"
   xmlns="http://www.w3.org/2000/svg"
   xmlns:svg="http://www.w3.org/2000/svg"><sodipodi:namedview
     id="namedview1"
     pagecolor="#ffffff"
     bordercolor="#000000"
     borderopacity="0.25"
     inkscape:showpageshadow="2"
     inkscape:pageopacity="0.0"
     inkscape:pagecheckerboard="0"
     inkscape:deskcolor="#d1d1d1"
     inkscape:document-units="mm"
     inkscape:zoom="0.29851576"
     inkscape:cx="214.39404"
     inkscape:cy="601.30828"
     inkscape:window-width="1104"
     inkscape:window-height="1040"
     inkscape:window-x="0"
     inkscape:window-y="39"
     inkscape:window-maximized="0"
     inkscape:current-layer="layer1" /><defs
     id="defs1" /><g
     inkscape:label="Layer 1"
     inkscape:groupmode="layer"
     id="layer1"><path
       style="fill:#020202;stroke:none"
       d="m 70.001512,152.13646 5.270501,-0.2171 2.054294,-0.0828 1.018155,-0.0175 1.886597,1.19779 c -0.755309,2.66151 -1.398919,5.36537 -2.069949,8.04948 -0.192416,0.76967 -0.396434,1.53673 -0.591179,2.30584 -0.071,0.2804 -0.259545,0.67382 -0.215154,0.96426 0.05132,0.33576 0.498087,0.70653 0.704592,0.96426 0.642837,0.80231 1.296795,1.59721 1.951587,2.38969 1.44677,1.75098 2.864783,3.52575 4.304557,5.28247 0.866328,1.05704 1.868255,2.08949 2.623897,3.22818 0.216807,0.3267 0.242897,0.8372 0.329959,1.2158 0.208599,0.9071 0.408978,1.8162 0.609716,2.72509 0.661127,2.99333 1.357608,5.97855 2.018716,8.97181 0.153071,0.69307 -0.307105,1.09704 -0.710586,1.63506 -0.702581,0.93685 -1.588489,1.90311 -2.141183,2.9347 -0.361014,0.67382 -0.421311,1.68582 -0.58603,2.43162 -0.383133,1.7347 -0.79076,3.46397 -1.173883,5.19862 -0.145056,0.65674 -0.283429,1.31601 -0.438527,1.97044 -0.07225,0.30486 -0.233614,0.69198 -0.207227,1.00619 0.03121,0.37165 0.439715,0.82215 0.634976,1.13196 0.526245,0.83498 1.040239,1.67771 1.562011,2.51546 1.40984,2.26363 2.823488,4.52501 4.227985,6.79175 0.459541,0.74166 0.922203,1.48137 1.383474,2.22199 0.212774,0.34164 0.5256,0.71084 0.660667,1.09003 0.08041,0.22576 0.0082,0.4814 -0.0037,0.71272 -0.02576,0.50301 -0.0642,1.00688 -0.08618,1.50928 -0.09051,2.06835 -0.287012,4.13542 -0.337657,6.2048 -0.01639,0.66946 -0.290727,1.57342 -0.103777,2.22199 0.103358,0.35857 0.467238,0.70123 0.677034,1.00619 0.555457,0.80741 1.145561,1.59239 1.715532,2.38969 1.89108,2.64529 3.797697,5.27919 5.689617,7.92371 0.31803,0.44454 0.19862,0.82604 0.12496,1.34158 l -0.32912,2.30584 c -0.0458,0.31643 -0.25507,0.93169 -0.0762,1.2158 0.27474,0.43632 0.78434,0.80965 1.14858,1.17389 l 2.38969,2.38968 c 0.37772,0.37771 0.88737,1.13245 1.38351,1.33329 0.31266,0.1266 0.8439,-0.0557 1.17388,-0.0741 1.14716,-0.0639 2.29403,-0.22049 3.4378,-0.32977 2.97605,-0.28436 5.95477,-0.54106 8.92989,-0.83852 0.89365,-0.0894 1.78909,-0.165 2.68316,-0.25151 0.43425,-0.042 0.97153,-0.003 1.3835,-0.1549 0.48828,-0.18002 0.95781,-0.79939 1.34158,-1.1448 0.96356,-0.8672 1.93079,-1.73038 2.89278,-2.59927 2.59238,-2.3415 5.20559,-4.65989 7.79794,-7.00137 0.82137,-0.7419 1.64281,-1.48577 2.47354,-2.21714 0.38879,-0.34229 0.94583,-0.70692 1.22723,-1.14393 0.23479,-0.36463 0.27685,-0.96471 0.38155,-1.3835 l 0.72332,-2.89279 c 0.0932,-0.37271 0.13096,-1.07122 0.38156,-1.36598 0.30328,-0.35672 1.13714,-0.55124 1.56262,-0.74305 l 2.64124,-1.19018 c 0.46377,-0.20907 0.99462,-0.37824 1.42152,-0.65644 0.38913,-0.25357 0.60062,-0.97138 0.8246,-1.36874 0.68289,-1.21148 1.50119,-2.48366 2.02107,-3.7732 0.17211,-0.4269 -0.22192,-1.32151 -0.3316,-1.76082 -0.36906,-1.47816 -0.69956,-2.96595 -1.06907,-4.44398 -0.11861,-0.47443 -0.22732,-0.95107 -0.34576,-1.42543 -0.0381,-0.15275 -0.16355,-0.42123 -0.0601,-0.56478 0.17073,-0.23684 0.60683,-0.39709 0.85133,-0.55427 0.74832,-0.48108 1.50765,-0.94562 2.26392,-1.4142 2.4664,-1.5282 4.91581,-3.08415 7.37869,-4.61806 0.86734,-0.5402 1.73488,-1.07942 2.59931,-1.62424 0.29731,-0.18738 0.79136,-0.36614 0.86929,-0.74145 0.60822,-2.92936 0.95094,-5.93553 1.43992,-8.8878 0.13645,-0.82384 0.26042,-1.64999 0.39854,-2.47354 0.0586,-0.34968 0.22835,-0.82741 0.12305,-1.17388 -0.29784,-0.97995 -0.73257,-1.93442 -1.09407,-2.89278 -0.84335,-2.23586 -1.69637,-4.46874 -2.53118,-6.7079 -0.29736,-0.79759 -0.59768,-1.59411 -0.90031,-2.38969 -0.0906,-0.23804 -0.365,-0.67077 -0.25375,-0.92234 0.26289,-0.59445 0.89711,-1.16951 1.30289,-1.67697 0.9005,-1.12617 1.79502,-2.25911 2.68213,-3.39588 1.91723,-2.45681 3.86664,-4.88834 5.79452,-7.33676 0.58341,-0.74094 1.17172,-1.47852 1.75186,-2.222 0.30823,-0.39499 0.6087,-0.91016 0.99417,-1.23114 0.53478,-0.44531 1.30207,-0.74117 1.9164,-1.06551 1.02768,-0.54257 2.04185,-1.11393 3.06048,-1.67335 0.51878,-0.2849 1.27575,-0.53603 1.69733,-0.95151 0.36127,-0.35604 0.63719,-0.87002 0.93171,-1.28329 0.59871,-0.84014 1.20399,-1.67529 1.80275,-2.51547 1.79609,-2.52032 3.60686,-5.02995 5.40828,-7.54638 0.87089,-1.21658 1.73626,-2.43843 2.61782,-3.64742 0.38981,-0.53458 1.04084,-1.17977 1.26281,-1.80275 0.15584,-0.43744 0.0956,-1.04699 0.11601,-1.50928 0.0389,-0.88046 0.1195,-1.76075 0.16935,-2.64107 0.16616,-2.93443 0.35241,-5.8748 0.58363,-8.80428 -0.46441,0.0406 -0.94257,0.27226 -1.38351,0.41924 l -2.64123,0.88041 -8.51065,2.83689 -3.22818,1.07605 c -0.28712,0.0957 -0.92277,0.4462 -1.21581,0.34853 -0.32065,-0.10688 -0.64035,-0.617 -0.85627,-0.86559 -0.56872,-0.65475 -1.16877,-1.28484 -1.75016,-1.92853 -2.24001,-2.47996 -4.47493,-4.9695 -6.74642,-7.42061 -1.68133,-1.81429 -3.33441,-3.65645 -4.9924,-5.49209 -0.89294,-0.98862 -1.95211,-1.93445 -2.72683,-3.01856 -0.89319,-1.24987 -1.54182,-2.76616 -2.29112,-4.10859 l -4.48591,-8.04948 c -1.02875,-1.84411 -2.04376,-3.696588 -3.08412,-5.534014 -0.32324,-0.570882 -0.634,-1.148539 -0.95825,-1.718899 -0.16061,-0.282519 -0.40574,-0.60167 -0.47495,-0.922336 -0.0705,-0.326593 0.0406,-0.718211 0.0637,-1.04811 0.0637,-0.908856 0.14705,-1.816289 0.20962,-2.725084 0.15593,-2.265001 0.35537,-4.526686 0.51058,-6.791749 0.0639,-0.93294 0.20588,-1.873106 0.20588,-2.808933 -1.92698,0 -3.86043,0.126019 -5.78557,0.207964 -2.55688,0.108823 -5.11582,0.142948 -7.67216,0.254862 -1.1177,0.04895 -2.23482,0.09226 -3.35395,0.127514 -0.52507,0.01654 -1.11418,0.129765 -1.63505,0.06516 -0.37661,-0.04671 -0.77243,-0.242191 -1.13196,-0.362027 l -2.22199,-0.740657 -7.67216,-2.557387 c -1.20466,-0.401557 -2.51827,-1.044486 -3.77319,-1.229789 -0.92901,1.745266 -2.18623,3.36826 -3.2572,5.030925 -0.27116,0.420984 -0.54602,0.840822 -0.82344,1.257732 -0.0894,0.134391 -0.20007,0.388557 -0.36725,0.43781 -0.28865,0.08504 -0.9401,-0.347882 -1.2119,-0.461946 -1.09144,-0.458015 -2.18142,-0.91906 -3.2701,-1.383627 -2.73731,-1.168048 -5.482352,-2.317304 -8.21718,-3.491084 -1.429861,-0.613697 -2.906774,-1.423402 -4.40206,-1.850978 v -0.08385 l 1.7189,-1.283975 0.599162,-0.525918 -0.253061,-0.70557 -0.754639,-1.676975 -2.945412,-6.540202 c -1.865993,0.351649 -3.777892,0.554863 -5.659791,0.808395 -3.664375,0.493676 -7.319616,1.057485 -10.984186,1.551202 -2.769189,0.373082 -5.530936,0.809685 -8.301026,1.173862 -1.208151,0.158833 -2.431716,0.442212 -3.647421,0.519428 -0.498619,0.03167 -1.171293,-0.401802 -1.63505,-0.575273 -1.377343,-0.515211 -2.734112,-1.085939 -4.108589,-1.608807 -0.449111,-0.17085 -0.895217,-0.349274 -1.34158,-0.527227 -0.165604,-0.06602 -0.405871,-0.208578 -0.586941,-0.146183 -0.279837,0.09642 -0.558303,0.385344 -0.796563,0.55908 -0.587781,0.428599 -1.178857,0.853882 -1.760824,1.290342 -1.691545,1.268581 -3.423029,2.483896 -5.114774,3.752231 -0.623937,0.467781 -1.262618,0.915704 -1.886596,1.383505 -0.261388,0.195967 -0.649598,0.384013 -0.821149,0.669275 -0.307053,0.510585 -0.497745,1.12944 -0.742868,1.673188 -0.539541,1.196871 -1.055274,2.404756 -1.586166,3.605496 -0.203793,0.460922 -0.403105,0.924056 -0.610202,1.383504 -0.09147,0.202928 -0.155563,0.489623 -0.322779,0.644055 -0.529884,0.489357 -1.444147,0.785898 -2.07972,1.129707 -1.477964,0.79949 -2.974273,1.567803 -4.443983,2.382565 -0.510521,0.28301 -1.24366,0.514577 -1.659022,0.925448 -0.982649,0.971998 -1.786809,2.223138 -2.650811,3.3031 l -5.399867,6.749824 -3.052065,3.815116 c -0.457578,0.57201 -1.127893,1.18427 -1.445358,1.84467 -0.16029,0.33346 -0.203615,0.7728 -0.293405,1.13196 -0.192003,0.76802 -0.374015,1.53798 -0.565979,2.30584 -0.62478,2.49912 -1.2199,5.00537 -1.844672,7.50447 -0.488751,1.955 -0.957636,3.91439 -1.446391,5.86941 -0.150074,0.60029 -0.290178,1.20263 -0.440206,1.80275 -0.06943,0.27771 -0.22799,0.63515 -0.206938,0.92233 0.02391,0.3261 0.318985,0.71659 0.463788,1.00619 0.368862,0.73772 0.720959,1.48384 1.090034,2.22199 1.246691,2.49338 2.442631,5.01103 3.689346,7.50446 0.891331,1.78267 1.74607,3.58328 2.637029,5.36632 0.340569,0.68157 0.616949,1.68847 1.155444,2.23335 0.902474,0.91317 1.95685,1.71514 2.925778,2.55784 2.097971,1.82468 4.209323,3.63653 6.288656,5.48239 0.831794,0.7384 1.670168,1.47271 2.515463,2.19559 0.262526,0.2245 0.652335,0.72587 1.006185,0.77211 0.744109,0.0972 1.72863,-0.21932 2.473538,-0.3231 1.745416,-0.24318 3.493244,-0.47659 5.240546,-0.70637 5.55042,-0.72994 11.093532,-1.51568 16.643977,-2.24562 2.054893,-0.27023 4.105114,-0.58613 6.162883,-0.83317 0.504029,-0.0605 1.004757,-0.14855 1.509278,-0.20523 0.154411,-0.0173 0.427186,-0.11463 0.570441,-0.0349 0.276209,0.15374 0.420482,1.00348 0.51972,1.29474 0.411465,1.20764 0.782751,2.48158 1.299528,3.64742 M 82.788446,78.139936 v 0.04192 l 20.081774,8.528437 4.989,2.120354 1.21581,0.514864 0.49533,0.145814 0.37114,-0.49298 0.90344,-1.383504 3.30294,-5.07285 2.80893,0.908355 6.45635,2.152125 3.14433,1.034455 1.21581,-0.02782 3.31203,-0.122703 10.14569,-0.338916 c 0,2.447704 -0.38059,4.936104 -0.54876,7.37869 -0.0394,0.571629 -0.0749,1.148581 -0.12914,1.7189 -0.0268,0.282078 -0.11709,0.643952 -0.0602,0.922336 0.0685,0.335282 0.33618,0.670503 0.50422,0.964261 0.33301,0.58211 0.65285,1.172961 0.97571,1.760823 1.18594,2.159419 2.38854,4.311259 3.60052,6.456349 1.66033,2.93864 3.28374,5.89881 4.9288,8.84605 0.703,1.25947 1.31308,2.68953 2.15888,3.85704 0.92024,1.27028 2.17104,2.41433 3.23976,3.56357 1.97922,2.12835 3.9179,4.29946 5.86604,6.45636 2.47903,2.74465 4.92898,5.5281 7.46816,8.21717 0.62029,0.65691 1.23587,1.33031 1.82838,2.01237 0.17965,0.2068 0.49312,0.70111 0.77243,0.75762 0.29289,0.0593 0.80993,-0.23103 1.09003,-0.3244 l 2.68316,-0.89438 c 3.3117,-1.10391 6.61652,-2.23198 9.93608,-3.31203 -0.17364,1.37342 -0.15517,2.77216 -0.28635,4.15051 -0.0473,0.49702 0.0305,1.06954 -0.11249,1.5512 -0.1462,0.49236 -0.68076,1.00952 -0.97877,1.42543 -0.72162,1.00706 -1.44756,2.01078 -2.16805,3.01856 -1.72996,2.41976 -3.45756,4.84116 -5.19875,7.25291 -0.53333,0.73873 -1.06676,1.47836 -1.59312,2.222 -0.27184,0.38402 -0.52611,0.8731 -0.87575,1.19026 -0.49527,0.44924 -1.28004,0.72712 -1.86713,1.04467 -1.12113,0.60641 -2.23916,1.21958 -3.35395,1.83755 -0.44407,0.24618 -1.01034,0.44416 -1.38185,0.79515 -0.82066,0.7753 -1.46775,1.83871 -2.17335,2.72068 -1.61229,2.0153 -3.19994,4.05129 -4.79658,6.07903 -1.67425,2.12632 -3.35667,4.2462 -5.03093,6.37251 -0.78326,0.99476 -1.76003,1.97586 -2.41113,3.06048 -0.16931,0.28204 0.11113,0.72886 0.21573,1.00618 0.33209,0.88045 0.66203,1.76169 0.99649,2.64124 0.90263,2.37379 1.78996,4.75344 2.69289,7.12714 0.31318,0.82331 0.63706,1.6441 0.93356,2.47354 0.11246,0.3146 0.29298,0.63487 0.35458,0.96426 0.12459,0.66618 -0.22769,1.638 -0.3383,2.30584 -0.27756,1.67575 -0.53112,3.35536 -0.81028,5.03093 -0.0931,0.55878 -0.18144,1.1181 -0.27281,1.67697 -0.0357,0.21833 -0.0306,0.55981 -0.16717,0.74086 -0.28599,0.37925 -0.99103,0.65231 -1.39434,0.90225 -1.03655,0.64238 -2.06732,1.29356 -3.10241,1.93822 -2.25193,1.40253 -4.50824,2.79983 -6.74982,4.21884 -1.1841,0.74958 -2.38133,1.66286 -3.64742,2.26168 0.64144,2.27739 1.12633,4.61519 1.67212,6.91752 0.14264,0.60172 0.28978,1.20283 0.43976,1.80275 0.0599,0.23946 0.19185,0.55187 0.11078,0.79656 -0.20344,0.61411 -0.64499,1.23644 -0.95911,1.80275 -0.12587,0.22693 -0.23487,0.55828 -0.43884,0.72534 -0.35807,0.29324 -0.94651,0.44942 -1.36973,0.63403 -0.81484,0.35545 -1.61634,0.74169 -2.43161,1.09638 -0.56196,0.24447 -1.1153,0.50959 -1.67698,0.75464 -0.22571,0.0985 -0.61275,0.19834 -0.76075,0.40407 -0.25992,0.36129 -0.30023,1.06994 -0.40783,1.50031 l -0.87005,3.47973 c -0.0998,0.39916 -0.13784,1.03716 -0.38156,1.37153 -0.2514,0.34491 -0.65994,0.61529 -0.97568,0.89947 l -2.0543,1.84467 c -2.19194,1.97278 -4.39017,3.93856 -6.58212,5.91134 -0.96356,0.8672 -1.92586,1.73576 -2.89279,2.59918 -0.37104,0.33133 -0.7994,0.8877 -1.25773,1.08566 -0.20565,0.0888 -0.49156,0.0662 -0.71271,0.0883 -0.58647,0.0587 -1.17299,0.12125 -1.76083,0.16434 -1.63543,0.11988 -3.27355,0.30139 -4.90515,0.46453 -1.6341,0.16339 -3.27059,0.30303 -4.90515,0.4612 l -1.34158,0.12578 c -0.19714,0.0191 -0.47916,0.11204 -0.67079,0.0498 -0.25602,-0.0832 -0.48548,-0.41662 -0.67079,-0.60192 -0.47912,-0.47912 -1.03612,-0.93853 -1.45949,-1.46736 -0.20459,-0.25553 -0.0259,-0.74862 0.0163,-1.04811 l 0.32261,-2.26391 c 0.0383,-0.26823 0.175,-0.67538 0.0365,-0.92234 -0.53611,-0.95617 -1.32049,-1.83267 -1.95848,-2.72508 -1.37025,-1.91669 -2.74817,-3.82834 -4.120621,-5.74364 l -1.653096,-2.30584 c -0.2052,-0.28651 -0.586204,-0.65153 -0.649091,-1.00619 -0.133654,-0.75371 0.08139,-1.63128 0.114586,-2.38969 0.08017,-1.83196 0.216602,-3.6603 0.296766,-5.49209 0.02304,-0.52638 0.03939,-1.06848 0.08931,-1.59313 0.02859,-0.30039 0.117667,-0.7158 0.01068,-1.00618 -0.150031,-0.40718 -0.483276,-0.80545 -0.712745,-1.17388 -0.479172,-0.76936 -0.956215,-1.54009 -1.440956,-2.30584 -1.337547,-2.11299 -2.638768,-4.24974 -3.960881,-6.37251 -0.52214,-0.83834 -1.054127,-1.6714 -1.566862,-2.51546 -0.170891,-0.28131 -0.542877,-0.67403 -0.576654,-1.00619 -0.02499,-0.24565 0.09662,-0.55858 0.15434,-0.79656 0.11825,-0.48755 0.219141,-0.97918 0.334812,-1.46735 0.336828,-1.42158 0.627309,-2.85454 0.96426,-4.27629 0.13171,-0.55573 0.161034,-1.28627 0.49255,-1.76082 0.833114,-1.19257 1.729207,-2.34224 2.580867,-3.52165 0.232611,-0.32213 0.891036,-0.92848 0.852019,-1.34158 -0.123184,-1.30406 -0.591639,-2.66326 -0.884424,-3.94089 -0.559736,-2.4425 -1.104118,-4.88982 -1.64457,-7.33677 -0.244044,-1.10495 -0.492028,-2.20917 -0.74512,-3.31202 -0.101975,-0.44435 -0.123685,-1.08413 -0.377094,-1.46735 -0.664925,-1.00559 -1.551284,-1.91838 -2.315585,-2.85086 -1.371672,-1.6735 -2.730642,-3.35739 -4.102242,-5.03093 -0.583298,-0.7117 -1.158765,-1.43004 -1.746433,-2.13814 -0.214105,-0.25797 -0.650836,-0.63284 -0.725913,-0.96426 -0.05488,-0.24226 0.108127,-0.60267 0.168767,-0.83849 0.168952,-0.65703 0.335119,-1.31555 0.512279,-1.97044 0.568604,-2.1019 1.034256,-4.23267 1.617256,-6.33058 0.185507,-0.66755 0.340738,-1.3434 0.520882,-2.01237 0.0683,-0.25363 0.249724,-0.65948 0.204678,-0.92066 -0.03833,-0.22226 -0.405538,-0.37739 -0.575651,-0.4908 l -1.635051,-1.09004 -2.221992,-1.48132 c -0.28257,-0.18838 -0.659393,-0.55578 -1.006185,-0.58823 -0.708195,-0.0663 -1.473126,0.033 -2.180067,0.0814 -0.877336,0.0601 -1.762155,0.0569 -2.641236,0.0891 -0.372718,0.0137 -0.760754,0.0145 -1.131927,0.0474 -0.162539,0.0144 -0.415175,0.085 -0.569439,0.01 -0.271045,-0.13246 -0.440533,-1.03689 -0.534566,-1.31625 -0.43796,-1.30109 -1.060213,-2.60364 -1.369564,-3.94089 -2.471343,0.46046 -5.011954,0.69021 -7.504463,1.018 -5.788404,0.76124 -11.568297,1.58654 -17.356691,2.34777 -2.194489,0.28859 -4.390514,0.57748 -6.582127,0.88638 -0.628492,0.0886 -1.258553,0.16711 -1.886597,0.25806 -0.253276,0.0367 -0.633029,0.16338 -0.880412,0.0763 -0.223199,-0.0786 -0.411549,-0.30893 -0.586941,-0.46017 -0.43606,-0.37601 -0.864936,-0.76035 -1.299655,-1.1379 -1.511491,-1.31272 -3.025137,-2.62343 -4.527833,-3.94621 -0.973938,-0.85733 -1.960763,-1.70005 -2.934706,-2.55738 -0.443092,-0.39005 -1.001438,-0.75803 -1.367135,-1.22234 -0.309832,-0.39338 -0.483958,-0.93547 -0.70217,-1.38347 -0.374893,-0.76969 -0.765122,-1.53171 -1.130341,-2.30585 -1.096413,-2.32403 -2.309105,-4.59332 -3.40558,-6.91752 -0.590743,-1.25219 -1.212754,-2.49293 -1.831924,-3.73127 -0.264097,-0.5282 -0.766296,-1.2162 -0.849908,-1.80274 -0.0577,-0.4048 0.211262,-0.98882 0.309936,-1.38351 0.261594,-1.04637 0.533316,-2.09307 0.774566,-3.14433 0.672256,-2.92938 1.420838,-5.84639 2.149788,-8.76219 0.226948,-0.90779 0.443855,-1.81735 0.67079,-2.72509 0.09852,-0.39407 0.14332,-0.90251 0.343289,-1.25773 0.588459,-1.04532 1.58022,-1.99697 2.33036,-2.9347 l 4.869568,-6.079037 c 0.91606,-1.145132 1.848931,-2.280007 2.748764,-3.437799 0.464239,-0.59732 0.951472,-1.439144 1.550135,-1.901786 0.580629,-0.448702 1.363228,-0.737914 2.008586,-1.087782 1.491508,-0.808559 2.994266,-1.597098 4.485908,-2.405739 0.636061,-0.344811 1.610854,-0.650339 2.121776,-1.161272 0.409981,-0.409991 0.620534,-1.297425 0.848549,-1.828296 0.584557,-1.360966 1.208642,-2.70488 1.791387,-4.066664 0.234939,-0.549009 0.471787,-1.517364 0.941814,-1.897119 1.653515,-1.335951 3.451489,-2.51057 5.154887,-3.78257 0.528148,-0.394392 1.058703,-0.785897 1.593126,-1.171774 0.220318,-0.159079 0.490825,-0.446531 0.754639,-0.521045 0.160609,-0.04536 0.3578,0.07867 0.503092,0.136316 0.36237,0.143787 0.725631,0.288025 1.090034,0.426654 1.149373,0.437237 2.295891,0.886205 3.437798,1.342624 0.46557,0.18608 1.08637,0.562929 1.594775,0.517115 2.338809,-0.210789 4.672316,-0.678078 6.999722,-0.99163 4.223067,-0.568948 8.443161,-1.176278 12.661161,-1.784018 1.676515,-0.241556 3.354441,-0.471158 5.030925,-0.712714 l 1.299656,-0.186899 c 0.151812,-0.02188 0.388609,-0.09953 0.528517,-0.01017 0.179069,0.11435 0.262867,0.482765 0.346071,0.669602 0.249345,0.5599 0.505293,1.117076 0.754638,1.676975 0.08237,0.184975 0.341004,0.544608 0.251803,0.750893 -0.06827,0.157892 -0.28169,0.275661 -0.413676,0.375641 -0.337422,0.255579 -0.670892,0.516316 -1.006185,0.77468 -0.837392,0.645242 -1.681049,1.282603 -2.515463,1.931694 -0.439632,0.341986 -0.88731,0.776972 -1.383504,1.03032 M 181.6042,192.50963 c -1.46126,1.79593 -3.01201,3.52754 -4.52237,5.28247 -0.4442,0.51613 -0.88776,1.03288 -1.32938,1.5512 -0.21617,0.25372 -0.43976,0.61773 -0.73099,0.78715 -0.54738,0.3184 -1.25153,0.47453 -1.84406,0.69804 -1.20158,0.45321 -2.405,0.90149 -3.6055,1.35761 l -1.3835,0.51921 c -0.18531,0.0702 -0.451,0.11159 -0.58837,0.26442 -0.26598,0.2959 -0.4182,0.79762 -0.59586,1.15295 l -1.25774,2.51546 c -0.18339,0.3668 -0.60926,0.92345 -0.5825,1.34158 0.0764,1.1947 0.4008,2.42345 0.59622,3.6055 0.0581,0.35153 0.31039,1.02823 0.18879,1.36571 -0.11584,0.3215 -0.5453,0.65221 -0.77761,0.89821 -0.61149,0.64751 -1.4671,1.36841 -1.91348,2.13814 -0.15834,0.27305 -0.12504,0.65908 -0.14605,0.96426 -0.0385,0.5594 -0.10282,1.11884 -0.15684,1.67697 -0.13227,1.36675 -0.25028,2.73897 -0.34625,4.10859 -0.0357,0.50911 -0.2773,1.2692 -0.14179,1.76083 0.11597,0.42078 0.68187,0.88229 0.95944,1.2158 0.79054,0.94991 1.5951,1.89002 2.37235,2.85086 0.24063,0.29748 0.49242,0.58633 0.7373,0.88041 0.0926,0.1112 0.20485,0.30498 0.35648,0.33841 0.4043,0.0891 1.19097,-0.30743 1.58938,-0.42226 1.1033,-0.31795 2.20784,-0.63177 3.31202,-0.94659 0.40737,-0.11615 1.07139,-0.17652 1.4112,-0.43079 0.19266,-0.14418 0.27702,-0.46803 0.38119,-0.67691 0.27767,-0.55669 0.53927,-1.12094 0.81728,-1.67697 1.0425,-2.08502 2.01815,-4.20397 3.06048,-6.28866 1.55679,-3.11358 3.04591,-6.26146 4.57021,-9.39106 0.6129,-1.25837 1.21822,-2.5212 1.84422,-3.77319 0.3461,-0.69222 0.826,-1.4419 1.05358,-2.18007 0.24874,-0.80678 0.2008,-1.80199 0.28473,-2.64124 l 0.33539,-3.35395 c 0.0388,-0.38797 0.24676,-1.05579 0.10557,-1.42543 -0.16174,-0.42348 -0.80013,-0.85516 -1.11884,-1.17388 -0.9347,-0.9347 -1.85511,-2.13234 -2.9347,-2.89278 m -0.29347,6.7079 c -0.1443,1.14146 -0.0547,2.45853 -0.36846,3.56357 -0.19474,0.68576 -0.64428,1.37497 -0.96277,2.01237 -0.59736,1.1955 -1.17812,2.40218 -1.76035,3.6055 -1.80592,3.73241 -3.56707,7.49483 -5.4411,11.19381 -0.53877,1.06344 -1.09169,2.13936 -1.57691,3.22817 -0.21529,0.4831 -0.46901,1.33537 -0.85835,1.69529 -0.31474,0.29095 -1.11509,0.36256 -1.52553,0.47889 -0.14133,0.0401 -0.34808,0.14186 -0.49598,0.0991 -0.28575,-0.0827 -0.58661,-0.62526 -0.7721,-0.84784 -0.24863,-0.29836 -0.74927,-0.70887 -0.84687,-1.09003 -0.0883,-0.34469 0.0613,-0.86242 0.0955,-1.21581 0.077,-0.79587 0.13354,-1.59352 0.20962,-2.38969 0.0478,-0.50043 -0.058,-1.36629 0.19847,-1.80275 0.21928,-0.37318 0.60266,-0.68632 0.89156,-1.00618 0.70202,-0.77724 1.4861,-1.52295 2.13069,-2.34777 0.19101,-0.24442 0.0715,-0.55919 0.0249,-0.83848 l -0.3424,-2.0543 -0.34211,-2.05429 c -0.0478,-0.28869 -0.18479,-0.67403 -0.1305,-0.96426 0.0506,-0.27046 0.25269,-0.55186 0.37505,-0.79657 0.22137,-0.44274 0.41718,-0.91534 0.67261,-1.33928 0.1261,-0.20928 0.37949,-0.25927 0.59548,-0.3398 l 1.29965,-0.48763 c 1.09198,-0.40373 2.17923,-0.82036 3.27011,-1.22705 0.58063,-0.21648 1.26231,-0.37859 1.80109,-0.68442 0.39584,-0.2247 0.7183,-0.77766 1.0133,-1.12044 0.62449,-0.72561 1.24727,-1.45277 1.86977,-2.18007 0.3067,-0.35831 0.60076,-0.80336 0.97563,-1.09003 z"
       id="path1" /><path
       style="fill:#ffffff;stroke:#000000;stroke-width:16.9152"
       d="m 400.12146,921.30256 c -1.89993,-2.28927 -2.67774,-7.13238 -1.72842,-10.7625 1.207,-4.61556 -3.21257,-13.36886 -14.69767,-29.10995 -16.07635,-22.03377 -16.4095,-22.94638 -15.75509,-43.16055 0.63356,-19.57043 -0.11951,-21.91517 -14.39496,-44.81919 -13.35687,-21.43022 -14.82287,-25.55255 -12.93963,-36.3857 1.16813,-6.71951 5.56832,-17.58099 9.7782,-24.13664 4.20988,-6.55564 7.66429,-13.0291 7.67646,-14.38546 0.0122,-1.35636 -3.01405,-15.65059 -6.72492,-31.7649 -6.04493,-26.24992 -8.49117,-31.3924 -23.50762,-49.41752 l -16.76058,-20.11871 5.87507,-22.5098 5.87508,-22.50983 -8.76293,-7.17685 c -6.29393,-5.15474 -12.96972,-7.18133 -23.69358,-7.19274 -13.98544,-0.0149 -15.06401,-0.62301 -17.03704,-9.60618 -1.39156,-6.3357 -4.06454,-9.59031 -7.87643,-9.59031 -3.17353,0 -32.68878,3.6497 -65.58945,8.11044 l -59.8194,8.11045 -19.94132,-17.5075 C 103.49956,522.79717 97.65664,514.69204 85.250354,489.03052 l -14.905563,-30.8311 7.660534,-30.16824 c 8.424398,-33.17644 9.329139,-34.87126 35.214165,-65.96568 11.44895,-13.75306 23.5245,-24.37827 33.38421,-29.37456 12.27796,-6.22171 16.72779,-10.7861 21.68911,-22.24746 3.84133,-8.87405 11.62679,-18.55362 20.24338,-25.16839 13.86266,-10.64204 14.13046,-10.70219 27.01715,-6.06863 11.77386,4.23343 17.54574,4.02481 60.49456,-2.1866 26.11337,-3.77661 48.77047,-6.06829 50.34912,-5.09263 5.39903,3.33678 2.85404,9.38708 -6.61806,15.73338 -5.20848,3.48967 -8.44108,7.36131 -7.18355,8.60364 1.25754,1.24232 24.58389,11.72639 51.83636,23.29792 49.045,20.82474 49.59881,20.9721 54.34508,14.46042 2.63734,-3.6183 6.95298,-9.45948 9.59031,-12.9804 l 4.79516,-6.40168 18.88188,6.5142 c 13.74614,4.74238 27.00602,6.5142 48.75074,6.5142 h 29.86886 l 0.0873,19.97981 c 0.0815,18.65585 1.53538,22.58423 21.94017,59.28263 17.36188,31.22576 29.2335,47.48561 57.76691,79.12006 19.75271,21.89948 37.67934,39.81724 39.83693,39.81724 2.1576,0 14.24468,-3.51067 26.86022,-7.80149 l 22.9373,-7.80148 v 7.37001 c 0,4.05351 -5.85964,15.83582 -13.02143,26.18291 -7.16179,10.3471 -16.47014,23.8548 -20.68521,30.01712 -4.21507,6.16232 -13.8198,14.63191 -21.34384,18.82131 -12.32272,6.86136 -56.0787,57.22266 -64.40526,74.12779 -1.90445,3.86652 0.27054,13.60312 6.94051,31.06998 9.69375,25.38536 10.84357,44.22031 3.56762,58.44025 -1.4223,2.77975 -14.75037,12.51382 -29.61788,21.63129 l -27.03185,16.5772 4.58167,17.54519 c 5.51286,21.11096 2.7779,28.22099 -12.83794,33.37466 -9.06786,2.99269 -11.43615,5.81419 -14.302,17.03907 -2.82137,11.0506 -8.0541,17.44791 -29.30725,35.82988 -21.65955,18.73348 -28.31427,22.72219 -40.8668,24.49489 -24.33918,3.43727 -37.95969,2.95165 -41.64148,-1.48467 z"
       id="path2"
       transform="scale(0.26458333)" /><path
       style="fill:#ffffff;stroke:#000000;stroke-width:1.27981"
       d="m 635.27736,849.71224 c -2.24838,-2.35358 -4.6272,-5.28644 -4.95038,-6.10336 -0.28644,-0.72404 -0.29808,-1.21647 -0.0672,-2.84147 0.25568,-1.79908 0.65802,-6.44762 1.22094,-14.10631 0.16174,-2.20062 0.33244,-3.12991 0.67222,-3.65962 0.25048,-0.3905 2.48468,-2.8726 4.96489,-5.51579 5.25916,-5.60475 6.45622,-7.00868 6.66173,-7.81294 0.12031,-0.4708 -1.24241,-9.16126 -3.16258,-20.16869 l -0.24555,-1.40762 2.09935,-4.20684 c 1.62112,-3.24852 2.2521,-4.28472 2.76987,-4.54871 0.61954,-0.31588 19.03469,-7.20598 23.37914,-8.7474 2.1737,-0.77123 3.0047,-1.42408 5.08227,-3.99272 2.08231,-2.57449 9.27577,-11.03444 10.376,-12.2028 l 0.91907,-0.97598 -0.14663,3.1443 c -0.19774,4.24046 -0.55131,7.55682 -0.98556,9.24419 -0.19789,0.76892 -2.46413,5.64284 -5.0361,10.83094 -2.57197,5.18809 -7.54317,15.41914 -11.04712,22.73568 -3.50394,7.31654 -9.17411,18.93103 -12.60037,25.80998 -6.11152,12.27018 -7.32213,14.79964 -9.41002,19.6614 -0.64856,1.5102 -1.36472,2.74959 -1.90663,3.29966 -0.90004,0.91357 -1.17168,1.01797 -5.20122,1.99888 l -2.41031,0.58674 z"
       id="path3"
       transform="scale(0.26458333)" /></g></svg>
