<?xml version="1.0" encoding="UTF-8" standalone="no"?>
<!-- Created with Inkscape (http://www.inkscape.org/) -->

<svg
   width="210mm"
   height="297mm"
   viewBox="0 0 210 297"
   version="1.1"
   id="svg1"
   xml:space="preserve"
   inkscape:version="1.4 (e7c3feb1, 2024-10-09)"
   sodipodi:docname="Africa def.svg"
   xmlns:inkscape="http://www.inkscape.org/namespaces/inkscape"
   xmlns:sodipodi="http://sodipodi.sourceforge.net/DTD/sodipodi-0.dtd"
   xmlns="http://www.w3.org/2000/svg"
   xmlns:svg="http://www.w3.org/2000/svg"><sodipodi:namedview
     id="namedview1"
     pagecolor="#ffffff"
     bordercolor="#000000"
     borderopacity="0.25"
     inkscape:showpageshadow="2"
     inkscape:pageopacity="0.0"
     inkscape:pagecheckerboard="0"
     inkscape:deskcolor="#d1d1d1"
     inkscape:document-units="mm"
     inkscape:zoom="0.71725564"
     inkscape:cx="62.739137"
     inkscape:cy="725.68269"
     inkscape:window-width="1712"
     inkscape:window-height="1040"
     inkscape:window-x="0"
     inkscape:window-y="39"
     inkscape:window-maximized="0"
     inkscape:current-layer="layer1" /><defs
     id="defs1" /><g
     inkscape:label="Layer 1"
     inkscape:groupmode="layer"
     id="layer1"><path
       style="fill:#2e2e2e;stroke:none"
       d="M 103.66396,86.664848 87.133803,79.06991 c 1.425782,-1.981834 3.149142,-7.641729 -0.895594,-7.805556 -7.196646,-0.291497 -14.107433,2.415888 -20.995697,3.508576 -2.333245,0.370124 -4.596363,-1.389938 -6.694864,-1.041056 -1.546062,0.257029 -2.361986,1.941123 -3.363463,2.952893 -1.376897,1.391056 -3.219002,2.085426 -4.372471,3.733702 -1.240898,1.773206 -1.562382,4.027244 -2.903593,5.75273 -1.42842,1.837668 -3.639504,2.151224 -5.432841,3.46413 -3.530363,2.584569 -8.589835,8.784455 -9.659141,13.112921 -0.789147,3.1944 0.227027,6.94437 -0.282328,10.2755 -0.602823,3.94243 -2.785644,6.46154 -1.327187,10.71572 0.953771,2.78206 3.984576,5.44802 5.499027,8.04824 2.487937,4.27164 6.996034,10.20506 12.453464,10.62161 2.456081,0.18747 4.720611,-1.25836 7.148177,-1.39681 2.010363,-0.11466 3.76399,0.84421 5.807893,0.33126 2.939607,-0.73772 5.764653,-2.84401 8.935221,-2.30411 2.649685,0.4512 3.128697,3.23243 5.385265,4.09255 2.177619,0.83003 4.668808,-1.41012 6.407369,0.82182 2.509854,3.22211 -1.616495,8.16847 -0.759431,11.51202 0.687034,2.6802 3.512572,4.00884 4.893007,6.2612 2.587623,4.22204 4.095564,9.03291 4.801986,13.84304 0.546562,3.72164 -3.843798,8.31365 -3.725086,12.50931 0.109768,3.87924 3.628748,8.4724 5.15534,12.06255 1.273354,2.99459 0.910878,6.67242 1.934592,9.82874 0.852388,2.62811 2.803191,5.02724 3.94983,7.59494 1.264012,2.83054 0.617677,6.6348 3.278662,8.7053 2.29488,1.78562 4.60706,0.14302 7.09992,-0.009 9.18548,-0.55875 14.30434,-4.49649 19.20865,-12.28835 1.07296,-1.7047 0.72472,-4.0154 1.7998,-5.60347 1.07095,-1.58195 3.36875,-1.58419 4.37866,-3.36104 1.7364,-3.05504 -1.14335,-6.61173 0.45023,-9.25928 3.06543,-5.09284 10.82663,-5.55353 11.60647,-12.13804 0.28167,-2.3782 0.82383,-6.18581 0.33886,-8.4888 -0.70418,-3.34402 -2.82518,-7.17615 -2.37962,-10.72226 0.26245,-2.08878 2.46741,-5.27135 3.52583,-7.14646 5.8349,-10.3372 21.41101,-16.59255 20.42414,-30.81961 -0.36561,-5.27073 -10.52392,1.83297 -13.32836,0.95832 -1.85485,-0.57848 -2.5368,-2.72552 -3.68233,-4.09427 -1.80972,-2.16235 -4.05409,-3.65926 -6.10643,-5.52866 -4.01306,-3.65541 -5.18335,-9.63741 -7.68147,-14.12882 -1.81629,-3.26554 -4.64337,-6.307121 -5.99025,-9.828745 -1.11513,-2.9157 2.44235,-7.66244 -0.41987,-9.926295 -3.085,-2.440034 -7.80174,0.07886 -10.97529,0.224758 -6.48751,0.298245 -15.70909,-7.426176 -16.97692,2.55336 M 87.580564,73.262017 c -0.486286,1.496025 -1.859577,4.736842 -1.263755,6.207767 0.593423,1.464994 2.557996,2.126737 3.944321,2.508545 4.008347,1.10395 8.819032,5.87545 12.90918,5.812038 2.89608,-0.0449 1.27901,-4.811693 4.09393,-5.038468 2.95727,-0.238256 8.12335,1.781099 11.14284,2.458903 5.23831,1.17587 14.09593,-3.87157 12.06254,5.028134 L 127.3423,87.55837 c 0.41286,4.009138 3.64206,7.321111 5.60071,10.722265 4.79784,8.331365 7.88564,16.524815 14.95029,23.249505 2.09545,1.99461 4.01987,6.21409 6.70349,7.24503 3.78917,1.45564 9.02189,-2.45247 12.954,-2.79535 -1.11344,5.73824 -2.14761,11.81165 -6.53939,16.07685 -6.63604,6.44477 -12.8274,12.0956 -17.1748,20.55755 -1.99655,3.88616 1.15891,9.14973 1.94356,12.95607 0.44717,2.16925 -0.16554,7.2148 -0.76116,9.38165 -1.13737,4.13773 -8.16017,6.35545 -10.83464,9.84667 -1.97796,2.58199 0.46535,5.55735 -0.39642,8.46259 -0.70843,2.3883 -3.01316,2.1939 -4.49934,3.76955 -1.16335,1.23338 -0.74742,3.20664 -1.2703,4.72719 -2.89009,8.40445 -10.43322,12.34515 -18.54644,12.99778 -1.9693,0.15841 -4.35425,1.51268 -6.15262,0.13512 -1.84387,-1.41239 -1.41636,-4.43189 -2.21726,-6.43149 -1.248181,-3.11636 -3.413488,-5.8737 -4.539308,-8.94176 -1.064984,-2.90228 -0.85431,-5.99558 -1.574011,-8.92868 -1.022133,-4.16565 -5.278865,-8.31879 -5.495238,-12.50931 -0.214968,-4.16344 3.163744,-7.41265 3.945358,-11.16902 0.359039,-1.7255 -0.834827,-6.25032 -1.29615,-8.0417 -1.376318,-5.34443 -6.728383,-8.65263 -8.305081,-13.40283 -1.143557,-3.44528 2.446306,-7.97995 0.789085,-11.59648 -1.849952,-4.0371 -4.969521,-0.98999 -7.674915,-2.30723 -2.533475,-1.23354 -2.999038,-4.0377 -6.348075,-4.20288 -3.051045,-0.15047 -5.685855,1.56357 -8.48846,2.41686 -1.9029,0.57937 -3.471785,-0.31306 -5.361132,-0.27578 -3.215254,0.0635 -6.126318,1.9417 -9.381982,0.84078 -4.670949,-1.57952 -7.658745,-6.40784 -10.035579,-10.34065 -1.383857,-2.2898 -3.829502,-4.58536 -4.583091,-7.14818 -1.167969,-3.97204 0.73789,-5.70656 1.219288,-9.38198 0.429207,-3.27693 -0.683932,-7.70499 0.395742,-10.72226 1.448511,-4.048027 5.656665,-9.243532 9.000372,-11.875371 1.446315,-1.138403 3.385876,-1.363229 4.749937,-2.608169 2.156173,-1.967873 2.424962,-5.043036 4.153911,-7.260903 1.708771,-2.191976 4.383945,-3.799064 6.268446,-5.954746 4.425747,2.434649 7.629118,0.678649 12.062548,-0.542595 4.267639,-1.17557 12.719655,-2.414974 16.976919,-1.244449 M 162.77639,179.61217 c -1.82845,1.05214 -2.37495,3.7342 -3.86091,5.18809 -1.63796,1.60259 -4.41068,1.56331 -5.77618,3.38104 -1.44989,1.93005 -0.48244,4.83071 -1.01659,7.04648 -0.42794,1.77521 -1.7663,3.14963 -2.17072,4.91437 -0.88376,3.85645 0.51398,11.43647 5.96371,8.67945 2.59448,-1.31257 2.91726,-4.41403 3.75231,-6.8924 1.71058,-5.07689 5.97925,-10.3798 6.73348,-15.64318 0.24521,-1.71119 -0.74001,-8.33399 -3.6251,-6.67385 m 1.20031,1.31926 c 1.60303,7.01273 -2.61098,12.28339 -5.05536,18.76396 -1.50555,3.99154 -1.67135,7.75233 -6.56043,8.48846 -1.71216,-5.40122 0.58413,-7.92386 1.25618,-12.95607 0.25595,-1.91653 -0.45534,-4.4876 0.86249,-6.11436 0.98517,-1.2161 2.87612,-1.34715 4.13565,-2.21897 2.14715,-1.4862 3.47904,-3.60403 4.46795,-5.96302 z"
       id="path1"
       inkscape:label="Outline"
       sodipodi:nodetypes="ccssssssssssssssssssssssssscssssssssssscssssccsssssccssscssssssssssssssssssssscsssssssscsccsssssssccscssscc" /><path
       style="fill:#ffffff;stroke:#000000;stroke-width:2.88464"
       d="m 392.27445,850.58791 c -4.46941,-2.36349 -5.98055,-5.79458 -8.45778,-19.2036 -1.02993,-5.57494 -3.11922,-10.3583 -9.33119,-21.36344 -5.80108,-10.27724 -9.31429,-17.81961 -10.54898,-22.64721 -0.57772,-2.25885 -1.69144,-9.1066 -2.47493,-15.21723 -0.78349,-6.11063 -1.79988,-12.58217 -2.25864,-14.38121 -1.07632,-4.22084 -4.98738,-12.42633 -10.15378,-21.30284 -8.36727,-14.37598 -10.39559,-19.69391 -10.38075,-27.21658 0.0126,-6.39208 1.77208,-11.71099 7.96731,-24.08525 5.27921,-10.54463 6.90273,-15.24921 6.89979,-19.99401 -0.005,-7.89163 -4.36745,-26.95173 -7.89444,-34.49091 -2.93889,-6.28209 -4.89719,-9.15066 -14.57181,-21.34525 -8.1797,-10.31026 -11.66565,-15.74003 -13.58171,-21.15508 -1.64974,-4.66239 -1.17678,-10.61454 1.7292,-21.76195 3.78779,-14.53005 3.10554,-22.24882 -2.45835,-27.81271 -3.25645,-3.25644 -5.95729,-3.82251 -14.09142,-2.95343 -9.8975,1.05749 -12.18334,0.13682 -20.29514,-8.17427 -5.66074,-5.79982 -9.33058,-7.93851 -14.56129,-8.48596 -6.15152,-0.64382 -11.81887,0.76897 -27.39408,6.82896 -7.38649,2.87393 -10.03905,3.13277 -19.16082,1.8698 -6.83991,-0.94704 -7.44395,-0.95017 -12.54801,-0.0651 -2.94921,0.51143 -7.93808,1.53461 -11.08639,2.27373 -9.52296,2.23568 -16.24769,1.71944 -23.16939,-1.77867 -10.45155,-5.28203 -18.76802,-14.16393 -29.99736,-32.03685 -3.02888,-4.82085 -7.75154,-11.72289 -10.49481,-15.33787 -9.07633,-11.96049 -11.36493,-17.67856 -10.87559,-27.17275 0.2182,-4.23349 0.71763,-6.80354 2.23026,-11.47671 3.61995,-11.18364 3.75333,-12.35744 3.34284,-29.41824 -0.25985,-10.80042 -0.17995,-16.30464 0.27303,-18.80809 2.14042,-11.82925 12.0361,-27.36123 26.94804,-42.29686 l 8.21551,-8.22856 8.51582,-4.15167 c 10.31681,-5.02969 12.20971,-6.83388 16.38144,-15.61371 7.46328,-15.7072 7.53509,-15.83199 11.5403,-20.0539 2.14743,-2.26362 6.48032,-6.33043 9.62863,-9.03735 3.14831,-2.70691 6.95459,-6.10341 8.4584,-7.54777 l 2.73419,-2.62611 4.18668,1.6257 c 9.65171,3.74777 15.98749,3.43465 33.22769,-1.64215 19.05417,-5.61096 33.75046,-8.09492 50.66335,-8.5631 9.9649,-0.27584 19.17045,0.27867 20.74108,1.24937 0.19694,0.12172 -0.58491,3.11268 -1.73744,6.64658 -5.54461,17.00084 -3.82428,21.00145 11.20204,26.05028 7.28697,2.44841 10.10662,3.83466 21.01979,10.33416 14.29809,8.51543 20.3822,11.20746 26.9778,11.93681 5.69696,0.62998 8.56026,-1.81398 10.29106,-8.78389 1.27038,-5.11583 2.86361,-8.2217 4.70632,-9.1746 3.94682,-2.04099 12.83698,-0.6844 32.44474,4.95087 15.57648,4.47669 17.89403,4.68234 33.49031,2.9718 12.60882,-1.38289 16.88058,-1.24243 20.3456,0.66899 3.53587,1.95049 4.94884,5.00428 4.84489,10.47101 -0.046,2.41679 -0.274,5.04981 -0.50677,5.85116 -0.42277,1.45546 -0.42919,1.45188 -6.11009,-3.40726 -3.12779,-2.67535 -5.79636,-4.86426 -5.93017,-4.86426 -0.48646,0 0.50363,4.73234 1.83581,8.77459 1.6589,5.03366 5.27572,11.44787 11.95941,21.20932 6.11751,8.93454 8.98714,13.91227 20.58811,35.71249 11.13846,20.93111 13.93024,25.80068 20.31308,35.43116 6.1898,9.3392 12.33271,17.00752 20.54487,25.6465 3.43279,3.61122 8.71286,9.86695 11.73348,13.90163 9.49349,12.68057 13.81104,16.0774 21.22533,16.69898 5.1711,0.43353 11.08473,-0.84067 21.17195,-4.56189 16.35618,-6.03386 22.07907,-7.63748 22.07907,-6.18681 0,1.29961 -3.4342,17.2164 -4.89823,22.70225 -3.07308,11.51517 -7.21091,20.92306 -12.49262,28.40366 -1.6545,2.3433 -10.54199,11.68641 -22.03952,23.16939 -18.58478,18.56126 -26.11202,26.88569 -34.36195,38.00116 -5.01755,6.76034 -11.37847,16.92897 -14.72804,23.54442 -2.45184,4.84239 -2.67025,5.60321 -2.93338,10.21802 -0.40349,7.07672 0.50517,11.67811 5.12347,25.94474 2.22573,6.87563 4.31683,14.3168 4.64688,16.53595 0.96626,6.4966 -0.75057,24.32163 -3.16121,32.82146 -1.98283,6.99139 -6.85032,11.87527 -22.32383,22.39898 -11.50611,7.82544 -17.41064,12.84356 -19.69126,16.73516 -2.01704,3.44182 -2.25437,8.78281 -0.75513,16.99395 1.36097,7.45383 1.40199,9.30955 0.28871,13.05838 -1.19371,4.01967 -3.78839,6.6224 -9.58809,9.61783 -5.69985,2.94385 -8.67063,5.64862 -9.59579,8.73652 -0.35914,1.19869 -0.99797,4.62732 -1.41963,7.61918 -0.89143,6.32519 -3.04517,12.26221 -6.75196,18.61258 -7.0175,12.02216 -16.13797,20.56321 -28.89066,27.05516 -9.98155,5.0813 -19.28418,7.81054 -32.03935,9.39985 -3.8979,0.48574 -9.04969,1.35326 -11.4484,1.92786 -6.00379,1.43824 -10.38371,1.38062 -13.3261,-0.17533 z"
       id="path2"
       transform="scale(0.26458333)"
       inkscape:label="Fill TRACE" /><path
       style="fill:#ffffff;stroke:#000000;stroke-width:2.88464"
       d=""
       id="path3"
       transform="scale(0.26458333)"
       inkscape:label="Fill TRACE" /><path
       style="fill:#ffffff;stroke:#000000;stroke-width:1.5645"
       d="m 575.2751,784.36131 c -1.28953,-4.80778 -1.59918,-7.60303 -1.43517,-12.95523 0.1778,-5.80218 0.4654,-7.34191 3.30268,-17.68154 3.31937,-12.09646 3.44356,-12.87634 3.70561,-23.26892 0.23687,-9.39442 0.39517,-10.60926 1.746,-13.39971 1.57893,-3.26163 3.64486,-4.76854 10.14016,-7.39634 5.44736,-2.20384 6.59227,-2.85322 9.93006,-5.63222 4.65166,-3.87292 9.45517,-10.481 12.5015,-17.19805 l 1.27894,-2.82003 1.63981,0.0869 1.63981,0.0869 0.35609,1.92187 c 1.55865,8.41221 0.9193,17.66035 -1.85323,26.8072 -1.91859,6.32961 -3.95363,11.2383 -10.39892,25.08309 -5.16262,11.08956 -7.0402,15.74122 -10.25584,25.40862 -2.80504,8.43301 -4.38696,11.97344 -6.74223,15.08958 -3.13516,4.14796 -8.11336,7.04271 -13.71648,7.97593 l -1.21892,0.20302 z"
       id="path6"
       transform="scale(0.26458333)" /></g></svg>
