<?xml version="1.0" encoding="UTF-8" standalone="no"?>
<!-- Created with Inkscape (http://www.inkscape.org/) -->

<svg
   width="210mm"
   height="297mm"
   viewBox="0 0 210 297"
   version="1.1"
   id="svg1"
   xml:space="preserve"
   inkscape:version="1.4 (e7c3feb1, 2024-10-09)"
   sodipodi:docname="Canada.svg"
   xmlns:inkscape="http://www.inkscape.org/namespaces/inkscape"
   xmlns:sodipodi="http://sodipodi.sourceforge.net/DTD/sodipodi-0.dtd"
   xmlns="http://www.w3.org/2000/svg"
   xmlns:svg="http://www.w3.org/2000/svg"><sodipodi:namedview
     id="namedview1"
     pagecolor="#ffffff"
     bordercolor="#000000"
     borderopacity="0.25"
     inkscape:showpageshadow="2"
     inkscape:pageopacity="0.0"
     inkscape:pagecheckerboard="0"
     inkscape:deskcolor="#d1d1d1"
     inkscape:document-units="mm"
     inkscape:zoom="0.82884258"
     inkscape:cx="378.84154"
     inkscape:cy="637.63616"
     inkscape:window-width="1712"
     inkscape:window-height="1040"
     inkscape:window-x="0"
     inkscape:window-y="39"
     inkscape:window-maximized="0"
     inkscape:current-layer="layer1" /><defs
     id="defs1" /><g
     inkscape:label="Layer 1"
     inkscape:groupmode="layer"
     id="layer1"><path
       style="fill:#000000;stroke-width:1.3071"
       d="m 124.29173,241.63841 c 0,-0.53018 0.36997,-1.29879 0.82215,-1.70801 0.53615,-0.48521 0.82216,-1.2661 0.82216,-2.24477 0,-0.96678 0.37411,-2.00447 1.05151,-2.91658 0.99587,-1.34094 1.0368,-1.59532 0.77353,-4.80723 -0.26937,-3.28632 -0.2505,-3.39137 0.60943,-3.39137 0.48808,0 1.4326,0.40307 2.09895,0.89572 0.66633,0.49264 1.31945,0.78778 1.45138,0.65585 0.13193,-0.13193 -0.28201,-0.8223 -0.91986,-1.53416 -0.70329,-0.78489 -1.80689,-1.44363 -2.80404,-1.67373 -0.90435,-0.20869 -3.14546,-0.38386 -4.98023,-0.38926 -2.66417,-0.008 -3.53922,-0.16971 -4.34548,-0.80392 -0.61734,-0.48559 -1.30299,-1.76325 -1.76483,-3.2886 -0.5955,-1.96679 -0.92889,-2.49449 -1.57599,-2.49449 -0.45139,0 -1.51078,-0.72543 -2.35422,-1.61205 -1.16252,-1.22207 -1.96805,-1.67721 -3.32983,-1.88142 -1.67684,-0.25146 -1.86041,-0.18272 -2.7594,1.03323 -0.52967,0.71642 -1.6127,1.57404 -2.40671,1.90579 -1.12927,0.47184 -1.86815,0.51218 -3.3929,0.18518 -1.07207,-0.22992 -3.385212,-1.07244 -5.140312,-1.87227 -1.75508,-0.79981 -4.1399,-1.73598 -5.29957,-2.08037 -1.15968,-0.34438 -5.71688,-1.09029 -10.12711,-1.65756 -4.410243,-0.56727 -9.775967,-1.32308 -11.923837,-1.67956 -2.14787,-0.3565 -6.032534,-1.28963 -8.632587,-2.07361 -2.600053,-0.784 -7.224652,-2.35576 -10.276887,-3.49279 -3.052236,-1.13704 -8.601757,-3.33237 -12.332268,-4.87853 -3.730509,-1.54614 -9.908019,-4.19543 -13.727799,-5.88729 -3.819779,-1.69186 -7.276336,-3.41415 -7.681237,-3.82731 -0.404901,-0.41315 -1.568411,-3.2074 -2.585578,-6.20943 -1.04846,-3.09439 -2.306107,-6.00102 -2.90396,-6.71152 -0.580008,-0.6893 -1.0545624,-1.60531 -1.0545624,-2.03557 0,-0.43026 0.272622,-1.47972 0.6058284,-2.33215 0.333205,-0.85241 0.771542,-3.87093 0.974081,-6.70781 0.241485,-3.38237 0.604327,-5.61448 1.054028,-6.48409 0.377176,-0.72939 1.385513,-1.98513 2.24075,-2.79054 1.554975,-1.46438 1.554975,-1.46438 0.601059,-3.34861 -0.524652,-1.03632 -0.953915,-2.28574 -0.953915,-2.77648 0,-0.49075 0.345765,-2.26299 0.768367,-3.93833 0.422602,-1.67532 0.896224,-4.84964 1.052492,-7.05404 0.284125,-4.00798 0.284125,-4.00798 -1.772746,-4.00798 -1.659511,0 -2.180497,-0.1765 -2.696794,-0.91363 -0.351959,-0.50248 -0.638784,-1.38116 -0.637391,-1.9526 0.0014,-0.57145 0.278869,-1.56883 0.616613,-2.21644 0.337745,-0.64759 0.614082,-1.33288 0.614082,-1.52284 0,-0.18997 -0.462461,-0.80786 -1.02769,-1.3731 -0.565229,-0.56523 -1.027688,-1.39202 -1.027688,-1.83734 0,-0.52579 4.84295,-5.46843 13.813689,-14.09803 10.86465,-10.45147 14.040458,-13.288348 14.875905,-13.288348 0.97944,0 1.122163,0.24024 1.831477,3.083058 0.423093,1.69569 1.096784,3.41639 1.497091,3.82377 0.436566,0.44429 1.784003,0.89337 3.367078,1.12219 1.451585,0.20982 3.877574,0.38522 5.391084,0.38975 2.258504,0.007 2.941762,0.17408 3.811249,0.93319 0.822148,0.71777 1.12649,1.4773 1.358919,3.39137 0.299506,2.46645 0.299506,2.46645 2.532335,2.67199 2.232831,0.20555 2.232831,0.20555 3.649361,3.00868 1.291021,2.55477 1.612376,2.88975 3.626889,3.78066 1.568109,0.6935 2.335876,1.30767 2.642339,2.11373 0.23759,0.6249 0.330841,1.53917 0.207224,2.0317 -0.134976,0.53779 -0.677754,1.01057 -1.358793,1.18355 -1.134037,0.28805 -1.134037,0.28805 0.304728,1.0261 0.791321,0.40592 2.548669,0.96492 3.905218,1.24221 1.356549,0.27727 2.775744,0.66721 3.153766,0.8665 0.553358,0.29172 0.741114,0.11738 0.963365,-0.89451 0.16379,-0.74573 0.666021,-1.43454 1.234985,-1.69377 0.52741,-0.24031 1.43468,-0.31751 2.01615,-0.17157 0.60265,0.15125 1.53131,0.98172 2.15981,1.93146 0.60643,0.91637 1.76397,2.00354 2.57232,2.41593 0.80834,0.41238 2.2826,0.96868 3.27611,1.23621 0.99352,0.26752 2.81909,0.93426 4.05682,1.48165 1.23774,0.54739 2.41241,0.99526 2.61037,0.99526 0.19796,0 0.35992,-0.25954 0.35992,-0.57675 0,-0.31721 0.67532,-1.1185 1.5007,-1.78064 1.23538,-0.99106 1.45466,-1.38732 1.2403,-2.24139 -0.14322,-0.57063 -0.91103,-1.74782 -1.70624,-2.61599 -1.09138,-1.19151 -1.44437,-1.93672 -1.43986,-3.03969 0.003,-0.80366 0.29509,-2.29362 0.64844,-3.31105 0.35336,-1.01741 0.93429,-2.17355 1.29097,-2.56921 0.36762,-0.4078 1.23396,-0.71939 2.00023,-0.71939 0.93385,0 1.55408,0.28595 2.0062,0.92493 0.35995,0.5087 1.030652,2.2198 1.490452,3.80244 0.4598,1.58264 1.11601,3.66372 1.45825,4.62461 0.58623,1.64598 0.714,1.74707 2.20827,1.74707 0.87233,0 1.7357,0.23123 1.91862,0.51384 0.18291,0.28262 0.42505,1.80873 0.5381,3.39138 0.20553,2.87752 0.20553,2.87752 1.00092,1.70324 0.57985,-0.8561 0.84491,-2.11814 0.97819,-4.65769 0.16682,-3.17815 0.26813,-3.52227 1.15603,-3.92683 0.70357,-0.32057 1.40059,-0.31316 2.51594,0.0268 0.8485,0.25859 2.14393,0.84026 2.87873,1.29261 1.04016,0.64034 1.33601,1.10287 1.33601,2.08875 0,0.69646 -0.18617,1.61415 -0.4137,2.0393 -0.32018,0.59825 -0.18077,1.11625 0.61661,2.29126 0.56667,0.83503 1.03031,1.92734 1.03031,2.42734 0,0.50001 -0.47797,1.81533 -1.06214,2.92293 -0.58418,1.10761 -1.54371,2.52255 -2.13229,3.1443 -0.58857,0.62175 -1.43718,1.13046 -1.88579,1.13046 -0.4486,0 -1.12492,-0.2799 -1.50292,-0.62198 -0.62708,-0.56751 -0.74627,-0.47185 -1.36056,1.09202 -0.67329,1.71399 -0.67329,1.71399 0.27033,0.82751 0.51899,-0.48756 1.3586,-0.88648 1.86581,-0.88648 0.50722,0 2.62261,1.12682 4.70088,2.50402 2.07826,1.37722 3.91213,2.85893 4.07524,3.2927 0.16312,0.43377 0.1196,1.25404 -0.0966,1.82282 -0.21625,0.56875 -0.69443,1.14971 -1.06261,1.29101 -0.36819,0.14128 -1.61959,-0.14725 -2.78093,-0.64116 -1.93014,-0.8209 -2.14681,-0.84005 -2.52257,-0.22289 -0.22609,0.37133 -0.74823,1.11757 -1.16029,1.65831 -0.55882,0.7333 -1.14674,0.98316 -2.31335,0.98316 -0.8796,0 -1.78516,-0.26632 -2.06916,-0.60851 -0.38969,-0.46953 -0.40117,-1.20483 -0.0503,-3.21951 0.25007,-1.43605 0.44579,-3.15079 0.43491,-3.81055 -0.0175,-1.06284 -0.16339,-0.91843 -1.27982,1.26689 -0.69304,1.35655 -1.56281,2.81571 -1.93284,3.24258 -0.37003,0.42686 -1.27398,1.03055 -2.00878,1.34151 -1.08196,0.45789 -1.33599,0.79835 -1.33599,1.79053 0,0.96879 -0.36555,1.48988 -1.74709,2.49045 -0.96089,0.69594 -2.427092,2.08807 -3.258222,3.09365 -0.83112,1.00557 -1.82388,2.76987 -2.20612,3.92067 -0.44958,1.35354 -0.62443,2.82663 -0.49517,4.17177 0.12875,1.3402 0.45882,2.26881 0.92842,2.61218 0.40075,0.29304 0.93362,0.60084 1.18417,0.68402 0.25727,0.0853 0.54501,1.56154 0.66108,3.39145 0.20555,3.24021 0.20555,3.24021 2.671992,3.27841 1.35655,0.021 2.87419,0.26082 3.3725,0.53294 0.49832,0.27211 2.0877,1.40046 3.53197,2.50743 1.44427,1.10697 3.45023,2.29253 4.45768,2.63457 1.00743,0.34203 3.21023,0.75234 4.89507,0.91181 1.68484,0.15945 3.65354,0.53026 4.37486,0.82401 1.01623,0.41385 1.3591,0.84193 1.52283,1.90131 0.1162,0.75195 0.28723,2.70436 0.38004,4.33868 0.13842,2.43776 0.36757,3.23215 1.27575,4.42285 0.60887,0.79826 1.82888,1.81963 2.71113,2.26973 0.88227,0.45011 1.87805,0.81836 2.21285,0.81836 0.3348,0 0.74129,-0.21451 0.90334,-0.47669 0.16204,-0.26219 0.26796,-1.15671 0.2354,-1.9878 -0.0325,-0.83111 -0.33525,-2.2935 -0.67263,-3.24974 -0.33738,-0.95623 -0.98735,-2.21399 -1.44437,-2.795 -0.51192,-0.65081 -0.83096,-1.67316 -0.83096,-2.66285 0,-1.34935 0.31253,-1.94072 1.95262,-3.6948 1.82211,-1.94876 1.9503,-2.22918 1.91817,-4.19592 -0.0233,-1.4246 -0.44239,-2.99469 -1.2933,-4.84504 -0.69237,-1.50558 -1.63361,-2.938 -2.09165,-3.18313 -0.45803,-0.24514 -1.1247,-0.73761 -1.48147,-1.09437 -0.35676,-0.35678 -0.64866,-0.97758 -0.64866,-1.3796 0,-0.40201 0.53603,-1.52907 1.19119,-2.50456 1.11584,-1.66147 1.1578,-1.86823 0.66343,-3.26942 -0.29026,-0.82268 -1.10376,-2.63688 -1.80779,-4.03156 -0.70403,-1.39468 -1.28006,-2.88607 -1.28006,-3.31421 0,-0.42814 0.38339,-1.26585 0.85199,-1.86156 0.7158,-0.91001 1.17787,-1.08313 2.89073,-1.08313 1.12131,0 2.70284,-0.27747 3.51451,-0.61662 0.81166,-0.33914 1.81697,-0.61661 2.23398,-0.61661 0.41704,0 1.7004,0.83677 2.85192,1.8595 1.96304,1.74345 2.22948,1.85505 4.26983,1.78838 1.19688,-0.0391 2.38821,0.06 2.64741,0.22014 0.25918,0.1602 0.47126,0.63082 0.47126,1.04585 0,0.41502 0.3774,1.97647 0.83866,3.46987 0.73991,2.39556 0.9593,2.7153 1.86304,2.7153 0.56342,0 1.65489,0.26343 2.4255,0.58543 1.24018,0.51817 1.46294,0.51082 1.9394,-0.0639 0.36206,-0.43676 0.50863,-1.69951 0.44771,-3.85684 -0.0687,-2.43287 0.0625,-3.36055 0.54321,-3.84128 0.34859,-0.34859 0.9105,-0.63378 1.24868,-0.63378 0.3382,0 1.36089,0.6012 2.27268,1.33598 0.91177,0.73481 3.00238,2.48376 4.64582,3.88657 1.64343,1.40282 3.77682,3.49267 4.74086,4.64411 0.96405,1.15144 2.51442,2.48667 3.44527,2.96716 1.17888,0.60851 2.71809,0.92991 5.0723,1.05912 2.65069,0.14549 3.42587,0.32972 3.59319,0.85394 0.16786,0.5259 0.80584,0.67502 2.99184,0.69924 1.52816,0.017 3.19494,0.2548 3.70395,0.5286 0.50901,0.2738 1.41252,1.45895 2.0078,2.63368 0.59528,1.17472 1.10041,2.82574 1.12253,3.66891 0.0269,1.02471 0.15163,1.3339 0.3763,0.93243 0.18486,-0.33033 0.6771,-0.6006 1.09386,-0.6006 0.41676,0 0.87003,0.29261 1.00727,0.65025 0.13723,0.35762 0.24951,1.65251 0.24951,2.87752 0,1.90482 0.11176,2.2273 0.77182,2.2273 0.4245,0 0.99776,0.27224 1.27391,0.60498 0.43623,0.52562 0.75243,0.47171 2.41074,-0.41108 1.04976,-0.55883 2.40375,-1.01605 3.00886,-1.01605 0.81954,0 1.33326,0.37708 2.01378,1.47818 0.57028,0.92275 1.56347,1.75678 2.64317,2.21958 0.95127,0.40777 2.12762,1.24741 2.6141,1.86585 0.55225,0.70209 0.88449,1.71027 0.88449,2.68397 0,0.86963 -0.28576,1.84526 -0.64597,2.20548 -0.35529,0.35529 -1.13135,0.64597 -1.72458,0.64597 -0.61044,0 -1.57903,-0.47944 -2.23155,-1.10459 -1.15296,-1.10461 -1.15296,-1.10461 -1.15296,0.4381 0,0.84848 -0.19149,1.9005 -0.42554,2.33782 -0.24507,0.45792 -0.8578,0.79512 -1.4448,0.79512 -0.67757,0 -1.2584,-0.3907 -1.73261,-1.16547 -0.71334,-1.16548 -0.71334,-1.16548 -1.74103,-0.17472 -0.56523,0.5449 -2.08607,1.53183 -3.37965,2.19316 -1.29358,0.66133 -2.89115,1.20241 -3.55015,1.20241 -1.1982,0 -1.1982,0 -1.31164,-5.03567 -0.0624,-2.76962 -0.12966,-6.42305 -0.14952,-8.11874 -0.0199,-1.6957 0.12888,-3.54553 0.33044,-4.11076 0.30745,-0.86205 0.0868,-0.74857 -1.36904,0.70407 -1.26544,1.26266 -1.9435,2.41848 -2.50315,4.26688 -0.42217,1.39432 -1.19348,2.99116 -1.71402,3.54852 -0.52055,0.55736 -1.42823,1.26411 -2.01707,1.57056 -0.58884,0.30644 -3.06324,1.30563 -5.49867,2.22041 -2.43544,0.91479 -5.07456,2.06281 -5.8647,2.55116 -0.86124,0.53226 -2.40828,2.36762 -3.86262,4.58245 -1.33429,2.03201 -2.30777,3.80666 -2.16328,3.94368 0.14448,0.13701 0.65738,-0.30583 1.13978,-0.98411 0.4824,-0.67827 1.62021,-2.00068 2.52846,-2.93868 1.06716,-1.10211 2.27909,-1.87449 3.42577,-2.18326 0.97592,-0.26279 2.29469,-0.36352 2.93061,-0.22385 0.6359,0.13967 1.4991,0.63347 1.91821,1.09734 0.57608,0.6376 0.74208,1.39913 0.68034,3.121 -0.0485,1.35314 0.16351,2.75169 0.52232,3.44558 0.33219,0.64236 1.3401,1.54349 2.2398,2.00248 0.89971,0.459 1.63584,1.0802 1.63584,1.38046 0,0.30024 -0.69369,1.82261 -1.54153,3.38301 -1.2533,2.30662 -1.88742,3.01499 -3.39138,3.78847 -1.4414,0.74131 -2.25315,0.89947 -3.67641,0.71636 -1.04972,-0.13507 -2.23247,-0.61633 -2.78092,-1.13157 -0.52489,-0.49311 -1.34196,-1.95966 -1.81573,-3.25902 -0.47377,-1.29935 -1.14519,-2.47136 -1.49206,-2.60446 -0.34686,-0.13311 -0.95731,0.0536 -1.35653,0.41488 -0.46559,0.42136 -0.82447,1.56726 -1.00088,3.19575 -0.15124,1.39637 -0.46134,3.27879 -0.68908,4.18315 -0.22775,0.90437 -0.90675,2.16996 -1.5089,2.81241 -0.60216,0.64246 -1.74227,1.49558 -2.53359,1.89582 -0.79132,0.40025 -2.95162,1.22651 -4.80066,1.83614 -3.01739,0.99483 -3.55894,1.33906 -5.2849,3.35932 -1.05765,1.238 -2.61843,2.60568 -3.46837,3.0393 -0.84996,0.43361 -2.4058,1.00505 -3.45744,1.26985 -1.05165,0.26481 -2.01214,0.64337 -2.13445,0.84125 -0.12234,0.1979 0.0659,0.77126 0.41806,1.27414 0.35224,0.5029 0.64043,1.23889 0.64043,1.63555 0,0.39667 -0.41621,0.98213 -0.92492,1.30103 -0.50869,0.3189 -1.8929,0.80332 -3.07599,1.07647 -1.1831,0.27316 -2.84795,1.05063 -3.69969,1.72772 -0.85172,0.67708 -2.17237,1.49182 -2.93479,1.81053 -0.76241,0.3187 -1.91856,0.57947 -2.56922,0.57947 -0.96699,0 -1.18303,-0.17603 -1.18303,-0.96398 z m 7.19382,-4.2662 c 0.45219,-0.22892 1.78656,-0.64249 2.96528,-0.91903 2.12344,-0.49818 2.13732,-0.51164 1.51166,-1.46652 -0.3473,-0.53004 -0.57176,-1.4818 -0.49881,-2.115 0.12064,-1.04696 0.4657,-1.27058 3.80872,-2.46805 3.31932,-1.18901 3.91774,-1.57364 6.16613,-3.96333 2.28867,-2.43252 2.77262,-2.73731 5.98419,-3.76884 1.92178,-0.61725 4.2024,-1.57711 5.06804,-2.13302 0.86564,-0.55592 1.81875,-1.5997 2.11804,-2.31951 0.29927,-0.7198 0.66926,-2.41864 0.82218,-3.7752 0.15293,-1.35655 0.45334,-3.03901 0.6676,-3.7388 0.21425,-0.69979 0.80984,-1.49729 1.32355,-1.77221 0.51369,-0.27493 1.51979,-0.51652 2.2358,-0.53687 0.71599,-0.0204 1.58328,0.19659 1.92731,0.48211 0.34403,0.28551 1.02602,1.61761 1.51556,2.96018 0.48953,1.34259 1.27304,2.70931 1.74111,3.03717 0.46809,0.32786 1.28155,0.59611 1.8077,0.59611 0.52616,0 1.50144,-0.28172 2.16732,-0.62606 0.71957,-0.37211 1.62906,-1.45173 2.24209,-2.66147 1.03141,-2.03541 1.03141,-2.03541 -0.0148,-2.72086 -0.57537,-0.37699 -1.52369,-1.50034 -2.10736,-2.49631 -0.89702,-1.53066 -1.0206,-2.11725 -0.79856,-3.79097 0.19941,-1.50327 0.11359,-2.1038 -0.35619,-2.49371 -0.40641,-0.3373 -1.14256,-0.41535 -2.14457,-0.22737 -0.98403,0.1846 -2.04376,0.82775 -2.9848,1.81146 -0.80249,0.83887 -1.97567,2.2109 -2.60705,3.04896 -0.75931,1.00784 -1.47863,1.52375 -2.12453,1.52375 -0.5371,0 -1.26915,-0.11228 -1.62678,-0.24952 -0.4336,-0.16638 -0.65023,-0.76512 -0.65023,-1.7971 0,-1.16465 0.51948,-2.3489 2.09955,-4.78615 1.15476,-1.78123 2.49588,-3.67334 2.9803,-4.2047 0.48441,-0.53138 1.89816,-1.47666 3.14166,-2.10066 1.2435,-0.62398 3.5558,-1.55584 5.13844,-2.0708 1.58264,-0.51496 3.52498,-1.26109 4.3163,-1.65806 0.79132,-0.39698 1.77554,-1.09418 2.18715,-1.54932 0.41162,-0.45516 1.02679,-1.90846 1.36706,-3.22958 0.43972,-1.70726 1.0714,-2.87764 2.18389,-4.04633 0.86088,-0.90437 1.78213,-2.06763 2.04722,-2.585 0.40127,-0.78315 0.31457,-1.30644 -0.51766,-3.12427 -0.83798,-1.83038 -1.21569,-2.22676 -2.33522,-2.45067 -0.73454,-0.14692 -1.75222,-0.26711 -2.26151,-0.26711 -0.50928,0 -1.15625,0.27748 -1.43771,0.61662 -0.28145,0.33912 -1.03157,0.61661 -1.66693,0.61661 -0.79243,0 -1.23677,-0.25703 -1.41497,-0.81848 -0.14287,-0.45016 -0.16065,-0.97885 -0.0395,-1.17488 0.12117,-0.19603 -0.98167,-0.46866 -2.45073,-0.60584 -1.46903,-0.13718 -3.52935,-0.62912 -4.57847,-1.0932 -1.23928,-0.54818 -3.21558,-2.18082 -5.6415,-4.66047 -2.05369,-2.09919 -4.87609,-4.68574 -6.27199,-5.74789 -1.3959,-1.06215 -2.63162,-1.93119 -2.74606,-1.93119 -0.1145,0 -0.0336,0.6012 0.17971,1.336 0.21328,0.73479 0.27154,2.12434 0.12941,3.08789 -0.14209,0.96353 -0.63369,2.22905 -1.09244,2.81227 -0.69826,0.88769 -1.07549,1.02594 -2.31629,0.84885 -0.8152,-0.11633 -2.35318,-0.3414 -3.41772,-0.50013 -1.06454,-0.15872 -2.19307,-0.58913 -2.50783,-0.95644 -0.31475,-0.36732 -0.8774,-1.62752 -1.2503,-2.80046 -0.3729,-1.17294 -0.67801,-2.61294 -0.67801,-3.2 0,-1.033 -0.0629,-1.05964 -1.9526,-0.82733 -1.49249,0.18348 -2.20937,0.0657 -3.04221,-0.49968 -0.59928,-0.40686 -1.7159,-1.24024 -2.48136,-1.85197 -1.33842,-1.0696 -1.45419,-1.08998 -3.02115,-0.53188 -0.89617,0.31919 -2.42139,0.58845 -3.38937,0.59838 -1.07464,0.0105 -1.842,0.23177 -1.97059,0.5669 -0.11581,0.30187 0.5374,2.09568 1.45167,3.98624 1.00019,2.06828 1.66228,4.02823 1.66228,4.9208 0,0.94079 -0.37975,1.99814 -1.03815,2.89055 -1.03816,1.40712 -1.03816,1.40712 0.38142,2.64908 0.78076,0.68308 1.78588,1.98746 2.2336,2.89863 0.44773,0.91117 1.12363,2.72158 1.502,4.02314 0.45251,1.55658 0.59251,2.93138 0.40907,4.01714 -0.19396,1.14806 -0.89261,2.35202 -2.29449,3.95402 -1.10858,1.26684 -2.01561,2.42362 -2.01561,2.57061 0,0.14699 0.46833,0.90203 1.04073,1.67788 0.57241,0.77584 1.31233,2.32523 1.6443,3.44308 0.33196,1.11784 0.60358,2.98093 0.60358,4.14019 0,1.17194 -0.25913,2.46201 -0.58366,2.90568 -0.43217,0.59083 -1.04571,0.78777 -2.36369,0.75876 -0.97902,-0.0216 -2.53748,-0.42688 -3.46324,-0.90071 -0.92577,-0.47383 -2.24846,-1.50526 -2.93928,-2.29207 -0.7722,-0.87949 -1.43022,-2.24264 -1.70815,-3.53861 -0.24865,-1.15939 -0.4521,-3.09367 -0.4521,-4.29836 0,-1.25656 -0.21906,-2.36753 -0.51384,-2.60596 -0.28262,-0.2286 -1.71624,-0.54135 -3.18584,-0.695 -1.4696,-0.15366 -3.75587,-0.54558 -5.0806,-0.87095 -1.32474,-0.32536 -3.1183,-1.09892 -3.98568,-1.71902 -0.8674,-0.6201 -2.46579,-1.77061 -3.55199,-2.55669 -1.69582,-1.22727 -2.36838,-1.45174 -4.759242,-1.58846 -2.25739,-0.12914 -2.89921,-0.32325 -3.39138,-1.02592 -0.37713,-0.53845 -0.60704,-1.83351 -0.60704,-3.41951 0,-2.14344 -0.1247,-2.59241 -0.77795,-2.79973 -0.42787,-0.1358 -1.02907,-0.84196 -1.33599,-1.56923 -0.30694,-0.72729 -0.5464,-2.61721 -0.53214,-4.19985 0.0183,-2.03785 0.29056,-3.46775 0.93279,-4.90017 0.49877,-1.11245 1.5508,-2.80848 2.33785,-3.76898 0.78706,-0.9605 2.0963,-2.15753 2.90944,-2.66007 1.303302,-0.80548 1.449192,-1.05989 1.231632,-2.14769 -0.13748,-0.68744 -0.0417,-1.48102 0.21611,-1.79175 0.2546,-0.30676 0.86155,-0.55775 1.3488,-0.55775 0.48724,0 1.3141,-0.29993 1.83746,-0.66651 0.52337,-0.36659 1.76693,-2.34174 2.76346,-4.38923 1.28821,-2.64676 1.81188,-4.2363 1.81188,-5.49962 0,-1.49238 0.12941,-1.77691 0.80786,-1.77691 0.44431,0 1.45052,0.56428 2.23602,1.25396 1.42819,1.25396 1.42819,1.25396 2.89183,-0.91943 0.80501,-1.19537 1.46366,-2.4434 1.46366,-2.77341 0,-0.32999 -0.49551,-1.31501 -1.10113,-2.18893 -0.99165,-1.43095 -1.05295,-1.72212 -0.61661,-2.92879 0.26647,-0.73695 0.48451,-1.5299 0.48451,-1.76212 0,-0.23223 -0.75399,-0.76224 -1.67552,-1.17779 -1.43432,-0.64678 -1.72931,-0.67057 -2.04909,-0.16519 -0.20545,0.32469 -0.3764,1.75866 -0.37985,3.18659 -0.004,1.42794 -0.2144,3.0003 -0.46874,3.49415 -0.25435,0.49384 -0.84155,1.31411 -1.30489,1.82281 -0.46333,0.50871 -1.23566,0.92492 -1.71625,0.92492 -0.4806,0 -1.0958,-0.22198 -1.36711,-0.49329 -0.27131,-0.2713 -0.49581,-1.33497 -0.4989,-2.36369 -0.003,-1.02871 -0.11711,-2.2866 -0.25348,-2.79531 -0.19407,-0.72415 -0.54471,-0.92492 -1.61539,-0.92492 -0.9504,0 -1.56691,-0.2821 -2.02125,-0.92492 -0.35956,-0.5087 -1.12148,-2.49729 -1.693182,-4.41905 -0.57169,-1.92178 -1.2389,-4.01142 -1.4827,-4.64363 -0.26064,-0.67591 -0.69983,-1.0993 -1.06604,-1.02768 -0.34254,0.0669 -0.96003,1.11442 -1.37221,2.32765 -0.74942,2.20586 -0.74942,2.20586 0.68926,3.88663 0.79127,0.92442 1.64399,2.36606 1.89493,3.20364 0.25095,0.83759 0.33684,1.99873 0.19086,2.58034 -0.14876,0.5927 -0.80478,1.33637 -1.49267,1.69209 -0.83453,0.43156 -1.22726,0.94403 -1.22726,1.60145 0,0.53173 -0.27686,1.19656 -0.61524,1.47739 -0.49317,0.4093 -0.9621,0.38672 -2.36368,-0.11384 -0.96165,-0.34342 -3.69079,-1.34019 -6.06475,-2.21505 -2.37396,-0.87485 -4.73521,-1.82637 -5.24721,-2.11446 -0.51201,-0.28809 -1.40064,-1.26789 -1.97474,-2.17732 -0.5741,-0.90943 -1.25234,-1.58399 -1.50721,-1.49903 -0.25487,0.085 -0.67647,0.79073 -0.93689,1.5684 -0.36362,1.08589 -0.73363,1.44469 -1.594707,1.54642 -0.616674,0.0728 -1.342882,-0.0515 -1.613796,-0.27632 -0.270915,-0.22483 -1.693354,-0.68746 -3.160978,-1.02805 -1.467622,-0.34059 -3.169723,-0.81005 -3.782447,-1.04325 -0.612723,-0.2332 -1.491397,-0.80136 -1.952608,-1.26257 -0.461213,-0.46121 -0.838567,-1.21715 -0.838567,-1.67983 0,-0.50436 0.492843,-1.12172 1.230627,-1.54155 0.676845,-0.38514 1.231797,-0.83215 1.233227,-0.99336 0.0014,-0.16122 -1.06106,-0.80866 -2.361085,-1.43876 -2.122926,-1.02897 -2.507968,-1.42322 -3.780198,-3.8705 -1.397497,-2.68827 -1.436213,-2.72222 -2.883885,-2.52803 -1.03867,0.13931 -1.742048,-0.0256 -2.407546,-0.5645 -0.683655,-0.55358 -1.02824,-1.41026 -1.26294,-3.13978 -0.177522,-1.30816 -0.53084,-2.58654 -0.785153,-2.84085 -0.258149,-0.25814 -2.693472,-0.58284 -5.513451,-0.73509 -2.778085,-0.14999 -5.45293,-0.48872 -5.944102,-0.75272 -0.491173,-0.26401 -1.266573,-0.95489 -1.723113,-1.5353 -0.45654,-0.58039 -1.041162,-2.07207 -1.299162,-3.31485 -0.469089,-2.2596 -0.469089,-2.2596 -5.275371,2.38866 -2.643455,2.55654 -8.540965,8.24039 -13.105575,12.6308 -8.299293,7.98254 -8.299293,7.98254 -7.286391,8.92126 0.558913,0.51798 1.012901,1.40189 1.012901,1.9721 0,0.56836 -0.303718,1.67027 -0.674931,2.44871 -0.371212,0.77845 -0.558611,1.71848 -0.416443,2.08896 0.20003,0.52127 0.577006,0.61386 1.666882,0.4094 0.774617,-0.14532 1.777355,-0.14711 2.228307,-0.004 0.450953,0.14313 0.928554,0.54334 1.061334,0.88936 0.132782,0.34602 0.05085,2.88251 -0.182079,5.63664 -0.232924,2.75413 -0.694443,6.0861 -1.025596,7.40439 -0.331153,1.31829 -0.602096,2.72611 -0.602096,3.12847 0,0.40238 0.46246,1.41306 1.027689,2.24597 0.565229,0.83291 1.027689,1.79472 1.027689,2.13735 0,0.34263 -0.914537,1.58996 -2.032306,2.77183 -1.117769,1.18188 -2.230649,2.67055 -2.473068,3.30816 -0.242419,0.63761 -0.546762,3.128 -0.676318,5.53419 -0.12956,2.4062 -0.51186,5.25493 -0.849566,6.3305 -0.599353,1.90892 -0.589596,1.9846 0.408838,3.17118 0.562567,0.66857 1.713098,3.30326 2.556736,5.85484 0.843638,2.55159 1.777621,5.12248 2.07552,5.71308 0.440534,0.87339 2.520902,1.93785 11.145556,5.70277 5.832158,2.54591 13.563666,5.7853 17.181131,7.19865 3.617465,1.41333 8.519541,3.23226 10.893503,4.04205 2.373961,0.80979 6.166133,1.93155 8.427048,2.49279 2.260916,0.56125 7.902927,1.50441 12.5378,2.09594 4.63488,0.59152 9.90428,1.35737 11.70978,1.70191 1.80549,0.34453 5.1918,1.4577 7.52513,2.47369 2.33332,1.01602 4.885762,1.95168 5.672102,2.07929 1.30324,0.21149 1.58909,0.0584 3.23209,-1.73118 1.37257,-1.49502 2.07996,-1.9551 2.96638,-1.92923 0.64017,0.0187 1.85818,0.15726 2.70669,0.30795 1.12318,0.19948 1.88716,0.70889 2.8093,1.87319 0.83937,1.0598 1.59835,1.59918 2.25025,1.59918 0.57045,0 1.23262,0.38854 1.5763,0.92492 0.32595,0.50871 0.81075,1.75735 1.07735,2.77476 0.26661,1.01741 0.67428,2.08108 0.90595,2.36369 0.24447,0.29822 1.39196,0.51726 2.73456,0.52199 1.27235,0.004 3.60825,0.18988 5.19089,0.41201 2.57702,0.3617 3.03683,0.57203 4.40288,2.01397 0.83894,0.88555 1.65236,2.11616 1.80761,2.73468 0.15523,0.61851 0.0976,1.41967 -0.1281,1.78033 -0.22567,0.36066 -1.00493,0.71463 -1.73169,0.78657 -0.72676,0.0719 -1.55548,-0.0635 -1.84159,-0.30091 -0.4115,-0.3415 -0.48391,0.0177 -0.34656,1.71903 0.1469,1.8196 0.005,2.39674 -0.91741,3.7484 -0.62141,0.90995 -1.1283,2.26433 -1.17762,3.14651 -0.0865,1.54886 -0.0865,1.54886 1.36169,0.41444 0.79655,-0.62393 1.81823,-1.32173 2.27041,-1.55065 z m 61.97082,-43.94767 c 0.8485,-0.76144 1.90167,-1.38444 2.34038,-1.38444 0.43871,0 1.07542,0.39656 1.41492,0.88126 0.61725,0.88125 0.61725,0.88125 0.83314,-0.10274 0.11869,-0.54121 0.26768,-1.44648 0.33097,-2.01171 0.0812,-0.72508 0.40136,-1.06819 1.08732,-1.16524 0.6625,-0.0937 1.41573,0.29231 2.36448,1.21186 0.85704,0.83069 1.53347,1.19962 1.75958,0.95972 0.20748,-0.22013 0.2156,-0.78493 0.0187,-1.29786 -0.19176,-0.49947 -1.26416,-1.37205 -2.3831,-1.93906 -1.11895,-0.56702 -2.48707,-1.60929 -3.04029,-2.31616 -1.00585,-1.28524 -1.00585,-1.28524 -3.10979,-0.21909 -1.15718,0.58638 -2.48587,1.06616 -2.95266,1.06616 -0.46681,0 -0.95521,-0.27749 -1.08534,-0.61662 -0.13356,-0.34805 -0.74571,-0.61661 -1.40544,-0.61661 -0.66396,0 -1.36743,-0.31074 -1.62861,-0.71939 -0.38965,-0.60965 -0.4212,-0.56262 -0.20688,0.30831 0.13911,0.56523 0.3633,3.28399 0.49823,6.04169 0.24532,5.01399 0.24532,5.01399 1.93352,4.1592 0.92851,-0.47014 2.38243,-1.4778 3.23092,-2.23924 z m -71.34098,-4.77581 c -0.098,-0.50871 -0.17815,-0.0925 -0.17815,0.92492 0,1.01741 0.0801,1.43363 0.17815,0.92492 0.098,-0.50872 0.098,-1.34114 0,-1.84984 z m -9.37441,-37.94516 c 0.45066,-0.76382 1.2702,-1.50193 1.82121,-1.64022 0.636,-0.15962 1.63414,0.0711 2.73352,0.63203 0.95245,0.48588 1.82406,0.79109 1.93694,0.67821 0.1128,-0.1128 -1.40405,-1.27618 -3.37094,-2.58511 -3.41935,-2.27553 -3.60131,-2.34545 -4.15027,-1.59471 -0.31577,0.43184 -0.57413,1.46662 -0.57413,2.2995 0,0.8329 -0.11633,2.09576 -0.25839,2.80635 -0.21363,1.06811 -0.14568,1.24874 0.39213,1.04236 0.35778,-0.1373 1.01925,-0.87458 1.46993,-1.63841 z m 64.48812,71.99495 c -0.51497,-0.25572 -0.9986,-0.90076 -1.07472,-1.43343 -0.0762,-0.53266 -0.0276,-1.55903 0.1077,-2.28081 0.13542,-0.72179 0.84142,-2.22367 1.5689,-3.33753 0.7275,-1.11385 1.3453,-2.30266 1.37291,-2.6418 0.0276,-0.33914 0.0775,-0.93254 0.11097,-1.31867 0.0335,-0.38612 0.85232,-1.16587 1.81967,-1.73278 0.96733,-0.5669 2.77181,-1.14979 4.00994,-1.2953 1.87058,-0.21985 2.41767,-0.12979 3.23608,0.53296 0.75908,0.61467 0.92401,1.04026 0.71928,1.85597 -0.14807,0.58997 -1.63293,2.28214 -3.35485,3.82325 -2.64256,2.36508 -3.18051,3.07891 -3.72071,4.9371 -0.34732,1.19474 -0.8541,2.34792 -1.12617,2.56261 -0.27207,0.21469 -0.99826,0.48103 -1.61375,0.59187 -0.61549,0.11084 -1.54041,-0.008 -2.05538,-0.26344 z m 2.00144,-1.78666 c 0.25922,-0.16611 0.68849,-1.13444 0.95393,-2.15186 0.39047,-1.49659 1.12471,-2.46585 3.845,-5.07572 3.36235,-3.22589 3.36235,-3.22589 1.41569,-3.03146 -1.07068,0.10692 -2.41182,0.49919 -2.9803,0.87168 -0.66248,0.43406 -1.03363,1.05846 -1.03363,1.73889 0,0.58391 -0.49049,1.6433 -1.08998,2.35421 -0.59949,0.71092 -1.33943,1.88782 -1.6443,2.61537 -0.30488,0.72753 -0.55433,1.69869 -0.55433,2.15814 0,0.45945 0.13875,0.83252 0.30831,0.82906 0.16957,-0.004 0.5204,-0.1422 0.77961,-0.30831 z M 10.515573,191.76419 c -0.288659,-0.11607 -0.8699074,-0.88764 -1.2916624,-1.71461 -0.421753,-0.827 -1.273431,-3.16849 -1.892617,-5.20331 -0.619185,-2.03481 -1.573169,-4.2334 -2.119964,-4.88573 -0.79534,-0.94887 -0.969569,-1.56547 -0.871152,-3.08308 0.101601,-1.56667 0.27351,-1.91849 0.987239,-2.0204 0.578939,-0.0826 1.314888,0.38988 2.229481,1.43155 0.750895,0.85521 2.202975,3.31554 3.2268434,5.46739 1.446131,3.0393 1.900591,4.50142 2.036388,6.55165 0.14603,2.20472 0.05173,2.72923 -0.572717,3.18584 -0.411142,0.30064 -0.850911,0.53201 -0.977267,0.51415 -0.126358,-0.0178 -0.465913,-0.12744 -0.754572,-0.24345 z m -0.105915,-5.62812 c -0.4768964,-1.27461 -0.9587514,-2.31748 -1.0707884,-2.31748 -0.112032,0 -0.08856,0.41621 0.05217,0.92492 0.140729,0.5087 0.554985,1.75437 0.9205714,2.76814 0.365585,1.01377 0.732298,1.64043 0.814917,1.39256 0.08262,-0.24785 -0.239971,-1.49352 -0.716866,-2.76814 z M 142.17352,150.30408 c -0.90436,-0.32581 -2.29669,-0.59516 -3.09403,-0.59857 -1.16081,-0.005 -2.1321,-0.54576 -4.87353,-2.71352 -3.4238,-2.70733 -3.4238,-2.70733 -4.51087,-1.69453 -0.59789,0.55703 -1.49111,1.22039 -1.98496,1.4741 -0.49384,0.25372 -1.46074,0.4613 -2.14867,0.4613 -0.87503,0 -1.44977,-0.30371 -1.91319,-1.01098 -0.44582,-0.68039 -0.57346,-1.41607 -0.39034,-2.2498 0.14965,-0.68135 0.78887,-1.67366 1.42049,-2.20513 0.6316,-0.53147 1.70531,-1.19699 2.386,-1.47895 1.01273,-0.41947 1.27776,-0.81193 1.45854,-2.15978 0.12156,-0.90592 0.51408,-1.97107 0.87237,-2.36698 0.35831,-0.39592 0.65146,-1.28986 0.65146,-1.98656 0,-0.85851 -0.5335,-1.94163 -1.65553,-3.36112 -1.61755,-2.04636 -1.67826,-2.07952 -2.64542,-1.44581 -0.54445,0.35673 -1.51055,0.58891 -2.14692,0.51597 -1.0677,-0.12235 -1.15703,-0.26843 -1.15703,-1.89141 0,-1.49238 -0.20051,-1.91571 -1.32396,-2.79513 -1.29682,-1.01514 -1.36246,-1.02332 -3.20021,-0.39939 -1.03193,0.35035 -2.97056,0.63699 -4.30808,0.63699 -1.33753,0 -3.35912,-0.19886 -4.49244,-0.44192 -1.13333,-0.24305 -2.66855,-0.84573 -3.41161,-1.33931 -0.74306,-0.49356 -1.77933,-1.72832 -2.30281,-2.74392 -0.70256,-1.36296 -0.90914,-2.33289 -0.78889,-3.70383 0.0897,-1.02151 0.67124,-2.87135 1.29252,-4.11074 0.62129,-1.2394 1.5869,-2.85465 2.1458,-3.58945 0.75447,-0.99191 1.33833,-1.336 2.26699,-1.336 0.87642,0 1.31099,0.23026 1.45196,0.7693 0.19399,0.74184 0.25705,0.73871 1.76483,-0.0872 1.31143,-0.71834 1.7343,-0.77873 2.62167,-0.37442 0.78771,0.35891 1.22589,1.05947 1.71503,2.74208 0.657,2.26001 0.657,2.26001 2.43196,1.39767 1.16797,-0.56745 2.13953,-0.77084 2.8411,-0.59476 0.5864,0.14718 1.48788,0.70909 2.00331,1.2487 0.56738,0.59402 1.79673,1.15984 3.11582,1.43408 1.19828,0.24912 2.77065,0.75713 3.49414,1.1289 0.72351,0.37178 2.41826,1.43541 3.76612,2.36362 1.34787,0.92822 2.64276,1.81997 2.87753,1.98168 0.23478,0.16171 0.42686,1.07496 0.42686,2.02944 0,1.72717 0.0118,1.73993 2.34915,2.68036 1.29203,0.51972 3.78932,1.33083 5.54953,1.80248 1.76019,0.47164 3.54419,1.16799 3.96443,1.54745 0.66121,0.59704 0.74124,1.16921 0.59453,4.25026 -0.10025,2.1057 -0.39102,3.82721 -0.71164,4.21352 -0.29815,0.35926 -0.93859,0.65319 -1.4232,0.65319 -0.4846,0 -2.11474,-0.7209 -3.62251,-1.60199 -2.7414,-1.60198 -2.7414,-1.60198 -2.07988,-0.21474 0.5127,1.07514 1.10202,1.53354 2.61946,2.03756 1.25461,0.4167 2.50065,1.25103 3.46871,2.32258 0.83094,0.91973 1.87181,2.48841 2.31308,3.48595 0.44125,0.99754 0.74413,2.22257 0.67306,2.7223 -0.10574,0.74323 -0.39111,0.90594 -1.56798,0.89392 -0.79132,-0.008 -1.90124,-0.15271 -2.46645,-0.3214 -0.67183,-0.20049 -0.51933,-0.0271 0.44037,0.50068 0.80744,0.44405 1.70139,1.0885 1.98656,1.4321 0.28516,0.3436 0.45599,0.94923 0.37961,1.34584 -0.0763,0.3966 -0.60036,0.84951 -1.1644,1.00646 -0.56405,0.15694 -1.76547,0.29567 -2.66984,0.30828 -0.90436,0.0131 -2.38423,-0.24363 -3.2886,-0.56944 z m 1.6443,-2.8063 c -1.73187,-0.96167 -2.50778,-1.65034 -2.60519,-2.31229 -0.0763,-0.51849 0.10862,-1.10847 0.41108,-1.31106 0.3024,-0.20259 1.55518,-0.25217 2.78397,-0.11019 1.22879,0.14199 2.66539,0.42212 3.19243,0.6225 0.9469,0.36 0.95078,0.34985 0.32738,-0.85569 -0.347,-0.671 -1.1993,-1.86738 -1.894,-2.65859 -0.70028,-0.79758 -1.93321,-1.62726 -2.76707,-1.86206 -0.82718,-0.23291 -1.80194,-0.65326 -2.16611,-0.93411 -0.36418,-0.28084 -1.15922,-1.49158 -1.76677,-2.69052 -0.70306,-1.38743 -1.0071,-2.48721 -0.83635,-3.0252 0.22359,-0.70449 0.51788,-0.81157 1.76677,-0.64285 0.82416,0.11137 2.59483,0.86375 3.93482,1.67201 1.33998,0.80827 2.57793,1.38206 2.75101,1.27509 0.17307,-0.10692 0.441,-1.03694 0.59542,-2.06662 0.16267,-1.08479 0.0974,-2.27453 -0.15521,-2.82895 -0.34064,-0.74762 -1.04842,-1.09702 -3.2373,-1.59813 -1.54073,-0.35272 -3.98657,-1.10786 -5.43519,-1.67807 -1.44862,-0.57022 -2.9856,-1.35508 -3.4155,-1.74414 -0.55054,-0.49823 -0.74412,-1.13788 -0.65475,-2.16336 0.12221,-1.40299 0.0105,-1.53279 -3.06437,-3.56553 -2.1451,-1.41798 -4.09911,-2.33655 -5.9606,-2.80201 -1.73224,-0.43315 -3.19092,-1.09427 -3.89512,-1.76536 -1.12581,-1.07289 -1.12581,-1.07289 -3.2135,-0.095 -1.58374,0.74179 -2.25466,0.87285 -2.77941,0.54296 -0.38045,-0.23917 -1.02766,-1.34027 -1.43826,-2.44691 -0.41059,-1.10662 -0.905,-2.17349 -1.09868,-2.37079 -0.19889,-0.20262 -0.81328,0.10234 -1.41162,0.7007 -0.9322,0.93218 -1.05946,1.39744 -1.05946,3.87344 0,1.64057 -0.2057,3.0197 -0.49329,3.30729 -0.27131,0.27132 -0.89632,0.49329 -1.3889,0.49329 -0.61757,0 -1.06258,-0.40315 -1.43353,-1.29867 -0.45062,-1.08792 -0.43635,-1.79742 0.088,-4.37188 0.53605,-2.63176 0.5407,-2.96188 0.0324,-2.29823 -0.32646,0.42622 -1.12831,1.88486 -1.78187,3.24141 -0.65356,1.35655 -1.18844,3.04029 -1.18863,3.74166 -1.7e-4,0.70136 0.42017,1.90375 0.93411,2.67199 0.65538,0.97965 1.54541,1.60626 2.9803,2.09817 1.13287,0.3884 3.33273,0.70943 4.92949,0.71939 2.12428,0.0132 3.28754,-0.19851 4.41756,-0.80415 0.84368,-0.45219 1.67835,-0.82216 1.85482,-0.82216 0.17647,0 1.33329,0.75865 2.57072,1.68589 1.23742,0.92723 2.39641,1.9422 2.57554,2.25547 0.17912,0.31326 0.106,0.98825 -0.16259,1.49994 -0.47399,0.90314 -0.46452,0.90931 0.32329,0.21099 0.44637,-0.39566 1.10653,-0.71939 1.46704,-0.71939 0.36052,0 1.20984,0.46648 1.88741,1.03661 0.67756,0.57014 1.80166,1.89674 2.49799,2.948 0.89702,1.35427 1.26527,2.40011 1.26335,3.588 -10e-4,0.98107 -0.34152,2.18819 -0.81943,2.90982 -0.44922,0.67828 -0.81796,1.84303 -0.81945,2.58835 -0.003,1.09086 -0.25204,1.49167 -1.28128,2.05538 -0.70322,0.38514 -1.85808,1.07673 -2.56637,1.53686 -0.7083,0.46014 -1.34891,1.15382 -1.42357,1.54154 -0.0912,0.47408 0.13058,0.70492 0.67764,0.70492 0.44737,0 1.58834,-0.64744 2.53549,-1.43876 0.94716,-0.79132 2.0576,-1.43876 2.46767,-1.43876 0.41008,0 2.25936,1.20239 4.10954,2.67199 1.85018,1.46959 3.57823,2.69158 3.84012,2.71554 0.2619,0.0239 0.97211,0.0118 1.57824,-0.028 0.60614,-0.0393 1.62355,0.21111 2.26092,0.55659 0.63737,0.34549 1.71379,0.63336 2.39208,0.63972 1.11689,0.0105 1.00056,-0.11764 -1.23323,-1.35802 z M 82.415528,126.86657 c -0.68354,-0.57515 -1.35693,-1.40535 -1.49643,-1.84487 -0.24907,-0.78476 -0.28428,-0.78349 -1.95888,0.0708 -1.46242,0.74607 -2.1744,0.83779 -5.000016,0.64413 -2.733122,-0.18733 -3.419031,-0.37928 -4.02369,-1.126 -0.400904,-0.49511 -0.728916,-1.2943 -0.728916,-1.776 0,-0.4817 -0.661854,-1.83681 -1.470787,-3.01133 -0.904195,-1.31285 -1.418861,-2.50193 -1.335995,-3.08663 0.09917,-0.69976 0.444695,-0.98656 1.307431,-1.08525 1.172638,-0.13415 1.172638,-0.13415 0.343926,-1.0277 -0.455792,-0.49144 -0.878798,-1.17102 -0.940013,-1.51016 -0.06121,-0.33912 0.03401,-1.77797 0.211624,-3.1974 0.301972,-2.41335 0.420238,-2.63472 1.822751,-3.41182 1.499828,-0.83103 1.499828,-0.83103 -0.05746,-0.62833 -0.856506,0.11149 -2.097843,0.65755 -2.758526,1.21347 -0.660684,0.55594 -2.032952,1.32842 -3.049487,1.71663 -1.016534,0.38822 -2.280849,0.59728 -2.809588,0.46457 -0.83056,-0.20845 -1.034862,-0.65504 -1.501743,-3.28267 -0.297219,-1.67276 -0.41531,-3.43551 -0.262422,-3.91721 0.152888,-0.48171 1.451539,-1.71326 2.885893,-2.736798 1.658585,-1.18353 2.763848,-2.30828 3.036281,-3.08978 0.235603,-0.67584 0.674236,-1.32316 0.974743,-1.43848 0.300507,-0.11529 1.280446,0.038 2.177641,0.34084 1.137358,0.38381 1.817961,0.94018 2.247879,1.83756 0.339137,0.70789 0.968023,1.34314 1.397522,1.41166 0.429501,0.0685 1.128019,0.59138 1.552266,1.16191 0.424244,0.570538 0.879842,1.705858 1.012438,2.522948 0.191892,1.18249 0.05784,1.66886 -0.656977,2.38368 -0.898058,0.89805 -0.898058,0.89805 0.927269,0.62433 1.282388,-0.19231 2.177686,-0.0889 3.009926,0.34785 0.65153,0.34186 1.85341,1.24005 2.67084,1.99596 1.41685,1.31021 1.50322,1.33578 1.84984,0.54744 0.19998,-0.45482 0.7485,-0.88196 1.21894,-0.94919 0.47043,-0.0672 1.30286,0.23976 1.84984,0.68221 0.93013,0.75237 1.00337,1.10964 1.13142,5.5189 0.13691,4.71446 0.13691,4.71446 1.74707,6.28673 1.2354,1.20634 1.61016,1.89074 1.61016,2.94053 0,0.837 -0.23941,1.46011 -0.61662,1.60484 -0.36995,0.14198 -0.61661,0.76168 -0.61661,1.5492 0,0.72191 -0.22198,1.53455 -0.49329,1.80586 -0.27131,0.2713 -1.27453,0.49329 -2.22938,0.49329 -1.26007,0 -2.07684,-0.28673 -2.97888,-1.04575 z m 3.64617,-0.80967 c 0,-0.11607 -0.23123,-0.59148 -0.51385,-1.05636 -0.45298,-0.74512 -0.36856,-0.96231 0.71271,-1.83355 1.22655,-0.98833 1.22655,-0.98833 -0.50048,-2.74804 -1.72703,-1.75972 -1.72703,-1.75972 -1.63763,-6.15554 0.0625,-3.07265 -0.0653,-4.55073 -0.42444,-4.91042 -0.41128,-0.41187 -0.5143,-0.31355 -0.51614,0.49256 -10e-4,0.55392 -0.19744,1.70988 -0.43596,2.56882 -0.28549,1.02809 -0.79169,1.72481 -1.4815,2.0391 -0.89124,0.40608 -1.13326,0.36061 -1.61942,-0.30425 -0.31437,-0.42993 -0.57553,-1.71749 -0.58036,-2.86126 -0.008,-1.94439 -0.11268,-2.15307 -1.60721,-3.21005 -0.87914,-0.62175 -1.910376,-1.13045 -2.291639,-1.13045 -0.381262,0 -1.646593,0.28026 -2.811849,0.62281 -1.165254,0.34254 -2.322147,0.75876 -2.570872,0.92492 -0.248724,0.16616 -0.557919,1.11122 -0.6871,2.10015 -0.199169,1.52468 -0.08639,1.94652 0.741847,2.77476 0.537198,0.5372 1.1989,0.97672 1.470451,0.97672 0.27155,0 1.122962,0.47994 1.892026,1.06654 0.964839,0.73591 1.359155,1.3412 1.272029,1.9526 -0.105458,0.74003 -0.397292,0.88497 -1.770573,0.87939 -0.904366,-0.004 -2.149172,-0.14497 -2.766234,-0.31399 -1.121932,-0.30731 -1.121932,-0.30731 -0.132431,1.15079 0.544223,0.80196 1.118579,2.05317 1.276345,2.78045 0.157764,0.72729 0.494835,1.45824 0.749045,1.62435 0.254209,0.16611 1.533227,0.30486 2.84226,0.30831 1.579191,0.004 2.922335,-0.27035 3.991615,-0.81586 0.88635,-0.45218 1.89407,-0.82214 2.23938,-0.82214 0.34531,0 1.08723,0.72773 1.64871,1.61718 0.56149,0.88944 1.34999,1.80874 1.75223,2.04288 0.40224,0.23413 0.96258,0.43132 1.24519,0.43819 0.28262,0.007 0.51385,-0.0825 0.51385,-0.19861 z m -23.1098,-19.33108 c 0.840582,-0.34799 1.805806,-0.98637 2.144943,-1.4186 0.394282,-0.50251 1.712353,-1.01192 3.65553,-1.41277 1.671405,-0.34478 3.114035,-0.702 3.205843,-0.79381 0.09181,-0.0918 0.04372,-0.6578 -0.106856,-1.25775 -0.179886,-0.71672 -0.745657,-1.28801 -1.649677,-1.66572 -0.856192,-0.357738 -1.471001,-0.953818 -1.627683,-1.578088 -0.138483,-0.55175 -0.688369,-1.20212 -1.221967,-1.44524 -0.845975,-0.38545 -0.986652,-0.32862 -1.09884,0.44391 -0.07077,0.48727 -0.961086,1.51905 -1.978498,2.29283 -1.017412,0.773768 -2.280406,1.744868 -2.806653,2.157978 -0.870363,0.68324 -0.931082,0.95706 -0.672017,3.03055 0.156638,1.25368 0.361916,2.27943 0.456172,2.27943 0.09426,0 0.859123,-0.28473 1.699705,-0.63272 z m 26.48107,11.42155 c -0.38461,-0.84888 -1.12875,-2.2333 -1.65366,-3.07647 -0.5249,-0.84318 -0.89487,-1.95223 -0.82215,-2.46456 0.0976,-0.68739 0.40155,-0.92915 1.15991,-0.92251 0.94602,0.008 1.02769,-0.13872 1.02769,-1.84984 0,-1.85884 0,-1.85884 2.78753,-1.82552 1.55296,0.0186 3.00287,0.24867 3.27378,0.51958 0.37432,0.3743 0.36263,0.79255 -0.0507,1.81652 -0.29536,0.73164 -0.52735,1.51525 -0.51556,1.74134 0.0118,0.22609 0.14244,0.91719 0.29033,1.53579 0.14789,0.6186 0.14306,1.79541 -0.0105,2.61515 -0.15378,0.81975 -0.72139,1.93222 -1.26137,2.4722 -0.61192,0.61192 -1.46092,0.98175 -2.25377,0.98175 -1.07193,0 -1.38199,-0.24276 -1.97128,-1.54343 z m 3.23098,-1.3809 c 0.26545,-0.49601 0.35271,-1.51047 0.20331,-2.36368 -0.14397,-0.82211 -0.28451,-1.8647 -0.31232,-2.31688 -0.0278,-0.45218 0.092,-1.14587 0.26621,-1.54153 0.26409,-0.59972 0.10196,-0.71939 -0.97489,-0.71939 -1.14964,0 -1.24488,0.0874 -0.86612,0.79513 0.23404,0.43732 0.42554,1.08475 0.42554,1.43876 0,0.354 -0.35445,0.99809 -0.78766,1.43129 -0.77614,0.77614 -0.77552,0.81216 0.043,2.46645 0.45685,0.92335 0.98975,1.6788 1.18426,1.6788 0.19451,0 0.56293,-0.39102 0.81871,-0.86895 z m 4.18094,0.123 c -0.28675,-0.18677 -0.72104,-1.47308 -0.96506,-2.85846 -0.37021,-2.10168 -0.32941,-2.86298 0.24627,-4.59619 0.49422,-1.48796 0.94854,-2.1422 1.60137,-2.30605 0.50126,-0.12574 1.91995,0.10562 3.152632,0.51435 2.24125,0.7431 2.24125,0.7431 2.18454,2.90309 -0.0319,1.21729 -0.35005,2.60769 -0.72885,3.18582 -0.36971,0.56423 -1.02779,1.02586 -1.46242,1.02586 -0.4571,0 -1.017952,0.47657 -1.330372,1.13046 -0.29707,0.62175 -0.90836,1.17775 -1.35842,1.23557 -0.45007,0.0578 -1.05292,-0.0477 -1.33969,-0.23445 z m 2.74993,-3.77589 c 0.3974,0 0.937222,-0.47116 1.199612,-1.04703 0.26239,-0.57587 0.47705,-1.29771 0.47705,-1.60409 0,-0.30639 -0.58494,-0.76097 -1.299872,-1.01019 -0.71495,-0.24924 -1.33734,-0.40607 -1.38309,-0.34853 -0.0457,0.0575 -0.29323,0.50867 -0.54996,1.00252 -0.25671,0.49384 -0.46675,1.4848 -0.46675,2.20213 0,1.0204 0.14151,1.24993 0.65023,1.05471 0.35764,-0.13723 0.97538,-0.24952 1.37278,-0.24952 z m 7.360322,-6.37457 c -0.11463,-0.11463 -1.43729,-0.25957 -2.93921,-0.32203 -1.50193,-0.0625 -2.95544,-0.33825 -3.23004,-0.61284 -0.27458,-0.27459 -0.62818,-1.74503 -0.78577,-3.26766 -0.209722,-2.0261 -0.483922,-2.880568 -1.022632,-3.186708 -0.40485,-0.23006 -1.1732,-0.8712 -1.70745,-1.42476 -0.72274,-0.74887 -0.93995,-1.38017 -0.84864,-2.46645 0.11137,-1.3247 0.24966,-1.47215 1.49269,-1.59133 1.1904,-0.11411 1.64841,0.15529 3.494142,2.05537 1.16832,1.20271 2.4393,2.78792 2.82445,3.52272 0.5478,1.045108 0.96316,1.335988 1.90772,1.335988 0.6641,0 2.01384,-0.36591 2.99941,-0.813118 0.98558,-0.44721 2.19786,-0.81719 2.69396,-0.82215 0.4961,-0.005 1.38621,0.40747 1.97803,0.916538 0.70663,0.60781 1.15182,1.4906 1.2968,2.57149 0.17075,1.27307 0.0486,1.79877 -0.53927,2.32063 -0.41801,0.37108 -1.93111,0.97126 -3.36244,1.33372 -1.43135,0.36246 -2.92663,0.65903 -3.32287,0.65903 -0.39625,0 -0.81423,-0.0939 -0.92888,-0.20844 z m 3.95578,-2.41912 c 1.11898,-0.29474 2.10215,-0.73879 2.18481,-0.98676 0.0826,-0.24797 -0.0532,-0.83108 -0.30192,-1.2958 -0.24871,-0.46472 -0.70296,-0.84495 -1.00946,-0.84495 -0.30649,0 -1.36363,0.36591 -2.34922,0.81314 -0.98558,0.44721 -2.50414,0.81717 -3.37459,0.82214 -1.2584,0.007 -1.86899,-0.27731 -2.9803,-1.38863 -1.39767,-1.39765 -1.39767,-1.39765 -1.39767,0.12692 0,0.83855 0.23122,1.82999 0.51384,2.20319 0.33775,0.44601 1.28872,0.72864 2.77477,0.82468 1.2435,0.0804 2.63089,0.17217 3.08307,0.20401 0.45218,0.0319 1.73768,-0.18326 2.85667,-0.47799 z m -19.647072,0.2315 c -0.37418,-0.41346 -0.68032,-1.04111 -0.68032,-1.39478 0,-0.35367 -0.29817,-0.75744 -0.66259,-0.89729 -0.53795,-0.20643 -0.60905,-0.61116 -0.378,-2.15191 0.15651,-1.043708 0.37236,-2.126418 0.47966,-2.406028 0.10731,-0.27961 0.65607,-0.71841 1.2195,-0.97513 0.56342,-0.25671 1.49033,-0.46677 2.05978,-0.46677 0.56945,0 1.37815,0.18346 1.79709,0.40766 0.41894,0.22422 0.88769,0.98122 1.04165,1.68222 0.15397,0.70101 0.15419,2.113148 4.9e-4,3.138088 -0.16977,1.13211 -0.66257,2.24666 -1.25553,2.83961 -0.53684,0.53686 -1.41829,0.97608 -1.95875,0.97608 -0.54046,0 -1.2888,-0.33829 -1.66298,-0.75175 z m 2.61845,-2.35807 c 0.22049,-0.57994 0.4009,-1.70214 0.4009,-2.493758 0,-1.31981 -0.0916,-1.4285 -1.1033,-1.30922 -0.79678,0.094 -1.18457,0.43648 -1.39585,1.233 -0.20558,0.775058 -0.12196,1.168388 0.28114,1.323098 0.31555,0.12104 0.57371,0.68841 0.57371,1.26074 0,0.57233 0.18956,1.04058 0.42124,1.04058 0.2317,0 0.60166,-0.4745 0.82216,-1.05444 z m -16.55596,1.33256 c -0.39566,-0.31585 -0.71938,-0.9592 -0.71938,-1.42962 0,-0.47044 0.188,-0.97154 0.41778,-1.11355 0.22978,-0.14201 0.31135,-0.4304 0.18128,-0.64087 -0.13009,-0.21047 -0.56689,-0.382678 -0.970686,-0.382678 -0.403798,0 -1.040326,-0.33828 -1.414504,-0.75174 -0.374179,-0.41346 -0.680325,-1.16139 -0.680325,-1.66205 0,-0.56608 0.778637,-1.62754 2.059168,-2.8071 1.132547,-1.04326 1.974717,-1.98128 1.871487,-2.08451 -0.10322,-0.10326 -0.68483,0.20338 -1.29245,0.68133 -0.673753,0.52998 -1.699809,0.86903 -2.62993,0.86903 -0.979573,0 -1.779544,-0.28111 -2.236292,-0.78581 -0.408175,-0.45102 -0.654228,-1.25661 -0.577556,-1.89093 0.104451,-0.86418 0.47563,-1.22211 1.702327,-1.64158 0.862809,-0.29503 1.941978,-0.8742 2.398153,-1.28702 0.532687,-0.48209 1.409808,-0.73538 2.451778,-0.70807 0.92776,0.0243 1.969,0.35624 2.43199,0.77523 0.44528,0.40298 0.80961,1.06055 0.80961,1.46129 0,0.40074 -0.44448,1.07824 -0.98773,1.50556 -0.98773,0.77694 -0.98773,0.77694 0.16751,1.21299 0.89912,0.33939 1.27857,0.87278 1.71161,2.40597 0.30601,1.08345 0.78559,2.04632 1.06572,2.1397 0.34149,0.11385 0.50934,-0.31253 0.50934,-1.29376 0,-1.10828 0.24997,-1.62733 1.02975,-2.13826 0.82273,-0.53908 1.1516,-0.57358 1.63589,-0.17166 0.33339,0.27668 0.72583,1.40524 0.87211,2.50791 0.14627,1.10266 0.52002,2.21571 0.83055,2.47341 0.31054,0.25773 0.56461,1.06114 0.56461,1.785358 0,0.85197 -0.34222,1.63827 -0.96948,2.22755 -0.75744,0.71159 -1.40927,0.89583 -2.9803,0.84242 -1.10595,-0.0376 -3.02823,0.0541 -4.27173,0.20368 -1.65331,0.19895 -2.45425,0.11777 -2.9803,-0.30222 z m 8.91203,-2.37787 c 0.233,-0.21341 0.16564,-0.75476 -0.17253,-1.386648 -0.49973,-0.93373 -0.62241,-0.97534 -1.23674,-0.41938 -0.37509,0.33945 -1.00537,0.61718 -1.40062,0.61718 -0.39525,0 -1.25935,-0.54072 -1.92024,-1.20161 -0.66088,-0.66087 -1.20443,-1.63203 -1.2079,-2.15813 -0.003,-0.52611 -0.17428,-1.22202 -0.3796,-1.5465 -0.30365,-0.47986 -0.67902,-0.32646 -2.01171,0.82216 -0.90112,0.77665 -1.593583,1.597 -1.53881,1.82299 0.0548,0.22598 0.98139,0.53702 2.05915,0.69118 1.07775,0.15417 2.21852,0.37967 2.53503,0.50113 0.3165,0.12143 0.57547,0.60553 0.57547,1.07573 0,0.571888 -0.44227,1.046218 -1.336,1.432858 -1.24349,0.53794 -1.09407,0.56138 2.15815,0.33854 1.92177,-0.13169 3.66613,-0.39697 3.87635,-0.5895 z m -10.70353,-9.448848 c 0.601775,-0.47335 1.59789,-1.0055 2.21358,-1.18256 0.93363,-0.26848 1.00105,-0.37136 0.40614,-0.61978 -0.47908,-0.20004 -1.1306,0.0533 -1.984146,0.77149 -0.69896,0.58815 -1.63753,1.06934 -2.08571,1.06934 -0.448179,0 -0.700545,0.185 -0.560812,0.41109 0.139732,0.22609 0.403178,0.41107 0.585437,0.41107 0.182257,0 0.823738,-0.3873 1.425511,-0.86065 z m 28.285342,5.30026 c -0.27132,-0.2713 -0.4933,-1.04755 -0.4933,-1.72497 0,-0.67743 0.50871,-1.96572 1.13046,-2.86288 0.81014,-1.16899 1.13374,-2.14799 1.14202,-3.45508 0.008,-1.31253 0.23205,-1.98506 0.79796,-2.39888 0.43251,-0.31625 1.21348,-0.575 1.7355,-0.575 0.52201,0 0.94912,-0.0876 0.94912,-0.19472 0,-0.10706 -0.78913,-0.98577 -1.75362,-1.95262 -1.23386,-1.23687 -2.14763,-2.756848 -3.08306,-5.128454 -0.73121,-1.853811 -1.32946,-3.947045 -1.32946,-4.651625 0,-0.704581 0.18743,-1.631251 0.4165,-2.059275 0.22907,-0.428023 1.61994,-1.636989 3.09085,-2.686605 1.4709,-1.049616 3.91949,-2.439589 5.44134,-3.088853 1.60511,-0.684778 3.52335,-1.185137 4.56828,-1.191581 1.12584,-0.0065 2.32246,0.31096 3.19105,0.847774 0.76434,0.472387 1.57235,1.200155 1.79559,1.617278 0.22323,0.417109 0.40406,1.64921 0.40185,2.738013 -0.003,1.202339 -0.3797,2.786664 -0.96082,4.035013 -0.52625,1.13046 -1.28116,3.032281 -1.67756,4.22628 -0.39642,1.193999 -1.17564,2.711506 -1.73161,3.372246 -0.96106,1.142149 -0.97948,1.262049 -0.37381,2.433279 0.35038,0.67757 0.63706,1.78189 0.63706,2.45404 0,0.70109 -0.43447,1.73844 -1.01911,2.43325 -0.87653,1.04169 -1.00595,1.56818 -0.92492,3.763 0.0754,2.04444 -0.0514,2.65858 -0.63804,3.08862 -0.40271,0.29522 -2.12137,0.74339 -3.81923,0.99591 -1.69786,0.25253 -3.96738,0.45914 -5.04339,0.45914 -1.07601,0 -2.17835,-0.22198 -2.44965,-0.4933 z m 6.70052,-1.84535 c 1.13046,-0.13266 2.37577,-0.40539 2.76735,-0.60608 0.59914,-0.30705 0.67242,-0.74354 0.46229,-2.75391 -0.23817,-2.27863 -0.1894,-2.45071 1.0552,-3.72392 1.30489,-1.33489 1.30489,-1.33489 0.46263,-2.76241 -0.46324,-0.78513 -0.84226,-1.79775 -0.84226,-2.25027 0,-0.45252 0.52164,-1.505612 1.15919,-2.340197 0.63757,-0.834585 1.83102,-3.274775 2.65213,-5.422645 0.82111,-2.14787 1.59759,-4.292355 1.72553,-4.765539 0.14573,-0.538958 -0.0974,-1.279823 -0.65071,-1.983306 -0.48584,-0.617645 -1.32546,-1.291077 -1.86583,-1.496527 -0.73024,-0.277629 -1.69262,-0.108751 -3.74847,0.657681 -1.52128,0.567178 -4.02096,1.882999 -5.55483,2.924054 -1.53387,1.041055 -2.94786,2.192533 -3.14221,2.558849 -0.23439,0.441801 0.0638,1.818375 0.88579,4.088839 1.0174,2.810361 1.6348,3.815327 3.45051,5.616581 1.53076,1.51858 2.21138,2.51867 2.21138,3.24935 0,0.81884 -0.25351,1.10978 -1.13046,1.29737 -0.62175,0.13299 -1.54667,0.41003 -2.05538,0.61562 -0.75342,0.3045 -0.92703,0.69938 -0.93635,2.1297 -0.008,1.30043 -0.32907,2.17568 -1.23592,3.37426 -0.92048,1.21656 -1.09624,1.70414 -0.70795,1.96377 0.28409,0.18996 1.07149,0.2384 1.74976,0.1077 0.67828,-0.13075 2.15816,-0.34628 3.28861,-0.47892 z m -16.715102,-2.37056 c -0.25299,-0.55526 -1.26644,-1.38864 -2.25211,-1.85196 -0.99003,-0.46537 -1.79212,-1.12952 -1.79212,-1.48393 0,-0.35283 0.19973,-1.01473 0.44384,-1.47085 0.34308,-0.64103 0.29641,-0.99223 -0.20554,-1.54687 -0.35715,-0.39466 -0.64937,-1.1192 -0.64937,-1.61011 0,-0.75762 0.23304,-0.89232 1.54153,-0.89101 0.84784,8.4e-4 2.14442,0.36913 2.88129,0.81839 0.73687,0.44928 1.70734,1.41975 2.1566,2.15662 0.5156,0.84564 0.81744,2.06983 0.81841,3.31938 8.3e-4,1.08879 -0.18996,2.33744 -0.42401,2.77475 -0.23404,0.43732 -0.79296,0.79513 -1.24204,0.79513 -0.4681,0 -1.01277,-0.43077 -1.27648,-1.00954 z m 0.87524,-3.57655 c -0.22124,-0.80124 -0.77118,-1.79067 -1.22209,-2.19874 -0.80423,-0.7278 -0.81985,-0.71456 -0.81985,0.69455 0,1.13333 0.21688,1.5353 1.02769,1.90473 0.56523,0.25753 1.0277,0.68803 1.0277,0.95665 0,0.26861 0.0874,0.40092 0.19439,0.29399 0.10692,-0.10692 0.0133,-0.84994 -0.20784,-1.65118 z m -12.04957,2.19004 c -0.37418,-0.41347 -0.68033,-1.1164 -0.68033,-1.56209 0,-0.44569 0.22198,-1.03231 0.49329,-1.30363 0.27131,-0.2713 1.35254,-0.49329 2.40274,-0.49329 1.32779,0 2.1167,0.22901 2.58978,0.75176 0.37418,0.41346 0.68032,1.05041 0.68032,1.41544 0,0.36504 -0.41112,0.95168 -0.91361,1.30363 -0.50249,0.35196 -1.58373,0.63993 -2.40275,0.63993 -0.92057,0 -1.74887,-0.28703 -2.16944,-0.75175 z"
       id="path1"
       sodipodi:nodetypes="ssssssssssssssssssssssssssssssssssssssssscssssssssscssssssssssssssssssssssscssssssssssssssssssssssssssscssssssssssssssssssssssssssssssssssssssssssssssssssssssssssssssssssssssssssssssssssssssssssssssssssssssssssssssssssssssssssssssssssssssssssssssssssssssssssssssssssssssssssssssssssssssssssssssssssssssscssssssssssssssssssssssssssssscsssscssssssssssssscssssccsssscssssssssssssscsssssssssssssssssssssssscssssssssssssssssssssssssssssscssssscscssssssssssssssssssssssssssssssscsssscsscccsssssssssssccssssssssscscsssscssssccssssssscssssssssssssscssssssscssssssssssssssscssssssssssscssssscssssssssssssssssssssccssssssssssscssssscsssscsssscscsscssssscsssssssssssssssssssssssssscssssssssscsssssssssssssssssssssssssssssscsssscsssscsssssssssssssssscsscsssssscsscccsscssssssccssscccssscsssssssssssssssssssssscssssssccssscsssscccssssssssssssssscscssssssssssssssssssssssssssssssssccsssssscsssssssssssssssssssscssssssssscsscsssssscsssscssssssssssssscsssscsscccssssssssssssscssssscsssssssss" /><path
       style="fill:#ffffff;stroke:#000000;stroke-width:5.8551"
       d="m 484.11282,901.48997 c 0,-1.71018 1.7428,-6.64707 3.8729,-10.97087 3.08724,-6.26669 3.8729,-9.17299 3.8729,-14.32663 v -6.46516 l 5.001,0.39774 c 10.56898,0.84059 13.56899,-5.86703 7.03562,-15.73063 -6.86137,-10.35876 -11.65193,-12.25074 -34.92187,-13.79197 -7.41378,-0.49103 -14.16786,-1.46398 -15.00904,-2.1621 -0.84119,-0.69813 -2.70576,-5.02014 -4.14348,-9.6045 -2.88268,-9.19176 -5.18914,-12.37851 -9.72377,-13.43499 -1.6568,-0.386 -5.50209,-3.10289 -8.54508,-6.03753 -6.23942,-6.01723 -9.14159,-7.39787 -16.14522,-7.68071 -8.95109,-0.36147 -9.70272,-0.0618 -17.02389,6.78677 -6.81821,6.37809 -7.49129,6.73938 -11.39312,6.11545 -2.28074,-0.3647 -10.98459,-3.38786 -19.34188,-6.71812 C 346.14366,799.2976 340.41828,797.9483 303.74621,792.80709 247.0359,784.85662 234.4469,781.8265 191.61227,765.81682 145.92236,748.73998 73.680871,717.34507 68.239625,712.20119 66.263809,710.33336 63.84224,705.53722 61.464418,698.78227 54.353095,678.58034 51.395269,671.40902 48.159173,666.5234 c -3.243872,-4.89735 -3.252266,-4.95254 -1.665701,-10.95223 0.87703,-3.31656 2.371165,-14.18356 3.320301,-24.14892 0.949135,-9.96536 2.380482,-19.67528 3.180769,-21.5776 0.800289,-1.90232 4.764676,-7.34547 8.80975,-12.09587 4.045075,-4.75042 7.354682,-9.64895 7.354682,-10.88565 0,-1.23669 -1.722661,-5.32893 -3.828134,-9.09387 l -3.828135,-6.84535 1.627491,-7.71952 c 1.975139,-9.36848 4.525352,-29.53229 5.479963,-43.3285 0.64461,-9.31602 0.512978,-10.34841 -1.587228,-12.44861 -1.841738,-1.84174 -3.685598,-2.29014 -9.41736,-2.29014 -3.919976,0 -7.398868,-0.43952 -7.730872,-0.97671 -0.332005,-0.53719 0.385525,-3.85179 1.59451,-7.36576 2.903253,-8.43846 2.77427,-11.52407 -0.695454,-16.637 l -2.893608,-4.26396 24.253251,-23.83068 c 40.822352,-40.11107 70.103602,-67.70818 71.386442,-67.28056 0.6715,0.22383 2.2467,3.84852 3.50046,8.05487 1.64384,5.51508 3.40719,8.77554 6.32305,11.6914 4.55634,4.55634 5.23362,4.71341 28.57768,6.62751 19.51005,1.59972 19.55021,1.61791 21.08193,9.54483 0.6828,3.53361 1.47438,7.52148 1.75906,8.86194 0.28469,1.34046 1.70708,3.82005 3.16087,5.51018 2.16152,2.51292 3.81131,3.17792 9.0522,3.64879 l 6.40894,0.57581 5.60161,9.38199 c 5.18134,8.67812 6.1773,9.69658 13.27519,13.57516 4.22048,2.30625 7.95506,4.47609 8.29908,4.82188 0.34401,0.34579 -1.24181,2.12789 -3.52406,3.96023 -3.12137,2.50604 -4.14953,4.14856 -4.14953,6.62894 0,4.25974 4.5163,8.81423 11.06543,11.15901 12.0014,4.29684 25.31835,7.74547 30.40536,7.87394 l 5.50813,0.13912 2.50357,-5.25609 c 1.37695,-2.89084 2.95963,-5.25608 3.51705,-5.25608 0.55742,0 2.81087,2.50183 5.00767,5.55962 2.19681,3.05779 5.58666,6.52805 7.53303,7.7117 5.29834,3.22211 44.9197,17.7119 48.43202,17.7119 3.6022,0 5.27002,-1.72088 6.20667,-6.40411 0.46787,-2.33935 2.04362,-4.32567 4.96546,-6.25926 7.30576,-4.83473 7.42254,-14.29567 0.30334,-24.5793 -8.10486,-11.70747 -7.73363,-10.56957 -5.59935,-17.16299 2.17402,-6.71614 4.5384,-10.30783 6.13571,-9.32064 0.60055,0.37116 3.70248,8.50758 6.89319,18.08093 6.55284,19.66109 9.14244,23.5145 15.8024,23.5145 2.141,0 4.21585,0.52283 4.61078,1.16185 0.39494,0.63902 1.1005,5.35773 1.56792,10.48601 0.96151,10.54911 2.17545,12.71108 7.1091,12.66091 4.02365,-0.0409 5.72077,-1.20654 9.9795,-6.85413 2.74895,-3.64545 3.21858,-5.4916 4.05486,-15.9399 0.52019,-6.49931 1.42026,-12.29138 2.00014,-12.87126 1.20584,-1.20584 7.23451,0.5453 10.56874,3.06988 1.88255,1.42541 1.97486,2.08201 0.82991,5.9035 -1.95009,6.50883 -1.58673,9.11239 2.0314,14.55512 1.82059,2.7387 3.31229,5.91656 3.3149,7.06193 0.005,2.17598 -2.96403,7.57182 -7.52962,13.68438 l -2.68508,3.59487 -5.12581,-3.73147 c -9.6391,-7.01705 -11.6233,-6.38532 -12.64321,4.02531 -0.43534,4.44368 -2.2702,9.81136 -6.05206,17.7047 -6.66413,13.90911 -10.04842,18.06811 -16.11213,19.80047 -6.61285,1.88926 -7.38762,2.795 -7.38762,8.63653 0,5.06747 -0.19307,5.3696 -6.62148,10.36172 -7.36013,5.71565 -11.82455,11.31342 -16.92115,21.21684 -2.90422,5.64329 -3.48918,8.16981 -3.89942,16.84203 -0.71058,15.02102 0.29918,19.96663 4.97749,24.37884 3.70819,3.49729 3.92097,4.11453 4.71256,13.67078 1.08414,13.08813 1.98882,14.03295 14.69157,15.34353 10.85085,1.11951 12.3603,1.78055 25.04041,10.96601 10.81982,7.83786 17.31709,10.50214 31.37903,12.86735 11.52509,1.93851 21.84379,3.91902 21.9689,4.21657 0.0456,0.10849 0.74658,6.32261 1.5577,13.80914 1.82372,16.83259 4.76242,23.68292 12.92889,30.13814 8.91542,7.04723 22.36742,9.85289 27.46187,5.72766 7.07114,-5.72587 4.21682,-27.51032 -5.70442,-43.53683 l -2.48739,-4.01804 3.27462,-4.08391 c 1.80104,-2.24615 5.44732,-7.1502 8.10285,-10.89787 l 4.82824,-6.81398 -0.50889,-8.87475 c -0.7343,-12.80576 -5.74594,-25.12522 -13.72876,-33.74761 l -6.04866,-6.53328 3.10184,-4.69155 c 4.87694,-7.37639 4.29569,-14.90937 -2.32259,-30.10078 -2.87004,-6.58781 -5.06015,-12.81212 -4.8669,-13.8318 0.22022,-1.16205 1.58675,-1.95516 3.66152,-2.12508 1.82059,-0.14911 7.44999,-1.09066 12.50977,-2.09234 l 9.1996,-1.82123 3.52565,2.61866 c 12.71663,9.44522 14.14307,10.08068 21.74187,9.6857 l 7.19267,-0.37388 0.84203,5.81232 c 1.18823,8.20184 4.86977,18.20068 7.50354,20.37912 2.5406,2.10137 10.60683,4.04876 20.75432,5.0106 5.6906,0.53939 7.31337,0.30733 9.08922,-1.29979 3.89475,-3.52471 5.84883,-10.73402 5.38721,-19.8754 -0.23238,-4.60187 -0.32097,-8.36704 -0.19687,-8.36704 1.29497,0 20.32472,16.49847 32.49489,28.17253 8.8883,8.52596 17.4891,15.76892 20.39633,17.17629 2.76489,1.33845 9.88036,3.26172 15.81218,4.27392 10.06607,1.71767 10.81062,2.0245 11.16776,4.60231 0.21047,1.51907 0.89387,3.38438 1.51867,4.14513 1.74079,2.11955 7.36862,1.64753 11.60997,-0.97377 4.82486,-2.98193 13.67956,-2.31232 17.55393,1.32744 3.36794,3.16403 7.43457,12.86626 6.66988,15.91308 -0.33816,1.34734 -3.52746,6.02325 -7.08732,10.39092 -5.04492,6.18971 -7.15567,9.99726 -9.57007,17.26321 -4.31464,12.98456 -7.7307,15.77494 -28.04851,22.91113 -12.77324,4.48632 -24.65239,10.01217 -29.54359,13.74286 -4.69955,3.58453 -18.19031,23.33055 -21.04284,30.79978 -1.53286,4.01373 -1.76355,6.1819 -0.99062,9.31018 0.9806,3.96876 1.15825,4.08674 6.63519,4.40611 l 5.6276,0.32817 7.65092,-8.62073 c 9.63659,-10.8581 11.00884,-12.02508 16.81247,-14.2976 3.74096,-1.46484 5.30948,-1.59265 7.46917,-0.60863 2.56663,1.16944 2.73378,1.77239 2.73378,9.86141 0,9.91617 1.92786,14.62923 8.95948,21.90346 2.37548,2.45743 4.31905,5.22313 4.31905,6.14598 0,2.48421 -5.88759,11.31821 -9.36762,14.0556 -4.25721,3.34872 -9.54299,4.12488 -13.64504,2.00364 -3.2529,-1.68215 -3.98927,-2.89926 -11.21239,-18.53263 -2.47458,-5.35586 -4.29967,-6.43825 -10.90215,-6.46573 -5.78911,-0.0241 -10.72794,2.61169 -12.67543,6.76466 -0.96264,2.05282 -2.32098,7.71596 -3.01851,12.58475 -3.26666,22.80125 -5.8831,25.64707 -32.12853,34.94513 -9.60551,3.40299 -11.27565,4.44895 -19.36451,12.12742 -11.24327,10.67285 -13.44165,12.12524 -24.89723,16.44875 -13.3937,5.05499 -14.38506,5.84773 -14.38506,11.50296 0,2.58925 0.75936,5.79186 1.68746,7.11693 1.63272,2.33102 1.53396,2.44871 -3.04299,3.62688 -10.44275,2.68808 -15.31822,4.71594 -20.08019,8.35198 -2.74371,2.09499 -5.26741,3.80906 -5.60822,3.80906 -0.34081,0 -0.61965,-1.39924 -0.61965,-3.10941 z"
       id="path2"
       transform="scale(0.26458333)" /><path
       style="fill:#ffffff;stroke:#000000;stroke-width:5.8551"
       d="m 489.64553,896.45375 c 0,-0.17884 1.24487,-3.3888 2.76636,-7.13322 1.5215,-3.74443 2.76636,-8.80972 2.76636,-11.25621 v -4.44816 h 4.51129 c 3.51078,0 5.22865,-0.71735 7.74581,-3.23452 5.3957,-5.39571 3.92486,-13.33274 -4.12713,-22.27107 -5.71382,-6.34276 -11.23562,-8.5619 -24.88128,-9.99948 -6.30605,-0.66435 -13.93783,-1.53894 -16.95953,-1.94353 l -5.49396,-0.73562 -2.87504,-7.74158 c -4.11643,-11.08428 -5.03608,-12.43921 -10.24135,-15.0887 -2.56619,-1.30619 -7.17843,-4.51816 -10.24942,-7.1377 -7.03102,-5.99743 -9.95053,-7.09277 -18.90512,-7.09277 -8.32364,0 -9.84129,0.65675 -18.25069,7.89767 l -6.22348,5.35875 -4.84196,-1.51421 c -2.66307,-0.83282 -11.0523,-3.86416 -18.64274,-6.7363 -19.0811,-7.22011 -25.34289,-8.65128 -60.53203,-13.83491 -53.08123,-7.81928 -67.29185,-10.98821 -97.57916,-21.75985 -33.54474,-11.93013 -94.38527,-37.129 -122.660807,-50.80353 -16.756314,-8.10363 -15.263269,-6.28034 -23.598175,-28.81785 -3.12884,-8.46036 -7.187725,-18.0762 -9.019743,-21.36854 -3.164525,-5.68702 -3.272634,-6.29514 -2.163872,-12.17198 0.641888,-3.40225 1.970014,-13.15713 2.95139,-21.67751 2.366031,-20.54207 2.858574,-22.12322 9.433174,-30.28222 7.17155,-8.89981 9.894835,-13.38153 9.900041,-16.29251 0.0023,-1.27214 -1.548389,-5.41986 -3.445919,-9.21716 l -3.450055,-6.90416 2.315013,-14.57354 c 1.273257,-8.01544 2.914788,-21.62081 3.647846,-30.23413 1.221109,-14.34785 1.172269,-15.90567 -0.582644,-18.584 -2.343551,-3.57672 -5.93502,-5.0377 -12.383935,-5.0377 -2.699076,0 -4.90741,-0.18636 -4.90741,-0.41414 0,-0.22779 0.746916,-2.53115 1.659815,-5.11858 2.214304,-6.276 2.091999,-10.85633 -0.421534,-15.78648 l -2.08135,-4.08245 28.960556,-28.51792 c 33.864549,-33.34697 58.598819,-56.73478 60.001049,-56.73478 0.54562,0 1.86779,2.46572 2.93815,5.47938 2.28581,6.43586 6.3599,11.61734 11.03563,14.03525 1.99444,1.03137 9.87601,2.35488 19.50934,3.27612 24.95363,2.38631 23.00436,1.66418 24.45392,9.05923 2.58903,13.20813 6.32646,17.73573 15.58723,18.8827 5.77302,0.715 5.86742,0.78893 10.33855,8.09617 5.79755,9.47502 7.67092,11.46303 14.09874,14.96148 l 5.28389,2.87585 -2.73233,3.24719 c -4.19615,4.98684 -3.72012,10.09577 1.41957,15.23547 3.3654,3.36539 6.50743,4.91339 16.58653,8.17175 11.19325,3.61853 23.31531,6.14563 29.76578,6.2053 1.73962,0.0161 2.83929,-1.152 4.1364,-4.39379 l 1.76682,-4.41572 4.71595,5.13946 c 5.33785,5.81719 9.58906,7.93118 33.35795,16.58785 20.57053,7.49182 25.21608,8.26805 28.88034,4.82567 1.46821,-1.37933 2.97581,-3.90255 3.35021,-5.60717 0.3744,-1.70462 1.91784,-3.90989 3.42987,-4.9006 9.71143,-6.36319 9.34895,-18.36835 -1.01948,-33.7646 -3.31242,-4.91864 -3.73023,-6.22981 -2.90361,-9.11207 0.53106,-1.85168 1.20072,-3.60186 1.48815,-3.88929 0.65176,-0.65177 2.85529,4.58931 6.16143,14.65495 5.18476,15.78513 10.26115,22.68414 16.69128,22.68414 2.94058,0 3.12617,0.30921 3.8189,6.36263 1.58434,13.84502 3.92825,17.98133 10.18937,17.98133 3.06684,0 3.67324,0.36367 3.22896,1.93645 -0.30086,1.06505 -0.89384,4.1772 -1.31775,6.9159 -0.92178,5.95524 -6.16417,18.24445 -11.21548,26.29139 -2.9346,4.67492 -4.83419,6.34245 -9.65263,8.47339 -6.50686,2.87764 -8.39949,5.25882 -8.39949,10.5677 0,2.84411 -1.59324,4.98358 -9.3364,12.53738 -7.52366,7.33967 -10.14307,10.8067 -13.49119,17.85688 -3.87108,8.15141 -4.18718,9.59492 -4.62909,21.13989 -0.53389,13.94818 0.51178,18.64795 5.3836,24.19666 2.59567,2.95629 3.3448,5.18797 4.30076,12.81194 1.76476,14.0742 3.53428,15.88789 17.37982,17.81363 9.79093,1.36179 11.33044,2.04478 23.89694,10.6016 12.23205,8.32909 16.26617,9.90151 34.88856,13.5989 8.7453,1.73635 16.18784,3.44426 16.53894,3.79538 0.35112,0.35112 1.29242,5.68886 2.0918,11.86167 1.93712,14.95846 4.07526,20.90379 9.81272,27.28522 7.02033,7.80831 15.64836,11.78963 25.66216,11.84158 6.83636,0.0354 8.31315,-0.31819 10.70607,-2.56376 7.35309,-6.90031 5.94096,-25.6359 -3.30916,-43.90424 l -2.86806,-5.66424 7.3166,-9.87598 c 7.27348,-9.81777 7.31666,-9.91897 7.32561,-17.16815 0.0108,-8.76858 -3.42074,-22.90289 -7.07383,-29.1364 -1.45995,-2.49123 -4.60144,-6.95621 -6.98108,-9.92218 l -4.32662,-5.39267 2.2725,-4.55824 c 3.69421,-7.40998 2.97433,-15.55836 -2.63309,-29.80437 -2.59084,-6.58218 -4.53565,-12.08945 -4.32181,-12.23838 0.21384,-0.14893 4.73909,-1.08188 10.05612,-2.07323 l 9.66733,-1.80246 8.33915,5.69092 c 7.51698,5.12984 9.04579,5.73591 15.50654,6.1473 6.04434,0.38488 7.16738,0.77401 7.16738,2.48344 0,4.42807 5.6153,19.53781 8.14364,21.91307 4.8673,4.57259 26.32694,8.35933 32.6142,5.75507 4.54577,-1.88292 8.0925,-8.88383 8.76877,-17.30873 l 0.56498,-7.03846 2.89443,2.25651 c 1.59194,1.24108 10.05798,8.81032 18.81341,16.82052 24.20981,22.14914 25.62553,23.01386 43.09324,26.32126 5.52071,1.04532 7.20064,1.84178 7.92976,3.75952 2.47346,6.50568 8.02766,7.69905 17.83719,3.8325 7.18563,-2.83231 11.14529,-2.08568 14.87554,2.80493 5.12257,6.71604 4.76016,9.96197 -2.16338,19.37662 -3.35674,4.56449 -7.92887,12.697 -10.16031,18.07225 -4.92731,11.86932 -7.65726,14.16179 -23.974,20.13223 -16.36452,5.98791 -28.50792,11.79876 -33.12081,15.84893 -4.82433,4.23581 -16.50207,21.01845 -20.29676,29.16941 -4.57652,9.83037 -3.11103,18.09349 3.59661,20.27941 3.37917,1.10122 3.4295,1.20314 1.26264,2.55637 -3.3195,2.07305 -6.11058,9.31922 -8.16351,21.19391 -3.16514,18.30808 -5.58453,20.93168 -26.6134,28.85981 -12.22593,4.60932 -13.64318,5.47617 -24.71027,15.11379 -10.40877,9.06435 -13.02977,10.74222 -23.10748,14.7925 -13.98813,5.6219 -16.17,7.90055 -15.49116,16.17824 l 0.47445,5.78538 -6.17503,1.76953 c -3.39628,0.97325 -7.79336,2.71005 -9.77131,3.85958 -1.97795,1.14951 -3.59627,1.94369 -3.59627,1.76484 z"
       id="path3"
       transform="scale(0.26458333)" /><path
       style="fill:#ffffff;stroke:#000000;stroke-width:5.8551"
       d="m 317.15353,472.77074 c -1.78627,-1.97794 -4.98388,-5.57322 -7.10579,-7.98951 l -3.85803,-4.39324 -7.53225,3.09327 c -8.39712,3.44844 -20.32763,4.91413 -25.03366,3.07544 -1.89828,-0.74168 -3.287,-2.31656 -3.75553,-4.25898 -0.4089,-1.69518 -2.18645,-5.9724 -3.95012,-9.50495 l -3.20667,-6.42281 6.62249,0.74925 c 9.3633,1.05934 12.28137,0.13664 12.28137,-3.88336 0,-2.40163 -1.1673,-4.21149 -4.62535,-7.17145 -2.54394,-2.17753 -5.26531,-3.95913 -6.04749,-3.95913 -0.78217,0 -3.18226,-1.54542 -5.33354,-3.43426 -3.17063,-2.78386 -3.9114,-4.21954 -3.9114,-7.58069 0,-8.08928 1.65199,-10.53306 8.61818,-12.74878 11.84592,-3.76781 13.56189,-3.92646 17.85119,-1.6505 8.51833,4.51995 9.29859,5.66138 10.18035,14.89259 0.80565,8.43436 2.84488,12.73472 6.0388,12.73472 0.77188,0 2.8746,-1.23791 4.6727,-2.75091 3.297,-2.77424 5.73543,-9.418 5.76981,-15.72042 0.0132,-2.41217 0.25663,-2.73538 1.0896,-1.44645 0.58996,0.9129 1.08028,7.69739 1.0896,15.07666 0.022,17.43745 0.4966,19.39613 6.25004,25.79534 2.65779,2.9561 4.83234,5.7758 4.83234,6.26601 0,0.4902 -1.53615,2.47619 -3.41368,4.4133 -3.35126,3.45762 -3.38109,3.58505 -1.6314,6.96858 1.70802,3.30294 1.69007,3.44655 -0.43076,3.44655 -1.21717,0 -3.67453,-1.61832 -5.4608,-3.59627 z"
       id="path4"
       transform="scale(0.26458333)" /><path
       style="fill:#ffffff;stroke:#000000;stroke-width:1.5002"
       d="m 231.22622,404.50014 c -1.30599,-4.85007 -2.11276,-13.71622 -1.41623,-15.56373 0.48496,-1.2863 1.74273,-2.4127 8.52465,-7.63429 8.8953,-6.84874 11.52303,-9.67317 12.44745,-13.37921 0.16731,-0.67076 0.48414,-1.28861 0.70408,-1.37301 0.60438,-0.23192 3.07091,0.67692 4.18663,1.54265 1.4078,1.09237 2.91911,3.23668 3.48767,4.94845 0.70333,2.11753 2.78224,4.08888 6.03447,5.72224 3.03799,1.52578 4.64519,2.87936 5.55823,4.68116 0.79091,1.56078 1.53191,5.55155 1.10927,5.97418 -0.38052,0.38052 -3.22156,1.1475 -8.89805,2.40216 -11.48953,2.53951 -14.54224,3.67109 -17.56113,6.50962 -2.68695,2.52641 -4.88325,3.81651 -9.84625,5.78363 -4.26233,1.68941 -3.98648,1.66481 -4.33079,0.38615 z"
       id="path5"
       transform="scale(0.26458333)" /><path
       style="fill:#ffffff;stroke:#000000;stroke-width:0.143812"
       d="m 279.92468,349.80119 c -0.18797,-0.0276 -0.47284,-0.13332 -0.69757,-0.259 -0.59165,-0.33087 -1.31194,-1.09557 -1.43693,-1.52553 -0.16533,-0.56873 0.38197,-1.04233 1.40266,-1.21378 0.14201,-0.0239 0.49669,-0.0555 0.78818,-0.0703 0.39128,-0.0199 0.60822,-0.0448 0.82895,-0.0952 1.36239,-0.31126 3.21278,-1.19952 5.05523,-2.42671 0.82997,-0.55282 1.27649,-0.88985 2.35095,-1.77447 2.76783,-2.27881 5.04529,-3.22798 6.7185,-2.80005 0.4226,0.10809 1.31073,0.51734 1.61907,0.74607 0.2159,0.16016 0.30536,0.32041 0.25148,0.45048 -0.12142,0.29312 -0.78401,0.6039 -2.21276,1.03784 -0.3454,0.10491 -0.84157,0.25828 -1.10259,0.34083 -1.9734,0.62406 -5.03626,2.22035 -7.2031,3.75407 -0.20196,0.14295 -0.64849,0.47634 -0.9923,0.74087 -1.58036,1.21595 -3.03151,2.17148 -4.12854,2.71851 -0.66817,0.33318 -0.95109,0.41898 -1.24123,0.37644 z"
       id="path6"
       transform="scale(0.26458333)" /><path
       style="fill:#ffffff;stroke:#000000;stroke-width:0.293058"
       d="m 301.00397,384.95055 c -0.35262,-0.0502 -0.57099,-0.13417 -0.57099,-0.21946 0,-0.16147 1.01792,-0.72532 2.35383,-1.30385 2.45224,-1.06197 3.91385,-2.09296 4.70893,-3.32159 0.5574,-0.86135 0.7212,-1.48204 0.67672,-2.56429 -0.0336,-0.81677 -0.18442,-1.41195 -0.53372,-2.10575 -0.39834,-0.79121 -0.87724,-1.33344 -1.41809,-1.60558 -0.86682,-0.43617 -4.9718,-1.27913 -9.49843,-1.95051 -3.57109,-0.52965 -6.4213,-1.33905 -7.62033,-2.16401 -0.47636,-0.32774 -0.5303,-0.59276 -0.23844,-1.1716 0.88516,-1.75556 3.93571,-4.87338 7.77569,-7.94716 2.10489,-1.68489 3.39952,-2.38364 4.19527,-2.26431 0.74816,0.11219 1.39968,0.99608 1.92069,2.60571 0.40348,1.24651 0.62686,2.49098 0.72119,4.01772 0.058,0.93893 0.16139,1.41678 0.48374,2.23603 0.71174,1.80892 2.07675,3.93132 3.54874,5.51779 2.19529,2.36603 5.27066,4.52559 7.1371,5.01173 0.92915,0.24201 2.35075,-0.0631 3.87694,-0.83215 0.83917,-0.42284 1.46442,-0.84124 2.16295,-1.44737 1.16082,-1.00727 1.61909,-1.29222 2.07825,-1.29222 0.15223,0 0.36207,0.0405 0.46632,0.0899 0.49742,0.23604 1.30741,1.40491 2.18462,3.15253 0.66933,1.33349 0.99333,2.44198 0.99333,3.39848 0,0.75912 -0.19968,1.26771 -0.60495,1.54082 -0.8521,0.57424 -5.47858,1.36343 -10.9427,1.86664 -2.39927,0.22095 -5.53686,0.44379 -9.38767,0.66674 -1.82406,0.10561 -4.03207,0.14795 -4.46899,0.0857 z"
       id="path7"
       transform="scale(0.26458333)" /><path
       style="fill:#ffffff;stroke:#000000;stroke-width:0.432717"
       d="m 358.20203,343.38845 c -0.12992,-0.12992 -0.17595,-0.30873 -0.26335,-1.02307 -0.0785,-0.64207 -0.37533,-1.16656 -1.01962,-1.80196 -0.68696,-0.67749 -1.61611,-1.30124 -2.85937,-1.91954 -1.85951,-0.92477 -2.64953,-1.61178 -3.19669,-2.77989 -0.39722,-0.848 -0.55729,-1.65625 -0.64745,-3.26925 -0.0849,-1.5187 0.0178,-4.69531 0.16464,-5.09432 0.2595,-0.70504 0.71795,-0.49744 2.56483,1.16146 1.66001,1.49105 3.3472,4.24118 4.44354,7.243 0.64645,1.76999 1.23595,4.54038 1.30875,6.15046 0.04,0.88524 0.0268,1.07011 -0.0892,1.24712 -0.15676,0.23925 -0.23604,0.25604 -0.40609,0.086 z"
       id="path8"
       transform="scale(0.26458333)" /><path
       style="fill:#ffffff;stroke:#000000;stroke-width:1.74804"
       d="m 399.56781,361.14507 c -0.93604,-0.31921 -1.1743,-0.58305 -1.25104,-1.38538 -0.10136,-1.05973 0.55068,-2.24225 4.01224,-7.27653 2.66079,-3.86967 3.52694,-6.50813 3.8457,-11.71474 0.2905,-4.7451 0.7747,-6.22215 2.35745,-7.19148 1.08315,-0.66334 6.55788,-2.45349 8.87498,-2.90196 1.66175,-0.32163 3.50728,-1.42818 3.93027,-2.35654 0.51893,-1.13893 0.45051,-3.8873 -0.13145,-5.28013 -0.87475,-2.09357 -3.30377,-5.1613 -7.9242,-10.00786 -4.91115,-5.15152 -7.1526,-8.09196 -9.07825,-11.90927 -2.7734,-5.49782 -6.25814,-15.49535 -7.12288,-20.43512 -0.61578,-3.51758 -0.35231,-4.14016 2.90549,-6.86558 10.57571,-8.84748 25.68841,-17.10966 36.45358,-19.92932 3.56145,-0.93283 6.17433,-0.88679 8.24544,0.14528 3.71403,1.85078 8.11232,7.1105 8.5857,10.26726 0.24732,1.64922 -0.006,2.50035 -3.83215,12.88099 -4.97036,13.48458 -8.61211,21.42574 -12.58675,27.44657 -2.6025,3.94228 -4.18007,7.04538 -4.46059,8.77402 -0.25361,1.56285 1.18104,5.69325 3.24439,9.3407 0.92083,1.62777 1.74954,3.52105 1.84159,4.20728 0.19681,1.46734 -0.27216,2.174 -4.23419,6.38025 -1.40717,1.49391 -2.80817,3.19903 -3.11333,3.78915 -0.84817,1.64017 -0.93512,3.94835 -0.37984,10.08344 0.56492,6.2416 0.40255,8.05214 -0.8329,9.28759 -1.0911,1.0911 -5.81685,2.23667 -13.52858,3.27946 -3.43912,0.46505 -7.47655,1.06088 -8.97207,1.32407 -3.23658,0.5696 -5.27681,0.58386 -6.84861,0.0478 z"
       id="path9"
       transform="scale(0.26458333)" /><path
       style="fill:#ffffff;stroke:#000000;stroke-width:1.05383"
       d="m 401.11155,395.53343 c -8.91433,-0.6476 -11.65661,-1.14791 -13.696,-2.49874 -1.90478,-1.26167 -2.92683,-4.68237 -2.93138,-9.81099 -0.001,-1.66433 0.0875,-3.11918 0.20418,-3.33712 0.18878,-0.35274 0.25467,-0.36164 0.75639,-0.10219 0.30228,0.15631 1.94288,1.61761 3.64577,3.24733 4.84124,4.6332 6.29269,5.40819 10.45601,5.58288 4.49893,0.18877 9.12513,-0.84485 14.91854,-3.33321 3.16764,-1.36054 6.86028,-2.60541 7.8449,-2.64467 2.02348,-0.0807 4.37898,2.92364 5.02306,6.40667 0.17425,0.94232 0.15131,1.14093 -0.184,1.5933 -1.11703,1.50695 -6.72405,3.48271 -13.36381,4.70902 -3.81609,0.70481 -5.26121,0.72621 -12.67366,0.18772 z"
       id="path10"
       transform="scale(0.26458333)" /><path
       style="fill:#ffffff;stroke:#000000;stroke-width:1.05383"
       d="m 545.84926,562.23383 c -2.19101,-0.39716 -4.1053,-1.02195 -6.45977,-2.10836 -1.17206,-0.54081 -3.00933,-1.22857 -4.08281,-1.52834 -1.88567,-0.52657 -2.09491,-0.54316 -6.17593,-0.48979 -3.2408,0.0424 -4.37712,-0.009 -4.88136,-0.21936 -1.5122,-0.63184 -7.14695,-4.70812 -15.88929,-11.49459 -3.52672,-2.7377 -9.12015,-6.54649 -11.42028,-7.77651 -1.0647,-0.56936 -1.80798,-0.83518 -2.3353,-0.83518 -1.54362,0 -5.55886,2.30691 -9.44675,5.42752 -3.53538,2.83766 -7.5029,5.14537 -9.16902,5.33317 -2.79688,0.31525 -3.65364,-1.81932 -1.71475,-4.2722 1.88337,-2.38263 4.70051,-4.40446 11.87957,-8.52585 4.15043,-2.3827 5.31103,-3.23037 5.97567,-4.36449 0.72465,-1.23653 0.87118,-1.86965 1.08708,-4.69688 0.29325,-3.84017 1.02866,-6.02091 3.69396,-10.95389 1.36391,-2.52435 2.48328,-7.02346 2.48637,-9.99346 0.004,-4.23048 -1.62246,-8.72137 -4.98309,-13.75572 -2.97985,-4.46392 -7.65081,-9.7151 -10.60189,-11.91883 -1.69288,-1.26416 -4.36047,-2.68313 -5.41666,-2.88127 -1.48694,-0.27895 -4.04891,0.94395 -6.68945,3.19308 -0.81671,0.69564 -1.51299,1.23708 -1.54729,1.20321 -0.0343,-0.0339 0.3093,-0.80084 0.76358,-1.70436 0.93935,-1.86827 1.47409,-4.05942 1.28345,-5.25908 -0.19209,-1.20883 -0.83612,-2.0455 -3.13477,-4.07245 -5.93723,-5.23544 -15.3676,-11.97051 -16.76098,-11.97051 -0.75768,0 -2.33313,0.64777 -6.0157,2.47345 -4.52913,2.24538 -6.48134,2.85911 -10.47053,3.29168 -2.4824,0.26918 -10.06223,0.27078 -12.7331,0.003 -16.78342,-1.68469 -24.06854,-6.17656 -27.12329,-16.72373 -0.76314,-2.63491 -0.82053,-3.59212 -0.35256,-5.88053 0.83521,-4.08417 2.57418,-8.62628 5.58763,-14.59465 3.41774,-6.76908 5.96082,-10.894 6.42819,-10.42663 0.26441,0.26441 -0.0173,2.22977 -1.1467,8.00025 -1.57989,8.07218 -1.75371,9.27097 -1.76151,12.14886 -0.007,2.52634 0.032,2.80292 0.64276,4.58071 1.52094,4.42692 3.38284,6.3683 6.11116,6.37207 1.79338,0.002 4.77142,-1.14947 5.38243,-2.08199 1.02393,-1.56273 1.46872,-4.83542 1.68416,-12.39181 0.24612,-8.63266 0.49714,-10.01494 2.26982,-12.49913 1.74301,-2.44261 5.14138,-5.0053 6.43823,-4.85503 0.46416,0.0538 0.69111,0.34813 1.58403,2.0544 0.57323,1.09539 1.68048,3.60483 2.46055,5.57653 2.51158,6.34824 4.71026,10.07363 6.46485,10.95389 0.58722,0.2946 1.157,0.39242 2.1881,0.37564 1.7963,-0.0292 3.86517,-0.72295 8.56395,-2.87168 4.32825,-1.97928 5.49334,-2.39895 6.69503,-2.41158 1.21429,-0.0128 1.70292,0.26803 4.03508,2.31884 4.05357,3.56455 7.46454,5.15568 16.2563,7.58314 7.43677,2.05334 13.90027,5.21566 23.05213,11.27846 7.05911,4.67643 8.90003,6.16391 9.82852,7.94157 0.43383,0.83061 0.46035,1.10344 0.47272,4.86321 0.012,3.65803 0.0499,4.07505 0.46441,5.10791 0.56848,1.41671 1.78373,2.8068 3.32418,3.80244 1.69777,1.09732 6.50224,3.49774 9.66102,4.82685 5.38137,2.26431 15.24195,5.393 22.60485,7.17235 10.56096,2.55222 12.23191,3.82863 12.85958,9.82323 0.1739,1.66088 0.17251,2.77842 -0.006,4.64733 -0.37962,3.97932 -1.44624,8.49893 -2.27236,9.62871 -0.26494,0.36233 -0.30826,0.35986 -1.54336,-0.088 -1.73366,-0.62861 -5.25189,-2.41513 -8.83892,-4.48831 -6.72043,-3.8842 -12.03609,-6.00648 -16.22085,-6.4762 -3.17294,-0.35615 -4.38499,0.0455 -5.19237,1.72061 -0.93106,1.93173 -0.43769,5.06157 1.51836,9.63232 1.86281,4.35287 5.94341,11.08451 7.65851,12.634 1.06924,0.96599 4.1194,2.42144 7.4696,3.56428 4.09111,1.39559 6.57104,2.83045 9.81707,5.68007 1.47393,1.29394 4.29224,4.74713 6.49286,7.95551 2.31898,3.38095 4.40896,7.60853 3.76141,7.60853 -0.0717,0 -1.08,-0.30628 -2.24057,-0.68063 -7.50307,-2.42014 -20.62416,-3.56093 -23.00609,-2.00023 -0.24121,0.15805 -0.65717,0.66906 -0.92436,1.13558 -0.4271,0.74575 -0.48578,1.0918 -0.48578,2.86471 v 2.01649 l 0.79664,1.15744 c 1.35721,1.97187 3.88659,3.80081 10.23744,7.40243 3.76744,2.13655 5.09973,2.97192 5.70496,3.57716 0.31799,0.31799 0.31592,0.34678 -0.0349,0.48461 -0.58491,0.22983 -3.01814,0.16452 -4.60813,-0.1237 z"
       id="path11"
       transform="scale(0.26458333)" /><path
       style="fill:#ffffff;stroke:#000000;stroke-width:1.05383"
       d="m 369.93705,428.55192 c -0.66164,-0.1475 -0.87851,-0.90717 -0.95412,-3.34223 -0.12709,-4.09273 0.64669,-7.22972 2.70181,-10.95347 1.14468,-2.07409 0.94748,-2.01548 3.93412,-1.16938 2.67336,0.75734 5.22767,2.04937 6.25505,3.16395 0.82192,0.89167 0.84999,0.964 0.72067,1.85656 -0.18179,1.25465 -1.15635,4.14358 -1.87354,5.55378 -1.24226,2.44266 -3.08594,3.83463 -5.09149,3.84408 -0.91121,0.004 -3.25273,0.45948 -4.79057,0.93128 -0.32862,0.10081 -0.73448,0.15276 -0.90193,0.11543 z"
       id="path12"
       transform="scale(0.26458333)" /><path
       style="fill:#ffffff;stroke:#000000;stroke-width:1.05383"
       d="m 346.03907,443.48319 c -1.67236,-1.89519 -5.27818,-8.81861 -5.51589,-10.5909 -0.1658,-1.23607 0.0362,-1.6508 1.68478,-3.45956 1.79571,-1.97017 2.79876,-3.54153 3.16712,-4.9616 0.40025,-1.54301 -0.20621,-4.13465 -1.62075,-6.92611 -1.01299,-1.99905 -0.64954,-2.27735 2.98609,-2.28648 1.42401,-0.004 2.9241,0.0646 3.33354,0.15143 1.15134,0.24427 1.22944,0.6206 0.54751,2.63803 -1.14427,3.3852 -1.15229,5.37537 -0.0493,12.24073 0.87614,5.45336 0.65808,9.04681 -0.6884,11.34439 -0.70641,1.20541 -2.21726,2.79609 -2.65576,2.79609 -0.19478,0 -0.7298,-0.42571 -1.18893,-0.94602 z"
       id="path13"
       transform="scale(0.26458333)" /><path
       style="fill:#ffffff;stroke:#000000;stroke-width:3.98258"
       d="m 539.65698,559.21192 c -3.04872,-1.20827 -6.10547,-1.8033 -9.40825,-1.83141 -5.76045,-0.049 -5.92628,-0.13698 -19.29191,-10.23061 -11.04447,-8.34071 -15.03166,-10.55431 -17.77188,-9.86655 -1.03094,0.25874 -4.0363,1.99784 -6.67859,3.86465 -5.27117,3.72414 -9.95418,6.41191 -11.17178,6.41191 -1.42489,0 -0.8127,-2.02266 1.23062,-4.06598 1.10729,-1.10729 4.76255,-3.67391 8.12279,-5.70359 7.8451,-4.73867 8.80262,-5.86062 9.52792,-11.16413 0.32753,-2.39502 1.67326,-6.65764 2.99049,-9.47249 1.69244,-3.61668 2.5028,-6.62508 2.76258,-10.25603 0.33002,-4.61235 0.12433,-5.65805 -2.01019,-10.21939 -4.48917,-9.59316 -14.61586,-20.01894 -19.56814,-20.14611 -1.07638,-0.0276 -2.71914,0.21571 -3.65056,0.54078 -1.50934,0.52676 -1.69348,0.34737 -1.69348,-1.64983 0,-1.67621 -0.8544,-3.05515 -3.39076,-5.47246 -4.95251,-4.72004 -15.34729,-11.95727 -17.17414,-11.95727 -0.86715,0 -4.40524,1.21491 -7.86244,2.69981 -6.09366,2.61727 -6.56628,2.69873 -15.46049,2.66449 -9.3119,-0.0358 -18.00848,-1.60297 -22.8825,-4.12342 -3.30645,-1.70983 -6.28733,-5.02569 -8.22005,-9.14381 -2.17209,-4.62814 -2.21034,-6.67566 -0.23429,-12.54146 1.79433,-5.3264 7.4049,-16.76722 7.95357,-16.21856 0.20523,0.20523 -0.15487,3.15662 -0.80022,6.55864 -0.64535,3.40202 -1.16593,7.58753 -1.15684,9.30115 0.0211,3.9856 2.30697,9.02833 4.8468,10.69249 1.6927,1.1091 2.40968,1.1675 4.9584,0.40388 4.37494,-1.31076 5.16558,-3.0681 5.64684,-12.55118 0.22957,-4.52361 0.58501,-9.33051 0.78986,-10.68199 0.38767,-2.55761 4.80689,-7.70367 6.61558,-7.70367 0.54819,0 2.28186,3.10055 3.85261,6.8901 3.57506,8.62513 5.98408,11.50493 9.53982,11.40414 1.42183,-0.0403 5.056,-1.12473 8.07593,-2.40982 3.01994,-1.2851 6.08615,-2.33654 6.8138,-2.33654 0.72766,0 2.6397,1.04908 4.24899,2.33128 4.0598,3.23467 5.49204,3.89707 15.34485,7.09686 4.76057,1.54604 10.17972,3.57755 12.04255,4.51447 4.2991,2.16225 18.91535,11.79526 20.04728,13.21238 0.46996,0.58836 0.99336,3.34501 1.16312,6.12588 0.2484,4.06915 0.6693,5.44318 2.15618,7.03885 3.86837,4.15142 15.00855,8.63467 38.00824,15.29601 7.2923,2.11204 8.71662,3.76004 8.71662,10.08544 0,4.55399 -1.18645,11.07011 -2.01563,11.07011 -0.19702,0 -4.6717,-2.18361 -9.94374,-4.85248 -9.92309,-5.02338 -15.69418,-6.86202 -18.96309,-6.04158 -2.522,0.63298 -3.01609,1.57363 -3.02979,5.76811 -0.009,2.73003 0.77991,5.07806 3.48203,10.36468 4.13964,8.0991 6.57116,10.43241 13.71701,13.16299 6.32027,2.41511 11.46921,6.74418 15.88306,13.35397 1.6862,2.5251 2.92475,4.73216 2.75233,4.90458 -0.17242,0.17242 -2.87487,-0.21558 -6.00543,-0.86221 -7.07966,-1.46235 -17.28496,-1.57176 -18.42545,-0.19755 -0.4465,0.538 -1.02833,2.33222 -1.29297,3.98717 -0.45036,2.81637 -0.28467,3.18652 2.5881,5.78189 1.68809,1.52508 4.93803,3.82755 7.22208,5.11659 2.28406,1.28905 4.15283,2.48073 4.15283,2.6482 0,0.72741 -2.96401,0.0677 -7.15027,-1.59138 z"
       id="path15"
       transform="scale(0.26458333)" /><path
       style="fill:#ffffff;stroke:#000000;stroke-width:1.62748"
       d="m 423.68368,525.16809 c -4.14236,-3.02413 -7.31275,-4.62267 -9.57494,-4.8278 l -1.82227,-0.16524 1.94829,-2.03264 c 2.3142,-2.41441 4.58149,-5.54177 5.39704,-7.44438 0.9929,-2.31634 1.55932,-5.47885 2.20698,-12.32231 0.34168,-3.61038 0.78092,-7.71894 0.97607,-9.13014 l 0.35482,-2.56582 0.94905,0.18231 c 0.52197,0.10027 1.9871,0.70126 3.25585,1.33552 2.67978,1.33966 2.6509,1.23891 1.52052,5.30547 -0.53352,1.91936 -0.72493,3.39116 -0.71999,5.53633 0.008,3.42942 0.51004,4.96766 2.92615,8.96391 1.98249,3.27902 3.34753,5.95709 3.34753,6.56751 0,1.22621 -4.69291,9.11491 -6.9923,11.75393 l -0.85085,0.97652 z"
       id="path16"
       transform="scale(0.26458333)" /><path
       style="fill:#ffffff;stroke:#000000;stroke-width:1.62748"
       d="m 418.87566,575.4767 c -0.0963,-0.25095 0.0469,-1.75839 0.31814,-3.34985 0.27127,-1.59146 0.69088,-5.57299 0.93245,-8.84784 0.51333,-6.95892 1.13407,-9.44996 2.79318,-11.20913 0.93248,-0.98872 1.18903,-1.10412 2.06781,-0.9301 1.37166,0.27163 4.82304,2.30862 11.92213,7.03638 5.98395,3.98511 10.57251,7.31152 12.61055,9.14181 l 1.07651,0.96678 -0.9933,-0.1654 c -0.54632,-0.091 -2.55324,-0.87486 -4.45983,-1.74198 -7.25352,-3.2989 -10.32314,-3.96374 -12.94541,-2.80379 -1.92879,0.8532 -4.5611,3.39067 -6.43995,6.20792 -2.96405,4.44447 -6.3022,7.20685 -6.88228,5.6952 z"
       id="path17"
       transform="scale(0.26458333)" /><path
       style="fill:#ffffff;stroke:#000000;stroke-width:0.975902"
       d="m 643.48959,810.23417 c -1.26216,-0.31326 -2.65071,-1.05934 -3.34658,-1.79817 -1.23888,-1.31535 -2.62448,-3.92404 -6.64565,-12.51186 -2.71843,-5.80565 -3.44273,-7.07199 -4.84946,-8.47872 -2.00768,-2.00768 -4.52746,-2.89417 -8.84575,-3.11204 l -2.39413,-0.12079 5.82261,-6.5474 c 11.463,-12.8899 12.39776,-13.72635 17.693,-15.83229 1.02325,-0.40695 2.3606,-0.84321 2.97188,-0.96946 1.04865,-0.2166 1.16231,-0.20434 2.01265,0.21711 0.882,0.43715 0.9038,0.46833 1.02132,1.46107 0.0661,0.55791 0.12829,2.72212 0.13833,4.80935 0.0548,11.40318 1.85848,16.1945 9.06338,24.07618 2.33044,2.54933 3.57862,4.08233 3.90989,4.80207 0.2322,0.50448 -0.61876,2.23712 -2.52234,5.13571 -2.72133,4.14381 -5.21183,6.75823 -7.52511,7.89954 -2.31367,1.14151 -4.499,1.46732 -6.50404,0.9697 z"
       id="path18"
       transform="scale(0.26458333)" /><path
       style="fill:#ffffff;stroke:#000000;stroke-width:0.975902"
       d="m 673.88666,835.45842 c -0.2271,-0.3466 -0.33905,-0.9741 -0.38664,-2.1671 -0.056,-1.40402 0.0229,-2.03067 0.4814,-3.82349 1.21973,-4.76925 3.44939,-9.00599 7.38725,-14.03703 2.68076,-3.42496 4.14142,-6.49293 4.43434,-9.3139 0.0923,-0.88912 0.34968,-2.10171 0.5719,-2.69464 0.5524,-1.47389 2.33704,-3.35732 4.00854,-4.23045 3.25858,-1.70215 8.97041,-3.03458 13.46098,-3.14012 1.64089,-0.0386 2.00701,0.12692 1.83008,0.82722 -0.19692,0.77945 -2.93904,3.67502 -9.17688,9.69042 -11.348,10.94334 -13.83689,14.15632 -15.55326,20.07825 -1.42191,4.90592 -2.64966,7.5609 -3.84549,8.3158 -0.81457,0.51421 -2.03105,0.98289 -2.55113,0.98289 -0.18779,0 -0.48527,-0.21953 -0.66109,-0.48785 z"
       id="path19"
       transform="scale(0.26458333)" /><path
       style="fill:#ffffff;stroke:#000000;stroke-width:0.975902"
       d="m 713.79477,740.52308 c -1.01371,-1.09381 -1.3912,-3.99762 -1.96881,-15.14488 -0.67951,-13.11391 -1.3718,-21.47235 -2.04419,-24.68052 -0.20873,-0.9959 -0.34706,-1.90805 -0.30741,-2.027 0.0396,-0.11896 0.38838,0.26007 0.77495,0.84229 1.24592,1.87649 3.14145,2.79646 6.34027,3.07717 3.05338,0.26795 4.65048,0.98482 5.38004,2.41487 0.67484,1.3228 2.33641,2.20646 4.14887,2.20646 1.92852,0 6.0982,-1.4872 11.15932,-3.9802 6.95073,-3.42377 7.77714,-3.55346 9.69533,-1.5215 0.41466,0.43925 1.26763,1.43811 1.89551,2.21969 2.38595,2.97005 6.38299,6.00267 12.10528,9.18448 4.28956,2.38516 7.59402,5.103 8.43466,6.93731 0.566,1.23505 0.60656,4.06443 0.0668,4.66158 -0.92637,1.02491 -2.82296,-0.0147 -7.02601,-3.85112 -4.06857,-3.71372 -6.77247,-4.81465 -9.69398,-3.94705 -1.24197,0.36883 -2.445,1.49911 -2.7299,2.56483 -0.10801,0.40401 -0.4016,2.10399 -0.65243,3.77772 -0.47729,3.18493 -1.22876,6.92999 -1.56286,7.78881 -0.27568,0.70863 -0.55456,0.53016 -1.74178,-1.11463 -1.67627,-2.32233 -3.03422,-3.42244 -4.91344,-3.98051 -2.25843,-0.67068 -4.79597,0.71016 -11.76042,6.39964 -5.15192,4.20877 -12.06161,8.36015 -14.26771,8.57213 -0.77395,0.0744 -0.93867,0.025 -1.33211,-0.39957 z"
       id="path20"
       transform="scale(0.26458333)" /><path
       style="fill:#ffffff;stroke:#000000;stroke-width:1.27134"
       d="m 495.55312,889.87528 c 0,-0.109 0.27585,-1.00099 0.61301,-1.98221 1.03768,-3.0199 1.79618,-6.48082 1.951,-8.90204 l 0.14788,-2.31266 2.42828,-0.11696 c 2.18369,-0.10519 3.58688,-0.42534 5.48986,-1.25259 0.39762,-0.17285 0.3978,-0.12948 0.004,0.86416 -0.3456,0.87106 -0.41392,1.85213 -0.40827,5.86216 l 0.007,4.81602 -2.41305,0.68387 c -1.32718,0.37612 -3.56186,1.10114 -4.96596,1.61115 -2.75787,1.00174 -2.85312,1.02608 -2.85312,0.7291 z"
       id="path21"
       transform="scale(0.26458333)" /><path
       style="fill:#ffffff;stroke:#000000;stroke-width:3.76063"
       d="m 399.7767,359.37618 c 0,-0.33029 1.20491,-2.48908 2.67758,-4.79732 3.70806,-5.81195 4.21816,-7.16956 4.8035,-12.78446 0.28187,-2.70375 0.79964,-5.4674 1.15061,-6.14146 0.37635,-0.72279 3.08196,-1.97098 6.59521,-3.04259 3.27639,-0.99935 6.35143,-2.29219 6.83343,-2.87296 1.21913,-1.46897 1.09481,-5.99904 -0.23382,-8.52016 -0.61059,-1.15862 -3.56809,-4.82507 -6.57221,-8.14765 -8.34693,-9.2318 -11.53056,-14.90479 -15.35557,-27.3625 -2.10991,-6.8718 -1.85522,-8.30508 2.05573,-11.56861 11.30526,-9.43378 31.21623,-19.34745 38.85811,-19.34745 3.16147,0 5.51539,1.34149 8.72962,4.975 3.0666,3.4666 3.14287,4.9815 0.61439,12.20226 -4.31851,12.33264 -9.64027,24.36652 -13.90751,31.44849 -5.36005,8.89561 -5.64384,10.32513 -3.20423,16.14095 1.04465,2.49036 2.2508,5.3765 2.68034,6.41365 0.71723,1.7318 0.46581,2.25013 -3.08014,6.35002 l -3.86112,4.4643 -0.046,8.57498 c -0.0253,4.71623 -0.10525,8.96581 -0.17768,9.44351 -0.34616,2.28312 -28.56025,6.79972 -28.56025,4.572 z"
       id="path22"
       transform="scale(0.26458333)" /></g></svg>
