<?xml version="1.0" encoding="UTF-8" standalone="no"?>
<!-- Created with Inkscape (http://www.inkscape.org/) -->

<svg
   width="210mm"
   height="297mm"
   viewBox="0 0 210 297"
   version="1.1"
   id="svg1"
   xml:space="preserve"
   inkscape:version="1.4 (e7c3feb1, 2024-10-09)"
   sodipodi:docname="Europe.svg"
   xmlns:inkscape="http://www.inkscape.org/namespaces/inkscape"
   xmlns:sodipodi="http://sodipodi.sourceforge.net/DTD/sodipodi-0.dtd"
   xmlns="http://www.w3.org/2000/svg"
   xmlns:svg="http://www.w3.org/2000/svg"><sodipodi:namedview
     id="namedview1"
     pagecolor="#ffffff"
     bordercolor="#000000"
     borderopacity="0.25"
     inkscape:showpageshadow="2"
     inkscape:pageopacity="0.0"
     inkscape:pagecheckerboard="0"
     inkscape:deskcolor="#d1d1d1"
     inkscape:document-units="mm"
     inkscape:zoom="0.47841271"
     inkscape:cx="482.84671"
     inkscape:cy="488.07232"
     inkscape:window-width="1104"
     inkscape:window-height="1040"
     inkscape:window-x="0"
     inkscape:window-y="39"
     inkscape:window-maximized="0"
     inkscape:current-layer="layer1" /><defs
     id="defs1" /><g
     inkscape:label="Europe Trace line"
     inkscape:groupmode="layer"
     id="layer1"><path
       style="fill:#060606;stroke:none"
       d="m 41.942694,55.768075 c -0.644225,1.051059 -2.662235,0.792218 -2.856303,2.05682 -0.249017,1.622663 2.17427,2.034108 2.815635,3.191806 0.740857,1.337285 0.06555,3.246395 1.481,4.290494 1.586288,1.170122 2.918663,-0.195573 4.466141,-0.350395 1.131403,-0.113198 2.280789,0.489535 3.407581,0.558294 1.684046,0.102757 6.67112,-1.131909 7.882139,-2.339911 1.391747,-1.388282 1.233064,-6.500624 -0.188613,-7.79817 -1.12458,-1.026392 -3.104855,-0.837226 -4.513117,-1.261371 -3.115456,-0.938318 -3.813576,-2.286473 -7.269506,-1.300804 0.396816,-1.39129 1.25744,-3.297849 0.702377,-4.760797 -0.722336,-1.903814 -4.921893,-1.169165 -5.994821,0.07975 -1.730173,2.013961 1.657119,2.967199 0.936208,4.360444 -0.393218,0.75994 -1.581036,-0.114029 -2.179869,0.05101 -2.103855,0.579854 0.505972,2.868394 1.311148,3.222823 m -2.271721,2.044549 c 0.934946,-0.296375 3.42283,-0.676206 2.706431,-2.248053 -0.458756,-1.00655 -1.589531,-1.052667 -1.57057,-2.295389 0.374246,0.126079 0.757707,0.295294 1.141468,0.388969 3.688486,0.900327 0.124207,-3.846798 0.288874,-4.457559 0.288249,-1.069112 2.832531,-1.482581 3.790233,-1.514832 2.756618,-0.09282 -0.245842,4.822776 0.767933,5.663703 0.752917,0.624543 2.391997,-0.342255 3.325546,-0.286072 1.58287,0.09527 2.30915,1.079566 3.634753,1.724131 1.651199,0.802881 4.438771,0.03597 5.249146,2.117467 0.535339,1.375054 0.589546,4.969639 -0.739183,5.903313 -1.006489,0.70725 -2.464915,0.549614 -3.601275,0.934464 -0.983638,0.333132 -1.888867,0.994724 -2.953237,1.049617 -1.235899,0.06374 -2.405127,-0.61058 -3.634753,-0.663643 -1.378499,-0.05948 -2.422414,1.347267 -3.837209,0.750233 -1.670545,-0.704949 -0.918748,-3.280157 -1.783545,-4.543788 -0.740646,-1.082229 -2.110722,-1.353701 -2.784612,-2.522561 m 95.412267,-7.951023 c -0.87884,1.782228 -2.2057,3.777346 -3.74712,5.087884 -1.19508,1.016076 -2.33066,0.234035 -2.84087,2.181623 h -1.13586 c -0.9814,-2.852768 -2.64523,-0.386612 -4.0891,0.545315 -0.65248,0.421137 -1.56271,0.377141 -2.00388,1.096774 -0.43025,0.701815 -0.39324,1.868887 -0.49501,2.67418 l -0.68152,-0.227172 c 0.99547,-3.760804 -3.39866,-0.03056 -1.13586,0.454344 l -0.45434,0.908688 c -1.88933,-3.033518 -4.27315,1.125365 -0.45435,0.227172 l -0.45434,0.908689 c -1.06161,-0.39457 -5.00238,-0.120755 -4.5501,1.785472 0.40378,1.701808 2.28316,0.425892 2.50555,-0.649612 l 3.40758,-0.454344 -0.45434,1.817377 c -2.13416,0.599418 -1.61482,2.172624 -2.63597,3.592851 -1.58396,2.20299 -4.14974,3.98078 -5.24196,6.629892 -0.50733,1.230534 0.64064,2.20274 -0.36442,3.386367 -2.27218,2.675872 -6.52339,2.533043 -6.52384,6.609204 l -7.269502,1.590205 c -0.668462,1.960662 -2.743369,2.04746 -3.874896,3.635807 -1.737019,2.438273 -1.526056,6.311984 -2.186878,9.08583 -0.296222,1.24341 -1.33293,2.01415 -1.71256,3.1804 -0.358797,1.10227 0.163605,2.12313 1.186344,2.4989 -1.524253,2.78815 1.03494,7.22243 4.316269,7.02095 2.448575,-0.15034 3.618461,-2.01601 5.490696,-3.25894 1.179447,-0.783 2.345617,-0.51723 2.687497,-2.17181 1.56229,1.66537 1.10182,4.08328 1.43683,6.13365 0.38281,2.34302 2.24354,4.53 2.39635,6.81516 0.0769,1.14901 -0.73191,2.06647 -0.87994,3.18041 -2.92541,0.48822 0.65722,4.51672 0.90869,1.36303 h 0.22717 c 0.2211,0.83167 0.0501,2.37833 0.96057,2.78355 1.56008,0.69432 2.55388,-1.35607 3.6032,-2.07171 2.61909,-1.78625 4.85735,-0.68298 6.36854,-4.11942 1.27613,-2.90192 0.6587,-5.96842 2.10063,-8.85971 0.44933,-0.90095 0.94868,-2.34403 1.66487,-3.04684 1.02323,-1.00413 2.22122,-0.84681 2.33011,-2.63246 0.20797,-3.41059 -4.05366,-5.40007 -3.02301,-8.85971 0.89197,-2.994126 1.9133,-6.635257 4.03669,-9.039213 1.63091,-1.846397 4.60073,-2.311959 5.12995,-5.045455 1.65501,-0.27706 0.51292,-1.567424 0.79843,-2.726065 0.2704,-1.097356 1.5686,-3.017448 2.63282,-3.466121 4.93991,-2.082638 2.55324,3.938948 1.5809,6.192186 -1.05146,2.436609 -4.01679,4.060825 -4.9785,6.370801 -0.99084,2.379968 0.2045,6.147511 0.39948,8.622556 0.12067,1.531771 -1.03891,3.679631 0.30027,4.853001 4.79427,4.20066 9.13393,-0.46477 14.25995,-1.35936 1.32771,-0.23171 3.01289,0.50857 4.31627,0.82262 -1.27979,1.11328 -2.62272,1.52012 -2.72606,3.40759 -2.61535,0 -9.60712,0.19167 -10.48549,3.40845 -0.58152,2.1296 1.13645,2.95738 1.69572,4.59007 0.27578,0.80513 -0.087,2.04458 -0.0666,2.90574 0.0125,0.52589 0.30192,1.48022 -0.03,1.93867 -0.48565,0.67084 -1.31342,-0.41353 -1.53183,-0.80403 -0.6765,-1.20956 -1.17685,-4.76323 -3.2698,-2.46403 -1.23838,1.36043 -3.67198,4.22862 -3.78761,6.1 -0.12956,2.09689 1.38931,4.47551 0.66872,6.57466 -0.4097,1.1935 -1.8551,0.78371 -2.65771,1.50451 -0.58422,0.52468 -0.43155,1.40921 -1.05311,1.8994 -2.10755,1.6621 -2.15974,-0.74665 -3.40425,-1.56777 -0.6453,-0.42575 -1.90886,-0.47908 -2.65718,-0.417 -2.18352,0.18111 -3.0299,1.37132 -4.63756,2.45331 -0.93937,0.63221 -4.63288,1.39694 -5.73856,1.28661 -1.67118,-0.16675 -1.38693,-2.65761 -3.02809,-2.78268 -1.0783,-0.0822 -4.6351,2.34133 -5.10085,1.32464 -0.23458,-0.51205 0.0921,-1.53004 0.10412,-2.09749 1.0882,0.34484 3.72436,0.5423 2.49889,-1.36303 V 129.599 l 1.36304,-2.04455 c -0.85114,-0.70137 -0.87137,-2.24 -1.66155,-2.70976 -1.35207,-0.80382 -1.98517,1.83375 -1.83543,2.69749 0.1363,0.78626 1.04155,1.38787 1.45243,2.05682 -1.69496,-0.74671 -2.75275,-0.40113 -2.04455,1.5902 -1.735107,-0.45323 -2.419916,-1.68347 -2.498894,-3.40758 h 0.227172 c 0.07677,0.99387 0.379097,1.38503 1.363032,1.59021 0.78287,-1.57629 1.30907,-3.22316 -1.13586,-3.40758 0.794902,-1.04259 2.50538,-2.08414 2.76305,-3.40846 0.21767,-1.11871 -0.60611,-2.02272 -0.1816,-3.17953 0.41706,-1.13654 1.54895,-3.3547 -0.54041,-3.59216 -1.245189,-0.14153 -2.433093,0.57874 -3.404072,1.25717 -2.87828,2.01106 -3.923169,4.8055 -3.596186,8.24146 0.232552,2.44369 1.251027,6.31441 -0.957245,8.10844 -2.121128,1.72323 -6.264702,-0.30337 -8.849547,1.227 -3.223822,1.90866 -4.967614,5.86695 -8.178367,7.89931 -1.97769,1.25185 -4.56781,-0.0852 -6.339611,1.10765 -1.495961,1.00712 -1.604389,3.31996 -3.428961,3.97568 -1.437157,0.51648 -2.809313,-0.27722 -4.315923,0.49624 -0.441837,0.22683 -1.099276,0.72324 -1.623502,0.46889 -1.292956,-0.62733 -0.324466,-3.37701 -2.683123,-2.73816 -2.303022,0.62379 -0.426801,3.78876 -2.123249,4.64002 -0.715043,0.3588 -1.46891,-0.40317 -1.890476,-0.88764 -1.558549,-1.79112 -5.019519,-2.30851 -7.301933,-0.8924 -1.008385,0.62564 -0.416721,1.497 0.401582,1.81107 -2.083379,3.31553 3.198067,3.74478 4.460006,6.58799 0.464389,1.04629 0.379241,2.21321 0.815262,3.18041 0.532705,1.18167 1.856803,1.81413 2.079074,3.18041 0.365397,2.24604 -1.452936,4.26813 -2.313962,6.13364 -0.98804,2.14072 -0.803893,4.54095 -2.61546,6.30876 -1.648585,1.60875 -4.806992,-1.35786 -6.286845,-2.35919 -3.250488,-2.19938 -8.016089,-2.67092 -11.585775,-4.46034 -1.431964,-0.71783 -2.820984,-2.07389 -4.543441,-1.66577 -0.964025,0.22842 -3.562219,0.66393 -4.217758,1.34007 -0.96658,0.99695 -0.425868,2.77605 -0.600358,4.01688 -0.352596,2.50737 -1.387446,6.03501 -2.286093,8.40537 -1.16002,3.05979 -4.440708,4.14929 -5.838288,6.82411 -0.911621,1.74473 1.24199,2.90291 0.796855,4.40373 -0.36734,1.23853 -2.073713,3.94843 -1.099225,5.25808 1.781633,2.39443 5.779199,1.53481 7.493174,3.53555 1.23921,1.44654 0.34706,5.09926 2.808273,5.96204 0.990075,0.34707 1.870499,-0.51292 2.716248,-0.87363 0.970903,-0.4141 2.355374,-0.5223 3.407581,-0.49485 2.768482,0.0723 5.460982,2.52608 8.178194,2.47928 1.407069,-0.0242 2.446426,-1.96516 3.634753,-2.5536 0.994422,-0.4924 2.163323,0.006 3.180235,-0.37037 1.124519,-0.41663 3.92468,-2.9598 4.598827,-3.97657 0.966085,-1.45708 -0.132408,-3.52842 1.035252,-5.20041 1.65626,-2.37164 3.740422,-3.20282 6.179042,-4.42495 1.310142,-0.65659 2.616291,-1.53476 3.861925,-0.34567 1.053818,-1.27882 2.687477,-0.87624 3.716961,-2.0931 1.804946,-2.13347 0.91429,-6.90229 4.688405,-6.98116 3.185248,-0.0666 4.645734,3.89874 8.178194,2.99496 1.337665,-0.34225 2.361825,-1.2261 3.634753,-1.68118 1.098444,-0.3927 2.340611,-0.27307 3.407581,-0.74006 1.500335,-0.65668 2.595881,-1.875 4.316095,-0.84576 2.397044,1.43419 2.474968,4.97521 3.586023,7.30175 1.39963,2.93081 4.226206,5.49563 6.379051,7.91789 1.111256,1.25033 2.583174,1.20233 3.883654,2.05245 1.11594,0.72948 3.14047,1.97417 3.93273,3.02614 0.44384,0.58934 0.48168,1.3756 0.96339,1.94605 1.47203,1.74323 3.27067,2.31312 3.43002,5.04862 0.0641,1.09964 -1.1983,2.50177 -1.50204,3.63475 -1.14484,-0.74112 -3.97174,0.21738 -5.45213,0.38948 -1.82828,0.21256 -3.00946,-1.18562 -4.77061,-1.04645 -1.109106,0.0876 -4.348381,0.84047 -2.815989,2.58566 0.675977,0.76985 1.993378,0.91308 2.791448,1.59913 0.687776,0.59126 0.925333,1.6353 1.692041,2.11082 0.74394,0.46137 1.63502,0.22782 2.35674,0.82069 1.02872,0.84505 2.52658,2.83129 4.06455,1.58179 1.68482,-1.3688 0.4751,-4.3561 1.45244,-6.22374 h 0.22717 c 1.38013,1.56394 3.11855,0.47666 4.21775,-0.92902 0.5305,-0.67842 0.46766,-1.50019 0.85208,-2.23106 1.25204,-2.38038 2.02109,-2.48312 0.94532,-5.24529 -0.29775,-0.7645 -0.56535,-2.04471 0.37932,-2.49959 1.83378,-0.883 4.0187,4.16708 5.60498,1.33902 1.78178,-3.17661 -4.83205,-5.99125 -6.77449,-7.1149 -1.46767,-0.84902 -1.1961,-1.92473 -2.18163,-2.89154 -1.48758,-1.45937 -3.73996,-1.85429 -5.27315,-3.59917 -1.6496,-1.87736 -1.92142,-4.39084 -3.36709,-6.35749 -0.95176,-1.29474 -3.08288,-1.85281 -3.6437,-3.41108 -0.41238,-1.14582 1.02251,-3.25562 0.83524,-4.77045 l 2.72607,-0.45434 c 0.32306,2.54293 1.20477,4.0617 3.86192,2.72606 0.53409,1.45878 1.59263,2.64752 2.16288,4.0891 0.3451,0.87239 0.24233,1.91785 0.88887,2.65139 0.96314,1.09275 2.58934,1.44905 3.76341,2.26068 2.88329,1.99321 5.21014,4.2697 7.7328,6.64986 0.80568,0.76017 1.95048,1.16743 2.60966,2.07821 1.1267,1.55674 -0.61345,3.93744 -0.54373,5.66949 0.0714,1.77402 1.35852,2.08869 2.30082,3.26892 1.30401,1.6333 1.11459,3.24522 3.34815,4.22776 -0.4806,1.99563 1.47417,2.91312 3.18041,2.95323 l -1.5902,2.27172 h -0.22717 c -0.19576,-0.62734 -0.28559,-2.08672 -0.81859,-2.481 -1.31808,-0.97505 -2.97724,1.26969 -0.99879,2.02666 -0.36199,1.54216 0.83405,2.91885 1.81738,1.13586 0.70031,0.517 1.40284,1.15601 1.61912,2.04455 0.20096,0.82554 -0.27905,1.85905 0.39317,2.55743 0.75544,0.78484 1.75774,-0.0491 2.55622,0.31272 0.75666,0.34292 1.53112,2.89342 2.24665,0.53743 l 1.81737,1.13586 c 1.0013,-2.08117 -0.64722,-3.03992 -0.90868,-4.99779 l 1.81737,0.22718 -2.27172,-3.40758 c 1.13377,0.67314 3.41036,1.98403 4.76956,1.70642 2.17469,-0.44421 1.35154,-3.18523 -0.22612,-3.75097 v -0.22718 c 1.46234,-0.96248 -1.86375,-4.07538 -3.18041,-3.40758 l -1.36303,-5.45213 c 1.90878,0.63501 3.37776,0.93473 3.40758,-1.5902 1.77069,0.2922 2.79591,-0.74893 4.41268,-0.87136 2.08947,-0.15821 4.04421,1.13375 6.26441,0.803 1.73009,-0.25776 2.80263,-1.55834 4.31627,-2.27751 1.32333,-0.62875 4.2125,0.0613 4.2125,-2.19406 0,-1.43293 -1.75428,-1.36223 -2.52378,-2.1457 -0.59668,-0.6075 -0.44338,-1.45887 -0.82052,-2.16427 -0.48963,-0.91575 -1.4953,-1.35103 -2.00406,-2.28153 1.24757,-0.68468 1.13212,-1.54562 1.65312,-2.72607 1.24629,-2.82373 0.93799,-5.48901 1.07294,-8.63254 0.80681,0.42326 1.68051,0.57711 2.30398,-0.27905 0.70451,-0.96749 0.24275,-2.27566 0.55215,-3.3557 0.46848,-1.63541 2.58097,-3.86442 3.95922,-4.81514 1.91817,-1.32314 3.65277,0.18718 5.67912,0.17337 1.0048,-0.007 1.90374,-0.5709 2.95323,-0.58319 -0.87843,0.95497 -4.96652,2.70591 -2.9194,4.39533 0.87856,0.72504 2.24224,0.55096 3.02984,1.38162 0.84915,0.89554 0.42515,2.97899 2.15305,2.97899 0.93843,0 1.51674,-1.11123 2.074,-1.71377 0.77314,-0.83598 1.61338,-1.80409 2.70485,-2.21178 1.13566,-0.42419 2.61748,-0.30758 3.48646,-1.28521 0.65134,-0.73279 0.84994,-2.24814 -0.33076,-2.56339 -0.92787,-0.24775 -6.006,0.7618 -4.56115,-2.32449 1.6284,-3.47838 5.30768,-4.22168 8.1959,-6.17081 0.9907,-0.66856 1.01303,-2.02619 1.759,-2.92659 0.78712,-0.95006 2.11349,-1.33125 2.80704,-2.3292 1.0178,-1.46453 -0.12628,-3.21044 -0.37826,-4.72295 -0.20873,-1.25291 0.89068,-3.75189 0.32989,-4.6721 -0.4245,-0.69656 -1.53329,-0.5517 -2.22124,-0.55285 -2.06608,-0.003 -4.64277,-0.68364 -6.58799,-0.22718 -0.71091,-2.63495 -2.71019,-0.52013 -4.21986,-0.14111 -0.80607,0.20238 -1.7054,-0.27897 -2.5953,-0.0861 -0.0131,-3.70653 -2.61503,-1.75358 -4.47123,-3.31748 -0.86769,-0.73106 -0.31268,-2.10536 -0.94865,-2.99233 -0.39845,-0.5557 -1.02864,-0.71551 -1.61913,-0.98248 -0.69831,-0.3157 -1.28181,-0.93987 -2.05682,-1.05786 -1.59934,-0.24349 -2.95064,1.38194 -4.30732,1.98933 l -0.90869,-3.86192 c 1.75284,0.47712 2.53602,-1.13661 1.90747,-2.71362 -0.37252,-0.93464 -1.3912,-0.9731 -2.11432,-1.50344 -0.87312,-0.64037 -1.60358,-1.7195 -2.22298,-2.5981 -1.08296,-1.53615 -0.71705,-3.50517 -1.69292,-4.97658 -1.70788,-2.57512 -4.64584,-0.13696 -6.45775,-1.66541 -1.81646,-1.53227 -2.29441,-3.57578 -3.02528,-5.62531 -0.24932,-0.69915 -0.85277,-1.26594 -0.85137,-2.04455 0.002,-1.03777 0.66043,-1.85812 0.53304,-2.95323 -0.21983,-1.88988 -1.21808,-4.22791 -0.47783,-6.12383 0.41212,-1.05555 1.93968,-1.84873 2.81616,-2.50871 -0.47856,-1.57232 -1.4758,-1.58922 -2.95323,-1.59021 1.59095,-4.357237 5.66186,-7.938872 5.85775,-12.948804 0.0873,-2.231871 -2.677,-2.513521 -2.955,-4.319597 -0.11416,-0.741637 0.6966,-1.269218 0.59983,-2.032278 -0.21649,-1.707118 -2.37536,-3.185747 -2.89082,-4.604089 -0.39643,-1.090769 0.31502,-2.464021 0.1078,-3.583048 -0.314,-1.695652 -1.81318,-3.034794 -2.2237,-4.770614 -0.41783,-1.766698 1.22317,-3.089895 0.66277,-4.770433 -0.55669,-1.669404 -2.82446,-1.9783 -3.22424,-3.635807 -0.47157,-1.955144 1.49954,-2.763973 2.24192,-4.111892 0.56828,-1.0318 0.19814,-4.31272 -0.0931,-5.428462 -0.71033,-2.721531 -5.75072,-3.353741 -6.94294,-0.908688 h -0.45435 l -1.13586,-0.454344 -1.5902,-1.363033 m 0.68151,0.908689 v 0.681516 h -0.22717 l 0.22717,-0.681516 m 12.72164,29.532369 c -0.34945,1.633715 0.95907,1.871632 1.15497,3.218969 0.15091,1.037942 -0.99255,1.564845 -0.30377,2.684177 0.91652,1.489431 2.84556,1.816711 2.75954,3.865253 -0.20733,4.936986 -4.65423,7.885453 -5.65529,12.267292 -2.61861,-0.46448 -6.46999,1.16139 -8.85971,2.16479 -0.90417,0.37964 -1.91022,1.32917 -2.93291,1.31011 -0.60248,-0.0112 -1.11372,-0.54985 -1.61947,-0.82245 -0.71302,-0.38429 -1.80055,-0.65669 -2.25629,-1.37811 -0.48427,-0.76656 -0.0505,-2.02186 0.007,-2.86454 0.12271,-1.793685 -0.19699,-3.644616 -0.24417,-5.452134 -0.0344,-1.31833 -0.7886,-2.755349 -0.1071,-4.026869 1.25133,-2.334698 4.18757,-3.998112 5.13573,-6.650218 0.2628,-0.735051 0.12765,-1.54065 0.40246,-2.271721 0.51687,-1.375026 2.14644,-2.703575 0.99159,-4.282618 -0.82033,-1.121648 -3.29488,-0.902241 -4.37148,-0.274842 -2.2058,1.285442 -3.3522,3.787731 -2.72939,6.147664 -1.06569,0.557448 -1.35434,1.759433 -2.2817,2.524309 -1.10619,0.912376 -2.57859,1.505833 -3.57376,2.521854 -1.94853,1.98935 -2.52341,4.71554 -3.30609,7.221129 -0.39484,1.264006 -1.37769,2.227255 -1.21667,3.634754 0.29603,2.587642 2.54203,3.849612 3.11362,6.133642 0.57191,2.2853 -0.57376,3.17421 -2.73097,3.18041 0.56405,2.05729 -1.49294,4.42858 -2.17181,6.36082 -0.97682,2.78034 0.22946,6.30812 -2.48925,8.49547 -1.03993,0.83667 -2.96871,0.6413 -4.19865,1.35549 -1.2516,0.72675 -1.88411,2.07191 -3.40758,2.18916 -0.0139,-1.53654 -1.21405,-2.31 -1.35585,-3.63475 -0.13889,-1.29744 1.15401,-2.14513 0.71973,-3.63476 -0.70349,-2.41305 -2.56604,-4.63295 -2.51484,-7.2695 0.0241,-1.24027 -0.0523,-5.47699 -1.83474,-5.76309 -0.76041,-0.12206 -1.06926,1.24512 -1.6533,1.57566 -2.169701,1.22795 -5.510526,4.80508 -8.306854,3.56445 -1.509445,-0.66969 -2.132414,-2.66856 -2.320624,-4.14764 -0.139986,-1.10011 0.720741,-2.05187 -0.680116,-2.49889 -0.252996,-2.05934 1.076974,-2.89008 1.521841,-4.77061 0.629278,-2.660081 0.548192,-5.932751 1.79985,-8.405189 0.646568,-1.277191 1.732201,-1.465124 2.808447,-2.204237 2.71439,-1.864103 5.337196,-3.248073 8.863216,-3.248073 -0.71981,-4.362108 4.71924,-4.209754 6.58588,-7.272834 0.75155,-1.233265 -0.2539,-2.45652 0.43577,-3.631425 1.34736,-2.29532 3.32666,-3.910926 4.91996,-5.927688 0.58482,-0.740251 0.38045,-1.712679 0.9171,-2.445081 0.44897,-0.61273 1.27879,-0.769091 1.67503,-1.428228 0.75237,-1.25154 1.75263,-2.859534 2.17708,-4.283672 0.24144,-0.810077 0.0875,-2.14933 0.59493,-2.819671 0.90886,-1.200709 2.81049,-1.652058 3.82125,-3.086803 l 1.82702,1.513612 2.14727,-1.280477 2.06435,-0.655228 3.27542,-3.439832 0.22717,2.271721 1.5902,-2.726065 h 0.22718 l 0.22717,1.590204 c 0.67202,-0.702245 1.30291,-1.76918 2.14428,-2.265231 1.33493,-0.787047 4.52747,0.01222 4.9643,1.584769 0.16978,0.611177 -0.24654,1.124505 -0.22944,1.719916 0.0303,1.05655 1.02708,1.889352 0.38406,3.002141 -0.87669,1.517161 -2.27067,2.114181 -2.43492,4.1366 -0.18362,2.260975 2.66514,2.509347 3.30819,4.319597 0.42008,1.182546 -0.77093,2.23323 -0.83419,3.404254 -0.10625,1.966929 1.14838,3.594072 2.02475,5.224957 0.99348,1.848824 -1.19457,5.212299 1.8044,5.679302 m -28.39651,-18.400938 -1.36303,1.590205 1.36303,-1.590205 m -1.81737,0.681516 -0.22718,0.227172 0.22718,-0.227172 m -3.40759,2.044549 -1.13586,0.908688 1.13586,-0.908688 M 66.477276,85.073273 c -0.05852,-0.86425 0.265427,-1.862911 0.0901,-2.692414 -0.336072,-1.590024 -4.394859,1.047205 -1.228066,2.612479 0.430343,0.212711 0.691631,0.152216 1.137968,0.07994 M 65.79576,82.57438 65.568588,84.164584 C 64.888944,83.496615 64.867903,82.948803 65.79576,82.57438 m 9.086882,15.902045 c 0.244199,-0.54709 0.542633,-1.054303 0.804566,-1.590551 0.430578,-0.881526 0.206339,-2.814222 -1.225432,-2.033498 -1.367913,0.745908 -0.650603,3.03894 0.420866,3.624049 m 0.227172,-3.180409 -0.454344,1.590205 0.454344,-1.590205 m -7.269506,6.815164 -5.669484,-0.42437 -3.64457,3.83195 v -2.49889 l 2.498893,-2.04455 -0.227172,-0.90869 c -0.967797,0.2304 -6.173246,2.20379 -3.180409,3.40758 -0.329527,0.99583 -1.72766,2.44985 -0.227172,2.95324 -1.205257,1.95724 -2.327571,7.81673 0.908688,8.17819 -0.152922,2.79327 -3.350718,4.97743 1.13586,5.90648 -1.112732,1.7146 0.493071,1.84358 0.546897,3.41091 0.02494,0.7261 -0.823055,2.28439 -1.23034,2.89802 -1.245356,1.8763 -2.404975,-0.98435 -3.495752,-0.3625 -0.722162,0.41171 0.165707,3.50795 -0.273267,4.4516 -0.653245,1.40425 -5.155991,0.60859 -3.361486,3.41179 0.179586,0.28053 0.500108,0.48957 0.774942,0.66398 0.437387,0.27757 0.863958,0.40579 1.359705,0.51955 v 0.90869 c -2.146439,0.0194 -2.318558,1.62619 -4.089971,2.22071 -0.818777,0.2748 -2.874581,0.19568 -3.396013,0.90116 -0.443138,0.59954 0.196151,1.36291 0.684143,1.681 1.117839,0.72864 2.239536,-0.006 3.36499,0.35128 0.712332,0.22584 0.994668,1.03531 1.850855,0.89413 1.220509,-0.20125 1.811712,-1.43242 3.1762,-1.29748 2.518312,0.24905 4.515475,2.22208 7.042334,2.28821 2.119221,0.0555 3.935357,-0.004 5.90542,-0.8505 1.434488,-0.61618 1.63221,-1.76595 0.228226,-2.55376 v -0.22717 c 2.053186,-0.62661 5.179853,-3.79777 3.259289,-6.05634 -0.889977,-1.04661 -2.50256,-0.9988 -3.713633,-1.44034 1.537175,-1.64771 1.4692,-5.0099 0.417184,-7.04233 -0.41932,-0.81009 -1.215601,-1.37444 -1.480826,-2.27172 -0.584708,-1.97809 1.285836,-5.2736 -0.621742,-6.87459 -0.609187,-0.51128 -1.657709,-0.61229 -2.403714,-0.84926 v -0.22717 c 1.779704,-0.70685 5.48452,-3.87202 5.128198,-6.10998 -0.241218,-1.51504 -3.385611,-2.57256 -4.673853,-2.74973 1.283909,-1.4702 4.383801,-1.2227 3.634753,-3.86193 h 1.363032 l 0.227172,-2.04455 c -1.564928,-0.399851 -3.061117,0.0606 -1.817377,1.81738 m 0.454345,-1.36303 0.454344,0.90868 -0.454344,-0.90868 m -9.086883,0.22717 -1.363032,1.5902 0.908688,-1.5902 h 0.454344 m 8.859711,1.13586 -0.227173,0.22717 0.227173,-0.22717 m -0.454345,0.90869 c -0.784821,1.5002 -2.789291,1.19332 -3.698208,2.54621 -0.78444,1.16761 3.644993,2.84819 4.606897,3.36026 -0.798188,1.70957 -1.895474,3.18952 -3.276816,4.48121 -0.519221,0.48553 -1.628376,0.85509 -1.712553,1.65893 -0.1645,1.57086 2.440858,1.03701 2.683997,2.50238 0.293795,1.77067 -0.501404,3.73876 -0.09746,5.44215 0.259853,1.09577 1.247089,1.73159 1.668732,2.73501 0.425608,1.01284 0.479322,2.738 0.644356,3.85298 0.158517,1.07091 -1.145594,1.98382 -0.778976,2.92869 0.635226,1.63714 3.326232,0.52466 3.746238,2.30625 0.309124,1.31125 -0.87277,3.19696 -1.977946,3.81478 -0.51574,0.28831 -1.759273,0.37028 -1.761283,1.17408 -0.0015,0.58845 0.964538,1.17246 1.316056,1.58915 -2.295153,1.22232 -5.167249,1.87367 -7.72385,1.0859 -2.076086,-0.63971 -4.090525,-2.2529 -6.360818,-2.17671 -1.224162,0.0411 -2.115748,1.07134 -3.180409,1.54515 -1.082686,-2.19435 -3.274202,-0.24689 -4.770613,-1.81738 2.504515,-0.2184 3.382845,-1.24944 5.310147,-2.49591 0.766331,-0.49562 2.119221,-0.32884 2.119221,-1.59388 0,-1.26041 -2.717801,-1.72526 -2.164443,-2.88382 0.403125,-0.84402 2.149434,-0.57199 2.882945,-1.01475 1.288485,-0.77773 0.939012,-2.77861 0.939012,-4.05176 2.527303,0.46921 2.930616,-0.23112 4.052285,-2.27172 0.385751,-0.70177 1.010218,-1.40676 0.755661,-2.26839 -0.182455,-0.6176 -0.864644,-0.99901 -0.969162,-1.63209 -0.104678,-0.63407 0.600972,-1.28525 0.100095,-1.86979 -0.58477,-0.68244 -2.050643,-0.20411 -2.263138,-1.30484 -0.258189,-1.33742 1.492494,-2.29604 1.274688,-3.72836 -0.178407,-1.17323 -1.798297,-1.0976 -1.980912,-2.37601 -0.18873,-1.3212 0.182317,-4.37857 0.977918,-5.43952 0.678078,-0.90422 1.754046,-1.29356 2.509937,-2.10132 0.653348,-0.69819 1.023896,-2.00418 1.945341,-2.40303 0.975859,-0.42241 4.136641,0.0968 5.183062,0.40615 m 78.828703,4.99778 c -0.13443,1.76512 0.33475,3.25928 0.43313,4.99779 0.0622,1.0993 -0.47692,2.09199 -0.4163,3.18041 0.14828,2.66257 2.20144,6.98196 4.54694,8.46076 1.55978,0.98342 4.33974,-0.91325 5.71751,0.90518 0.99912,1.31866 0.69498,3.49044 1.67576,4.9459 0.69024,1.0243 1.6067,2.29132 2.6023,3.0323 0.59567,0.44332 1.7234,0.53483 1.95096,1.33551 0.45316,1.5945 -1.16803,1.22174 -1.82527,2.06522 -0.66945,0.85914 0.2254,3.19397 0.74778,4.00268 1.42498,2.20606 3.4262,-1.87146 5.17499,-1.08661 0.70948,0.31841 2.35929,1.01059 2.78461,1.65033 0.61935,0.93157 0.055,2.12964 0.97828,3.0139 0.9673,0.92642 2.23759,0.28873 3.33992,0.77407 1.29796,0.57148 0.67711,2.12693 1.6668,2.63368 2.24939,1.15173 3.94998,-0.7865 6.06143,-0.83752 0.75294,2.51348 6.99708,0.97247 9.08688,1.5902 -0.41115,1.55405 -0.64925,3.1567 -0.38037,4.77062 0.19222,1.15373 1.06591,2.64353 0.37407,3.78724 -0.60062,0.99291 -2.03594,1.44687 -2.80618,2.35553 -0.6976,0.82294 -0.87474,2.25687 -1.76461,2.82404 -1.89285,1.2064 -4.54197,1.78088 -6.01462,3.53187 -0.70194,0.83459 -2.11859,2.15295 -2.43737,3.17952 -0.44603,1.43628 1.48441,3.34358 2.80634,3.51802 0.89632,0.11827 1.82688,-0.4761 2.72607,-0.56811 -0.0837,2.55463 -2.65743,1.82493 -4.31627,2.89137 -0.77665,0.49926 -3.22696,3.91711 -4.14853,3.09187 -0.84902,-0.76025 -0.36319,-2.06253 -1.54076,-2.78267 -1.05472,-0.64503 -2.29834,-0.4294 -2.94325,-1.61037 0.71962,-0.59261 3.26314,-2.01279 3.26314,-2.9506 0,-0.71804 -0.84461,-1.0507 -1.44595,-1.07101 -0.88212,-0.0298 -1.60724,0.59276 -2.49871,0.56215 -1.89492,-0.0651 -3.36045,-1.33748 -5.22495,-0.28133 -1.65632,0.93822 -3.82498,3.32724 -4.54134,5.10382 -0.59036,1.46412 0.21252,3.13072 -1.36514,4.0891 l -0.45434,-1.13586 c -2.87407,2.27657 -0.26138,5.59532 -1.42561,8.1782 -0.50279,1.11545 -2.6613,4.08357 -2.28066,5.21601 0.28258,0.84069 1.23559,1.1778 1.72026,1.86822 0.57353,0.81698 0.33357,1.86771 1.1292,2.58652 0.53259,0.48118 2.0754,0.5964 2.0754,1.48662 0,1.46992 -3.00652,1.104 -3.94466,1.60722 -1.3978,0.74977 -2.45062,1.92403 -4.08909,2.16023 -1.99631,0.28777 -3.7501,-0.92407 -5.67931,-0.94514 -1.83537,-0.0201 -2.99756,1.2625 -4.99778,0.7865 l -0.68152,2.49889 -3.18041,-0.90868 c 0,1.16823 -0.18126,2.52412 0.26083,3.63142 0.27175,0.68064 0.95975,1.14193 1.15462,1.84103 0.2989,1.07233 -0.33541,2.10779 0.34339,3.15096 0.86415,1.32804 4.56057,1.66305 4.42529,3.40689 -0.10643,1.37207 -1.80794,0.65079 -2.54937,0.40526 -1.74707,-0.57854 -3.15616,-1.76655 -4.99779,-2.10747 -1.45507,-0.26937 -4.05478,0.0656 -5.14836,-1.08434 -1.34873,-1.41824 1.47949,-1.29273 2.19513,-1.29273 v -0.22717 c -1.81623,-0.14835 -3.97715,-0.68077 -5.06527,-2.27523 -0.51042,-0.74793 -0.47603,-1.72857 -1.00895,-2.44701 -0.80941,-1.09117 -2.01269,-1.18787 -2.09311,-2.77444 -0.0939,-1.85199 1.5763,-4.20588 0.50202,-5.90315 -0.71415,-1.12829 -2.05541,-1.64133 -3.00845,-2.52589 -2.47757,-2.29955 -4.74063,-4.44875 -7.50001,-6.45301 -1.10463,-0.80234 -2.56252,-1.17987 -3.58287,-2.07347 -0.80417,-0.70428 -0.61497,-1.66857 -0.95917,-2.58128 -0.45673,-1.2111 -1.31029,-2.57624 -2.06962,-3.62388 -1.10402,-1.52324 -1.87005,0.0895 -3.08785,-0.53043 -1.04286,-0.53087 -0.49663,-2.23865 -1.35304,-2.96919 -0.88071,-0.75126 -3.13122,0.39579 -4.167977,0.53551 0.332654,0.91274 0.596695,1.77334 0.225945,2.72606 -0.321263,0.82557 -1.162932,1.54154 -0.880645,2.4989 0.54578,1.85094 2.838707,2.43741 3.917497,3.87105 2.9661,3.94173 3.31047,8.6371 9.00449,9.98644 0.053,4.48216 7.55647,3.96579 8.66725,8.17714 0.18832,0.71397 -0.3432,1.46894 -1.10921,1.12061 -1.19328,-0.5426 -2.22656,-2.1917 -3.69593,-2.16041 -1.22312,0.0261 -1.78398,1.62679 -1.64507,2.63106 0.1509,1.09099 1.10126,2.09879 1.06136,3.18024 -0.0381,1.03348 -1.00913,1.51653 -1.51974,2.29222 -0.82943,1.26007 -0.76396,3.67231 -2.88119,3.83652 -0.81201,0.063 -0.87376,-0.79274 -0.67452,-1.35883 1.05849,-3.00735 2.82605,-4.76627 0.5015,-7.9263 -0.58117,-0.79005 -1.58725,-0.98481 -2.21123,-1.70275 -0.53453,-0.61502 -0.60895,-1.48792 -1.16339,-2.10834 -0.9568,-1.07067 -2.76911,-2.25391 -3.97131,-3.05562 -0.95464,-0.63662 -2.18791,-0.62514 -3.112562,-1.32832 -2.212633,-1.68268 -4.862728,-4.93919 -6.313495,-7.27652 -1.810117,-2.9163 -1.723895,-8.68672 -6.012697,-9.23026 -1.460132,-0.18507 -2.395026,0.88802 -3.634752,1.39319 -1.009817,0.41147 -2.150904,0.32579 -3.180409,0.69219 -1.333818,0.47472 -2.419042,1.47273 -3.861925,1.65068 -3.328548,0.41052 -4.872213,-3.3864 -8.178194,-3.01249 -4.340839,0.49097 -2.514464,5.43219 -5.075086,7.43026 -1.293615,1.00941 -3.501325,0.79514 -5.016892,1.09343 -2.041837,0.40188 -4.973798,2.01435 -6.491583,3.4118 -1.278875,1.17747 -2.620666,2.54165 -2.994077,4.29505 -0.202131,0.94914 0.363893,2.46746 -0.192814,3.26033 -0.591265,0.84211 -3.139103,3.11856 -4.083491,3.48368 -1.010104,0.3905 -2.147448,-0.1301 -3.179532,0.37054 -1.164389,0.56482 -1.928373,1.98836 -3.180409,2.36392 -1.864755,0.55936 -5.410207,-1.56896 -7.269506,-2.03631 -1.365798,-0.34328 -3.201353,-0.17886 -4.543441,0.23699 -0.718364,0.2226 -1.671841,1.19379 -2.450339,0.89538 -2.007552,-0.76958 -1.322317,-4.28786 -2.392493,-5.60884 -1.166718,-1.44015 -2.738044,-0.96889 -4.24405,-1.54412 -1.246298,-0.476 -2.067755,-1.48357 -3.407581,-1.87591 0.326211,-1.58131 1.460907,-3.74457 1.489939,-5.22496 0.02419,-1.23329 -1.520676,-2.1353 -1.115701,-3.39864 0.689556,-2.1511 4.088721,-3.84596 5.321189,-5.91542 1.485956,-2.49509 2.471231,-6.89799 3.045789,-9.76839 0.229193,-1.14502 -0.444282,-2.53913 0.331645,-3.56255 0.407562,-0.53755 3.631775,-1.36405 4.33029,-1.35391 1.478927,0.0215 3.441038,1.63178 4.770613,2.28032 3.135918,1.52964 7.275108,1.9105 10.157887,3.77042 1.601723,1.03342 4.625754,3.97114 6.643729,2.91415 2.450003,-1.2833 2.546507,-4.52435 3.383219,-6.7745 0.808129,-2.17328 2.424657,-3.88924 2.502047,-6.36082 0.05604,-1.78981 -1.368599,-2.40792 -1.986882,-3.86176 -0.236912,-0.55707 0.05299,-1.1307 -0.13742,-1.68677 -1.017339,-2.97109 -3.493526,-4.80717 -6.25074,-6.03724 0.852755,-1.28636 0.976088,-1.72304 0,-2.95324 1.33135,-0.17383 3.968835,-1.00828 5.201289,-0.54111 1.362741,0.51655 2.017441,3.17306 3.881385,2.65191 2.290453,-0.64041 0.378133,-4.30568 2.296263,-4.86175 1.22785,-0.35597 1.127617,2.42393 2.263831,2.78811 1.117093,0.35805 2.137218,-0.78246 3.167964,-1.00773 1.040293,-0.22737 2.126279,0.25176 3.180409,-0.0366 2.083899,-0.57012 2.093716,-2.98496 3.658595,-4.04896 1.612999,-1.09672 4.200645,0.18185 6.109804,-1.00106 3.250547,-2.01402 5.004087,-5.98038 8.179067,-7.9186 2.67999,-1.63605 5.872711,0.37289 8.404493,-0.89413 2.282279,-1.14217 2.297177,-3.36215 2.270847,-5.57554 -0.04549,-3.8241 -1.364197,-7.69881 2.04875,-10.57155 0.909686,-0.7657 2.308866,-1.89648 3.597777,-1.72448 0.41657,0.0556 0.63166,0.31735 0.63313,0.73585 0.003,0.92809 -0.74465,1.71031 -0.83086,2.63561 -0.0748,0.80328 0.48386,1.53534 0.33637,2.33326 -0.20971,1.13459 -1.597362,1.82898 -2.229295,2.72957 -1.625423,2.31645 -1.054685,6.04434 1.897125,6.81498 -1.506853,4.79692 4.11629,0.95167 6.13365,0.90869 0.69696,3.18631 2.61579,2.49079 4.99779,2.16286 1.07561,-0.14808 2.65378,-0.0846 3.61091,-0.61332 1.16911,-0.64584 1.57405,-1.74219 2.97708,-2.20739 1.18612,-0.39328 2.41533,-0.16207 3.63475,-0.25084 0.80804,2.09161 2.35006,3.56484 4.47123,1.65858 0.57977,-0.52104 0.41922,-1.42927 1.05311,-1.88839 0.78494,-0.56851 1.84967,-0.29327 2.48522,-1.16669 1.26588,-1.73968 -0.22326,-5.10988 -0.39421,-7.00887 -0.15392,-1.70986 3.04164,-6.11437 4.65194,-6.58799 0.29417,0.91996 2.15368,6.5686 3.85562,4.01689 0.76642,-1.1491 0.23348,-5.26338 0.23348,-6.74295 -1.7799,-0.36801 -2.6251,-3.18142 -0.89537,-4.22161 2.84503,-1.71088 6.03792,-1.18933 9.07356,-1.91204 m -13.85749,4.77062 c -0.39879,0.19673 -0.70861,0.33142 -0.97267,0.71534 -2.38321,3.46502 5.93654,0.97231 2.56287,-0.94252 0.15127,-0.57199 0.55311,-1.38476 0.30745,-1.97233 -0.32463,-0.7765 -1.71729,-0.60868 -2.11834,0 -0.44964,0.68243 -0.0578,1.54203 0.22069,2.19951 m 1.13586,-2.04455 -0.22718,1.13586 h -0.45434 c -0.1123,-0.71267 -0.008,-0.90861 0.68152,-1.13586 m 0.45434,2.49889 c -0.54193,0.98747 -1.16,1.30214 -2.27172,1.36303 0.52142,-0.95288 1.16137,-1.4902 2.27172,-1.36303 m -87.461242,3.40758 c -1.406826,-0.0418 -3.172055,-1.68945 -4.492433,-0.9022 -0.726007,0.43287 -0.784419,1.36498 -1.171797,2.03806 -0.828781,1.44004 -2.053932,2.89995 0.439273,3.40758 -0.959464,2.79896 -5.915965,3.18922 -5.391305,6.80535 0.123531,0.85142 0.849066,1.18913 1.530257,1.56742 2.665524,1.48027 3.744543,0.279 6.35994,-0.26451 1.411919,-0.29342 2.546154,1.23637 4.064556,0.61438 1.410688,-0.57787 3.391372,-3.86754 3.711179,-5.31506 0.153768,-0.69597 -0.162996,-1.57129 0.198776,-2.20843 0.610115,-1.07452 2.143076,-0.63359 2.423519,-2.11134 0.217799,-1.14768 0.665641,-3.48873 -0.11674,-4.47105 -2.093514,-2.62852 -7.717368,-3.94537 -7.555225,0.8398 m -6.133646,3.40758 c 0.345338,-0.746 1.680164,-3.67837 2.523608,-3.70014 1.166909,-0.0301 1.888011,1.29315 3.152189,0.99722 1.937421,-0.45353 0.752078,-2.9695 3.183914,-3.17884 3.292144,-0.2834 4.709036,3.17132 4.124683,5.85705 -0.246376,1.13237 -1.766608,0.93063 -2.34552,1.8668 -0.490887,0.79382 -0.06762,1.8305 -0.302191,2.70135 -0.38987,1.44742 -1.876104,3.42533 -2.995485,4.40706 -1.173419,1.02913 -2.797562,-0.81757 -4.181122,-0.46765 -2.184414,0.55247 -4.481969,2.01678 -6.430582,-0.22157 -0.757423,-0.87005 -0.114872,-2.09085 0.569157,-2.76725 1.631912,-1.6137 6.503123,-3.36891 2.701349,-5.49403 m 82.236288,2.04455 c -0.0196,-1.01189 0.49793,-1.75386 0.69553,-2.72606 l 0.23928,-1.36304 c 0.20455,-1.07988 -0.26001,-2.53559 -1.52116,-1.29064 -1.43255,1.41417 -1.75405,4.90189 0.58635,5.37974 m 0.22717,-4.99778 -0.90869,3.63475 h -0.22717 c 0.0111,-1.32673 0.18331,-2.64996 1.13586,-3.63475 m -17.94659,7.95102 h 0.22717 l 0.22717,0.90869 -0.45434,-0.90869 m -2.04455,0.45434 0.45434,3.18041 c -0.92772,-1.17158 -1.02323,-1.71491 -0.90869,-3.18041 h 0.45435 m -3.407582,1.13586 c 0.484232,0.74211 0.586202,1.12517 -0.227172,1.59021 l 0.227172,-1.59021 m 11.723722,2.05173 c -0.99535,0.78412 0.53188,2.53854 1.55935,1.80284 1.17672,-0.84255 -0.50202,-2.63578 -1.55935,-1.80284 m 0.77074,0.44717 0.45434,0.90868 -0.45434,-0.90868 m -10.44991,0.68151 1.5902,0.45435 -0.22717,0.68151 -1.36303,-1.13586 m -14.778632,57.97464 c -2.677452,0.70801 -2.71369,2.5003 -2.742017,4.72485 -0.01422,1.11685 -0.02742,3.36195 1.832629,2.76323 1.301927,-0.41907 2.540239,-4.25293 2.325186,-5.48929 -0.126613,-0.72791 -0.35922,-2.27821 -1.415798,-1.99879 m 0.239616,0.86293 c 0.730982,1.95187 -0.01209,2.56425 -0.706931,4.3161 -0.18064,0.45541 -0.258751,1.67467 -1.051544,1.41965 -0.67466,-0.21704 -0.506923,-1.34343 -0.514119,-1.87383 -0.03008,-2.21603 0.241364,-2.8168 2.272594,-3.86192 m -1.363205,7.21113 c -0.62541,0.21959 -3.716185,1.26287 -3.950796,1.74709 -0.40942,0.84502 0.320494,2.16615 0.311835,3.0819 -0.01093,1.15573 -2.847541,7.86478 0.686071,7.02375 3.739347,-0.88999 5.110373,-4.60282 5.569396,-8.15961 0.178151,-1.38039 -0.825966,-4.3218 -2.616506,-3.69313 m 0.908861,0.51272 c 0.930776,2.75133 0.543056,3.88405 -0.339884,6.58799 -0.511075,1.56512 0.08588,2.14604 -1.704838,2.77444 -0.654014,0.22952 -1.856373,1.55569 -2.53097,0.93709 -1.041166,-0.95477 0.133386,-2.93811 0.462927,-3.9387 0.520988,-1.58189 0.207968,-3.21537 -0.203504,-4.77062 l 4.316269,-1.5902 m -26.579131,3.63475 c 0.392373,1.29253 1.997302,1.46823 2.684344,0.20247 0.491261,-0.90509 -0.135195,-1.93718 0.268893,-2.92853 -1.289226,-0.27565 -3.507648,0.44282 -4.370434,1.50765 -0.892535,1.10153 0.643843,1.42262 1.417197,1.21841 m 6.58799,-0.22717 c 0.960102,-3.37393 -3.760332,-1.6572 -0.908861,-0.26066 0.28341,0.13881 0.606282,0.18771 0.908861,0.26066 m -4.997785,-1.5902 c 0.316126,1.02392 0.605339,1.8296 -0.681516,2.04454 -0.387755,-0.75553 -0.749443,-0.92341 -1.590205,-0.90868 l 2.271721,-1.13586 m 4.089097,0.22717 -0.227172,0.22717 0.227172,-0.22717 m -11.124942,1.55637 c -1.458621,0.4351 -1.177831,2.75554 0.423313,2.1641 1.203399,-0.44453 1.002821,-2.58952 -0.423313,-2.1641 m 0.447855,0.71535 -0.681516,0.90869 0.227172,-0.90869 h 0.454344 m 84.053656,8.40537 v 1.36303 h -0.22717 l 0.22717,-1.36303 m 0.90869,0.90868 1.81738,1.59021 c -0.98682,-0.076 -1.78106,-0.51735 -1.81738,-1.59021 m -0.68151,0.68152 -0.22718,0.22717 0.22718,-0.22717 m -31.34975,2.95324 c -0.29456,1.00139 -1.07431,1.90866 -1.1739,2.95323 -0.11187,1.17316 0.7918,2.76062 -0.33742,3.71573 -1.11928,0.94672 -2.35457,-0.9993 -3.07069,-1.57266 -0.73178,-0.58592 -1.64232,-0.31171 -2.36601,-0.78634 -1.742389,-1.14275 -2.028184,-2.83512 -4.410579,-3.40127 v -0.90869 h 11.358599 m 20.67266,0 0.68152,0.45434 v 0.22717 l -0.68152,-0.68151 m 9.54123,2.95323 c -1.66602,1.50923 0.22754,3.07233 0.45434,4.77062 -0.94184,-0.42874 -1.68338,-0.70786 -2.04455,0.45434 h -0.22717 c -0.35557,-2.25644 -1.83693,-1.47809 -3.40758,-1.36303 0,-0.95298 0.15434,-2.06844 -0.26451,-2.95324 -0.32414,-0.68473 -1.25602,-1.39854 -1.0938,-2.23316 0.71029,-3.65423 5.71378,-0.23442 6.58327,1.32447 m -8.40537,-1.13586 -0.68152,0.90869 0.22718,-0.90869 h 0.45434 m 11.41049,11.30007 c -0.67368,0.31449 -0.94141,1.34082 -0.20667,1.74778 0.82163,0.4551 1.98525,0.31049 2.88085,0.5511 2.61995,0.70384 5.22824,1.63169 7.87881,-0.23313 0.93844,-0.66025 0.32279,-1.77696 -0.61369,-1.95533 -2.25921,-0.43031 -4.96014,-0.098 -7.26512,-0.14636 -0.84417,-0.0177 -1.86828,-0.3403 -2.67418,0.0359 m 10.39803,0.96723 v 0.45434 l -4.77062,1.11343 -5.6793,-1.3406 c 0.66935,-0.94643 1.71206,-0.50802 2.72607,-0.46329 2.58194,0.11389 5.13217,0.23612 7.72385,0.23612"
       id="path1"
       sodipodi:nodetypes="csssssssscssscccsccssssssssssssccsccssccccccscccsssccssscsscsccccsssssssscsssssssccsscsssssssssssssccccssccccccsssssssssssssssscssssssssssssssssscsscssscsssssssssssscsssssssccsssssssssscccsssssssccccsccssscccccscccccsssssscscsssccsssssssssssssccscssssccsssssscssccsssssssssccccccccccssscsssscsssssscssssscssscssssssscssscssssssccccccccccsscssssscccccccccccsscccccssccccccccccccccssssssccssscssccccscsssccsccccccccccccccccscsssssssssscssccsssscssssssssssccssssssssssssssccssssssscssscsssssccsssssssccccsssssssccssssssssssscssscsscsssssssssssssssssssssssssscsscsssssssssssssccssssscsssssssccssccssscsssscscsccscsscccccccccsscssssssssccssssssssssccccscccccccccccccccccscccccccccsssccsssccssssccsssscccscsccscccccccccsccccccccccccccccssssccccccccccccssccccccssssscccccsc" /><path
       style="fill:#ffffff;stroke:#000000;stroke-width:6.49297"
       d="m 523.96913,808.52977 c -6.14617,-2.89294 -12.08592,-4.65942 -17.88161,-5.31799 -13.49825,-1.53383 -18.63202,-5.4482 -9.13677,-6.96655 5.35138,-0.85572 5.53076,-2.91692 0.25666,-2.94916 -6.12202,-0.0374 -12.85797,-4.97335 -16.18657,-11.8611 -1.68725,-3.49138 -4.648,-7.58084 -6.57943,-9.08771 -3.28692,-2.56437 -3.46106,-3.13952 -2.72045,-8.98502 2.49224,-19.67056 2.5381,-18.88029 -1.28508,-22.14669 -1.93964,-1.65716 -8.16559,-7.04017 -13.83543,-11.96221 -17.74662,-15.40602 -23.96309,-20.21036 -30.31655,-23.42991 -7.3279,-3.71333 -8.17695,-4.70623 -10.17747,-11.90178 -0.84437,-3.03706 -3.47338,-8.48392 -5.84223,-12.10413 -4.21972,-6.4488 -4.40288,-6.5669 -9.03587,-5.82605 -5.23601,0.83727 -5.97157,0.2276 -7.97686,-6.6117 -1.05331,-3.59243 -1.89174,-4.35664 -5.1266,-4.67275 -2.12705,-0.20785 -6.07939,0.21773 -8.783,0.94573 -4.76332,1.28263 -4.89398,1.45727 -4.216,5.63516 0.45555,2.80717 -0.054,5.98288 -1.46046,9.1018 -2.81253,6.23706 -1.7575,10.12065 3.91468,14.41017 7.74883,5.85995 11.08406,9.93467 16.96996,20.7325 7.22061,13.24635 11.9038,18.56014 19.4313,22.04767 4.60303,2.13262 6.48686,3.88419 8.13379,7.56272 1.80242,4.02582 3.74087,5.61842 12.18696,10.01256 15.17948,7.89723 22.09759,15.02883 17.93232,18.48569 -1.12124,0.93054 -2.9956,0.11613 -6.92912,-3.01071 -9.37853,-7.45519 -16.48269,-4.98325 -15.4989,5.39292 0.29388,3.0996 1.28356,7.41142 2.19928,9.58183 1.52676,3.61868 1.44109,4.18448 -1.03224,6.81722 -1.48345,1.57906 -4.31776,6.21651 -6.29847,10.30544 -2.31765,4.78453 -4.53496,7.67859 -6.22076,8.11944 -3.99381,1.0444 -4.17958,-1.66555 -0.70105,-10.22627 5.31431,-13.0786 3.86864,-20.78507 -5.25465,-28.01084 -2.63303,-2.08539 -5.47605,-5.45436 -6.31783,-7.48657 -1.84434,-4.45266 -15.46915,-14.69964 -23.47044,-17.65172 -11.15416,-4.11536 -28.98872,-26.0896 -34.3089,-42.27258 -1.48445,-4.51539 -3.74956,-10.30218 -5.0336,-12.85954 -4.39557,-8.75446 -14.87893,-12.03112 -22.47449,-7.02457 -2.02022,1.3316 -6.71385,3.0491 -10.4303,3.81666 -3.71646,0.76757 -9.36175,2.7115 -12.5451,4.31984 -8.62198,4.35615 -13.44406,3.87387 -22.9061,-2.29089 -6.82375,-4.44583 -8.94869,-5.21515 -14.40505,-5.21515 -7.78129,0 -12.10868,3.38466 -14.01774,10.96393 -4.08073,16.20116 -6.37596,18.43412 -20.81136,20.24669 -10.86593,1.36437 -21.98126,6.54253 -30.42398,14.17323 -8.07478,7.29815 -11.28952,13.36568 -11.28952,21.30795 0,6.68534 -1.12638,8.49354 -9.62608,15.4531 -4.20523,3.44325 -6.40822,4.3662 -10.4303,4.36982 -4.97556,0.004 -7.11035,1.02965 -16.60717,7.97512 -4.75034,3.47413 -5.85594,3.36566 -20.04996,-1.96732 -11.99415,-4.50643 -23.06551,-4.85098 -30.701381,-0.95545 l -5.101821,2.60275 -2.699543,-3.1384 c -1.611207,-1.87314 -3.057535,-5.7413 -3.587515,-9.59472 -1.135058,-8.25286 -5.171456,-12.57911 -12.869515,-13.79368 -4.968065,-0.78384 -18.39868,-7.60991 -18.39868,-9.35108 0,-0.38697 1.104385,-3.84575 2.454188,-7.68619 2.915056,-8.29385 3.106255,-13.0753 0.652573,-16.31935 -3.864837,-5.10977 -2.432565,-8.55889 7.476662,-18.00488 6.7186,-6.40453 10.313543,-10.99461 12.751681,-16.28152 4.38383,-9.506 10.211285,-33.20469 9.293439,-37.79391 -1.021494,-5.10749 0.936972,-7.72117 7.447906,-9.93967 8.583896,-2.92482 12.469166,-2.45968 20.648046,2.472 4.04025,2.43619 14.76571,6.83402 23.83436,9.77297 13.21535,4.2828 18.46171,6.69775 26.42886,12.16539 5.50542,3.77822 11.908,7.14112 14.35052,7.53748 7.99688,1.29772 13.54467,-4.79317 16.91681,-18.57289 0.82581,-3.37451 3.66826,-10.57241 6.31659,-15.99534 6.12426,-12.54061 6.37863,-18.44968 1.13383,-26.3394 -2.01892,-3.03706 -3.67313,-6.78636 -3.67603,-8.33177 -0.013,-6.9598 -9.67379,-18.74688 -19.01673,-23.20221 -3.48974,-1.66414 -3.97885,-2.36515 -2.96801,-4.25393 0.66566,-1.24381 1.05168,-3.7604 0.85783,-5.59245 -0.29825,-2.81845 0.21394,-3.45622 3.3288,-4.14491 9.5312,-2.10735 12.48846,-1.3901 18.21402,4.41762 8.45178,8.57306 13.44196,6.74358 15.21522,-5.57813 1.22491,-8.51141 4.12216,-9.61298 7.32624,-2.78554 2.55654,5.44759 6.57384,6.58349 12.48069,3.52895 2.036,-1.05286 6.64344,-1.91429 10.23873,-1.91429 7.8011,0 10.60709,-1.7171 14.96899,-9.16014 4.07578,-6.95479 6.1182,-8.01918 15.38754,-8.01918 4.11545,0 9.25953,-0.74368 11.43129,-1.65261 2.17175,-0.90894 9.61408,-7.75102 16.53853,-15.20463 6.92443,-7.45362 14.47481,-14.44648 16.77862,-15.53971 3.12737,-1.48404 7.24406,-1.92157 16.24682,-1.72676 9.97113,0.21576 12.65298,-0.1321 15.49531,-2.00986 6.1863,-4.08695 6.99308,-7.34809 6.99308,-28.26734 0,-22.22286 0.73451,-24.82872 9.06551,-32.16195 9.68052,-8.52114 16.07859,-8.35818 12.45378,0.3172 -1.36014,3.25527 -1.71565,6.35095 -1.15711,10.07563 0.74543,4.9708 0.48144,5.71658 -3.4974,9.88082 -5.79307,6.063 -7.04803,8.83801 -7.04803,15.58483 0,6.57307 2.76046,12.03422 7.07711,14.00103 2.35329,1.07223 2.83263,1.99044 2.25029,4.31064 -0.47061,1.87504 -0.0372,3.65091 1.19055,4.87869 2.1028,2.1028 3.97013,1.86422 15.08822,-1.92775 6.71673,-2.29082 8.75246,-2.13486 8.75246,0.67054 0,3.54586 4.72424,5.967 11.31961,5.80123 13.29683,-0.33421 20.3058,-2.22278 26.21264,-7.06299 4.48741,-3.67709 6.83422,-4.67163 12.04278,-5.10357 6.33173,-0.52507 6.52431,-0.44315 9.05969,3.854 4.54772,7.70782 12.70601,7.25557 17.56126,-0.97349 1.57965,-2.67729 4.05404,-4.74953 6.72308,-5.63039 7.0069,-2.31249 8.1795,-7.81703 4.9112,-23.05471 -1.63264,-7.61179 -1.60102,-7.8666 1.82775,-14.72819 1.91903,-3.84031 5.6373,-9.07999 8.26281,-11.64374 l 4.77367,-4.66136 2.10576,5.51387 c 2.87835,7.53683 6.46002,11.79109 9.92694,11.79109 4.13445,0 5.96723,-6.44964 5.26752,-18.53667 -0.49987,-8.635 -0.89369,-9.88949 -3.82961,-12.19889 -3.26518,-2.56838 -4.31566,-7.44433 -2.29041,-10.63116 1.64671,-2.59117 11.6363,-6.25289 19.26501,-7.06167 4.04941,-0.4293 9.34125,-1.06147 11.75964,-1.40482 3.07776,-0.43695 4.45023,-0.14203 4.57419,0.98291 0.0974,0.88395 0.32749,9.62629 0.51129,19.42742 0.32487,17.32276 0.44586,18.04702 4.33413,25.94369 2.20719,4.48257 6.25934,10.16469 9.04105,12.6778 4.97722,4.49662 5.13753,4.54403 12.64602,3.73993 9.90066,-1.06027 12.19549,0.72457 15.25704,11.86635 2.61165,9.50444 8.51374,18.02418 15.06653,21.74872 5.97746,3.39753 6.6798,5.69699 2.54371,8.32806 -5.90196,3.75437 -6.53132,6.71662 -3.19734,15.04904 2.63792,6.5928 6.27279,7.51131 12.75337,3.22266 5.54763,-3.67125 8.46289,-3.96874 13.47788,-1.37538 4.35992,2.2546 7.37611,6.38331 7.37611,10.0968 0,4.34593 4.19543,7.70307 9.62657,7.70307 4.99431,0 8.1771,2.39009 8.97494,6.73967 0.24666,1.34467 2.06477,3.21952 4.04026,4.16634 3.18943,1.52867 4.5505,1.43916 12.1504,-0.79892 l 8.55862,-2.52043 3.58338,2.64892 c 3.04959,2.25433 5.3501,2.66946 15.44419,2.7869 6.52346,0.0759 12.49639,0.21395 13.27319,0.30677 0.93205,0.11138 1.37226,3.19428 1.29443,9.06521 -0.0649,4.89304 0.33321,11.9751 0.88461,15.73792 l 1.00255,6.84151 -6.0769,4.46084 c -3.7236,2.73337 -6.94083,6.37671 -8.30782,9.40818 -1.90925,4.23394 -3.53273,5.56522 -11.2588,9.23249 -14.48422,6.87508 -25.94644,19.0113 -24.26873,25.69579 0.95752,3.81504 8.31473,10.53179 11.53604,10.53179 1.28237,0 3.74803,-0.53852 5.47922,-1.19672 2.41735,-0.91908 3.14761,-0.81159 3.14761,0.4633 0,2.4309 -2.37339,3.99012 -8.58965,5.64306 -3.83691,1.02026 -7.64722,3.4908 -12.48662,8.0961 -3.83058,3.64527 -7.51505,6.62777 -8.18772,6.62777 -0.67267,0 -1.83883,-1.86591 -2.59148,-4.14645 -1.56453,-4.74058 -4.22814,-7.4364 -8.63863,-8.74308 -6.37189,-1.88779 -6.3663,-3.05444 0.039,-8.11751 3.35307,-2.65045 6.09649,-5.56684 6.09649,-6.48086 0,-3.46388 -3.50996,-4.77458 -10.5654,-3.94535 -3.92836,0.4617 -9.86315,0.18099 -13.9292,-0.65883 -6.80105,-1.40474 -7.31488,-1.32832 -12.84055,1.90995 -7.53099,4.41345 -16.65698,16.60983 -16.65698,22.26113 0,2.24397 -0.59345,5.63443 -1.31876,7.53434 -1.2261,3.21166 -1.4324,3.29968 -2.93596,1.25267 -1.51984,-2.0692 -1.77485,-2.0013 -4.23647,1.12815 -2.2854,2.90542 -2.5974,4.79266 -2.44762,14.80542 0.16278,10.88219 -0.0503,11.90246 -4.12118,19.73244 -6.49634,12.49514 -6.53939,12.94619 -1.74823,18.31008 2.29521,2.56958 4.54157,6.19014 4.99193,8.0457 0.5117,2.10833 2.68499,4.55182 5.79421,6.5146 6.10983,3.85696 4.99895,6.14354 -3.58824,7.38589 -3.1506,0.4558 -8.7763,2.69164 -12.50157,4.96851 -7.54162,4.60942 -11.62132,5.02321 -23.90414,2.42448 -4.84774,-1.02566 -8.82954,-1.18614 -11.65739,-0.46986 -2.36216,0.59833 -6.64455,1.40691 -9.51643,1.79683 -4.57424,0.62106 -5.34724,1.18352 -6.23484,4.5367 -1.08302,4.09137 -2.27214,4.41345 -9.86796,2.67293 l -4.14509,-0.94981 0.52573,7.26802 c 0.35241,4.87205 1.41547,8.51759 3.22476,11.0585 1.80641,2.53685 2.69904,5.5926 2.69904,9.23954 0,6.26711 1.23112,7.69569 10.73708,12.45926 4.5207,2.26537 6.44224,3.95414 6.44224,5.66181 0,3.70063 -5.26174,3.0454 -15.95222,-1.98648 z"
       id="path2"
       transform="scale(0.26458333)" /><path
       style="fill:#ffffff;stroke:#000000;stroke-width:0.752187"
       d="m 322.9923,734.71519 c -0.64755,-0.13989 -1.16218,-0.54421 -1.53852,-1.20875 -0.55868,-0.9865 -0.65641,-2.10802 -0.57034,-6.54524 0.0651,-3.35861 0.13149,-4.34608 0.36452,-5.42514 0.52789,-2.44439 1.67225,-4.20161 3.72938,-5.72662 0.93687,-0.69453 4.03984,-2.54963 4.26468,-2.54963 0.26759,0 0.89999,2.27993 1.12659,4.06157 0.29252,2.3 -0.17557,4.09131 -2.27662,8.71223 -0.87997,1.93537 -1.56838,3.68266 -1.84844,4.69169 -0.83561,3.01052 -1.25006,3.66404 -2.55793,4.03339 -0.11728,0.0331 -0.42927,0.0136 -0.69332,-0.0435 z"
       id="path3"
       transform="scale(0.26458333)" /><path
       style="fill:#ffffff;stroke:#000000;stroke-width:0.752187"
       d="m 311.2471,781.56971 c -0.85096,-0.30323 -1.7133,-1.32831 -2.05901,-2.4476 -0.67485,-2.18491 -0.2326,-4.60679 1.74827,-9.57388 1.86699,-4.68154 2.22754,-6.30643 2.22899,-10.04542 0.001,-3.05343 -0.36927,-5.76094 -1.2968,-9.47779 -0.23161,-0.92815 -0.40222,-1.70208 -0.37913,-1.71984 0.17698,-0.13608 16.07493,-5.91054 16.12759,-5.85788 0.15012,0.15012 1.06509,3.39733 1.39715,4.95845 0.54368,2.55604 0.70975,4.75885 0.52209,6.9252 -0.26244,3.02957 -0.77105,5.12412 -2.76427,11.38384 -0.6547,2.05608 -1.04198,3.58389 -1.31526,5.18863 -0.48723,2.86109 -0.76538,3.62784 -1.6296,4.49205 -0.74609,0.7461 -1.23607,1.02956 -3.41182,1.9738 -0.89327,0.38766 -2.32152,1.20099 -3.55416,2.02393 -3.10367,2.0721 -4.4463,2.59262 -5.61404,2.17651 z"
       id="path4"
       transform="scale(0.26458333)" /><path
       style="fill:#ffffff;stroke:#000000;stroke-width:0.752187"
       d="m 399.41618,833.50993 c -1.49342,-0.35185 -2.55503,-1.14586 -5.79059,-4.33095 -3.43997,-3.38632 -3.89952,-3.64664 -7.39203,-4.18731 -2.4035,-0.37208 -3.36366,-0.74351 -4.9754,-1.92467 -1.29465,-0.94879 -2.9615,-2.59529 -5.36826,-5.30273 -3.54653,-3.98962 -5.91781,-5.64423 -9.52242,-6.64445 l -0.88846,-0.24654 v -1.68255 -1.68254 h 21.39424 c 11.76683,0 21.39424,0.0305 21.39424,0.0678 0,0.27627 -0.87035,2.24646 -1.90398,4.30998 -2.19234,4.37679 -2.59722,5.74997 -2.45748,8.3347 0.0468,0.8657 0.21966,2.30965 0.38414,3.20878 0.16447,0.89913 0.33579,2.47406 0.38071,3.49986 0.0719,1.64314 0.0456,1.98364 -0.22099,2.86146 -0.55665,1.83265 -2.02849,3.36434 -3.57443,3.71977 -0.73266,0.16845 -0.74158,0.16845 -1.45929,-6.4e-4 z"
       id="path5"
       transform="scale(0.26458333)" /><path
       style="fill:#ffffff;stroke:#000000;stroke-width:2.08917"
       d="m 515.90548,838.02333 c -0.10977,-0.32573 -0.4026,-1.2527 -0.65075,-2.05992 -0.53745,-1.74837 -2.30247,-3.34484 -4.06225,-3.67435 -0.69936,-0.13095 -2.42644,-0.0505 -3.83795,0.17873 -4.64779,0.75486 -4.34279,0.99538 -4.34532,-3.4268 -0.003,-4.95158 -0.4021,-6.28573 -3.03677,-10.14717 -1.95825,-2.87007 -2.15074,-3.33868 -1.98497,-4.83221 0.46785,-4.2152 3.36993,-6.69743 7.32208,-6.26281 2.69214,0.29606 6.25569,1.79461 9.71027,4.08337 2.78705,1.8465 6.94336,5.69508 6.94336,6.42927 0,0.22396 -0.44418,1.06087 -0.98707,1.8598 -1.60048,2.35531 -1.39464,5.15062 0.74354,10.09738 0.95184,2.20212 1.86044,4.42962 2.0191,4.95001 0.26138,0.85731 0.20082,0.91833 -0.64484,0.64979 -3.40053,-1.07989 -5.19659,-0.71275 -6.22495,1.27247 -0.52148,1.0067 -0.82724,1.28674 -0.96348,0.88244 z"
       id="path6"
       transform="scale(0.26458333)" /><path
       style="fill:#ffffff;stroke:#000000;stroke-width:0.59614"
       d="m 544.39924,864.06238 c -5.72631,-1.35758 -10.43822,-2.49508 -10.4709,-2.52776 -0.14355,-0.14355 1.11196,-1.22258 1.84227,-1.58332 1.16263,-0.57428 2.25733,-0.68926 4.34862,-0.45674 0.8924,0.0992 2.07883,0.22998 2.63651,0.29058 0.9753,0.10597 4.4558,0.27028 13.23795,0.62495 2.26171,0.0913 7.04207,0.22708 10.62302,0.30166 l 6.51081,0.13559 -0.0327,0.79228 -0.0327,0.79227 -8.78774,2.05572 c -4.83326,1.13064 -8.93983,2.05288 -9.12573,2.04942 -0.18589,-0.003 -5.02316,-1.11706 -10.74947,-2.47465 z"
       id="path7"
       transform="scale(0.26458333)" /><path
       style="fill:#ffffff;stroke:#000000;stroke-width:8.14643"
       d="m 231.70667,537.51784 c -3.38707,-1.0981 -8.37554,-3.1522 -11.08549,-4.56467 -6.02447,-3.14005 -17.1175,-3.26395 -21.11936,-0.23588 -1.85813,1.40598 -3.58466,1.70995 -4.6571,0.8199 -1.45503,-1.20756 -7.01168,-2.56938 -12.34522,-3.02555 -0.81412,-0.0696 0.91791,-1.41324 3.84895,-2.9858 21.96458,-11.78445 22.83221,-12.8234 15.99957,-19.15897 -4.55185,-4.22072 -3.9277,-7.23383 1.49847,-7.23383 5.04524,0 8.61544,-4.71335 8.61544,-11.37404 0,-3.6546 0.59366,-5.37616 1.63251,-4.73411 3.26765,2.01952 10.09059,-2.57172 13.73442,-9.24206 3.17163,-5.80594 3.43703,-7.34362 1.8636,-10.79693 -1.0091,-2.21474 -1.83473,-6.07264 -1.83473,-8.5731 0,-2.71971 -0.80962,-4.5463 -2.01511,-4.5463 -1.10831,0 -3.26814,-0.91623 -4.79961,-2.03607 -2.60748,-1.90664 -2.62619,-2.34219 -0.29426,-6.85165 3.44766,-6.66703 3.13517,-9.51536 -1.58434,-14.44147 -3.93515,-4.10742 -4.01532,-4.54797 -2.34294,-12.87536 1.50105,-7.47429 2.94974,-9.84054 10.87951,-17.77031 8.76978,-8.76978 9.47116,-9.14789 16.96895,-9.14789 4.30158,0 7.82106,0.63576 7.82106,1.41279 0,0.77703 -2.59804,2.68226 -5.77342,4.23384 -8.13382,3.97442 -7.68272,7.93601 1.46631,12.87726 3.98186,2.15054 7.69469,4.36503 8.25075,4.92109 1.38816,1.38816 -4.72877,10.02908 -11.89602,16.80461 -6.69078,6.3251 -6.59069,9.47917 0.37792,11.90844 4.46793,1.55753 4.4953,1.64294 4.4953,14.02613 0,10.36121 0.56129,13.21824 3.33344,16.96778 3.87113,5.23599 5.62151,19.39307 3.00274,24.28628 -2.53851,4.74324 -0.67457,7.57764 6.48884,9.86726 5.69657,1.82078 6.38419,2.54765 6.10428,6.45268 -0.35858,5.00269 -4.21236,9.91504 -9.30693,11.8634 -3.67242,1.40447 -4.58552,5.82201 -1.78273,8.6248 1.21537,1.21537 0.25537,2.13267 -3.46405,3.30997 -9.13576,2.8917 -15.78618,3.25848 -22.08075,1.21776 z"
       id="path8"
       transform="scale(0.26458333)" /><path
       style="fill:#ffffff;stroke:#000000;stroke-width:8.14643"
       d="m 143.47117,485.67727 c -1.8532,-1.72652 -3.36946,-3.5041 -3.36946,-3.95016 0,-2.69189 4.02157,-7.26739 10.00726,-11.38566 9.14137,-6.28942 11.13953,-10.05325 7.48245,-14.09428 -2.67082,-2.95123 -2.6601,-3.26433 0.29881,-8.72451 3.17289,-5.85504 3.85067,-6.04886 14.03912,-4.0147 4.46216,0.89088 5.2301,0.42863 8.87189,-5.34034 4.31113,-6.82928 6.42615,-7.5018 12.96246,-4.12174 5.03312,2.60273 7.92118,8.27012 7.92118,15.54416 0,4.30568 -0.84983,5.71601 -4.61874,7.66499 -3.61186,1.86777 -4.61874,3.41988 -4.61874,7.11986 0,6.20604 -3.65611,13.7057 -9.33301,19.14452 -4.21703,4.04016 -5.03287,4.25751 -10.50198,2.79772 -4.38203,-1.16963 -7.69086,-1.05612 -12.67702,0.43489 -9.30629,2.78287 -12.55089,2.57107 -16.46422,-1.07475 z"
       id="path9"
       transform="scale(0.26458333)" /><path
       style="fill:#ffffff;stroke:#000000;stroke-width:8.14643"
       d="m 166.22407,242.43324 c -1.72247,-1.72246 -3.02867,-5.10823 -3.02867,-7.85051 0,-3.54682 -1.47387,-6.21188 -5.57379,-10.07861 -3.06558,-2.89121 -5.31722,-5.43078 -5.00363,-5.64347 0.31358,-0.2127 2.47538,-1.20496 4.804,-2.20503 4.81925,-2.06972 5.2703,-4.33817 1.83717,-9.23965 -2.28944,-3.26863 -2.22055,-3.42172 1.53958,-3.42172 2.16494,0 4.01603,-0.86602 4.11354,-1.92448 0.36533,-3.96564 -0.5667,-8.21372 -2.71345,-12.36765 -2.16694,-4.19299 -2.09853,-4.33328 3.19058,-6.54321 2.97275,-1.24209 6.90239,-2.25835 8.73253,-2.25835 3.20113,0 3.28634,0.41807 2.24311,11.00521 l -1.08442,11.0052 7.62024,-0.9025 c 6.22386,-0.73712 8.89779,-0.22241 14.59205,2.80888 3.8345,2.04126 9.91581,4.18215 13.51402,4.75753 9.11149,1.45698 12.23206,5.05187 12.23206,14.09133 0,8.97005 -3.00332,13.63408 -9.62428,14.94614 -2.75095,0.54515 -8.20685,2.09166 -12.12422,3.43669 -5.68659,1.95251 -8.43412,2.1126 -13.62859,0.7941 -5.02868,-1.27642 -7.88029,-1.16658 -12.55763,0.48368 -5.57021,1.96528 -6.29241,1.89421 -9.0802,-0.89358 z"
       id="path10"
       transform="scale(0.26458333)" /><path
       style="fill:#ffffff;stroke:#000000;stroke-width:2.0796"
       d="m 398.65895,832.6129 c -0.46462,-0.18745 -2.34192,-1.75105 -4.17178,-3.47467 -3.87552,-3.6505 -4.67453,-4.11186 -8.27425,-4.77758 -3.28283,-0.60713 -5.09107,-1.88053 -9.84918,-6.93599 -3.59627,-3.82101 -6.08511,-5.66026 -8.79282,-6.49787 -1.43616,-0.44427 -1.67033,-0.66859 -1.67033,-1.60008 v -1.08336 h 20.63349 c 11.34842,0 20.63349,0.12144 20.63349,0.26987 0,0.14843 -0.83272,2.04966 -1.85048,4.22495 -2.05218,4.38618 -2.17923,5.40575 -1.52828,12.26452 0.40683,4.28666 0.22267,5.20119 -1.36756,6.79143 -1.22264,1.22264 -2.22214,1.44016 -3.7623,0.81878 z"
       id="path11"
       transform="scale(0.26458333)" /><path
       style="fill:#ffffff;stroke:#000000;stroke-width:2.0796"
       d="m 310.7235,780.38549 c -1.81237,-2.00264 -1.58812,-4.12011 1.2952,-12.23007 1.49405,-4.20232 1.60654,-4.80951 1.60188,-8.64641 -0.003,-2.45083 -0.29299,-5.49538 -0.71415,-7.49698 l -0.70914,-3.37027 7.43187,-2.68865 c 5.81966,-2.1054 7.50151,-2.57594 7.75295,-2.1691 0.17661,0.28575 0.62871,1.98536 1.00468,3.77692 0.95467,4.54919 0.6286,8.49857 -1.21361,14.69921 -0.80276,2.702 -1.79254,6.37668 -2.1995,8.16595 -0.40697,1.78927 -0.95821,3.60274 -1.225,4.02993 -0.26679,0.42719 -1.64926,1.38848 -3.07216,2.13619 -1.4229,0.74771 -3.80894,2.07349 -5.30231,2.94616 -3.05624,1.78597 -3.69566,1.90244 -4.65071,0.84712 z"
       id="path12"
       transform="scale(0.26458333)" /><path
       style="fill:#ffffff;stroke:#000000;stroke-width:0.855598"
       d="m 322.61658,734.02234 c -0.94902,-0.57859 -1.21252,-1.46871 -1.29098,-4.36092 -0.0374,-1.37847 0.01,-3.7098 0.10541,-5.18072 0.25887,-3.99239 0.9137,-5.63327 3.01526,-7.5557 0.96187,-0.87988 4.15888,-2.94827 4.557,-2.94827 0.32146,0 0.91129,2.85493 0.91868,4.44669 0.009,1.84076 -0.2758,2.78855 -2.15505,7.18289 -0.78396,1.83318 -1.6804,4.13838 -1.99207,5.12265 -0.71638,2.26236 -1.12742,3.0663 -1.72595,3.37582 -0.61857,0.31987 -0.78847,0.31009 -1.4323,-0.0824 z"
       id="path13"
       transform="scale(0.26458333)" /><path
       style="fill:#ffffff;stroke:#000000;stroke-width:6.41168"
       d="m 404.84669,474.8664 c -2.54448,-5.8284 -2.73071,-7.21447 -1.51466,-11.27327 2.09128,-6.98007 1.76609,-9.15275 -2.9789,-19.90285 -3.45293,-7.82286 -4.56999,-12.24281 -5.34408,-21.14544 -1.00352,-11.54133 -3.2312,-17.22043 -6.75487,-17.22043 -1.02724,0 -4.55411,2.31744 -7.83748,5.14987 -3.28338,2.83242 -9.34518,7.19466 -13.47066,9.69385 -9.40272,5.69611 -14.88941,6.03788 -19.45301,1.21174 -3.58397,-3.79016 -6.20202,-12.15265 -5.13527,-16.40291 0.46085,-1.83617 0.039,-3.42546 -1.17725,-4.43483 -2.59261,-2.15167 -2.39348,-4.23096 1.11556,-11.64845 1.76052,-3.72143 3.78639,-11.52692 4.8779,-18.79403 2.73015,-18.17708 4.45404,-21.31772 15.46996,-28.18364 12.33268,-7.68662 19.18008,-10.57055 27.01893,-11.37958 6.53728,-0.67472 6.57356,-0.70123 6.57356,-4.80508 0,-4.87777 2.90017,-8.16459 11.55795,-13.09886 3.30669,-1.88457 7.78433,-5.08119 9.9503,-7.1036 3.46084,-3.23146 3.93813,-4.43621 3.93813,-9.94053 0,-6.96265 0.45532,-7.73051 12.96804,-21.86971 4.53211,-5.12122 7.93775,-10.18393 8.39772,-12.48381 0.46168,-2.30837 2.29968,-5.03273 4.55688,-6.75438 4.6774,-3.56763 10.42331,-14.66221 12.20821,-23.57244 1.25851,-6.28246 1.78821,-7.01072 8.54561,-11.7491 l 7.20391,-5.0515 3.31056,2.35733 3.31055,2.35732 5.78865,-3.08154 c 3.18376,-1.69484 6.50722,-3.08153 7.38549,-3.08153 0.87826,0 4.56324,-2.8055 8.18884,-6.23443 6.36434,-6.01913 6.59199,-6.12375 6.59199,-3.02933 0,4.53239 1.96636,3.97485 4.72214,-1.3389 2.25888,-4.35562 2.39963,-4.43014 3.3954,-1.79748 1.01713,2.68914 1.13517,2.64484 5.65081,-2.12053 3.75336,-3.96091 5.43897,-4.8662 9.05381,-4.86252 2.443,0.002 6.27187,1.12025 8.5086,2.4839 3.55594,2.16792 3.99042,2.96647 3.45876,6.35706 -0.33443,2.13274 -0.0236,6.13164 0.69078,8.88646 1.2146,4.68396 1.06062,5.31255 -2.37463,9.69385 -8.53651,10.88745 -8.62271,14.53035 -0.52393,22.14124 6.97942,6.55897 7.54381,7.93016 5.39245,13.10118 -2.63447,6.33225 -1.94657,11.87561 2.59211,20.88822 3.50356,6.95715 4.19682,9.61241 4.11051,15.74374 -0.10512,7.46739 1.36871,10.96745 4.61822,10.96745 0.95742,0 1.45358,0.46463 1.10262,1.03251 -0.35097,0.56788 0.44673,3.15796 1.77267,5.75573 1.82186,3.56939 2.22172,5.98762 1.63685,9.89909 -0.73661,4.92634 -0.497,5.47193 4.97021,11.31682 5.48182,5.86051 5.71074,6.38469 5.01262,11.47796 -0.84065,6.13325 -4.09631,12.84722 -12.8778,26.5573 -3.41499,5.33162 -6.52039,11.19337 -6.90091,13.02612 -0.59473,2.86443 -1.28399,3.33226 -4.90949,3.33226 -6.59091,0 -18.14351,3.39685 -29.55585,8.69041 l -10.44764,4.84608 -5.30488,-2.66837 c -9.65326,-4.85559 -9.53973,-4.59943 -9.59872,-21.65858 -0.029,-8.39398 -0.52049,-17.68528 -1.09214,-20.64734 -1.37109,-7.10454 -0.45378,-9.11754 8.87449,-19.47474 8.12987,-9.02663 11.65813,-14.84382 11.65813,-19.22128 0,-1.38403 1.44075,-5.45406 3.20168,-9.04451 5.29916,-10.80477 1.65676,-16.27611 -9.98948,-15.00549 -9.6284,1.05046 -17.44684,10.57617 -17.44684,21.2566 0,2.78862 -0.45314,5.07022 -1.00697,5.07022 -0.55384,0 -1.77206,1.42957 -2.70717,3.17683 -0.93511,1.74727 -4.8379,5.30763 -8.67289,7.91191 -11.68405,7.9345 -13.66293,10.83973 -21.19102,31.11103 -6.01684,16.20187 -5.89246,19.38922 1.18852,30.45686 8.00626,12.51388 7.46055,20.64675 -1.38537,20.64675 -2.92219,0 -3.32193,0.47395 -3.42356,4.05926 -0.0633,2.23259 -2.06936,8.09435 -4.45794,13.02612 -3.26839,6.74835 -4.62687,11.51514 -5.49075,19.26658 -0.63133,5.66485 -1.67451,11.66292 -2.31817,13.32905 -1.89107,4.89505 -6.39681,8.1547 -13.98949,10.12059 -3.9101,1.01241 -8.27234,2.89423 -9.69386,4.18183 -1.42152,1.2876 -3.94779,3.19706 -5.61392,4.24323 -3.02075,1.89675 -3.03755,1.88331 -5.93052,-4.74334 z"
       id="path14"
       transform="scale(0.26458333)" /></g></svg>
