<?xml version="1.0" encoding="UTF-8" standalone="no"?>
<!-- Created with Inkscape (http://www.inkscape.org/) -->

<svg
   width="210mm"
   height="297mm"
   viewBox="0 0 210 297"
   version="1.1"
   id="svg1"
   xml:space="preserve"
   inkscape:version="1.3.2 (091e20e, 2023-11-25)"
   sodipodi:docname="Kenya.svg"
   xmlns:inkscape="http://www.inkscape.org/namespaces/inkscape"
   xmlns:sodipodi="http://sodipodi.sourceforge.net/DTD/sodipodi-0.dtd"
   xmlns="http://www.w3.org/2000/svg"
   xmlns:svg="http://www.w3.org/2000/svg"><sodipodi:namedview
     id="namedview1"
     pagecolor="#ffffff"
     bordercolor="#000000"
     borderopacity="0.25"
     inkscape:showpageshadow="2"
     inkscape:pageopacity="0.0"
     inkscape:pagecheckerboard="0"
     inkscape:deskcolor="#d1d1d1"
     inkscape:document-units="mm"
     inkscape:zoom="0.53713206"
     inkscape:cx="333.25138"
     inkscape:cy="712.11538"
     inkscape:window-width="1392"
     inkscape:window-height="1212"
     inkscape:window-x="0"
     inkscape:window-y="25"
     inkscape:window-maximized="0"
     inkscape:current-layer="layer1" /><defs
     id="defs1" /><g
     inkscape:label="Kenya Trace line"
     inkscape:groupmode="layer"
     id="layer1"><path
       style="fill:#000000"
       d="m 139.09415,262.20205 -1.99743,-1.88119 c -1.09858,-1.03466 -2.30481,-2.29995 -2.68051,-2.81175 -0.94706,-1.29016 -3.54246,-3.09122 -18.60982,-12.91416 -2.06731,-1.34775 -12.48783,-8.24905 -14.16752,-9.34491 l 9.93893,5.05842 c 2.01563,1.32363 6.20194,4.05313 9.3029,6.06557 7.70144,4.998 12.9251,8.58202 13.71051,9.40694 0.3608,0.37895 1.01986,1.12668 1.46457,1.66163 0.44471,0.53495 1.35989,1.47783 2.03373,2.09528 l 1.22517,1.12265 2.24719,-0.59714 c 3.35591,-0.89175 4.4682,-1.79513 5.35029,-4.34541 0.21447,-0.62006 0.80504,-2.77654 1.31238,-4.79216 1.52515,-6.05923 3.47277,-11.20213 5.32882,-14.07129 0.45406,-0.7019 1.70335,-2.20629 2.77621,-3.34309 2.18739,-2.31775 3.29001,-4.15208 4.27472,-7.11144 0.84445,-2.53782 1.00002,-4.12044 0.85908,-8.73908 -0.11846,-3.88184 -0.10678,-4.08497 0.29706,-5.16828 0.93338,-2.50374 3.46655,-4.07973 8.4255,-5.24186 3.43046,-0.80392 4.63445,-1.38635 6.29166,-3.04356 1.53195,-1.53195 2.11152,-2.62384 2.46322,-4.64066 0.36597,-2.09861 0.63497,-2.71104 1.55566,-3.54181 0.97019,-0.87543 2.10631,-1.23797 4.60791,-1.47042 2.7818,-0.25848 3.35745,-0.58112 5.90396,-3.3091 1.21494,-1.30151 2.57245,-2.53972 3.35584,-3.06092 1.55316,-1.03334 2.08954,-1.88791 1.88156,-2.99773 -0.15345,-0.81887 -0.93504,-1.62248 -4.95883,-5.09856 -5.63951,-4.87187 -9.36457,-8.48979 -10.25612,-9.96113 -0.34919,-0.57627 -0.82658,-1.59747 -1.06087,-2.26935 -0.50653,-1.45255 -1.02478,-0.58448 -0.0667,-30.24457 0.76015,-23.53261 2.07865,-50.690953 1.02329,15.99538 -0.13816,8.73005 -0.13276,12.23851 0.0199,12.96767 0.37375,1.78476 1.41127,3.47139 3.2739,5.32217 2.00356,1.99081 6.27527,5.86824 9.91843,9.00296 2.90516,2.49971 3.35319,3.13257 3.35319,4.73648 0,1.54669 -0.5617,2.39579 -2.41084,3.6444 -0.98313,0.66384 -2.02973,1.6059 -2.92351,2.63148 -1.60164,1.83783 -3.10669,3.06383 -4.2613,3.4712 -0.44281,0.15623 -1.74813,0.37116 -2.90072,0.47762 -3.47758,0.32121 -4.34584,1.0274 -4.79151,3.89711 -0.33989,2.18864 -1.084,3.59397 -2.80275,5.29328 -1.96649,1.94424 -3.09056,2.49897 -7.07446,3.49119 -1.78476,0.44451 -3.61853,0.99633 -4.07504,1.22625 -1.54211,0.7767 -2.60472,1.72344 -3.12274,2.78224 l -0.49113,1.00383 0.11843,3.80676 c 0.18141,5.83176 -0.21212,8.24668 -1.93777,11.89112 -1.17303,2.47735 -1.7845,3.35905 -3.75545,5.41513 -2.02737,2.11494 -2.37919,2.59774 -3.45749,4.74478 -1.78125,3.54667 -2.85951,6.67948 -4.34943,12.63689 -1.14662,4.58475 -1.69938,5.89363 -3.01411,7.13704 -1.19961,1.13455 -1.9703,1.50627 -4.46891,2.15546 -1.01396,0.26345 -1.98557,0.56185 -2.15913,0.66311 z m -37.45528,-26.95203 c -3.169321,-2.21307 -3.833445,-2.86233 -4.616685,-4.51331 -0.870203,-1.83429 -1.043174,-2.86754 -1.043174,-6.23142 0,-3.11736 -0.140225,-3.77697 -0.96245,-4.52734 -2.214194,-2.02069 -28.119096,-17.10662 -57.861919,-33.69635 -5.426689,-3.02686 -11.262142,-6.28402 -12.967672,-7.23814 -1.705531,-0.95413 -5.21526,-2.9016 -7.799398,-4.32773 -2.584137,-1.42613 -5.426575,-3.00163 -6.316528,-3.50112 l -1.6180962,-0.90817 0.7493967,-0.78777 c 0.8268925,-0.86925 1.6363905,-2.43342 1.6392425,-3.16746 10e-4,-0.25995 -0.167308,-0.78821 -0.374039,-1.17393 -0.4971911,-0.92765 -0.4760297,-1.14879 0.161247,-1.68502 0.784546,-0.66015 2.473683,-1.12535 8.689614,-2.39317 6.41811,-1.30906 7.005761,-1.47839 7.089528,-2.04277 0.130578,-0.87978 -1.232264,-1.65855 -5.321933,-3.04115 -3.362717,-1.13683 -4.557796,-1.6767 -6.017653,-2.71843 -1.387395,-0.99002 -2.159211,-1.91072 -2.86539,-3.4181 -0.479174,-1.02283 -0.513247,-1.26153 -0.505314,-3.53997 0.008,-2.28859 0.04787,-2.55021 0.630536,-4.13462 1.569688,-4.26833 4.43473,-9.02716 8.01885,-13.3193 2.225089,-2.66465 4.285906,-4.64692 6.893917,-6.63118 1.007814,-0.76677 1.832389,-1.5179 1.832389,-1.66917 0,-0.1902 0.207503,-0.27504 0.672713,-0.27504 0.658781,0 0.670177,0.0126 0.55028,0.61079 -0.136111,0.67903 -0.568005,1.11614 -2.448227,2.47776 -4.559151,3.30165 -9.959775,10.00375 -12.882576,15.98708 -1.554616,3.18249 -2.109137,5.07 -2.098096,7.14162 0.01163,2.18157 0.529259,3.44221 2.006383,4.88637 1.43027,1.39834 2.753028,2.06447 7.143644,3.59742 3.516981,1.22794 4.599942,1.81361 5.314679,2.87421 0.523429,0.77671 0.565424,1.89475 0.08742,2.32734 -0.466702,0.42236 -1.652286,0.82296 -4.053001,1.36947 -1.644932,0.37446 -2.16012,0.42587 -2.649423,0.26439 -0.672067,-0.2218 -1.120324,-0.11058 -1.637098,0.40619 -0.188785,0.18878 -0.480391,0.34325 -0.648013,0.34325 -0.45666,0 -5.127699,1.06974 -5.991132,1.37207 -0.838275,0.29351 -0.831191,0.27257 -0.489,1.44596 0.3162,1.08427 0.04383,2.41125 -0.75275,3.66732 -0.312269,0.4924 -0.498909,0.95631 -0.414755,1.03092 0.08415,0.0746 5.988459,3.37238 13.120679,7.32839 32.719005,18.14815 57.726137,32.46349 68.140024,39.00676 5.267083,3.30943 5.146182,3.12531 5.178429,7.88597 0.01983,2.9269 0.07713,3.54132 0.425171,4.55842 0.828897,2.42234 1.528601,3.17754 5.26326,5.68069 0.98292,0.6588 0.6489,0.82206 0.8927,0.97732 20.24264,12.89183 1.32297,2.13318 -2.16578,-0.29903 z M 31.704461,114.3772 c 0.120372,-0.36461 0.118057,-0.79202 0.262349,-0.90678 0.219048,-0.17422 0.273333,-2.45342 0.328891,-13.808597 l 0.06654,-13.599937 -1.879373,-1.022453 c -3.279318,-1.784079 -3.757841,-2.530127 -3.570604,-5.566811 0.146406,-2.374485 -0.04557,-2.766813 -1.804945,-3.688581 -3.140403,-1.645316 -3.736447,-3.194923 -3.375282,-8.775126 0.457817,-7.073523 -0.594745,-9.221497 -6.894425,-14.069523 -1.679504,-1.292491 -2.310113,-1.900403 -2.631644,-2.536927 -0.509141,-1.007927 -0.543745,-2.264376 -0.08904,-3.232964 0.379415,-0.80821 5.310312,-6.489108 9.324945,-10.74329 4.682061,-4.961435 11.101077,-10.716992 17.532509,-15.720377 3.58742,-2.790861 4.055898,-2.975983 6.729106,-2.659035 1.03492,0.122705 2.981106,0.308558 4.324858,0.413007 1.343751,0.104449 2.780055,0.279816 3.191786,0.389706 1.95229,0.521058 3.450241,1.740748 3.873696,3.154114 0.209006,0.697601 0.178792,0.833829 -0.490471,2.211379 -0.636417,1.309942 -0.722194,1.660197 -0.796749,3.253387 -0.09921,2.119986 0.199021,3.480989 1.260936,5.75442 1.980733,4.24051 6.189923,8.775724 9.506463,10.242787 0.840983,0.372007 1.357396,0.409875 7.402116,0.542791 5.831746,0.128232 6.652232,0.185084 8.00156,0.554427 4.167997,1.140881 8.483453,3.47735 14.471171,7.834964 1.13702,0.827477 3.197833,2.3329 4.579586,3.345385 4.97928,3.648597 7.42718,5.096015 9.5564,5.650606 0.60102,0.156546 1.90087,0.279829 2.95881,0.280625 2.58957,0.0019 4.02443,0.270439 5.66607,1.06023 l 1.3975,0.672335 4.17739,0.146648 c 4.59626,0.161352 15.90813,1.829118 -1.17928,1.141146 l -3.66428,-0.147531 -1.43631,-0.696645 c -1.40448,-0.681208 -1.50651,-0.700841 -4.60446,-0.886008 -1.8209,-0.108837 -3.56775,-0.315068 -4.10784,-0.484966 -2.41956,-0.761136 -5.1487,-2.447895 -11.142937,-6.886962 -8.164385,-6.04618 -11.991596,-8.280449 -16.483843,-9.623023 -1.62863,-0.48674 -1.934547,-0.511958 -8.238821,-0.679151 -7.337134,-0.194586 -7.446288,-0.21353 -9.736594,-1.689832 -1.542962,-0.994574 -5.050669,-4.543978 -6.31625,-6.391335 -2.150202,-3.138628 -3.430033,-6.628676 -3.428035,-9.348111 0.0013,-1.705714 0.202756,-2.541218 0.990893,-4.108607 l 0.59267,-1.178659 -0.362246,-0.67265 C 54.93621,20.543837 53.106699,19.896094 49.370565,19.67192 48.388593,19.613 46.806159,19.472495 45.854045,19.359686 c -0.952114,-0.112808 -2.034003,-0.148284 -2.404199,-0.07884 -0.735738,0.138025 -2.937766,1.745829 -7.384352,5.39166 -7.100849,5.822106 -12.637352,11.212172 -19.08202,18.577311 -3.86723,4.419575 -4.06222,4.732753 -3.803927,6.109576 0.132203,0.704703 0.341924,0.906134 3.820882,3.669862 2.174631,1.727554 3.566415,3.216732 4.607977,4.930433 1.310238,2.15576 1.353409,2.422501 1.361424,8.411716 0.0051,3.841682 0.07327,5.509292 0.24096,5.897586 0.453554,1.050259 0.977382,1.573994 2.238718,2.238321 1.406251,0.740651 2.358775,1.620029 2.689043,2.482549 0.144554,0.377512 0.173947,1.192851 0.08896,2.467515 -0.171956,2.578889 0.106062,3.074513 2.355097,4.198446 0.461974,0.230867 1.363373,0.721751 2.003109,1.090854 l 1.163157,0.671095 -0.101566,13.828024 c -0.05586,7.605416 -0.161324,14.081736 -0.234361,14.391836 -0.09428,0.40027 -2.688506,7.7577 -3.116615,7.28252 l -0.55028,-0.61079 z m 148.666589,-7.22381 c 0.005,-2.53246 0.0816,-9.585143 0.17129,-15.672639 0.15431,-10.470601 0.18257,-11.094627 0.52344,-11.558143 0.19817,-0.269482 1.37522,-1.166542 2.61566,-1.993466 4.11803,-2.745239 5.81618,-4.348872 7.72648,-7.296428 0.98508,-1.519962 1.57532,-2.788762 2.7694,-5.953151 1.28155,-3.396165 2.85601,-6.596117 4.2649,-8.668007 l 1.22965,-1.808297 -6.23466,0.09676 c -3.42907,0.05322 -6.62945,0.03756 -7.11197,-0.0348 -1.52242,-0.228301 -2.92275,-1.347666 -4.75807,-3.803416 -0.88652,-1.186205 -1.73735,-2.204892 -1.89073,-2.26375 -0.7534,-0.289105 -7.13191,1.762602 -12.56315,4.04105 -1.96394,0.823891 -5.00051,2.099066 -6.74792,2.833724 -5.26288,2.212651 -6.15497,3.008392 -7.56127,6.7446 -0.24919,0.662016 -0.61276,1.513393 -0.80794,1.891949 -1.4999,2.909039 -9.52178,3.761589 -15.86147,2.77813 -11.23725,-1.743207 -18.77226,-2.251459 -1.33976,-1.877956 5.66757,0.121431 15.33424,0.570122 16.61916,-2.761797 1.24766,-3.235269 2.02303,-4.388109 3.7805,-5.620904 1.25798,-0.882424 1.36602,-0.932948 8.06596,-3.771856 7.59936,-3.220016 11.0166,-4.448814 14.90484,-5.35959 1.43204,-0.33544 1.48327,-0.335125 2.1299,0.01311 0.4182,0.225213 1.18237,1.070088 2.07193,2.290726 1.55286,2.130822 2.58989,3.126788 3.60429,3.46157 0.48518,0.160126 2.63462,0.194012 7.86602,0.12401 3.95913,-0.05298 7.19841,-0.02881 7.19841,0.0537 0,0.08251 0.14189,0.291917 0.31532,0.465343 0.20921,0.209211 0.25664,0.394972 0.14095,0.552021 -0.0959,0.130186 -0.65065,0.861193 -1.23278,1.624461 -1.86195,2.441345 -3.35043,5.376125 -5.17149,10.196436 -1.57843,4.178076 -3.24527,6.878312 -5.72126,9.268282 -1.61975,1.563476 -2.33916,2.12317 -4.81675,3.747342 -1.15984,0.76033 -2.22922,1.573501 -2.37641,1.807046 -0.22205,0.352344 -0.28747,2.69603 -0.38429,13.768173 -0.0642,7.338947 -0.48703,32.203397 -0.54873,33.288737 z"
       id="path1"
       inkscape:label="Outline"
       sodipodi:nodetypes="csssccsssscssssssssssssssssssssscsssssssssssscsssssssccsssssssscssssssssscsssssssssssssssssssssssssssssssscsssssssssssssssssssssscscsscsssssssscsccsscssssscsssssscssscsccssssscssssssssssssssssssssssssssscc" /><path
       style="fill:#ffffff;stroke-width:133.693"
       d="m 516.63273,973.57304 c -9.92105,-10.18515 -62.99593,-47.10201 -97.53728,-67.84319 -21.65626,-13.00402 -42.05528,-28.55277 -46.34211,-35.32338 -2.37509,-3.7512 -3.76272,-10.61234 -4.52458,-22.37193 -1.07579,-16.60472 -1.2365,-17.07483 -7.64311,-22.35569 -12.8825,-10.61884 -105.30076,-64.30054 -243.61278,-141.50394 -64.478183,-35.9906 -74.550191,-42.1856 -73.073278,-44.94524 0.942165,-1.76046 1.713027,-6.57475 1.713027,-10.69841 0,-7.27275 0.237292,-7.55626 7.912393,-9.45343 4.351816,-1.07569 11.263525,-2.89 15.359352,-4.03176 4.095827,-1.14177 10.379198,-2.32176 13.963046,-2.62221 3.583849,-0.30043 9.86722,-1.66011 13.963047,-3.02151 5.770593,-1.91805 7.570793,-3.5368 7.997063,-7.19097 0.78567,-6.73503 -5.304844,-11.44858 -23.777099,-18.40149 -19.725274,-7.42454 -27.207684,-13.00013 -30.013394,-22.36476 -2.843989,-9.49239 -1.265821,-16.9002 7.397578,-34.72375 10.417306,-21.43193 30.446844,-46.34238 48.141085,-59.87239 7.47737,-5.7176 12.53023,-13.76023 17.2335,-27.43051 3.25333,-9.45598 3.65812,-16.18575 3.84671,-63.95281 l 0.21076,-53.38473 -7.14027,-4.23752 c -3.92715,-2.33062 -8.39439,-4.99306 -9.9272,-5.91652 -1.8052,-1.08753 -3.11683,-5.77405 -3.72348,-13.30406 -0.90946,-11.28879 -1.17891,-11.79515 -9.314383,-17.50471 l -8.377828,-5.87965 -1.123986,-24.35575 C 87.226829,228.93879 86.62175,225.68441 82.12912,218.01831 79.386595,213.33855 71.305115,204.79309 64.170275,199.02841 55.301258,191.86257 51.197838,187.26585 51.197838,184.49649 c 0,-10.43259 72.619882,-82.6816 107.622342,-107.072721 5.89242,-4.106074 6.91141,-4.213121 23.66706,-2.486258 20.19876,2.081715 28.09372,5.802606 26.00663,12.256916 -0.71688,2.216946 -1.72663,9.656149 -2.2439,16.531563 -0.83983,11.16295 -0.32535,13.81523 4.8074,24.78367 6.11077,13.05843 24.81155,34.40245 34.5747,39.46162 3.79745,1.96781 14.48599,3.252 34.9903,4.20396 l 29.52264,1.37065 15.47454,7.66793 c 8.51098,4.21736 27.95222,16.56502 43.20275,27.43924 35.13233,25.05073 41.63752,28.3563 58.80516,29.88142 7.48265,0.66474 15.25802,2.06135 17.2786,3.10358 2.02059,1.04223 9.56063,2.50546 16.75566,3.25162 7.19503,0.74617 25.9924,3.26443 41.77194,5.59615 25.11506,3.71121 30.6308,3.97983 44.26441,2.15567 20.22487,-2.70606 25.29806,-5.83097 31.06887,-19.13734 2.8035,-6.4643 7.03003,-12.42326 10.79813,-15.22424 7.50767,-5.58072 45.02649,-21.61284 69.49485,-29.69575 l 17.85298,-5.89758 10.95997,11.51781 10.95999,11.51782 h 26.34467 c 14.48957,0 26.02567,0.62834 25.63578,1.39631 -3.33273,6.56455 -20.39416,42.58021 -23.93298,50.52111 -5.03848,11.30599 -15.87803,23.21429 -32.70115,35.92536 l -11.42014,8.62871 -1.1943,49.04014 c -0.65688,26.97208 -0.96342,62.02579 -0.68119,77.89712 0.28222,15.87133 -0.64391,66.1383 -2.05806,111.70437 -2.7411,88.32242 -2.5399,91.91851 5.83817,104.35075 2.31317,3.43252 15.51004,16.46466 29.32636,28.96032 13.81632,12.49566 25.38361,24.43924 25.7051,26.54128 0.41645,2.72302 -3.25814,7.45801 -12.78003,16.46805 -16.22051,15.34861 -16.01496,15.22576 -29.01219,17.34112 -14.84747,2.41648 -18.65921,5.52222 -22.24193,18.12228 -4.76292,16.7508 -12.51735,23.52303 -34.81257,30.40309 -11.82099,3.64781 -20.38566,7.52055 -24.23899,10.96026 l -5.95884,5.31923 -1.09421,24.82576 c -1.3455,30.52631 -4.74556,40.52588 -19.57439,57.56826 -14.77318,16.97842 -21.21564,31.01858 -31.53387,68.7223 -5.6934,20.80424 -8.37283,25.5052 -16.46434,28.88607 -13.65272,5.70446 -14.36997,5.5423 -25.35103,-5.73107 z"
       id="path2"
       transform="scale(0.26458333)"
       inkscape:label="Fill Trace" /></g></svg>
