<?xml version="1.0" encoding="UTF-8" standalone="no"?>
<!-- Created with Inkscape (http://www.inkscape.org/) -->

<svg
   width="210mm"
   height="297mm"
   viewBox="0 0 210 297"
   version="1.1"
   id="svg1"
   xml:space="preserve"
   inkscape:version="1.3.2 (091e20e, 2023-11-25)"
   sodipodi:docname="Mexico.svg"
   xmlns:inkscape="http://www.inkscape.org/namespaces/inkscape"
   xmlns:sodipodi="http://sodipodi.sourceforge.net/DTD/sodipodi-0.dtd"
   xmlns="http://www.w3.org/2000/svg"
   xmlns:svg="http://www.w3.org/2000/svg"><sodipodi:namedview
     id="namedview1"
     pagecolor="#ffffff"
     bordercolor="#000000"
     borderopacity="0.25"
     inkscape:showpageshadow="2"
     inkscape:pageopacity="0.0"
     inkscape:pagecheckerboard="0"
     inkscape:deskcolor="#d1d1d1"
     inkscape:document-units="mm"
     inkscape:zoom="0.87911561"
     inkscape:cx="422.58378"
     inkscape:cy="440.78389"
     inkscape:window-width="2560"
     inkscape:window-height="1440"
     inkscape:window-x="0"
     inkscape:window-y="0"
     inkscape:window-maximized="0"
     inkscape:current-layer="layer1" /><defs
     id="defs1" /><g
     inkscape:label="Layer 1"
     inkscape:groupmode="layer"
     id="layer1"><path
       style="fill:#040404;stroke:none"
       d="m 24.720728,78.414927 c -3.029402,-1.027531 -6.8626,-1.581672 -10.034908,-1.135756 -1.858019,0.261171 -3.656852,1.073312 -4.179,3.047167 -0.491916,1.859574 1.307906,3.879239 2.175901,5.415665 1.790451,3.169255 3.57142,6.465168 5.203902,9.71634 0.820107,1.633286 0.921941,3.1736 2.242516,4.616907 2.519737,2.75392 6.934599,4.12471 8.746377,7.4887 0.209574,0.38912 0.367862,0.83096 0.402267,1.27427 0.313368,4.03767 -4.445357,1.25952 -5.416649,3.82528 0,0 1.761778,3.84573 3.268074,5.25505 2.330232,2.1802 8.447527,4.5043 8.447527,4.5043 3.810764,2.07332 5.970976,4.73306 5.970976,4.73306 0.983403,2.96967 -1.079267,5.77829 0.154858,8.76002 0.453983,1.09686 2.443768,2.43995 3.56583,2.76375 0.588391,0.1698 1.186354,-0.12367 1.752127,0.14012 2.062899,0.96181 4.310538,2.99705 5.893518,4.61248 1.394603,1.42319 1.617221,4.05671 3.345091,5.00123 3.03185,1.65732 6.148457,-2.3373 5.313901,-5.18928 -0.360699,-1.23264 -1.761907,-1.85002 -2.289711,-3.02701 -0.543292,-1.21154 0.532699,-2.48381 -0.983112,-3.54518 -0.606241,-0.42449 -1.091487,-0.0695 -1.722631,0.0131 -1.690144,0.22128 -2.6955,-0.16482 -3.344969,-1.72434 2.618808,-0.7805 0.858782,-4.18879 -1.433559,-3.66354 -0.404306,-1.24253 -1.104791,-2.68061 -1.224128,-3.98211 -0.08123,-0.8859 0.692878,-1.61456 0.309473,-2.53933 -0.26589,-0.64132 -0.869851,-0.70679 -1.474609,-0.64635 -0.66343,-2.03544 -1.825469,-5.47905 -4.300675,-5.73423 -0.292669,-1.6168 -1.861411,-3.11056 -2.760929,-4.45996 -1.976723,-2.96537 -4.007617,-6.09483 -5.681137,-9.23849 3.212326,-1.76295 -2.574713,-7.621495 -4.141391,-4.937812 -0.951834,-0.830905 -2.284326,-1.558233 -3.031933,-2.576198 -2.138958,-2.912489 -2.702301,-7.302284 -2.702301,-10.80368 0.85985,0.452323 1.724065,0.966244 2.707833,1.08561 0.743077,0.09016 1.846118,-0.247715 2.496805,0.159537 3.284468,2.055675 5.00993,6.219942 6.545649,9.586183 0.559767,1.226986 1.456159,2.663908 1.727054,3.98211 0.264663,1.28787 -1.17433,2.47656 -0.808958,3.9821 0.459009,1.89138 2.273444,1.9577 3.737897,1.27428 1.12125,2.35969 3.34091,4.36739 5.574949,5.66025 0.799255,0.46253 1.954849,0.58286 2.657196,1.16402 0.484911,0.40125 0.423249,1.21362 0.574581,1.77708 0.258808,0.96361 0.748667,1.80906 1.415121,2.54793 1.892799,2.09845 4.826516,2.95556 6.644217,5.09832 0.772039,0.91011 -0.171558,1.64371 -0.505876,2.54794 -0.436676,1.18107 -0.305809,2.47596 0.466303,3.49737 1.341438,1.77454 4.514412,1.86964 6.246745,3.31817 0.68894,0.57608 0.965476,1.68107 1.471411,2.42295 0.650543,0.95391 1.55972,1.73768 2.374394,2.54842 3.664909,3.64723 7.867505,6.71266 10.875823,10.99074 1.757022,2.49863 2.370836,5.05137 3.482744,7.80493 0.388576,0.96226 1.513414,1.49681 1.692152,2.54854 0.314029,1.84779 -1.30379,3.16646 -0.600145,5.0971 -2.615804,1.37252 0.122098,6.47789 1.323808,7.96421 3.311312,4.09556 8.224771,6.90454 13.011776,8.94376 1.710147,0.72851 3.724367,1.91118 5.574947,1.25044 v 0.15928 l -0.31857,0.31857 0.47786,-0.47785 h 0.15928 l -0.31857,0.63713 c 5.06044,1.61814 9.5528,4.64717 14.1763,7.25948 5.55759,3.14008 11.42626,6.01694 17.68056,7.45023 3.6086,0.82697 7.35768,1.00314 10.99061,0.22946 2.32164,-0.49443 4.50281,-2.14134 6.84922,-2.33175 0.89473,-0.0726 2.90628,0.61061 3.82283,0.88136 3.57906,1.05723 6.00913,5.13938 8.76063,7.56145 0.9883,0.86997 2.02592,1.90273 3.34497,2.20527 v 0.15929 h 1.11499 v -0.15929 c 1.20506,-0.42962 1.19448,-1.58848 1.08794,-2.70783 -0.16533,-1.73713 -0.56634,-3.64061 0.69823,-5.09464 2.07226,-2.38269 5.54808,-1.39001 8.24874,-2.15168 2.09424,-0.59065 2.21592,-2.5504 1.29578,-4.22215 -0.3372,-0.61262 -0.71777,-1.22271 -1.18442,-1.74585 -0.68245,-0.76505 -1.58511,-1.46165 -2.50062,-1.91768 0.64384,-1.00196 0.19842,-2.67676 1.13626,-3.34583 1.58032,-1.12744 4.24705,-0.5614 6.03153,-0.48327 4.81434,0.21082 8.60337,-0.67531 10.67204,-5.56867 h 0.15929 c 0.0689,3.21774 3.2097,2.21404 4.16068,0 1.60882,-3.74561 1.00651,-8.11661 2.05141,-11.94632 2.43209,2.24876 5.30728,-2.16508 2.86711,-3.50426 0.38099,-0.97497 1.67937,-2.34217 1.57956,-3.34497 -0.23904,-2.40185 -3.15039,-3.20032 -5.08381,-3.46885 -5.17174,-0.71829 -10.93197,0.53398 -15.92843,1.78309 -0.76216,0.19054 -1.52634,0.41364 -2.22998,0.76546 -3.58841,1.79421 -3.07145,4.88385 -3.72548,8.24738 -0.23075,1.18666 -0.96191,2.07415 -1.29641,3.18568 -0.14341,0.47657 0.0778,1.02124 -0.13272,1.46896 -0.48612,1.03404 -1.95691,1.47117 -2.79632,2.17246 -0.47008,0.39273 -0.78353,1.02457 -1.30084,1.34506 -2.14007,1.32584 -5.61368,0.94406 -8.11021,1.44684 -2.07875,0.41863 -4.19317,0.92972 -6.21209,1.584 -0.9862,0.3196 -2.47143,1.07355 -3.50425,0.94685 -1.98811,-0.24392 -3.52142,-2.38015 -5.25639,-3.24763 -1.04115,-0.52058 -2.66204,-0.30363 -3.53965,-0.87165 -2.16496,-1.4012 -4.10504,-4.75207 -5.44221,-6.91558 -1.6498,-2.66932 -3.40125,-5.56315 -4.2874,-8.60135 -0.18315,-0.62794 -0.004,-1.28955 -0.18583,-1.91141 -0.27962,-0.95869 -0.96166,-1.74957 -1.22118,-2.70783 -0.87015,-3.21288 -1.09287,-6.56866 -1.09287,-9.87563 0,-4.80452 0.81727,-9.39716 2.13265,-14.01701 0.37835,-1.32887 2.05363,-3.99206 1.00437,-5.24311 -0.85259,-1.01655 -3.07141,-0.35631 -4.25201,-0.55307 -11.57982,-1.92999 -11.34477,-16.9619 -20.2291,-24.59172 -2.21752,-1.90439 -5.02676,-3.061796 -7.96421,-3.061796 0,0 -1.85931,0.0642 -2.69526,0.422183 -0.76058,0.325709 -1.97021,1.509751 -1.97021,1.509751 -1.24095,1.273152 -3.14992,3.726502 -5.210158,2.851382 -2.774243,-1.17839 -4.587725,-4.988342 -6.258421,-7.331864 -2.474526,-3.471063 -5.228285,-6.164847 -8.7143,-8.586106 -1.18842,-0.825432 -2.103911,-1.726335 -3.504254,-2.230845 -3.124894,-1.12582 -7.809785,-1.646799 -10.831209,0.04117 -0.997631,0.55735 -1.463672,2.346361 -2.398602,2.60165 -2.581559,0.704918 -6.228288,0.05063 -8.910702,0.05063 -2.400765,0 -4.954705,0.184085 -7.327077,-0.211151 -2.911118,-0.484999 -5.83138,-1.878434 -8.60135,-2.864288 -4.637713,-1.650591 -9.331274,-3.071899 -14.017016,-4.570206 0.529768,-2.252301 -1.928444,-2.616611 -2.707833,-0.637137 m 82.110642,20.593133 c 4.45442,-1.113697 8.43383,2.844194 10.12885,5.715474 5.7655,9.76651 12.13821,22.62503 20.69306,22.91023 0,1.25559 -0.82159,2.48992 -1.11499,3.66354 -0.53945,2.15778 -0.89301,4.36845 -1.43356,6.53065 -0.36067,1.44267 0.0469,2.99804 -0.31857,4.45996 -0.50565,2.02259 -0.32927,5.21357 0.15928,7.1678 0.27773,1.11091 0.0434,2.24428 0.31857,3.34496 0.90059,3.60237 1.69907,7.38025 3.34497,10.67205 1.78539,3.57077 3.8791,6.71189 6.37137,10.03491 0.88488,1.17985 2.03888,2.95208 3.34497,3.82282 0.63986,0.42657 1.64339,-0.0272 2.38927,0.15928 0,0 3.60924,2.73136 5.75155,3.21758 2.0178,0.45797 6.19477,-0.39507 6.19477,-0.39507 2.75566,-0.82659 6.49804,-2.24353 9.39777,-2.0729 1.93523,0.11386 2.78823,2.17483 4.93769,0.85036 0.65231,-0.40193 1.42244,-0.97619 1.61054,-1.76158 0.11833,-0.49409 -0.12668,-1.0612 0.14674,-1.51603 0.91106,-1.51558 3.00276,-1.71698 3.74147,-3.57874 0.69285,-1.74611 1.39057,-4.00236 1.62357,-5.89351 0.17703,-1.437 -0.008,-3.19627 0.83721,-4.45357 0.97346,-1.448 2.92557,-1.56971 4.46476,-1.93857 3.70544,-0.88801 7.48945,-1.57208 11.30919,-1.57208 1.20548,0 3.20384,-0.18758 4.25004,0.52616 1.1986,0.81771 -0.42691,2.91133 -0.9728,3.61523 -0.89568,1.15495 -1.95061,2.28431 -2.49249,3.66354 -0.26527,0.67518 -0.16039,1.41264 -0.40301,2.0707 -0.57082,1.54821 -2.24206,2.19943 -0.38174,3.66354 l -0.63714,4.45995 h -0.15929 c -0.97913,-1.25402 -2.13571,-1.38839 -3.3387,-0.28907 -1.51089,1.38069 -2.4775,4.34048 -4.46856,5.05028 -3.11024,1.10876 -6.94809,-0.30912 -10.19186,0.27468 -2.09893,0.37777 -3.87757,1.60274 -3.9821,3.88403 -1.38978,0.25172 -2.38128,1.42558 -1.37076,2.7055 1.52543,1.93211 4.42757,2.61297 5.03429,5.25872 -4.51909,0.19403 -10.39643,0.70375 -10.96345,6.37137 -0.0951,0.95076 -0.0417,1.93077 0.13212,2.86711 -4.70907,-2.19549 -6.72032,-8.84488 -11.94632,-10.28108 -1.17096,-0.3218 -3.42805,-1.07063 -4.61924,-0.8875 -1.30733,0.20099 -1.60339,1.65619 -2.70857,2.17861 -3.24765,1.53515 -6.81301,1.97316 -10.35274,1.63586 -12.02675,-1.14606 -21.62927,-9.45879 -32.17542,-14.42605 -1.61005,-0.75833 -3.56522,-0.9056 -5.25638,-1.51 -4.895409,-1.74954 -9.949185,-4.26302 -13.696118,-7.93582 -1.268703,-1.2436 -2.872493,-3.19154 -2.845729,-5.08837 0.01343,-0.95134 1.165107,-1.31243 1.396567,-2.23244 0.222253,-0.88341 -0.480974,-1.41749 -0.523818,-2.22998 -0.05616,-1.06513 0.725363,-2.07473 0.662939,-3.18568 -0.09093,-1.61824 -1.14193,-2.35853 -1.855851,-3.66354 -0.692221,-1.26533 -0.862968,-2.82783 -1.496857,-4.14139 -3.048548,-6.31719 -8.266921,-10.3581 -13.179422,-15.13422 -0.58934,-0.57298 -1.414927,-1.17643 -1.807309,-1.91153 -0.497968,-0.93291 -0.157466,-1.65872 -1.089305,-2.46252 -1.198399,-1.03373 -2.692622,-1.57007 -3.9021,-2.529 -0.574892,-0.45581 -0.436388,-1.3199 -1.172504,-1.6892 -0.661783,-0.33201 -1.741487,0.63372 -2.218431,0.0538 -0.705983,-0.85837 0.731664,-2.23088 1.070012,-2.92783 0.485528,-1.00013 -0.125447,-1.95361 -0.785484,-2.70783 -2.014386,-2.30185 -5.13999,-3.26633 -7.085817,-5.57729 -1.06883,-1.26939 -0.250136,-3.38016 -1.363133,-4.36704 -0.835124,-0.7405 -2.304941,-0.78744 -3.30859,-1.25707 -1.681604,-0.78684 -3.200069,-2.14411 -4.316775,-3.61204 -4.250913,-5.58791 -5.406998,-12.930455 -9.953546,-18.317693 -0.928141,-1.099765 -2.308601,-2.808756 -3.728801,-3.219235 -1.389786,-0.401682 -2.63677,0.167548 -3.982107,-0.583919 -1.013313,-0.566012 -2.884019,-2.386338 -4.107347,-1.494156 -1.082791,0.789684 -0.175766,1.780612 -0.05518,2.748762 0.303652,2.438019 0.10156,4.7344 0.717887,7.167792 0.501433,1.979766 1.213852,4.449867 2.573252,6.025152 1.468633,1.701867 3.485053,2.891857 4.969029,4.646897 2.615248,3.09295 4.585293,6.73825 6.670151,10.19419 0,0 2.03088,2.42655 3.103365,3.75392 1.072486,1.32737 3.331548,4.21029 3.331548,4.21029 1.461538,3.51045 2.618629,7.06295 3.822822,10.67205 0.752974,2.25675 1.579009,4.98156 3.359349,6.66044 l 3.662629,1.90957 2.627009,3.37631 c 0.113621,0.75353 -1.074663,2.43425 -1.88523,1.65356 -0.480813,-0.4631 -0.471213,-1.53751 -0.844355,-2.13141 -0.929889,-1.48006 -2.252569,-2.65792 -3.574432,-3.77563 -1.88417,-1.59317 -3.975321,-2.92493 -5.893518,-4.47606 -0.720065,-0.58228 -1.834846,-1.34789 -2.140139,-2.26341 -0.749698,-2.24818 -0.262531,-4.8459 -1.046159,-7.16546 -2.041701,-2.6277 -5.158065,-3.88203 -7.747986,-5.8566 l -3.666505,-1.82595 c 0,0 -2.380132,-1.02423 -3.262131,-1.9285 -0.749781,-0.76871 -1.569761,-2.81312 -1.569761,-2.81312 1.005684,0.0757 1.8411,1.27016 2.866381,0.87177 1.415842,-0.55017 0.750132,-1.72724 0.758075,-2.78318 0.01577,-2.09689 1.008224,-3.49804 -0.22,-5.57495 -2.063377,-3.48913 -6.08329,-4.84272 -8.805742,-7.651917 -1.169079,-1.206327 -1.201192,-2.399851 -1.832383,-3.816551 -0.949532,-2.131205 -2.351228,-4.116444 -3.399048,-6.212086 -0.829561,-1.659117 -1.66797,-3.327062 -2.588,-4.937812 -0.411877,-0.721096 -1.267724,-1.707426 -1.343223,-2.547936 -0.0557,-0.620085 0.521644,-0.990811 1.0249,-1.197947 1.272397,-0.523701 2.663175,-0.315321 3.981984,-0.241882 3.967033,0.220922 8.013241,1.481332 11.787036,2.659165 4.497649,1.40375 8.921438,2.99565 13.379879,4.514771 1.976067,0.673303 3.991109,1.624361 6.052802,1.996216 3.685476,0.664727 7.733541,0.233277 11.468467,0.233277 2.144247,0 5.481901,0.633997 7.485748,-0.142319 1.369389,-0.530526 0.711253,-2.025197 1.762078,-2.723942 2.247785,-1.49466 6.927038,-0.693135 9.229149,0.297433 0.968286,0.416644 1.541054,1.176472 2.389386,1.757533 3.401333,2.329736 5.967818,4.930851 8.373852,8.297656 1.64049,2.295554 3.49907,8.204951 8.405918,7.802381 M 2.2686521,101.99342 c -1.79956057,0.95661 -0.1157749,4.65192 1.7363951,3.65469 1.8409484,-0.99119 0.2776249,-4.7253 -1.7363951,-3.65469 m 1.5858372,1.42914 -1.1149899,0.79642 0.1592842,-0.63714 0.9557057,-0.15928 m 18.9555647,4.24757 c -2.162471,0.4392 -2.184902,5.25478 0.79507,4.44386 1.942874,-0.5287 1.332234,-4.87591 -0.79507,-4.44386 m 0.99782,2.1486 0.0248,0.98803 -1.444875,-0.14877 v -1.48395 l 1.519261,-0.22315 m 54.493084,46.02657 c -2.105136,0.43722 -0.838581,3.98257 1.111917,3.48606 2.084068,-0.53051 0.873332,-3.89839 -1.111917,-3.48606 m 1.273661,1.1682 c -0.07806,0.69458 -0.290341,1.03498 -0.955705,1.27428 l 0.477852,-0.95571 -0.955705,0.31857 c 0.336394,-0.61005 0.770857,-0.6293 1.433558,-0.63714 m 128.542405,2.86712 -0.15929,0.79642 h -0.15928 l 0.31857,-0.79642 m -2.38927,5.73423 0.47786,0.47786 -0.63714,-0.31857 0.15928,-0.15929 m -155.779396,9.96744 c -2.094228,0.57959 -0.914062,3.57917 1.113638,3.02467 1.881273,-0.51444 0.673799,-3.51935 -1.113638,-3.02467 m 0.636524,2.29745 0.318569,-0.63714 -0.637137,-0.9557 c 1.025708,0.16743 1.047412,0.98368 0.318568,1.59284 m 54.156652,3.34497 -0.31857,0.47785 h 0.63713 v 0.15929 h -0.63713 l -0.15929,0.63714 h -0.63713 v -0.15929 c 0.36893,-0.22136 0.37821,-0.49819 0.47785,0 h 0.15928 l 0.47786,-1.11499 m 0.31856,0.15929 0.63714,0.79642 h -0.15928 L 105,180.67542 l 0.15928,-0.15928 m -0.9557,0.15928 v 0.31857 h -0.31857 l 0.31857,-0.31857 m -0.31857,0.47786 -0.15928,0.15929 0.15928,-0.15929 m 1.59284,0 v 0.15929 L 105,181.47184 l 0.47785,-0.31857"
       id="path1"
       sodipodi:nodetypes="cssssssscsccsssssssscccssccsccscssssscssssssssssssscssccccccssssssccccssssscssccsccsssssscssssssssscsssssscacssssssssscccscsssssssscscssssssssssssscccssscscscsssssssssssscsssssssssssssssssssscscscccssssscccscsssssssssssssssssssccsccccccscccccccscccccccccccccccscccccccccccccccccccccccccccccccc" /><path
       style="fill:#ffffff;stroke-width:0.576098"
       d="m 634.95393,756.15766 c -3.87977,-3.91018 -10.28014,-10.81517 -14.22304,-15.34442 -8.35852,-9.60152 -14.32863,-13.4307 -25.52141,-16.36927 -11.05208,-2.90163 -12.70118,-2.72975 -17.77315,1.85247 -8.93493,8.07218 -22.00468,11.48204 -40.31075,10.51697 -25.06168,-1.32122 -42.82743,-8.23164 -88.12128,-34.27687 -29.81819,-17.1463 -36.88867,-20.59953 -47.97086,-23.42907 -10.48432,-2.67688 -25.42124,-8.83732 -36.64162,-15.11212 -24.7621,-13.84774 -39.75215,-32.75959 -31.72453,-40.02449 1.82427,-1.65093 2.23032,-3.5642 2.27055,-10.69823 0.0269,-4.77827 0.15687,-10.78138 0.28875,-13.34026 0.1825,-3.5411 -0.61534,-5.98665 -3.33993,-10.23756 -1.96886,-3.07178 -5.03384,-9.69844 -6.81106,-14.7259 -5.32632,-15.06717 -11.9834,-23.84808 -36.28515,-47.86144 -16.77826,-16.57914 -22.34347,-22.78951 -23.44477,-26.16266 -1.15485,-3.53717 -2.92503,-5.39185 -8.83789,-9.25982 -4.06659,-2.6602 -8.77018,-6.49928 -10.45242,-8.5313 -2.47238,-2.98643 -3.88952,-3.69457 -7.39379,-3.69457 -3.69653,0 -4.277,-0.33212 -3.94032,-2.25456 0.21716,-1.24 1.36888,-3.62248 2.55939,-5.29437 3.70594,-5.20452 2.84043,-8.63481 -3.80738,-15.08992 -3.28455,-3.18935 -9.97855,-8.51841 -14.87556,-11.84237 -9.23909,-6.27124 -12.14022,-10.33029 -12.14022,-16.9857 0,-5.11109 -2.84146,-7.87667 -10.82114,-10.53213 -8.88302,-2.95608 -17.56203,-10.35256 -24.36542,-20.76484 -2.50019,-3.82643 -8.4875,-15.67987 -13.30515,-26.34097 -9.88571,-21.87638 -14.06579,-29.3649 -21.11542,-37.82775 -7.64775,-9.18086 -10.53652,-10.98074 -19.09092,-11.89477 -5.56777,-0.59492 -9.07234,-1.75909 -13.4069,-4.4536 -3.22774,-2.00648 -7.256525,-3.64814 -8.952847,-3.64814 -3.473121,0 -6.513031,3.30664 -5.460184,5.93927 1.103273,2.75872 2.719392,14.89551 2.744425,20.61018 0.02986,6.81527 3.846222,21.657 7.492586,29.13843 1.99364,4.09045 5.41852,8.08425 11.07399,12.91349 10.36182,8.84804 18.7228,19.23592 28.04466,34.84336 4.03941,6.76313 13.08185,19.46288 20.09432,28.22168 14.03421,17.5292 14.64205,18.74592 25.46275,50.96899 8.04296,23.95118 10.8407,28.49703 21.03649,34.18068 10.31956,5.75263 18.54534,15.69607 16.07195,19.42798 -2.73651,4.12891 -4.9947,3.51621 -6.58334,-1.78618 -1.90111,-6.34532 -10.36523,-14.8977 -27.11996,-27.40274 -18.87693,-14.08895 -18.23676,-13.16991 -19.91179,-28.5858 -0.77822,-7.16237 -2.11912,-14.01021 -2.97979,-15.21741 -4.42185,-6.20235 -21.87398,-17.95632 -41.77849,-28.13772 -10.69569,-5.47099 -13.09691,-7.20627 -15.4636,-11.17503 -1.54096,-2.58408 -2.65198,-4.8481 -2.46894,-5.03115 0.18305,-0.18304 1.99834,0.49806 4.03399,1.51358 2.78065,1.38717 4.33785,1.5563 6.26106,0.68004 2.36166,-1.07605 2.61618,-2.15032 3.28693,-13.87349 1.06061,-18.53706 -1.2147,-22.502 -20.937737,-36.48595 C 85.736084,374.36489 81.134801,369.38765 79.110909,362.5163 78.338117,359.89258 75.269441,353.39493 72.29163,348.07709 63.406771,332.2103 49.481547,306.25286 49.481547,305.55775 c 0,-0.35613 1.645133,-1.49823 3.655851,-2.53801 3.005455,-1.55419 5.623198,-1.76159 14.714209,-1.16582 17.129234,1.12254 38.752133,7.30357 96.518133,27.59025 l 22.18138,7.78981 33.99884,0.37533 c 37.93306,0.41876 39.59997,0.17155 41.69745,-6.18389 1.96561,-5.95586 5.70447,-7.78361 15.80014,-7.72393 11.96266,0.0707 19.64338,2.67178 29.36358,9.94394 16.22444,12.1383 27.42813,24.10827 35.71516,38.15795 7.75571,13.14886 11.74743,18.01057 16.97896,20.6795 8.1004,4.13252 11.31916,3.23782 28.92208,-8.03923 18.24256,-11.68683 21.3787,-12.40893 32.13799,-7.39977 9.19037,4.27871 15.931,11.97278 27.00131,30.82054 22.46478,38.24738 33.37255,53.41195 45.78071,63.64679 7.49756,6.18432 17.11361,10.79168 22.52342,10.79168 3.25969,0 3.5345,1.73033 1.17259,7.38318 -3.25866,7.79907 -8.39356,35.31468 -9.20003,49.29887 -1.54067,26.71501 4.84125,58.23324 16.5075,81.52503 6.82547,13.62714 21.82273,36.17069 30.35071,45.62252 3.87028,4.28955 5.14089,4.99705 8.98002,5.00015 3.31775,0.003 6.2333,1.17806 11.2969,4.5542 11.00704,7.33894 14.82704,8.38965 27.60942,7.59423 7.81337,-0.48623 14.24197,-1.72384 21.87213,-4.21075 14.77586,-4.81594 25.2648,-5.61338 31.56406,-2.39974 5.89977,3.00984 8.92399,3.04106 13.68019,0.1412 3.5882,-2.18772 6.56122,-7.17561 5.39844,-9.05703 -0.85679,-1.38632 3.51751,-6.40573 7.99292,-9.17169 6.56737,-4.05885 10.90361,-15.47144 13.05906,-34.3702 1.07389,-9.41573 2.86526,-13.54449 6.78736,-15.64354 1.24799,-0.6679 9.56601,-2.79854 18.48449,-4.73476 18.297,-3.97231 46.11348,-5.79764 50.72671,-3.32872 3.78208,2.02412 2.99413,5.94381 -2.76843,13.77167 -7.53527,10.23595 -9.55169,13.82865 -9.56307,17.03877 -0.006,1.56408 -1.27118,4.89128 -2.81251,7.3938 -3.27095,5.31069 -3.54514,7.69528 -1.11661,9.71078 1.09646,0.90998 1.54692,2.56573 1.1984,4.40493 -0.30715,1.62079 -0.87914,5.07713 -1.27109,7.68075 l -0.71263,4.73387 -3.16036,-1.8138 c -4.98244,-2.85953 -9.02564,-0.45586 -16.14572,9.59854 -8.56301,12.092 -9.31215,12.38846 -30.344,12.00799 -9.6938,-0.17536 -19.36319,0.21469 -21.83727,0.88089 -4.82471,1.29916 -11.38466,7.03964 -11.38466,9.9625 0,1.0023 -1.83278,3.50113 -4.07286,5.55297 -5.04491,4.62096 -4.61043,7.26484 2.12403,12.92478 7.57451,6.36596 14.46141,13.25743 14.46141,14.47101 0,0.61614 -3.71112,1.4373 -8.24693,1.82479 -21.74041,1.85725 -32.61172,10.72145 -32.67834,26.64509 -0.0142,3.39792 -0.53995,5.97191 -1.21976,5.97191 -0.65712,0 -4.36914,-3.19924 -8.2489,-7.10942 z"
       id="path2"
       transform="scale(0.26458333)" /></g></svg>
