<?xml version="1.0" encoding="UTF-8" standalone="no"?>
<!-- Created with Inkscape (http://www.inkscape.org/) -->

<svg
   width="210mm"
   height="297mm"
   viewBox="0 0 210 297"
   version="1.1"
   id="svg1"
   xml:space="preserve"
   inkscape:version="1.4 (e7c3feb1, 2024-10-09)"
   sodipodi:docname="France.svg"
   xmlns:inkscape="http://www.inkscape.org/namespaces/inkscape"
   xmlns:sodipodi="http://sodipodi.sourceforge.net/DTD/sodipodi-0.dtd"
   xmlns="http://www.w3.org/2000/svg"
   xmlns:svg="http://www.w3.org/2000/svg"><sodipodi:namedview
     id="namedview1"
     pagecolor="#ffffff"
     bordercolor="#000000"
     borderopacity="0.25"
     inkscape:showpageshadow="2"
     inkscape:pageopacity="0.0"
     inkscape:pagecheckerboard="0"
     inkscape:deskcolor="#d1d1d1"
     inkscape:document-units="mm"
     inkscape:zoom="0.64437307"
     inkscape:cx="651.79633"
     inkscape:cy="488.0713"
     inkscape:window-width="1712"
     inkscape:window-height="1040"
     inkscape:window-x="0"
     inkscape:window-y="39"
     inkscape:window-maximized="0"
     inkscape:current-layer="layer1" /><defs
     id="defs1" /><g
     inkscape:label="France silhouette"
     inkscape:groupmode="layer"
     id="layer1"><path
       style="fill:#000000;fill-opacity:1"
       d="m 190.58101,230.67181 c -0.57306,-0.63323 -1.38639,-0.91497 -2.655,-0.91972 -1.00587,-0.004 -2.12755,-0.19569 -2.49262,-0.42651 -0.54699,-0.34585 -0.57196,-0.66288 -0.14193,-1.80216 0.48429,-1.28302 0.44159,-1.41298 -0.59349,-1.80652 -0.61342,-0.23322 -1.40369,-0.42404 -1.75615,-0.42404 -0.35246,0 -0.64083,-0.39009 -0.64083,-0.86686 0,-0.47677 0.213,-0.9985 0.47333,-1.15939 0.29888,-0.18472 0.17543,-0.51547 -0.33496,-0.89741 -0.75428,-0.56445 -0.7603,-0.69091 -0.0901,-1.89263 0.63041,-1.13037 0.63913,-1.39236 0.0714,-2.14355 -0.47829,-0.63278 -0.58145,-1.59477 -0.39588,-3.69163 0.191,-2.15832 0.0939,-2.99287 -0.40631,-3.49311 -0.3615,-0.36149 -0.65727,-0.83019 -0.65727,-1.04156 0,-0.21136 0.5669,-0.78796 1.25978,-1.28133 0.69288,-0.49337 2.25042,-1.1383 3.46121,-1.43318 1.21078,-0.29487 2.55313,-0.84042 2.98299,-1.21232 0.4397,-0.38042 0.78156,-1.29936 0.78156,-2.10088 0,-0.8575 0.3556,-1.7465 0.89322,-2.23303 0.49126,-0.44459 0.89321,-1.07866 0.89321,-1.40904 0,-0.33038 0.39731,-0.6007 0.88292,-0.6007 0.48561,0 1.18629,0.46301 1.55708,1.0289 0.51916,0.79235 0.57393,1.37839 0.2382,2.54901 -0.30482,1.06282 -0.27502,1.99604 0.0991,3.10222 0.29425,0.87016 0.88194,1.88357 1.30598,2.25202 0.596,0.51788 0.78802,1.48077 0.84608,4.24277 0.0413,1.96507 -0.0526,5.96271 -0.20862,8.88365 -0.20837,3.90006 -0.48748,5.62077 -1.05074,6.47772 -0.42185,0.64181 -0.9885,1.56802 -1.25922,2.05823 -0.27072,0.49021 -0.88473,0.95039 -1.36446,1.02261 -0.47974,0.0722 -1.24401,-0.27948 -1.69839,-0.78156 z M 93.448637,215.44703 c -1.999235,-1.29217 -2.738922,-2.02371 -2.596589,-2.56799 0.163426,-0.62494 -0.127816,-0.76196 -1.628042,-0.76595 -1.329137,-0.004 -2.598075,-0.47502 -4.656114,-1.73004 -2.420654,-1.47615 -2.968652,-1.65106 -3.796162,-1.21165 -0.531916,0.28245 -1.670526,0.47864 -2.530245,0.43598 -0.859719,-0.0427 -3.016408,0.45452 -4.792641,1.10485 -1.776234,0.65032 -3.721745,1.18241 -4.32336,1.18241 -0.789426,0 -1.133561,-0.27596 -1.236557,-0.99159 -0.127761,-0.88769 -0.365096,-0.97774 -2.265147,-0.85942 -1.72361,0.10734 -2.177193,-0.021 -2.413854,-0.68318 -0.160283,-0.44845 -0.812974,-1.26033 -1.450426,-1.80417 -0.649503,-0.55412 -1.779623,-0.99586 -2.570777,-1.00487 -1.016422,-0.0116 -1.735559,-0.40085 -2.567992,-1.39014 -0.63592,-0.75575 -1.156219,-1.51137 -1.156219,-1.67915 0,-0.16779 -1.256083,-0.3031 -2.791295,-0.30069 -2.523854,0.004 -2.782954,-0.0812 -2.704229,-0.88885 0.04789,-0.49126 0.222045,-1.44589 0.387019,-2.12138 0.298545,-1.22241 0.288703,-1.22829 -2.096799,-1.25391 -1.318214,-0.0142 -3.198482,-0.16794 -4.178374,-0.34175 -1.145704,-0.20322 -1.833177,-0.58372 -1.926062,-1.06603 -0.104685,-0.54359 0.341143,-0.88077 1.619785,-1.22508 1.181027,-0.31801 2.178401,-1.01807 3.01714,-2.11771 0.689103,-0.90346 1.904705,-2.61121 2.701338,-3.795 1.165159,-1.73142 1.399913,-2.45128 1.200375,-3.68089 -0.154097,-0.94958 0.124265,-2.76706 0.734929,-4.79848 0.540636,-1.79847 1.471905,-4.15465 2.069486,-5.23595 0.597581,-1.0813 1.033334,-2.0148 0.96834,-2.07445 -0.06499,-0.0597 -0.874646,-0.42196 -1.799227,-0.80513 -0.92458,-0.38318 -1.810435,-1.03384 -1.968565,-1.44592 -0.15813,-0.41208 -0.05482,-1.12456 0.229582,-1.58329 0.284401,-0.45873 0.691932,-1.18576 0.905626,-1.61562 0.213694,-0.42986 0.816614,-1.74156 1.339822,-2.91489 0.523208,-1.17334 0.951287,-2.93999 0.951287,-3.9259 0,-1.14435 0.245104,-3.3875 1.287987,-3.25697 9.411965,1.17798 0.669553,-1.18331 -0.755824,-2.65393 -0.783957,-0.80884 -1.425377,-1.71226 -1.425377,-2.00761 0,-0.29535 0.477825,-0.537 1.061833,-0.537 0.584009,0 1.304717,-0.29265 1.601574,-0.65035 0.309535,-0.37296 0.383873,-0.89679 0.174293,-1.22817 -0.200996,-0.3178 -0.469514,-1.5814 -0.596707,-2.808 -0.23126,-2.23018 -0.23126,-2.23018 -2.360414,-2.61773 -1.68185,-0.30612 -2.446825,-0.75867 -3.641268,-2.15411 -0.831664,-0.97161 -2.435954,-3.57403 -3.56509,-5.78315 -1.129136,-2.20913 -2.052975,-4.37525 -2.052975,-4.8136 0,-0.43834 0.401237,-1.16011 0.891638,-1.60391 0.678225,-0.61379 0.772541,-0.95043 0.394052,-1.40648 -0.273671,-0.32975 -0.401318,-1.10314 -0.283658,-1.71864 0.161504,-0.84485 0.02498,-1.11908 -0.557127,-1.11908 -0.42408,0 -1.30059,-0.41653 -1.947801,-0.92563 -0.866394,-0.68151 -1.176747,-1.33339 -1.176747,-2.47172 0,-1.5461 0,-1.5461 -2.14076,-1.26211 -1.667231,0.22116 -2.272055,0.12578 -2.734328,-0.43123 -0.354274,-0.42687 -1.279583,-0.71521 -2.295218,-0.71521 -1.220418,0 -1.777712,-0.22102 -1.970611,-0.78156 -0.14793,-0.42986 -1.618529,-1.59653 -3.267999,-2.5926 -1.64947,-0.99607 -3.557674,-2.08833 -4.240454,-2.42725 -1.110458,-0.5512 -1.453291,-0.51327 -3.24985,0.35957 -1.104638,0.53667 -2.272257,0.97577 -2.594709,0.97577 -0.322452,0 -0.811471,-0.49425 -1.086709,-1.09833 -0.275237,-0.60408 -1.312363,-1.51254 -2.304723,-2.01881 -0.992361,-0.50626 -1.804292,-1.09425 -1.804292,-1.30664 0,-0.2124 0.495362,-0.71074 1.100805,-1.10745 0.605443,-0.3967 2.012256,-0.72127 3.126251,-0.72127 1.735961,0 2.025446,-0.12924 2.025446,-0.90427 0,-0.57705 -0.444421,-1.07097 -1.22817,-1.36496 -0.675493,-0.25339 -1.688493,-0.95182 -2.25111,-1.55208 -0.562617,-0.60025 -1.503697,-1.09137 -2.091289,-1.09137 -0.676112,0 -1.172432,-0.32794 -1.351844,-0.89322 -0.155922,-0.49126 -0.163225,-1.27215 -0.01623,-1.7353 0.146997,-0.46314 1.014677,-1.35807 1.928177,-1.98873 1.002711,-0.69224 2.280356,-1.14832 3.224034,-1.15089 0.859719,-0.002 2.482483,-0.12971 3.606142,-0.28304 1.403683,-0.19155 2.573768,-0.057 3.739052,0.42985 0.932819,0.38976 2.049794,0.70865 2.482166,0.70865 0.432372,0 1.571367,-0.78524 2.531099,-1.74497 1.323689,-1.323689 2.236709,-1.818708 3.781803,-2.05041 1.763931,-0.264517 2.182401,-0.165356 3.123281,0.740102 0.597546,0.575048 1.431544,1.591148 1.853331,2.257998 0.421786,0.66685 0.766884,1.54249 0.766884,1.94586 0,0.53638 0.209973,0.63776 0.781563,0.37739 0.429859,-0.19581 1.633931,-0.31603 2.675714,-0.26716 1.384466,0.065 2.13556,-0.15254 2.791296,-0.80828 0.493429,-0.49342 1.248847,-0.88832 1.678706,-0.87754 0.42986,0.0108 1.585456,0.30922 2.567992,0.66319 0.982536,0.35397 1.923348,0.64661 2.090692,0.65031 0.167345,0.004 0.444898,-1.60548 0.616784,-3.575949 0.171886,-1.970469 0.479254,-3.685717 0.683039,-3.811664 0.203785,-0.125946 -0.632041,-1.195331 -1.85739,-2.376411 -1.711707,-1.649866 -2.219488,-2.448229 -2.191566,-3.445705 0.01999,-0.714057 -0.09762,-1.847249 -0.261353,-2.518204 -0.163734,-0.670955 -0.165378,-1.747122 -0.0037,-2.391481 0.241013,-0.960272 0.471617,-1.116518 1.278657,-0.866352 0.541537,0.167865 1.98948,0.508182 3.21765,0.756259 1.22817,0.248078 2.488428,0.662297 2.800574,0.920486 0.312146,0.25819 0.778201,1.306059 1.03568,2.328597 0.257478,1.022539 0.879338,2.115958 1.381912,2.42982 0.539754,0.337082 2.035252,0.53017 3.653697,0.471739 1.50696,-0.05441 3.54382,-0.119421 4.526356,-0.144478 0.982536,-0.02506 2.71232,0.11181 3.843964,0.304149 2.057536,0.349707 2.057536,0.349707 1.847517,-1.836 -0.11551,-1.202139 0.0047,-2.5869 0.26712,-3.077248 0.285078,-0.532674 2.957044,-2.008206 6.638022,-3.665695 3.388486,-1.525785 6.777484,-3.075099 7.531108,-3.44292 1.159871,-0.566099 1.340543,-0.871001 1.17688,-1.986106 -0.106339,-0.724537 0.04466,-1.604113 0.335545,-1.954613 0.384508,-0.463304 0.39851,-0.880888 0.05129,-1.529675 -0.26268,-0.490821 -0.4776,-1.483527 -0.4776,-2.206013 0,-0.722486 0.480763,-2.393728 1.068361,-3.713871 0.692945,-1.556822 1.553826,-2.682432 2.449901,-3.203267 0.974787,-0.566587 1.832218,-0.718461 2.912277,-0.51584 0.841906,0.157942 1.935563,0.158681 2.43035,0.0016 0.494787,-0.157039 1.309374,-0.980021 1.810195,-1.828848 0.644818,-1.092886 1.230213,-1.543323 2.005733,-1.543323 0.76169,0 1.37823,0.458023 2.0248,1.504189 0.5113,0.827303 0.92964,2.234116 0.92964,3.126251 0,0.892134 0.18468,1.622062 0.41041,1.622062 0.22573,0 1.01851,-0.348997 1.76173,-0.77555 1.3042,-0.748503 1.39502,-0.74297 2.60419,0.158666 0.99517,0.742059 1.31289,1.416315 1.54466,3.278052 0.16049,1.28911 0.47189,2.523925 0.692,2.744033 0.2201,0.220108 2.0609,0.883013 4.09066,1.473122 2.02976,0.590109 4.0798,1.425262 4.55564,1.855896 0.63766,0.577067 0.86518,1.374459 0.86518,3.032149 0,1.876785 0.0924,2.132707 0.55826,1.545715 0.30704,-0.386905 1.44255,-1.329697 2.52335,-2.095093 1.54814,-1.096359 2.42466,-1.391629 4.13111,-1.391629 2.06592,0 2.1659,0.05676 2.16309,1.22817 -0.002,0.675493 -0.40224,1.83109 -0.89027,2.567992 -0.48803,0.736902 -0.88866,1.490552 -0.89028,1.674777 -0.002,0.184226 0.27137,0.334956 0.60664,0.334956 0.33527,0 2.1515,1.507299 4.03608,3.349554 3.33882,3.263836 3.48359,3.349555 5.65702,3.349555 1.22677,0 3.45688,-0.413136 4.95578,-0.918079 1.4989,-0.504944 2.99986,-0.812711 3.33547,-0.683928 0.3356,0.128784 0.61019,0.633481 0.61019,1.12155 0,0.488069 0.51702,1.649275 1.14894,2.580459 0.90188,1.329 1.39082,1.661364 2.27379,1.545656 0.61866,-0.08107 1.75967,0.102406 2.53557,0.40773 0.77589,0.305323 1.95269,1.052859 2.6151,1.661191 1.02491,0.941239 1.49076,1.06624 3.12625,0.838847 1.05703,-0.146967 3.00018,-0.570913 4.31811,-0.942104 1.81228,-0.510423 2.62855,-0.554964 3.34955,-0.182771 0.52433,0.270667 1.30502,0.798905 1.73488,1.173862 0.42986,0.374958 0.78156,1.267546 0.78156,1.983529 0,0.715983 -0.60292,2.178101 -1.33982,3.249154 -0.7369,1.07105 -1.33982,2.13347 -1.33982,2.36093 0,0.22747 -0.72858,1.36777 -1.61907,2.53401 -1.61908,2.12044 -1.61908,2.12044 -0.66992,4.02095 0.52204,1.04529 0.94917,2.1143 0.94917,2.3756 0,0.26129 -0.55268,1.13185 -1.22817,1.93457 -1.11598,1.32619 -1.23088,1.79718 -1.25786,5.15617 -0.0231,2.87007 -0.20516,3.89056 -0.81443,4.5638 -0.43161,0.47692 -1.2288,0.97858 -1.77154,1.1148 -0.71669,0.17987 -1.13508,0.8021 -1.52854,2.2732 -0.29796,1.11404 -0.79374,2.02653 -1.10172,2.02775 -0.30799,0.001 -1.13352,0.46118 -1.83452,1.02214 -0.701,0.56095 -1.73715,2.1175 -2.30256,3.45899 -0.77482,1.83837 -1.28586,2.47659 -2.075,2.59144 -0.57586,0.0838 -1.38732,0.45634 -1.80326,0.82787 -0.41593,0.37153 -0.89501,1.30729 -1.06461,2.07947 -0.1696,0.77218 -0.98488,2.19433 -1.81174,3.16033 -0.82686,0.966 -1.50338,2.22262 -1.50338,2.79249 0,0.84925 0.23726,1.03613 1.31545,1.03613 0.9805,0 1.46381,-0.3025 1.89808,-1.188 0.32045,-0.65341 1.11781,-1.58396 1.77192,-2.06791 0.82238,-0.60844 1.54567,-0.79046 2.34442,-0.58999 0.69626,0.17476 1.62427,1.04055 2.33617,2.17956 0.64958,1.03931 1.85554,2.64387 2.67992,3.56571 0.82438,0.92183 1.49887,1.97083 1.49887,2.3311 0,0.36027 -0.40195,1.37067 -0.89322,2.24534 -0.49127,0.87466 -0.89321,1.94744 -0.89321,2.38395 0,0.43651 0.90438,1.43112 2.00973,2.21025 1.93122,1.36125 2.00973,1.50501 2.00973,3.68015 0,1.8574 -0.20601,2.45449 -1.14809,3.32758 -0.63144,0.58521 -2.0375,1.42975 -3.12457,1.87676 -1.08707,0.44701 -1.97725,0.92179 -1.97817,1.05507 -9.2e-4,0.13328 0.86964,0.47536 1.93457,0.76019 1.48911,0.39827 2.21237,0.93512 3.13194,2.32468 1.1957,1.80682 1.1957,1.80682 0.33027,4.3758 -0.49791,1.47799 -1.16414,2.63029 -1.56882,2.71337 -0.38686,0.0794 -0.70338,0.28398 -0.70338,0.45458 0,0.17061 0.52234,1.07888 1.16076,2.01839 1.02804,1.5129 1.32164,1.68064 2.56799,1.46711 0.77398,-0.1326 2.56278,-0.37535 3.97511,-0.53945 2.00407,-0.23286 2.81415,-0.137 3.68959,0.43662 0.90254,0.59136 1.06648,0.97231 0.83896,1.94952 -0.15553,0.668 -0.85152,2.12139 -1.54665,3.22976 -0.69512,1.10837 -1.56251,2.72997 -1.92751,3.60355 -0.58692,1.4047 -0.97407,1.67464 -3.34858,2.33481 -2.13965,0.59488 -2.93894,1.08331 -3.93565,2.40497 -0.68789,0.91218 -2.47353,2.9507 -3.96808,4.53005 -2.24533,2.37273 -3.05994,2.93585 -4.68938,3.24164 -1.0846,0.20354 -2.97687,0.5667 -4.20504,0.80701 -1.22817,0.24031 -3.18952,0.44891 -4.35855,0.46355 -2.07891,0.026 -2.15563,-0.0223 -3.49881,-2.20526 -0.75531,-1.22754 -1.69437,-2.41158 -2.0868,-2.63119 -0.4517,-0.25278 -1.35981,-0.17127 -2.47489,0.22215 -0.96876,0.3418 -2.50775,0.62146 -3.41998,0.62146 -1.30791,0 -1.75978,-0.22208 -2.13717,-1.05036 -0.3888,-0.85334 -0.93986,-1.10458 -2.93766,-1.33938 -1.35251,-0.15896 -3.0719,-0.64072 -3.82089,-1.07058 -1.36179,-0.78156 -1.36179,-0.78156 -3.72147,1.53242 -1.29783,1.27268 -3.24965,2.77978 -4.33738,3.3491 -1.3275,0.69483 -2.41775,1.75427 -3.31624,3.22256 -1.29449,2.11539 -1.32142,2.26913 -0.81801,4.66916 0.2863,1.36495 0.82399,2.65155 1.19486,2.8591 0.37087,0.20755 0.67431,0.94718 0.67431,1.64363 0,0.85304 -0.35923,1.50164 -1.1008,1.98754 -0.60545,0.3967 -1.67239,0.72128 -2.37098,0.72128 -0.6986,0 -1.66029,0.29506 -2.1371,0.6557 -0.62586,0.47338 -2.12059,0.65966 -5.37541,0.66991 -4.508482,0.0142 -4.508482,0.0142 -7.304102,-1.79269 z m 11.786293,-0.66365 c 0.47681,-0.36063 1.52006,-0.6557 2.31834,-0.6557 0.79827,0 1.58105,-0.20978 1.73951,-0.46617 0.15846,-0.2564 0.10126,-0.70859 -0.12711,-1.00487 -0.22837,-0.29628 -0.76223,-1.80805 -1.18635,-3.35949 -0.77113,-2.82079 -0.77113,-2.82079 0.42379,-5.13598 0.6572,-1.27336 1.70934,-2.86322 2.33808,-3.53304 0.62875,-0.66982 1.79248,-1.43214 2.58607,-1.69405 0.7936,-0.26191 2.4801,-1.57288 3.74778,-2.91327 1.68517,-1.78182 2.6283,-2.43633 3.50777,-2.43432 0.66159,0.002 1.71415,0.26957 2.33902,0.59568 0.62488,0.32611 1.77268,0.72024 2.55068,0.87584 0.77799,0.1556 1.53468,0.0885 1.68151,-0.14907 0.14684,-0.23759 0.61137,-0.43198 1.03228,-0.43198 0.42091,0 1.14411,0.7034 1.60709,1.56312 0.46299,0.85972 1.01416,1.56313 1.22483,1.56313 0.21066,0 1.57529,-0.33148 3.0325,-0.73662 2.48227,-0.69014 2.72322,-0.68831 3.81791,0.029 0.64263,0.42107 1.70828,1.67524 2.36811,2.78705 1.19968,2.02147 1.19968,2.02147 4.05603,1.73836 1.57099,-0.1557 3.21581,-0.47548 3.65515,-0.7106 0.43934,-0.23513 1.43036,-0.42751 2.20227,-0.42751 1.1429,0 1.91537,-0.53403 4.16048,-2.87631 1.51635,-1.58198 3.4349,-3.69377 4.26344,-4.69288 1.14328,-1.37865 2.09161,-1.98668 3.93379,-2.52222 1.89422,-0.55066 2.52601,-0.96677 2.87655,-1.89458 0.24707,-0.65391 1.06775,-2.15527 1.82373,-3.33636 0.88106,-1.37649 1.22013,-2.30182 0.94448,-2.57748 -0.27566,-0.27566 -1.54097,-0.26948 -3.52448,0.0172 -1.70194,0.24599 -3.6204,0.45123 -4.26326,0.4561 -0.87833,0.007 -1.46979,-0.44596 -2.37983,-1.82111 -0.66605,-1.00648 -1.3183,-2.49115 -1.44944,-3.29928 -0.18155,-1.11876 -0.009,-1.69868 0.72288,-2.43065 0.52873,-0.52872 1.16422,-1.49497 1.4122,-2.1472 0.35997,-0.94679 0.28117,-1.41592 -0.39084,-2.32686 -0.51043,-0.6919 -1.55551,-1.30275 -2.65531,-1.55201 -1.43582,-0.32542 -1.96435,-0.72718 -2.53734,-1.92875 -0.39806,-0.83474 -0.62215,-1.6821 -0.49797,-1.88302 0.12417,-0.20092 0.90767,-0.49323 1.7411,-0.64959 0.83343,-0.15635 2.34295,-0.8838 3.35449,-1.61655 1.44111,-1.04394 1.83915,-1.61876 1.83915,-2.65596 0,-1.0738 -0.33462,-1.51591 -1.7725,-2.34189 -1.51153,-0.8683 -1.84078,-1.33599 -2.23627,-3.17668 -0.40925,-1.90471 -0.35839,-2.29246 0.43267,-3.29813 0.49305,-0.62681 0.89646,-1.33941 0.89646,-1.58356 0,-0.24414 -0.71263,-1.2327 -1.58363,-2.19678 -0.87099,-0.96409 -1.81182,-2.25373 -2.09073,-2.86587 -0.3414,-0.74928 -0.80537,-1.06982 -1.4198,-0.98089 -0.50197,0.0727 -1.16579,0.63453 -1.47515,1.24861 -0.30936,0.61409 -0.61585,1.26333 -0.68109,1.44277 -0.0652,0.17943 -1.20297,0.53148 -2.52828,0.78232 -1.65595,0.31342 -2.58427,0.31117 -2.96788,-0.007 -0.30702,-0.25481 -0.68733,-1.15149 -0.84513,-1.99262 -0.2214,-1.18015 -0.042,-1.91733 0.78576,-3.22855 0.58996,-0.93456 1.40145,-1.97208 1.80331,-2.30559 0.40186,-0.33352 0.73065,-1.24739 0.73065,-2.03084 0,-1.06333 0.33804,-1.67438 1.33337,-2.41026 0.73336,-0.54219 1.79065,-1.15966 2.34954,-1.37215 0.66672,-0.25349 1.28898,-1.14501 1.80948,-2.59248 0.62405,-1.73543 1.22054,-2.47617 2.79565,-3.47179 1.27543,-0.80619 2.09361,-1.68591 2.25374,-2.42326 0.13827,-0.63667 0.32636,-1.40245 0.41797,-1.70173 0.0916,-0.29928 0.87872,-0.8417 1.74913,-1.20538 0.8704,-0.36368 1.60567,-0.92271 1.63393,-1.24229 0.0282,-0.31957 0.0147,-1.78688 -0.0301,-3.26069 -0.0654,-2.1494 0.15412,-3.12051 1.10925,-4.90761 1.19076,-2.22796 1.19076,-2.22796 0.17055,-4.09554 -1.02021,-1.86758 -1.02021,-1.86758 0.29085,-3.73431 0.72109,-1.0267 1.64204,-2.45905 2.04656,-3.183 0.40452,-0.72395 1.28224,-2.10522 1.95048,-3.06949 0.68002,-0.981269 1.09805,-2.057944 0.94941,-2.445295 -0.14607,-0.380641 -0.60747,-0.823273 -1.02535,-0.983626 -0.41787,-0.160354 -2.08046,0.04686 -3.69464,0.460487 -1.61417,0.413622 -3.78087,0.750352 -4.81487,0.748289 -1.41392,-0.0028 -2.13361,-0.274322 -2.90295,-1.095126 -0.56262,-0.600257 -1.60834,-1.311132 -2.32383,-1.579722 -0.89834,-0.337228 -1.44424,-0.345009 -1.7641,-0.02514 -0.25476,0.254762 -0.77471,0.46183 -1.15545,0.460152 -0.38073,-0.0017 -1.19288,-0.755329 -1.80477,-1.674778 -0.61189,-0.919449 -1.22646,-1.772212 -1.36571,-1.895029 -0.13925,-0.122817 -0.55542,-0.666233 -0.92483,-1.20759 -0.62482,-0.915639 -0.75895,-0.939 -1.92325,-0.334956 -0.74268,0.38531 -2.511,0.649331 -4.34896,0.649331 -1.81761,0 -3.59567,-0.262794 -4.30338,-0.636029 -0.66329,-0.349816 -2.40554,-1.857116 -3.87165,-3.349555 -2.00924,-2.045314 -2.975,-2.713525 -3.92183,-2.713525 -0.69997,0 -1.36905,-0.294178 -1.51112,-0.6644 -0.14023,-0.36542 0.26803,-1.556804 0.90723,-2.647519 0.6392,-1.090716 1.16218,-2.070193 1.16218,-2.176616 0,-0.106423 -0.54323,-0.08965 -1.20718,0.03727 -0.66395,0.126922 -2.18082,1.204406 -3.37082,2.394408 -1.19,1.190003 -2.4605,2.163641 -2.82334,2.163641 -0.36283,0 -0.85569,-0.515516 -1.09525,-1.145592 -0.23955,-0.630076 -0.43555,-2.04014 -0.43555,-3.133477 0,-1.813217 -0.12754,-2.044334 -1.45147,-2.630339 -0.79832,-0.35335 -2.58316,-0.951679 -3.96632,-1.329621 -1.38316,-0.377941 -2.94611,-1.040208 -3.47323,-1.471704 -0.66965,-0.548176 -1.0422,-1.502894 -1.23658,-3.168919 -0.15431,-1.322625 -0.53748,-2.483879 -0.86048,-2.607825 -0.32025,-0.122895 -1.03827,0.09594 -1.59558,0.4863 -0.55732,0.390359 -1.27918,0.709744 -1.60414,0.709744 -0.32497,0 -1.08903,-0.498192 -1.69794,-1.107093 -0.81186,-0.811863 -1.03451,-1.396255 -0.83493,-2.191439 0.14968,-0.596391 0.0447,-1.509358 -0.23332,-2.028816 -0.49356,-0.92223 -0.54163,-0.906119 -2.041434,0.684136 -1.473511,1.562377 -1.635838,1.620326 -3.991647,1.424964 -2.070912,-0.171736 -2.591115,-0.05803 -3.32011,0.725739 -0.475441,0.511161 -1.210817,1.801081 -1.63417,2.866489 -0.723057,1.819644 -0.724164,2.032664 -0.01826,3.512961 0.660711,1.385524 0.673964,1.694147 0.109726,2.555282 -0.362317,0.552967 -0.540406,1.509553 -0.409005,2.196932 0.150298,0.786236 -0.0355,1.513903 -0.524513,2.054261 -0.41649,0.460216 -1.395888,1.075837 -2.176441,1.368048 -0.780552,0.292211 -2.825999,1.13276 -4.545437,1.867887 -1.719439,0.735127 -4.382335,1.933815 -5.917547,2.663753 -2.442631,1.161381 -2.791296,1.483237 -2.791296,2.576672 0,0.687233 0.513981,2.006907 1.142179,2.932609 0.628199,0.925702 1.036453,1.958614 0.907232,2.295359 -0.129222,0.336746 -0.530855,0.612264 -0.892518,0.612264 -0.361664,0 -0.765458,-0.174566 -0.897321,-0.387924 -0.131863,-0.213358 -1.701267,-0.555094 -3.487564,-0.759412 -1.786298,-0.204318 -4.884524,-0.309945 -6.884947,-0.234726 -2.000424,0.07522 -4.467386,-0.0035 -5.482139,-0.174951 -1.567553,-0.264836 -1.944062,-0.548789 -2.503717,-1.888231 -0.362291,-0.867085 -0.658711,-1.958896 -0.658711,-2.426246 0,-0.501188 -0.469896,-1.028381 -1.145593,-1.28528 -0.630075,-0.239555 -1.735428,-0.435554 -2.45634,-0.435554 -0.720911,0 -1.310748,0.189113 -1.310748,0.42025 0,0.231138 0.200974,0.544458 0.446608,0.696269 0.245634,0.15181 0.446607,0.894492 0.446607,1.650404 0,1.063621 0.454423,1.782721 2.009733,3.180292 1.182007,1.062129 2.009733,2.195854 2.009733,2.752705 0,0.520739 -0.217536,1.164334 -0.483413,1.43021 -0.271142,0.271142 -0.497513,2.27893 -0.515524,4.572427 -0.03211,4.08901 -0.03211,4.08901 -2.08458,3.81095 -1.128857,-0.15293 -2.713139,-0.57553 -3.520626,-0.93911 -1.390217,-0.62597 -1.512054,-0.60686 -2.294968,0.36 -0.647502,0.79963 -1.346073,1.04471 -3.221217,1.1301 -1.316925,0.06 -3.198303,0.16616 -4.180839,0.23598 -1.738755,0.12355 -1.787131,0.0883 -1.812732,-1.32269 -0.01447,-0.7973 -0.472672,-2.05338 -1.018236,-2.7913 -0.762762,-1.03169 -1.341314,-1.34166 -2.504162,-1.34166 -1.230713,0 -1.775618,0.33256 -2.927105,1.78643 -1.241664,1.56773 -1.640826,1.78643 -3.2605,1.78643 -1.015091,0 -2.713735,-0.33154 -3.774763,-0.73675 -1.616539,-0.61736 -2.103418,-0.64348 -3.004635,-0.16116 -0.635643,0.34019 -1.802504,0.47807 -2.853136,0.33715 -1.475491,-0.1979 -1.947833,-0.0573 -2.778906,0.82737 -1.001263,1.06579 -1.001263,1.06579 0.472449,1.36054 0.895568,0.17911 1.558397,0.61858 1.68958,1.12022 0.144236,0.55156 0.625205,0.82549 1.44942,0.82549 0.925603,0 1.359545,0.3066 1.738246,1.22817 0.277583,0.67549 0.553182,2.03206 0.612442,3.01459 0.107746,1.78643 0.107746,1.78643 -2.009191,1.92237 -2.116937,0.13594 -2.116937,0.13594 -1.053896,1.28239 1.06061,1.14382 1.066217,1.14456 2.451893,0.32602 0.763868,-0.45122 1.388851,-0.97805 1.388851,-1.17073 0,-0.19267 0.370798,-0.35031 0.823996,-0.35031 0.453198,0 1.18311,0.39681 1.622026,0.88181 0.438916,0.485 1.206408,1.01143 1.705536,1.16985 0.499129,0.15841 1.853196,0.96744 3.009038,1.79783 1.155842,0.83039 2.317349,1.5098 2.581127,1.5098 0.263778,0 0.764284,0.40644 1.112235,0.90321 0.412126,0.5884 0.899199,0.80093 1.397385,0.60976 0.462478,-0.17747 1.278806,0.0866 2.065327,0.6681 1.171011,0.86577 1.500678,0.91118 3.309076,0.45582 1.104672,-0.27816 2.326201,-0.38383 2.714509,-0.23482 0.56454,0.21663 0.645904,0.67177 0.406038,2.27131 -0.272865,1.8196 -0.204745,2.03911 0.753699,2.42876 0.579522,0.2356 1.606353,0.54659 2.281847,0.69108 0.769888,0.16469 1.225618,0.55118 1.221331,1.03578 -0.0038,0.42518 -0.190255,1.06294 -0.41443,1.41726 -0.278836,0.4407 -0.176448,0.81322 0.324121,1.17924 0.608627,0.44504 0.641323,0.71231 0.194368,1.58883 -0.295539,0.57959 -0.778091,1.38822 -1.072338,1.79696 -0.427044,0.59321 -0.365054,1.1339 0.307218,2.67964 0.463216,1.06507 1.706262,3.29761 2.762324,4.9612 1.14323,1.80091 2.38462,3.20132 3.06817,3.46121 0.631431,0.24007 1.606258,0.43649 2.166282,0.43649 0.560024,0 1.326173,0.3517 1.702553,0.78156 0.376381,0.42986 0.809481,1.78643 0.962446,3.0146 0.152965,1.22817 0.398517,2.96895 0.545671,3.86841 0.224577,1.3727 0.11234,1.71844 -0.69876,2.15253 -0.80987,0.43343 -0.873652,0.6288 -0.393965,1.20679 0.314791,0.3793 1.640815,1.29264 2.94672,2.02965 1.305905,0.73701 1.83769,1.0353 2.178111,1.69361 0.340421,0.6583 -0.159696,-0.52877 0.22857,0.96959 0.388266,1.49837 0.368611,0.97878 0.368611,1.25036 0,0.27159 0.62332,2.26477 0.148287,2.26477 -0.503875,0 -0.168392,2.2452 -0.966143,1.13786 -0.752085,-1.04394 -0.965203,-3.03264 -1.641749,-4.07576 -0.857445,-1.32203 -2.484545,-0.62633 -3.107171,-0.54956 -0.730873,0.0901 -0.944504,0.55659 -1.175411,2.56649 -0.155207,1.35098 -0.905654,3.8245 -1.667658,5.4967 -1.385462,3.04036 -1.385462,3.04036 0.1562,3.68451 0.847914,0.35428 1.74909,0.64415 2.002613,0.64415 0.253524,0 0.460952,0.42116 0.460952,0.93592 0,0.51476 -0.413839,1.51711 -0.919642,2.22744 -0.505803,0.71034 -1.517477,3.05255 -2.248163,5.20493 -0.984397,2.89973 -1.255888,4.35139 -1.048116,5.60427 0.244683,1.47547 0.03547,2.07286 -1.642232,4.68938 -1.05745,1.64918 -2.40695,3.50094 -2.998889,4.11503 -1.076254,1.11652 -1.076254,1.11652 1.610524,1.24826 2.297091,0.11264 2.722413,0.26802 2.932469,1.07127 0.13513,0.51674 0.131166,1.51215 -0.0088,2.21203 -0.2545,1.2725 -0.2545,1.2725 1.77045,0.99495 1.992907,-0.27316 2.043345,-0.24841 3.187496,1.56404 0.916531,1.45188 1.43071,1.84159 2.429758,1.84159 0.699846,0 2.097045,0.60113 3.120648,1.34263 1.019391,0.73844 1.853438,1.55144 1.853438,1.80666 0,0.28571 0.582637,0.35474 1.516099,0.17962 0.84946,-0.15935 1.929529,-0.0632 2.45634,0.21878 0.517132,0.27677 0.940241,0.79428 0.940241,1.15003 0,0.51219 0.627475,0.40154 3.014599,-0.53159 1.65803,-0.64813 3.85166,-1.19749 4.874734,-1.2208 1.023074,-0.0233 2.011193,-0.19311 2.195819,-0.37733 0.184627,-0.18423 0.821089,-0.33496 1.41436,-0.33496 0.593272,0 2.621714,0.83623 4.50765,1.8583 3.428974,1.85829 3.428974,1.85829 5.141026,1.04587 1.449073,-0.68763 1.77498,-0.71582 2.121723,-0.18352 0.225319,0.3459 0.357314,1.23183 0.293322,1.96873 -0.09727,1.12012 0.176585,1.5409 1.670079,2.56608 1.608978,1.10445 2.163514,1.22503 5.582593,1.21396 2.63045,-0.009 4.06237,-0.21364 4.66308,-0.668 z"
       id="path1"
       sodipodi:nodetypes="ccsssssssssssssssssssssssssssscccscssssssssssssssscsssssssscssssssssssssssssssssssssssssssssssssssssssscscssssssscssscssssscssssssssssssssssssscssssssssssssssscscssssssssssssssssssssscssscsssssssssssssssssssssssssssssssssssssssssssssssssssssssscccsssssssscssssssssssssssssssscsscsssssssssssssscssscsssssssssssccsssssssssssssssssssssssssssssssssssssscssssssssssssssssssssssssssssssssscssssssssscsssssssssssssssssssssscsssssssssssssssssssssssssssssssssssssssssssssssssssccc"
       inkscape:label="Body" /><path
       style="fill:#ffffff;stroke-width:0.7856"
       d="m 190.58375,228.29535 c -0.43136,-0.51919 -1.04358,-0.75019 -1.99852,-0.75408 -0.75713,-0.003 -1.60146,-0.16045 -1.87626,-0.3497 -0.41173,-0.28355 -0.43054,-0.54351 -0.10685,-1.47759 0.36456,-1.05195 0.33242,-1.1585 -0.44672,-1.48116 -0.46174,-0.19124 -1.05661,-0.34768 -1.32192,-0.34768 -0.2653,0 -0.48237,-0.31983 -0.48237,-0.71074 0,-0.39089 0.16033,-0.81867 0.3563,-0.95058 0.22496,-0.15144 0.13204,-0.42263 -0.25215,-0.73579 -0.56777,-0.46279 -0.5723,-0.56647 -0.0678,-1.55176 0.47452,-0.92679 0.48108,-1.1416 0.0538,-1.7575 -0.36003,-0.51881 -0.43768,-1.30756 -0.298,-3.02677 0.14377,-1.76961 0.0707,-2.45385 -0.30583,-2.86399 -0.27212,-0.29638 -0.49476,-0.68069 -0.49476,-0.85398 0,-0.17329 0.42673,-0.64605 0.94829,-1.05055 0.52153,-0.40454 1.69395,-0.9333 2.60536,-1.17509 0.91138,-0.24176 1.92182,-0.68905 2.24539,-0.99396 0.33098,-0.31191 0.8994,-0.91897 0.8994,-1.57614 0,-0.70305 -0.0434,-1.57834 0.36127,-1.97725 0.36979,-0.36451 0.67233,-0.8844 0.67233,-1.15527 0,-0.27087 0.32802,-0.92661 0.69355,-0.92661 0.36554,0 0.74826,-0.37284 1.02736,0.0911 0.39081,0.64964 0.22945,2.08518 -0.0232,3.04496 -0.22946,0.8714 0.11134,1.86809 0.39293,2.77504 0.22149,0.71345 0.66385,1.54434 0.98304,1.84645 0.44862,0.42459 0.59318,1.21407 0.63687,3.47863 0.0311,1.61116 -0.0396,4.88882 -0.15704,7.28371 -0.15684,3.19765 -0.36694,4.60846 -0.79092,5.31108 -0.31755,0.52623 -0.74407,1.28562 -0.94786,1.68754 -0.20378,0.40193 -0.66595,0.77923 -1.02707,0.83845 -0.36111,0.0594 -0.93641,-0.22916 -1.27842,-0.64081 z"
       id="path7"
       sodipodi:nodetypes="ccsssssssssssssssssssssssssssscc"
       inkscape:label="Prova" /><path
       style="fill:#ffffff;fill-opacity:1;stroke:#000000;stroke-width:5.51253"
       d="m 371.92328,813.72347 c -0.57299,-0.23455 -2.74735,-0.71064 -4.83191,-1.05799 -2.08456,-0.34735 -5.88346,-2.22993 -8.44199,-4.18352 -4.33362,-3.30897 -4.69399,-3.96 -5.26741,-9.51589 -0.86873,-8.41707 -2.29593,-9.54755 -8.55699,-6.77798 -2.71784,1.20223 -5.91344,2.18586 -7.10134,2.18586 -1.1879,0 -7.57446,-2.69443 -14.19235,-5.98763 -9.63655,-4.79535 -12.96604,-5.96449 -16.72063,-5.87143 -7.44866,0.18464 -22.56884,3.32232 -32.20594,6.68327 -10.20496,3.55898 -10.50794,3.60478 -10.50794,1.58856 0,-2.85139 -4.38055,-4.74718 -10.96923,-4.74718 -6.06122,0 -6.5561,-0.20273 -11.31636,-4.63569 -4.53065,-4.21914 -7.716,-5.84246 -16.73728,-8.5297 -1.93886,-0.57754 -4.79903,-3.1784 -7.71677,-7.01715 l -4.63606,-6.09947 -6.96642,0.68646 -6.96643,0.68645 0.098,-6.76159 c 0.0601,-4.1484 -0.40644,-7.26795 -1.20717,-8.07184 -0.71785,-0.72065 -4.46833,-1.48029 -8.33442,-1.6881 -10.30206,-0.55375 -10.40212,-0.64485 -6.28542,-5.72267 4.78002,-5.89598 11.49514,-15.94598 14.08825,-21.08473 1.47325,-2.91955 2.2474,-6.97443 2.5857,-13.54342 0.56478,-10.96711 3.71707,-21.26751 10.8575,-35.47787 6.16872,-12.27653 5.95963,-13.69668 -2.4907,-16.91736 -3.65533,-1.39316 -6.51126,-3.11406 -6.51126,-3.92351 0,-0.79302 1.2033,-4.15088 2.67399,-7.46193 3.31165,-7.45563 7.74403,-22.48161 7.74403,-26.25262 0,-4.23045 2.18364,-6.40533 7.0921,-7.0637 5.57769,-0.74813 7.805,1.08818 10.19574,8.4059 2.18107,6.67594 4.37545,11.07685 5.52316,11.07685 0.48381,0 1.46476,-2.0898 2.17989,-4.64398 1.09819,-3.92237 1.02971,-5.74785 -0.44074,-11.74814 -0.95753,-3.9073 -2.06772,-7.60873 -2.46709,-8.2254 -0.39936,-0.61668 -4.77138,-3.7214 -9.71558,-6.8994 -4.9442,-3.17798 -9.29564,-6.27358 -9.66986,-6.87909 -0.37423,-0.60551 0.46718,-1.85286 1.86981,-2.7719 1.40262,-0.91904 2.79418,-2.30671 3.09235,-3.08372 0.81815,-2.13207 -2.2625,-23.36186 -4.12489,-28.42594 -1.85007,-5.03062 -3.15835,-5.95218 -9.81963,-6.91698 -2.59713,-0.37617 -6.12117,-1.53479 -7.83121,-2.57472 -5.89272,-3.58358 -22.38185,-30.62857 -22.3124,-36.59615 0.0167,-1.43248 1.1853,-4.47975 2.59697,-6.77171 2.92539,-4.74966 3.27398,-8.44235 1.03095,-10.92087 -1.28025,-1.41466 -1.32886,-2.28495 -0.28249,-5.05709 1.77301,-4.69725 0.28883,-6.52765 -7.31815,-9.02529 -3.49029,-1.14598 -6.72774,-2.4823 -7.19434,-2.96959 -0.46661,-0.48729 -0.84838,-4.23778 -0.84838,-8.33442 v -7.44842 l -6.25081,0.14675 c -3.43795,0.0807 -8.1385,0.30443 -10.44567,0.49715 -3.13997,0.2623 -5.07529,-0.27651 -7.69593,-2.14257 -1.92559,-1.37113 -5.06219,-2.54718 -6.97022,-2.61345 -2.23932,-0.0778 -4.51716,-1.12452 -6.42541,-2.95274 -1.62593,-1.55774 -3.45165,-2.83226 -4.05715,-2.83226 -0.60549,0 -4.56473,-2.27721 -8.79831,-5.06048 -4.23357,-2.78327 -9.33825,-5.89555 -11.34371,-6.91618 -2.005473,-1.02063 -5.186259,-3.19712 -7.068418,-4.83664 -4.490761,-3.91182 -7.519287,-3.76051 -13.317506,0.66537 -2.627307,2.00547 -5.356519,3.64631 -6.064915,3.64631 -0.708396,0 -2.57422,-1.34253 -4.146278,-2.98341 l -2.858285,-2.98341 3.3145,-0.6629 c 1.822974,-0.36459 4.645835,-0.6629 6.273025,-0.6629 4.409111,0 5.386208,-2.68695 4.063874,-11.1754 -1.17229,-7.52525 -3.661227,-12.07629 -6.872359,-12.56615 -5.166317,-0.78813 -6.383679,-1.38641 -7.411619,-3.64249 -0.697463,-1.53076 -2.692247,-2.90556 -5.387616,-3.71311 -5.007653,-1.50033 -5.257708,-2.36209 -1.535086,-5.2903 2.122562,-1.66961 4.245261,-2.15922 9.361265,-2.15922 3.638947,0 8.712703,-0.56071 11.275016,-1.24602 3.975024,-1.06316 5.544407,-0.96513 10.69342,0.66794 3.31907,1.05267 9.236852,2.14789 13.150622,2.4338 l 7.11596,0.51984 5.39444,-5.70454 c 6.01276,-6.3584 8.72903,-8.13084 12.46052,-8.13084 5.21779,0 12.16946,8.72831 12.20566,15.32507 0.0306,5.56754 0.67351,5.79615 14.17841,5.04138 16.05682,-0.89739 17.60425,-1.24108 21.67328,-4.81373 l 3.41701,-3.00018 6.14227,2.18003 c 3.37825,1.19902 9.0478,2.4218 12.59899,2.7173 7.67548,0.63869 7.20631,1.60024 8.01077,-16.41767 0.33868,-7.58536 1.15627,-13.47642 2.2255,-16.03545 0.92958,-2.22481 1.41855,-5.12724 1.0866,-6.44985 -0.33195,-1.32261 -3.44868,-5.30338 -6.92608,-8.84618 -6.62803,-6.75267 -8.249,-9.58991 -8.249,-14.43846 0,-1.61151 -0.69806,-3.50935 -1.55123,-4.21743 -2.30053,-1.90927 -0.91616,-3.13492 3.54085,-3.13492 7.81604,0 12.57899,3.02477 12.60578,8.00547 0.006,1.0404 1.14119,4.3208 2.52353,7.28978 3.23669,6.95169 5.49524,7.61064 26.11585,7.61945 19.25025,0.008 37.27797,1.63593 41.77995,3.77226 8.71116,4.13371 10.81806,-0.54041 5.14746,-11.41956 -4.12032,-7.90493 -4.55879,-11.05443 -1.86948,-13.42853 2.84906,-2.51512 17.58849,-9.61127 35.17308,-16.93371 8.83806,-3.68028 17.18393,-7.42182 18.54637,-8.31453 3.30702,-2.16684 4.88191,-5.90631 4.88191,-11.59175 0,-2.57996 0.75646,-6.15366 1.68102,-7.94156 1.59,-3.07471 1.55294,-3.55975 -0.68432,-8.95753 l -2.36533,-5.7068 1.9817,-5.83006 c 1.08993,-3.20654 3.41266,-7.70817 5.16162,-10.00362 l 3.17991,-4.17356 10.14161,-0.29858 10.14161,-0.29858 5.364,-5.25229 5.36401,-5.2523 1.35576,2.58757 c 0.74567,1.42316 1.26246,4.73161 1.14841,7.3521 -0.17969,4.12855 0.25542,5.24201 3.25966,8.3416 4.58882,4.73446 6.32663,5.03357 12.28455,2.11442 2.75814,-1.35138 5.29116,-2.47173 5.62892,-2.48964 1.10355,-0.0585 2.84876,4.79935 3.58866,9.98922 1.58838,11.14143 4.02448,13.27777 21.32137,18.6978 4.87042,1.52616 10.54179,3.63139 12.60303,4.67829 3.73098,1.89494 3.75061,1.9409 4.39403,10.28452 1.23519,16.01763 4.99596,18.29401 14.97897,9.0667 7.41134,-6.85033 13.53213,-11.07704 16.04089,-11.07704 1.66046,0 1.44497,0.93052 -1.79581,7.75467 -5.0193,10.56923 -4.7203,11.37153 5.03812,13.51856 1.56071,0.34339 7.56289,5.05761 13.46814,10.57815 5.85899,5.47729 12.09302,10.73972 13.85339,11.69429 4.54558,2.46486 27.53977,2.45092 33.11359,-0.0201 l 3.86787,-1.7147 4.02708,4.87915 c 2.21489,2.68353 5.53386,7.10204 7.37549,9.8189 3.58657,5.29106 7.45029,7.13685 10.69616,5.10977 3.50605,-2.18957 6.80529,-1.23808 13.92123,4.0148 6.80743,5.02515 7.29968,5.20822 13.94627,5.18647 3.78937,-0.0124 11.08531,-0.95003 16.21321,-2.08361 14.32186,-3.16601 18.28431,-2.59556 18.28431,2.63229 0,1.20616 -4.92252,9.96829 -10.93892,19.47141 -6.01641,9.5031 -10.93892,18.25713 -10.93892,19.45338 0,1.19624 1.25756,4.7391 2.79458,7.87303 l 2.79458,5.69803 -3.83638,8.1752 c -3.70899,7.90369 -3.83639,8.56448 -3.83639,19.89764 v 11.72245 l -3.24032,1.7747 c -8.33471,4.56484 -9.77021,5.96604 -10.72371,10.46745 -0.73949,3.49112 -2.05459,5.38248 -6.12918,8.81495 -8.81942,7.42954 -11.62785,10.6088 -13.12542,14.85855 -2.20696,6.26282 -4.81633,9.33804 -10.79771,12.72541 -7.23565,4.0977 -9.18792,6.45567 -10.29159,12.43035 -0.50659,2.74235 -1.86158,6.15813 -3.01109,7.59061 -7.44478,9.27741 -9.75155,13.72101 -9.67731,18.64172 0.041,2.7207 0.87851,6.50128 1.86105,8.4013 l 1.78643,3.45457 6.93163,-0.6268 c 11.47116,-1.03731 14.16255,-2.19373 16.33911,-7.02048 3.05701,-6.77925 7.72907,-8.19548 10.34543,-3.136 0.86617,1.67501 4.41652,6.57784 7.88964,10.89518 l 6.31476,7.8497 -1.87253,3.30029 c -4.77991,8.42451 -4.65544,7.87018 -3.31258,14.75173 1.31599,6.74391 1.8034,7.40756 11.75617,16.00726 2.09187,1.8075 3.74821,4.20844 3.74821,5.43322 0,5.05896 -12.15429,14.23674 -21.5454,16.26906 -4.79545,1.03778 -5.5959,2.48667 -3.97398,7.19326 1.95928,5.6856 4.90095,8.37667 11.39405,10.42344 6.51733,2.05442 10.99993,6.56576 10.99993,11.07049 0,1.81214 -1.59941,5.06948 -4.16721,8.48691 -3.27404,4.35733 -4.1623,6.4452 -4.14433,9.74127 0.0272,4.9945 2.88656,11.68356 7.46575,17.46526 l 3.3281,4.20206 9.43731,-0.66195 c 5.19053,-0.36406 12.60179,-0.96059 16.46948,-1.32561 6.22566,-0.58754 7.03216,-0.45711 7.03216,1.13728 0,1.41662 -7.10192,14.94552 -12.20649,23.25293 -0.44882,0.73043 -4.56652,2.71204 -9.15045,4.40358 -7.03441,2.59582 -9.21563,4.01367 -13.98397,9.08998 -24.06948,25.62396 -25.69123,27.15798 -29.81875,28.20558 -14.28249,3.62504 -19.57399,4.64589 -26.64567,5.14057 l -7.94027,0.55542 -4.17115,-6.13005 c -4.97829,-7.31626 -9.27891,-11.76887 -12.58391,-13.02862 -2.27607,-0.86755 -3.92378,-0.59576 -19.75624,3.25886 -3.27491,0.79732 -3.61193,0.58428 -7.58593,-4.79512 -3.37503,-4.56861 -4.72999,-5.62951 -7.18983,-5.62951 -1.66708,0 -3.32079,0.46881 -3.67492,1.0418 -1.07779,1.74389 -4.67398,1.193 -14.81456,-2.26941 -9.28481,-3.17022 -9.84462,-3.24118 -13.14652,-1.66662 -1.89681,0.90453 -7.51211,5.40908 -12.47845,10.01013 -4.96633,4.60103 -10.08821,8.69692 -11.38194,9.10195 -5.71041,1.78778 -11.26162,6.96355 -16.36779,15.26081 -2.88147,4.68223 -5.54005,10.11773 -5.90797,12.07893 -0.80271,4.27879 0.97649,13.01299 4.39086,21.55502 2.31978,5.80358 2.3729,6.34398 0.74252,7.55307 -0.96581,0.71624 -3.42445,1.31254 -5.46366,1.32513 -2.0392,0.0126 -5.7539,0.95138 -8.25489,2.08622 -4.24129,1.9245 -22.76765,3.84115 -25.665,2.65519 z"
       id="path2"
       transform="scale(0.26458333)" /></g></svg>
