<?xml version="1.0" encoding="UTF-8" standalone="no"?>
<!-- Created with Inkscape (http://www.inkscape.org/) -->

<svg
   width="210mm"
   height="297mm"
   viewBox="0 0 210 297"
   version="1.1"
   id="svg1"
   xml:space="preserve"
   inkscape:version="1.3.2 (091e20e, 2023-11-25)"
   sodipodi:docname="Democratic Republic of the Congo.svg"
   xmlns:inkscape="http://www.inkscape.org/namespaces/inkscape"
   xmlns:sodipodi="http://sodipodi.sourceforge.net/DTD/sodipodi-0.dtd"
   xmlns="http://www.w3.org/2000/svg"
   xmlns:svg="http://www.w3.org/2000/svg"><sodipodi:namedview
     id="namedview1"
     pagecolor="#ffffff"
     bordercolor="#000000"
     borderopacity="0.25"
     inkscape:showpageshadow="2"
     inkscape:pageopacity="0.0"
     inkscape:pagecheckerboard="0"
     inkscape:deskcolor="#d1d1d1"
     inkscape:document-units="mm"
     inkscape:zoom="1.0075"
     inkscape:cx="376.17866"
     inkscape:cy="524.06948"
     inkscape:window-width="1728"
     inkscape:window-height="1387"
     inkscape:window-x="0"
     inkscape:window-y="25"
     inkscape:window-maximized="0"
     inkscape:current-layer="layer1" /><defs
     id="defs1" /><g
     inkscape:label="Democratic Republic of the Congo Trace line"
     inkscape:groupmode="layer"
     id="layer1"><path
       style="fill:#050505;stroke:none;stroke-width:1.03084"
       d="m 3.05028,171.02703 c 0.7717838,1.63181 2.3266544,2.85046 2.3669863,4.73398 3.1526128,-0.053 5.7940117,-2.03568 8.7916637,-2.63938 6.54054,-1.31719 13.680278,-0.36431 20.288454,-0.74673 4.651424,-0.26918 10.586688,-0.86383 14.70913,1.80812 2.454591,1.59094 2.542532,4.55274 3.278087,7.15732 1.252896,4.43645 3.033001,9.80278 5.790664,13.52563 1.255376,1.69476 2.976012,3.39844 5.133167,3.82286 2.590955,0.50979 5.193911,-0.33929 7.777241,-0.59643 1.579221,-0.1572 3.298871,0.15498 4.903043,0.15498 1.25919,0 3.259208,0.23551 4.175104,-0.85945 0.634318,-0.75832 0.412103,-2.11215 0.732635,-3.02917 0.474819,-1.35843 1.693072,-2.27487 2.02415,-3.71955 0.372782,-1.62666 -0.362392,-3.25055 1.521633,-3.99194 1.844555,-0.72585 4.325765,-0.70949 6.255607,-0.44147 0.596794,0.0829 1.355825,-0.0967 1.803412,0.41799 1.004887,1.15545 -0.722822,3.39867 1.577997,3.80877 2.754567,0.49098 5.990826,0.0376 8.791666,0.0376 0.81249,0 2.58291,-0.33595 3.15597,0.35692 0.32828,0.39691 0.21258,1.02452 0.29119,1.50285 0.28729,1.74809 0.10332,3.63855 0.10332,5.41026 0,6.19886 -0.63273,12.76962 0.005,18.93118 0.0929,0.89831 1.58931,1.58721 2.19322,2.20263 1.08774,1.10845 1.35847,2.22181 1.50755,3.71955 0.29172,2.93073 0.55378,5.86229 0.84536,8.79166 0.0872,0.8761 -0.0914,2.36823 0.70445,2.95873 1.04834,0.77781 2.70558,0.25631 3.87454,0.25361 2.79562,-0.006 5.68055,-0.50639 8.45352,-0.85945 1.27746,-0.16263 2.77408,-0.66947 4.05769,-0.45555 3.24338,0.54056 4.06236,4.17715 7.43909,4.51324 1.68107,0.16734 3.23094,-0.48364 4.73398,-1.14123 0.59185,-0.25892 1.51909,-0.93281 2.17913,-0.54476 0.84187,0.49492 0.29786,3.25617 1.07548,4.23615 1.93151,2.43414 6.1776,3.52109 9.08753,4.161 2.01916,0.44403 5.18117,1.15332 7.10096,0.0799 1.13213,-0.63304 1.53937,-3.82092 2.8742,-3.57396 1.02711,0.19001 1.20929,1.6066 1.61556,2.37638 0.51301,0.97202 1.55635,1.19395 2.12747,2.04294 0.41937,0.62336 0.15302,1.40372 0.56827,2.01004 1.34924,1.97013 4.52229,0.39896 6.34014,1.61088 2.25742,1.50495 3.49859,4.97118 4.95941,7.18548 0,0 3.43991,3.52362 5.67908,4.33404 2.4542,0.88825 7.82287,0.33394 7.82287,0.33394 0.65663,-0.74815 0.47407,-1.88848 0.47407,-2.80819 v -6.42468 c 0,-0.89735 0.18997,-2.07139 -0.31415,-2.86677 -1.20522,-1.90155 -3.99317,-0.44223 -5.77239,-0.73878 -2.68241,-0.44705 -5.19384,-2.65439 -6.85336,-4.6789 -2.98174,-3.63754 -1.73091,-6.99937 -1.14123,-11.15866 0.31819,-2.24426 0.20013,-4.51313 0.41512,-6.76281 0.17847,-1.86746 0.67325,-3.70824 0.80152,-5.57933 0.18901,-2.75717 -1.33359,-5.30859 -1.15296,-7.94631 0.20235,-2.95504 2.90868,-7.38737 5.56392,-8.73804 0.93336,-0.4748 2.0641,-0.0543 3.04327,-0.41434 0.80534,-0.29604 1.26556,-1.07003 2.0355,-1.37369 0.86679,-0.34187 2.11812,-0.12537 3.03662,-0.12537 2.67708,0 9.02287,0.86548 9.885,-2.70512 0.31113,-1.28857 -0.27528,-2.82018 -0.60581,-4.0577 -1.13489,-4.24893 -4.54993,-8.4018 -7.75757,-11.29902 -1.60257,-1.44749 -3.91425,-2.74617 -4.59934,-4.93174 -0.67426,-2.15099 -0.5676,-4.84966 -0.83713,-7.10096 -0.51729,-4.32033 -1.35245,-8.67966 -1.64935,-13.01842 -0.12012,-1.7552 0.39626,-3.48146 0.31636,-5.24119 -0.13706,-3.01908 -2.81952,-4.57708 -3.15741,-7.43909 0,0 -0.69008,-7.43167 0.13505,-11.71341 0.86596,-4.49365 4.97697,-14.32345 4.97697,-14.32345 1.35367,-5.26427 0.35699,-10.98933 1.99936,-16.23076 0.33834,-1.0798 0.76323,-2.07703 1.63461,-2.83818 0.81668,-0.71337 1.90821,-0.969577 2.33933,-2.064985 0.66965,-1.701498 -0.46899,-3.630927 0.64264,-5.240936 0.90392,-1.309182 2.42367,-1.736502 3.77825,-2.408986 2.74365,-1.362077 6.17385,-3.158781 7.31906,-6.213731 0.76527,-2.041476 1.11163,-4.855719 -0.63112,-6.506219 -0.97286,-0.921344 -2.66252,-1.27164 -3.18104,-2.62371 -0.43958,-1.14624 0.022,-3.188645 0.16437,-4.395707 0.33296,-2.821982 0.0646,-5.850886 0.72455,-8.622593 -3.86865,0.166181 -6.96209,-1.416213 -8.98172,-4.903043 -1.15303,-1.990664 -2.07866,-5.552206 -4.54391,-6.314447 -2.17975,-0.67397 -2.52411,1.275747 -4.22689,1.695678 -1.52865,0.376982 -3.33621,-0.967408 -5.07198,-0.773076 -1.18883,0.133098 -1.29274,1.25645 -2.21567,1.744571 -1.44928,0.766513 -3.88759,0.06367 -5.22344,-0.667036 -2.67999,-1.465951 -3.493,-4.189571 -4.87968,-6.67527 -0.5036,-0.902706 -1.40138,-2.657514 -2.55941,-2.785101 -0.99859,-0.110023 -2.3926,0.5993 -3.38142,0.813384 -1.99729,0.432417 -4.21655,0.639173 -6.2556,0.420736 -3.89075,-0.416795 -7.48737,-3.794324 -11.66521,-2.578986 -1.85317,0.539098 -0.98365,3.307317 -3.04392,4.14171 -3.25428,1.317954 -6.30296,-1.037001 -9.46795,-0.439888 -2.92183,0.551233 -4.89285,3.397404 -7.77724,4.058207 -2.23118,0.511153 -3.36228,-2.043251 -5.57932,-1.534553 -2.3124,0.530573 -2.63343,3.923354 -3.97811,5.494913 -1.16621,1.362985 -3.66786,1.327343 -5.32077,1.367835 -7.17669,0.175799 -13.335127,-1.795444 -18.766815,-6.619442 -2.099636,-1.864728 -5.77081,-6.193919 -8.960735,-4.176011 -2.40962,1.524296 -4.085619,4.158696 -6.255607,5.989741 -1.231936,1.03952 -2.964258,1.969737 -3.442591,3.624696 -0.395119,1.367052 -0.107887,3.148566 -0.107887,4.564902 0,3.338543 0.163894,6.685795 -0.507863,9.975157 -0.826256,4.045886 -4.053495,7.093075 -4.882042,10.989579 -0.499937,2.351116 -0.486186,4.879475 -0.725206,7.27003 -0.772798,7.729071 -1.022384,16.120401 -2.935117,23.669861 -0.592521,2.33865 -4.028049,4.20757 -5.827973,5.59954 -3.08408,2.38508 -5.482927,5.30409 -7.536292,8.60238 -1.632767,2.62268 -2.886157,5.33061 -3.100014,8.45352 -0.278668,4.06941 0.757279,8.59747 -0.640406,12.51121 -1.515905,4.24477 -5.593048,5.74871 -8.357507,8.96073 -1.867918,2.17034 -3.05018,5.3032 -5.895419,6.30649 -3.081831,1.08672 -1.640883,-1.87396 -1.96466,-3.60135 -0.277373,-1.47984 -1.356498,-2.28357 -2.769313,-2.62007 -1.670793,-0.39794 -4.077706,-0.42401 -5.343592,0.96537 -0.725983,0.79679 -0.557914,2.25646 -1.759976,2.5958 -1.316385,0.37161 -3.229862,0.0834 -4.562293,-0.12054 -0.576801,-0.0882 -1.094616,-0.61445 -1.690705,-0.40441 -2.158297,0.76051 -5.6549009,3.87673 -5.5151399,6.34666 0.100228,1.77142 1.693858,4.42319 0.332661,6.04792 -0.987779,1.17902 -3.5979127,0.7149 -4.9617481,0.7149 M 202.0462,63.667304 c -0.36667,2.901027 -0.607,5.869481 -0.67875,8.791663 -0.0264,1.074068 -0.3413,2.146527 -0.0332,3.212339 0.52211,1.805784 2.39654,2.019124 3.56352,3.230087 1.24626,1.293249 0.85637,3.339803 0.3735,4.885294 -1.61953,5.183458 -8.516,4.659262 -11.07685,8.625071 -1.16329,1.801491 -0.0367,3.663763 -0.72729,5.40464 -0.32011,0.806903 -1.27912,1.061829 -1.90269,1.580474 -0.94672,0.787398 -1.5795,1.829638 -1.96936,2.987558 -1.81681,5.3961 -0.81419,11.28151 -2.14638,16.73798 l -5.18379,14.37098 v 9.12981 c 0,1.55895 -0.2561,3.41011 0.28543,4.90304 0.53208,1.4669 2.03543,2.37871 2.57116,3.88862 0.81586,2.29947 -0.12919,4.73674 0.0328,7.10096 0.29714,4.33811 1.13211,8.69846 1.64935,13.01843 0.28411,2.3729 0.18398,5.19454 0.98991,7.4391 0.92154,2.56654 3.76237,4.09729 5.63006,5.91994 3.25301,3.17454 6.21294,7.30212 7.05689,11.83245 0.55559,2.98242 -2.18631,3.20641 -4.52082,3.36629 -2.36472,0.16192 -5.32921,-0.57223 -7.60138,0.11192 -0.83297,0.2508 -1.19472,1.16132 -2.03629,1.44949 -0.87277,0.29886 -1.82526,0.005 -2.70448,0.28036 -1.52504,0.47756 -2.78494,2.18347 -3.6932,3.41454 -1.31864,1.78732 -2.7903,4.13915 -2.8939,6.42468 -0.12261,2.70514 1.35174,5.17448 1.16172,7.94631 -0.12831,1.87157 -0.62342,3.71077 -0.80152,5.57932 -0.20927,2.19573 -0.091,4.40968 -0.41277,6.59375 -0.63632,4.31943 -1.8585,7.97803 1.04326,11.83493 1.79996,2.39246 4.61755,4.8397 7.62525,5.49192 1.28073,0.27773 4.25529,-0.79776 5.11569,0.1743 0.59831,0.67593 0.75825,9.24368 0.29458,9.944 -1.12415,1.69787 -4.19246,0.55536 -6.16501,-0.0209 -2.04127,-0.59634 -5.38801,-3.41623 -5.38801,-3.41623 -1.64852,-2.485 -3.20476,-6.81185 -6.03031,-8.12973 -1.33386,-0.62215 -4.57973,0.14141 -5.40622,-1.07091 -0.38349,-0.56254 -0.25503,-1.35595 -0.65984,-1.95071 -0.57055,-0.83825 -1.59664,-1.13015 -2.10882,-2.03863 -0.65452,-1.16097 -0.93246,-2.64431 -2.47656,-2.94388 -2.60404,-0.50518 -2.12414,2.91098 -3.72686,3.76145 -0.66856,0.35476 -1.62845,0.19933 -2.35968,0.19933 -2.33352,0 -4.56222,-0.47757 -6.76281,-1.24168 -1.79996,-0.62498 -4.53872,-1.43045 -5.57777,-3.15481 -0.86154,-1.42979 0.44253,-3.58949 -1.52384,-4.3936 -2.20459,-0.90153 -4.82534,1.96687 -7.26939,1.61673 -2.955,-0.42333 -3.91746,-3.76184 -6.93188,-4.40495 -1.85891,-0.39661 -4.05876,0.3116 -5.91747,0.5406 -3.44481,0.42437 -6.84215,0.72441 -10.3133,0.72441 -0.059,-2.85814 -0.53222,-5.77683 -0.81678,-8.62259 -0.14652,-1.46541 -0.0728,-3.16308 -0.55405,-4.5649 -0.58029,-1.69038 -3.20513,-2.7786 -3.35322,-4.40248 -0.54988,-6.02956 -0.0103,-12.36453 -0.0103,-18.42203 0,-1.85318 0.70069,-5.55103 -0.42502,-7.09784 -0.91468,-1.25682 -2.43362,-1.01755 -3.80175,-1.01755 -2.81431,0 -5.825288,0.308 -8.619324,-0.0183 -1.48401,-0.17336 -0.485221,-2.72818 -1.543284,-3.6499 -1.655227,-1.44193 -5.954708,-0.81481 -7.927922,-0.42189 -1.215617,0.24207 -2.891245,0.72517 -3.294526,2.06147 -0.34762,1.15184 0.05261,2.38078 -0.393716,3.55034 -0.446276,1.16942 -1.455147,2.0065 -1.873995,3.21234 -0.249266,0.71762 -0.112897,1.8509 -0.528995,2.46339 -0.632683,0.93131 -2.758958,0.57988 -3.714855,0.57988 -1.625678,0 -3.286157,-0.3122 -4.903043,-0.1208 -2.307832,0.27319 -5.151773,1.20848 -7.4391,0.44119 -2.052084,-0.68838 -3.541104,-2.42024 -4.629996,-4.20901 -2.297254,-3.77384 -3.894827,-8.44358 -5.103814,-12.68029 -0.559602,-1.96103 -0.682974,-4.53119 -2.118865,-6.08406 -3.261753,-3.52748 -8.937166,-3.38389 -13.338822,-3.38389 -5.232806,0 -10.498062,0.27175 -15.723552,0.50057 -2.484482,0.10878 -4.969399,-0.13673 -7.4391,0.24994 -2.840113,0.44469 -5.5158169,1.85105 -8.2844529,2.63091 l -1.1834932,-2.19792 c 0.6279452,-4.2e-4 1.2427727,-0.004 1.8597752,-0.13855 4.3497409,-0.94756 1.242061,-5.85828 1.748235,-8.48404 0.317367,-1.64633 2.6820739,-3.51628 4.1692299,-4.13832 1.814423,-0.75894 4.710385,0.74262 6.762819,0.1529 1.534319,-0.44085 1.306445,-1.88871 2.147691,-2.88046 0.942064,-1.11061 3.200599,-1.01202 4.446057,-0.58692 3.153753,1.07648 -0.442123,6.85259 3.71955,6.4646 0.40664,-0.0379 0.799132,-0.134 1.183493,-0.26966 3.224477,-1.13807 4.226898,-3.91708 6.301527,-6.35031 2.869002,-3.36491 7.193384,-5.06484 8.797272,-9.46795 1.476359,-4.05299 0.520399,-8.46663 0.808956,-12.68028 0.195823,-2.85948 1.138244,-5.3296 2.597504,-7.77724 1.965191,-3.29625 4.358053,-6.26228 7.36252,-8.65626 2.050568,-1.63389 5.506858,-3.4572 6.406283,-6.05287 0.786502,-2.26979 0.752439,-5.06367 1.104046,-7.4391 1.152545,-7.786526 1.299765,-15.759771 2.592415,-23.500791 0.65813,-3.941207 4.056788,-7.107935 4.896259,-11.15865 0.684253,-3.301765 0.555479,-6.623632 0.555479,-9.975156 0,-1.445314 -0.324215,-3.347955 0.110364,-4.733973 0.434786,-1.386679 2.050826,-2.215975 3.101974,-3.091542 2.089152,-1.740175 3.672294,-4.192893 5.917467,-5.733267 2.55702,-1.754333 6.09364,2.59048 7.77724,4.064481 5.831126,5.105197 12.460309,7.117945 20.119379,6.782528 1.93248,-0.08462 4.36313,-0.22401 5.65891,-1.85573 1.00677,-1.267781 1.58213,-4.571135 3.30247,-4.993584 1.06112,-0.260561 1.8726,0.777203 2.70449,1.240496 0.79944,0.445214 1.82059,0.462096 2.70512,0.295213 2.98359,-0.562894 4.97905,-3.572934 7.94632,-4.092115 1.34447,-0.235238 2.45412,0.388993 3.71954,0.674836 1.63418,0.369141 4.18399,0.370131 5.7484,-0.234824 0.9714,-0.375641 1.94353,-1.030397 2.36791,-2.017226 0.3042,-0.707384 0.0865,-1.972275 1.02341,-2.159301 3.83027,-0.764532 7.05996,2.167061 10.64152,2.639641 2.04671,0.270054 4.22546,0.08493 6.25562,-0.311393 1.00594,-0.196376 2.37054,-0.82587 3.38075,-0.736567 1.16475,0.10297 1.97992,2.183654 2.39113,3.103677 1.07511,2.405415 2.43934,4.834894 4.87956,6.089673 1.7295,0.889333 4.40001,1.558412 6.25494,0.664642 0.81218,-0.391348 1.15159,-1.511088 2.03681,-1.657147 1.84541,-0.304479 3.21133,1.097885 5.06468,0.764594 1.42032,-0.255422 1.96392,-2.28243 3.55061,-1.678569 1.96839,0.749157 2.84063,3.937348 3.77239,5.622893 1.72869,3.127246 5.08922,5.673127 8.73882,5.748396 M 29.594342,172.04146 v 0.16907 l -0.845354,-0.33814 0.169071,0.33814 -0.33814,0.16907 h -0.169071 l 0.169071,-0.50721 -0.338141,0.33814 h -0.507212 c 0.578187,-0.58709 1.149393,-0.50964 1.859776,-0.16907"
       id="path1"
       sodipodi:nodetypes="ccssssssssssssssssssscsssscssssssssssssscscsssssssssssssssssssscscssssssssscsssssssssssssssssssssssssssssssssssscsssccscssssssccssscssssssscsssssssssscssssssssssssscscsssssssssssssssssssscccsssssssssssssssssssssssssssssscssssssssssccccccccccc"
       inkscape:label="Outline" /><path
       style="fill:#ffffff;stroke-width:71.2764"
       d="m 701.67693,980.32513 c -7.07178,-2.36684 -17.89868,-8.94468 -21.91747,-13.31589 -1.38613,-1.50769 -4.71296,-6.71078 -7.39295,-11.56243 -5.05739,-9.1555 -10.97227,-16.69016 -14.6515,-18.6638 -1.17254,-0.62899 -6.05262,-1.4693 -10.84462,-1.86739 -4.79201,-0.39808 -9.36697,-1.26675 -10.16658,-1.93036 -0.7996,-0.66362 -1.91909,-2.93439 -2.48772,-5.04616 -0.6632,-2.46289 -2.29281,-4.82366 -4.545,-6.58413 -1.93111,-1.5095 -4.42269,-4.53115 -5.53686,-6.71477 -2.78156,-5.45154 -5.51097,-8.22168 -8.81605,-8.94759 -4.15517,-0.91263 -6.55562,0.91456 -9.89673,7.53325 -3.6999,7.32947 -5.71313,8.26676 -15.84329,7.37602 -13.61468,-1.19715 -30.97357,-6.55589 -38.79505,-11.97618 -4.45746,-3.08903 -5.86996,-6.07153 -5.86996,-12.39448 0,-9.81912 -6.40629,-11.66296 -20.20318,-5.81485 -11.17474,4.73664 -15.16551,3.98608 -24.51706,-4.61106 -9.7151,-8.93137 -15.12008,-10.61127 -26.85644,-8.34709 -8.5341,1.64641 -31.46414,3.90915 -39.73152,3.92073 -8.40737,0.0118 -8.79594,-0.28768 -8.7848,-6.7703 0.008,-4.93712 -2.77117,-32.13485 -3.96217,-38.7683 -0.82514,-4.59566 -1.78706,-6.2113 -6.81662,-11.44905 -5.22252,-5.43871 -5.93638,-6.68341 -6.59987,-11.50753 -0.40917,-2.97505 -0.57596,-24.9441 -0.37063,-48.82011 l 0.37331,-43.41092 -2.75568,-2.75813 -2.7557,-2.75813 h -21.75682 c -15.49326,0 -22.09786,-0.33999 -22.94142,-1.18098 -0.65152,-0.64953 -1.5557,-3.55276 -2.00928,-6.45161 -0.53189,-3.39939 -1.55497,-5.86801 -2.88165,-6.95321 -6.20001,-5.07152 -34.00067,-2.60669 -40.16877,3.56141 -1.67021,1.67021 -2.41166,3.94909 -2.96316,9.10738 -0.73573,6.88154 -2.08527,10.49949 -5.78117,15.49854 -1.08301,1.46488 -2.34436,5.0372 -2.80299,7.93849 -1.23058,7.7846 -1.92142,8.07061 -17.85613,7.39252 -9.58198,-0.40774 -16.07104,-0.15444 -22.3325,0.87178 -17.5017,2.86842 -25.00486,1.06246 -32.91334,-7.92206 -8.2521,-9.37488 -17.26205,-29.16099 -23.51468,-51.63894 -1.9741,-7.09677 -4.2704,-15.26445 -5.10291,-18.15038 -2.59334,-8.99001 -9.49714,-14.68046 -22.72931,-18.73465 -5.33053,-1.63321 -9.60005,-1.81323 -40.69479,-1.71587 -19.1067,0.0598 -45.459056,0.54422 -58.560793,1.07642 l -23.82134,0.96763 -13.320467,4.63079 c -7.326256,2.54693 -13.67955,4.63078 -14.118431,4.63078 -0.69422,0 -3.826611,-5.13516 -3.826611,-6.27324 0,-0.22907 2.107099,-0.65399 4.682441,-0.94426 3.662339,-0.41281 5.310778,-1.23101 7.566611,-3.75573 3.176181,-3.55476 3.080397,-1.2771 1.005981,-23.92141 l -0.60524,-6.60681 4.606732,-4.92498 c 2.533704,-2.70873 6.569597,-5.96626 8.968653,-7.23895 4.267453,-2.26388 4.584486,-2.28679 14.638487,-1.05803 13.481614,1.64767 16.44898,0.49955 19.658577,-7.60628 1.80521,-4.55905 5.958367,-6.4865 12.761141,-5.92236 7.614429,0.63144 10.053769,3.49918 10.190249,11.97985 0.13444,8.35481 0.99165,10.87862 4.22374,12.43564 2.20427,1.06189 3.71861,1.09235 7.63201,0.15354 7.03336,-1.68728 11.73815,-5.5607 20.12693,-16.57034 7.24435,-9.50769 11.52834,-14.02486 18.53873,-19.54779 7.18398,-5.65968 15.68707,-14.71522 18.26493,-19.45158 4.30628,-7.91207 5.51995,-16.14532 5.53917,-37.57671 0.0189,-21.07967 0.93045,-26.75364 6.00262,-37.36411 7.92982,-16.58839 20.80218,-31.61148 38.27509,-44.67013 12.22107,-9.1336 16.42581,-13.9134 18.09469,-20.56936 1.43084,-5.70659 5.54297,-40.91785 8.60164,-73.65392 3.6312,-38.86378 4.56712,-43.91031 10.13619,-54.65498 12.51626,-24.1482 12.31529,-23.66179 13.76502,-33.31691 0.85653,-5.70441 1.40861,-17.23601 1.41288,-29.51154 0.008,-23.03063 0.20265,-23.77436 7.66995,-29.30977 2.60921,-1.93417 9.21052,-8.04332 14.66958,-13.57587 5.45905,-5.53256 11.20811,-10.73708 12.77566,-11.56561 5.76377,-3.0464 11.68305,0.0254 25.9356,13.45903 13.9862,13.18263 30.5698,21.72616 50.61876,26.07777 3.52808,0.76577 12.64137,1.29739 22.3597,1.30435 15.59329,0.0112 16.6484,-0.11227 21.33995,-2.49662 4.42047,-2.24658 5.40175,-3.39876 9.40209,-11.03965 2.45657,-4.69221 5.0795,-9.25823 5.82872,-10.14672 2.02797,-2.40492 5.4557,-1.96887 10.7083,1.36224 8.11046,5.14349 14.13778,3.93591 28.97162,-5.80451 11.05409,-7.2585 14.07643,-7.98803 23.24334,-5.61044 3.76842,0.97741 9.82844,1.80306 13.46672,1.8348 13.05348,0.11387 20.71594,-4.12364 22.86105,-12.64265 0.97177,-3.85927 1.47764,-4.42168 4.48445,-4.98576 4.48468,-0.84134 10.29598,0.54763 23.19429,5.54371 9.35193,3.62241 11.88853,4.18392 20.59139,4.55819 9.4794,0.40767 12.66614,0.0518 25.5125,-2.84915 5.21336,-1.17727 5.82769,-1.12794 7.76288,0.62338 1.15582,1.046 4.55501,6.69842 7.55376,12.56093 6.9052,13.49957 13.07542,19.60921 22.85388,22.62947 10.77386,3.3277 17.90343,2.30164 23.09048,-3.32311 2.77263,-3.00657 5.82996,-3.29238 11.9858,-1.12047 7.04122,2.48429 11.14542,1.97126 15.88089,-1.98511 2.28692,-1.91067 4.77022,-3.47395 5.51844,-3.47395 3.19633,0 8.75476,6.64943 12.99834,15.54962 7.32391,15.36071 17.7894,24.75495 30.35373,27.24674 5.04925,1.00137 5.64075,1.36796 5.2213,3.23595 -0.69801,3.10847 -2.47019,28.92659 -2.47486,36.05499 -0.005,7.94103 1.26592,10.5471 6.91149,14.16985 7.7714,4.9869 9.46898,7.37736 9.41095,13.25209 -0.13242,13.40473 -4.78235,19.29467 -21.67416,27.45406 -20.79376,10.04417 -23.43644,13.00866 -23.43644,26.29035 0,8.27899 0.0898,8.11742 -8.68674,15.63562 -6.97964,5.97897 -9.52546,15.77879 -11.63958,44.80521 -0.81746,11.22351 -1.94422,22.44976 -2.50392,24.94724 -0.5597,2.49748 -5.20766,16.24724 -10.3288,30.55503 l -9.31117,26.01417 -0.45785,24.12414 c -0.48,25.29057 -0.0914,30.41088 2.59186,34.14804 0.89788,1.25055 3.15045,4.38026 5.00572,6.95492 3.90488,5.419 4.83006,10.60139 3.77137,21.12526 -0.83554,8.30557 0.0356,20.51834 2.7806,38.98272 1.11387,7.4925 2.67835,20.32249 3.4766,28.51107 2.2331,22.90718 2.57821,23.6413 17.06009,36.29142 16.71789,14.60329 26.49247,27.90261 31.5242,42.89187 5.83059,17.36903 2.98815,19.5037 -26.44453,19.85987 l -17.55421,0.21243 -3.0541,2.92747 c -2.48793,2.38476 -4.22932,3.04911 -9.3934,3.58361 -7.79365,0.80667 -10.71026,2.75362 -17.41813,11.62727 -11.86244,15.69246 -13.90096,24.45998 -9.88935,42.53334 2.1438,9.65841 2.21713,11.00058 1.0662,19.51504 -0.67978,5.02881 -1.65943,14.50309 -2.17701,21.05396 -0.51757,6.55087 -1.4349,15.7072 -2.0385,20.34739 -2.67194,20.54084 -2.84676,23.392 -1.79532,29.2804 1.4293,8.0046 4.8976,14.05844 12.18923,21.27603 12.08323,11.96055 19.24326,15.0959 32.51073,14.23634 11.39542,-0.73827 11.2135,-1.07594 11.25509,20.89069 0.0292,15.40528 -0.11782,16.81045 -1.89504,18.11414 -2.77673,2.03688 -10.90172,1.6448 -18.48076,-0.89182 z"
       id="path2"
       transform="scale(0.26458333)"
       inkscape:label="Fill trace" /></g></svg>
