<?xml version="1.0" encoding="UTF-8" standalone="no"?>
<!-- Created with Inkscape (http://www.inkscape.org/) -->

<svg
   width="210mm"
   height="297mm"
   viewBox="0 0 210 297"
   version="1.1"
   id="svg1"
   xml:space="preserve"
   inkscape:version="1.4 (e7c3feb1, 2024-10-09)"
   sodipodi:docname="Asia.svg"
   xmlns:inkscape="http://www.inkscape.org/namespaces/inkscape"
   xmlns:sodipodi="http://sodipodi.sourceforge.net/DTD/sodipodi-0.dtd"
   xmlns="http://www.w3.org/2000/svg"
   xmlns:svg="http://www.w3.org/2000/svg"><sodipodi:namedview
     id="namedview1"
     pagecolor="#ffffff"
     bordercolor="#000000"
     borderopacity="0.25"
     inkscape:showpageshadow="2"
     inkscape:pageopacity="0.0"
     inkscape:pagecheckerboard="0"
     inkscape:deskcolor="#d1d1d1"
     inkscape:document-units="mm"
     inkscape:zoom="2.080389"
     inkscape:cx="444.62837"
     inkscape:cy="687.13109"
     inkscape:window-width="1104"
     inkscape:window-height="1040"
     inkscape:window-x="609"
     inkscape:window-y="39"
     inkscape:window-maximized="0"
     inkscape:current-layer="layer1" /><defs
     id="defs1" /><g
     inkscape:label="Layer 1"
     inkscape:groupmode="layer"
     id="layer1"><path
       style="fill:#000000"
       d="m 119.13161,195.9304 c -0.38005,-0.57462 -0.69045,-1.18858 -2.79817,-2.87444 -1.94716,-1.55742 -2.46525,-2.21564 -2.56554,-3.25943 -0.0617,-0.64167 -0.0213,-0.7854 0.31539,-1.12205 0.28065,-0.28064 0.54159,-0.38543 0.95531,-0.38364 0.63471,0.003 0.97524,0.186 3.26989,1.75966 0.87198,0.598 1.64503,1.08727 1.71789,1.08727 0.0729,0 -0.12944,-0.45553 -0.44956,-1.01228 -1.0185,-1.77138 -1.48894,-3.48032 -1.65342,-6.00625 -0.23101,-3.54776 -0.67408,-4.60701 -2.84483,-6.80123 -1.44434,-1.45994 -1.59692,-1.72754 -1.79912,-3.15534 -0.20454,-1.4443 -0.38811,-2.09867 -0.91457,-3.26028 -0.54371,-1.19965 -1.06332,-1.89131 -1.64799,-2.19365 -0.77452,-0.40052 -1.21688,-0.11772 -3.39261,2.16891 -1.92614,2.02431 -2.67607,2.62138 -5.54688,4.41623 -0.8757,0.54749 -1.13317,1.11401 -1.21122,2.66515 -0.0796,1.58191 0.20649,3.10993 1.04952,5.60534 0.75244,2.22729 0.81969,3.41152 0.25224,4.44195 -0.46196,0.83887 -1.30787,1.20397 -2.008754,0.86698 -0.530984,-0.2553 -1.090022,-1.05066 -1.187133,-1.68896 -0.03938,-0.25885 -0.112349,-0.72787 -0.162151,-1.04227 l -0.09055,-0.57163 -0.65554,0.38417 c -1.267357,0.74272 -2.392088,0.39902 -3.276576,-1.00128 -1.10493,-1.7493 -1.614536,-3.56293 -2.639582,-9.394 -0.411473,-2.3407 -0.767605,-4.26781 -0.791405,-4.28247 -0.0238,-0.0147 -0.52965,-0.38143 -1.124111,-0.81504 -1.516868,-1.10643 -2.513227,-2.24352 -2.903328,-3.31341 -0.377352,-1.03492 -0.673961,-1.38906 -1.528625,-1.82507 -1.045762,-0.53351 -1.439142,-0.60436 -4.010204,-0.72226 -2.419106,-0.11093 -3.256328,-0.27974 -4.842877,-0.97644 -0.25783,-0.11322 -0.258036,-0.0954 -0.005,0.43518 0.209906,0.44018 0.518034,0.69181 1.507806,1.23133 0.684194,0.37296 1.315964,0.81259 1.403936,0.97697 0.132332,0.24726 0.02847,0.52668 -0.601601,1.6184 -0.463783,0.80359 -0.761549,1.49966 -0.761549,1.78022 0,0.25338 -0.07646,0.81831 -0.169907,1.25541 -0.138342,0.64707 -0.312473,0.9363 -0.937303,1.55686 -0.422067,0.41918 -0.93611,1.05019 -1.142316,1.40223 -0.531914,0.90811 -1.106049,1.27502 -2.020459,1.29124 -0.946591,0.0168 -1.169157,0.14003 -2.176834,1.2055 -0.682207,0.72133 -1.123979,1.00874 -2.695885,1.75385 -1.033986,0.49013 -2.318633,1.09967 -2.85477,1.35453 -1.350863,0.64215 -2.75261,0.66791 -3.770897,0.0693 -1.352853,-0.79529 -2.14702,-2.18637 -2.777893,-4.86582 -0.493429,-2.0957 -0.709443,-2.59705 -1.597151,-3.70683 -0.978206,-1.22292 -1.166261,-1.62033 -1.308146,-2.7644 -0.08437,-0.68034 -0.323462,-1.37657 -0.80179,-2.33482 -0.374862,-0.75097 -0.980713,-2.06998 -1.346336,-2.93113 -0.451841,-1.06422 -0.763194,-1.60214 -0.972055,-1.6794 -0.198649,-0.0735 -0.366011,-0.34175 -0.473392,-0.75878 -0.468269,-1.81863 -1.234454,-3.61292 -1.711992,-4.00925 -0.433851,-0.36006 -0.27603,-0.94129 0.524099,-1.93015 0.762173,-0.94196 1.4629,-2.59729 1.704287,-4.02605 l 0.09979,-0.59062 -1.095221,-0.27347 c -0.617842,-0.15428 -1.666671,-0.59267 -2.406263,-1.00577 -0.721073,-0.40276 -1.338651,-0.73229 -1.372395,-0.73229 -0.03374,0 -0.200713,0.2362 -0.371044,0.52489 -0.395885,0.67097 -0.725328,0.67467 -2.148613,0.0241 -1.081785,-0.49446 -1.104443,-0.51664 -1.79957,-1.76213 -0.62738,-1.1241 -0.694347,-1.33255 -0.615374,-1.91548 l 0.08862,-0.65411 -0.50939,0.10292 c -0.994387,0.20093 -1.034332,0.22908 -1.033109,0.72801 6.43e-4,0.26251 0.129024,1.0116 0.28529,1.66463 0.385913,1.61274 0.304805,1.76238 -1.185198,2.18664 -1.583895,0.451 -1.716171,0.38816 -2.149663,-1.02118 -0.195064,-0.63418 -0.646791,-1.81592 -1.003837,-2.62609 l -0.649175,-1.47304 -0.311233,0.64821 c -0.256543,0.53431 -0.393518,0.65622 -0.779496,0.69378 -0.381781,0.0371 -0.517517,0.1548 -0.734958,0.637 -0.146684,0.32528 -0.623655,0.92902 -1.059937,1.34164 -0.643265,0.60837 -0.89318,0.75021 -1.321831,0.75021 -0.744134,0 -0.933681,-0.39042 -0.698894,-1.43957 0.198405,-0.88656 0.08945,-1.8001 -0.262752,-2.20307 -0.128999,-0.14759 -1.301453,-1.05064 -2.605452,-2.00678 -2.20876,-1.61954 -2.370908,-1.77139 -2.370908,-2.22038 0,-0.41525 -0.5018,-1.16443 -0.646307,-0.96492 -0.02453,0.0339 -0.166292,0.34164 -0.315034,0.68394 -0.168393,0.38753 -0.452526,0.72044 -0.752992,0.88225 -0.490759,0.26429 -0.598675,0.26339 -3.099725,-0.026 l -0.689926,-0.0798 -0.09259,0.78177 c -0.11281,0.9525 -0.403915,1.42664 -1.042475,1.69793 -0.266449,0.1132 -0.889367,0.50694 -1.384263,0.87498 -0.879613,0.65414 -0.907775,0.69739 -1.254615,1.92649 -0.234698,0.8317 -0.560721,1.54931 -0.963104,2.11989 -0.568048,0.80549 -0.663656,0.87368 -1.444817,1.03043 -0.460085,0.0923 -1.468715,0.32572 -2.241401,0.51867 -0.772686,0.19295 -1.481287,0.32661 -1.574668,0.29702 -0.09338,-0.0296 -0.749715,-0.22582 -1.458519,-0.43607 l -1.2887336,-0.38227 -0.9517163,-1.98943 c -0.8334288,-1.74216 -0.9483676,-2.08826 -0.9247729,-2.78463 0.04355,-1.28533 0.5750466,-3.58413 0.9939332,-4.29891 0.212119,-0.36195 0.3856709,-0.76753 0.3856709,-0.90128 0,-0.50641 0.4503989,-1.10501 0.9573189,-1.2723 0.5634608,-0.18596 1.6213758,0.002 3.3027668,0.58617 1.115415,0.38767 1.680615,0.38785 2.315618,7.1e-4 0.595869,-0.36328 0.578827,-0.57672 -0.167065,-2.09234 -0.348124,-0.70737 -0.840435,-1.32653 -1.794534,-2.25692 -1.682763,-1.64096 -1.700583,-1.8022 -0.302512,-2.73737 0.556757,-0.37242 1.450944,-0.81155 1.987081,-0.97584 0.536137,-0.16429 1.345967,-0.41267 1.799621,-0.55195 1.170693,-0.35941 1.730616,-0.74577 2.406253,-1.66034 0.417885,-0.56567 0.81058,-0.90055 1.341794,-1.14425 l 0.751006,-0.34453 v -0.87065 c 0,-0.48583 0.100792,-1.06555 0.228043,-1.31163 0.309699,-0.59889 1.233942,-1.03756 2.419259,-1.14825 l 0.985199,-0.092 -0.09439,-0.61412 c -0.362879,-2.36103 -0.306534,-2.88494 0.427593,-3.97585 0.426731,-0.63412 0.466737,-0.76112 0.256943,-0.81568 -0.136667,-0.0356 -0.56972,-0.14829 -0.962342,-0.25054 -0.979755,-0.25517 -1.963875,-1.14484 -2.274371,-2.05609 -0.406911,-1.19422 -0.4458,-2.14058 -0.152052,-3.7002 0.251795,-1.33687 0.324392,-1.50464 0.993611,-2.29611 0.397083,-0.46963 0.721969,-0.89964 0.721969,-0.95559 0,-0.30725 0.881743,-0.64315 1.643397,-0.62606 0.691268,0.0155 0.87785,-0.041 1.199748,-0.3637 0.209647,-0.21013 0.66587,-0.57824 1.013829,-0.818 0.490007,-0.33764 0.667934,-0.57875 0.789132,-1.06934 0.372402,-1.50741 0.497695,-1.80697 0.978245,-2.33888 0.279288,-0.30914 1.019235,-0.89545 1.644325,-1.3029 0.964904,-0.62896 1.230405,-0.89936 1.758196,-1.79061 0.718641,-1.213534 1.284145,-2.020495 1.601857,-2.285816 0.159597,-0.13328 0.57192,-0.159441 1.449615,-0.09198 l 1.226578,0.09428 2.828172,-1.63266 c 3.490838,-2.015208 4.112023,-2.293764 5.132378,-2.301496 0.853392,-0.0065 1.352493,0.192666 2.42954,0.969345 1.548956,1.116982 1.732209,1.162379 4.795278,1.187908 2.532811,0.02111 2.857583,0.05438 3.677938,0.376732 1.558218,0.612297 2.969403,1.800262 3.719585,3.131226 l 0.660493,0.07498 c 0.851018,-1.647341 3.221426,-2.071697 4.544076,-0.813491 0.481084,0.457644 0.598841,0.675338 0.598841,1.107062 0,0.592156 -0.314082,1.008726 -0.760554,1.008726 -0.159074,0 -0.289225,0.0675 -0.289225,0.14997 0,0.0825 0.02516,0.14996 0.05592,0.14996 0.398573,0 4.491172,-2.254641 6.059189,-3.338053 0.969493,-0.669865 1.17855,-0.753935 1.874809,-0.753935 0.445116,0 1.593365,0.229712 2.658044,0.531752 2.254881,0.63969 2.849196,0.770012 2.849196,0.624774 0,-0.06045 -0.337429,-0.466683 -0.749842,-0.902749 -0.60623,-0.640999 -0.749842,-0.893467 -0.749842,-1.318211 0,-0.720142 0.421739,-0.992275 1.537784,-0.992275 1.344866,0 3.351917,0.801031 6.537426,2.609141 0.52344,0.297108 0.977984,0.540195 1.010098,0.540195 0.03211,0 -0.08339,-0.3543 -0.256685,-0.787334 -0.391138,-0.977411 -0.419802,-2.20193 -0.06425,-2.744578 0.142464,-0.217427 0.569338,-0.532588 0.948608,-0.700357 0.6372,-0.281864 0.770095,-0.290511 1.74948,-0.113837 2.447375,0.441491 3.842811,0.07012 5.020076,-1.335988 1.22631,-1.464694 1.949816,-1.610518 4.369615,-0.880704 0.704702,0.212538 1.593384,0.433237 1.974849,0.490441 l 0.693573,0.104008 -0.0821,-0.611902 c -0.142207,-1.060206 0.58365,-1.664655 2.00202,-1.667175 0.78542,-0.0014 1.09748,-0.389011 1.26428,-1.570407 0.27461,-1.94499 0.83234,-2.357831 3.86383,-2.86007 0.79729,-0.132091 2.19197,-0.433523 3.09928,-0.669849 0.9073,-0.236327 2.10305,-0.475485 2.65721,-0.531463 0.79147,-0.07995 1.02632,-0.16087 1.09502,-0.377303 0.24667,-0.777206 2.01133,-1.298301 5.02092,-1.482654 2.35318,-0.144145 3.29486,-0.393652 4.51484,-1.196247 1.23449,-0.812141 2.73766,-0.948974 4.11284,-0.374389 1.50499,0.628826 4.21518,2.819734 4.98366,4.028774 0.54644,0.859706 0.50902,1.485512 -0.15296,2.558293 -0.57391,0.930047 -0.81278,1.693172 -0.65703,2.099042 0.0774,0.201676 0.19159,0.182049 0.83356,-0.143263 0.40914,-0.207326 1.03479,-0.390799 1.39034,-0.407718 0.35555,-0.01692 1.85542,0.223401 3.33305,0.534044 1.77134,0.37239 3.14202,0.573752 4.0234,0.591066 l 1.33681,0.02626 0.7006,-0.784206 c 0.55808,-0.624679 0.83887,-0.813991 1.38029,-0.930618 1.51291,-0.325896 3.81389,0.384464 4.53762,1.400857 0.41665,0.585123 0.50407,1.946834 0.20561,3.202496 -0.21076,0.886698 -0.20775,0.947193 0.054,1.087271 0.65499,0.350542 2.00827,0.06269 2.175,-0.462635 0.13936,-0.439082 1.21108,-1.307861 1.82298,-1.477775 1.14018,-0.316611 1.84365,-0.130061 2.86523,0.759822 0.27094,0.23601 0.64609,0.429109 0.83367,0.429109 0.18758,0 1.01193,-0.405862 1.8319,-0.901916 1.85937,-1.124868 3.01832,-1.506857 4.87694,-1.607437 1.57661,-0.08532 4.29782,0.174367 5.00966,0.478074 0.62887,0.268303 1.06787,0.784429 1.95565,2.299184 0.59411,1.013709 0.84775,1.316258 1.13098,1.349102 0.20081,0.02329 1.34366,-0.270165 2.53965,-0.652113 3.98159,-1.271536 5.38435,-0.900366 5.68327,1.503786 l 0.094,0.755641 1.49797,-0.01803 c 1.05452,-0.01269 1.97878,-0.134782 3.12213,-0.412413 2.73569,-0.664282 4.08865,-0.477525 4.66886,0.644465 0.25738,0.497727 1.2033,1.21068 1.60628,1.21068 0.34282,0 0.47574,-0.243861 0.57002,-1.045798 0.0978,-0.831691 0.45372,-1.048288 1.72853,-1.051857 1.23496,-0.0035 6.37752,1.015868 6.70251,1.32853 0.17384,0.16724 0.51726,1.539246 1.08936,4.352122 l 0.83549,4.10787 -0.49956,0.91607 c -0.46238,0.84787 -0.49482,0.99597 -0.43585,1.98964 0.0661,1.11305 -0.12306,1.98387 -0.51626,2.37707 -0.14873,0.14872 -0.52655,0.22358 -1.12853,0.22358 -1.18492,0 -2.31566,0.30382 -3.95826,1.06354 -1.07637,0.49784 -1.56433,0.84068 -2.4874,1.74763 -0.92535,0.90919 -1.21657,1.11354 -1.49968,1.05231 -0.19324,-0.0418 -1.06747,-0.28705 -1.94274,-0.54503 -0.87527,-0.25798 -1.75258,-0.46767 -1.94959,-0.46599 -0.25823,0.002 -0.56481,0.26378 -1.09857,0.9373 -0.8775,1.10728 -1.19024,1.86653 -1.43453,3.48271 -0.10875,0.71944 -0.35072,1.52894 -0.60517,2.02457 -0.23319,0.4542 -0.46827,1.13522 -0.52241,1.51336 -0.1341,0.93678 -0.22746,1.04695 -1.06711,1.25924 -0.5911,0.14944 -0.73868,0.25246 -0.77867,0.54351 -0.0271,0.19751 -0.33821,0.6628 -0.69127,1.03397 -0.35305,0.37118 -1.16329,1.37091 -1.80052,2.22164 -0.63723,0.85072 -1.25839,1.58507 -1.38036,1.63187 -0.50162,0.19249 -0.89921,-0.20558 -1.17616,-1.17756 -0.56273,-1.97497 -0.66554,-2.76207 -0.65312,-5.00046 0.0171,-3.08052 0.20673,-3.70906 0.28922,-0.95853 0.0704,2.34706 0.17447,2.68317 0.83089,2.68317 0.25658,0 0.35656,0.0841 0.35656,0.29994 0,0.23328 -0.1,0.29993 -0.44991,0.29993 -0.4142,0 -0.4499,0.0417 -0.4499,0.52489 0,0.51108 0.0155,0.52489 0.59102,0.52489 0.32506,0 0.63305,0.068 0.68442,0.15112 0.0579,0.0937 0.17933,0.0652 0.3195,-0.075 0.12436,-0.12436 0.32078,-0.22611 0.43649,-0.22611 0.11572,0 0.31509,-0.20245 0.44305,-0.4499 0.12796,-0.24745 0.19544,-0.44991 0.14997,-0.44991 -0.17209,0 0.39734,-0.91127 0.67957,-1.08753 0.20158,-0.12589 0.29595,-0.35129 0.29752,-0.71067 0.003,-0.7467 0.15055,-0.90082 1.05222,-1.10105 0.79659,-0.1769 0.79816,-0.17839 0.97216,-0.92598 0.0959,-0.41184 0.31442,-0.985 0.48571,-1.27369 0.1713,-0.28869 0.39401,-1.06478 0.49492,-1.72464 0.24236,-1.58479 0.7149,-2.72736 1.55396,-3.75741 0.3782,-0.46426 0.68762,-0.90641 0.68762,-0.98255 0,-0.0761 0.21933,-0.27215 0.4874,-0.43559 0.69412,-0.42322 1.74102,-0.37955 3.57847,0.14927 l 1.55514,0.44756 0.9762,-0.96603 c 0.80264,-0.79427 1.24409,-1.08451 2.48298,-1.63247 1.93437,-0.85557 2.9277,-1.14603 3.9193,-1.14603 h 0.79761 v -0.66509 c 0,-0.3658 -0.0686,-0.84561 -0.15252,-1.06625 -0.12891,-0.33908 -0.068,-0.5675 0.39358,-1.4763 l 0.5461,-1.07516 -0.73101,-3.51353 -0.73101,-3.513536 -2.02457,-0.411702 c -1.11352,-0.226435 -2.4053,-0.41489 -2.87064,-0.418788 -0.80045,-0.0067 -0.85161,0.01515 -0.94897,0.405327 -0.36751,1.472673 -1.7891,1.986747 -3.31167,1.197561 -0.49513,-0.256641 -1.71686,-1.50664 -1.71686,-1.756592 0,-0.268284 -1.28045,-0.165762 -2.87734,0.23038 -2.04455,0.507195 -4.93948,0.669369 -5.62458,0.315088 -0.75865,-0.39231 -0.94609,-0.664648 -0.94609,-1.374594 0,-0.359911 -0.0658,-0.827491 -0.14626,-1.039067 -0.1292,-0.339841 -0.23091,-0.384684 -0.8725,-0.384684 -0.44637,0 -1.56031,0.263929 -2.8906,0.684877 -2.71891,0.860357 -3.37933,0.95211 -3.89819,0.541589 -0.21127,-0.167149 -0.8186,-1.024259 -1.34962,-1.904688 -0.53103,-0.880429 -1.07144,-1.657473 -1.20091,-1.726764 -0.41803,-0.223721 -3.48167,-0.483246 -4.59904,-0.389592 -1.41158,0.118313 -2.53461,0.523765 -3.95515,1.427934 -1.4009,0.891674 -2.06511,1.12467 -2.92866,1.027335 -0.59121,-0.06664 -0.94714,-0.25178 -2.10982,-1.09747 -0.51802,-0.376787 -1.28351,-0.05245 -1.86255,0.78915 -0.59178,0.860123 -1.39138,1.240916 -2.60572,1.240916 -1.48021,0 -2.62444,-0.705944 -2.62444,-1.619178 0,-0.197604 0.11507,-0.918322 0.25571,-1.601595 0.20663,-1.003825 0.221,-1.318529 0.0748,-1.639327 -0.24991,-0.548498 -1.25364,-0.974713 -2.30502,-0.978788 -0.81827,-0.0032 -0.8679,0.01966 -1.34075,0.616683 -0.64926,0.819762 -1.45328,1.172202 -2.68351,1.176322 -1.08937,0.0036 -3.92369,-0.427269 -5.85416,-0.890038 -1.66483,-0.399091 -1.89433,-0.388186 -3.018,0.1434 -0.52293,0.247383 -1.0657,0.44984 -1.20616,0.449905 -1.35427,6.28e-4 -1.9427,-2.186971 -1.05319,-3.915418 0.22884,-0.444658 0.51149,-0.954663 0.62811,-1.133345 0.19101,-0.292649 0.17216,-0.385149 -0.19003,-0.932456 -0.22114,-0.334168 -1.00603,-1.065289 -1.7442,-1.624713 l -1.34212,-1.017133 -0.009,-0.703846 c -0.009,-0.757279 -0.35667,-1.170759 -0.98347,-1.170759 -0.43148,0 -0.9748,0.413733 -0.9748,0.742301 0,0.286025 -0.27935,0.457446 -0.74547,0.457446 -0.14908,0 -0.73406,0.271546 -1.29996,0.603436 -1.43433,0.841203 -2.20967,1.039755 -4.69133,1.201385 -1.18951,0.07747 -2.30302,0.177843 -2.47448,0.223047 -1.21307,0.319813 -1.45114,0.446626 -1.73195,0.92256 -0.36181,0.613229 -0.81005,0.798782 -1.92962,0.798782 -0.47069,0 -1.63043,0.198947 -2.57719,0.442103 -0.94676,0.243157 -2.39624,0.554764 -3.22106,0.69246 -0.82483,0.137697 -1.71036,0.336604 -1.96785,0.442017 -0.42667,0.174676 -0.4778,0.269454 -0.57701,1.069668 -0.13847,1.116887 -0.37606,1.668307 -0.95222,2.209941 -0.44503,0.418373 -1.87663,0.922201 -2.14649,0.755421 -0.3234,-0.199874 0.0312,0.541996 0.56692,1.185968 0.43084,0.517924 0.44661,0.869255 0.0549,1.223726 -0.28687,0.25961 -0.36477,0.256944 -2.13705,-0.07312 -1.011633,-0.188405 -2.412961,-0.505068 -3.114064,-0.703695 -0.701102,-0.198626 -1.425805,-0.399182 -1.610451,-0.445679 -0.267545,-0.06737 -0.557072,0.130094 -1.425763,0.972416 -1.769182,1.71548 -3.311081,2.204837 -5.661955,1.796953 -0.618619,-0.107332 -1.28464,-0.172532 -1.480045,-0.144888 -0.32785,0.04638 -0.350048,0.104737 -0.287491,0.755775 0.04474,0.46563 0.276872,1.063511 0.682715,1.75841 0.854432,1.462989 0.907548,1.750592 0.414386,2.243753 -0.531316,0.53132 -0.929041,0.44886 -2.928807,-0.607217 -2.729404,-1.441396 -5.157416,-2.614706 -5.623816,-2.717648 l -0.449905,-0.0993 0.389414,0.432746 c 0.991891,1.102265 1.136431,1.769935 0.517213,2.389153 -0.568399,0.568396 -1.761597,0.505985 -4.430885,-0.23177 -1.193729,-0.32993 -2.345505,-0.599873 -2.559503,-0.599873 -0.223608,0 -0.95797,0.376143 -1.726699,0.884421 -2.84745,1.882718 -5.551433,3.195948 -6.636908,3.223318 -0.537568,0.0135 -0.713017,-0.0565 -1.012287,-0.40438 -0.487475,-0.56661 -0.482482,-1.38443 0.01291,-2.11442 0.206207,-0.303866 0.374921,-0.583226 0.374921,-0.620805 0,-0.03758 -0.235135,-0.06832 -0.522523,-0.06832 -0.364074,0 -0.669356,0.131194 -1.006733,0.432641 -0.565431,0.505204 -0.521509,0.710074 0.38454,1.793574 0.623725,0.74589 0.675563,1.09233 0.230098,1.5378 -0.262116,0.26212 -0.424156,0.29834 -0.969084,0.21662 -0.381391,-0.0572 -0.781125,-0.0303 -0.958283,0.0645 1.003666,-2.62814 -1.775052,-2.47625 -2.68288,-3.745789 -0.69517,-0.98575 -1.525186,-1.624381 -2.648414,-2.037743 -0.61929,-0.227906 -1.219831,-0.277963 -3.449274,-0.287508 -3.10527,-0.0133 -3.290394,-0.06209 -5.220308,-1.375944 -0.69867,-0.475643 -1.33395,-0.797259 -1.574668,-0.797188 -0.543335,1.59e-4 -1.683088,0.563223 -4.963276,2.451971 l -2.760147,1.589306 -1.069051,-0.09037 -1.06905,-0.09037 -0.381072,0.506657 c -0.20959,0.278661 -0.612253,0.931498 -0.894808,1.450758 -0.458104,0.84186 -0.671687,1.04898 -1.972336,1.9126 -1.532771,1.01774 -1.807343,1.35765 -1.97379,2.44345 -0.159836,1.04267 -0.622762,1.78368 -1.421245,2.27499 -0.395206,0.24317 -1.002716,0.75437 -1.350022,1.13599 -0.503754,0.55352 -0.698541,0.67428 -0.963115,0.59705 -1.080017,-0.31523 -1.198996,-0.27893 -1.858257,0.56685 -0.773104,0.99183 -1.145352,2.50628 -0.950103,3.8654 0.159167,1.10795 0.343139,1.41966 1.05105,1.78081 0.971605,0.49568 1.2451,0.41485 2.024768,-0.59839 0.684934,-0.89012 1.06312,-1.20074 1.461928,-1.20074 0.480847,0 0.728236,0.42671 1.0712,1.84768 0.250522,1.03797 0.44552,1.53584 0.660504,1.68642 0.167772,0.11751 0.52434,0.49055 0.792372,0.82897 l -0.89455,5.83271 c -0.297674,0.0827 -0.868236,0.15071 -1.267916,0.15117 -1.765617,0.002 -2.396118,-1.64441 -1.368763,-3.57429 0.382216,-0.718 0.471169,-1.43283 0.226452,-1.8198 -0.118133,-0.18681 -0.197177,-0.1671 -0.510535,0.12729 -0.660852,0.62083 -0.763377,1.08845 -0.54559,2.48845 0.217756,1.39979 0.140333,2.40394 -0.212562,2.75683 -0.15244,0.15244 -0.654601,0.27226 -1.414868,0.33759 -0.648206,0.0557 -1.331095,0.18292 -1.517531,0.2827 -0.312572,0.16728 -0.331225,0.2499 -0.239486,1.06077 0.122865,1.08598 -0.132191,1.66873 -0.844346,1.92914 -0.961459,0.35157 -1.24287,0.55122 -1.666932,1.18263 -0.235747,0.35102 -0.775736,0.87197 -1.199976,1.15767 -0.770076,0.5186 -0.977217,0.59985 -3.42898,1.34495 -1.775571,0.5396 -1.845236,0.65559 -0.925082,1.54025 1.254649,1.20624 2.453216,3.51239 2.45184,4.71756 -7.88e-4,0.69069 -0.482164,1.40008 -1.197811,1.76518 -0.557459,0.28439 -0.638713,0.2914 -0.939062,0.081 -0.4473,-0.3133 -0.892089,-0.28923 -1.276693,0.0691 l -0.321346,0.29938 -1.341214,-0.44935 c -1.434154,-0.48049 -1.971829,-0.55513 -1.971829,-0.27374 0,0.0966 -0.204177,0.59472 -0.4537261,1.10697 -0.4369251,0.89687 -0.8959902,2.77894 -0.8959902,3.67338 0,0.23678 0.3264726,1.1279 0.7254947,1.98026 l 0.7254946,1.54975 0.898787,0.27213 c 0.880499,0.2666 0.924475,0.26584 2.161397,-0.037 0.694436,-0.17003 1.500731,-0.35068 1.791766,-0.40144 0.706774,-0.12327 1.105688,-0.72965 1.662045,-2.52646 0.436797,-1.41068 0.4502,-1.43141 1.374476,-2.12625 0.513357,-0.38592 1.180623,-0.84399 1.482814,-1.01793 0.481881,-0.27737 0.56983,-0.41992 0.715298,-1.15932 0.300501,-1.52742 1.212639,-1.97615 3.161143,-1.55515 0.648507,0.14012 1.275147,0.2179 1.392533,0.17286 0.125441,-0.0481 0.246894,-0.37879 0.294601,-0.80205 0.08337,-0.73964 0.604157,-1.4049 1.09981,-1.4049 0.75681,0 2.392586,1.42436 2.552178,2.22231 0.06369,0.31846 0.508966,0.71365 1.978821,1.75625 2.418846,1.71574 3.327216,2.57793 3.330302,3.16101 0.0013,0.23861 0.06772,0.53507 0.147672,0.65879 0.211837,0.3278 0.197263,-0.33223 -0.02361,-1.06946 -0.150045,-0.5008 -0.137193,-0.61958 0.09478,-0.8759 0.260212,-0.28753 0.25608,-0.30121 -0.136117,-0.45032 -0.222462,-0.0846 -0.452642,-0.15378 -0.511511,-0.15378 -0.05887,0 -0.694854,-0.48927 -1.413297,-1.08727 -0.973189,-0.81004 -1.48298,-1.37407 -1.999327,-2.21204 -0.679304,-1.10243 -0.691327,-1.14371 -0.605544,-2.07933 0.09465,-1.03231 0.271626,-1.36994 0.718094,-1.36994 0.474905,0 2.027048,0.85083 4.430187,2.42847 l 2.278283,1.49568 0.69698,1.34948 c 0.890098,1.72339 2.562627,5.52228 2.693378,6.11759 0.05865,0.26704 0.195826,0.45629 0.330737,0.45629 0.175529,0 0.206872,-0.0984 0.131391,-0.41242 -0.05452,-0.22682 -0.138051,-1.08909 -0.185622,-1.91614 -0.06897,-1.19918 -0.0431,-1.53975 0.12777,-1.68156 0.298386,-0.24764 3.82381,-0.9741 4.179434,-0.86123 0.408897,0.12978 0.506627,0.6902 0.301864,1.73099 -0.171226,0.87032 -0.1634,0.91776 0.292506,1.77313 0.669823,1.25672 1.385992,1.54944 1.853703,0.75767 0.53181,-0.90029 0.779273,-0.88049 2.557906,0.20458 1.150714,0.702 1.904161,1.04972 2.679841,1.23677 1.267308,0.3056 2.180123,0.73156 2.31371,1.07968 0.294415,0.76724 -1.116102,5.14328 -1.927729,5.98067 l -0.484414,0.49979 0.619139,1.31537 c 0.340527,0.72346 0.664934,1.51783 0.720906,1.76528 0.05597,0.24745 0.228333,0.58971 0.383026,0.76058 0.154694,0.17087 0.654877,1.18315 1.111519,2.24952 0.456642,1.06637 1.165607,2.61371 1.575477,3.43854 0.465945,0.93767 0.776267,1.78069 0.82807,2.24953 0.137392,1.24345 0.179217,1.34368 0.97617,2.33935 1.067313,1.33343 1.406768,2.07289 1.84535,4.01983 0.599003,2.65908 1.328143,3.97788 2.468908,4.46552 0.702786,0.30041 1.079034,0.18979 3.969757,-1.16723 2.235425,-1.04939 2.60835,-1.27772 3.270798,-2.00254 0.90666,-0.99203 2.103514,-1.62796 2.929914,-1.55676 0.560701,0.0483 0.586306,0.0275 1.323013,-1.07487 0.413185,-0.61827 0.900631,-1.18972 1.083214,-1.26988 0.345839,-0.15186 0.642482,-1.10264 0.642482,-2.05925 0,-0.25608 0.237309,-0.88995 0.527354,-1.4086 l 0.527354,-0.943 -0.98333,-0.5499 c -0.862886,-0.48256 -1.038679,-0.65956 -1.435218,-1.4451 -0.503207,-0.99685 -0.442827,-0.99652 -1.501528,-0.008 -0.394299,0.36809 -0.84131,0.58294 -1.649652,0.79286 -0.609838,0.15837 -1.235142,0.28911 -1.389565,0.29052 -0.154423,0.001 -0.853005,-0.55419 -1.552405,-1.23467 -1.149391,-1.1183 -1.36556,-1.4242 -2.248656,-3.18203 -0.778982,-1.55058 -0.950684,-2.01352 -0.84709,-2.28387 0.215215,-0.56165 2.452662,-2.74515 2.810343,-2.74257 0.468729,0.003 0.520196,0.0612 1.795159,2.01814 1.099459,1.68754 1.216885,1.81466 1.952972,2.11413 0.642536,0.26141 0.930108,0.29778 1.601385,0.20254 1.444415,-0.20495 1.489854,-0.19236 2.236307,0.61958 1.093642,1.18958 2.115068,1.50413 5.330481,1.64152 2.69838,0.1153 3.596245,0.3242 4.891936,1.13816 0.712475,0.44759 1.445622,1.34961 1.565396,1.92597 0.236146,1.13637 1.091061,2.08282 3.201852,3.54467 l 0.988574,0.68465 0.477837,2.76462 c 1.036014,5.99408 1.272984,7.14671 1.783714,8.67603 0.514378,1.54025 1.090233,2.60329 1.573369,2.90448 0.174008,0.10848 0.400617,0.0378 0.866005,-0.27021 0.390331,-0.25831 0.905259,-0.44355 1.352409,-0.48651 0.644088,-0.0619 0.755857,-0.0265 1.034782,0.32815 0.207825,0.2642 0.348294,0.73508 0.418832,1.40397 0.12378,1.17387 0.30473,1.73712 0.51608,1.60649 0.34566,-0.21363 0.1427,-1.68662 -0.50721,-3.68121 -0.860179,-2.63987 -1.04862,-3.77184 -0.962684,-5.78285 0.05414,-1.26706 0.140385,-1.77072 0.384215,-2.24388 0.351754,-0.68259 1.263259,-1.56633 2.014309,-1.95294 1.7345,-0.89287 3.37875,-2.29365 5.94048,-5.06088 1.42019,-1.5341 2.54247,-1.91572 3.86604,-1.31459 0.8335,0.37855 1.58121,1.18593 2.21468,2.39143 0.59924,1.14036 1.20649,3.11111 1.36798,4.43961 0.10617,0.87341 0.13706,0.92159 1.49036,2.32451 1.5137,1.56921 2.17001,2.58816 2.58891,4.01937 0.15085,0.5154 0.31617,0.93718 0.36738,0.9373 0.0512,1.1e-4 0.13798,-0.39644 0.19283,-0.88122 0.0679,-0.60058 0.19578,-0.96836 0.40122,-1.15428 0.29154,-0.26384 0.3347,-0.26378 1.30685,0.002 0.55295,0.15114 1.26303,0.32492 1.57796,0.38617 0.76017,0.14786 1.26553,0.66118 2.14544,2.17924 0.40218,0.69386 0.76683,1.263 0.81034,1.26477 0.0435,0.002 0.26449,-0.42232 0.49106,-0.94242 0.27753,-0.63705 0.69596,-1.22666 1.28229,-1.80687 l 0.87033,-0.86125 -0.12585,-0.92029 c -0.21005,-1.53591 -1.13456,-3.21803 -2.93532,-5.34075 -0.90021,-1.06117 -1.23628,-1.72044 -1.23628,-2.42525 0,-1.48434 1.58202,-2.23506 4.72869,-2.24393 0.88208,-0.002 1.48274,-0.14625 3.67422,-0.87939 1.44087,-0.48204 2.85597,-0.99743 3.14466,-1.14532 0.83885,-0.42973 1.96694,-1.37294 2.74687,-2.29668 1.36972,-1.62228 2.76356,-5.07212 3.03564,-7.51341 0.18205,-1.63343 -0.4752,-5.02825 -1.0061,-5.19675 -0.15694,-0.0498 -0.39325,-0.25524 -0.52513,-0.45651 -0.20765,-0.31691 -0.21394,-0.45821 -0.047,-1.05451 0.28626,-1.02242 1.32394,-2.34665 2.15358,-2.74827 0.68038,-0.32937 0.69064,-0.34517 0.69064,-1.06375 0,-1.48307 0.59437,-1.99279 2.05638,-1.76352 1.0835,0.16991 2.81939,0.97718 3.51506,1.63466 0.96213,0.90932 1.0534,2.2132 0.26335,3.76184 -0.16879,0.33084 -0.27404,0.63437 -0.2339,0.67451 0.10885,0.10885 1.34412,-0.46864 1.55866,-0.72867 0.14966,-0.18139 0.12289,-0.50129 -0.13693,-1.63653 -0.39762,-1.73727 -0.47952,-4.88061 -0.13793,-5.29304 0.14646,-0.17683 0.25897,-0.20701 0.36743,-0.0986 0.086,0.086 0.2778,0.15632 0.42626,0.15632 0.23563,0 0.26995,-0.14108 0.26995,-1.10971 v -1.10972 l 0.82486,-0.75388 c 1.12211,-1.02554 2.24626,-1.56243 3.15452,-1.50657 0.90253,0.0555 0.93022,0.0175 2.61368,-3.58676 2.7975,-5.98942 4.05468,-8.04457 5.21846,-8.53083 0.45301,-0.18928 0.55664,-0.18713 0.86973,0.018 0.1955,0.12809 0.38714,0.23289 0.42587,0.23289 0.0646,0 -0.49477,-1.80517 -0.59757,-1.92845 -0.0247,-0.0296 -0.24479,0.0885 -0.4891,0.26244 -0.24431,0.17396 -0.52457,0.3163 -0.6228,0.3163 -0.0982,0 -0.73815,-0.37619 -1.42203,-0.83597 l -1.24344,-0.83597 -0.76186,0.38606 c -1.44324,0.73135 -1.90539,0.46826 -1.78619,-1.01681 0.20149,-2.51003 2.00792,-4.52551 5.88601,-6.56712 4.80895,-2.53167 9.5715,-3.38413 11.04883,-1.97766 l 0.39876,0.37963 1.35404,-0.41416 1.35404,-0.41417 -0.29061,-0.56963 c -0.15983,-0.3133 -0.2906,-0.70932 -0.2906,-0.88006 0,-0.42173 0.7159,-2.11654 1.02496,-2.42648 0.35427,-0.35528 4.91261,-0.85446 6.71434,-0.73529 0.0912,0.006 0.47928,0.25027 0.86232,0.54274 1.11826,0.85385 1.04774,1.03801 -1.21568,3.17473 -3.23317,3.05219 -5.69041,9.33143 -6.60402,10.35069 -0.31878,0.35565 -0.20979,-3.36684 -0.20979,-3.36684 l 0.48054,-1.84962 c 0.45454,-1.74956 0.93809,-2.0351 3.64419,-4.6791 l 2.72445,-2.66194 -0.82378,10e-4 c -0.45308,7.2e-4 -1.66735,0.10136 -2.69838,0.22365 -1.03104,0.12229 -1.88068,0.22294 -1.8881,0.22365 -0.007,7.2e-4 -0.10323,0.27324 -0.21292,0.6056 -0.18676,0.56591 -0.17272,0.66018 0.2211,1.48416 0.66871,1.39909 0.57105,1.54468 -1.45857,2.17457 -0.927,0.28769 -2.00577,0.60739 -2.39727,0.71045 l -0.71181,0.18737 -0.56292,-0.544 c -0.69735,-0.67393 -1.50893,-0.82404 -3.06397,-0.56673 -2.45082,0.40553 -6.28743,1.96238 -8.61366,3.4953 -1.20017,0.79089 -2.32969,1.92447 -2.70796,2.71772 -0.30699,0.64377 -0.24411,0.732 0.35938,0.50421 0.43537,-0.16434 0.53854,-0.12621 1.67186,0.61784 l 1.20787,0.79299 0.56445,-0.46527 c 0.78405,-0.64628 1.18147,-0.62081 1.29569,0.083 0.0489,0.30156 0.25402,0.72335 0.45574,0.9373 0.42684,0.45273 1.32103,3.15865 1.68492,5.09878 0.32727,1.74484 0.23277,3.60213 -0.22962,4.51328 -0.18837,0.37117 -0.62224,0.96724 -0.96417,1.3246 -1.17479,1.22782 -2.39425,1.55652 -3.20027,0.86262 -0.37571,-0.32344 -0.41929,-0.45596 -0.40688,-1.23724 0.008,-0.48125 0.26478,-1.97881 0.57143,-3.32793 0.30665,-1.34911 0.52318,-2.48729 0.48118,-2.52928 -0.20108,-0.20109 -1.27686,1.84021 -4.40924,8.36656 -1.30914,2.72761 -1.8498,3.27559 -2.93592,2.9757 -0.39249,-0.10837 -0.65901,-0.0921 -1.02505,0.0625 -0.80746,0.34102 -2.16544,1.59046 -2.6202,2.41078 -0.39336,0.70957 -0.42293,0.87818 -0.41015,2.33935 0.009,1.03003 0.12571,2.06501 0.33743,2.99235 0.42252,1.85071 0.41344,2.2768 -0.0605,2.84007 -0.50641,0.60184 -2.0471,1.34844 -3.02057,1.46373 -0.72954,0.0864 -0.80714,0.0626 -1.2544,-0.38466 -0.57627,-0.57627 -0.5528,-0.96494 0.14533,-2.40615 0.55775,-1.1514 0.59377,-1.78231 0.1268,-2.22101 -0.3989,-0.37474 -1.8047,-1.0407 -2.48343,-1.17644 l -0.478,-0.0956 v 0.67122 c 0,1.04723 -0.24225,1.55676 -0.87276,1.83574 -0.88207,0.39027 -0.96445,0.44957 -1.4386,1.03539 -0.44362,0.54811 -0.44636,0.56229 -0.18603,0.96271 1.18256,1.81891 1.60084,5.90579 0.8781,8.57968 -0.91482,3.38454 -2.17529,5.65168 -4.14634,7.45778 -1.33029,1.21897 -2.21149,1.65183 -5.70541,2.80253 -2.84308,0.93636 -3.07145,0.98737 -4.42407,0.98816 -1.39754,8.2e-4 -2.45964,0.1799 -2.62165,0.44204 -0.1547,0.25031 0.18897,0.83814 1.18837,2.03266 1.76325,2.10748 2.77805,4.11808 3.00819,5.96003 0.15186,1.21549 0.0263,1.53403 -1.04374,2.64831 -0.68907,0.71755 -1.10184,1.32408 -1.50557,2.21231 l -0.55622,1.22373 -1.03641,0.46342 c -1.17448,0.52515 -1.3137,0.54577 -1.71311,0.25372 -0.26608,-0.19456 -0.2732,-0.2754 -0.0987,-1.12012 l 0.18804,-0.91042 -0.66,-1.08457 c -0.63924,-1.05045 -0.6854,-1.09051 -1.46711,-1.27303 -0.44391,-0.10365 -0.85051,-0.19131 -0.90356,-0.19481 -0.053,-0.003 -0.16956,0.40868 -0.25891,0.91594 l -0.16246,0.9223 0.73478,1.46775 c 0.69781,1.3939 1.45548,2.59641 3.1794,5.04608 l 0.76352,1.08495 -0.26386,2.12973 -0.26386,2.12973 0.80837,0.76003 c 0.70884,0.66644 1.11821,5.18584 1.11821,5.18584 -0.15493,-0.29468 -1.73969,-3.59837 -2.38884,-4.23531 -1.09661,-1.07598 -1.17423,-1.19292 -1.09507,-1.64965 0.0469,-0.27037 0.16805,-1.27501 0.26931,-2.23253 l 0.18411,-1.74095 -1.24413,-1.75377 c -0.68427,-0.96456 -1.61231,-2.45878 -2.06232,-3.32048 -0.45001,-0.8617 -0.85492,-1.56672 -0.89979,-1.56672 -0.18032,0 0.15145,2.0943 0.49891,3.14933 0.20374,0.61862 0.73796,1.74381 1.18717,2.50043 1.2101,2.03821 1.0751,2.86086 -0.49397,3.01005 -0.59998,0.0571 -0.86938,-0.0141 -1.68866,-0.44601 -0.53614,-0.28264 -1.5469,-0.9263 -2.24614,-1.43035 -2.30033,-1.65822 -1.53345,-0.63568 0.9992,1.3323 1.88223,1.46259 2.46462,2.13012 2.89989,3.32391 0.29008,0.79556 0.55758,1.14693 1.85497,2.43663 1.58687,1.57744 2.79683,2.62023 3.04029,2.62023 0.079,0 0.23015,-0.33743 0.33584,-0.74984 0.79898,-3.11742 1.42418,1.59914 1.03094,1.74133 -1.82181,0.65874 -3.8535,0.26761 -7.76516,-5.64664 z M 72.566862,163.84082 c 0.247448,-0.1526 0.682473,-0.5181 0.966722,-0.81223 l 0.516816,-0.53478 h -0.411928 c -0.226561,0 -0.948847,-0.21218 -1.605081,-0.4715 l -1.193153,-0.47149 -1.00321,-1.57368 -1.003211,-1.57369 -0.493249,0.58299 c -0.271287,0.32064 -0.494253,0.63494 -0.49548,0.69845 -0.0012,0.0635 0.296433,0.71015 0.661467,1.43698 0.482751,0.96121 0.922283,1.57462 1.612161,2.24992 0.882596,0.86394 0.984913,0.9221 1.473351,0.83745 0.28869,-0.05 0.727347,-0.21582 0.974795,-0.36842 z M 36.694048,141.41736 c -0.399347,-0.82471 -0.526534,-0.93748 -2.641917,-2.34237 -1.222305,-0.81177 -2.284582,-1.47594 -2.360617,-1.47594 -0.07603,0 0.06838,0.3358 0.320916,0.74623 0.574924,0.93437 2.425316,2.44192 3.390911,2.76264 0.437436,0.14529 0.901473,0.44374 1.171802,0.75365 0.246161,0.28221 0.468015,0.49266 0.493008,0.46767 0.02499,-0.025 -0.143354,-0.43534 -0.374103,-0.91188 z m 126.809492,-7.19949 c 0.24957,-0.20999 0.63574,-0.75378 0.85818,-1.20841 0.37726,-0.77109 0.39784,-0.91418 0.30637,-2.13017 -0.10184,-1.35391 -0.6568,-3.77256 -0.68194,-2.97205 -0.0133,0.4224 -0.46969,2.77399 -1.04427,5.38022 -0.32399,1.46956 -0.24149,1.60622 0.56166,0.93041 z M 29.565701,122.59201 c 0.456138,-0.15901 0.457687,-0.16325 0.214553,-0.58689 -0.22691,-0.39536 -0.226485,-0.48431 0.0058,-1.21062 0.217543,-0.68027 0.223183,-0.83709 0.04267,-1.18617 -0.114409,-0.22124 -0.30441,-0.48226 -0.422225,-0.58004 -0.18067,-0.14994 -0.22656,-0.0308 -0.293088,0.76077 -0.05126,0.60988 -0.222432,1.21222 -0.488813,1.72006 -0.225464,0.42984 -0.370085,0.88537 -0.321381,1.01229 0.103268,0.26911 0.61152,0.29753 1.262507,0.0706 z m -1.535394,-5.6508 c -0.139843,-0.55718 -0.195991,-0.58855 -0.450753,-0.25181 -0.299348,0.39568 -0.282321,0.48265 0.109257,0.55807 0.185586,0.0357 0.361616,0.0742 0.391178,0.0854 0.02956,0.0112 0.0072,-0.16503 -0.04968,-0.39168 z M 127.06434,200.7358 C 0,0 0,0 127.06434,200.7358 Z m 22.67312,-58.57521 c 0.007,-0.17471 0.0427,-0.21024 0.0906,-0.0906 0.0433,0.10826 0.038,0.23761 -0.0118,0.28744 -0.0498,0.0498 -0.0853,-0.0387 -0.0788,-0.19683 z M 29.242542,118.71121 c 0.426857,-1.00179 10.97926,-2.09834 11.796241,-1.75699 l 0.512197,0.21401 -0.07029,-0.73151 c -0.04434,-0.46151 -0.0011,-0.81483 0.117048,-0.95724 0.160112,-0.19292 0.118202,-0.22573 -0.288378,-0.22573 -0.976637,0 -1.878856,-0.80739 -2.262355,-2.02457 -0.103951,-0.32993 -0.35589,-0.93276 -0.559865,-1.33963 -0.691849,-1.38003 -0.248295,-2.562 1.495764,-3.98589 2.593873,-2.1177 2.638197,-2.1776 2.101561,-2.84032 -0.174254,-0.21519 -0.352416,-0.29171 -0.525024,-0.22547 -0.143697,0.0551 -0.847066,0.88408 -1.563042,1.84207 -1.403114,1.87742 -1.962271,2.46208 -2.612107,2.73125 -0.429976,0.1781 -0.734869,0.78364 -0.734869,1.45949 0,0.20414 0.234444,0.8904 0.520987,1.52503 0.643285,1.42474 0.96779,2.6518 0.833824,3.15299 -0.139926,0.52349 -0.751055,0.72075 -1.449951,0.46803 -0.667885,-0.24151 -0.706481,-0.19156 -0.938756,1.21492 -0.09525,0.57676 -0.803585,0.48179 -1.23357,0.57157 -9.551599,1.99444 -0.43654,-0.0536 -0.375626,-0.26245 0.0421,-0.14434 0.123333,-0.59987 0.180515,-1.01228 0.19761,-1.42523 0.649662,-2.10219 1.511771,-2.26392 0.275498,-0.0517 0.500905,-0.14845 0.500905,-0.21503 0,-0.0666 -0.2362,-0.61393 -0.52489,-1.21632 -1.027386,-2.1438 -0.569709,-3.96458 1.24477,-4.95209 0.251758,-0.13701 0.943504,-0.9131 1.537214,-1.72463 1.99399,-2.72556 2.815095,-3.31603 3.951171,-2.84134 0.659759,0.27566 1.303893,1.2358 1.399779,2.0865 0.11338,1.00591 -0.331326,1.7093 -1.811357,2.86499 -1.246004,0.97295 -2.347413,2.06387 -2.347413,2.32505 0,0.0748 0.202404,0.56392 0.449787,1.08684 0.247382,0.52292 0.44984,1.05841 0.449905,1.18997 6.5e-5,0.13156 0.133436,0.35985 0.296381,0.50731 0.447034,0.40456 1.382167,0.23124 3.109975,-0.57643 1.569578,-0.7337 2.186652,-0.83499 2.885405,-0.47366 0.563099,0.29119 1.057997,1.11253 1.052041,1.74598 -0.0084,0.89069 -0.582835,1.32977 -1.747501,1.33568 -0.988076,0.005 -1.905228,0.23517 -2.532741,0.63557 -0.433378,0.27653 -0.510824,0.40151 -0.440232,0.71048 0.85886,3.75903 -14.413246,3.0936 -13.929274,1.95777 z m 16.854893,-4.95714 c 0,-0.1879 -0.159153,-0.1879 -0.449905,0 -0.181906,0.11756 -0.160382,0.14582 0.112476,0.14767 0.185586,10e-4 0.337429,-0.0652 0.337429,-0.14767 z m 12.372395,-5.64889 c -0.164965,-0.0359 -0.817606,-0.24034 -1.450314,-0.45433 l -1.150377,-0.38906 -0.54534,0.32175 c -0.664914,0.39231 -1.005512,0.40582 -1.325209,0.0526 -0.489774,-0.5412 -3.852008,-5.48335 -3.852008,-5.66207 0,-0.10131 0.122713,-0.33575 0.272696,-0.52097 l 0.272695,-0.33676 1.939339,0.46505 c 14.478212,3.47193 5.406379,3.09538 0.52868,1.7288 -0.442426,-0.12396 -0.535915,-0.28841 1.574231,2.7691 0.01843,0.0267 0.238885,-0.0577 0.489902,-0.18746 0.612849,-0.31692 0.891478,-0.29882 1.839836,0.11954 0.443298,0.19556 1.025324,0.40338 1.293393,0.46182 0.485393,0.10583 0.487397,0.10384 0.487397,-0.48459 0,-1.19006 0.222863,-1.83216 0.440296,-1.98244 l 2.311386,-1.59749 c 1.265974,-0.87497 -1.029078,1.72767 -1.177874,3.20965 -0.08903,0.88669 -0.241931,1.75691 -0.339782,1.93382 -0.152751,0.27617 -0.943953,0.68883 -1.218908,0.63574 -0.04955,-0.01 -0.225069,-0.0468 -0.390034,-0.0827 z m 68.46059,-26.144413 c 0,-0.166632 0.1,-0.299937 0.22495,-0.299937 0.12497,0 0.22495,0.133305 0.22495,0.299937 0,0.166631 -0.1,0.299936 -0.22495,0.299936 -0.12497,0 -0.22495,-0.133305 -0.22495,-0.299936 z"
       id="path1"
       sodipodi:nodetypes="sscscsssssssssssssssscsssssssssssssssssssssssssssssssscssssssscsssssscscssssssssssccssssssssscssssscsssssssscssscsscsssssscssssssscscsssssssssssssssssssssssssscsssssscsssssssssscsssssssssssssssccsssssssscsssssssscssssssssssssssssssssssscscsssssscssscscscccsssssssssssssssssssssscsscsssssssccssssssssssssssssssssssssssscsssssccsssssssscssssscccsssssscssssssssscssssssssssssssscscssssscsssssssscsssscsssssssssscsssssssssssssscsssssssssssssssscsscscssscsssssssscssssssssssssssssssscsssscsscssscssssssssssssssssssscsssssssssscsssscccssssssscssccscsssscsssssscssssssscsssssssssssssscssssssssssssscssscsscscsscccssssscssssscssssssssssscsscccsssssssssssssssssssscssssssscccscsccssssssssscscssssscsssssssssssssssssssssssscsssssscssscscsscssscssssssscsssssss" /><path
       style="fill:#ffffff;stroke:#000000;stroke-width:9.73741"
       d="m 361.09687,692.09401 c -2.14878,-4.71604 -9.60821,-39.50223 -9.60821,-44.80672 0,-1.56479 -3.37921,-5.73755 -7.50936,-9.27281 -4.13016,-3.53524 -8.23376,-8.33304 -9.11915,-10.66173 -2.57179,-6.76436 -10.07116,-10.34765 -24.64209,-11.7743 -9.28034,-0.90865 -15.29412,-2.56918 -19.08784,-5.27057 -3.04633,-2.16916 -8.06015,-3.94394 -11.14186,-3.94394 -4.33338,0 -6.76876,-1.56381 -10.74698,-6.90095 -7.45603,-10.00291 -8.22178,-10.17825 -14.99114,-3.43263 l -6.14582,6.12426 4.70462,9.28414 c 7.89334,15.57672 17.30604,19.9631 26.90968,12.54004 2.21184,-1.70961 3.71382,-1.14044 7.55824,2.86418 3.16483,3.2967 4.27055,5.82952 3.24862,7.44147 -0.85207,1.34403 -1.56191,3.93713 -1.57741,5.76246 -0.039,4.58978 -9.47382,16.00378 -13.22882,16.00385 -1.6936,4e-5 -5.53322,2.06493 -8.53249,4.58866 -2.99928,2.52373 -9.87179,6.63574 -15.27225,9.1378 l -9.81901,4.54922 -4.01126,-3.7684 c -2.20621,-2.0726 -4.96884,-7.63383 -6.13918,-12.35825 -1.17035,-4.72443 -4.14991,-11.67753 -6.62126,-15.45136 -2.47133,-3.77383 -4.49333,-8.05493 -4.49333,-9.51355 0,-1.45864 -4.46481,-12.15424 -9.92181,-23.76803 -8.07552,-17.1866 -9.49027,-21.58025 -7.60274,-23.61102 2.96333,-3.18821 6.48302,-13.71507 6.48302,-19.38974 0,-2.52768 -1.36354,-4.85115 -3.22044,-5.48762 -1.77125,-0.6071 -8.05121,-3.20955 -13.95547,-5.78322 -9.03061,-3.93645 -11.00836,-4.26333 -12.45669,-2.05886 -1.43767,2.18827 -2.17124,2.0313 -4.44708,-0.95163 -1.49898,-1.96469 -2.72541,-5.89824 -2.72541,-8.74121 0,-4.41821 -0.7351,-5.16539 -5.0607,-5.14392 -10.22572,0.0508 -13.34185,1.87302 -13.34185,7.80198 0,4.77867 -0.9672,3.67133 -6.90096,-7.90093 -6.20753,-12.10615 -8.0947,-14.16821 -18.78108,-20.52141 -6.53407,-3.88462 -12.74493,-6.77981 -13.80191,-6.43377 -2.76582,0.90548 -3.41794,9.63237 -1.05036,14.05623 3.00954,5.62338 0.55881,4.57445 -6.29751,-2.69538 -6.4139,-6.8007 -12.056333,-7.17928 -12.056333,-0.80889 0,2.79022 -1.336312,3.31185 -7.745472,3.02356 -6.707467,-0.30173 -8.06368,0.3013 -10.119907,4.49966 -1.305939,2.66644 -4.402719,6.17706 -6.881732,7.80138 -2.479013,1.6243 -6.121076,6.6015 -8.093473,11.06042 -3.228431,7.29842 -4.374823,8.24039 -11.491874,9.44281 -6.87315,1.16122 -8.34302,0.7956 -11.254039,-2.79936 -4.872993,-6.01789 -5.636026,-11.07561 -2.918489,-19.34496 l 2.408131,-7.32786 10.935415,0.37882 c 6.014479,0.20834 12.011354,-0.51415 13.326391,-1.60553 4.785165,-3.97133 2.339352,-14.51924 -5.3199,-22.94282 l -3.570437,-3.92674 8.360428,-2.84868 c 10.826784,-3.68906 25.003939,-15.46162 25.003939,-20.76301 0,-4.40413 6.147496,-6.44342 18.789912,-6.23313 6.78873,0.11293 6.83504,0.0624 8.00186,-8.73353 l 1.17361,-8.84711 16.84158,-0.19182 c 18.14011,-0.20661 30.64348,-3.8314 30.64348,-8.88372 0,-2.97486 4.461,-5.42344 13.34185,-7.32316 5.77964,-1.23634 6.79321,-6.37804 2.16887,-11.00239 -3.57401,-3.57401 -4.76619,-3.58603 -13.03418,-0.13144 -9.09668,3.80083 -10.74139,3.51838 -13.39471,-2.30032 -2.18243,-4.78602 -1.89882,-5.41302 5.22537,-11.55177 5.80158,-4.9991 7.53306,-7.80245 7.53306,-12.19639 0,-12.5586 -10.53687,-12.66897 -19.87336,-0.20816 -3.261,4.35224 -7.57657,8.94203 -9.59016,10.19954 -4.08357,2.55023 -5.03506,12.81161 -1.75607,18.93846 1.49407,2.79168 1.30314,3.55953 -0.88506,3.55953 -1.53454,0 -3.34741,2.27731 -4.02861,5.0607 -1.48856,6.08232 -3.67661,7.75558 -10.19046,7.7929 -4.01726,0.023 -5.31509,-1.17506 -7.08619,-6.54155 -2.72675,-8.26213 -6.36139,-9.74203 -10.71669,-4.36346 -4.090336,5.05135 -8.884071,3.84122 -10.514327,-2.65424 -1.448593,-5.77166 2.674047,-14.47798 7.471626,-15.77882 6.219211,-1.68631 15.305231,-9.52639 16.484201,-14.22378 1.49055,-5.9388 20.21817,-24.49939 24.71987,-24.49939 1.95737,0 9.30424,-3.31246 16.32638,-7.36102 7.02213,-4.04856 13.69978,-7.36102 14.83921,-7.36102 1.13944,0 4.78309,1.65313 8.09701,3.67363 4.19982,2.56064 9.37054,3.69547 17.06683,3.74572 11.8689,0.0775 14.49747,1.15752 26.32534,10.81653 5.46307,4.46132 7.15745,6.90751 5.86405,8.46596 -1.38719,1.67146 -5.36401,1.16496 -16.75262,-2.13365 -24.72091,-7.16019 -26.64072,-5.61515 -14.75903,11.87781 l 7.11862,10.48049 h 11.54788 11.54788 l 2.53136,-8.67004 c 1.75577,-6.01359 3.30939,-8.37149 5.07066,-7.69563 1.39662,0.53593 3.08599,0.0899 3.75419,-0.99129 0.66818,-1.08114 2.95861,-1.96571 5.08985,-1.96571 2.13124,0 10.04755,-3.38771 17.59184,-7.52825 l 13.71686,-7.52826 11.72356,2.21208 c 13.33947,2.51698 17.28446,1.6816 17.28446,-3.66011 0,-4.75805 -0.10327,-4.77233 12.88179,1.7825 6.01511,3.03642 12.11375,5.52077 13.55253,5.52077 3.89529,0 4.77869,-4.19722 1.95612,-9.294 -4.28864,-7.74411 -3.34479,-9.10855 6.30081,-9.10855 6.86642,0 10.57392,-1.19374 16.05786,-5.17028 l 7.13018,-5.17028 11.29593,2.70273 c 13.19543,3.15722 18.42952,2.11408 15.6309,-3.1152 -1.50121,-2.80502 -1.01538,-3.82442 2.60978,-5.47615 2.68471,-1.22324 5.07218,-4.41384 6.00949,-8.03108 1.52103,-5.86983 1.94087,-6.08346 19.12842,-9.73326 9.66528,-2.05244 18.73608,-4.70323 20.15731,-5.89065 1.42122,-1.18742 7.95025,-2.76607 14.50895,-3.5081 6.55869,-0.74203 15.20904,-2.81951 19.22301,-4.61661 4.01396,-1.79711 8.04844,-2.80374 8.9655,-2.23697 0.91705,0.56678 2.39021,-0.11074 3.2737,-1.50558 1.26762,-2.00134 1.61227,-1.85157 1.63452,0.7103 0.0155,1.78551 2.59851,5.54298 5.74003,8.34994 5.53887,4.94897 5.64398,5.33012 3.47053,12.58446 -2.90887,9.70896 -0.0116,16.4744 6.15727,14.37796 5.03378,-1.71069 11.60268,-1.68646 28.29162,0.10437 11.0435,1.18503 14.06893,0.89824 18.05132,-1.71111 2.63132,-1.72412 6.59851,-2.87655 8.81598,-2.56096 3.46091,0.49255 4.03174,1.73671 4.03174,8.7875 0,6.89843 0.73671,8.59564 4.60063,10.5988 5.57414,2.88978 12.61105,1.48894 17.18931,-3.4219 3.13071,-3.35813 3.71845,-3.41654 7.75634,-0.77082 5.83856,3.82557 7.65279,3.64813 17.77062,-1.738 6.41364,-3.41424 11.4483,-4.60064 19.52356,-4.60064 10.65611,0 10.98207,0.15233 15.75256,7.36102 5.53023,8.35672 9.17805,9.0696 23.76375,4.64404 6.76939,-2.05395 8.97726,-2.15641 9.4848,-0.44014 2.89084,9.77555 1.72483,9.30722 20.15772,8.0964 15.58947,-1.02403 17.51557,-0.79023 20.48048,2.48596 4.19817,4.63892 12.7818,4.69176 15.99906,0.0985 2.16178,-3.0864 3.56651,-3.31181 11.45468,-1.83814 4.94492,0.92381 9.24535,1.93425 9.55652,2.24542 1.88965,1.88965 5.40669,25.29318 4.10872,27.34075 -0.85539,1.3494 -1.56795,4.66498 -1.58345,7.36794 -0.0232,4.04463 -1.08676,5.14246 -6.009,6.20247 -7.5149,1.61834 -15.87702,5.75078 -20.88533,10.32123 -3.15962,2.88338 -4.77301,3.17925 -8.86101,1.625 -12.28646,-4.6713 -19.29448,1.0206 -25.0496,20.34523 -2.37121,7.96206 -4.87587,12.86608 -6.89913,13.50824 -1.74705,0.55449 -4.35171,3.70926 -5.78814,7.0106 -2.47615,5.69094 -5.12984,8.67191 -7.77568,8.73463 -0.65375,0.0155 -1.02501,-3.07725 -0.82501,-6.87277 0.43011,-8.16279 11.85227,-28.58087 23.1855,-41.44604 9.95077,-11.29584 8.28347,-14.23385 -8.05533,-14.19454 -15.13455,0.0364 -20.32171,2.80877 -21.03225,11.24102 l -0.55471,6.58289 -16.92771,-0.18431 c -15.98688,-0.17406 -17.70789,0.19707 -30.96481,6.67764 -17.0792,8.34907 -25.52838,17.13859 -25.52838,26.5567 0,6.22504 0.29249,6.54864 5.0607,5.59892 2.97348,-0.59224 6.53399,0.0719 8.63287,1.61023 1.9647,1.44 5.27716,2.6223 7.36102,2.62733 3.4369,0.008 3.31485,0.39291 -1.31388,4.14057 -2.8065,2.27229 -9.84548,13.19957 -15.64217,24.28285 -8.78387,16.79474 -11.41534,20.37882 -15.79787,21.51672 -6.78943,1.76283 -12.22398,6.7301 -12.22398,11.17294 0,1.92715 -0.74135,3.04573 -1.64743,2.48574 -2.11258,-1.30564 -3.87334,3.29732 -3.87334,10.12569 v 5.3432 l -5.98082,-3.64658 c -3.28946,-2.00562 -8.6722,-3.64968 -11.96166,-3.65345 -5.13181,-0.006 -5.98083,0.63702 -5.98083,4.52901 0,2.71158 -1.54051,5.36033 -3.83027,6.58578 -2.10665,1.12745 -4.93902,4.67606 -6.29417,7.88584 -2.0957,4.96379 -2.06482,6.27948 0.20657,8.80398 1.46877,1.63243 3.13804,7.01518 3.7095,11.96165 1.31131,11.3506 -4.7527,28.56781 -12.94831,36.76342 -6.70799,6.70798 -21.72544,12.65243 -36.51213,14.45279 -10.25697,1.24885 -16.10576,4.51028 -16.09674,8.97591 0.002,1.19287 3.33435,7.071 7.40432,13.0625 9.96858,14.67504 10.62968,18.10518 4.82007,25.0095 l -4.71603,5.60468 -3.03936,-4.63867 c -3.89878,-5.95028 -16.01414,-9.90882 -20.05716,-6.55341 -1.55032,1.28667 -2.81877,1.51805 -2.81877,0.51419 0,-1.00386 -3.13791,-5.86692 -6.97311,-10.80679 -3.84928,-4.95799 -8.02013,-13.1036 -9.31027,-18.18287 -2.68898,-10.58642 -10.06395,-19.32268 -16.3118,-19.32268 -2.6568,0 -8.77178,4.04779 -15.98539,10.58147 -6.42544,5.8198 -15.09975,13.3196 -19.27625,16.66619 -7.1444,5.72479 -7.59363,6.65087 -7.59363,15.65433 0,5.26326 0.77032,12.25547 1.71179,15.53825 1.44523,5.03918 1.2303,5.9726 -1.38019,5.9938 -1.70058,0.0138 -4.79714,0.48312 -6.88123,1.04289 -2.81502,0.75609 -4.33842,-0.18754 -5.92521,-3.67017 z"
       id="path2"
       transform="scale(0.26458333)" /><path
       style="fill:#ffffff;stroke:#000000;stroke-width:0.776018"
       d="m 473.3191,757.42816 c -1.94938,-1.30176 -7.11639,-6.03752 -11.71269,-10.73513 -3.76789,-3.85093 -4.38832,-4.7511 -6.01884,-8.73248 -1.4932,-3.64608 -3.78867,-6.20732 -9.9669,-11.12087 -4.50031,-3.57911 -6.9964,-5.70769 -8.4159,-7.17683 -2.07854,-2.15121 -0.98485,-1.61136 4.63153,2.28615 5.5379,3.84304 9.57072,6.09389 11.68725,6.52303 0.9805,0.1988 1.38594,0.20871 2.66272,0.065 2.04372,-0.22997 3.19033,-0.63521 3.95174,-1.39662 1.73092,-1.73092 1.16242,-4.31392 -2.28344,-10.37505 -2.51775,-4.42863 -4.18923,-8.27852 -4.95518,-11.41321 -0.92741,-3.79546 -1.69309,-8.9441 -1.37712,-9.26008 0.1618,-0.16179 1.10226,1.39335 3.11664,5.15365 2.62124,4.89312 5.48931,9.42113 10.0261,15.82885 2.67474,3.77779 2.74242,3.89137 2.6651,4.47308 -0.0436,0.32827 -0.34569,3.07171 -0.67124,6.09653 -0.32555,3.02482 -0.68809,6.18763 -0.80564,7.02845 -0.31464,2.25062 -0.28842,2.62202 0.24465,3.46556 0.25211,0.39893 1.33292,1.61628 2.4018,2.70522 2.48247,2.52904 3.37417,3.89418 7.07017,10.824 l 0.72777,1.36455 -0.61064,2.00858 c -0.67029,2.2048 -1.00472,2.96187 -1.30837,2.96187 -0.10973,0 -0.58651,-0.25843 -1.05951,-0.57429 z"
       id="path3"
       transform="scale(0.26458333)" /></g></svg>
