<?xml version="1.0" encoding="UTF-8" standalone="no"?>
<!-- Created with Inkscape (http://www.inkscape.org/) -->

<svg
   width="210mm"
   height="297mm"
   viewBox="0 0 210 297"
   version="1.1"
   id="svg1"
   xml:space="preserve"
   inkscape:version="1.3.2 (091e20e, 2023-11-25)"
   sodipodi:docname="Egypt.svg"
   xmlns:inkscape="http://www.inkscape.org/namespaces/inkscape"
   xmlns:sodipodi="http://sodipodi.sourceforge.net/DTD/sodipodi-0.dtd"
   xmlns="http://www.w3.org/2000/svg"
   xmlns:svg="http://www.w3.org/2000/svg"><sodipodi:namedview
     id="namedview1"
     pagecolor="#ffffff"
     bordercolor="#000000"
     borderopacity="0.25"
     inkscape:showpageshadow="2"
     inkscape:pageopacity="0.0"
     inkscape:pagecheckerboard="0"
     inkscape:deskcolor="#d1d1d1"
     inkscape:document-units="mm"
     inkscape:zoom="0.70101891"
     inkscape:cx="360.90324"
     inkscape:cy="636.93003"
     inkscape:window-width="1392"
     inkscape:window-height="1212"
     inkscape:window-x="0"
     inkscape:window-y="25"
     inkscape:window-maximized="0"
     inkscape:current-layer="layer1" /><defs
     id="defs1" /><g
     inkscape:label="Egypt Trace line"
     inkscape:groupmode="layer"
     id="layer1"><path
       style="fill:#050505;stroke:none"
       d="m 10.064285,50.664749 v 0.156144 H 9.5958521 l 0.1561442,0.936865 H 9.4397078 l 0.3122885,3.747463 -0.3122885,-0.156145 c 0,1.869976 0.3118329,5.216442 -0.9899982,6.699622 -1.4365714,1.636694 -4.8747779,1.758853 -4.9349298,4.38662 -0.079229,3.461153 4.6890314,4.043892 4.8257734,7.026492 0.5069174,11.05685 0.3184332,22.180194 0.3184332,33.25873 0,12.33471 0.1561443,24.66361 0.1561443,37.00618 0,7.23725 -0.1561443,14.47828 -0.1561443,21.70405 v 16.08286 9.68095 c 0,12.9655 -0.1561442,25.92383 -0.1561442,38.87992 l 190.4960078,1.87373 v 0.15614 l 8.39103,-0.32694 c -2.14737,-3.68493 -9.37881,-6.83946 -12.60693,-9.39859 -5.20033,-4.12261 -8.66755,-10.51461 -10.92178,-16.66285 -0.83669,-2.28201 -1.5311,-4.62535 -1.92047,-7.02649 -0.12923,-0.79688 -0.38051,-2.2103 0.0428,-2.9459 0.91386,-1.58822 6.34618,0.59156 5.51495,-2.67529 -0.61506,-2.4173 -3.52108,-4.29055 -5.20699,-5.93577 -3.15584,-3.07971 -6.30165,-6.6772 -8.05275,-10.77167 -1.78893,-4.18294 -1.52336,-8.87338 -3.16013,-13.11611 -1.28173,-3.32242 -2.98285,-6.54579 -5.16481,-9.36866 -1.76863,-2.28814 -3.99177,-4.12757 -5.09949,-6.87035 -1.93392,-4.78847 -0.30013,-9.85322 -1.65639,-14.67756 -1.16711,-4.15153 -4.91316,-6.33319 -6.80577,-9.99323 -1.64048,-3.17247 -0.85525,-6.49748 -2.14096,-9.68094 -1.65063,-4.08705 -5.67261,-5.51019 -7.8201,-9.05637 -1.51793,-2.50656 -0.75083,-5.853169 -2.62217,-8.119501 -1.43182,-1.734045 -4.52799,-2.046925 -5.48034,-4.05975 -0.48394,-1.022819 0.14339,-2.129353 0.41867,-3.122885 0.33865,-1.222231 0.39788,-2.532255 -6.1e-4,-3.747462 -0.76854,-2.343689 -3.9921,-3.516353 -3.9342,-6.089626 0.042,-1.868375 1.51662,-3.762844 2.95819,-4.815655 0.46907,-0.342576 1.51526,-1.184253 2.07011,-0.585179 0.56364,0.608585 0.26355,2.136919 0.27265,2.902526 0.0206,1.728851 0.39156,3.562612 1.07253,5.15276 0.76904,1.795811 1.84529,3.349325 3.29891,4.6577 1.55015,1.395253 3.36408,2.473282 4.32987,4.398667 2.30591,4.597039 1.45202,10.125335 3.86602,14.677555 0.96857,1.82651 2.36918,3.00632 3.98336,4.23627 2.47385,1.88497 4.06429,4.76985 6.87035,6.2595 1.33216,0.7072 3.03982,1.17826 4.36529,0.17855 1.2494,-0.94234 1.35488,-2.69105 1.52361,-4.11626 0.44118,-3.72656 0.1602,-7.49975 0.71157,-11.24238 0.40418,-2.743525 1.03299,-5.536539 2.0577,-8.119504 1.6075,-4.051984 3.68415,-7.71273 3.82662,-12.179252 0.13091,-4.103609 -1.78639,-7.282437 -3.29397,-10.930098 -1.26663,-3.064693 -2.06662,-6.301674 -2.80745,-9.524799 -0.9707,-4.223233 -1.38149,-8.54217 -2.12844,-12.803829 -0.24782,-1.413894 -0.58078,-3.673793 -2.22505,-4.125891 -1.90096,-0.522679 -4.2169,2.870542 -5.77734,3.769268 -3.56352,2.052366 -7.81608,2.557758 -11.86697,2.380361 -5.43269,-0.237914 -9.29122,-2.775525 -14.05298,-5.024692 -7.49236,-3.538959 -17.07213,-7.412716 -25.45152,-5.11687 -4.713736,1.291507 -7.169691,4.977194 -10.773952,7.948547 -2.79917,2.307645 -6.054555,3.66209 -9.212511,5.370242 -2.054636,1.111365 -4.291747,2.703724 -6.714204,2.760105 -1.882532,0.04382 -3.350783,-0.972642 -4.996617,-1.749513 -1.660162,-0.783638 -3.430485,-1.35799 -5.15276,-1.987352 -5.737983,-2.096816 -11.515168,-4.036954 -17.17587,-6.348297 -2.540566,-1.037352 -4.953292,-2.365093 -7.494925,-3.402885 -5.068656,-2.069616 -10.154724,-2.825482 -15.614427,-2.586387 -2.7107,0.11871 -5.407618,0.705871 -8.119502,0.772297 -1.105887,0.02708 -2.228321,-0.04498 -3.279029,-0.419276 -0.591654,-0.210752 -1.231569,-0.766311 -1.873731,-0.749633 -0.896867,0.02329 -1.948418,0.999708 -2.654453,1.487468 -3.4283344,2.368449 -4.7931461,5.204167 -2.5062601,8.896239 0.4215717,0.680615 0.4876506,1.930665 1.2571061,2.18602 M 146.69052,49.415595 c 1.04785,0.503046 2.33528,0.214603 3.43517,-1.15e-4 2.73096,-0.533143 5.40599,-1.406575 7.65107,-3.107103 0.77045,-0.583577 2.78231,-3.416227 3.8165,-2.443852 0.9629,0.905359 1.01893,2.924503 1.21855,4.145771 0.57869,3.540388 1.00622,7.097702 1.71036,10.61781 0.73337,3.666302 1.74254,7.289203 3.10133,10.773953 1.61237,4.135097 3.30849,7.118554 3.1071,11.710819 -0.14475,3.300644 -1.87423,6.248315 -3.13674,9.212511 -1.08524,2.547942 -1.82915,5.248273 -2.3529,7.963357 -0.77308,4.007594 -0.54439,8.011704 -1.0177,12.023104 -0.15929,1.35008 0.17875,3.28567 -1.03289,4.26228 -1.104,0.88985 -2.7008,0.0952 -3.69602,-0.57083 -2.73496,-1.83036 -4.7933,-4.63491 -7.33878,-6.7306 -5.31777,-4.37811 -3.47993,-12.086692 -6.3989,-17.728032 -1.76673,-3.414445 -5.77607,-4.811386 -7.36119,-8.43179 -0.81866,-1.869805 -1.01265,-3.774528 -1.20326,-5.777337 -0.081,-0.851093 0.14855,-1.841881 -0.16601,-2.653843 -0.51175,-1.320936 -1.94163,-1.209317 -2.98338,-0.64013 -2.57999,1.409644 -5.72214,5.365953 -3.9765,8.446733 1.07494,1.897099 3.15919,2.708413 3.6618,4.996616 0.54127,2.464161 -1.69155,4.700148 -0.15903,7.025891 1.32998,2.018363 4.23928,1.938165 5.55336,4.060475 1.44001,2.325686 0.87515,5.374697 2.3865,7.807087 1.886,3.03537 5.41455,4.4062 7.13505,7.65107 1.73742,3.27677 0.86022,7.07792 2.46855,10.46167 1.92783,4.05592 6.05338,6.36077 7.14842,10.93009 1.04311,4.35266 -0.26447,8.72175 1.18193,13.11612 1.0392,3.15725 3.2005,5.13046 5.23468,7.65107 1.65221,2.0473 3.00103,4.34977 4.14505,6.7142 2.40373,4.96798 2.07783,10.4765 4.16639,15.45828 1.79347,4.27788 4.8026,7.83562 8.05323,11.08624 1.45381,1.45382 4.61348,3.59242 5.18613,5.61819 0.21852,0.77298 -0.59,0.77992 -1.12638,0.78361 -1.35496,0.009 -3.37776,-0.15715 -4.14518,1.25602 -1.28181,2.36038 0.36368,6.70801 1.12688,9.04962 2.18652,6.7086 5.78794,13.99044 11.29395,18.56851 2.48273,2.06432 5.34144,3.37626 8.1195,4.96555 1.32505,0.75804 2.90424,1.74187 3.27903,3.32275 l -8.90023,-0.15614 -14.67756,-0.15615 -41.84666,-0.46904 -129.5997437,-1.40469 0.1555421,-35.91318 6.022e-4,-11.86696 0,-16.239 v -21.70405 c 0,-15.09339 0.023844,-30.20166 -0.1555421,-45.281837 C 9.6527074,89.422909 10.15497,80.887468 9.4250091,72.524944 9.197561,69.919268 4.7667893,69.509218 4.6795967,66.591463 4.6265581,64.816618 8.3700441,63.904855 9.4064548,62.687742 10.849094,60.993561 10.532718,57.913277 10.532718,55.817509 l -0.468433,0.156144 -0.3122887,-0.468432 0.1561443,-0.156145 0.6245774,0.312289 -0.312289,-1.561443 h 0.156144 v 1.249154 h 0.156145 c 0,-1.069584 0.350116,-2.873115 -0.312289,-3.747462 1.296672,-1.965946 -0.7855638,-3.816023 -1.3889127,-5.621193 -0.5537486,-1.656764 0.3666588,-3.095628 1.5456597,-4.20179 0.839515,-0.78764 2.267751,-2.126855 3.434571,-2.349769 0.841272,-0.160719 2.092254,0.703374 2.966741,0.857955 1.652076,0.292027 3.499942,0.0673 5.152761,-0.109637 4.396814,-0.470701 8.877079,-0.982935 13.272263,-0.190491 4.923881,0.887765 9.205207,3.173396 13.740696,5.146737 4.497439,1.956778 9.138556,3.545592 13.740695,5.227345 3.234504,1.181984 6.512767,2.224236 9.680945,3.583121 1.658399,0.711303 3.242733,1.982758 5.152761,1.844817 2.938607,-0.212221 5.620407,-1.931352 8.119502,-3.3401 2.697758,-1.520729 5.482089,-2.627329 7.963357,-4.540001 2.628054,-2.025815 4.580572,-4.847448 7.338782,-6.686965 3.1372,-2.09228 7.12659,-2.347406 10.77395,-2.097598 6.51093,0.445942 13.27833,3.341339 19.0496,6.226977 1.78805,0.894017 3.45971,2.046305 5.30891,2.813608 2.47856,1.028451 5.13433,1.499896 7.80721,1.56554 1.06202,0.02607 1.84769,0.275197 2.8106,-0.314575 m 0.31229,-0.10409 c 0.12074,0 0.025,0.07771 -0.0521,0.05204 l 0.0521,-0.05204 m -136.678284,1.613478 -0.05205,0.104109 0.05205,-0.104109 m -0.260241,0.05205 v 0.312289 H 9.7519963 V 50.977037 H 10.064285 M 9.9081406,51.44547 9.7519963,51.601614 9.9081406,51.44547 m -0.1561443,2.498308 0.1561443,0.780721 H 9.7519963 v -0.780721"
       id="path1"
       inkscape:label="Outline"
       sodipodi:nodetypes="cccccccsssssccsccccssscsssssssssssssscsscsssssssssssssssssssssssssssscsssccsssssssssssssssssssssssssssssssscssssccccccccsssssccccccccccsssscssssssssssssccccccccccccccccccc" /><path
       style="fill:#ffffff;stroke-width:102.438"
       d="M 701.83556,871.35719 C 693.98984,871.16862 552.44587,869.68552 387.2934,868.06142 222.14094,866.4373 75.94303,864.73219 62.409158,864.27228 l -24.607039,-0.8362 -0.120372,-288.35529 c -0.0662,-158.59541 -0.584002,-292.06932 -1.15066,-296.60869 -0.97371,-7.80017 -1.515448,-8.70375 -9.865093,-16.45422 -4.859143,-4.51045 -8.834806,-8.86904 -8.834806,-9.68575 0,-1.8942 4.735272,-6.05654 12.594128,-11.07035 9.108573,-5.81109 10.300669,-9.88839 10.143425,-34.69327 -0.121608,-19.18357 -0.42239,-21.50974 -3.589419,-27.75957 -1.901178,-3.75179 -3.456689,-8.12478 -3.456689,-9.71775 0,-3.32746 8.779073,-13.59944 14.727579,-17.23204 3.719422,-2.27135 4.561072,-2.29013 10.958012,-0.24447 6.123032,1.95807 9.57327,1.99659 29.657272,0.33113 38.277654,-3.17417 48.308874,-1.42116 85.880144,15.00802 20.54986,8.98605 39.24479,16.19143 72.038,27.76482 9.41487,3.32269 22.79942,8.59624 29.74342,11.71899 18.11067,8.14443 18.79701,8.00565 54.26907,-10.97323 18.5191,-9.90841 23.11601,-13.12544 35.80769,-25.05907 8.00854,-7.53021 17.54178,-15.09242 21.18495,-16.80492 24.01496,-11.28836 62.11483,-4.14642 108.8098,20.39675 22.04527,11.58712 28.95985,13.63533 48.32253,14.31391 24.97191,0.87517 41.56108,-3.84051 54.76532,-15.56774 4.06034,-3.60617 7.92435,-6.55667 8.58666,-6.55667 3.12172,0 4.80686,5.9082 8.69367,30.48059 4.83384,30.55946 8.0685,44.09172 15.15595,63.40525 2.78823,7.59799 6.60178,17.98704 8.47457,23.08676 5.2877,14.39878 4.79548,27.35588 -1.62575,42.79485 -13.92804,33.48807 -15.55745,40.36302 -17.77598,75.00235 -0.85032,13.27648 -2.20394,25.84321 -3.00804,27.92608 -3.52019,9.11839 -11.85128,5.15714 -33.98405,-16.15871 -10.72145,-10.32571 -16.72682,-17.30147 -18.66316,-21.67888 -1.57026,-3.54984 -4.69946,-15.787 -6.95379,-27.19369 -4.86469,-24.61494 -7.3337,-29.4767 -21.25094,-41.84561 -12.34353,-10.9703 -15.58085,-17.34869 -17.65235,-34.78007 -0.87181,-7.3362 -2.20825,-14.14095 -2.96986,-15.12166 -5.09523,-6.56113 -20.34025,3.71111 -26.1525,17.62179 -3.15374,7.54797 -1.56908,13.39985 5.86885,21.67261 8.60208,9.56759 9.4041,12.18391 7.10793,23.18724 -2.66424,12.76701 -0.84305,16.70678 10.52322,22.76495 10.46106,5.57568 12.43027,8.36532 15.20021,21.53318 3.09891,14.73173 5.33268,18.4624 17.78885,29.70968 13.10613,11.83416 16.48921,17.95734 18.59148,33.64948 2.38535,17.80523 4.68231,22.97386 17.06085,38.39054 13.27011,16.52705 15.73948,22.65908 15.8812,39.43682 0.14322,16.95461 2.19029,31.89921 5.32292,38.85978 1.47577,3.27913 7.6195,12.0603 13.65273,19.51374 6.03324,7.45343 13.71859,19.02576 17.07857,25.71627 5.88118,11.71085 7.07431,15.70462 13.6369,45.64658 5.21464,23.79193 14.62272,38.68307 39.941,63.21872 8.96797,8.69078 14.31965,14.94294 14.04197,16.4047 -0.33478,1.76232 -2.3063,2.47002 -7.76582,2.78761 -8.4517,0.49169 -11.62571,3.11276 -12.84143,10.60435 -1.72392,10.62328 10.5649,46.68132 23.40882,68.68656 10.10854,17.31877 27.14781,33.70539 45.99054,44.22895 14.66736,8.19167 21.39742,13.03109 21.39742,15.38639 0,1.05692 -31.95045,1.1625 -70.6115,0.23332 z"
       id="path2"
       transform="scale(0.26458333)"
       inkscape:label="Fill trace" /></g></svg>
