<?xml version="1.0" encoding="UTF-8" standalone="no"?>
<!-- Created with Inkscape (http://www.inkscape.org/) -->

<svg
   width="210mm"
   height="297mm"
   viewBox="0 0 210 297"
   version="1.1"
   id="svg1"
   xml:space="preserve"
   inkscape:version="1.4 (e7c3feb1, 2024-10-09)"
   sodipodi:docname="North america.svg"
   xmlns:inkscape="http://www.inkscape.org/namespaces/inkscape"
   xmlns:sodipodi="http://sodipodi.sourceforge.net/DTD/sodipodi-0.dtd"
   xmlns="http://www.w3.org/2000/svg"
   xmlns:svg="http://www.w3.org/2000/svg"><sodipodi:namedview
     id="namedview1"
     pagecolor="#ffffff"
     bordercolor="#000000"
     borderopacity="0.25"
     inkscape:showpageshadow="2"
     inkscape:pageopacity="0.0"
     inkscape:pagecheckerboard="0"
     inkscape:deskcolor="#d1d1d1"
     inkscape:document-units="mm"
     inkscape:zoom="0.4268286"
     inkscape:cx="658.34388"
     inkscape:cy="736.82972"
     inkscape:window-width="1104"
     inkscape:window-height="1040"
     inkscape:window-x="0"
     inkscape:window-y="39"
     inkscape:window-maximized="0"
     inkscape:current-layer="layer1" /><defs
     id="defs1" /><g
     inkscape:label="North America trace line"
     inkscape:groupmode="layer"
     id="layer1"><path
       style="fill:#181818;stroke:none"
       d="m 147.63956,40.596562 c -3.18085,-0.945391 -3.85651,-5.478955 -7.63326,-4.516729 -2.17219,0.553423 -3.40481,2.653139 -4.87119,4.168428 -3.87802,4.007397 -7.00663,10.430514 -7.50556,16.308765 -0.14367,1.692648 0.88604,3.208551 0.78362,4.857532 -0.14204,2.286625 -3.10179,3.370218 -2.4285,5.89174 0.60546,2.267524 2.91708,1.614018 4.65353,1.394559 v 0.346966 c -1.86041,0.877963 -3.88727,4.34962 -0.68724,5.08883 3.71997,0.859327 5.84946,-3.665915 9.70837,-0.740227 3.45728,2.621182 4.91958,9.673177 9.71507,9.183097 -3.27322,3.8704 1.4614,8.29873 3.12269,3.46966 2.05473,1.19543 -0.51284,4.46548 0.83878,6.93906 0.93442,1.71006 2.58939,2.65761 3.95477,3.96925 2.97072,2.85379 5.76917,6.953937 10.12602,7.976207 1.52563,0.35797 2.9877,-0.44015 4.51056,-0.47628 1.17183,-0.0278 2.99033,0.81581 4.0533,0.25809 1.31298,-0.6889 0.65663,-2.75619 0.16625,-3.74676 -1.95444,-3.947947 -3.76369,-6.626977 -4.5989,-11.102927 -0.40837,-2.18847 1.34808,-3.57627 1.96025,-5.55147 0.63432,-2.04667 -0.0828,-3.92144 0.31269,-5.898431 0.36517,-1.825472 1.78707,-3.464203 2.45501,-5.204499 0.68884,-1.794765 1.55139,-5.578975 -0.36303,-6.992339 -1.14703,-0.846811 -3.80082,0.497558 -5.37343,0.05301 v -0.346967 l 4.51056,-0.693933 c -0.87524,-2.567434 -3.3938,-3.546603 -5.02084,-5.565125 -1.63686,-2.03072 -1.7046,-4.943745 -3.4429,-6.812693 -3.30131,-3.54944 -8.37477,-5.447062 -11.58643,-9.139194 -1.73996,-2.000247 -2.33124,-8.618554 -5.60635,-8.666944 -2.03958,-0.03013 -1.75014,4.208156 -1.75384,5.549327 m 1.73484,-4.857533 5.23688,9.007473 11.22395,8.86747 3.15295,6.407637 4.67388,4.862615 c -0.91553,0.0026 -3.8596,-0.206223 -3.59764,1.406333 0.54402,3.34885 5.50612,-1.124571 5.95572,2.758876 0.41261,3.563904 -2.45295,5.85504 -3.20033,9.019522 -0.49512,2.096395 0.41583,4.096635 -0.39382,6.245395 -0.62394,1.65591 -2.18095,2.97648 -2.03629,4.85754 0.19481,2.5331 0.97537,6.1018 2.19853,8.32719 1.2915,2.34971 3.08737,3.755987 3.15563,6.592367 -2.78903,-0.63754 -5.40637,0.34443 -7.98024,-0.15903 -4.22071,-0.82558 -6.92473,-5.040127 -9.75121,-7.717057 -1.47414,-1.39615 -3.15926,-2.31319 -4.00002,-4.26774 -0.91811,-2.1344 1.35451,-3.60677 0.72392,-5.2883 -0.2656,-0.70827 -1.09862,-1.37094 -1.87886,-1.29121 -1.19726,0.12236 -1.55488,1.84908 -2.74602,1.84834 -2.6837,-0.002 0.12937,-3.77114 0.9978,-4.28996 v -0.34697 c -1.3072,-0.59921 -3.30145,-0.53188 -4.32691,-1.50298 -3.18067,-3.012074 -3.80526,-7.934155 -8.51085,-9.610115 -2.12744,-0.757719 -7.5094,2.739647 -8.65784,1.18734 -1.2236,-1.653894 2.04285,-2.721096 1.5584,-4.201888 -0.56524,-1.72776 -3.70112,0.628835 -4.17966,-1.53725 -0.43759,-1.980764 2.23644,-3.224583 2.4253,-5.153102 0.172,-1.756349 -0.8977,-3.426613 -0.78738,-5.204499 0.42912,-6.915805 4.89101,-14.373278 10.0192,-18.630989 4.61509,-3.831711 5.7017,5.727639 9.22674,3.091908 1.35108,-1.010214 0.79044,-3.806235 1.49817,-5.278916 m -38.16633,22.205863 c -4.81214,0.116305 -4.25501,4.767466 -2.42876,7.980232 -1.51344,0.25258 -1.68727,0.97991 -1.73484,2.428766 h -0.34696 c -0.5896,-2.899534 -5.78662,-6.489783 -5.13892,-1.387866 0.31608,2.489735 4.79444,6.661488 5.48588,2.428766 h 0.34697 c 0.34272,1.143524 3.63574,4.950776 4.20457,2.030127 0.23561,-1.209766 -1.2629,-2.733717 -1.7758,-3.76496 1.09966,0.835439 2.13006,1.47338 3.46966,1.851286 2.17971,0.614921 3.61524,3.029435 0.67868,4.13122 -2.55344,0.958033 -6.07528,-3.105673 -6.23014,1.650759 h -0.34697 c -1.67574,-2.870797 -6.1899,-2.248929 -5.89843,1.387867 h -0.34697 c -1.27753,-2.61737 -3.63617,-5.521881 -4.1636,-0.693933 -1.219379,-1.481555 -1.747077,-2.962961 -3.81663,-3.1227 0.263523,-0.566955 0.56175,-1.134715 0.72365,-1.743134 0.514599,-1.933856 -1.055703,-2.8435 -2.80545,-2.387535 -2.905909,0.757274 -7.001121,6.148133 -1.736442,6.507763 0.71735,0.049 1.394246,-0.13168 2.083409,-0.295294 -1.409616,2.31191 -0.685171,4.011695 2.081799,4.163599 -0.813266,3.649715 5.740894,2.377515 7.423904,1.031515 0.87262,-0.69787 0.55622,-2.478085 0.55633,-3.460281 h 0.34696 c 0.98522,2.685841 2.90105,3.963391 5.55147,4.869581 1.31754,0.45048 3.4127,0.41592 3.58692,-1.40661 0.17714,-1.852999 -2.43334,-3.32803 -3.23995,-4.850838 1.00321,0.951151 2.72634,1.764905 3.46029,2.910928 0.89211,1.39299 0.23492,2.77904 2.10643,3.54169 2.48911,1.01432 6.29797,0.7337 8.6573,-0.49715 1.06801,-0.55718 2.50361,-1.72544 1.72011,-3.083082 -1.07455,-1.861939 -5.13449,-1.137553 -6.923,-1.137553 1.80513,-1.134079 5.09805,-1.162795 6.38274,-2.854702 0.95456,-1.25714 -0.0875,-2.243085 0.0495,-3.537941 0.13647,-1.289266 1.2222,-2.321017 1.34905,-3.669388 0.11384,-1.210063 -0.79601,-2.172586 -0.72392,-3.322421 0.0742,-1.183232 1.29002,-2.205221 1.74233,-3.269945 0.82668,-1.946011 1.21113,-4.225203 1.92518,-6.245399 0.5937,-1.679687 0.88009,-3.648231 -0.74078,-4.859396 -4.30228,-3.21482 -8.90304,0.702765 -12.06592,3.310626 -1.8033,1.48687 -4.16393,2.727047 -3.46967,5.365403 m 4.51057,20.124063 7.2863,0.346967 c -0.89561,3.018228 -7.13314,3.803988 -9.60477,2.230128 -1.03419,-0.65855 -0.62138,-1.932208 -1.16083,-2.879081 -1.03494,-1.816556 -3.09384,-1.855289 -3.46003,-4.20858 1.53546,0.419965 3.22733,1.500339 4.85726,1.293628 1.93641,-0.245591 4.14518,-3.170856 2.8515,-5.031015 -0.86551,-1.244497 -2.62817,-1.09613 -3.8908,-1.652094 -2.42854,-1.069341 -5.62998,-5.647271 -3.80859,-8.378617 1.25762,-1.885953 4.27177,1.518254 6.23602,0.930334 -1.0662,-0.939334 -2.98792,-2.189358 -2.91575,-3.815299 0.0665,-1.498411 1.90016,-2.44719 2.91575,-3.284937 2.79916,-2.30901 6.64085,-6.097731 10.68181,-3.804054 1.99358,1.131581 1.03096,3.370007 0.37187,5.005858 -0.67513,1.675643 -0.70168,3.597449 -1.44382,5.204499 -0.5295,1.146595 -1.69589,2.088343 -1.90912,3.370599 -0.20745,1.247483 0.91502,2.273368 0.75229,3.568733 -0.1719,1.368277 -1.36818,2.455492 -1.42909,3.816632 -0.0405,0.90471 0.71562,1.783774 0.23264,2.670525 -1.40631,2.582004 -5.9346,0.63235 -6.56264,4.615774 M 102.88087,64.884224 c 1.98093,1.55182 3.068,2.997331 3.1227,5.551466 -2.45459,-0.731142 -4.20644,-2.962939 -3.1227,-5.551466 m -4.51725,1.303793 c -3.921579,0.20059 -4.682491,6.686244 -1.03421,6.316618 2.23629,-0.226574 4.20701,-6.478919 1.03421,-6.316618 m 11.10962,0.43104 0.34697,1.0409 h -0.34697 v -1.0409 m -10.409,0.346967 c -0.0888,1.938134 -0.58379,3.569961 -2.0818,4.857532 -1.660806,-2.646742 -0.856381,-4.009069 2.0818,-4.857532 m 9.3681,0.346966 2.42877,4.1636 c -1.92731,-0.407767 -3.18234,-2.227541 -2.42877,-4.1636 m -15.26653,2.428767 c -0.264011,1.533268 -3.319303,7.057966 -5.174512,3.706342 -1.354036,-2.446217 3.589179,-3.94431 5.174512,-3.706342 m -53.77982,9.021131 c 0.989336,-2.80358 -2.319813,-5.293612 -5.092858,-3.952886 -0.875181,0.423141 -0.60702,1.43416 -0.727399,2.218329 -0.480891,3.132592 0.66625,4.871192 4.085424,5.551192 l -1.0409,2.42876 c -3.045511,-0.97584 -9.2025,-3.00381 -9.368098,2.0818 -0.936534,-0.48726 -1.948189,-1.69963 -3.086289,-1.57312 -2.923847,0.32501 -0.275074,3.59065 1.698423,3.65492 0.06034,1.85317 0.615329,2.64365 2.428766,3.1227 v 0.69394 c -1.927234,0.76515 -3.225911,2.89824 -0.346967,3.1227 0.132105,1.73185 0.81848,2.26493 2.428767,2.77573 v 0.34697 c -2.559369,0.983907 -5.264325,0.69522 -7.980232,0.45807 -1.249013,-0.10906 -2.95172,-0.79026 -4.038038,0.14644 -1.919923,1.655487 2.123317,2.463417 2.997138,2.918967 3.401662,1.77334 6.526287,1.29652 10.062031,0.29315 -3.660586,5.02656 4.32458,5.32043 5.898432,0.69393 l -3.816632,-0.34696 v -0.34697 c 1.637566,-0.43257 2.298405,-1.06578 2.428766,-2.77573 l 4.510565,-1.040897 v 0.34696 c -6.394861,2.984417 0.555549,5.356327 4.163599,5.551467 v -2.42877 c 2.482337,3.02081 6.545032,6.80489 7.956672,10.409 1.530733,3.90816 0.859777,8.13615 2.085548,12.1425 0.463965,1.51644 1.722603,1.95906 2.507206,3.19659 0.84283,1.32936 1.450419,4.89962 1.615701,6.51981 0.203518,1.99498 -1.642998,3.1175 -1.477557,4.85886 0.315995,3.32601 3.671765,5.63836 3.575149,9.36677 -0.155276,5.99221 -4.463541,10.98038 -5.578503,16.6544 -0.730268,3.71633 1.037337,7.75459 1.490936,11.44989 0.170481,1.38887 0.962263,4.90993 1.912869,5.91423 1.408604,1.48817 3.482737,1.81573 4.489685,3.80217 1.409901,2.78137 1.077806,6.70869 1.625601,9.71373 0.441967,2.4245 4.00522,3.96918 0.614688,5.55147 0.877285,2.52732 3.592414,3.32693 4.905451,5.5528 0.848648,1.43863 -0.05899,2.70339 0.326086,4.16201 0.348899,1.32156 2.994244,4.72884 4.032952,5.68772 1.198526,1.1064 2.552551,-0.25995 2.704789,-1.52548 0.250007,-2.07824 -2.179215,-3.05827 -2.754582,-4.861 -2.00759,-6.29019 -4.861916,-12.12885 -6.091997,-18.73112 3.296135,1.91077 3.373998,4.76554 4.724206,7.98024 1.337777,3.18508 3.151935,6.34681 4.664238,9.3092 1.650278,3.23265 5.258659,5.75627 6.621547,9.08003 1.306668,3.18665 -1.124025,6.1001 0.857246,8.65917 2.551652,3.2958 5.819309,4.35925 9.155257,6.19239 3.941414,2.16585 8.177534,5.58101 12.837764,6.16294 2.12554,0.26543 3.70859,-1.94743 5.89843,-1.22536 2.56345,0.84525 3.84586,3.18577 5.89977,4.69502 1.40775,1.03446 2.90666,0.66812 4.50923,0.97479 3.00456,0.57494 5.60014,2.29533 8.3272,0.21658 0.10536,3.18051 3.03568,3.69369 4.67467,5.95866 0.81112,1.1209 -0.0932,2.56743 0.7531,3.57809 1.09137,1.30335 2.91876,0.30986 4.2806,0.86127 1.30215,0.52723 1.45699,2.02458 2.58431,2.57735 1.24649,0.61119 2.72328,-0.20898 4.01475,0.002 1.23671,0.20218 2.20013,1.0567 3.46966,1.24812 0.967,3.05158 5.67947,0.19828 2.77573,-2.42877 1.06394,-0.60878 2.33608,-2.54327 3.71276,-1.71851 1.12428,0.67357 0.92612,2.86707 2.55138,2.82286 4.63499,-0.12607 1.23774,-5.38603 -1.05964,-6.30538 -3.80017,-1.52069 -5.04767,2.31928 -7.98156,3.17251 -1.43647,0.41774 -3.67268,-0.73514 -4.8562,-1.48746 -5.82815,-3.70475 -1.52205,-9.24762 -4.22571,-14.14317 -2.59018,-4.69004 -10.65761,-1.61336 -14.51049,-0.73008 1.55499,-2.19887 2.01873,-3.94264 1.38787,-6.59237 2.63323,-0.83173 1.03879,-3.52371 1.72306,-5.55146 0.36694,-1.08739 1.5836,-2.82105 0.69474,-3.95291 -0.81971,-1.04378 -3.0952,-0.12268 -4.15263,0.041 -5.27945,0.8171 -6.3216,4.15909 -6.93933,9.11643 -3.1124,-1.07868 -6.21411,1.60597 -9.02114,0.1965 -7.78756,-3.9103 -6.08014,-11.1092 -5.26848,-17.8918 0.27548,-2.3021 -0.79408,-4.52658 0.95148,-6.4783 1.1985,-1.34007 4.63629,-3.78995 6.3988,-4.09105 1.60368,-0.27399 3.04271,1.48587 4.1636,-0.18661 2.15605,1.11372 4.91603,1.60364 7.2863,1.0409 l -2.42876,-3.81664 c 1.73479,-0.0802 3.46787,-0.49051 5.20449,-0.24281 2.75277,0.39261 5.15271,2.57906 7.2863,-0.10415 h 0.34697 c 0.66883,1.04443 1.84548,1.84417 2.41056,2.90584 0.43961,0.82595 0.0366,1.7771 0.30654,2.64562 0.57014,1.83433 4.20241,7.09965 6.57202,6.34553 1.61012,-0.51243 1.52034,-3.34655 1.20259,-4.61069 -0.86343,-3.43519 -6.21775,-8.58895 -4.92311,-12.13875 1.64395,-4.50758 7.70574,-6.71318 9.62189,-10.77471 1.19824,-2.53981 -2.38696,-4.31009 -1.87912,-6.72595 0.40523,-1.92775 1.76961,-7.43089 3.0927,-8.73842 1.20343,-1.18929 3.90467,-1.31229 4.736,-2.71335 0.8927,-1.50448 -1.32438,-3.32493 -0.81495,-5.05538 0.70664,-2.40037 3.73577,-4.08859 5.35041,-5.89844 0.61291,6.7314 9.68742,-3.36816 9.87971,-6.24539 0.0755,-1.12974 -0.71318,-3.16859 -2.17791,-2.8341 -2.12345,0.48491 -1.96555,4.56326 -4.92474,3.95772 -4.20104,-0.85965 -1.24463,-8.58222 -6.9321,-5.83123 -0.66055,0.31951 -1.18131,0.77766 -1.7434,1.23794 2.17168,-6.21036 11.19236,-4.38268 13.5317,-11.4499 h 0.34697 c -0.0205,2.4806 -1.77895,7.44902 -0.33733,9.60477 1.1642,1.74091 4.06201,0.005 5.54183,-0.30628 2.4788,-0.52168 8.8038,-0.71284 5.92118,-5.04493 -0.41309,-0.62082 -1.0765,-1.05556 -1.61195,-1.56243 -0.67481,-0.63879 -1.29848,-1.43181 -2.22877,-1.7035 -1.15462,-0.33721 -2.62116,0.33908 -3.8153,0.40024 -0.0469,-1.94182 -0.51011,-3.14822 -2.42876,-3.81663 0.82775,-6.13205 -7.746,-4.4563 -10.71848,-6.58193 -2.37309,-1.697 -4.64995,-5.24286 -6.87776,-7.39045 -0.71852,-0.69265 -2.13759,-2.44745 -3.31118,-1.61623 -1.0495,0.74333 -1.14548,4.87925 -1.64541,6.22051 l -2.77573,-0.34697 c -0.76894,-5.12975 -5.17684,-8.28704 -10.06203,-7.1021 -1.87479,0.45474 -2.98977,0.25266 -3.81664,2.24457 -3.35599,-5.33303 -3.40204,5.50761 -0.457,1.35172 0.2746,-0.38752 0.3402,-0.90956 0.457,-1.35172 h 0.34697 c 0.22951,1.77567 1.30937,3.49603 1.43043,5.2045 0.0937,1.32193 -0.90909,2.45299 -0.26531,3.78022 0.97602,2.01213 3.56391,2.17117 3.56391,4.89394 0,2.61755 -3.2087,3.55599 -3.21587,5.89977 -0.01,3.15141 2.84108,4.57298 1.60954,7.9789 -1.53416,-1.0814 -2.90521,-2.39148 -3.62628,-4.1636 -0.5252,-1.29073 -0.67889,-3.33645 -1.75626,-4.30121 -1.09983,-0.98488 -2.99973,-0.39474 -4.33253,-0.77773 -2.31939,-0.6665 -3.97556,-2.74757 -6.24539,-3.41719 -1.20665,-0.35598 -2.98339,0.23392 -3.95425,-0.73436 -0.7441,-0.74213 -0.48319,-1.99412 -0.9654,-2.88095 -0.64098,-1.17884 -2.1914,-1.68143 -2.21111,-3.16902 -0.0301,-2.27355 0.98529,-6.09234 2.48927,-7.80834 2.11618,-2.41452 6.02377,-4.5333 4.98845,-8.1382 l 1.0409,-0.34696 c 0.16451,1.48151 -1.33996,4.96184 -0.18151,5.90245 1.33992,1.08796 8.77078,-0.8632 8.72504,-2.44671 -0.0633,-2.18983 -4.07203,-3.95345 -5.42083,-5.53754 4.29038,-2.32053 3.1297,-8.916257 -1.0409,-10.755967 4.13267,-1.95825 3.91069,-0.69524 7.63327,1.0409 v 0.34697 c -6.01298,3.126697 4.5899,7.358407 1.38786,0.69393 4.11995,1.63546 1.17266,5.018007 2.77574,7.980227 -1.64171,0.53528 -6.12454,3.04285 -2.39102,4.59865 1.5833,0.65977 3.26312,-0.63413 4.81978,-0.0195 2.51847,0.99431 3.59201,2.97056 6.59237,3.04909 2.075,0.0543 7.69508,-0.56568 3.1227,-2.77065 v -0.34697 h 1.73483 c -0.0432,-4.77885 -4.48314,-5.34664 -6.93933,-8.67417 1.66028,0.29597 4.17466,2.38596 5.80072,1.83631 1.86386,-0.63003 1.70793,-6.111097 0.36543,-7.090067 -2.0842,-1.51984 -5.34895,0.0245 -7.37251,-1.88101 -1.06828,-1.00595 -0.24755,-2.70863 -1.33271,-3.83161 -2.25734,-2.33603 -6.58029,-2.65619 -9.2578,-4.57376 -1.55057,-1.11049 -2.9062,-3.31751 -4.85753,-3.7082 -2.11655,-0.4238 -6.86011,0.20181 -8.17808,1.9067 -3.07174,3.97352 -1.88277,11.39666 3.66752,11.44321 l -1.0409,6.592367 c -0.58365,-1.56659 -0.72691,-6.175697 -3.46967,-3.816637 h -0.34697 c -1.11933,-2.22686 -2.59275,-6.88402 -2.18273,-9.3681 0.28638,-1.735 2.52595,-4.12114 1.94071,-5.81918 -0.71675,-2.07962 -4.44949,-0.78642 -5.39886,0.40427 -1.2459,1.56258 -0.60451,4.91363 -0.60451,6.80278 h -0.34697 c -0.003,-1.17927 -0.1095,-2.30052 -0.24791,-3.46967 -0.10628,-0.89772 0.009,-1.88553 -0.24952,-2.75671 -0.49072,-1.65392 -2.58989,-1.95891 -3.62441,-0.60774 -2.36872,3.09377 -0.79351,9.17621 3.77487,8.91592 l 0.34697,3.81663 c -3.31008,-2.34371 -4.33302,2.58436 -1.38787,4.163597 l -2.4301,1.26338 -5.55013,-1.541 -8.609107,-0.13145 -1.452922,-3.754527 c 2.2431,1.23643 1.274573,3.12092 4.510565,3.12216 1.571409,6.1e-4 3.02611,-0.79146 4.510564,-0.78468 2.16542,0.01 8.23271,2.625987 6.78351,-3.01642 -0.49092,-1.91137 -2.85137,-2.42606 -3.2346,-4.52556 -0.37151,-2.03529 1.132,-5.98589 -0.53651,-7.46755 -1.57312,-1.39697 -3.04497,0.65289 -3.70633,1.91609 -1.129686,-0.70474 -1.655441,-0.79787 -2.428768,0.34696 l -2.081799,-1.0409 c -0.254073,-3.08561 -1.851138,-5.15964 -4.569465,-6.611632 -2.53841,-1.355889 -4.609145,-0.451498 -4.1047,2.448042 -1.272752,0.62017 -3.300465,2.25665 -3.497508,3.78558 -0.178767,1.38715 2.045369,4.52169 3.497508,4.48353 1.529584,-0.0402 2.366892,-1.51909 3.469666,-2.37068 -0.562862,1.21137 -0.497991,1.76416 0.693933,2.42876 v 0.34697 c -1.140998,0.63061 -1.483385,1.32531 -0.693933,2.42877 v 0.34696 c -1.241797,1.29878 -0.567765,2.47127 0.346967,3.81664 -3.399368,-1.6177 -4.85642,-6.52829 -9.021131,-5.55147 1.285316,-5.3215 -7.818904,-1.10246 -10.31396,-2.50454 -1.718389,-0.96563 -2.351342,-3.65541 -3.70847,-5.02352 -2.141672,-2.15901 -5.013417,-3.38637 -6.934778,-6.062531 -1.03748,-1.445066 -1.367494,-4.426556 -3.123504,-5.274913 -3.233991,-1.562388 -6.357548,-0.500438 -9.575047,-0.381507 -1.398536,0.05169 -2.732658,-1.343903 -4.051958,-0.270919 -2.316585,1.884068 1.979617,8.8447 -1.846473,7.721065 m 15.266529,-6.245399 c 1.578471,3.617695 3.661219,6.970274 6.656352,9.609854 0.852629,0.75141 2.065821,0.88025 2.869701,1.67111 1.531103,1.50631 2.205596,4.637 4.359302,5.39673 2.555761,0.90155 6.78368,-0.18547 9.361406,-0.71723 l 0.346967,3.1227 c 3.919977,-0.49235 4.185819,1.81401 6.944419,4.02813 0.882013,0.70792 2.484409,1.07237 3.094317,2.04325 0.705522,1.12308 -0.213429,2.357277 1.116936,3.265657 2.948649,2.01337 6.918811,-0.0617 10.009291,0.51082 3.12216,0.57838 5.82479,2.90393 8.3272,-0.13279 h 0.34696 l 0.34697,1.73483 c 1.66368,-0.25889 3.33749,-1.59059 3.27236,-3.469667 -0.0585,-1.68832 -1.7568,-2.67922 -2.32088,-4.1636 -0.74825,-1.969 0.0942,-3.95786 0.36383,-5.89843 0.48723,-3.50641 -0.34391,-6.20398 4.23615,-6.2454 -0.43903,2.2073 -2.01179,3.91547 -2.23547,6.2454 -0.33628,3.50294 1.79172,7.77089 3.27637,10.755967 h 0.69394 l 0.69393,-1.387867 h 0.69393 c 0.29646,1.03807 4.8e-4,4.102787 1.68075,4.092117 2.71493,-0.0172 0.75275,-5.271197 2.00336,-6.131887 0.97252,-0.66931 2.65503,0.39362 2.93075,1.36966 0.83407,2.952637 2.05429,4.639787 -0.0225,7.262477 l -7.2863,2.42876 c 0.56603,0.7359 1.7791,1.54873 1.93375,2.49971 0.29827,1.83416 -4.18412,5.27405 -5.75038,5.82749 0.14154,2.98213 -2.23068,5.96345 -1.998,9.0198 0.12162,1.59759 1.6143,1.97768 2.33666,3.19659 0.67962,1.14677 0.32995,2.61578 1.49281,3.53445 1.16206,0.91804 2.74668,0.17741 4.06696,0.62031 2.15104,0.72158 3.72234,2.62239 5.89843,3.36846 1.23223,0.42247 3.2393,-0.0497 4.2581,0.74106 1.44359,1.12051 3.14504,10.57651 6.74819,7.78238 2.99479,-2.32236 -1.13814,-5.60312 -1.04546,-8.10793 0.0861,-2.32735 3.30649,-3.38932 3.08817,-6.27645 -0.20885,-2.76186 -2.57327,-2.91394 -3.58264,-4.97159 -0.57828,-1.17887 0.51806,-2.46118 0.30653,-3.70258 -0.21937,-1.28742 -2.45156,-4.33265 -1.15574,-5.54183 0.62185,-0.58029 2.03948,-0.43781 2.83275,-0.68617 0.67127,-0.21017 1.3384,-0.58127 2.06681,-0.48698 1.9184,0.24833 2.56797,2.17718 4.87252,2.20441 0.50772,2.13757 1.20316,5.63543 3.81663,5.55147 l 0.34697,1.0409 c 2.80645,-1.37234 3.12085,-4.47406 3.1227,-7.2863 5.11379,2.58536 7.77835,11.59274 14.22563,10.06203 l -1.38787,5.2045 2.77573,-4.1636 c 5.1218,1.58647 3.80463,6.06147 0.45647,9.49394 -2.42229,2.48327 -6.26915,2.51931 -9.11537,4.18234 -3.00196,1.75403 -5.22381,8.30734 -5.21976,11.65229 2.69952,-3.2851 3.6613,-8.27132 8.67417,-8.3272 0.018,6.28207 6.31227,8.84061 8.67416,2.0818 2.95848,2.62019 -1.27469,5.20402 -2.9444,7.28629 -0.62813,0.78334 -1.60192,2.65638 -2.8448,2.45608 -1.40258,-0.22605 -0.34292,-2.75952 -0.10923,-3.49697 -2.17297,-0.18369 -2.58117,1.61457 -3.93068,2.96179 -3.4357,3.42983 -5.1752,4.7321 -3.00865,9.529 -4.86154,2.1657 -4.89983,3.31689 -6.49626,7.98023 -0.5091,1.48718 -1.8466,2.8497 -1.76053,4.51057 0.10405,2.00756 3.01308,4.16625 1.73885,6.145 -2.23864,3.4764 -9.80405,7.15505 -9.61226,11.89726 0.2271,5.61531 6.15141,8.86066 5.02727,14.91957 -5.60794,-1.34458 -4.5698,-8.47972 -8.67417,-11.26705 -1.32297,-0.89844 -2.12371,0.56152 -3.46993,0.53785 -2.94233,-0.0517 -5.18677,-1.57024 -8.32693,-1.11265 -0.80087,0.11671 -2.66419,0.23782 -2.85551,1.29952 -0.14286,0.79279 1.77306,2.14757 2.16158,2.90906 -6.55687,-0.33146 -12.51639,-2.89076 -17.47014,3.50607 -1.7736,2.29027 -0.60515,4.68153 -1.03207,7.2499 -1.03358,6.21804 -1.84879,9.81834 2.15168,15.26519 1.0497,1.42923 3.35324,3.753 5.24759,3.85679 2.02577,0.11099 4.06854,-1.09986 5.89844,-1.77365 0.96217,1.00604 1.90507,1.30934 2.80733,-0.0476 1.17737,-1.77081 0.80633,-4.05212 1.76508,-5.83554 1.32376,-2.46237 5.47558,-2.48063 7.91838,-2.79098 l -1.0409,7.98023 -1.38786,-0.34696 c -0.24188,1.69483 0.33722,3.57356 -0.20374,5.2045 -0.28767,0.86729 -1.46279,2.00543 -0.84733,2.95832 0.77751,1.20375 3.12682,0.11304 4.17377,-0.10951 2.87767,-0.61172 6.82319,-1.64798 9.25779,0.58792 1.12157,1.03004 0.77039,2.81726 0.95148,4.19653 0.56343,4.29121 -0.37841,7.64511 3.66939,10.53456 1.54399,1.10216 4.69559,2.79128 6.5921,1.88904 2.35987,-1.12268 3.76133,-4.31031 6.9396,-3.09968 2.19294,0.83532 3.88499,3.26175 1.0409,4.20778 -0.47166,-1.27044 -0.90171,-2.70356 -2.43038,-2.99714 -2.3053,-0.44271 -5.12769,2.54645 -3.12109,4.38501 v 0.69393 l -2.0818,1.0409 c -1.72655,-3.28477 -5.18246,-2.77781 -8.3272,-2.77573 -0.72186,-2.09995 -3.09477,-3.92002 -5.2045,-4.51057 l 0.34697,1.73483 -1.73483,-0.34696 c 0.93065,-3.64222 -1.47599,-4.34344 -3.79148,-6.6526 -1.3269,-1.32329 -1.83161,-4.34523 -3.84179,-2.02157 -2.94132,-0.57041 -7.45227,-0.82383 -10.06069,-2.14391 -2.6288,-1.33039 -3.8619,-4.31813 -6.94067,-5.18068 -2.20519,-0.6178 -3.77859,1.43431 -5.89843,1.21117 -2.26163,-0.23805 -3.89284,-1.61512 -5.89843,-2.4665 -5.175287,-2.19697 -14.426895,-5.65554 -16.307432,-11.54414 4.063812,-3.10788 -1.852938,-8.67044 -3.622803,-11.4499 -0.945962,-1.48558 -1.506818,-2.75485 -2.969562,-3.81663 0.453281,-2.60572 -1.091656,-2.81296 -2.156226,-4.87253 -1.652502,-3.19703 -2.38736,-7.4959 -4.333064,-10.39267 -0.5772,-0.85933 -3.184944,-3.74573 -4.198139,-1.9664 -0.875517,1.53754 0.445906,4.31757 0.945057,5.7817 1.569206,4.60286 3.394651,8.89098 4.787658,13.53144 0.493438,1.64375 4.565722,4.46739 1.485048,5.55172 l -3.347314,-5.21815 -0.187408,-3.80298 -4.792476,-5.2045 c 0.754315,-0.64884 1.592062,-1.30832 1.411696,-2.4301 -0.248249,-1.54399 -1.880441,-2.38355 -2.302407,-3.84635 -0.850538,-2.94851 -0.536375,-6.3639 -1.470049,-9.33704 -0.847494,-2.69872 -3.548874,-2.93935 -4.920985,-4.99273 -1.849433,-2.76772 -2.975571,-9.04575 -3.222025,-12.3556 -0.552216,-7.41627 5.189092,-13.50591 5.573685,-20.818 0.206176,-3.91994 -2.64292,-6.58349 -3.744079,-10.06203 l 0.346967,-0.34697 c 4.160528,2.03307 4.607726,7.84389 5.551465,11.79687 h 0.693933 c 1.431692,-6.01349 -2.919674,-8.51296 -4.653257,-13.5317 -0.930112,-2.69269 -0.69747,-6.02676 -1.773656,-8.66881 -0.631201,-1.54961 -2.320191,-2.1216 -2.756456,-3.82735 -1.108979,-4.33598 -0.477635,-8.73909 -2.547364,-12.8324 -1.353305,-2.67645 -4.032547,-4.10438 -5.621077,-6.59237 -0.600881,-0.94111 -1.115724,-2.71007 -2.416449,-2.90371 -1.081618,-0.16101 -1.476691,1.08953 -1.743669,1.86281 l -4.857522,-1.38785 c 0.575352,-0.80712 4.383571,-2.977427 4.29157,-3.424417 -0.425502,-2.06728 -4.60509,-0.46025 -5.67783,-0.079 -1.654365,0.588 -1.930337,2.353587 -3.491618,2.876397 -5.570798,1.86544 -9.316788,-0.3849 -14.552251,-1.10783 v -0.69393 c 2.833338,0.22548 6.61774,1.37047 9.368098,0.81441 2.643256,-0.53441 4.154339,-3.106427 0.693933,-3.590147 -0.221947,-1.40561 -0.746063,-1.95974 -2.081799,-2.42876 v -0.34697 c 3.45131,-2.02041 0.770956,-2.23963 0.111908,-4.58687 -0.347868,-1.23895 0.825168,-3.59827 1.62587,-4.52503 2.030814,-2.35051 5.337595,0.44155 7.615326,0.0503 3.418809,-0.58718 1.735481,-3.4843 0.01526,-4.60508 -0.812949,-0.52966 -1.608456,-1.0812 -2.429034,-1.59989 l 0.693933,-3.816632 4.510566,1.0409 c -0.499662,1.504785 0.09069,4.345662 2.389678,3.394442 2.652503,-1.097483 -1.103351,-6.068567 0.426747,-8.022541 0.630377,-0.805008 2.26976,0.340825 3.082007,0.350439 1.325264,0.01567 2.481828,-0.834803 3.816632,-0.831796 2.034366,0.0046 3.858468,0.994987 5.898432,0.945856 m 39.901157,1.387867 c 0.947556,2.778994 2.773095,3.141949 3.816635,0.346967 l 2.0818,2.775732 v 2.428766 l -6.245402,1.0409 1.0409,-2.081799 -3.816632,-0.693933 c 0.363463,-1.878266 1.292235,-3.18081 3.122699,-3.816633 m 7.633265,1.0409 c 3.12875,-0.916167 3.97403,0.713861 5.93324,2.716839 0.55029,0.562592 2.20061,1.637486 1.63898,2.625266 -0.51815,0.91134 -2.03738,0.22202 -2.71469,-0.0444 -2.70742,-1.065081 -3.9067,-2.554216 -4.85753,-5.297675 m -75.239274,0.331698 c -1.828411,0.497599 -0.420576,5.884817 1.978994,4.995137 2.218221,-0.82243 0.331357,-5.623908 -1.978994,-4.995137 m 0.294492,0.709202 1.734833,3.469665 h -1.387866 l -0.346967,-3.469665 m 60.719152,3.122699 3.469666,3.816636 -8.327198,5.2045 -1.734833,-3.1227 c 1.492243,-2.14336 3.733586,-3.44341 3.469666,-6.245403 l 3.122699,0.346967 m 58.63735,23.593743 c -0.8501,-0.30935 -1.61487,-0.71399 -2.42929,-1.10836 -1.34636,-0.65192 -5.3797,-1.27061 -3.35215,1.44167 1.86315,2.49234 5.44936,2.89584 6.12841,6.25906 l -5.55147,-1.0409 5.55147,3.81663 c -1.85518,0.77846 -5.17481,0.62212 -6.93933,-0.37802 -1.30375,-0.73898 -2.27124,-2.27681 -3.81663,-2.53397 -0.94879,-0.15789 -4.63693,1.33654 -4.63693,-0.56276 0,-1.35382 2.37202,-1.47465 2.99017,-2.50159 1.0678,-1.77397 0.49024,-7.003027 -1.17529,-8.375117 -1.35326,-1.11485 -5.64522,-4.43419 -7.23999,-4.52607 -2.80049,-0.16135 -5.84915,3.09019 -8.88432,1.12012 -2.47205,-1.60455 -1.7071,-7.72331 0.009,-9.59647 1.05245,-1.14905 2.29958,-0.71715 3.67127,-0.78684 1.12341,-0.0571 2.35432,-0.64637 3.46966,-0.33972 2.34618,0.64505 3.98373,3.49651 6.2454,4.57803 2.11896,1.01327 5.03983,1.51504 6.82903,3.07264 1.33384,1.16119 0.36419,3.11085 1.88798,4.27844 1.99792,1.53091 5.75649,0.23995 7.37598,1.88931 0.98585,1.00403 0.22338,4.090297 -0.13253,5.293917 M 107.39144,91.600643 c -1.48554,-0.46736 -3.76625,-3.19284 -3.41853,-4.85753 0.5857,-2.80407 2.80964,-3.67917 3.10101,-0.34697 0.061,0.69773 0.19229,1.38514 0.25862,2.0818 0.0985,1.03503 0.0589,2.08424 0.0589,3.1227 m -15.613497,-7.63327 0.346967,2.42877 1.734833,-0.34697 c 0.688644,1.32754 1.590087,1.56726 2.081799,0 h 0.346967 c 0.116337,0.73093 0.114378,1.34511 0.09182,2.08314 -0.03883,1.27046 1.250851,3.31988 2.215941,1.33352 0.93395,-1.92227 -0.28649,-3.47801 1.1619,-5.49846 1.7712,1.74117 0.43797,4.96368 0.75952,7.2863 0.31082,2.2451 3.04731,3.17459 3.21587,5.20932 0.0798,0.96286 -0.65196,2.16351 -1.61087,2.40762 -1.5736,0.40059 -2.61678,-1.36525 -4.09935,-1.34638 -2.098426,0.0267 -4.294164,1.01574 -6.592367,1.01574 l -3.816633,-5.2045 5.551466,0.34697 -5.204499,-2.42877 v -0.69393 l 2.428766,-0.69393 -2.428766,-2.0818 3.816632,-3.81664 m -66.270617,4.1636 c -1.180703,-0.20385 -1.482263,-0.57231 -1.734833,-1.73483 l 1.734833,1.73483 m 62.453985,-1.73483 -0.346967,0.34697 0.346967,-0.34697 m 9.715073,1.0409 0.34696,2.0818 h -0.69393 l 0.34697,-2.0818 m 9.02113,9.02113 2.42876,3.46967 -3.1227,-1.0409 0.69394,-2.42877 m 2.0818,0 c 1.8293,1.93525 2.35719,3.15579 1.0409,5.551467 h -0.34697 l -0.69393,-5.551467 m 22.55282,1.0409 -0.34696,0.34697 0.34696,-0.34697 m -1.73483,0.69394 c 3.24259,1.78922 -1.59615,3.729327 0,0 m -93.68098,5.898427 c -1.069727,2.02763 -2.752888,2.3567 -4.857532,1.73483 0.728809,-1.81304 3.115605,-1.59735 4.857532,-1.73483 m 86.39468,1.73483 -0.34696,0.34697 0.34696,-0.34697 m 0.69394,0.46263 c 0.26832,0 0.0556,0.17272 -0.11566,0.11565 l 0.11566,-0.11565 m 4.85753,6.47671 -7.2863,1.0409 0.69393,-6.59237 c 2.09255,0.44115 6.24214,3.38695 6.59237,5.55147 m 16.65439,-3.46967 -0.34696,0.34697 0.34696,-0.34697 m 0.69394,0.34697 -0.34697,0.34696 0.34697,-0.34696 m 0.69393,0.34696 -0.34697,0.34697 0.34697,-0.34697 m -20.74544,4.43641 c -1.76703,0.68551 -1.70862,4.20571 0.56114,3.27958 1.79345,-0.73178 1.74877,-4.1757 -0.56114,-3.27958 m 0.96834,0.76809 -1.38786,1.73483 0.69393,-1.73483 h 0.69393 m 3.81664,0.69394 -0.34697,2.08179 0.34697,-2.08179 M 53.264649,127.3382 c 0,0.9214 -0.04203,1.85666 0.03239,2.77574 0.06712,0.82889 0.723227,4.63767 2.202277,3.99118 0.777244,-0.33972 0.525971,-1.94358 0.605052,-2.60332 0.3114,-2.5978 0.13411,-3.85699 -2.839719,-4.1636 m 1.387866,1.0409 0.346967,3.81664 h -0.346967 v -3.81664 m 116.233805,3.81664 c 0.98671,0.96522 0.90784,2.77205 2.1332,3.45467 1.14356,0.63705 2.24754,-0.32613 3.40461,-0.0501 2.18703,0.52179 3.78081,3.22816 3.83029,5.26955 l -10.409,2.0818 1.0409,-10.75596 m -15.26653,12.83776 -0.34696,0.34697 0.34696,-0.34697 m -0.69393,1.0409 -0.69393,0.69393 0.69393,-0.69393 m 6.93933,7.98023 -0.34696,0.34697 0.34696,-0.34697 m -11.32434,55.17866 c -1.55905,1.10159 1.36682,4.87088 2.78779,4.0916 1.82768,-1.00234 -0.43052,-5.75718 -2.78779,-4.0916 m 1.95624,0.68296 0.34697,2.42877 -2.0818,-2.42877 h 1.73483 m -9.71506,8.3272 c 0.82934,2.49878 5.42496,1.2445 7.53421,1.79667 1.63441,0.42789 2.41539,1.61307 4.26265,1.673 -0.83874,3.68292 9.1475,0.67256 9.1475,-1.69201 0,-1.65271 -4.87488,-1.61993 -6.0248,-2.07778 -4.7772,-1.90203 -11.22247,-3.53938 -16.30743,-2.21191 -2.02665,0.52909 -3.52183,1.45044 -4.691,3.2073 -0.47612,0.71545 -1.32994,2.07178 -0.0806,2.54602 1.9857,0.75376 4.17419,-2.84068 6.15946,-3.24129 m 19.7771,2.0818 -6.93934,2.0818 v -2.0818 l -5.05725,-1.3303 -6.39264,-0.40453 c -1.96721,-3.56475 -5.21939,1.23806 -7.2863,2.0818 4.37474,-7.21197 14.36171,-3.89418 20.81799,-1.63043 1.59564,0.55948 3.46522,0.33227 4.85754,1.28346 m 21.51192,-2.53022 c -3.53779,1.13435 -2.50669,4.76098 1.03555,3.71945 2.91325,-0.8566 1.88506,-4.65593 -1.03555,-3.71945 m -17.34833,5.30596 c -1.34962,0.0122 -5.15686,1.09812 -2.37709,2.71228 0.95366,0.55378 6.92146,0.4998 7.86457,-0.004 1.28206,-0.68489 1.82708,-2.18169 3.19177,-2.83008 0.86864,-0.4127 5.69527,-1.30815 3.94247,-3.09699 -0.76564,-0.78139 -2.24605,-0.78552 -3.25362,-0.94988 -2.99363,-0.48834 -14.75954,-1.66651 -9.3681,4.16869 m 19.43013,-3.1227 -3.81663,0.34696 c 1.15549,-1.24602 2.97802,-2.4261 3.81663,-0.34696 m -7.2863,0.34696 v 0.34697 c -1.43276,0.63432 -3.17743,0.84425 -4.49664,1.68424 -1.04811,0.66736 -1.65564,2.13932 -2.85364,2.53264 -0.98556,0.32357 -2.04903,-0.31035 -3.05871,-0.25997 -1.58612,0.0791 -3.12092,1.11493 -4.1636,-0.48724 0.90324,-0.008 3.45581,0.1156 3.25228,-1.39456 -0.12139,-0.90063 -1.87999,-1.88295 -0.69287,-2.76074 2.82865,-2.09156 8.90817,-0.0537 12.01318,0.33866 m -25.32053,5.40314 c -1.80657,0.54955 -1.33188,1.97903 0.008,2.79662 1.49933,0.91523 4.20398,1.2587 5.86256,0.56382 1.54638,-0.64787 1.43711,-2.16257 0,-2.81883 -1.64209,-0.74986 -4.12242,-1.07322 -5.87007,-0.54161 m 6.23737,1.88316 v 0.34697 c -2.24657,0.66405 -4.81319,0.60221 -6.59236,-1.0409 2.22625,-0.65806 4.53241,-0.33992 6.59236,0.69393 z"
       id="path1"
       inkscape:label="Outline" /><path
       style="fill:#ffffff;stroke:#000000;stroke-width:8.63009"
       d="m 575.64839,976.85235 c -3.83672,-4.62295 -11.0307,-7.23189 -19.94147,-7.23189 -7.66316,0 -9.04916,-0.51076 -10.93177,-4.02846 -4.08472,-7.63236 -21.19057,-16.69825 -18.55687,-9.83491 0.56035,1.46027 0.0137,2.44648 -1.35597,2.44648 -1.55407,0 -2.29478,-1.92535 -2.29478,-5.96487 0,-4.98525 -1.20026,-7.06119 -7.30823,-12.64013 -4.01953,-3.6714 -8.98692,-9.06058 -11.03865,-11.97597 -3.51916,-5.00048 -8.81789,-6.95409 -10.68176,-3.93827 -0.93169,1.50747 -24.30856,-1.82669 -33.06168,-4.71549 -3.06049,-1.01005 -10.12196,-5.82473 -15.69214,-10.69929 -12.09079,-10.58083 -17.20945,-12.33915 -27.25296,-9.36162 -13.14143,3.89593 -14.01902,3.6269 -59.84865,-18.34731 -14.27844,-6.84617 -26.54695,-16.30124 -31.45386,-24.24081 -3.49243,-5.65085 -3.52906,-6.06082 -0.8101,-9.06524 4.17624,-4.61469 2.2841,-14.7358 -4.66877,-24.97339 -12.28404,-18.08736 -19.55015,-28.01481 -20.88553,-28.53524 -0.76725,-0.29902 -1.39498,-2.15862 -1.39498,-4.13247 0,-1.97384 -2.55589,-7.55593 -5.67973,-12.40464 -3.12385,-4.8487 -6.89238,-12.53037 -8.37452,-17.07034 -7.05916,-21.62319 -14.5473,-33.32691 -22.95133,-35.87216 -4.61288,-1.39707 -7.7554,4.0162 -6.36557,10.96532 2.12149,10.60742 24.17212,68.73476 27.95697,73.69697 4.24586,5.5666 4.93197,8.24007 2.50038,9.74288 -2.22799,1.37697 -13.18196,-17.05916 -13.18196,-22.18596 0,-7.27889 -3.02805,-13.18475 -10.85518,-21.17172 -7.23567,-7.38345 -7.34622,-7.65256 -4.76315,-11.59483 2.97158,-4.5352 2.26513,-7.67253 -3.4377,-15.26669 -2.88184,-3.83759 -4.34695,-9.16564 -6.05464,-22.01829 -2.74772,-20.68022 -4.30218,-24.24138 -13.44863,-30.80986 -9.02506,-6.4813 -13.20455,-14.64887 -17.06323,-33.34496 -5.38971,-26.11425 -4.43169,-31.87579 12.49159,-75.12466 3.27207,-8.36208 4.49985,-14.47171 4.58863,-22.83379 0.10729,-10.10618 -0.57562,-12.76973 -5.94851,-23.20082 -7.06015,-13.70678 -7.66622,-17.19579 -2.07458,-11.94271 5.03825,4.7332 9.65923,14.62044 12.23246,26.17311 3.09628,13.90092 3.409,14.67887 5.90062,14.67887 1.73594,0 2.32735,-2.20108 2.30075,-8.56267 -0.0384,-9.18959 -2.59777,-15.88175 -11.92276,-31.17579 -5.49793,-9.01724 -6.6927,-12.89756 -10.94049,-35.53203 -1.17012,-6.23504 -3.55232,-11.5553 -7.3655,-16.44969 -5.17077,-6.63692 -5.84609,-8.83813 -8.18104,-26.66604 -3.01847,-23.04688 -6.32033,-31.32664 -16.855,-42.26579 -4.31937,-4.4852 -10.19273,-11.64115 -13.05191,-15.9021 -5.62134,-8.37731 -9.92487,-9.82577 -13.60078,-4.57767 -1.96823,2.81003 -2.9961,2.97251 -9.0629,1.43259 -3.76359,-0.9553 -6.84289,-2.28176 -6.84289,-2.94768 0,-0.66593 2.96629,-3.26643 6.59176,-5.77888 6.85194,-4.7484 7.97808,-9.24408 2.57617,-10.28439 -7.34077,-1.41371 -17.68321,1.69502 -23.68823,7.1202 -3.36126,3.0367 -8.12252,6.2859 -10.58058,7.22045 -5.87114,2.23221 -20.95419,1.90613 -31.168099,-0.67381 l -8.154924,-2.05986 12.300947,0.1777 c 9.351436,0.13509 13.383926,-0.5314 16.817526,-2.7796 5.41351,-3.54458 5.3308,-9.2879 -0.16849,-11.70057 -2.01835,-0.8855 -3.66972,-2.53065 -3.66972,-3.6559 0,-1.12524 -1.44399,-2.94768 -3.20886,-4.04987 -3.18117,-1.98667 -3.17998,-2.0347 0.13821,-5.56675 l 3.34706,-3.56278 -3.65813,-6.35615 c -4.39498,-7.63644 -3.57171,-12.80016 3.25978,-20.44591 l 4.70255,-5.26307 10.82687,2.88495 c 9.13631,2.43448 11.5164,2.55552 15.24279,0.77516 6.50624,-3.10849 6.52418,-8.45967 0.0499,-14.88739 -2.98094,-2.9595 -6.65858,-6.06259 -8.17254,-6.89576 -2.14918,-1.18276 -2.55541,-2.98532 -1.853,-8.22219 l 0.89964,-6.70733 7.56145,1.91922 c 6.77603,1.71988 7.6136,2.44715 8.06347,7.00161 0.62424,6.31964 3.96687,9.252 9.08281,7.96798 5.43099,-1.36309 6.22836,-4.61364 4.04221,-16.47832 -2.52895,-13.72513 -1.63912,-15.77699 5.93507,-13.68565 4.16088,1.14887 7.60671,1.05522 11.77361,-0.31998 4.57474,-1.5098 8.36865,-1.50146 16.97922,0.0373 l 11.08815,1.98156 6.02714,10.77754 c 7.1381,12.76411 16.72241,23.58615 25.01743,28.24822 3.63213,2.04136 8.06718,6.84036 11.26949,12.19425 2.9042,4.8555 6.6622,9.56772 8.3511,10.47159 3.63289,1.94427 20.84519,2.0489 30.46841,0.18523 6.7215,-1.30172 6.80672,-1.25856 7.78211,3.94076 0.84617,4.51046 1.81793,5.39185 6.84383,6.20744 4.01714,0.6519 8.80278,3.66378 15.23119,9.5859 5.15546,4.74943 11.31114,9.954 13.67927,11.5657 3.00584,2.04571 4.30568,4.37188 4.30568,7.7053 0,7.93812 6.83332,10.30712 25.91572,8.98455 12.24918,-0.84897 17.23394,-0.52745 22.81115,1.47135 9.23993,3.31147 17.93196,3.25474 21.6848,-0.14155 1.64046,-1.48459 2.99389,-2.03505 3.00762,-1.22323 0.0137,0.81181 0.65029,2.46266 1.41455,3.66855 1.15021,1.81485 2.23569,1.755 6.30133,-0.34742 8.6346,-4.46512 9.30513,-12.9584 1.88398,-23.86341 -4.06076,-5.96709 -4.81238,-8.4068 -4.01979,-13.04788 0.5362,-3.13964 1.68938,-11.21302 2.56262,-17.94083 1.59889,-12.31838 4.97389,-17.94083 10.76935,-17.94083 3.03451,0 2.85512,2.21519 -0.76474,9.44314 -1.6668,3.32817 -3.53646,8.15253 -4.15482,10.72082 -1.51641,6.29831 1.66281,20.84179 7.26866,33.25079 4.63388,10.25743 8.153,12.67301 11.01421,7.56031 1.13492,-2.02798 1.7126,-1.13933 2.51292,3.86564 1.30286,8.14766 4.44279,11.11209 9.1191,8.60941 2.73438,-1.46339 3.3709,-3.39801 3.39119,-10.30683 0.0329,-11.21197 1.6739,-13.81855 7.13342,-11.33102 7.45473,3.3966 11.31021,24.73429 5.32173,29.45234 -1.0333,0.81408 -7.9451,3.47704 -15.35956,5.91769 l -13.48084,4.43753 4.10268,4.87576 c 2.25647,2.68166 4.10268,5.55127 4.10268,6.3769 0,2.72975 -11.15133,13.90174 -17.04306,17.07466 -4.31105,2.32164 -5.79073,4.18427 -5.79073,7.28934 0,2.29397 -1.46789,8.34725 -3.26197,13.45175 -4.60081,13.09013 -4.25862,19.5169 1.38563,26.02321 2.55618,2.9466 5.12609,7.32447 5.7109,9.72861 1.64915,6.77959 5.40833,9.49222 13.15441,9.49222 5.33415,0 9.28345,1.4952 16.8265,6.37051 6.44107,4.16305 12.88665,6.84754 18.60144,7.74718 l 8.74502,1.37666 7.33943,14.5401 c 7.96987,15.78906 11.83756,19.08228 18.72525,15.94403 6.21208,-2.83041 6.77197,-8.78883 1.85535,-19.74455 -2.34891,-5.23408 -4.27075,-10.75315 -4.27075,-12.26461 0,-1.51147 2.5688,-6.11238 5.70844,-10.22424 8.13009,-10.64766 7.80825,-16.44807 -1.43275,-25.82167 -6.70689,-6.80315 -7.09183,-7.68168 -6.32941,-14.44571 0.52695,-4.67524 -0.18432,-9.81028 -2.02732,-14.6361 -1.5615,-4.08874 -2.43928,-8.47594 -1.95064,-9.74935 0.48866,-1.2734 4.6717,-3.22285 9.29565,-4.33212 7.99183,-1.91722 8.88006,-1.78572 17.97823,2.66152 5.26407,2.57311 9.61052,5.73106 9.65878,7.01767 0.1856,4.94898 6.98097,16.3136 10.39043,17.37705 1.95837,0.61086 4.06632,1.89996 4.68434,2.86468 3.02719,4.72545 12.7397,-10.62854 12.7397,-20.13954 0,-4.43522 0.35675,-4.8118 3.14487,-3.31963 1.72969,0.92568 8.0729,7.37352 14.09604,14.3285 13.21838,15.26339 21.93544,21.61583 29.66209,21.61583 4.23201,0 5.41322,0.58449 4.73784,2.34446 -2.04916,5.34007 -4.50628,15.97603 -3.8438,16.63851 0.39207,0.39208 3.0838,-2.9819 5.98162,-7.49774 5.44305,-8.48228 6.19193,-8.64779 12.68397,-2.80337 4.55135,4.09731 4.72464,10.58309 0.50383,18.85653 -4.68611,9.18555 -13.09079,15.67755 -25.6316,19.79854 -15.95018,5.24135 -19.62764,7.42426 -24.23425,14.38532 -4.74381,7.16839 -9.71566,20.74791 -11.4257,31.20679 -1.08137,6.61401 -0.94486,7.09565 1.44819,5.10959 1.45316,-1.206 4.86942,-6.0857 7.59169,-10.84374 9.73705,-17.01857 22.31569,-23.66947 24.49379,-12.95096 3.45094,16.98219 21.45327,21.77404 29.6446,7.89078 2.85499,-4.83885 3.66244,-5.35964 4.89501,-3.15718 2.28181,4.07737 0.41517,7.31466 -11.82774,20.51254 -8.81656,9.5043 -11.68038,11.71713 -12.84094,9.92205 -0.90144,-1.39428 -0.90395,-3.86146 -0.006,-6.22237 2.01335,-5.2955 1.99874,-5.33066 -2.21454,-5.33066 -2.5825,0 -7.32004,4.06877 -15.66727,13.45562 l -11.96534,13.45563 0.80484,10.24669 c 0.76814,9.77952 0.6087,10.34917 -3.49682,12.49452 -7.21257,3.76893 -13.04704,11.16027 -16.3209,20.67591 -1.71417,4.9823 -4.29823,11.34361 -5.74237,14.13627 -3.48493,6.73911 -3.3111,12.18089 0.63628,19.91838 5.44003,10.66335 4.75286,12.14177 -13.85114,29.80028 -24.11945,22.89363 -25.04917,28.39868 -9.38311,55.55899 5.22835,9.06441 7.67428,15.32064 8.2232,21.03341 0.72791,7.57549 0.57084,8.01799 -2.29747,6.47261 -5.66599,-3.05273 -10.07441,-9.19321 -16.77815,-23.37026 -7.97386,-16.86307 -12.25163,-20.51083 -20.53904,-17.51406 -4.53753,1.64079 -7.9276,1.55332 -18.39831,-0.47468 -22.14848,-4.28981 -35.05887,0.0808 -26.65685,9.02437 l 3.77749,4.02097 -21.77291,-0.766 c -20.46981,-0.72012 -22.20457,-0.53765 -28.98515,3.04905 -3.96673,2.09824 -9.41585,6.53767 -12.10918,9.86535 -4.54619,5.61698 -5.01833,7.48153 -6.59148,26.03075 -3.55252,41.88879 -1.86948,50.54236 12.90137,66.33359 10.26408,10.97315 15.62223,12.60945 27.93447,8.5308 5.34623,-1.77103 11.80883,-2.80659 14.69758,-2.3551 6.1084,0.95468 9.40928,-2.97221 11.25142,-13.38526 2.48014,-14.01952 6.54064,-17.55289 23.19748,-20.18598 7.4841,-1.18309 8.48009,-1.02239 7.81003,1.26006 -0.42242,1.43884 -1.25765,7.846 -1.85609,14.23813 -0.96616,10.31994 -1.43217,11.53207 -4.15926,10.81892 -2.76238,-0.72238 -3.07119,0.2081 -3.07119,9.254 0,5.72851 -1.04801,12.08374 -2.43493,14.76576 -5.0951,9.85284 0.39266,11.9353 18.9344,7.18512 13.88478,-3.55711 25.38725,-2.38593 30.07342,3.06206 2.9192,3.39377 3.7538,7.09559 4.73566,21.00453 1.39849,19.81075 3.18722,24.87524 11.30214,32.00024 10.97267,9.63413 24.19084,12.83178 31.59762,7.64388 3.51239,-2.46016 3.57508,-2.40142 2.60631,2.44243 -0.57838,2.89188 -0.18327,5.93848 0.94671,7.30003 1.55036,1.86806 1.28546,2.68673 -1.32069,4.0815 -4.18284,2.23859 -4.30859,2.22369 -6.82572,-0.80929 z"
       id="path2"
       transform="scale(0.26458333)" /><path
       style="fill:#ffffff;stroke:#000000;stroke-width:8.63009"
       d="m 628.2597,389.7878 c -5.90631,-2.56591 -40.6286,-35.03743 -44.07772,-41.2205 -1.77004,-3.17306 -1.78316,-5.3257 -0.0731,-11.99801 1.48784,-5.80523 1.59126,-8.91826 0.36157,-10.88273 -2.55983,-4.0894 -9.20508,-4.28879 -12.74041,-0.38229 -7.27226,8.03575 -10.0363,1.3828 -3.16713,-7.62315 2.33319,-3.05898 3.98457,-5.79775 3.66972,-6.08614 -0.31485,-0.28841 -4.24217,-1.52936 -8.72738,-2.75767 -7.60221,-2.08192 -8.7356,-3.11122 -16.72232,-15.18629 -16.15573,-24.42577 -21.28101,-27.40907 -38.05565,-22.15121 -16.55139,5.18789 -23.24675,3.68142 -16.58338,-3.7313 7.63832,-8.49731 6.40515,-12.51939 -3.83845,-12.51939 -6.10294,0 -7.16493,-0.48867 -7.16493,-3.29694 0,-1.81331 1.88445,-6.14454 4.18768,-9.62495 4.00214,-6.04765 4.13806,-7.00408 3.06763,-21.58663 -1.01381,-13.81124 -0.7258,-16.39228 3.0363,-27.21019 2.28599,-6.57337 6.59362,-16.09336 9.5725,-21.15554 7.38904,-12.55659 25.65025,-31.29468 30.49824,-31.29468 2.37074,0 6.65267,3.00633 11.61507,8.15492 11.43464,11.86367 18.29609,10.43626 20.50066,-4.26481 l 1.12286,-7.48782 9.55165,16.29498 c 9.15301,15.6149 10.40902,16.96628 30.09482,32.37982 18.92727,14.81962 20.99579,16.98288 26.29728,27.50173 3.16476,6.27929 9.33465,15.56849 13.71087,20.64266 l 7.95676,9.22578 -4.87241,1.69853 c -3.6927,1.28728 -4.87242,2.70632 -4.87242,5.86084 0,4.5473 0.31459,4.67212 12.23239,4.85361 l 8.15492,0.12418 0.49504,6.79906 c 0.3783,5.19575 -0.87167,9.51297 -5.3007,18.30786 -4.93385,9.79733 -5.79665,13.15204 -5.80187,22.55868 -0.005,9.03477 -0.90362,12.83445 -4.92753,20.83577 -3.94841,7.85113 -4.73154,11.07575 -3.96105,16.30984 1.8207,12.36817 5.94582,24.49019 11.40039,33.50095 3.00847,4.96991 6.22606,11.02494 7.15021,13.45563 l 1.68027,4.41944 -15.04624,-0.0638 c -9.33463,-0.0396 -17.08771,-0.95074 -20.42414,-2.40021 z"
       id="path3"
       transform="scale(0.26458333)" /><path
       style="fill:#ffffff;stroke:#000000;stroke-width:3.33746"
       d="m 456.26678,427.52418 c 0.2015,-1.32305 0.8145,-6.6567 1.36222,-11.85257 0.54772,-5.19587 1.10867,-9.55985 1.24656,-9.69774 1.19573,-1.19573 14.34696,7.07841 18.77503,11.81237 2.87314,3.07163 5.4177,7.3057 4.7761,7.9473 -0.17345,0.17345 -5.26235,1.0227 -11.30868,1.88723 -6.04632,0.86452 -11.94377,1.7377 -13.10545,1.9404 l -2.11215,0.36854 z"
       id="path4"
       transform="scale(0.26458333)" /><path
       style="fill:#ffffff;stroke:#000000;stroke-width:3.33746"
       d="m 535.33063,424.14786 c -3.65775,-0.90929 -6.65873,-2.65388 -11.81657,-6.86945 -6.21346,-5.07835 -7.62869,-5.47179 -15.28678,-4.24986 -6.35576,1.01412 -9.0857,0.74693 -10.18571,-0.99695 -1.3449,-2.13211 0.28937,-4.30863 5.28881,-7.04365 5.65119,-3.09157 6.86595,-5.0462 7.37763,-11.87113 0.63675,-8.49292 -1.66688,-18.29357 -5.2966,-22.53408 -4.42335,-5.16769 -20.84126,-16.36848 -26.48011,-18.06553 -3.53127,-1.06275 -7.14899,-0.3613 -17.86049,3.46305 -7.95355,2.83968 -10.29538,3.09415 -14.69107,1.59639 -6.3511,-2.16404 -8.99561,-8.11909 -8.49805,-19.1363 0.45564,-10.08882 3.79999,-18.04928 8.38829,-19.96639 1.18768,-0.49625 4.19606,-0.89651 6.73864,-0.89657 2.52622,-5e-5 6.82695,-0.42756 9.55719,-0.95 7.76588,-1.48603 10.74417,-0.18638 20.83021,9.08978 6.85429,6.30392 8.87937,7.51795 18.42428,11.04532 10.10569,3.73462 12.69842,4.92025 15.90794,7.27456 2.98523,2.18979 4.12966,4.36541 4.82311,9.16894 0.56231,3.89528 1.63191,6.02058 4.05686,8.06104 2.32659,1.9577 5.91972,2.80618 15.03433,3.55023 11.33223,0.92508 14.38766,3.08053 14.29145,10.08186 -0.0557,4.05356 -1.42077,11.92789 -2.14541,12.37575 -0.26727,0.16517 -2.86633,-0.81517 -5.77571,-2.17855 -7.58356,-3.55378 -15.64192,-4.5492 -17.61188,-2.17555 -1.21096,1.45912 -0.079,4.97402 2.57151,7.98521 1.3695,1.55583 5.12347,4.60995 8.34215,6.78692 7.61813,5.15256 10.40505,7.80747 12.20897,11.63066 0.81153,1.7199 1.41622,3.18138 1.34378,3.24773 -0.0725,0.0663 -4.38922,-0.70428 -9.59282,-1.71251 -5.2036,-1.00822 -9.87039,-1.75941 -10.37064,-1.66929 -0.50026,0.0901 3.70166,3.33 9.33758,7.19973 7.12292,4.89073 9.99634,7.19669 9.42454,7.56332 -1.16897,0.74954 -15.49224,0.90211 -18.33543,0.19532 z"
       id="path5"
       transform="scale(0.26458333)" /><path
       style="fill:#ffffff;stroke:#000000;stroke-width:3.33746"
       d="m 378.1178,371.1248 c -6.10133,-3.25647 -8.49035,-3.35892 -20.18521,-0.86557 -12.1099,2.58184 -11.30762,2.9107 -19.2711,-7.8992 -3.70563,-5.03015 -6.70139,-9.17878 -6.65724,-9.21917 0.0442,-0.0404 3.7701,0.18344 8.27989,0.49742 13.73077,0.95594 13.78694,0.86794 2.70767,-4.24234 -7.45218,-3.43729 -9.68909,-4.74459 -9.83611,-5.74843 -0.16421,-1.12125 0.41929,-1.45743 4.2575,-2.45294 2.44628,-0.63448 4.44779,-1.34576 4.44779,-1.58063 0,-0.23486 -1.99193,-2.08627 -4.4265,-4.11425 l -4.4265,-3.68723 6.79177,-6.8223 6.79177,-6.8223 0.63074,4.23021 c 0.34691,2.32662 0.77266,4.22349 0.94611,4.21527 0.17346,-0.008 1.66686,-0.21762 3.31867,-0.46533 2.82345,-0.4234 3.10065,-0.33467 4.62893,1.48159 2.14926,2.55424 4.36228,2.57093 5.80033,0.0437 0.59095,-1.03853 1.28734,-1.89003 1.54752,-1.89222 0.26018,-0.002 0.47305,2.13387 0.47305,4.74682 0,6.92285 2.36686,11.39622 5.77285,10.91069 2.72566,-0.38856 4.39692,-4.70224 4.92313,-12.7071 0.42474,-6.46129 1.42021,-10.52328 2.57893,-10.52328 0.2517,0 0.98668,1.06438 1.63329,2.36528 1.04544,2.10327 1.15368,3.67003 0.9772,14.14411 -0.23238,13.79212 -0.41338,13.20768 6.56071,21.18481 6.26839,7.16993 6.8401,10.4617 2.60605,15.0051 -3.11622,3.34388 -4.94474,3.38043 -10.87124,0.21726 z"
       id="path6"
       transform="scale(0.26458333)" /><path
       style="fill:#ffffff;stroke:#000000;stroke-width:3.33746"
       d="m 311.34656,327.32799 c -1.60313,-2.87903 -2.90792,-5.61205 -2.89953,-6.07338 0.008,-0.46133 2.01286,-3.10944 4.45437,-5.8847 5.20405,-5.91542 7.44304,-9.93333 7.95791,-14.28061 l 0.3724,-3.14433 2.27271,0.32887 c 1.24998,0.18088 3.74825,0.50726 5.5517,0.72528 3.22833,0.39027 3.37674,0.50493 9.6042,7.42057 5.09733,5.66062 6.13593,7.1301 5.35019,7.56982 -0.53625,0.30011 -7.44919,4.60182 -15.36209,9.55936 l -14.38707,9.01372 z"
       id="path7"
       transform="scale(0.26458333)" /><path
       style="fill:#ffffff;stroke:#000000;stroke-width:1.34765"
       d="m 404.47209,345.40063 c -4.42302,-2.36666 -9.21827,-8.09739 -10.83459,-12.94825 -0.78928,-2.3688 -0.81405,-3.5809 -0.12402,-6.07095 1.30899,-4.72363 4.59278,-8.38813 6.97983,-7.78902 0.88452,0.222 2.1231,1.35156 2.68088,2.4449 0.75765,1.48511 1.20447,3.74542 1.91301,9.67715 0.53525,4.48101 0.64063,6.36695 0.58004,10.38094 l -0.074,4.90512 z"
       id="path8"
       transform="scale(0.26458333)" /><path
       style="fill:#ffffff;stroke:#000000;stroke-width:1.34765"
       d="m 408.39479,304.5019 c -0.84048,-0.24894 -2.41877,-0.8136 -3.50733,-1.2548 -9.0366,-3.66256 -13.71214,-8.2126 -17.25978,-16.7965 -0.96227,-2.32829 -1.15677,-3.02057 -0.89053,-3.16956 0.18735,-0.10485 1.46313,-0.38028 2.83506,-0.61206 3.23782,-0.54703 5.50353,-0.24566 8.25296,1.09777 1.74951,0.85484 2.51496,1.53713 9.10069,8.11199 8.32981,8.31606 8.93798,9.19857 7.8238,11.35315 -0.89833,1.73719 -3.21467,2.20011 -6.35487,1.27001 z"
       id="path9"
       transform="scale(0.26458333)" /><path
       style="fill:#ffffff;stroke:#000000;stroke-width:1.34765"
       d="m 358.22404,300.14551 c 1.30456,-2.60478 1.81331,-3.86006 1.5934,-3.93155 -0.17768,-0.0577 -3.38888,-0.65174 -7.136,-1.31997 -5.74295,-1.02415 -6.81295,-1.28247 -6.81295,-1.64479 0,-0.78898 1.06766,-3.90211 1.91275,-5.57729 1.6617,-3.29389 3.90749,-5.47634 7.46846,-7.25778 1.02733,-0.51395 1.89899,-0.8963 1.93703,-0.84969 0.038,0.0466 0.58464,1.17355 1.21467,2.5043 1.92542,4.06684 3.95629,5.85786 6.64234,5.85786 2.36227,0 4.13829,-1.56557 6.02106,-5.3076 l 0.81238,-1.6146 3.79878,5.05291 3.79879,5.05291 0.006,4.51589 c 0.006,4.47676 10e-4,4.51703 -0.56667,4.64746 -0.82544,0.18952 -22.02029,3.69848 -22.33959,3.69848 -0.14702,0 0.5951,-1.72194 1.64916,-3.82654 z"
       id="path10"
       transform="scale(0.26458333)" /><path
       style="fill:#ffffff;stroke:#000000;stroke-width:1.34765"
       d="m 336.58249,281.24821 c -2.0049,-0.54493 -4.4259,-3.82893 -4.66617,-6.32948 -0.14488,-1.5078 0.24183,-2.68695 1.36258,-4.15475 2.60804,-3.41565 10.01078,-6.61117 16.12082,-6.95882 l 2.63981,-0.15021 -0.18404,0.61112 c -0.98989,3.28702 -3.56275,8.17733 -6.01297,11.42902 -3.3005,4.38009 -6.50517,6.30189 -9.26003,5.55312 z"
       id="path11"
       transform="scale(0.26458333)" /><path
       style="fill:#ffffff;stroke:#000000;stroke-width:1.34765"
       d="m 365.91385,270.08241 c -4.03853,-6.89525 -2.99417,-11.66225 3.24552,-14.81423 1.13962,-0.57567 4.75668,-1.97936 5.10048,-1.97936 0.0174,0 -0.006,0.42979 -0.0524,0.95508 -0.5983,6.8058 -2.43567,11.51981 -5.91021,15.16345 l -1.72148,1.80525 z"
       id="path12"
       transform="scale(0.26458333)" /><path
       style="fill:#ffffff;stroke:#000000;stroke-width:1.34765"
       d="m 398.32736,265.17987 c -6.38845,-2.78949 -10.45549,-8.1256 -10.51893,-13.80123 -0.0215,-1.9243 0.37793,-4.29158 0.89226,-5.28804 0.32354,-0.62681 0.69789,-0.3813 3.58525,2.35129 5.10215,4.82866 7.52374,9.47622 8.04697,15.4439 0.10308,1.17563 0.1254,2.13611 0.0496,2.1344 -0.0758,-0.002 -1.00061,-0.37986 -2.05516,-0.84032 z"
       id="path13"
       transform="scale(0.26458333)" /><path
       style="fill:#ffffff;stroke:#000000;stroke-width:1.34765"
       d="m 409.15668,303.86209 c -3.44942,-0.96674 -8.00849,-3.04948 -10.88139,-4.97099 -2.46174,-1.64651 -5.84369,-5.22332 -7.40379,-7.83037 -1.12097,-1.87323 -3.23391,-6.40171 -3.23391,-6.93096 0,-0.5281 4.17444,-1.04975 6.19482,-0.77411 0.81568,0.11128 2.36292,0.61926 3.43831,1.12883 1.83543,0.86973 2.38495,1.35864 8.96752,7.9785 7.45201,7.49421 8.51235,8.83762 7.94987,10.07213 -0.6553,1.43823 -2.70531,1.9789 -5.03143,1.32697 z"
       id="path14"
       transform="scale(0.26458333)" /><path
       style="fill:#ffffff;stroke:#000000;stroke-width:1.34765"
       d="m 438.69012,307.5235 c -3.03127,-0.24096 -4.91297,-0.64109 -7.28253,-1.54858 -3.93176,-1.50578 -4.92901,-2.81337 -5.78392,-7.58396 -0.30167,-1.68334 -0.79875,-3.46099 -1.19327,-4.26737 -0.94581,-1.93316 -2.95829,-4.00824 -6.51994,-6.72275 -4.08428,-3.11282 -5.63968,-5.15905 -6.48662,-8.53351 -0.20727,-0.82584 -0.49643,-0.89826 5.37571,1.34643 6.18989,2.36617 8.56082,2.93976 11.60357,2.80726 2.18133,-0.095 2.64416,-0.20676 4.44688,-1.07383 1.57278,-0.75648 2.45928,-1.41994 4.05985,-3.03843 3.43714,-3.47562 4.81409,-6.38945 4.8254,-10.21122 0.006,-1.98673 -0.0862,-2.48374 -0.69065,-3.72939 -0.84392,-1.73902 -2.53241,-3.35323 -4.40365,-4.20992 -0.76288,-0.34925 -3.40101,-1.1366 -5.8625,-1.74966 -6.21114,-1.54694 -8.63996,-2.95946 -12.92962,-7.51939 -6.67956,-7.10042 -9.89208,-16.22571 -7.94274,-22.56167 0.47148,-1.53245 1.76102,-3.53012 2.74419,-4.25111 1.73526,-1.27254 4.82388,-0.72721 10.10495,1.78413 4.97801,2.36721 7.31232,3.1852 9.45304,3.31251 2.48535,0.14781 2.93595,-0.13364 1.76809,-1.10436 -7.93144,-6.59263 -10.03509,-9.35804 -10.0422,-13.20127 -0.006,-3.40639 1.6749,-5.69366 7.32302,-9.96292 1.99393,-1.50716 5.00065,-3.90062 6.6816,-5.3188 8.65985,-7.30613 13.36452,-10.48834 18.59235,-12.57575 3.61287,-1.44258 6.19353,-1.91041 9.66502,-1.7521 4.39781,0.20055 8.66208,1.87253 11.00081,4.3133 1.32331,1.38105 1.75941,2.24685 2.1125,4.194 0.49201,2.7133 -0.23792,5.9031 -2.99303,13.07955 -0.62911,1.6387 -1.53544,4.97275 -2.34057,8.61007 -2.02576,9.15175 -2.67126,10.76698 -6.33026,15.84013 -3.19616,4.43143 -4.33619,7.29253 -3.95781,9.93289 0.0903,0.63036 0.73235,2.69335 1.42671,4.58442 2.09077,5.69418 1.97909,7.13779 -1.00442,12.98311 -1.03501,2.02782 -2.10355,4.34506 -2.37452,5.14943 -0.67502,2.00378 -0.62791,4.18403 0.15031,6.95617 0.87099,3.10259 0.86055,4.60032 -0.0436,6.2616 -1.69029,3.10562 -4.18216,4.36149 -12.56977,6.33496 -7.08511,1.66701 -10.10186,3.99103 -11.55997,8.90548 -0.22574,0.76084 -0.41044,1.56935 -0.41044,1.79669 0,0.36836 1.45567,0.47965 13.37324,1.02243 7.35528,0.335 13.51559,0.69795 13.68957,0.80656 0.54454,0.33994 -0.77659,2.47298 -2.73417,4.41449 -4.56653,4.52903 -13.9923,7.19167 -22.94058,6.48038 z"
       id="path15"
       transform="scale(0.26458333)" /><path
       style="fill:#ffffff;stroke:#000000;stroke-width:1.34765"
       d="m 499.9294,411.22629 c -1.17519,-0.95161 -0.14464,-2.00467 4.84863,-4.95455 5.65464,-3.34059 7.03589,-5.6575 7.67378,-12.87194 0.74251,-8.39772 -1.46994,-18.31803 -5.22203,-23.41489 -3.10751,-4.22125 -17.46117,-14.5529 -25.1799,-18.12428 -5.28007,-2.44305 -8.58086,-2.11591 -20.55231,2.03692 -5.74545,1.99306 -8.71678,2.79075 -10.40551,2.79346 -2.6809,0.004 -6.46221,-1.57473 -8.09263,-3.3794 -1.1764,-1.30214 -2.28347,-3.67897 -2.82553,-6.06628 -0.52737,-2.32268 -0.58937,-10.02179 -0.10542,-13.09256 1.05095,-6.66852 3.44226,-11.87513 6.25146,-13.61131 1.1576,-0.71543 2.75625,-0.96467 8.17367,-1.27432 2.52143,-0.14412 6.01704,-0.50133 7.76803,-0.79382 2.1222,-0.35448 3.9212,-0.49948 5.39592,-0.4349 1.98054,0.0867 2.43411,0.20715 4.32972,1.14953 2.37588,1.18113 5.19643,3.38612 10.939,8.55164 4.35854,3.92057 7.65154,6.25566 10.9764,7.78347 1.22342,0.56217 5.00556,2.07466 8.40476,3.36108 7.93744,3.00392 10.85204,4.29454 13.05698,5.78181 l 1.78283,1.20254 0.0646,32.63734 0.0646,32.63733 -0.95605,-0.222 c -1.5367,-0.35685 -4.26577,-0.26255 -8.08001,0.2792 -4.6815,0.66492 -7.51103,0.67375 -8.31106,0.0259 z"
       id="path16"
       transform="scale(0.26458333)" /><path
       style="fill:#ffffff;stroke:#000000;stroke-width:2.57767"
       d="m 642.34672,538.42311 c 0.12298,-0.87169 1.00045,-9.69192 1.94992,-19.6005 0.94948,-9.90858 1.81988,-18.10916 1.93423,-18.22351 0.11436,-0.11436 0.99101,1.52576 1.94812,3.6447 2.80692,6.21422 3.30523,7.05364 4.84426,8.16034 1.59919,1.14997 4.35956,1.29923 10.57876,0.57203 2.98378,-0.34889 3.50609,-0.26778 5.93839,0.92224 4.93518,2.41456 9.73979,9.04241 11.01788,15.19892 0.30864,1.4867 0.46643,2.79781 0.35065,2.91359 -0.11577,0.11577 -8.41037,1.84801 -18.43243,3.84942 -10.02206,2.0014 -18.70151,3.75339 -19.28766,3.89329 -0.96025,0.2292 -1.04359,0.0975 -0.84212,-1.33052 z"
       id="path17"
       transform="scale(0.26458333)" /><path
       style="fill:#ffffff;stroke:#000000;stroke-width:1.11432"
       d="m 605.98538,967.2876 c -1.02914,-2.90978 -2.50788,-5.63411 -3.7726,-6.95037 -3.3614,-3.4984 -8.89043,-3.73831 -13.6046,-0.59031 l -1.2438,0.83057 -0.36405,-0.55673 c -0.42769,-0.65404 -0.649,-0.88177 -1.2805,-1.31761 -0.45969,-0.31727 -0.43332,-0.34928 1.64107,-1.99202 4.02866,-3.19036 6.66334,-4.33853 9.98132,-4.3498 5.32493,-0.0181 11.70155,3.70247 13.90937,8.11563 1.70911,3.41631 0.45995,6.26308 -3.52071,8.02352 l -1.13845,0.50348 z"
       id="path18"
       transform="scale(0.26458333)" /><path
       style="fill:#ffffff;stroke:#000000;stroke-width:1.11432"
       d="m 588.18767,836.50836 v -3.91069 l -0.78973,-0.20658 c -0.43435,-0.11362 -4.76994,-1.24633 -9.63465,-2.51714 l -8.84493,-2.31055 -10.74027,-0.6529 c -14.60181,-0.88764 -12.96226,-0.62923 -14.09889,-2.22208 -1.73112,-2.42595 -3.48357,-3.47351 -5.81662,-3.47698 -3.45588,-0.005 -6.55502,1.74625 -14.09534,7.96556 -1.44783,1.19418 -3.32742,2.63824 -4.17686,3.20902 -2.36995,1.59249 -2.47674,1.43713 -0.68938,-1.00295 5.10126,-6.96416 12.19374,-11.27323 21.46983,-13.04408 2.40453,-0.45904 3.67775,-0.56659 7.76236,-0.65572 11.61417,-0.25343 22.21484,1.8374 40.81274,8.04975 9.1247,3.04797 9.21118,3.07146 14.00447,3.80395 2.02696,0.30975 4.56706,0.78561 5.64466,1.05748 1.88338,0.47515 5.42526,1.98254 4.99031,2.12383 -0.67674,0.21984 -24.93344,7.48034 -25.32387,7.57992 l -0.47383,0.12086 z"
       id="path19"
       transform="scale(0.26458333)" /><path
       style="fill:#ffffff;stroke:#000000;stroke-width:1.11432"
       d="m 589.55653,862.58108 c -3.32825,-0.61948 -6.41333,-1.92599 -8.93208,-3.78268 -0.98838,-0.72858 -1.27085,-1.03928 -1.05297,-1.15824 0.53927,-0.29443 3.53145,-0.82939 5.97179,-1.06768 5.13678,-0.50158 11.48746,0.66542 16.68213,3.06551 1.44709,0.6686 1.57002,0.77456 1.5082,1.30008 -0.0756,0.64264 -0.12345,0.66228 -3.33151,1.36725 -2.66371,0.58535 -8.39883,0.73117 -10.84556,0.27576 z"
       id="path20"
       transform="scale(0.26458333)" /><path
       style="fill:#ffffff;stroke:#000000;stroke-width:1.11432"
       d="m 625.53511,850.26975 c -1.28118,-0.26398 -2.50137,-0.94993 -3.4779,-1.95516 l -0.86101,-0.88631 3.23888,-0.22753 c 6.57875,-0.46216 8.93506,-1.71216 8.90004,-4.72142 -0.016,-1.37254 -0.29892,-1.97092 -2.14101,-4.52776 -0.75103,-1.04244 -1.49493,-2.20029 -1.65311,-2.57301 -0.66168,-1.55912 -0.16296,-2.91486 1.49085,-4.05271 3.62421,-2.49351 9.38027,-3.61397 16.27049,-3.16716 5.30864,0.34426 7.96346,0.74906 18.59433,2.83521 3.76436,0.7387 7.57874,1.45848 8.47639,1.5995 1.55891,0.24492 1.6321,0.28135 1.6321,0.81247 0,0.50726 -0.16166,0.6152 -1.84269,1.23031 -1.01348,0.37085 -3.69105,1.23845 -5.95016,1.92801 -8.03504,2.45259 -9.69044,3.42845 -13.77741,8.1218 -4.80219,5.51467 -6.72076,6.23843 -12.86178,4.85196 -3.44598,-0.77802 -5.58557,-0.76363 -9.582,0.0644 -3.58524,0.74287 -5.25291,0.91526 -6.45601,0.66736 z"
       id="path21"
       transform="scale(0.26458333)" /><path
       style="fill:#ffffff;stroke:#000000;stroke-width:2.87832"
       d="m 434.48621,305.93426 c -3.37669,-0.79554 -6.18075,-2.49577 -6.82644,-4.13919 -0.32945,-0.83852 -0.96241,-2.96731 -1.40658,-4.73064 -1.03345,-4.10276 -2.4066,-5.98941 -7.55875,-10.38547 -3.88797,-3.3174 -6.26264,-6.00451 -5.75498,-6.51217 0.1182,-0.1182 2.66041,0.6415 5.64936,1.68822 9.26347,3.24405 14.27299,2.55353 19.33215,-2.66477 2.76375,-2.85068 4.10735,-5.3817 4.59965,-8.66461 0.528,-3.5209 -0.0795,-5.66624 -2.30096,-8.12508 -1.5803,-1.74921 -2.73009,-2.36302 -6.60697,-3.52714 -6.91963,-2.07777 -8.70459,-2.81927 -11.33648,-4.70936 -7.41032,-5.32168 -13.3884,-17.70557 -11.64414,-24.12139 0.33372,-1.22748 1.23463,-2.90928 2.00203,-3.73732 1.76677,-1.90637 3.05634,-1.7382 10.29455,1.34254 2.93211,1.24797 6.64375,2.54436 8.2481,2.88088 2.53524,0.53177 3.03685,0.49199 3.83279,-0.30395 0.8584,-0.85841 0.62508,-1.18861 -3.72379,-5.26985 -5.17417,-4.85576 -6.78303,-7.57927 -6.22727,-10.5417 0.52264,-2.78593 1.65133,-3.94537 11.62609,-11.94285 11.81062,-9.46942 13.83475,-10.88496 18.96389,-13.26207 7.35108,-3.40686 15.11312,-3.02054 19.98422,0.99463 3.51089,2.89398 3.64748,6.08217 0.62012,14.47471 -0.75765,2.10038 -2.23699,7.29085 -3.28744,11.53439 -2.01996,8.1601 -2.91721,10.33534 -6.35688,15.41108 -4.18002,6.16826 -4.57544,8.90983 -2.26551,15.70729 1.70608,5.02053 1.57638,6.13918 -1.43344,12.36311 -2.67388,5.52924 -2.99456,7.47993 -1.99763,12.15122 0.70426,3.29989 0.69402,3.84604 -0.10191,5.43676 -1.16468,2.32769 -4.11303,3.87707 -10.71467,5.63064 -2.97069,0.78908 -6.29552,1.88939 -7.38852,2.44513 -2.68719,1.3663 -5.12857,4.45825 -5.88164,7.44899 -0.69314,2.75272 -0.30225,3.36384 2.15724,3.37264 3.23357,0.0116 23.68456,1.24928 23.89926,1.4464 0.13015,0.1195 -0.72547,1.20256 -1.90139,2.40681 -4.05311,4.15076 -11.2264,6.51053 -19.55001,6.4313 -2.69265,-0.0256 -5.81747,-0.26376 -6.94405,-0.52918 z"
       id="path22"
       transform="scale(0.26458333)" /><path
       style="fill:#ffffff;stroke:#000000;stroke-width:1.57529"
       d="m 625.5724,849.49486 c -0.92393,-0.18899 -2.62154,-1.1119 -2.41498,-1.31291 0.0551,-0.0537 1.43439,-0.25624 3.065,-0.45017 5.21419,-0.62016 7.35849,-1.88107 7.76075,-4.56355 0.23919,-1.595 -0.25445,-2.85923 -2.23685,-5.72867 -2.31089,-3.34491 -2.27471,-4.21921 0.24057,-5.81468 1.92833,-1.22316 5.33158,-2.23876 8.88716,-2.65212 5.34931,-0.62189 11.12353,0.066 28.47399,3.392 2.91718,0.55921 5.36052,1.07331 5.42965,1.14243 0.0691,0.0691 -2.31766,0.91119 -5.30397,1.87126 -10.37215,3.33454 -10.56797,3.45223 -16.98717,10.2094 -3.67933,3.87305 -4.9305,4.29156 -10.03984,3.35831 -4.0409,-0.7381 -6.74284,-0.78084 -9.95999,-0.15754 -3.57811,0.69323 -5.8456,0.92484 -6.91432,0.70624 z"
       id="path23"
       transform="scale(0.26458333)" /><path
       style="fill:#ffffff;stroke:#000000;stroke-width:1.57529"
       d="m 588.87208,835.67438 c 0,-2.04676 -0.0795,-3.72139 -0.17661,-3.72139 -0.0971,0 -4.5116,-1.13929 -9.80992,-2.53175 l -9.63332,-2.53175 -9.76457,-0.58867 c -13.56131,-0.81755 -13.78798,-0.84276 -14.41688,-1.60298 -1.98774,-2.40285 -2.51696,-2.89769 -3.7239,-3.48196 -1.18559,-0.57393 -1.69273,-0.63682 -4.08044,-0.50602 l -2.7266,0.14936 1.63741,-0.56458 c 4.67261,-1.61111 11.83591,-2.26898 19.0535,-1.74986 9.6322,0.69279 17.36435,2.51422 34.96088,8.23556 6.06096,1.97067 8.81247,2.70198 12.80156,3.40251 5.23762,0.91978 9.04426,1.96353 8.6058,2.35964 -0.21493,0.19417 -22.1472,6.85327 -22.5718,6.85327 -0.0853,0 -0.15511,-1.67462 -0.15511,-3.72138 z"
       id="path24"
       transform="scale(0.26458333)" /></g></svg>
