<?xml version="1.0" encoding="UTF-8" standalone="no"?>
<!-- Created with Inkscape (http://www.inkscape.org/) -->

<svg
   width="210mm"
   height="297mm"
   viewBox="0 0 210 297"
   version="1.1"
   id="svg1"
   xml:space="preserve"
   inkscape:version="1.3.2 (091e20e, 2023-11-25)"
   sodipodi:docname="SouthAfrica.svg"
   xmlns:inkscape="http://www.inkscape.org/namespaces/inkscape"
   xmlns:sodipodi="http://sodipodi.sourceforge.net/DTD/sodipodi-0.dtd"
   xmlns="http://www.w3.org/2000/svg"
   xmlns:svg="http://www.w3.org/2000/svg"><sodipodi:namedview
     id="namedview1"
     pagecolor="#ffffff"
     bordercolor="#000000"
     borderopacity="0.25"
     inkscape:showpageshadow="2"
     inkscape:pageopacity="0.0"
     inkscape:pagecheckerboard="0"
     inkscape:deskcolor="#d1d1d1"
     inkscape:document-units="mm"
     inkscape:zoom="0.81375"
     inkscape:cx="479.26267"
     inkscape:cy="454.07066"
     inkscape:window-width="1392"
     inkscape:window-height="1212"
     inkscape:window-x="0"
     inkscape:window-y="25"
     inkscape:window-maximized="0"
     inkscape:current-layer="layer1" /><defs
     id="defs1" /><g
     inkscape:label="SouthAfrica Trace line"
     inkscape:groupmode="layer"
     id="layer1"><path
       style="fill:#040404;stroke:none"
       d="m 153.8241,54.048487 c -1.99441,0.474377 -3.94656,0.326253 -5.83223,1.293477 -3.54576,1.818747 -4.18503,5.729445 -7.00112,8.240343 -2.00842,1.790778 -5.29353,2.024479 -6.90996,4.048103 -3.24567,4.063297 -2.82224,9.280999 -5.1518,13.66343 -1.83386,3.449868 -5.71639,2.089753 -8.06368,4.528216 -2.04546,2.124903 -1.64627,5.770992 -2.97333,8.302689 -1.3593,2.593198 -3.65953,3.193243 -6.05994,4.394228 -0.98924,0.494943 -1.81953,1.270532 -2.8328,1.714827 -2.01337,0.88281 -2.83313,-1.612042 -4.49915,-2.206372 -1.56365,-0.557817 -3.19923,0.01362 -4.832415,-0.645457 -3.744754,-1.511188 -7.05018,-5.681989 -11.497825,-3.777066 -3.020567,1.293701 -4.891296,4.990562 -6.475627,7.685155 -2.471832,4.20401 -5.318081,9.79685 -10.021252,11.85179 -1.73663,0.75877 -3.472197,0.81248 -5.332324,0.81248 -1.442573,0 -3.331442,0.3203 -4.665144,-0.3199 -1.522681,-0.73091 -1.160465,-2.29516 -1.028741,-3.67935 0.256279,-2.69303 0.469374,-5.80582 0.147352,-8.49839 C 60.031665,95.081493 55.458952,89.12026 50.177038,85.626353 V 136.6167 c -1.568734,0 -3.313379,-0.18878 -4.665784,0.77288 -1.923536,1.36777 -2.644896,4.06237 -4.832419,5.07337 -1.150489,0.53172 -2.597707,0.31925 -3.832609,0.31925 -2.55263,0 -5.113417,0.0601 -7.665216,-0.002 -2.739165,-0.0671 -6.85805,-1.37694 -8.374703,-3.83016 -1.462423,-2.3655 1.028431,-6.7441 -2.789852,-7.48264 -0.551397,-0.10665 -1.104159,-0.1813 -1.666351,-0.1813 -0.665118,0 -1.370591,0.0759 -1.999494,0.30524 -1.620351,0.59081 -1.592144,2.38108 -2.317205,3.69272 -0.907863,1.64233 -2.6504244,2.93433 -4.3483288,3.66598 0.5975025,1.54269 2.0829469,2.86647 3.0953518,4.16587 1.795369,2.30434 3.450369,4.73597 4.454017,7.49858 1.892048,5.20799 0.509247,10.6991 2.991718,15.83034 1.652555,3.41581 3.767506,6.41937 6.191344,9.33157 1.462321,1.75695 3.50294,3.52566 4.397058,5.66559 1.841462,4.40727 0.730669,10.39523 0.53308,14.99717 -0.842675,-0.52401 -1.771109,-1.22373 -2.82817,-0.95816 -1.234027,0.31002 -2.466818,3.27228 -2.291233,4.45749 0.331661,2.23872 4.0971,3.41733 5.137918,5.49896 1.603762,3.20753 -0.112967,7.28699 1.689495,10.66465 0.146899,0.27528 0.308861,0.56612 0.527679,0.79152 1.994765,2.05485 2.042946,-2.13579 3.591913,-1.33772 0.907254,0.46744 0.949032,2.39699 1.573776,3.21236 1.066154,1.39148 2.825162,2.263 4.263082,3.22162 1.831624,1.22109 4.976018,4.58625 7.331946,4.0409 1.711738,-0.39624 2.943906,-1.9689 4.332514,-2.93 l 3.00354,-0.35791 c 0.445345,1.34286 4.100066,0.39566 4.90096,-0.66003 0.522418,-0.68861 0.170546,-1.84328 1.101771,-2.21422 1.427333,-0.56856 3.500727,0.2196 4.991081,0.2196 2.535236,0 5.246424,-0.68918 7.498581,-1.83799 1.597543,-0.81491 2.972166,-1.84085 4.332514,-3.00291 0.617818,-0.52777 1.440666,-1.34201 2.332892,-1.24756 0.930295,0.0984 1.862176,1.08211 2.666162,1.52927 1.424241,0.79217 3.034857,1.25849 4.665784,1.23896 2.584462,-0.0309 3.399962,-2.92498 6.165501,-2.3298 3.84348,0.82716 8.480629,4.02569 12.497639,3.2922 1.87632,-0.3426 0.97931,-2.64765 2.66629,-3.16002 2.3392,-0.71048 5.02452,1.71671 7.32268,0.30408 1.87426,-1.15207 -0.79402,-3.13131 1.84212,-3.85639 4.73167,-1.30147 9.62321,0.8343 14.33062,-1.37834 3.08081,-1.44807 3.12968,-4.88874 5.99887,-6.32353 1.91977,-0.96 4.08484,-0.9538 5.99886,-2.02159 4.98892,-2.7832 8.62249,-7.46855 12.13107,-11.85412 0.96388,-1.20481 1.91621,-2.42337 3.03273,-3.49278 l 6.66541,-6.33869 c 3.95463,-3.9549 7.41707,-8.44662 10.14147,-13.33081 l 6.95368,-15.66371 c 3.36047,-3.99556 8.471,-6.29475 11.64646,-10.33137 3.16713,-4.02604 3.47676,-9.04263 4.4189,-13.83072 0.55729,-2.83218 1.09009,-5.66391 1.63344,-8.49839 0.11044,-0.57606 0.76455,-2.39666 0.25897,-2.82817 -0.50556,-0.4315 -2.07273,-0.29964 -2.7257,-0.35217 -1.98091,-0.15935 -5.84285,-1.82762 -7.43288,-0.11495 -0.86127,0.9277 -0.39649,2.18384 -0.65381,3.29529 -0.40274,1.73948 -2.19699,2.04479 -3.74441,2.15135 -1.57266,0.10829 -3.8956,0.31249 -5.13495,-0.85569 l -2.88397,-2.49756 -2.4832,-3.46022 c -0.36917,-0.51442 0.54638,-4.13795 0.83728,-4.83608 1.00356,-2.40854 2.55986,-5.10335 4.66579,-6.99868 1.77206,-1.594862 3.88985,-1.568723 6.1655,-0.99981 0.70917,0.17729 2.24087,0.90655 2.83279,0.16663 0.51602,-0.645015 0,-2.177287 0,-2.999427 0,-3.0136 -0.16663,-5.868122 -0.16663,-8.831662 0,-2.738272 -0.16664,-5.263754 -0.16664,-7.998487 0,-1.71397 0.2384,-3.712208 -0.16663,-5.332324 -0.31,-1.239959 -1.02198,-2.42162 -1.33308,-3.665973 -0.31863,-1.274478 -0.33462,-2.636077 -0.83318,-3.832608 -0.3283,-0.787937 -1.22964,-1.356046 -1.49971,-2.166257 -0.41513,-1.245349 0.35017,-2.765183 0,-4.165878 -0.28852,-1.154038 -1.38211,-1.917321 -1.83299,-2.999432 -0.39132,-0.939154 0.0581,-2.226894 -0.33327,-3.166068 -0.26173,-0.628156 -1.11913,-0.975137 -0.83318,-1.832986 0.3336,-1.000787 1.30756,-1.72229 0.49991,-2.832797 -0.59693,-0.820768 -2.37498,-0.499906 -3.3327,-0.499906 h -6.66541 c -0.80079,0 -2.07981,0.25099 -2.8328,0 -0.91757,-0.30585 -1.53145,-1.398539 -2.33289,-1.999621 -0.87302,-0.654763 -1.84466,-0.833176 -2.99943,-0.833176 m 23.82882,52.323431 c -2.04893,-0.264598 -4.6195,-1.21617 -6.6654,-0.524203 -1.13651,0.384388 -2.01911,1.525244 -2.83036,2.357194 0,0 -7.07647,8.56162 -4.94878,12.2207 5.10492,8.77918 10.94521,7.28397 10.94521,7.28397 1.42349,-0.0374 3.22109,-0.18532 4.31502,-1.21043 1.29164,-1.2104 0.34301,-4.22504 1.8578,-4.83974 0.78257,-0.31757 1.71078,0.0581 2.4922,0.19556 1.80116,0.31687 3.66746,0.6654 5.49896,0.68056 -1.94517,7.51855 -1.39634,16.73977 -5.96119,23.32892 -1.27336,1.83804 -3.30492,3.01006 -5.03673,4.36749 -3.05447,2.39416 -6.05692,4.90146 -8.2739,8.13014 l -5.39018,13.49745 c -2.71134,4.61149 -5.69041,9.0231 -9.4982,12.8309 l -19.99622,20.75804 c -1.28496,0.98793 -2.77264,1.92157 -4.33251,2.39769 -1.74002,0.53111 -3.46366,0.58026 -4.99662,1.70132 -1.47773,1.08069 -1.61969,2.59058 -2.6083,3.97071 -0.67917,0.94814 -1.6858,1.48226 -2.72646,1.94767 -4.53345,2.02738 -9.89926,-0.53367 -14.33062,1.29886 -0.74481,0.30801 -1.73284,1.02774 -1.75945,1.91928 -0.0189,0.63381 0.81167,1.48267 0.0612,1.94665 -1.92277,1.18876 -4.96636,-1.18363 -7.13343,-0.42881 -1.61687,0.56319 -1.26973,2.97404 -2.66924,3.12968 -4.25239,0.47291 -8.455097,-3.16449 -12.66119,-3.46602 -2.7364,-0.19619 -3.767008,2.84113 -6.49877,2.4113 -1.221785,-0.19222 -2.446274,-0.62209 -3.499338,-1.27071 -0.999994,-0.61593 -1.907919,-1.57685 -3.166068,-1.47079 -1.334637,0.1125 -2.366292,1.23908 -3.332703,2.0499 -1.342591,1.12642 -2.729601,2.00221 -4.332514,2.71297 -2.443706,1.08358 -5.024236,1.32696 -7.665216,1.21132 -1.088219,-0.0477 -2.247942,-0.40477 -3.332703,-0.22103 -2.0448,0.34635 -1.180649,2.0043 -2.266804,2.86392 l -4.398602,0.36309 -1.499716,-0.16663 c -5e-6,-0.66299 -1.173937,0.16256 -1.499717,0.38882 -1.281043,0.8896 -3.366255,3.64919 -5.165689,2.74948 -1.852773,-0.9264 -3.645739,-2.5312 -5.332325,-3.74929 -1.315043,-0.94975 -2.904647,-1.65694 -3.999243,-2.88835 -0.925408,-1.04109 -0.621889,-2.80872 -1.832987,-3.61042 -1.451812,-0.96106 -2.766546,0.51229 -3.166067,1.77743 -2.88001,-2.46881 -1.120735,-7.20461 -1.95912,-10.33138 -0.472089,-1.76065 -1.807621,-3.11822 -3.20657,-4.22104 -0.746313,-0.58833 -2.133851,-1.18488 -2.140927,-2.28017 -0.0055,-0.84989 0.73298,-3.15558 1.823213,-3.07337 0.953789,0.0719 2.143759,1.69925 2.9084,0.39088 0.715332,-1.22401 0.575382,-3.27621 0.575382,-4.64701 0,-3.40464 0.02023,-6.80267 -0.602382,-10.16475 -0.439566,-2.37363 -2.510382,-4.23062 -4.018143,-5.99886 -2.396712,-2.81077 -4.665903,-5.7012 -6.359393,-8.9983 -1.163572,-2.26539 -2.07592,-4.78279 -2.322607,-7.33194 -0.261146,-2.69858 0.139394,-5.34124 -0.648281,-7.99849 -1.477896,-4.98573 -5.043854,-8.14973 -7.5451276,-12.49763 1.4897326,-0.70787 2.7846246,-1.92786 3.6463006,-3.33271 1.165654,-1.90043 1.030681,-3.83917 3.852281,-3.63523 4.20129,0.30365 1.697517,4.52606 3.180983,7.13457 1.383598,2.43291 5.061494,3.703 7.650301,4.1984 2.950039,0.56452 6.330475,0.13411 9.331568,0.13411 1.477634,0 3.138938,0.22378 4.499149,-0.47251 2.151357,-1.10128 2.748646,-3.69588 4.672344,-5.00832 1.435733,-0.97953 3.512433,-0.68467 5.15913,-0.68467 V 87.959245 l 4.499149,3.499338 v 0.166635 c -0.143594,0.168934 -0.177442,0.482086 0,0.166635 h 0.166635 c 0.0087,1.205806 1.092373,2.178187 1.697855,3.166067 1.021937,1.667359 1.823822,3.548666 2.086666,5.49896 0.376165,2.79114 0.16451,5.69015 0.04153,8.49839 -0.05447,1.24395 -0.379898,2.5918 -0.09437,3.83261 0.242787,1.0551 1.277585,1.75029 2.26719,2.03472 2.043014,0.5872 5.577446,0.39797 7.665216,0.0291 6.889358,-1.21736 10.262611,-8.54674 13.593498,-13.89487 1.42181,-2.282878 3.107078,-5.730325 5.902814,-6.533874 4.029369,-1.158116 6.933879,2.587808 10.331379,3.958866 1.634979,0.659798 3.453209,0.108317 4.999059,0.699076 1.6339,0.624414 2.35026,3.052182 4.49915,2.357712 1.27799,-0.41302 2.32208,-1.37971 3.49934,-1.999757 2.73396,-1.439954 5.1479,-2.115028 6.6222,-5.147433 1.12983,-2.323891 0.85508,-5.676619 2.59943,-7.649533 1.0416,-1.178081 2.55373,-1.110142 3.94254,-1.522478 1.92927,-0.572788 3.47693,-1.668324 4.39771,-3.492259 2.17983,-4.31799 1.72777,-9.721874 5.15051,-13.490245 0.92826,-1.021983 2.24311,-1.125825 3.44932,-1.652865 1.22478,-0.535157 2.33972,-1.383893 3.3178,-2.283503 2.70092,-2.484211 3.38808,-6.295237 6.84695,-8.023547 1.64932,-0.824124 3.41116,-0.706287 5.16569,-1.079935 0,0 6.48226,-2.464663 9.10287,-4.639825 1.71034,-1.419613 5.56102,-1.492152 5.56102,-1.492152 1.34327,0.782547 2.15468,2.281917 3.83261,2.331875 2.7165,0.08088 5.44729,0.0026 8.16512,0.0026 0.76715,0 2.46147,-0.315716 3.09561,0.171252 0.57622,0.442483 -0.5651,2.367045 -0.35718,3.161451 0.14292,0.545998 0.57798,0.948957 0.70859,1.499716 0.24009,1.012381 0.0901,2.00851 0.5364,2.999432 0.45084,1.001072 1.34048,1.736142 1.59398,2.832797 0.24647,1.066266 -0.15625,2.107512 -0.0296,3.166068 0.17099,1.429152 1.18652,2.233423 1.7039,3.499338 0.83702,2.047993 1.60952,4.985852 2.00245,7.16531 0.55149,3.058951 0.1705,6.396637 0.24647,9.498203 0.11835,4.831147 0.33083,9.65603 0.33083,14.497256 m -135.474372,-8.665027 0.499905,0.499906 -0.499905,-0.499906 m 98.981282,46.824471 c -1.10052,-1.88374 -4.29518,0.10473 -5.49896,0.89052 -2.74695,1.79313 -5.60423,3.83364 -7.81449,6.2748 -1.38951,1.53466 -2.20389,3.4052 -3.84997,4.75501 -1.17095,0.96018 -4.72391,1.58115 -5.23113,2.91752 -0.36392,0.95883 0.40271,2.07067 0.89912,2.82548 1.27373,1.93674 2.88626,3.76232 3.93651,5.83223 1.50776,2.97159 2.41304,6.70786 6.561,6.82947 0.92924,0.0272 1.92972,0.0704 2.60046,-0.68622 1.72471,-1.94555 0.02,-4.80898 3.06513,-6.08514 2.05523,-0.8613 4.52553,-0.43433 6.66541,-1.1739 2.55799,-0.88407 2.79427,-2.5429 4.36569,-4.37661 1.28416,-1.49851 3.24088,-2.80081 3.71123,-4.83898 0.8743,-3.78861 -3.38675,-8.30591 -5.73156,-10.82884 -0.92915,-0.99973 -2.17692,-2.51979 -3.67844,-2.33534 m 0.33327,0.0555 0.0555,0.0556 c -0.0822,0.0274 -0.18441,-0.0556 -0.0555,-0.0556 m 0.4999,0.11109 -0.16663,0.16663 0.16663,-0.16663 m -2.99943,0.22141 c 4.07109,-0.70727 7.48883,5.47718 9.33106,8.27698 0.82408,1.25243 1.64731,2.78956 1.20205,4.33251 -0.54105,1.87493 -2.45531,3.23121 -3.66545,4.66579 -1.28358,1.52163 -1.54005,3.10216 -3.70159,3.75944 -2.49473,0.75858 -5.66181,0.20027 -7.82941,1.78966 -1.08268,0.79388 -1.64979,1.96405 -1.80715,3.28256 -0.123,1.03067 -0.0342,2.60083 -1.362,2.80811 -4.14405,0.64695 -5.24962,-3.53298 -6.68289,-6.30745 -0.58376,-1.13002 -1.3449,-2.13117 -2.07742,-3.16606 -0.63164,-0.89238 -2.91119,-3.28774 -2.60071,-4.45287 0.15204,-0.57056 1.22576,-0.71886 1.69682,-0.87997 1.40637,-0.481 2.55672,-1.22936 3.66533,-2.21345 1.40325,-1.24563 2.15461,-2.90312 3.3642,-4.28481 1.79844,-2.05432 4.08877,-3.70726 6.30128,-5.28385 1.21496,-0.86575 2.65843,-2.06469 4.16588,-2.32659 m 28.16134,17.60855 v 0 m -125.642903,65.82088 -0.499905,0.4999 0.499905,-0.4999"
       id="path1"
       inkscape:label="Outline"
       sodipodi:nodetypes="csssssssssssssssssccssscssscscssssscsssscssssccssssscscsssssssssccccssssssssccsssssssssssssssssssssccscscssscssccccssscssssssssssscsccccsssscssssssssssscsssssssccccccssssscsssssssssssssscscssssssssssscccccsssssssssssssccccccccsssssssssssssscccccc" /><path
       style="fill:#ffffff;stroke-width:88.247"
       d="m 168.1783,842.79526 c -5.30913,-3.83589 -12.7148,-9.02889 -16.45706,-11.54002 -8.26496,-5.54597 -9.24372,-6.67568 -11.62082,-13.41311 -3.2596,-9.23868 -8.45629,-11.02372 -14.19819,-4.87699 l -3.50166,3.74853 -2.13753,-4.05575 c -1.5738,-2.98615 -2.321,-8.28507 -2.83322,-20.09237 -0.84982,-19.58949 -0.75979,-19.41469 -17.27379,-33.53748 l -4.298661,-3.67622 1.853247,-5.32569 c 1.987166,-5.71055 2.615404,-5.92195 11.945384,-4.01966 6.15641,1.25524 6.77865,-1.88848 6.21775,-31.41357 -0.5762,-30.33106 -0.58613,-30.36062 -16.609199,-49.47029 C 73.846877,634.80866 65.862321,617.32469 65.736305,591.70507 65.644657,573.07304 62.469203,565.03413 46.069054,541.9159 l -10.045456,-14.16043 6.122819,-5.81323 c 3.36755,-3.19726 7.523249,-8.61293 9.234888,-12.03479 1.711638,-3.42187 3.989992,-6.9502 5.063008,-7.84072 2.512073,-2.08483 11.764504,-0.94691 13.687849,1.68341 0.770655,1.05394 1.710283,6.00315 2.088062,10.99826 0.377779,4.99511 1.564599,10.77935 2.637378,12.85387 2.544396,4.92032 10.637363,10.40485 20.482397,13.88072 7.316741,2.58323 9.687041,2.76598 32.846101,2.53249 29.2591,-0.29499 29.29974,-0.30774 38.57419,-12.10927 7.15071,-9.09911 11.41838,-11.4761 20.60423,-11.4761 h 6.18387 v -93.47632 -93.47631 l 7.24607,5.69283 c 5.15817,4.0525 8.8694,8.44191 12.87987,15.23354 11.45556,19.39965 11.21046,18.35861 11.21046,47.61509 0,23.65909 0.20556,26.20942 2.29914,28.52516 3.89171,4.30467 9.88041,5.46813 24.76527,4.81127 16.70243,-0.73707 24.08901,-3.61949 34.53481,-13.47628 7.74397,-7.30732 11.63047,-12.74105 26.19662,-36.62563 20.51776,-33.64368 25.91395,-35.20784 55.98296,-16.22756 4.41739,2.78837 8.2168,4.0815 13.51767,4.60077 11.22576,1.09963 12.2612,1.45364 17.80887,6.08859 3.2857,2.74513 6.44852,4.30932 8.7135,4.30932 3.30227,0 17.57727,-7.2524 30.5931,-15.54279 3.0264,-1.92765 6.77377,-5.40557 8.32747,-7.7287 2.63117,-3.9342 3.71046,-7.08779 7.75087,-22.64738 2.22368,-8.56341 6.02038,-12.52164 13.757,-14.34228 14.86362,-3.49783 21.30846,-9.57717 26.04361,-24.56659 1.72404,-5.45754 3.13461,-10.65315 3.13461,-11.54581 0,-3.93197 6.53349,-21.10708 9.87892,-25.96949 2.92343,-4.24905 5.1358,-5.87417 10.81685,-7.94558 10.5642,-3.8519 18.2996,-10.33204 26.27994,-22.01538 3.87044,-5.66637 8.2944,-11.65003 9.83103,-13.29703 4.20479,-4.50678 11.0076,-7.53392 18.98557,-8.44828 8.69021,-0.99598 25.10174,-7.90848 38.97487,-16.41614 8.10569,-4.97079 11.74633,-6.45325 17.24048,-7.0203 6.27143,-0.64727 7.29595,-0.41022 10.28968,2.38077 6.02956,5.6212 7.70353,5.93987 30.45714,5.79803 11.89294,-0.0741 21.92392,0.16558 22.29106,0.53272 0.36714,0.36714 0.1185,2.83049 -0.55251,5.47411 -0.87338,3.44084 -0.80069,5.81029 0.2558,8.33906 0.81172,1.94287 1.86565,6.02097 2.34205,9.06244 0.47641,3.04147 2.22448,7.59183 3.88459,10.1119 2.35689,3.5778 3.01839,6.19043 3.01839,11.92145 0,5.99451 0.79275,8.87058 4.32597,15.69455 2.37929,4.59528 5.64016,13.60851 7.24639,20.0294 2.69117,10.75799 2.99116,15.16031 3.82189,56.08548 l 0.90146,44.41112 -5.38288,-1.03963 c -10.29522,-1.9884 -18.79428,-1.38619 -23.32711,1.65286 -5.45181,3.6552 -15.82613,17.51575 -21.54856,28.78983 -6.21748,12.24941 -6.89014,20.271 -2.34954,28.01892 4.60343,7.85518 15.18803,18.10351 22.32679,21.6175 5.06416,2.49278 7.64649,2.92256 16.58808,2.76076 11.06996,-0.20032 17.20899,-2.1931 19.32382,-6.2727 0.60953,-1.1758 1.48252,-4.71932 1.93997,-7.8745 1.23076,-8.48879 2.379,-9.01624 15.79354,-7.25476 16.65175,2.18655 17.20865,2.34506 16.32548,4.64657 -0.42163,1.09872 -2.43286,12.82672 -4.46941,26.06222 -4.282,27.82854 -7.07952,39.12922 -12.19543,49.26378 -4.93493,9.77604 -9.11104,14.27548 -23.79232,25.63447 -6.85077,5.30047 -16.64014,14.02955 -21.75416,19.39794 l -9.29821,9.7607 -10.70072,26.74756 c -16.80571,42.00762 -22.45847,49.74964 -79.98149,109.54272 -42.60186,44.28306 -48.40495,49.42889 -59.07774,52.38653 -17.25778,4.78247 -20.0102,6.62043 -25.09019,16.75436 -3.34472,6.67231 -10.80383,12.08376 -18.93208,13.7349 -3.49897,0.71077 -14.65669,1.15632 -24.79494,0.99013 -15.96532,-0.26172 -19.05582,0.007 -23.08396,2.00855 -5.52835,2.74673 -7.16015,5.37609 -6.72882,10.84224 l 0.3197,4.05134 -7.37327,-0.44431 c -4.0553,-0.24438 -10.65131,-0.52088 -14.6578,-0.61444 l -7.28451,-0.17013 -3.27742,5.52996 c -3.22642,5.44389 -3.37186,5.52615 -9.3459,5.28604 -3.82463,-0.15372 -11.42121,-2.33685 -20.54485,-5.90426 -7.96199,-3.11319 -17.20855,-5.98395 -20.54791,-6.37944 -5.49778,-0.65113 -6.77862,-0.28266 -13.55369,3.89916 -6.62945,4.09192 -8.16819,4.55232 -13.50194,4.03982 -4.09994,-0.39396 -8.40976,-2.05361 -13.51371,-5.20395 -9.57805,-5.91191 -13.36521,-5.49514 -23.0536,2.53705 -3.82538,3.17144 -11.1027,7.76032 -16.17182,10.19753 -9.04128,4.34698 -9.56723,4.44296 -27.64977,5.04571 l -18.43318,0.61444 -2.08262,4.17171 c -1.14544,2.29444 -2.53219,4.62129 -3.08166,5.17075 -1.23472,1.23472 -17.34872,1.72889 -20.7874,0.63748 -2.52992,-0.80296 -3.71868,-0.12208 -15.29498,8.76046 -2.86277,2.19662 -6.44645,3.99386 -7.96373,3.99386 -1.51726,0 -7.1025,-3.13845 -12.41162,-6.97433 z M 549.00092,635.14077 c 1.81244,-1.12015 4.27511,-7.23598 5.11388,-12.69993 1.47376,-9.60035 5.94773,-12.38021 22.84373,-14.19372 10.55862,-1.13331 16.10846,-4.14155 22.03175,-11.9421 2.69096,-3.5438 7.17033,-8.93175 9.95416,-11.97322 7.50283,-8.19723 8.91636,-11.54387 8.32557,-19.71144 -0.37852,-5.23298 -1.5899,-8.82752 -4.74174,-14.07015 -6.06716,-10.09186 -23.67909,-28.51348 -28.21208,-29.50909 -2.00356,-0.44006 -3.95832,-1.31055 -4.3439,-1.93444 -1.38726,-2.24463 -8.33209,-1.06376 -15.16629,2.57883 -9.47199,5.04851 -26.80502,18.20695 -32.7462,24.85942 -2.67897,2.9997 -7.24907,8.62132 -10.15578,12.49253 -3.4013,4.52991 -6.9052,7.69715 -9.83102,8.88645 -19.7139,8.01337 -20.24158,9.92151 -7.60926,27.51507 4.1063,5.719 9.43713,14.54566 11.84629,19.61478 7.02233,14.77562 10.77803,18.82726 19.48106,21.01602 3.48504,0.87646 11.16209,0.33656 13.20983,-0.92901 z"
       id="path2"
       transform="scale(0.26458333)"
       inkscape:label="Fill trace" /></g></svg>
