<?xml version="1.0" encoding="UTF-8" standalone="no"?>
<!-- Created with Inkscape (http://www.inkscape.org/) -->

<svg
   width="210mm"
   height="297mm"
   viewBox="0 0 210 297"
   version="1.1"
   id="svg1"
   xml:space="preserve"
   inkscape:version="1.4 (e7c3feb1, 2024-10-09)"
   sodipodi:docname="India silhouette.svg"
   xmlns:inkscape="http://www.inkscape.org/namespaces/inkscape"
   xmlns:sodipodi="http://sodipodi.sourceforge.net/DTD/sodipodi-0.dtd"
   xmlns="http://www.w3.org/2000/svg"
   xmlns:svg="http://www.w3.org/2000/svg"><sodipodi:namedview
     id="namedview1"
     pagecolor="#ffffff"
     bordercolor="#000000"
     borderopacity="0.25"
     inkscape:showpageshadow="2"
     inkscape:pageopacity="0.0"
     inkscape:pagecheckerboard="0"
     inkscape:deskcolor="#d1d1d1"
     inkscape:document-units="mm"
     showgrid="false"
     inkscape:zoom="0.53360529"
     inkscape:cx="343.88714"
     inkscape:cy="527.54349"
     inkscape:window-width="1712"
     inkscape:window-height="1040"
     inkscape:window-x="0"
     inkscape:window-y="39"
     inkscape:window-maximized="0"
     inkscape:current-layer="svg1"><inkscape:grid
       id="grid1"
       units="mm"
       originx="0"
       originy="0"
       spacingx="0.99999998"
       spacingy="1"
       empcolor="#0099e5"
       empopacity="0.30196078"
       color="#0099e5"
       opacity="0.14901961"
       empspacing="5"
       enabled="true"
       visible="false" /></sodipodi:namedview><defs
     id="defs1" /><g
     inkscape:label="India Silhouette"
     inkscape:groupmode="layer"
     id="layer1"><path
       style="fill:#000000"
       d="m 86.532812,259.5117 c -1.787567,-0.37158 -3.734229,-1.7309 -5.233993,-3.65481 -1.453883,-1.86506 -1.845573,-2.62103 -2.980894,-5.75321 -2.113708,-5.83141 -3.570682,-9.0098 -5.053921,-11.02515 -0.35083,-0.47669 -1.250069,-1.46049 -1.99831,-2.18621 -4.343348,-4.21267 -7.647082,-10.39096 -8.992943,-16.81763 -0.682119,-3.25722 -1.688953,-5.2769 -3.762146,-7.54676 -2.9518,-3.23183 -3.704369,-4.41953 -5.675386,-8.95687 -0.916774,-2.11044 -2.522587,-5.59903 -3.568475,-7.75241 -2.231969,-4.59542 -2.937572,-6.40891 -3.076334,-7.90654 -0.08888,-0.95927 -0.02763,-1.27365 0.528653,-2.71352 0.377753,-0.97776 0.630358,-1.93741 0.632128,-2.40146 0.0028,-0.74366 -0.0365,-0.80966 -1.039608,-1.74438 -1.425431,-1.32825 -1.653559,-1.71494 -1.768519,-2.99773 -0.07061,-0.78785 0.01475,-1.53421 0.318435,-2.78434 0.388681,-1.60004 0.402464,-1.84396 0.218133,-3.86038 -0.209527,-2.29204 -0.195651,-2.25008 -1.63426,-4.94172 -0.761331,-1.42446 -0.930859,-3.27097 -0.542473,-5.90869 0.153364,-1.04157 0.235488,-2.10104 0.182497,-2.35438 -0.08812,-0.4213 -0.160314,-0.45844 -0.845539,-0.435 -1.143008,0.0391 -1.239648,0.18424 -0.897184,1.34749 0.677703,2.30196 -0.261432,6.92463 -1.709618,8.41519 -1.592065,1.63865 -3.615259,2.52284 -6.341036,2.77119 -3.003908,0.27369 -4.737806,-0.3469 -9.153984,-3.27636 -2.789757,-1.85057 -5.734685,-4.34569 -6.505726,-5.51202 -1.011857,-1.5306 -0.852544,-2.80834 0.450533,-3.61339 0.501616,-0.30991 0.641042,-0.33348 1.058191,-0.17892 0.264248,0.0979 0.684786,0.4378 0.934528,0.75532 0.621028,0.78957 1.325753,0.93897 2.625232,0.55655 1.380734,-0.40634 2.624429,-1.23161 3.440846,-2.28322 0.6809,-0.87705 1.338052,-2.22535 1.2126,-2.48793 -0.03511,-0.0735 -0.567351,0.24112 -1.182752,0.69913 -2.685804,1.99891 -5.131055,2.34689 -8.133693,1.15748 -2.820977,-1.11745 -6.287929,-4.56573 -6.744378,-6.70806 -0.159039,-0.74645 -0.136292,-0.85889 0.273475,-1.35182 0.398369,-0.47922 0.596029,-0.56463 1.818739,-0.78585 1.659187,-0.3002 1.999801,-0.60764 2.057557,-1.85716 0.04182,-0.90468 0.208975,-1.27184 0.736958,-1.61873 0.551236,-0.36216 1.240466,-0.34395 2.762031,0.073 1.97896,0.54223 3.485952,0.42009 4.943065,-0.40064 0.888976,-0.50072 1.238405,-0.60085 2.52202,-0.72271 0.974487,-0.0925 1.889261,-0.068 2.643776,0.0709 1.464907,0.26964 1.560025,0.17269 1.389546,-1.41632 -0.155683,-1.45109 -0.726435,-2.64316 -1.751242,-3.65764 -0.706236,-0.69912 -1.620405,-0.59561 -1.701487,-1.78379 -0.0353,-0.51727 0.140666,-2.83459 -0.971088,-3.44575 -0.781032,-0.42935 -0.231224,-1.32251 -0.0686,-1.2938 2.004339,0.35383 1.980922,5.1253 2.626773,5.60568 0.172595,0.12837 0.53134,0.2384 0.797211,0.24451 1.266895,0.0291 2.88919,4.33625 2.237961,5.9417 -0.263382,0.6493 -0.775707,1.07522 -1.357988,1.12894 -0.255392,0.0236 -1.087103,-0.0587 -1.848247,-0.1827 -1.670864,-0.27232 -2.699444,-0.0998 -4.129137,0.69255 -0.835997,0.46331 -1.20331,0.56355 -2.472892,0.67484 -1.252633,0.1098 -1.744832,0.0663 -3.078113,-0.2718 -0.872881,-0.22138 -1.682113,-0.35561 -1.798293,-0.29829 -0.11618,0.0573 -0.257312,0.55303 -0.313627,1.10158 -0.162663,1.58446 -0.896352,2.24304 -2.916334,2.61776 l -1.268113,0.23524 0.100765,0.57378 c 0.240844,1.37141 2.991853,4.19198 5.229345,5.36157 1.516965,0.79296 3.149835,1.11101 4.499535,0.87643 1.060655,-0.18434 2.135433,-0.74857 4.209,-2.20961 1.038699,-0.73187 1.638374,-0.73312 1.970534,-0.004 0.264584,0.58071 0.17376,1.31687 -0.313653,2.54227 -1.106702,2.78237 -4.730891,5.00339 -7.382246,4.52408 -0.570928,-0.10321 -1.585405,-0.85991 -1.796154,-1.33976 -0.06808,-0.155 -0.164105,-0.14841 -0.4341,0.0297 -0.25141,0.1659 -0.332622,0.38123 -0.295503,0.78353 0.110315,1.19563 2.404023,3.35196 6.492084,6.10327 4.159375,2.7993 5.716985,3.37643 8.44835,3.13031 2.469993,-0.22257 3.819554,-0.77301 5.354831,-2.18406 0.931308,-0.85595 1.359532,-1.92883 1.69036,-4.23507 0.181885,-1.26794 0.17366,-1.78073 -0.05123,-3.1938 -0.260575,-1.63731 -0.257827,-1.69547 0.100488,-2.12651 0.202616,-0.24373 0.673508,-0.55625 1.046428,-0.69448 1.208988,-0.44814 2.354364,-0.10805 2.862786,0.85002 0.324731,0.61193 0.322784,0.6999 -0.0746,3.37127 -0.37143,2.49688 -0.136639,4.13198 0.843995,5.87764 1.003092,1.78564 1.318752,2.79451 1.472506,4.7062 0.102914,1.27957 0.06389,1.9873 -0.171177,3.10469 -0.615789,2.92713 -0.658189,3.34222 -0.408277,3.99703 0.132696,0.34768 0.632322,0.96896 1.159959,1.4424 1.297823,1.16451 1.509027,1.54623 1.544392,2.79121 0.02348,0.82641 -0.101476,1.37736 -0.606229,2.67303 -0.43476,1.11601 -0.616501,1.8372 -0.574769,2.28083 0.113473,1.20627 0.969493,3.33143 3.226599,8.01037 1.23676,2.56378 2.801188,5.96288 3.476507,7.55355 1.62872,3.83634 2.764378,5.6381 5.144509,8.16194 2.422955,2.56924 3.592815,4.8891 4.326367,8.57929 0.412212,2.07367 0.995917,3.87895 2.018254,6.24203 1.795734,4.15077 3.923324,7.22789 7.108192,10.28053 2.363793,2.26566 4.126206,5.67177 6.885157,13.30653 0.785634,2.17406 1.182711,3.02527 1.904176,4.08198 1.551106,2.27186 2.850631,3.45159 4.552049,4.13243 1.565655,0.62651 3.840364,-0.003 5.023721,-1.39014 0.534739,-0.62685 0.723231,-1.0609 1.049958,-2.41778 0.517972,-2.15111 1.139558,-3.74424 1.623108,-4.16002 0.225661,-0.19404 1.201939,-0.5489 2.343108,-0.85167 1.075947,-0.28547 2.164208,-0.59582 2.418359,-0.68966 l 0.462091,-0.17062 -0.814585,-0.41538 c -1.344345,-0.68552 -1.40444,-1.6056 -0.167862,-2.57008 1.341636,-1.04641 1.537136,-1.46139 1.398147,-2.96778 -0.14361,-1.55648 -0.09574,-1.76861 0.482673,-2.13865 0.563515,-0.36052 1.447125,-0.44137 2.630295,-0.24068 0.5089,0.0863 0.95006,0.12714 0.98034,0.0907 0.0303,-0.0364 -0.12871,-0.35686 -0.35332,-0.71207 -0.77914,-1.23215 -0.8118,-1.91667 -0.18905,-3.96274 0.16278,-0.53479 0.14406,-0.57816 -0.48508,-1.12401 -1.01643,-0.88188 -1.33342,-1.49675 -1.33102,-2.58178 0.004,-1.69622 0.89488,-4.46698 2.44523,-7.6029 0.87823,-1.77639 0.89208,-1.82907 0.78109,-2.97037 -0.0622,-0.63905 -0.33896,-1.85484 -0.61514,-2.70177 -0.64082,-1.96506 -1.0955,-4.49714 -1.68113,-9.36203 -0.52629,-4.3719 -0.4962,-4.89641 0.40682,-7.0905 0.62156,-1.51023 1.44877,-2.43089 2.25062,-2.50488 0.78123,-0.0721 1.14367,0.0999 1.66297,0.78915 l 0.43175,0.57304 0.26668,-1.76317 c 0.30368,-2.0078 0.61996,-2.80221 1.3545,-3.40215 0.45081,-0.3682 0.72114,-0.43785 2.1935,-0.56516 2.47238,-0.21378 3.93021,-0.78187 4.76196,-1.85565 0.32876,-0.42442 0.34662,-0.60669 0.21506,-2.19453 -0.12228,-1.47573 -0.0992,-1.80398 0.1562,-2.22095 0.57069,-0.93173 1.39247,-1.54928 3.60639,-2.71012 2.85267,-1.49575 4.10064,-2.36026 5.24406,-3.63275 1.18579,-1.31964 1.65578,-2.17503 2.35823,-4.29208 0.83404,-2.51361 1.68613,-3.97506 3.77598,-6.47633 1.59234,-1.90582 1.93218,-1.84371 2.13697,-2.04113 2.02401,-1.95117 1.88032,-2.16564 2.14327,-2.42606 0.15436,-0.15318 1.36141,0.74334 -0.93495,2.39836 -0.0281,0.10665 -0.7009,0.88874 -1.49518,1.73799 -2.43819,2.6069 -3.3082,4.02685 -4.56349,7.44811 -1.5391,4.19474 -3.04745,5.69877 -8.72705,8.70206 -1.59452,0.84316 -2.37528,1.47128 -2.5179,2.02565 -0.0523,0.2033 -0.0338,1.04627 0.041,1.87328 0.12519,1.38288 0.1031,1.56219 -0.27501,2.23246 -0.81825,1.45052 -2.58314,2.305 -5.38101,2.60524 -1.04806,0.11247 -1.99232,0.26981 -2.09834,0.34966 -0.34336,0.25857 -0.59859,1.12255 -0.84255,2.85217 -0.28468,2.01823 -0.52469,2.55618 -1.16688,2.61543 -0.53749,0.0496 -0.80723,-0.11226 -1.50741,-0.90447 -0.28142,-0.3184 -0.61304,-0.56956 -0.73693,-0.55813 -0.33638,0.031 -0.98604,1.04806 -1.41032,2.20783 -0.67835,1.85427 -0.67814,2.40128 0.003,7.36445 0.71758,5.23011 0.99699,6.62402 1.78078,8.88395 0.78932,2.27588 0.71316,2.98101 -0.62055,5.7455 -1.15022,2.38418 -2.03708,4.90763 -2.21526,6.30329 -0.11373,0.89077 -0.0913,1.03878 0.23028,1.52321 0.19594,0.29511 0.41635,0.53101 0.48981,0.52424 0.0735,-0.007 0.3482,0.24829 0.61054,0.56681 0.61225,0.74337 0.68343,1.5159 0.25275,2.74341 -0.38467,1.0964 -0.32414,1.39822 0.55349,2.76006 0.49837,0.77333 0.55065,0.9419 0.40272,1.29858 -0.32246,0.77754 -0.79595,0.88597 -2.71054,0.62074 -1.61548,-0.2238 -1.81515,-0.11176 -1.60005,0.89783 0.3403,1.59717 -0.11755,2.80181 -1.478187,3.88921 -0.90555,0.7237 -0.899474,0.74067 0.440268,1.22923 0.850569,0.31017 1.157899,0.73247 1.013459,1.39261 -0.10631,0.4859 -1.035622,0.90102 -3.66263,1.6361 -1.273203,0.35626 -2.398223,0.72931 -2.500044,0.82901 -0.176832,0.17314 -1.01031,2.91051 -1.323766,4.34761 -0.246329,1.12934 -2.371765,3.31421 -0.645837,0.52722 1.36245,-2.20006 0.546387,1.6769 -2.691612,3.05735 -0.848647,0.3618 -2.898151,0.49374 -3.132284,0.44507 z m 48.204948,-91.1757 -0.068,-0.73669 2.48009,-2.37276 c 1.36404,-1.30501 3.49493,-3.25759 4.7353,-4.33906 2.44453,-2.13137 2.83089,-2.67725 2.31031,-3.26415 -1.18239,-1.33303 -1.22264,-1.40058 -1.29375,-2.17124 -0.0985,-1.0677 0.17274,-2.02581 0.95176,-3.36177 0.84056,-1.44151 1.79041,-2.57994 3.28291,-3.93467 2.29257,-2.08097 4.03923,-3.14336 4.70564,-2.86217 0.58509,0.24687 0.45012,0.88729 -0.43034,2.04182 -0.47346,0.62084 -0.79471,1.20454 -0.74945,1.3617 0.10557,0.36658 1.82593,0.56281 2.92033,0.3331 2.05484,-0.43128 3.11183,-1.10442 3.486,-2.22005 0.12865,-0.38357 0.32919,-0.99792 0.30977,-1.11593 -0.66649,-4.05076 0.69938,0.62104 -0.2885,-1.53821 -0.27354,-0.59789 -0.71855,-0.9702 -0.88782,-1.27808 -0.97152,-1.76704 0.46111,-1.03409 0.76408,-0.69522 0.66562,0.7445 1.57777,4.29894 1.29218,5.02252 -0.5345,1.35422 -1.45131,2.11465 -3.29404,2.73217 -2.11718,0.70949 -4.85699,0.44033 -5.41311,-0.53178 -0.29659,-0.51844 -0.30623,-0.6982 -0.0686,-1.27815 0.19093,-0.46593 0.18714,-0.47237 -0.14976,-0.25437 -0.7511,0.48601 -2.89088,2.62418 -3.68379,3.68102 -0.95889,1.27806 -1.66704,2.93463 -1.5938,3.72838 0.0365,0.39553 0.2491,0.73408 0.7831,1.24697 1.5175,1.45751 1.0513,2.63996 -2.03011,5.14907 -0.72622,0.59134 -2.07951,1.80792 -3.00731,2.70351 -0.9278,0.89559 -2.43125,2.31738 -3.34101,3.15954 l -1.65412,1.53119 z m 21.29915,-26.12115 c -0.22948,-0.0633 0.18132,0.0166 0.0654,0.0738 -0.13801,0.0681 -0.48983,-0.34385 -1.01963,-1.19389 -0.4449,-0.71382 -1.34302,-1.99993 -1.99581,-2.85802 -1.80511,-2.3728 -2.05771,-2.83451 -2.2609,-4.13255 -0.14981,-0.95703 -0.12517,-1.35145 0.14553,-2.32911 0.17923,-0.64734 0.31388,-1.30707 0.29921,-1.46606 -0.0543,-0.5885 -0.84709,-1.13852 -2.48018,-1.72068 -1.92771,-0.68719 -2.33563,-0.96551 -2.80025,-1.91064 -0.84262,-1.71404 0.23012,-4.46783 2.049,-5.25988 0.57054,-0.24845 1.93659,-0.32417 2.85575,-0.1583 0.52894,0.0955 0.45881,-0.15719 -0.26072,-0.93933 -0.8183,-0.88949 -1.55197,-1.26496 -2.54948,-1.30472 -1.59941,-0.0638 -2.3853,-1.09531 -2.47267,-3.24556 -0.0583,-1.43446 0.27097,-2.40306 1.02902,-3.02713 0.81476,-0.67076 1.28583,-0.60918 3.47191,0.45385 1.09314,0.53157 2.72996,1.18382 3.63738,1.44945 2.6452,0.77434 3.43557,1.80735 3.07148,4.01443 -0.28903,1.75204 0.0672,1.7669 5.33595,0.2225 6.75447,-1.97989 9.63386,-2.57018 10.77726,-2.20941 0.39756,0.12545 1.10311,0.43881 1.12528,0.6221 0.0466,0.38546 0.27066,1.05126 0.30783,1.45455 0.16809,1.8237 -0.39493,3.26382 -0.51499,3.44013 -0.2642,0.38798 -0.45264,-0.56792 -0.42537,-2.15778 0.0305,-1.7781 -0.0903,-2.05902 -0.94918,-2.2073 -1.07626,-0.18581 -4.17956,0.50162 -9.88241,2.18912 -3.81587,1.12913 -5.35374,1.37357 -6.13542,0.97518 -0.85281,-0.43463 -1.03781,-0.93965 -0.86193,-2.35288 0.1356,-1.08957 0.12089,-1.22554 -0.18742,-1.7328 -0.29124,-0.47917 -0.57994,-0.63108 -2.22915,-1.17296 -1.04202,-0.34238 -2.66128,-0.99514 -3.59836,-1.45059 -1.10397,-0.53655 -1.81578,-0.78748 -2.02191,-0.71277 -0.4533,0.16429 -0.87788,1.42468 -0.79232,2.35203 0.0854,0.92573 0.55696,1.89414 0.9066,1.86188 0.13679,-0.0126 0.63564,0.0234 1.10856,0.08 1.84269,0.2207 4.15723,2.70881 3.77674,4.05996 -0.15169,0.53866 -0.79293,0.68713 -2.25301,0.52163 -1.31015,-0.1485 -1.39778,-0.13933 -1.98305,0.20751 -0.69215,0.41017 -1.36239,1.55816 -1.44899,2.48185 -0.039,0.41621 0.0507,0.76858 0.2997,1.17722 0.30501,0.50054 0.57574,0.65803 1.90976,1.11097 0.8549,0.29026 1.82023,0.68233 2.14519,0.87126 1.08917,0.63326 1.48526,2.00626 0.98934,3.42949 -0.34918,1.00213 -0.37419,2.11258 -0.0663,2.94182 0.1346,0.36249 0.84376,1.44414 1.5759,2.40366 1.24776,1.63529 4.01993,6.30206 3.15466,5.41913 -0.0267,-0.0272 -0.49295,0.17316 -0.84802,-0.27112 z m 23.85089,-2.85378 c -2.10002,-0.82684 -2.74708,-1.99548 -3.57522,-6.45715 -0.53843,-2.90082 -0.92897,-3.80242 -1.80002,-4.15552 -0.76773,-0.31122 -1.49538,-0.13101 -1.85523,0.45945 -0.3407,0.55905 -0.30886,1.26438 0.20089,4.44969 0.31945,1.99621 0.31932,2.07169 -0.005,2.56511 -0.29012,0.44179 -0.41814,0.5049 -0.9773,0.4818 -1.27472,-0.0527 -3.11814,-1.51897 -4.21013,-3.34884 -1.10578,-1.85299 -1.34055,-4.0093 -0.64633,-5.9363 0.55592,-1.54313 1.06936,-2.29709 2.13427,-3.13409 0.96788,-0.76073 2.22703,-1.94373 2.42422,-1.54423 0.17383,0.35218 1.7963,-2.03051 1.88583,-2.46732 0.57434,-2.80224 0.20325,1.41364 0.23743,1.78404 0.015,0.16285 -1.505,1.81638 -1.94491,2.05502 -2.33894,1.26882 -2.95452,1.89092 -3.58295,3.62089 -0.35316,0.97217 -0.395,1.3257 -0.2921,2.46803 0.10869,1.20664 0.18896,1.44511 0.84492,2.51003 0.77271,1.25448 1.86339,2.31549 2.74946,2.67468 l 0.54223,0.21981 -0.23142,-1.33162 c -0.12728,-0.7324 -0.33192,-1.90839 -0.45475,-2.61333 -0.44947,-2.57946 0.28723,-4.06716 2.09673,-4.23411 1.0511,-0.097 1.80567,0.15882 2.48344,0.84187 0.72661,0.73228 0.9882,1.39047 1.38176,3.47659 0.80484,4.26617 1.15415,5.23152 2.18247,6.03138 0.59156,0.46014 1.71667,0.80415 2.06614,0.63174 0.8845,-0.43638 0.54264,-3.89108 -1.06417,-10.75376 -0.62298,-2.66075 -0.71506,-3.24948 -0.59854,-3.82677 0.11222,-0.55595 0.21313,-0.68922 0.54507,-0.71984 0.22405,-0.0207 0.40049,-0.11209 0.39209,-0.20315 -0.008,-0.091 0.0965,-0.17587 0.23313,-0.18847 0.13662,-0.0126 0.25527,0.0516 0.26368,0.14263 0.008,0.0911 0.20085,0.14844 0.42767,0.12751 0.22682,-0.0209 0.93316,0.25201 1.56964,0.60653 0.72513,0.4039 1.33883,0.62783 1.64357,0.59971 0.26749,-0.0247 0.49322,0.0296 0.50162,0.12069 0.008,0.0911 0.90673,-8.16964 1.27237,-8.06594 1.00896,0.28614 0.11533,8.10951 -0.15128,8.46484 -0.1487,0.19818 -0.53911,0.46861 -0.8676,0.60097 -0.79602,0.32074 -1.48356,0.15272 -3.1755,-0.77602 -1.46059,-0.80175 -1.69569,-0.74547 -1.44612,0.34614 0.072,0.31477 0.37314,1.60186 0.66928,2.86018 1.14384,4.86038 1.60305,8.08849 1.39614,9.81444 -0.22719,1.8951 -1.39452,2.53946 -3.26576,1.80269 z m 6.44216,-20.93835 c -0.15841,-1.70267 -0.41322,-3.76042 -0.56626,-4.57279 -0.32931,-1.74811 -0.17002,-2.69337 0.81149,-4.81545 0.74931,-1.62007 0.7798,-2.82862 0.10599,-4.20196 -0.96908,-1.97516 -0.69,-2.6163 2.67385,-6.142868 3.44267,-3.609213 3.52258,-3.672519 4.64867,-3.68298 l 0.89996,-0.0084 -0.14096,-0.614836 c -0.10695,-0.466478 -0.0399,-0.895478 0.27804,-1.777884 0.23044,-0.639676 0.35627,-1.209121 0.27962,-1.265434 -0.0767,-0.05631 -0.67276,-0.181423 -1.32468,-0.278023 -2.27926,-0.337741 -3.61278,-0.982726 -4.30936,-2.084309 -0.32618,-0.515837 -0.45657,-1.002724 -0.59859,-2.235244 -0.19508,-1.692985 -0.46266,-2.308297 -1.34907,-3.102189 -0.26393,-0.236385 -0.70315,-0.521328 -0.97603,-0.633206 -0.47441,-0.194496 -0.5347,-0.173245 -1.3749,0.484634 -2.17225,1.700876 -3.87333,2.344663 -6.63093,2.509528 l -1.73535,0.103749 -0.11676,1.068743 c -0.25751,2.35701 -1.70216,4.480277 -4.70471,6.914699 -1.43187,1.160937 -1.88054,1.641139 -2.55779,2.737555 -0.9124,1.477116 -1.73158,2.200753 -3.16716,2.797768 -0.52825,0.219684 -0.9569,0.444987 -0.95255,0.500667 0.004,0.0557 0.39257,0.11118 0.8627,0.12334 1.5424,0.0399 1.9403,0.6171 2.06492,2.99558 0.11109,2.12023 -0.055,2.60236 -1.02947,2.98809 -1.2681,0.50197 -4.5554,1.27986 -7.2241,1.70947 -1.42096,0.22875 -3.29912,0.64399 -4.17369,0.92277 -1.03258,0.32914 -2.19941,0.5672 -3.32787,0.67895 -1.50893,0.14942 -1.84771,0.13002 -2.57268,-0.14733 -1.46155,-0.55914 -2.63754,-1.76723 -3.57961,-3.67732 -0.42805,-0.86789 -0.57185,-1.43773 -0.80118,-3.17474 -0.20366,-1.54254 -0.34105,-2.1343 -0.50635,-2.18082 -0.72321,-0.20351 -2.49909,1.32708 -3.04737,2.62647 -0.26162,0.62 -0.27784,0.95249 -0.11974,2.45348 0.20646,1.96006 0.62969,3.4263 1.5508,5.3726 0.74163,1.56707 0.86178,2.3706 0.44966,3.00705 -0.47965,0.74071 -1.25086,0.98719 -3.72874,1.1917 -4.71014,0.38874 -13.6149,0.31377 -15.43057,-0.12992 -1.07092,-0.26169 -2.45926,-0.82453 -4.3038,-1.74478 -1.9398,-0.96777 -4.44764,-1.38441 -9.17821,-1.52484 -3.31881,-0.0985 -4.39346,-0.31024 -6.67872,-1.31579 -4.43479,-1.95139 -7.329423,-2.8646 -11.89607,-3.75304 -3.728292,-0.72533 -4.403094,-1.01139 -5.146253,-2.18155 -0.293698,-0.46245 -0.461434,-1.0593 -0.628222,-2.23539 -0.267655,-1.88733 -0.163011,-3.273716 0.361204,-4.785431 0.458017,-1.320816 0.888076,-2.045726 2.195033,-3.699964 0.559031,-0.707575 1.002867,-1.433396 0.986302,-1.612934 -0.05531,-0.599485 -0.722332,-1.066277 -2.349174,-1.643992 -6.904075,-2.451737 -9.544301,-3.779929 -12.145138,-6.109735 -2.594551,-2.324174 -3.832746,-4.177918 -4.028288,-6.030891 -0.245373,-2.325175 1.643196,-4.598705 2.893291,-3.483051 0.203803,0.181884 0.587006,0.84153 0.851562,1.465879 0.420492,0.992352 0.535984,1.136473 0.917923,1.145451 0.902845,0.02122 2.157655,-1.971767 1.794665,-2.850433 -0.08123,-0.196638 -0.79327,-1.086881 -1.582304,-1.978318 -3.294374,-3.721928 -3.94604,-4.710559 -4.085822,-6.198527 -0.06628,-0.705552 -0.0091,-1.139136 0.207542,-1.574614 0.395595,-0.795075 2.874841,-3.43613 4.625686,-4.927583 1.538388,-1.310471 1.839907,-1.782878 1.963808,-3.076802 0.172464,-1.801078 -0.684802,-3.241065 -2.334551,-3.921448 -1.301206,-0.536638 -2.573397,-0.69696 -3.811047,-0.480268 -0.923206,0.161638 -4.100457,1.472245 -8.209933,3.386574 -3.137564,1.461581 -7.231422,1.400577 -9.344903,-0.13925 -1.034793,-0.753923 -1.444647,-1.467589 -1.753851,-3.053924 -0.149304,-0.765987 -0.431915,-1.587197 -0.698327,-2.029194 -0.94862,-1.573834 -3.081168,-2.822361 -5.237299,-3.066243 -1.800493,-0.203656 -4.507634,0.670587 -9.194055,2.969123 -3.659825,1.795024 -4.298746,2.163759 -4.876009,2.814048 -0.807136,0.909242 -0.181588,2.78973 1.169093,3.514465 0.364237,0.195438 1.464404,0.585578 2.444816,0.866978 2.106338,0.604566 3.836673,1.494917 5.004915,2.5753 1.079934,0.998716 1.435498,1.562573 1.499374,2.37772 0.06158,0.785817 -0.29974,1.313658 -1.248251,1.823545 -2.140271,1.150536 -2.319138,1.278254 -2.534815,1.809955 -0.160563,0.395831 -0.171852,0.754849 -0.04127,1.31248 0.341413,1.457925 1.956055,5.913332 2.46244,6.794799 1.527994,2.659794 4.174497,4.266387 8.751315,5.312599 2.134466,0.487917 2.569693,0.699048 2.622578,1.27223 0.05369,0.581896 -0.587684,1.047224 -2.167674,1.572687 -2.477221,0.823859 -3.546283,1.66264 -3.449942,2.706808 0.02385,0.258521 0.306866,0.992413 0.628919,1.630872 1.260013,2.49793 1.189931,3.224337 -0.500106,5.18364 -1.265259,1.466847 -1.651227,2.240927 -1.815733,3.64155 -0.139668,1.189154 -0.375245,1.726674 -1.103207,2.517209 -0.575208,0.624651 -0.885941,0.792127 -2.528123,1.362579 -0.905898,0.314686 -1.72131,1.188811 -1.842462,1.975121 -0.05251,0.34083 -0.09004,1.1827 -0.08339,1.87083 0.02039,2.11025 -0.578762,3.23315 -2.781948,5.21379 -1.338545,1.20334 -1.870608,2.10061 -2.088401,3.52188 -0.355162,2.31771 -1.101515,3.77615 -2.620873,5.12141 -1.786794,1.58206 -4.417291,2.47298 -5.915452,2.0035 -0.858117,-0.26891 -1.207323,-0.81401 -1.430706,-2.23329 -0.106333,-0.67559 -0.265846,-1.26441 -0.354473,-1.30848 -0.312812,-0.15555 -1.920525,1.0295 -2.558979,1.88622 -0.355657,0.47725 -1.186469,1.99749 -1.846248,3.37831 -2.086606,4.36698 -2.079454,4.6859 0.108798,4.85104 2.288891,0.17274 3.197896,1.53378 2.616083,3.91702 -0.39215,1.60634 -0.278443,1.51832 0.885603,1.55719 0.594349,0.0198 0.580778,-0.14521 0.635804,0.45117 0.06765,0.7332 -0.235019,0.8179 -1.006546,0.28169 -0.368387,-0.25604 -0.728503,-0.35021 -1.179916,-0.30856 -0.638143,0.0589 -0.650707,0.0491 -0.705906,-0.54915 -0.03091,-0.335 0.05798,-1.12053 0.197538,-1.74562 0.392025,-1.75593 0.03293,-2.27725 -1.667549,-2.42089 -1.555398,-0.13137 -2.665824,-0.83587 -2.749657,-1.74447 -0.05468,-0.59262 0.569882,-2.29033 1.762974,-4.7922 1.451113,-3.04292 2.621829,-4.63403 4.000938,-5.43762 1.908336,-1.11197 2.931764,-0.51172 3.149409,1.84717 0.08947,0.96973 0.132803,1.06723 0.536856,1.20808 1.709418,0.59589 5.269659,-1.54516 6.323678,-3.80292 0.181781,-0.38938 0.437735,-1.31895 0.568786,-2.06569 0.131052,-0.74675 0.327935,-1.58122 0.437518,-1.85437 0.304105,-0.75802 1.332715,-2.02513 2.370506,-2.92014 1.015839,-0.87608 1.834,-1.9886 2.004526,-2.7257 0.05946,-0.25704 0.118084,-1.15866 0.130267,-2.0036 0.02391,-1.6581 0.185057,-2.23531 0.846074,-3.030485 0.555263,-0.667956 1.314518,-1.123535 2.484291,-1.490659 1.302692,-0.408839 2.053468,-1.300763 2.202437,-2.616502 0.143357,-1.266176 0.765928,-2.79918 1.461101,-3.597777 0.314683,-0.3615 0.827345,-0.946019 1.139247,-1.298931 0.4931,-0.557933 0.558078,-0.739396 0.497983,-1.390716 -0.04118,-0.446273 -0.316194,-1.231918 -0.680367,-1.943604 -1.021045,-1.995381 -0.929132,-3.239643 0.324459,-4.392302 0.52602,-0.483668 2.549254,-1.490117 3.110093,-1.547102 0.15054,-0.0153 0.37281,-0.104126 0.493933,-0.1974 0.157045,-0.120937 -0.118025,-0.237231 -0.958817,-0.405366 -1.374922,-0.274947 -4.041668,-1.250946 -5.223299,-1.911669 -1.978928,-1.106541 -3.476927,-2.636724 -4.356062,-4.449649 -0.648397,-1.337106 -2.110305,-5.609146 -2.341206,-6.841558 -0.319072,-1.703014 0.434463,-2.935312 2.312198,-3.78127 1.837588,-0.82787 1.946569,-1.183343 0.723064,-2.358479 -1.409382,-1.353664 -2.771195,-2.086337 -5.030666,-2.706562 -1.608061,-0.441413 -2.656998,-0.893595 -3.199213,-1.379136 -1.356542,-1.214751 -1.863127,-3.147663 -1.165499,-4.447045 0.466646,-0.869161 1.998762,-1.825668 6.10533,-3.811583 4.667262,-2.257064 7.650244,-3.109513 9.718548,-2.777277 1.598449,0.256762 3.092201,0.920771 4.266895,1.896737 1.315641,1.093069 1.963455,2.186551 2.326381,3.926833 0.320557,1.537114 0.647466,2.116169 1.493957,2.646247 1.071913,0.671239 2.51932,0.888179 4.662627,0.698842 1.795315,-0.158596 2.00202,-0.213556 3.586304,-0.953561 4.809415,-2.246432 6.98643,-3.121379 8.270886,-3.324086 2.940713,-0.464088 5.592487,0.49819 6.794977,2.465768 0.468879,0.767204 0.572878,1.11141 0.674531,2.232489 0.15562,1.716259 -0.287791,3.015303 -1.360069,3.984535 -2.569891,2.322927 -3.608741,3.331132 -4.524751,4.391278 l -1.037512,1.200768 0.153289,0.806511 c 0.205297,1.080143 0.879845,2.11033 2.892042,4.416802 2.497443,2.862682 2.604262,3.002321 2.761214,3.609583 0.227397,0.879823 -0.04293,1.934414 -0.724247,2.825371 -0.75818,0.991474 -1.368469,1.396103 -2.224879,1.475121 -0.864599,0.07977 -1.527437,-0.523932 -2.037201,-1.855458 -0.206753,-0.540048 -0.438571,-1.013061 -0.51515,-1.051141 -0.07658,-0.03808 -0.318658,0.217121 -0.537953,0.567112 -1.080792,1.724927 -0.06128,4.119343 2.880268,6.764597 2.888702,2.597727 5.565089,4.013882 10.816018,5.723071 3.284805,1.069211 4.256671,1.786713 4.390916,3.241692 0.06329,0.685906 -0.0041,0.829284 -0.951049,2.024926 -1.928745,2.435166 -2.515703,3.703019 -2.684703,5.79907 -0.108063,1.340265 0.192333,3.321015 0.600325,3.958425 0.420504,0.65696 1.318219,0.98949 4.095501,1.51705 4.621578,0.87789 8.096767,1.96988 12.297977,3.86431 2.03262,0.91656 3.24019,1.16115 6.02313,1.21995 4.85101,0.10249 7.98576,0.63924 10.18575,1.74408 2.21932,1.11455 3.01346,1.41562 4.34153,1.64595 3.12702,0.54232 15.75977,0.25707 17.07239,-0.38549 0.53129,-0.26008 0.49717,-0.48388 -0.35204,-2.30954 -1.42761,-3.06908 -2.0298,-6.69284 -1.39665,-8.40454 0.60636,-1.63928 2.54889,-3.389157 3.90073,-3.513886 0.45385,-0.04188 0.78342,0.05766 1.19199,0.360006 0.55772,0.412715 0.56614,0.436197 0.68074,1.89906 0.0638,0.81465 0.22701,1.90953 0.36264,2.43307 0.37875,1.4619 1.37876,3.05582 2.38951,3.80863 1.45295,1.08217 2.70711,1.08473 6.15124,0.0126 0.84827,-0.26407 2.61614,-0.65291 3.92858,-0.86409 2.61487,-0.42076 5.59307,-1.08425 6.81058,-1.51728 0.60329,-0.21457 0.7965,-0.37095 0.85502,-0.69204 0.10368,-0.56882 -0.0783,-2.6939 -0.24959,-2.91495 -0.0766,-0.0988 -0.5732,-0.21919 -1.10354,-0.26742 -1.70973,-0.15548 -2.41728,-0.67595 -2.20956,-1.625334 0.0774,-0.353539 0.28626,-0.477091 2.03173,-1.201644 1.39718,-0.579974 2.16441,-1.203472 2.75694,-2.240455 0.78011,-1.36527 1.16576,-1.785508 2.96255,-3.22831 1.80609,-1.450273 3.36698,-3.257488 3.84275,-4.449175 0.15018,-0.37617 0.33512,-1.236051 0.41098,-1.910846 0.19947,-1.774449 0.26177,-1.816252 3.03396,-2.03557 2.80275,-0.221736 3.8273,-0.585699 5.51967,-1.960823 0.98315,-0.798846 1.2965,-0.96506 1.92946,-1.023461 1.0575,-0.09757 2.34316,0.715493 3.20656,2.027863 0.55932,0.850169 0.65865,1.151397 0.88598,2.687045 0.14082,0.951244 0.36431,1.886243 0.49664,2.077774 0.40439,0.585312 1.69972,1.061309 3.70415,1.361165 1.60833,0.240602 1.95443,0.348261 2.18496,0.679657 0.25407,0.365238 0.23305,0.498075 -0.29014,1.833282 -0.31022,0.791731 -0.55203,1.569779 -0.53734,1.728994 0.0251,0.271758 0.46438,0.627282 1.5229,1.232463 0.62667,0.358287 0.71686,1.266638 0.16902,1.702381 -0.42662,0.339327 -0.19576,0.393143 -2.54807,-0.593981 -0.47009,-0.197268 -1.01758,-0.343642 -1.21663,-0.325276 -0.21619,0.01995 -0.94266,0.641641 -1.80414,1.543942 -0.79322,0.830802 -2.06899,2.163316 -2.83505,2.961139 -0.76606,0.79783 -1.48898,1.71302 -1.60649,2.03377 -0.20172,0.55064 -0.18686,0.64318 0.26642,1.65875 0.30429,0.68177 0.51284,1.45456 0.5696,2.11066 0.0812,0.93899 0.009,1.23765 -0.77771,3.21693 -0.96069,2.4169 -0.97834,2.67408 -0.39167,5.70696 l 0.25541,1.32043 -0.294,2.27512 -0.6611,-2.20352 0.15945,2.23612 c 0.24081,3.37712 -0.0165,2.92988 -0.34484,-0.59939 z"
       id="path1"
       sodipodi:nodetypes="cssssssssssssssssssssssssssssssssssssscsscssssssssccsscssscsssssssscsssssssssssssssssssssssssssssssscssssssssscscssssscsssssssssssccsssscsssssssscsssscsssssssssssssssccssssssssssssssssssssssssssccccsssssssscscssssssscssssssssssssscssssssssssscccssscsssssssssssscsssssssssscscssscssssssscccssssscsssssssssscsssscsssssssssssssssssssssssssssssssssscssssssssssssssssssssssssssssssssssssssssssssssssssssssssssssssssssssssssssssssssssssssssscssssssssssscssssssssssssssssssssscsssssssssssssssssssssssssscccsccss"
       inkscape:label="Trace outline" /></g><path
     style="fill:#ffffff;stroke:#000000;stroke-width:9.39465"
     d="m 321.99269,972.28265 c -9.30837,-5.80187 -14.85175,-14.55937 -24.51528,-38.72969 -10.12943,-25.33557 -12.8302,-29.84017 -27.75816,-46.29767 -12.67426,-13.97286 -21.44497,-30.53776 -27.54698,-52.02684 -5.89315,-20.75349 -8.75973,-26.43328 -19.98974,-39.60705 -6.74866,-7.91678 -12.75047,-18.87598 -24.79465,-45.27466 -8.73987,-19.15625 -16.34936,-36.21364 -16.90997,-37.90535 -0.56061,-1.6917 0.14868,-6.38618 1.5762,-10.43221 3.7614,-10.66094 3.2411,-14.92848 -2.63621,-21.62236 -5.16442,-5.88196 -5.21864,-6.16243 -4.21602,-21.81138 0.93041,-14.52171 0.60962,-16.81488 -3.82039,-27.31111 -4.34915,-10.30464 -4.71414,-12.75968 -3.62493,-24.38313 1.1884,-12.68201 1.12499,-12.96405 -3.37624,-15.01494 -3.36928,-1.53515 -5.7163,-1.5758 -8.83883,-0.15308 -3.92647,1.78902 -4.29967,3.11048 -4.88256,17.28849 -0.61997,15.07998 -0.7458,15.45651 -7.11606,21.29436 -7.71425,7.06953 -19.42615,9.56397 -30.01264,6.39217 -13.58047,-4.06881 -47.095572,-29.92119 -43.478763,-33.538 0.564737,-0.56473 1.972234,-0.0814 3.127775,1.0742 3.286173,3.28616 15.849494,2.47356 22.268871,-1.44039 7.028377,-4.28526 12.840357,-13.34942 12.849347,-20.03942 0.01,-7.15331 -3.72316,-7.53667 -13.432021,-1.37949 -14.075898,8.92667 -27.014285,6.1557 -40.390635,-8.65032 -7.690219,-8.51217 -8.13107,-10.77633 -2.098234,-10.77633 5.167355,0 11.5406,-5.68433 11.5406,-10.29313 0,-2.81854 1.344295,-3.10563 11.510296,-2.45831 8.072804,0.51404 13.72974,-0.15514 18.942009,-2.24067 5.027214,-2.01149 9.652465,-2.59839 14.295525,-1.81395 8.34998,1.41072 12.06743,-1.15387 12.06743,-8.32503 0,-7.23475 -4.34393,-16.82961 -8.66677,-19.14311 -2.08019,-1.11329 -4.4987,-5.17029 -5.64191,-9.46418 -2.18181,-8.19489 -6.18706,-13.72974 -9.935435,-13.72974 -1.595156,0 -2.388037,-2.31588 -2.388037,-6.97509 0,-8.02112 -3.592392,-12.55516 -9.947666,-12.55516 -2.402177,0 -4.79486,-1.11344 -5.317072,-2.47429 -1.283421,-3.34455 10.223052,-25.76664 15.9728,-31.12539 4.293811,-4.00183 4.618368,-4.06078 4.618368,-0.83893 0,5.78513 5.078992,11.36107 10.309672,11.31842 6.88922,-0.0562 18.66509,-5.8544 22.94792,-11.29913 2.02572,-2.5753 4.63997,-8.67094 5.80946,-13.54588 1.47902,-6.16527 4.53459,-11.54211 10.03724,-17.66238 5.51572,-6.1348 8.18425,-10.83644 8.8137,-15.52869 1.8388,-13.70748 2.2811,-14.47939 10.33915,-18.04385 7.02471,-3.10737 8.15076,-4.45089 10.57645,-12.61908 1.4931,-5.0278 4.73995,-11.5483 7.21523,-14.49 5.10617,-6.06834 5.67409,-12.4865 1.90343,-21.51097 -2.35227,-5.62976 -2.31043,-6.47299 0.44387,-8.94529 1.67251,-1.50128 6.43654,-4.08182 10.58672,-5.73453 12.18446,-4.85217 10.2647,-8.45505 -7.44778,-13.97752 -18.37157,-5.72796 -25.47042,-11.85579 -31.06365,-26.8146 -6.98034,-18.66861 -6.86057,-20.77596 1.49508,-26.30546 4.7123,-3.11846 7.27711,-6.14097 7.27711,-8.57576 0,-5.99511 -11.16355,-15.00947 -23.79274,-19.21219 -12.79161,-4.25677 -15.80903,-6.84517 -14.96018,-12.83312 0.44619,-3.1475 4.06511,-5.8433 15.67172,-11.67419 8.30035,-4.16991 19.17277,-8.87413 24.16093,-10.45384 16.44296,-5.20734 28.51616,0.4961 34.0479,16.08438 4.43567,12.49961 10.15086,16.17985 24.93121,16.05421 9.97435,-0.0848 14.65568,-1.32911 29.60274,-7.86858 10.06199,-4.40219 20.60658,-7.80283 24.33666,-7.84858 9.12911,-0.11196 16.35072,5.54673 17.01301,13.33103 0.45902,5.39486 -0.81714,7.35615 -11.98447,18.41851 -17.51005,17.34552 -17.3216,20.88241 2.35801,44.25573 6.67649,7.9296 6.78593,8.27838 3.9539,12.60059 -1.60196,2.44489 -3.2732,4.44526 -3.71385,4.44526 -0.44067,0 -2.0407,-2.3969 -3.55562,-5.32643 -3.28506,-6.3526 -8.44066,-6.92991 -12.32767,-1.38043 -11.42461,16.31093 10.7661,39.25324 53.6075,55.42316 7.07972,2.67215 12.87221,5.65669 12.87221,6.63232 0,0.97563 -2.56134,5.34048 -5.69188,9.69967 -4.66547,6.49656 -5.82354,9.99391 -6.42213,19.39454 -1.31822,20.70226 0.0735,22.03499 30.35974,29.07321 8.57038,1.99166 22.15278,6.33783 30.1831,9.65813 12.1559,5.02609 18.18458,6.33148 36.00536,7.79621 17.67775,1.45296 23.60337,2.72427 34.03167,7.30127 12.51155,5.49136 12.90189,5.54198 42.73433,5.54198 46.26324,0 47.42753,-0.60936 40.2757,-21.07951 -5.65495,-16.18566 -5.73929,-24.97928 -0.2887,-30.09984 2.2601,-2.12324 4.60035,-3.86044 5.20055,-3.86044 0.60022,0 2.04303,4.58441 3.20625,10.18758 2.84302,13.69481 12.16983,23.54648 22.29198,23.54648 7.66317,0 56.70774,-10.10054 61.5116,-12.66809 2.23394,-1.19399 3.10708,-3.84752 3.10708,-9.44263 0,-9.56778 -1.35959,-13.39881 -4.75506,-13.39881 -1.63243,0 -0.40572,-2.23331 3.29704,-6.00243 27.97525,-28.47679 31.56546,-32.84726 32.67309,-39.77402 l 1.12419,-7.03036 9.76752,-1.0081 c 6.17858,-0.63769 12.29222,-2.67886 16.63862,-5.55518 11.34938,-7.51066 14.43935,-5.85479 17.73297,9.50285 1.8355,8.55863 2.64615,9.65823 9.37173,12.71212 4.04935,1.83869 8.8538,3.36062 10.6766,3.38206 2.56476,0.0302 3.07209,0.94231 2.2436,4.03382 -0.58882,2.19715 -1.0815,4.99353 -1.09483,6.21417 -0.0133,1.22064 -1.25692,2.21934 -2.76352,2.21934 -3.5104,0 -18.4508,13.9473 -24.88306,23.22901 -4.74538,6.84761 -4.86306,7.51789 -2.76024,15.72265 1.83265,7.15057 1.76298,9.60758 -0.42054,14.83349 -1.90266,4.5537 -2.55349,12.59756 -2.38432,29.46887 0.27212,27.14109 -0.4214,28.68203 -11.00324,24.44801 -6.43733,-2.5757 -7.40667,-2.58673 -9.88106,-0.11235 -1.50894,1.50894 -2.74352,2.90399 -2.74352,3.10011 0,0.1961 1.99107,9.92635 4.42461,21.62277 6.42726,30.89161 5.83062,36.3071 -3.21615,29.19091 -3.4793,-2.7368 -5.21846,-6.76195 -7.46922,-17.2867 -4.13418,-19.33196 -11.82139,-25.90051 -21.98241,-18.78346 -3.92242,2.74737 -4.10962,3.69282 -3.07623,15.53542 l 1.10037,12.61003 -5.27121,-5.75661 c -6.21539,-6.78774 -7.93702,-12.41927 -6.36251,-20.81214 0.88779,-4.73229 3.42729,-7.86263 11.15337,-13.74829 10.91268,-8.31319 13.93689,-14.20324 12.15882,-23.68111 -1.70854,-9.10729 -6.51545,-9.49135 -32.81919,-2.62206 -12.27741,3.20628 -24.86925,6.20641 -27.98189,6.66695 -5.55522,0.82196 -5.66958,0.69597 -6.21417,-6.84709 l -0.55482,-7.68446 -16.61112,-6.76064 c -9.60371,-3.90866 -8.43176,2.43066 -14.18597,5.8331 -5.81501,3.43839 2.69251,14.88001 7.97508,19.21487 1.24277,1.01982 -18.9017,9.2183 -18.9017,17.94625 0,7.3091 2.35341,10.01585 12.8169,14.74121 6.46613,2.92015 6.59787,3.1758 6.36789,12.35819 -0.26167,10.4478 1.16882,13.64657 14.51497,32.45755 8.29419,11.69038 10.57916,18.727 7.5529,23.25928 -2.22535,3.33275 -8.80612,6.03609 -14.69374,6.03609 -4.67874,0 -5.41184,-0.52641 -4.32709,-3.10708 5.07305,-12.06909 1.94477,-14.13003 -9.09323,-5.99073 -20.29075,14.96218 -29.03317,32.32155 -20.83806,41.37705 2.80724,3.10197 1.73769,4.4269 -21.61139,26.77195 -29.17419,27.9197 -36.62294,36.95158 -41.71485,50.5808 -5.52583,14.79072 -10.85958,20.75683 -26.75182,29.92346 -15.59613,8.99585 -18.47277,12.57137 -17.06981,21.21686 1.22961,7.57717 -2.2613,10.72184 -14.835,13.36357 -11.53346,2.42318 -15.19121,5.25495 -16.6191,12.86626 -0.92799,4.94668 -1.77303,5.66919 -6.61305,5.65424 -4.0363,-0.0125 -6.57736,1.35584 -9.32086,5.01908 -6.21998,8.3052 -4.62979,37.54045 3.93937,72.42428 1.32243,5.3834 0.72213,8.44544 -3.65485,18.64251 -6.49035,15.12063 -8.39712,29.57514 -4.4821,33.97724 1.50681,1.69429 3.01801,7.23944 3.35822,12.32254 l 0.61856,9.24202 -6.21417,0.52311 c -5.86896,0.49404 -6.24547,0.91763 -6.77774,7.62501 -0.37461,4.72062 -2.1424,8.75916 -5.27219,12.04445 -4.12639,4.33136 -4.4257,5.39558 -2.42049,8.60641 2.7321,4.37481 3.10625,3.98825 -6.8353,7.06199 -7.665,2.36989 -8.143,2.92821 -11.76344,13.74051 -2.07557,6.19863 -5.27422,12.77067 -7.10807,14.60452 -5.15217,5.15217 -13.06309,5.90217 -19.55762,1.85415 z"
     id="path2"
     transform="scale(0.26458333)"
     sodipodi:nodetypes="sssssssssssssssssscscssssssssssssssssssssssssssssssssssssssssssssssssssssssssssssssssscsssssssssssssssssssscssssssscsssssssssssssssssssssssscssssssss" /></svg>
