<?xml version="1.0" encoding="UTF-8" standalone="no"?>
<!-- Created with Inkscape (http://www.inkscape.org/) -->

<svg
   width="210mm"
   height="297mm"
   viewBox="0 0 210 297"
   version="1.1"
   id="svg1"
   xml:space="preserve"
   inkscape:version="1.4 (e7c3feb1, 2024-10-09)"
   sodipodi:docname="Southamerica.svg"
   xmlns:inkscape="http://www.inkscape.org/namespaces/inkscape"
   xmlns:sodipodi="http://sodipodi.sourceforge.net/DTD/sodipodi-0.dtd"
   xmlns="http://www.w3.org/2000/svg"
   xmlns:svg="http://www.w3.org/2000/svg"><sodipodi:namedview
     id="namedview1"
     pagecolor="#ffffff"
     bordercolor="#000000"
     borderopacity="0.25"
     inkscape:showpageshadow="2"
     inkscape:pageopacity="0.0"
     inkscape:pagecheckerboard="0"
     inkscape:deskcolor="#d1d1d1"
     inkscape:document-units="mm"
     inkscape:zoom="0.47140994"
     inkscape:cx="371.22679"
     inkscape:cy="597.14481"
     inkscape:window-width="1104"
     inkscape:window-height="1040"
     inkscape:window-x="0"
     inkscape:window-y="39"
     inkscape:window-maximized="0"
     inkscape:current-layer="layer1" /><defs
     id="defs1" /><g
     inkscape:label="SouthAmerica trace line"
     inkscape:groupmode="layer"
     id="layer1"><path
       style="fill:#212121;stroke:none"
       d="m 82.730837,45.813297 0.519135,0.508046 -0.519135,-0.508046 m 12.632272,1.185442 c 0.718299,0.08143 1.086568,-0.137224 1.211314,-0.846745 l -1.211314,0.846745 m -37.377681,0.846744 c -0.12079,1.156935 -2.685268,2.98066 -3.80952,3.319688 -0.657938,0.198414 -1.427599,-0.07605 -2.048502,0.171809 -0.487095,0.194445 -0.494478,0.790102 -0.944934,1.001602 -0.467287,0.219417 -1.008104,-0.08414 -1.487706,0.112251 -1.41244,0.578395 -2.14064,2.22659 -2.611161,3.523395 l 0.519134,1.862837 c -1.447201,0.305022 -3.476036,2.446338 -4.153075,3.725674 l 0.692179,0.846745 -2.076538,-1.354791 c -0.404206,1.12913 1.46056,3.153357 -0.865224,3.217628 l -0.237401,1.645136 1.572357,1.942426 0.741582,2.508996 -0.692179,0.169349 c 0.378762,1.640567 0.457854,3.106555 0.682166,4.726615 0.195447,1.411578 0.905993,2.156221 -0.509122,3.40213 l -0.173044,1.52414 -0.519135,-0.169349 c -1.051835,0.976774 -2.858553,1.036538 -1.730448,2.87893 -0.781662,0.208833 -1.209933,0.36675 -1.384359,1.185442 l 0.69218,0.169349 c -0.726822,1.458628 -2.906723,1.404219 -3.61111,2.773211 -0.311705,0.605807 0.265562,1.447941 0.06129,2.137905 -0.234264,0.79126 -0.711687,2.335555 -1.11785,3.02645 -0.224829,0.38244 -0.766072,0.59884 -0.842125,1.059629 -0.196553,1.190837 1.266,2.49957 0.145407,3.53462 0.713768,1.827301 2.885523,1.363845 4.153076,0.508046 -0.274383,0.636195 -0.252261,1.443972 -0.64745,2.014532 -0.874236,1.262182 -5.722461,4.931662 -2.640402,6.452912 l 1.038269,2.54023 c -0.632272,0.10334 -1.140159,0.64729 -0.44396,1.16179 1.028119,0.75981 2.623941,0.63047 3.682409,1.43424 1.034115,0.78527 1.570067,1.84833 2.402465,2.7919 1.994604,2.26099 3.551179,4.49174 5.299099,6.97454 1.209758,1.71837 2.808305,3.1269 3.840496,4.87988 1.043766,1.77263 4.417422,3.13054 3.216152,5.4504 l 0.519135,0.84674 4.499165,3.34059 11.413348,4.0598 1.266325,1.21393 3.24045,1.71596 1.1304,4.57242 0.946138,9.65288 h -0.519134 c -0.04696,0.79014 -0.206098,1.57368 0.692179,1.86284 l 0.531555,5.08047 -0.306704,1.69348 0.383209,2.03219 -0.398429,6.60461 -0.437819,1.86218 0.876303,2.19566 -0.449299,3.22416 1.766765,5.92721 -1.619491,14.90269 c -1.077549,0.0822 -1.085301,0.82326 -0.731438,1.70865 0.595402,1.48974 2.139819,3.65667 2.222481,5.23466 0.09047,1.72712 -1.025177,3.40924 -0.506719,5.26496 0.39169,1.40199 2.362795,3.30328 2.995707,1.00094 h 0.346089 c 0.08503,0.72007 -0.07936,1.44865 0.865224,1.3548 -0.92287,1.35574 -0.265561,3.88913 -0.0474,5.41916 0.05945,0.41692 -0.132773,0.90694 0.0081,1.3041 0.200405,0.56479 1.213241,0.56624 1.214789,1.25143 0.0013,0.59429 -0.775354,0.93229 -0.926916,1.49524 -0.287181,1.06672 0.08832,2.31821 0.09748,3.40058 -1.299568,-0.95253 -1.765355,-0.81594 -3.287852,-0.3387 0.121757,1.18619 -0.734706,1.88016 -0.677894,2.87161 0.05411,0.94422 1.210342,0.92185 1.023984,-0.16203 0.637786,0.18357 1.869452,0.94577 2.076538,0 l 0.865224,0.50805 -1.038269,2.54023 2.595672,-0.3387 v 0.6774 l -1.903493,-0.16935 c -0.125442,0.82429 0.486388,1.09366 1.211314,1.35479 -0.890778,1.65841 0.520006,3.43138 0.865224,5.08047 -0.773262,0.5038 1.454325,3.28107 2.422628,3.38697 v 0.16935 c -0.598364,0.56037 0.08407,1.17573 0.692179,1.35479 0.02853,2.69025 1.677232,4.23443 4.153075,4.98599 0.693891,0.21064 1.852163,0.75374 2.491121,0.13812 0.602985,-0.58096 -0.109241,-2.55177 0.104552,-3.43062 l 0.692179,0.16935 c -1.055506,1.94848 0.875089,1.57814 2.076538,1.35479 -1.054777,0.89642 -1.631495,1.29579 -0.692179,2.54023 h -1.730449 v 1.0161 l -1.903493,0.33869 0.34609,0.84675 c 0.964326,-0.28166 4.315062,-0.62361 5.0183,0 l -1.211314,0.3387 0.34609,0.50804 -0.173045,0.50805 4.326118,0.3387 -1.21131,-2.54024 c 1.41923,0.31919 6.30679,0.54086 5.88352,-1.69348 -2.91139,0.52708 -5.01885,-2.03527 -7.26788,-3.38698 h 0.519134 c -0.269495,-1.70802 -1.663444,-1.38756 -2.941761,-1.86284 v -0.3387 l 2.249582,0.16935 c -0.38031,-1.79007 -2.698629,-3.01841 -2.490328,-5.08712 0.119464,-1.18645 1.432277,-1.50673 2.039824,-2.37952 0.658878,-0.94651 -0.05684,-2.20762 0.432084,-3.20234 0.646785,-1.31588 2.713395,-2.23798 2.878205,-3.73233 0.0792,-0.71834 0.23514,-1.86846 -0.37707,-2.40786 -0.52942,-0.46648 -1.28698,-0.19379 -1.914172,-0.31021 -0.898927,-0.16689 -2.217739,-1.26931 -2.416354,-2.15778 -0.315555,-1.41151 1.19151,-3.02595 2.337573,-3.60713 0.410113,-0.20799 1.102143,-0.0521 1.399843,-0.43568 0.91785,-1.18254 0.11446,-3.00861 0.34221,-4.28389 0.19122,-1.07073 1.28263,-1.4909 1.74822,-2.37088 l -1.55741,-0.50805 1.38436,-0.6774 c 0.63061,2.95745 3.39221,-1.756 0.86269,-1.70159 -0.34657,0.007 -0.72146,0.22258 -1.03573,0.3468 v 0.3387 l 0.51913,0.16935 v 0.16935 c -1.97362,-0.52053 -3.16952,-2.5324 -2.76872,-4.57242 1.92767,0.53139 5.46424,1.79154 6.6904,-0.69321 0.33705,-0.683 -0.26106,-1.18286 -0.30376,-1.84636 -0.0569,-0.88425 0.46539,-1.9433 0.53516,-2.87959 l -0.86523,-0.3387 v -1.01609 c 0.9712,0.50724 2.22512,0.40826 3.28785,0.20188 2.59062,-0.50306 6.0766,-1.2931 8.10748,-3.0403 0.54057,-0.46509 0.57707,-1.15858 0.94773,-1.734 0.75308,-1.16913 1.86558,-2.56746 1.44552,-4.05392 -0.22141,-0.78351 -1.2716,-0.64824 -1.64126,-1.37335 -0.49146,-0.964 0.67332,-1.71742 -0.24688,-2.66594 -1.05298,-1.08538 -3.36806,-1.05882 -3.07515,-2.91447 1.22413,0.83886 1.64502,0.63445 2.94176,0.96109 0.89963,0.22661 1.69628,0.90725 2.62504,1.1069 0.59926,0.12882 1.11628,-0.27709 1.70108,-0.32327 1.88535,-0.14891 2.88026,0.3197 4.49236,-1.11188 0.79613,-0.70698 1.02013,-1.68321 1.63845,-2.49567 0.63546,-0.83501 1.53654,-1.4268 2.03074,-2.37089 0.39273,-0.75024 0.45764,-1.64007 0.95147,-2.34214 0.91467,-1.30037 2.4247,-2.02612 3.43834,-3.24637 1.2866,-1.54885 1.83087,-3.33369 2.72332,-5.08047 0.80397,-1.57357 2.28135,-2.38355 3.19305,-3.78068 1.15129,-1.76429 0.96363,-5.5051 0.22111,-7.39634 l 1.03827,-2.20153 h -0.34609 l 0.17305,-0.6774 h 0.17304 v 0.50805 l 2.08655,-2.09361 4.69157,-2.96569 1.62231,-0.20358 2.84748,-1.51108 -0.34609,-0.84674 h 7.78702 v -1.18544 -0.16935 c 0.78535,-0.53284 2.23095,-0.98458 2.83735,-1.63455 0.65618,-0.70333 0.30502,-2.32855 0.87884,-3.25893 0.98411,-1.59563 2.59343,-3.03894 3.35301,-4.77705 0.41987,-0.96074 -0.10672,-2.02557 0.15729,-3.03064 0.29762,-1.13303 1.29269,-1.69804 1.66689,-2.71206 0.41187,-1.1161 0.21582,-2.67648 0.53382,-3.89254 0.55939,-2.13912 0.003,-3.77685 0.12659,-5.92721 0.0429,-0.74781 0.62116,-1.8057 -0.0363,-2.37088 v -1.3548 c 0.70896,-0.49143 0.98076,-1.38072 0.86522,-2.20153 l 0.69218,1.01609 c 2.71441,-0.90317 3.17916,-4.62158 4.87464,-6.54946 0.56428,-0.64163 1.3765,-0.89675 1.99774,-1.45632 2.86644,-2.58188 5.42348,-6.28253 4.94874,-10.28389 -0.20652,-1.740728 -0.81195,-5.07621 -2.03955,-6.396705 -1.24161,-1.335565 -3.82948,-0.437863 -5.42608,-1.385634 -3.3048,-1.961796 -5.69647,-5.418377 -9.53135,-6.624078 -1.41385,-0.44452 -3.05077,0.0351 -4.49917,0.05017 -0.86476,0.009 -1.91659,-0.294397 -2.7842,-0.416571 -2.37015,-0.333778 -3.21697,-1.55459 -5.71048,-0.468583 -0.14553,-0.66464 -0.64161,-0.488635 -1.21131,-0.338698 l -0.51914,-1.016093 -1.03826,-2.201535 -1.73045,0.338698 c 0.13356,-0.849494 -0.51305,-0.868884 -1.21132,-0.677395 l -1.5574,-1.185442 -1.38436,0.338697 c -0.27489,-0.831012 -1.01512,-0.830144 -1.77985,-1.066658 -3.64385,-1.12698 -4.07097,2.582384 -6.69934,3.945589 -0.8357,-1.137999 -3.35778,0.869174 -4.57995,-0.526611 -0.37587,-0.429263 -0.55239,-2.241887 -1.15617,-2.176707 -1.38598,0.149627 -2.78376,2.893256 -4.30048,1.856574 1.73585,0.189421 2.19752,-2.564048 3.06887,-3.69692 1.12733,-1.465678 4.17182,-3.292917 4.193,-5.279231 0.0188,-1.758958 -1.71417,-1.221722 -2.54667,-2.377664 -1.23007,-1.708001 -1.18479,-3.875013 -2.16774,-5.580409 -0.38039,-0.659968 -1.08326,-1.413376 -1.85528,-1.016754 -0.59052,-1.045779 -1.59277,-1.403681 -2.59568,-2.017819 -2.39996,-1.469626 -5.06999,-2.3468 -7.96006,-2.539447 -0.99371,-0.06623 -3.60757,-0.205071 -3.98003,0.831591 l -3.60457,-0.481772 -1.75982,-0.70367 c -0.62904,-1.125843 -2.01335,-1.72183 -3.28785,-1.524139 0.41249,-1.408829 -0.6705,-2.161679 -1.73045,-2.935511 -2.16018,-1.577082 -4.909321,-2.34802 -7.440926,-1.298211 l 0.34609,-1.862837 c 0.434059,-0.237216 0.795791,-0.626231 0.287746,-1.060001 -0.841206,-0.718224 -4.214329,-1.810598 -4.959956,-0.802836 l -1.038269,-0.846744 -0.519134,-0.846745 c 1.060929,-8.06e-4 2.567746,-0.02559 2.941761,-1.185442 -1.836784,0.465048 -4.914962,1.103497 -6.748747,0.677396 0.451596,-0.67814 0.04248,-1.493317 -0.519135,-0.677396 -0.638108,-0.130091 -0.99251,-0.135549 -1.211314,0.508047 l 1.384359,0.338698 v 0.169349 l -1.038269,0.169348 0.34609,0.677396 c -1.463831,0.457461 -2.143991,1.345054 -3.806986,1.156562 -1.144041,-0.129657 -2.015317,-1.187199 -3.115472,-1.104943 -1.54793,0.115724 -4.078784,1.386151 -5.526625,1.000403 -0.865519,-0.230602 -0.975204,-1.736467 -1.914303,-2.213939 -1.052289,-0.535024 -2.495282,0.142743 -3.392133,-0.373593 -0.659237,-0.379526 -0.623528,-1.712176 -1.618689,-1.583593 -1.300239,0.168005 -0.554965,1.748105 -0.352902,2.441707 l -4.153075,1.693489 -0.173045,0.677395 -0.173045,-0.846744 -1.038269,-1.185442 c 0.844122,-0.318749 1.702042,-0.573661 2.221277,-1.357933 0.653623,-0.987255 -0.344019,-1.752612 -1.355387,-1.647347 -0.735494,0.07655 -1.444572,0.626871 -2.077204,0.973094 m 18.169706,-0.677395 h 0.519135 l -0.173045,-0.338698 -0.34609,0.338698 m -16.093168,9.314186 c 0.334287,1.38582 1.974041,0.880089 2.434108,-0.218343 0.751479,-1.794184 -2.282297,-2.835497 -1.530428,-4.336297 0.403715,-0.805855 1.754455,-1.278158 2.557217,-1.571852 1.965226,-0.719009 4.247646,-1.941972 6.401855,-0.975575 1.091437,0.489627 0.875258,2.085624 2.080013,2.290654 1.688919,0.28743 4.461523,-0.897433 6.226941,-1.115797 2.1091,2.664351 5.740216,0.345479 8.133107,-0.508046 V 49.877669 L 85.845644,49.70832 v -0.169349 l 4.845255,-0.508046 v 0.169349 c -1.040693,0.0028 -2.05666,-0.0018 -2.249583,1.185442 l 1.038269,-0.169349 v 0.508046 h -1.038269 c 0.565607,0.676011 1.056547,0.438381 1.730449,0 l 1.384358,1.52414 0.173045,-0.846744 1.211314,0.846744 c 0.493311,-1.078937 2.084617,-0.280732 2.941762,0.169349 v 0.169349 c -1.143032,1.025003 -0.784036,2.195271 -2.595673,2.201535 l 2.249583,0.846744 c 0.881268,-1.564038 3.292583,-0.60684 4.499166,-0.10297 1.32275,0.552389 3.70269,1.150837 4.03598,2.813213 0.14912,0.743775 -0.22119,1.965848 -0.40204,2.70892 0.59342,-0.338987 0.6159,-1.34677 1.25084,-1.503219 2.10026,-0.517535 3.97783,2.256441 3.76746,3.874103 0.41788,-0.395816 0.43694,-1.022998 0.84052,-1.383278 0.81905,-0.731164 3.05418,0.06433 3.83169,0.536534 0.12223,-1.535572 1.49207,-0.794154 2.56375,-0.823343 1.81549,-0.04943 3.05661,-0.843313 2.97368,1.500738 0.28102,-0.338305 0.62922,-1.096902 1.08567,-1.216533 1.50003,-0.393108 4.72854,1.235531 4.9709,2.740673 l 0.34609,-0.338698 c 0.73597,0.262685 0.9737,0.626438 0.69218,1.354791 l 0.17305,0.169348 0.69218,-0.846744 0.51913,1.693489 0.51914,-0.338698 0.51913,0.508047 -0.34609,-1.016094 c 1.20072,0.592577 2.94636,5.324091 2.76872,6.604605 0.94424,0.262272 4.03446,1.298376 2.24958,2.370884 0.32038,0.902312 -0.66909,1.628784 -1.16044,2.368279 -0.58545,0.881144 -1.5273,1.4147 -2.19765,2.232896 -0.93582,1.142236 -1.55278,2.551457 -2.17934,3.866268 -0.821,-0.225764 -1.85238,0.180677 -2.07654,1.016093 l 1.38436,-0.338698 c 0.8178,0.938013 3.62773,-1.637404 4.49916,-2.032186 l 0.69218,2.709581 2.42263,-0.169348 0.51913,0.846744 1.38436,-1.185442 -0.34609,2.709581 2.59567,-3.556325 h 0.17305 l 0.86522,0.508046 0.69218,-0.677395 v -0.169349 l -0.69218,-0.169349 0.17305,-1.354791 2.94176,-0.846744 h 0.17304 l 0.34609,0.508047 h 1.38436 l 3.4609,1.693488 0.69218,-0.169349 0.51913,0.677396 0.51914,0.508046 0.17304,-0.677395 2.07654,1.185442 -0.86522,1.016093 0.69217,0.508046 0.51914,-0.677395 -1.03827,3.556326 1.38436,-1.52414 3.4609,-1.293249 2.94176,1.031122 3.80698,0.939523 c 1.77815,-2.412994 6.33396,0.807445 7.9594,1.824159 2.28823,1.431279 3.80319,3.713705 6.40332,4.731328 1.34748,0.527375 3.34533,-0.265517 4.38688,0.934416 0.70846,0.816211 0.78094,2.022966 1.0539,3.009725 0.8235,2.977062 1.64861,9.739052 -2.67206,10.668982 0.16562,1.5522 -2.23612,3.75739 -3.80699,3.21762 l 0.17305,1.0161 h -0.69218 l 0.34609,0.67739 c -0.90034,0.25722 -0.79289,1.12696 -1.09929,1.86284 -0.50839,1.22101 -1.46732,2.81579 -2.7077,3.38698 -0.16473,-0.54238 -0.56874,-1.11165 -1.03827,-0.50805 l -0.51913,-0.16935 0.51913,0.84674 c -2.3152,2.29874 -0.33879,6.5097 -0.63877,9.31419 -0.22268,2.08171 -1.19662,3.77458 -0.91863,5.92721 -2.38504,1.37855 -1.23405,3.21603 -1.87211,5.24067 -0.56886,1.80503 -2.51455,3.33842 -3.43299,4.92758 -0.56825,0.98322 -0.25976,2.09323 -0.68725,2.98099 -0.62126,1.29016 -2.89671,0.77849 -2.83293,2.76955 l -3.11481,0.16935 0.34609,-0.84674 c -0.66899,0.13677 -0.9275,0.3303 -0.86523,1.01609 -1.25648,-0.0136 -4.13943,-0.84926 -4.32612,1.01609 -0.94583,0.13508 -1.81283,0.68752 -2.24958,1.52414 -2.43801,-0.56644 -4.81455,1.75557 -6.57236,3.13792 -0.88468,0.69571 -0.9704,1.55406 -2.25292,1.4345 -0.11325,0.51717 -0.34725,0.49717 -0.86523,0.50805 l 0.69218,0.67739 -0.69218,0.6774 0.34609,1.01609 h -0.17304 l -0.34609,-0.3387 0.51913,1.18545 c -0.22026,1.22197 0.77053,5.67782 -0.69218,6.09656 l 0.17305,0.84674 c -2.90109,1.47285 -3.35076,4.60635 -4.84526,7.11265 h -0.17304 c 0.44393,-2.02575 -0.25553,-1.61782 -1.9035,-2.54023 0.13835,1.19919 0.0858,2.29614 -0.62274,3.3645 -0.72848,1.09835 -2.21695,1.85828 -1.62684,3.40945 v 0.16935 l -1.2742,2.87893 -3.7441,4.91112 -0.51913,-0.16935 c -0.79834,1.35496 -1.79008,0.94693 -3.11481,0.88241 -0.60917,-0.0297 -1.14054,0.32616 -1.73045,0.30055 -1.00782,-0.0437 -1.85787,-0.75721 -2.76872,-1.05922 -1.28567,-0.42628 -2.10542,0.0908 -3.01039,-1.30918 -0.73979,-1.14446 0.0471,-2.00075 0.30765,-3.05495 0.14461,-0.5851 -0.23205,-1.30618 -0.41206,-1.85617 h -0.17305 l 0.17305,2.03219 c -1.44365,0.77652 -0.60915,2.52592 -0.34609,3.72567 l -0.51914,0.16935 c 0.9174,1.59937 2.66121,1.57726 3.72434,2.91447 0.95471,1.20083 -0.96373,3.21793 1.8131,3.52079 -6.7e-4,5.71492 -5.88353,8.11894 -10.90183,8.75714 -1.06727,0.13572 -2.083,-0.23773 -3.1148,-0.12035 0.1995,0.78169 0.94053,1.77004 0.93839,2.52508 -0.002,0.62898 -0.49297,1.20094 -0.4939,1.87799 -7.3e-4,0.52828 0.40529,0.99645 0.34088,1.51682 -0.11988,0.96869 -1.70159,1.39568 -2.51582,1.47998 -1.0573,0.10944 -3.07104,-1.21486 -3.92489,-0.53054 -1.07368,0.86054 0.4974,4.29853 1.67531,4.47704 l -0.86523,1.86284 1.38436,0.3387 v 0.16934 c -2.07779,1.06664 -1.19379,2.34724 -1.42389,4.09313 -0.10092,0.76571 -0.61507,1.19237 -0.4796,2.00343 -2.296352,0.11684 -5.161636,3.57055 -3.077821,5.52488 0.519388,0.48711 1.329437,1.07561 2.039551,1.23169 0.57636,0.12668 1.47052,-0.16803 1.84781,0.41045 0.58304,0.89392 -0.46301,1.56677 -0.98259,2.14717 l 1.21132,-0.16935 -3.190242,4.06425 -0.325536,2.76695 -1.675569,-0.56529 0.173045,0.67739 -0.69218,0.50805 h 1.384359 l -1.557403,3.21763 h 0.692179 l 0.519134,1.18544 -1.211313,0.67739 1.557403,-0.16934 1.211314,1.35479 v 0.16935 c -1.135649,-0.0197 -1.729361,-0.0874 -2.249583,1.01609 l -2.249583,1.01609 c 0.49705,2.04321 0.887056,4.25702 -1.903493,3.04828 l 0.34609,-0.67739 h 0.173045 v 0.67739 l 0.34609,-1.18544 0.865224,-1.52414 -2.941762,-0.3387 c -0.222152,-0.72229 -0.339758,-1.78128 -0.897533,-2.32437 -0.648263,-0.63117 -1.560551,-0.76889 -1.525095,0.29219 l -2.076538,-1.52414 v -0.3387 l 1.038269,-0.84675 -0.346089,-1.01609 -1.038269,0.3387 0.346089,-0.6774 -0.865224,-0.16935 v -0.16934 l 0.69218,-0.16935 -0.34609,-0.6774 -0.692179,0.16935 0.346089,-0.50805 h -0.519134 v -0.16935 l 0.34609,-0.16934 0.865224,0.50804 -1.038269,-1.01609 0.173045,-1.35479 c -0.605367,0.32652 -0.67048,0.69811 -0.69218,1.35479 H 84.63433 l -0.519134,-1.69349 0.692179,-0.50805 -0.692179,-0.33869 0.865224,0.16935 -1.038269,-1.69349 c 0.28659,0.0542 2.593449,0.37053 1.557404,-0.16935 v -0.16935 l 0.346089,-0.3387 -1.557403,-1.18544 v 1.01609 l -0.692179,-0.16935 0.346089,-0.50804 -1.038269,-0.50805 c 2.068089,-1.68766 -1.720588,-1.29455 -1.903493,-2.37088 l -1.384358,0.84674 1.211313,-1.01609 v -1.69349 l 0.865225,0.3387 v -0.50805 l 0.692179,0.84675 -0.692179,0.50804 c 0.868609,-0.1483 1.30986,-0.0889 1.384358,0.84675 l 1.038269,-2.03219 h -0.519134 l 0.692179,-1.35479 h -0.865224 l 0.173045,-0.6774 1.384358,0.16935 v -0.50804 l -1.557403,-0.84675 c 0.917843,-0.64031 1.273987,-1.27047 1.211313,-2.37088 l -1.557403,-0.16935 0.692179,-1.18544 v -0.3387 c -1.113791,-0.60434 -0.718045,-2.42895 -0.865224,-3.55633 l 0.865224,-0.33869 -0.692179,-1.86284 -0.692179,0.3387 c 0.299966,-0.78417 1.231217,-1.22452 0.519134,-2.03219 l -0.173045,1.01609 c -1.310019,-0.66418 -1.382737,0.54088 -2.595672,0.6774 l 0.34609,-0.84675 -0.692179,0.3387 c -0.965694,-1.60462 -0.65496,-3.12197 -0.865225,-4.91111 l 0.69218,-0.3387 -0.114828,-1.86284 -2.480845,-6.09656 c 1.701948,-0.26411 1.484575,-4.03611 1.620696,-5.41916 0.321749,-3.26911 1.344767,-6.53119 1.056292,-9.82223 -0.191898,-2.18927 -2.033255,-4.40509 -1.784393,-6.60461 0.09647,-0.85265 0.623755,-1.46493 0.510057,-2.37088 -0.108744,-0.86649 -0.901018,-1.55975 -0.925574,-2.37755 -0.04458,-1.48478 0.630308,-3.21114 0.713007,-4.7351 0.131378,-2.42094 0.131811,-4.92568 0.105349,-7.282 -0.008,-0.71178 -0.476233,-1.33203 -0.570676,-2.03219 -0.132461,-0.98201 0.03074,-2.08425 -0.183058,-3.04161 -0.0962,-0.4308 -0.494509,-0.74517 -0.464524,-1.20727 0.275394,-4.24381 0.461403,-8.19885 -1.130131,-12.34731 -0.334213,-0.87115 -0.24581,-2.30711 -0.905549,-2.98216 -0.738809,-0.75596 -1.975308,-1.05218 -2.839349,-1.65781 -0.503756,-0.3531 -0.710219,-0.95366 -1.266325,-1.25954 -4.655728,-2.56083 -10.178117,-2.66169 -14.478081,-6.06467 -1.458778,-1.15447 -0.932514,-2.08988 -1.612283,-3.44656 -0.717813,-1.43259 -2.183302,-2.57196 -3.235644,-3.75442 -0.840447,-0.94436 -1.067114,-1.74347 -2.296985,-2.34214 -0.08336,-1.31135 -1.451943,-2.15919 -2.115526,-3.21763 -2.070301,-3.30221 -4.315749,-6.78545 -7.328502,-9.33065 -1.021801,-0.86323 -3.824292,-0.99521 -4.226512,-2.18507 1.313452,-0.47407 0.518287,-1.51641 -0.34609,-2.03219 l -0.603922,-2.87893 3.514841,-4.405548 0.03084,-3.892543 -0.519134,1.185442 c -1.196044,1.091258 -1.331413,1.17895 -2.941762,0.508046 0.640925,-1.303378 -0.04051,-2.724424 -0.34609,-4.064372 l 1.038269,-1.185442 0.692179,-0.169349 c -1.065476,-0.952608 0.01622,-1.480231 0.306568,-2.540233 0.200231,-0.730978 -0.04287,-1.357209 -0.306568,-2.032186 l 1.557404,-0.338697 c 0.16337,-0.868968 1.083428,-1.087021 1.903493,-1.185442 l -0.173045,-2.201535 h 1.038269 l -0.122174,-1.834206 2.270545,-1.298624 2.177749,-4.487868 h -0.519134 l -0.69218,-1.185442 c 0.280636,-1.167643 -0.05276,-2.704 -0.692179,-3.725675 1.391459,-1.262943 -0.536799,-4.002376 -1.730448,-4.911117 l 0.34609,-1.185441 1.730448,-1.185442 -1.038269,-2.032187 c 0.69901,0.42821 1.397542,0.834879 1.384358,1.693489 1.414267,0.1199 0.788456,-1.209339 0.519135,-2.032186 0.943469,-0.715743 1.394289,-1.643668 2.188696,-2.443941 0.392103,-0.394988 1.134419,-0.453037 1.378751,-0.98159 0.835701,-1.80787 -0.266465,-4.93764 3.008256,-5.041912 l -0.173045,0.846745 c 1.335558,-0.206518 0.832741,-1.271998 1.661147,-1.851612 0.492999,-0.344941 1.540304,-0.09048 2.143304,-0.274924 1.285775,-0.393293 3.723485,-2.218837 4.155611,-3.461976 l 0.519134,0.169349 c 0.370139,-0.626293 2.490957,-1.585682 2.205255,-0.162693 -0.225141,1.121337 -1.8194,0.928132 -2.140896,1.874476 -0.275489,0.810919 0.924682,1.71412 1.038269,2.521938 0.238808,1.698367 -2.323114,2.612441 -0.06436,4.064372 m 5.710479,-7.959396 -0.865224,0.169349 c -0.5482,-1.246508 0.757631,-1.548719 0.865224,-0.169349 m 19.72711,-0.169349 -0.34609,0.338698 v -0.338698 h 0.34609 m -19.554065,0.846745 -0.519134,-0.169349 0.519134,0.169349 m 14.535765,0.169349 h 0.865224 l -0.173045,-0.508047 -0.692179,0.508047 m -29.07153,3.556325 -0.173045,0.169349 0.173045,-0.169349 m 9.34442,0 c 0.461953,0.966583 3.057562,4.706005 -0.346089,4.064373 l 0.173045,-0.677396 c -1.811294,-0.815301 -1.149226,-2.373902 0.173044,-3.386977 m 34.08983,2.201535 -0.173045,0.169349 0.173045,-0.169349 m -50.529087,7.790047 -0.173045,0.169349 0.173045,-0.169349 m -0.519135,12.193117 -0.173045,0.169349 0.173045,-0.169349 m 93.098117,9.314187 -0.17305,0.169349 0.17305,-0.169349 m 15.92012,1.524139 -0.86523,1.693489 0.86523,-1.693489 m 0.86522,0.169349 -0.69218,0.508047 0.69218,-0.508047 m -17.65057,88.061398 -0.17304,0.16935 0.17304,-0.16935 m -0.34609,0.3387 c -0.0559,1.69278 -2.02819,4.34563 -3.80698,4.57242 0.58911,-1.04054 0.99162,-1.60949 2.07653,-2.20154 l 0.69218,-2.37088 h 1.03827 m 0.17305,1.52414 -1.03827,1.52414 c -0.15883,-0.6751 0.46537,-1.23143 1.03827,-1.52414 m -32.35938,39.62763 -0.51914,-0.84674 v -0.16935 l 0.51914,-0.84675 c 1.38927,-0.20714 1.1129,1.50998 0,1.86284 m -20.592338,1.35479 0.34609,0.50805 -0.34609,-0.50805 m -2.249582,12.02377 -0.173045,0.16935 0.173045,-0.16935 m 2.768717,0.16935 -0.173045,0.16935 0.173045,-0.16935 m -3.460897,2.93538 c 0.133824,0 0.02772,0.0843 -0.05768,0.0564 l 0.05768,-0.0564 m 35.64723,8.24164 v 0.3387 l 0.34609,-0.3387 h -0.34609 m -30.28284,1.52414 -0.519135,-0.3387 0.519135,0.3387 m 0.461451,-0.0565 -0.05768,0.11292 0.05768,-0.11292 m 0.749862,0.73386 v 0.67739 -0.67739 m 2.422628,2.54023 0.865224,0.3387 v 0.16935 l -0.865224,-0.50805 m 1.211314,0.84674 -0.173045,0.16935 0.173045,-0.16935 m -0.69218,0.39516 c 0.13384,0 0.02772,0.0843 -0.05768,0.0564 l 0.05768,-0.0564 m 0.865224,0.45159 -1.384358,1.52414 -0.173045,-1.0161 1.557403,-0.50804 m 6.748748,0 c 0.553144,0.26 1.23606,0.002 1.702819,0.29388 0.570993,0.35662 0.256895,1.02794 0.635293,1.47669 1.528541,1.81283 4.596111,3.53256 7.006311,3.47924 v 0.16935 c -2.11545,1.04497 -4.75142,0.82777 -7.09484,0.84674 l 0.173045,0.50805 -2.422628,-0.16935 -0.173044,-0.84674 1.038268,0.3387 v -0.50805 h 0.519135 v 0.84674 l 0.865224,-0.84674 v -0.16935 c -0.585051,-0.26878 -2.738806,-0.64812 -2.515825,-1.51225 0.167141,-0.64769 0.930296,-1.00977 1.131466,-1.70538 -0.92305,0.0217 -2.068531,0.78909 -2.422627,-0.3387 l 1.557403,-1.86283 m -0.519134,0.16935 -0.173045,0.50804 -0.692179,-0.16935 0.865224,-0.33869 m -4.153076,0.67739 -0.173045,0.16935 0.173045,-0.16935 m 0.69218,0.3387 -1.903493,1.86284 -0.69218,-1.0161 2.595673,-0.84674 m -3.114807,0.16935 0.173045,1.18544 c -0.491056,-0.34358 -0.49507,-0.70241 -0.173045,-1.18544 m 1.038269,0 0.173045,0.3387 h -0.34609 l 0.173045,-0.3387 m 2.595672,0.16935 -1.211314,1.18544 1.211314,-1.18544 m -2.941762,1.69349 -0.173045,0.16934 0.173045,-0.16934 m 1.557403,0 -0.346089,0.33869 v -0.33869 h 0.346089 m 3.460897,2.70958 0.173045,0.84674 -0.865224,-0.16935 v -0.16935 l 0.692179,-0.50804 m 0.519134,0.2258 c 0.133819,0 0.02772,0.0843 -0.05768,0.0564 l 0.05768,-0.0564 m -1.730448,0.28224 -0.173045,0.16935 0.173045,-0.16935 m 2.249583,0 -0.173045,0.16935 0.173045,-0.16935 m 2.768717,1.18545 -0.519135,-0.16935 0.519135,0.16935 m -1.211314,0 -0.173045,0.16934 0.173045,-0.16934 m 1.384359,0.67739 -0.519135,-0.3387 0.519135,0.3387 m 0.69218,-0.3387 -0.17305,0.16935 z"
       id="path1"
       inkscape:label="OutLINE" /><path
       style="fill:#ffffff;stroke:#000000;stroke-width:8.00944"
       d="m 344.25695,932.54382 c -1.32677,-5.28631 -6.27779,-9.46868 -8.53584,-7.21064 -1.33753,1.33753 -2.39846,1.18218 -4.41988,-0.64719 -2.13156,-1.92903 -2.31437,-2.96043 -0.92038,-5.19256 1.38336,-2.21512 1.21092,-3.36949 -0.84227,-5.63822 -1.41996,-1.56906 -2.58176,-3.95101 -2.58176,-5.29325 0,-1.34225 -0.68116,-2.86141 -1.51369,-3.37595 -0.83253,-0.51453 -1.51369,-2.25763 -1.51369,-3.87356 0,-3.27889 -2.35649,-3.97541 -3.53858,-1.04593 -0.50734,1.25733 -0.80357,1.10498 -0.88298,-0.4541 -0.0657,-1.29042 0.62101,-3.08673 1.52607,-3.9918 1.18499,-1.18499 1.18499,-1.93025 0,-2.66261 -2.70994,-1.67483 -1.86389,-3.86573 1.49279,-3.86573 4.78206,0 2.99432,-5.00819 -2.43147,-6.8116 -2.86921,-0.95366 -4.38254,-2.38411 -4.09029,-3.86631 0.28527,-1.44686 -1.45042,-3.19516 -4.50836,-4.54107 -5.32228,-2.34251 -7.71513,-7.48636 -3.48257,-7.48636 1.35897,0 2.13413,0.54483 1.72259,1.21073 -0.41154,0.6659 0.54971,2.02132 2.13613,3.01206 2.40351,1.50102 3.1443,1.31574 4.44317,-1.11122 0.8573,-1.60189 1.55875,-3.93041 1.55875,-5.17447 0,-1.24405 1.11905,-3.38097 2.48678,-4.7487 2.25368,-2.25368 2.26529,-2.70824 0.12382,-4.84972 -1.89943,-1.89944 -2.02783,-3.09848 -0.65457,-6.11246 1.41162,-3.09817 1.25408,-4.08171 -0.90696,-5.66189 -1.45679,-1.06523 -2.22271,-2.93559 -1.72902,-4.22213 0.48748,-1.27037 0.15874,-2.75943 -0.73055,-3.30905 -2.16699,-1.33927 -2.07318,-11.01206 0.11387,-11.74108 1.29853,-0.43284 1.29853,-1.38449 0,-3.81085 -0.95191,-1.77866 -1.73075,-4.98161 -1.73075,-7.11767 0,-3.67781 -2.19384,-5.39702 -3.27967,-2.57012 -1.10308,2.87182 -7.01407,3.3133 -9.60964,0.71773 -2.20444,-2.20443 -2.45606,-4.33868 -1.61101,-13.66411 0.91422,-10.08882 0.60665,-11.99131 -3.53029,-21.83754 -3.77299,-8.97999 -4.19434,-11.1233 -2.51658,-12.80106 1.10833,-1.10833 2.45767,-5.96593 2.99851,-10.79463 0.54084,-4.82871 2.04723,-16.62253 3.34755,-26.20848 2.34657,-17.29903 2.33818,-17.50224 -1.12414,-27.2464 -3.15074,-8.86729 -3.78095,-14.02743 -4.43422,-36.30695 -0.0854,-2.91385 0.32902,-13.94448 0.92102,-24.5125 0.75426,-13.46431 0.52082,-21.39174 -0.78003,-26.48955 -1.02101,-4.00124 -2.42876,-18.17354 -3.1283,-31.494 -1.66575,-31.71869 -4.57974,-42.30882 -13.11696,-47.67012 -3.32396,-2.08742 -8.36443,-5.3254 -11.20104,-7.1955 -2.83661,-1.87012 -13.51662,-6.18877 -23.73335,-9.59699 -22.23937,-7.41889 -32.1561,-13.49591 -34.36792,-21.06082 -2.09531,-7.16639 -3.2625,-8.90218 -12.90167,-19.18676 -9.18569,-9.80073 -8.82015,-9.32522 -22.62033,-29.42489 -13.71834,-19.98047 -21.52996,-27.92455 -30.33455,-30.84897 -5.97987,-1.9862 -7.13539,-2.94344 -6.49753,-5.38264 0.42671,-1.63176 -0.0143,-3.91891 -0.98009,-5.08259 -0.96576,-1.16367 -2.38305,-4.30242 -3.14954,-6.97499 -1.2715,-4.43346 -0.80173,-5.58579 5.36151,-13.15181 6.24837,-7.67054 6.75165,-8.93509 6.70907,-16.85756 -0.0387,-7.20496 -0.32171,-8.08425 -1.78223,-5.53757 -2.30881,4.02583 -5.95939,6.63247 -8.12494,5.80147 -0.9651,-0.37034 -2.18699,-4.21124 -2.71531,-8.53533 -0.7831,-6.4094 -0.47061,-8.28147 1.69133,-10.1325 2.66992,-2.28597 3.54912,-5.69931 3.80143,-14.75847 0.0999,-3.58806 0.84085,-4.91949 2.73759,-4.91949 1.43032,0 2.99266,-1.02174 3.47186,-2.27053 0.47921,-1.24879 1.91441,-2.27053 3.18933,-2.27053 1.56647,0 2.31804,-1.47233 2.31804,-4.54107 0,-3.11415 0.74551,-4.54107 2.37254,-4.54107 1.6863,0 2.0937,-0.87853 1.4085,-3.03741 -0.73496,-2.31564 0.11245,-3.65523 3.56615,-5.63738 6.24912,-3.5865 13.67991,-18.90633 10.83379,-22.3357 -2.18103,-2.62798 -3.23539,-8.75645 -3.16725,-18.40967 0.0299,-4.23986 -1.17223,-8.07273 -3.70048,-11.79831 -2.05964,-3.03506 -3.74481,-6.26439 -3.74481,-7.1763 0,-1.98755 4.0005,-5.33734 8.73863,-7.31723 2.62202,-1.09565 3.23306,-2.26507 2.56805,-4.91471 -0.68006,-2.70955 0.63748,-5.00873 5.96952,-10.41717 5.11529,-5.18858 7.09883,-8.5452 7.85906,-13.2994 0.98321,-6.14871 3.85769,-10.69708 6.76033,-10.69708 0.77307,0 1.40557,0.68116 1.40557,1.51369 0,2.935 3.11341,1.46732 4.81649,-2.27053 1.17031,-2.56855 2.94068,-3.78423 5.51089,-3.78423 4.28114,0 15.76449,-6.26836 18.75978,-10.24031 1.84089,-2.44113 7.71779,-6.41027 9.49137,-6.41027 2.43984,0 0.19108,4.32227 -3.00684,5.77934 -4.34626,1.98029 -4.77487,4.92476 -1.45453,9.99225 2.10867,3.21823 2.08978,4.05866 -0.19913,8.85856 -2.39842,5.02953 -2.38196,5.50448 0.31926,9.20997 3.73093,5.11803 9.17654,5.20495 11.4647,0.183 1.47092,-3.22833 1.23174,-4.50671 -1.54614,-8.264 -6.00736,-8.1254 -3.81261,-10.98715 12.60749,-16.43899 11.18559,-3.71387 16.74802,-2.87649 19.77495,2.97696 2.61898,5.06454 7.2165,5.59472 19.69635,2.27139 6.47335,-1.72383 8.12854,-1.721 10.50671,0.018 5.51204,4.03051 24.16142,0.82705 28.90069,-4.96434 2.46533,-3.01264 8.31508,-2.70951 7.1335,0.36965 -1.10257,2.87323 2.27086,5.3944 5.76515,4.30863 1.37548,-0.42739 2.85926,0.24778 3.34895,1.5239 0.6473,1.68683 2.54447,2.13089 7.19148,1.68329 10.99446,-1.05899 13.02794,1.2458 6.69053,7.58321 l -3.76152,3.76151 4.00801,1.52384 c 2.72481,1.03597 4.51064,1.02121 5.57794,-0.0461 2.36685,-2.36685 7.52696,-1.90382 16.59553,1.48917 10.61087,3.97003 13.65799,7.35654 12.84962,14.28079 -0.62822,5.38118 1.12674,7.34953 2.75939,3.09491 2.2473,-5.85637 15.68428,2.26846 15.68428,9.48369 0,1.93042 0.66792,1.72289 3.19908,-0.99398 2.17131,-2.33063 4.2381,-3.15558 6.43318,-2.56779 1.77875,0.47631 4.76671,1.29136 6.6399,1.81123 2.06289,0.57252 3.4058,0.27876 3.4058,-0.74501 0,-1.05671 3.40409,-1.69023 9.08214,-1.69023 8.073,0 9.08213,0.33637 9.08213,3.02738 0,3.67576 1.32277,3.8671 3.75346,0.54292 2.76904,-3.78688 11.80016,-1.52676 16.57526,4.14812 2.12334,2.52345 4.54847,4.16299 5.38916,3.64342 0.84069,-0.51958 1.52852,0.45783 1.52852,2.17203 0,3.29749 2.95937,4.45781 3.12333,1.2246 0.0528,-1.04067 0.71198,-0.35951 1.4649,1.51368 0.75294,1.87319 2.62709,3.4058 4.16477,3.4058 3.14455,0 7.12168,7.19116 8.73589,15.79561 0.82896,4.41873 2.06466,5.93589 6.26365,7.69034 4.4235,1.84826 5.06839,2.71608 4.17778,5.622 -0.57926,1.89 -3.52446,6.34256 -6.54489,9.89457 -3.02043,3.55201 -7.736,9.63486 -10.47904,13.51745 -2.74305,3.88259 -6.43565,7.788 -8.20576,8.67869 -1.77012,0.89069 -3.4874,2.43535 -3.81617,3.43258 -0.96436,2.92503 10.1709,0.61472 16.47741,-3.41869 l 5.52289,-3.53224 0.98899,5.27168 c 0.95068,5.06763 1.19098,5.23378 6.20818,4.29254 3.55163,-0.66628 5.21923,-0.40907 5.21923,0.80502 0,1.10671 1.17196,1.41219 3.08653,0.80453 2.70251,-0.85774 2.96459,-0.49377 2.10644,2.92537 -1.45996,5.81693 1.05687,4.67567 6.02834,-2.73355 3.03004,-4.51582 5.22613,-6.35851 7.01919,-5.88961 3.01183,0.78761 5.65443,-2.45169 3.22497,-3.95318 -3.60438,-2.22763 1.12092,-5.46735 7.77024,-5.32736 5.6537,0.11903 21.05147,5.02387 26.01394,8.28655 0.83253,0.54736 3.44698,1.45777 5.80991,2.02313 3.42315,0.81904 3.94654,1.44929 2.57545,3.10134 -1.26594,1.52537 -1.27302,2.35013 -0.0268,3.12035 1.0685,0.66037 1.34915,3.36504 0.76008,7.3248 l -0.9339,6.27782 2.98365,-3.43273 c 1.64102,-1.888 5.80197,-4.42708 9.24656,-5.64241 5.83022,-2.05702 7.15147,-1.95219 19.12395,1.51729 11.35824,3.29149 13.24862,3.47742 16.17799,1.59115 2.75976,-1.77704 4.24653,-1.81131 8.85072,-0.20405 7.54432,2.63363 18.68525,9.30244 25.30705,15.14847 9.83021,8.67857 15.09354,11.57211 22.68502,12.47121 4.10593,0.48629 8.25356,1.37131 9.21696,1.96672 2.74492,1.69645 6.48746,17.96781 6.62576,28.80662 0.14016,10.98372 -3.00014,18.26407 -9.07117,21.03021 -1.94373,0.88562 -3.53406,2.58602 -3.53406,3.77866 0,2.53562 -8.41476,10.00598 -11.27094,10.00598 -1.0761,0 -3.80055,4.25725 -6.05433,9.46056 -5.40407,12.47631 -7.64047,14.83618 -13.03712,13.75684 -3.49052,-0.6981 -4.28425,-0.33198 -4.2576,1.96389 0.018,1.55208 -0.59524,5.23167 -1.36283,8.17689 -0.8208,3.14936 -0.86124,9.6956 -0.0982,15.89373 1.42726,11.59373 -1.86433,32.57003 -5.8404,37.21904 -1.15772,1.35368 -2.46053,5.10006 -2.89514,8.32529 -1.45416,10.79127 -2.01861,12.16823 -8.13952,19.85576 -3.35085,4.20849 -6.52324,9.9342 -7.04973,12.72379 -1.06402,5.63756 -4.50251,10.36991 -7.53468,10.36991 -1.09047,0 -2.75494,1.443 -3.69883,3.20667 -1.43184,2.6754 -2.6945,3.07544 -7.62141,2.41461 -3.24789,-0.43564 -6.28617,-0.17574 -6.75173,0.57755 -0.46555,0.75328 -3.89286,1.36961 -7.61624,1.36961 -4.4286,0 -7.05295,0.73797 -7.58863,2.13393 -0.45039,1.17366 -2.47248,2.54896 -4.49357,3.05621 -2.02108,0.50727 -3.67469,1.59048 -3.67469,2.40714 0,0.81667 -1.91013,1.48486 -4.24472,1.48486 -4.61375,0 -13.92274,5.42182 -24.28016,14.14145 -3.61702,3.04508 -7.15077,5.5365 -7.85279,5.5365 -0.70204,0 -1.3098,1.19203 -1.35059,2.64896 -0.0408,1.45692 -0.14386,3.6707 -0.22902,4.91949 -0.0852,1.24879 0.34059,6.50002 0.94613,11.66941 1.29572,11.0612 -0.60632,16.94723 -7.80711,24.15979 -2.63491,2.63921 -5.99648,7.95575 -7.47016,11.81454 -1.47368,3.85877 -3.0834,6.39922 -3.57717,5.64542 -0.92725,-1.41557 -6.85251,-4.85111 -8.36668,-4.85111 -0.471,0 -0.85636,1.94127 -0.85636,4.31395 0,2.3911 -2.02409,7.10813 -4.54107,10.58271 -2.49758,3.44782 -4.54106,7.60493 -4.54106,9.23803 0,1.63309 -0.80516,4.8745 -1.78926,7.20313 -2.24883,5.3213 -15.19214,23.06667 -16.86156,23.11727 -0.68385,0.0207 -2.17994,0.97426 -3.32462,2.11894 -2.60168,2.60168 -16.57554,2.10927 -27.13116,-0.95605 -9.21186,-2.67509 -12.20551,-6.48561 -9.88672,-12.58449 1.81867,-4.78347 0.81465,-11.24603 -1.74718,-11.24603 -0.99198,0 -1.27981,1.47075 -0.72245,3.69145 0.50958,2.03031 0.24284,4.114 -0.59275,4.63041 -0.83558,0.51642 -1.51924,4.63658 -1.51924,9.15591 0,7.8547 0.25124,8.37557 5.69855,11.81431 7.61498,4.80711 9.88483,7.78615 8.72265,11.44786 -0.65213,2.05467 0.0447,3.90821 2.14547,5.70696 1.71121,1.46518 3.11129,3.90872 3.11129,5.4301 0,6.60682 -8.29815,16.61669 -17.7108,21.36418 -7.59739,3.83192 -23.31255,6.99206 -29.70038,5.97242 l -5.78471,-0.92336 2.07262,5.13028 c 1.21387,3.00466 1.82275,8.46246 1.46955,13.17261 -0.52438,6.99287 -1.11334,8.23633 -4.5134,9.52904 -2.70179,1.0272 -6.19331,0.90159 -11.29703,-0.40646 -6.26467,-1.60558 -7.60419,-1.55851 -8.81857,0.30996 -1.8688,2.87539 -0.50094,8.72349 3.26066,13.94042 2.37325,3.29146 2.66307,4.80946 1.37701,7.21247 -1.2759,2.38405 -1.13113,3.23462 0.66803,3.92501 2.02389,0.77665 2.03165,1.14667 0.0653,3.11306 -1.22739,1.22739 -2.24093,4.73731 -2.2523,7.79984 -0.0325,8.75899 -1.4515,11.99533 -6.10443,13.92264 -5.66759,2.34759 -9.0118,7.6616 -9.0118,14.31991 0,4.4379 0.85648,5.8956 4.91949,8.37287 2.70572,1.64971 6.4521,3.00203 8.32529,3.00513 3.52107,0.006 4.70696,3.56391 1.78893,5.36735 -0.8893,0.54962 -1.28566,1.86247 -0.88082,2.91748 0.40485,1.05501 -1.59219,5.19297 -4.43786,9.19546 -2.84568,4.00252 -5.17396,8.93973 -5.17396,10.9716 0,2.94909 -0.6107,3.53463 -3.02738,2.90265 -1.90083,-0.49708 -3.02737,-0.0464 -3.02737,1.21101 0,1.10147 -0.85145,2.34625 -1.89212,2.76616 -1.13033,0.45611 -0.82562,0.8116 0.75685,0.88298 3.23565,0.14598 3.25865,0.60451 0.31595,6.29507 -2.10958,4.07947 -2.10386,4.74071 0.0597,6.9043 2.18121,2.18121 2.15328,2.57439 -0.31594,4.44728 -2.5053,1.90027 -2.41507,2.05815 1.20166,2.10268 6.66488,0.082 6.17488,1.82501 -1.99236,7.08686 -9.80336,6.31595 -17.30068,6.87716 -18.67587,1.39797 z"
       id="path2"
       transform="scale(0.26458333)" /><path
       style="fill:#ffffff;stroke:#000000;stroke-width:1.12215"
       d="m 371.44518,958.09392 c -2.33279,-0.16963 -4.27606,-0.34189 -4.31837,-0.38278 -0.10335,-0.0999 -0.64856,-2.72958 -0.58012,-2.79803 0.0297,-0.0297 0.88152,0.22582 1.89301,0.56773 l 1.83908,0.62165 v -0.94088 -0.94088 h 0.95433 0.95433 v 1.63859 1.63858 l 1.69658,-1.68663 c 1.02169,-1.0157 1.69658,-1.85976 1.69658,-2.12185 0,-0.37078 -0.41607,-0.5713 -2.80996,-1.3542 -1.54548,-0.50544 -3.39677,-1.19485 -4.11398,-1.53203 -1.47113,-0.69161 -2.61933,-1.8499 -2.61933,-2.64236 0,-0.77741 0.66716,-1.9308 1.97465,-3.4138 1.51512,-1.71851 1.99494,-2.40841 2.17556,-3.12806 l 0.14903,-0.59379 -0.9302,0.15058 c -0.51161,0.0828 -1.72122,0.33199 -2.68801,0.5537 -2.10412,0.48255 -3.25292,0.50972 -4.05323,0.0959 -0.65131,-0.33681 -1.2934,-1.18443 -1.2934,-1.70744 0,-0.37726 4.83832,-6.23109 5.46008,-6.60609 0.29458,-0.17767 1.11687,-0.19086 3.02717,-0.0485 3.77461,0.28122 4.42175,0.75803 4.97177,3.66317 0.17433,0.92076 0.47837,1.92045 0.67564,2.22152 1.10674,1.68911 4.86105,5.00399 8.01098,7.07333 5.56381,3.65513 11.81386,6.02819 16.5046,6.26658 1.47766,0.0751 2.06771,0.18211 2.06771,0.37504 0,0.36497 -2.8182,1.51449 -5.18014,2.11294 -3.55832,0.90158 -6.75537,1.19497 -14.38356,1.31995 -3.9366,0.0645 -7.15745,0.13959 -7.15745,0.16688 0,0.0273 0.13891,0.44334 0.3087,0.92457 0.16978,0.48122 0.24136,0.86149 0.15905,0.84503 -0.0823,-0.0165 -2.0583,-0.1687 -4.3911,-0.33834 z"
       id="path3"
       transform="scale(0.26458333)" /><path
       style="fill:#ffffff;stroke:#000000;stroke-width:1.12215"
       d="m 352.46468,948.6859 c -0.90355,-0.13752 -3.33515,-0.91072 -3.55478,-1.13036 -0.14843,-0.14842 1.10878,-2.31016 1.39997,-2.40723 0.16933,-0.0564 0.24616,0.33166 0.24616,1.2434 0,0.729 0.0462,1.27922 0.10276,1.2227 0.0565,-0.0565 0.3951,-1.08684 0.75242,-2.28961 0.37249,-1.25386 1.05754,-2.894 1.60569,-3.84434 0.92247,-1.59929 0.99585,-1.66905 2.09019,-1.98718 0.62378,-0.18134 1.18241,-0.32971 1.2414,-0.32971 0.059,0 0.22752,0.69189 0.37451,1.53753 0.34649,1.99335 0.35866,4.93728 0.0244,5.90305 -0.56179,1.62318 -2.16747,2.40367 -4.28272,2.08175 z"
       id="path4"
       transform="scale(0.26458333)" /><path
       style="fill:#ffffff;stroke:#000000;stroke-width:1.12215"
       d="m 343.76971,938.93898 c 0,-0.12352 0.0954,-0.1656 0.21207,-0.0935 0.11664,0.0721 0.21207,0.17316 0.21207,0.22459 0,0.0514 -0.0954,0.0935 -0.21207,0.0935 -0.11664,0 -0.21207,-0.10106 -0.21207,-0.22459 z"
       id="path5"
       transform="scale(0.26458333)" /></g></svg>
