<?xml version="1.0" encoding="UTF-8" standalone="no"?>
<!-- Created with Inkscape (http://www.inkscape.org/) -->

<svg
   width="210mm"
   height="297mm"
   viewBox="0 0 210 297"
   version="1.1"
   id="svg1"
   xml:space="preserve"
   inkscape:version="1.3.2 (091e20e, 2023-11-25)"
   sodipodi:docname="Usa.svg"
   xmlns:inkscape="http://www.inkscape.org/namespaces/inkscape"
   xmlns:sodipodi="http://sodipodi.sourceforge.net/DTD/sodipodi-0.dtd"
   xmlns="http://www.w3.org/2000/svg"
   xmlns:svg="http://www.w3.org/2000/svg"><sodipodi:namedview
     id="namedview1"
     pagecolor="#ffffff"
     bordercolor="#000000"
     borderopacity="0.25"
     inkscape:showpageshadow="2"
     inkscape:pageopacity="0.0"
     inkscape:pagecheckerboard="0"
     inkscape:deskcolor="#d1d1d1"
     inkscape:document-units="mm"
     inkscape:zoom="1.28"
     inkscape:cx="431.64062"
     inkscape:cy="603.51562"
     inkscape:window-width="1392"
     inkscape:window-height="1212"
     inkscape:window-x="0"
     inkscape:window-y="25"
     inkscape:window-maximized="0"
     inkscape:current-layer="layer1" /><defs
     id="defs1" /><g
     inkscape:label="USA Silhouette"
     inkscape:groupmode="layer"
     id="layer1"><path
       style="fill:#010101;stroke:none;stroke-width:18.99999728;stroke-dasharray:none"
       d="m 190.69717,82.285489 c -0.10589,2.465195 -0.14316,4.917768 -0.17258,7.392133 -0.0154,1.294625 -0.39353,2.190353 0.5164,3.266292 -1.60414,0.748077 -2.3434,2.573678 -3.95393,3.344818 -4.73943,2.269309 -11.54225,1.978854 -11.86842,8.688888 -0.0441,0.90779 -0.20822,1.67582 0.007,2.57865 -1.54744,0.72349 -2.79057,1.46737 -4.46967,1.91091 -1.0354,0.27349 -2.7709,0.4451 -3.53476,1.25549 -0.90139,0.95631 0.70141,2.06315 0.10386,3.19427 -2.42651,4.59314 -7.23893,7.89251 -12.041,9.45506 -0.17387,-0.81142 -1.52823,-0.49763 -2.23483,-0.68764 0.47826,-0.98818 0.39074,-2.05964 0.69507,-3.09438 0.25849,-0.87892 0.97884,-1.45271 1.25801,-2.26401 0.31348,-0.91099 -0.13765,-2.55122 -0.48376,-3.40903 -0.30484,-0.75552 -0.82969,-2.43972 -1.8138,-2.49401 -1.1833,-0.0653 -1.97077,2.20521 -3.09372,2.66592 -0.50879,-1.74995 0.93909,-2.24081 1.11767,-3.78202 0.0816,-0.7042 -0.39133,-1.43218 -0.63218,-2.06292 -0.20445,-0.53539 -0.0798,-1.21175 -0.41971,-1.68249 -1.24134,-1.71894 -4.22064,-1.75571 -6.08264,-1.75571 l 0.45061,1.79339 -0.69136,0.83673 -0.10307,2.35527 h -0.17191 c -0.39609,-1.07653 -1.33578,-0.83442 -1.88238,0.0517 -0.45873,0.74369 -0.3525,1.69183 -0.35245,2.52692 2.2e-4,3.3309 1.78666,6.49994 1.71645,9.79888 -0.0283,1.32958 -0.78616,3.20532 -2.15922,3.69686 -1.43592,0.51403 -2.69693,-2.00197 -3.03921,-3.00922 -1.27519,-3.75257 -0.60317,-7.67744 -0.30004,-11.51798 l -2.23483,1.03146 c 0.99144,-1.88109 1.20996,-4.92674 2.66448,-6.48045 1.16072,-1.23988 4.80775,-1.7674 6.44675,-2.15817 0.50866,-0.12127 1.73015,0.0735 2.0482,-0.40443 0.26918,-0.40445 -0.18023,-1.06198 -0.3291,-1.44346 l -2.57865,-0.17191 -0.17191,-1.37528 c -2.64024,0.11364 -4.74374,2.44635 -7.22022,2.58887 -1.79754,0.10344 -2.01347,-1.9316 -4.12584,-0.86977 l 1.20337,-2.922473 c -2.37741,0.110465 -3.74515,2.635453 -5.33173,4.096523 -1.11528,1.02706 -2.19866,1.21198 -3.6076,1.57651 l 0.17191,-1.7191 c -0.89729,0.1735 -2.17062,1.52014 -3.05246,1.24873 -0.99089,-0.30498 0.14176,-1.48626 0.46585,-1.81355 1.27308,-1.28563 2.5757,-3.062679 4.30571,-3.732933 -0.59228,-1.727967 -3.55891,-0.53979 -4.81348,-0.407091 -1.76002,0.18617 -3.56552,-1.410231 -5.32921,-1.624122 -1.45768,-0.176779 -3.70938,0.721962 -4.96802,-0.158784 -0.42169,-0.295093 -0.63086,-0.947635 -1.11582,-1.128957 -0.59915,-0.224027 -1.57679,0.230658 -2.16784,0.374196 -1.45633,0.353683 -2.97834,0.538719 -4.46967,0.680747 -2.85014,0.271432 -5.739982,-0.176023 -8.5955,-0.14207 -1.986493,0.02362 -3.883196,0.467958 -5.844942,0.6578 C 82.272216,97.634602 76.312291,97.172772 70.188209,96.904613 60.895081,96.497691 51.578859,95.807386 42.338777,94.59006 37.442726,93.94503 32.599663,93.027623 27.72642,92.213831 26.04579,91.933176 23.382616,90.900289 21.716996,91.30613 c -0.992966,0.241938 -1.585281,1.980618 -1.898439,2.841154 l -4.813483,-1.891011 c 0,4.391629 1.025952,8.707677 0.09405,13.065167 -0.313721,1.46692 -1.464865,2.53245 -1.875624,3.95393 -0.42143,1.4584 -0.288671,3.23719 -0.981851,4.61239 -0.601409,1.19315 -1.977327,1.82879 -2.4474633,3.12357 -0.9538043,2.6268 -0.030473,5.38443 -0.3200763,8.07977 -0.1686464,1.56959 -1.5319752,2.64726 -1.6700216,4.12584 -0.1204382,1.28998 0.9794332,1.94571 1.0760298,3.0969 0.1331981,1.58738 -0.5952914,3.23638 -0.3509831,4.81096 0.2815318,1.8145 1.9144315,3.04121 2.6866255,4.64158 0.71657,1.48508 0.03644,2.6428 0.405766,4.12584 0.242335,0.97309 1.279849,1.76477 1.836361,2.57865 -1.971823,0.93801 -0.068,4.23648 0.7468,5.50112 0.715677,1.1108 1.317561,2.29825 1.554089,3.61011 0.11984,0.66469 -0.112663,1.75656 0.282537,2.31907 0.640653,0.91188 2.507032,0.59652 3.430111,1.10534 0.872863,0.48114 1.00245,1.52697 1.89698,1.97896 0.568402,0.2872 1.320585,0.28147 1.800014,0.73433 0.416312,0.39323 0.366834,1.02937 0.82997,1.39026 1.140499,0.88872 2.279309,1.3276 3.106851,2.61474 0.580897,0.90351 0.04799,2.61048 0.990472,3.17039 1.782681,1.05905 5.022421,0.65811 7.022845,0.60911 0.683315,-0.0167 1.556991,-0.33977 2.211884,-0.0655 0.837272,0.35061 0.425974,1.4254 1.109058,1.84749 1.151556,0.71157 2.679102,0.97733 3.899282,1.62108 2.57751,1.35986 5.012337,3.10607 7.735953,4.17612 4.09224,1.60773 8.930484,1.19076 13.237076,1.19076 3.04e-4,-2.77646 1.946412,-2.28668 4.125842,-2.23483 3.884576,0.0924 7.262267,3.16813 9.699258,6.01686 2.174662,2.54208 2.759102,8.28316 7.301268,7.86688 1.068997,-0.098 1.23094,-2.29202 1.76062,-3.0347 1.074973,-1.50725 4.760631,-1.63827 6.165815,-0.62052 3.517861,2.54792 6.121863,7.59595 8.320391,11.26024 0.67153,1.11924 1.45736,3.71682 2.45821,4.46503 0.57864,0.43256 1.92112,0.4089 2.63039,0.53482 1.65662,0.29411 3.11068,1.17464 4.81348,1.18892 l -0.68764,-5.67304 -1.54719,-0.17191 v -0.68764 c 1.97438,1.00726 1.82366,-1.04949 1.20337,-2.23483 h 1.20337 l -0.17191,-1.7191 2.57865,-1.03146 -0.51573,-1.54719 c 2.51643,0.66577 3.5285,-0.42642 5.18648,-2.23417 1.1811,-1.28777 2.01383,-1.52527 1.00228,-3.26695 l 1.37528,-0.51573 v 0.85955 c 2.10256,-2.3e-4 2.36275,-1.1737 3.78202,-2.40674 v 1.20337 l 7.04832,0.17191 c -0.0103,-2.90371 2.5656,-0.14425 3.95393,-0.68764 0.65681,2.83733 2.06822,1.14285 3.78202,0.34382 l 0.34382,1.03146 c 1.37674,-0.28713 0.88092,-1.26495 0.17191,-2.06292 l 1.9263,0.92601 2.71527,0.79309 v -1.03146 l -2.75056,-1.03146 c 0.29869,-0.61315 1.08431,-1.04878 1.24609,-1.70292 0.2741,-1.1084 -4.30492,0.66708 -4.30492,-0.89788 0,-1.40495 2.24093,-0.32045 2.87154,-0.40803 0.81255,-0.11285 1.65609,-1.2082 2.42212,-1.58579 1.31363,-0.64752 2.38964,-0.45056 3.78202,-0.39078 v -1.89101 c 0.44263,0.4235 0.77986,1.04747 1.37794,1.27142 0.81369,0.30469 1.92222,-0.10015 2.74791,-0.21754 1.77119,-0.2518 3.20828,-0.46637 4.98539,-0.0423 1.05705,0.25223 2.64519,1.72392 3.61011,1.5899 2.47115,-0.34322 2.56696,-4.28837 5.67303,-2.58873 1.14224,0.62502 2.10494,1.55664 3.26629,2.16598 0.66089,0.34677 1.56571,0.41563 1.96702,1.11052 0.72104,1.24852 0.39779,2.80167 0.96103,4.06429 0.3109,0.69697 1.30203,0.62038 1.4802,1.42331 0.14054,0.6333 -0.29135,1.23979 -0.19804,1.86621 0.15002,1.00716 1.55616,2.23231 2.49429,2.42212 l 0.68764,-1.03146 v 2.06292 l 0.85955,-0.34382 -0.17191,0.85955 5.67303,4.46966 c -0.78248,0.16853 -0.29215,0.8407 0.3295,0.82612 0.48932,-0.0115 2.18137,-0.69212 2.46882,-1.08398 0.30196,-0.41162 -0.0433,-1.32152 -0.0478,-1.80506 -0.017,-1.83814 0.27617,-3.89346 -0.23877,-5.67303 -0.64735,-2.23717 -2.87614,-4.47399 -4.38848,-6.18876 -3.00591,-3.40829 -7.16795,-8.67833 -7.40645,-13.40899 h 0.85955 c 0,-1.27605 -0.063,-2.55611 0.36119,-3.78202 0.9214,-2.66255 3.18492,-4.43435 4.47112,-6.87641 1.32869,-2.52271 0.86115,-4.95814 4.27892,-5.67303 0.07,-1.3492 1.09649,-3.99009 2.11014,-4.91098 0.59751,-0.54282 1.59457,-0.42467 2.07381,-1.13996 0.45823,-0.68395 -0.55653,-1.01343 -0.47395,-1.69244 0.14832,-1.21958 1.63126,-1.97251 1.73887,-3.25886 0.11842,-1.41577 -1.32519,-4.0274 -2.38632,-4.91085 -0.51768,-0.431 -1.21783,-0.38109 -1.62679,-0.95956 -1.60812,-2.27468 -2.37188,-5.35293 -3.49868,-7.8824 l 2.23483,0.17191 c -0.47625,1.37745 -1.06955,2.79157 1.03146,1.54719 l 1.20337,1.7191 -0.17191,3.26629 h 0.68764 c 0,-0.80678 0.40709,-3.06855 -0.51573,-3.26629 v -0.17191 c 3.39285,-1.76247 -0.51865,-5.16604 -1.89101,-6.70449 l 3.4382,0.68764 c 0.0142,-1.68885 2.35653,-6.59418 -0.51573,-7.04831 v -3.2663 h 0.17191 c 0.13871,0.66586 0.35404,0.92103 1.03146,1.03146 l -0.51573,1.20338 c 1.61802,-0.16573 4.16632,-1.64572 4.64157,-3.2663 -1.52305,0.0358 -2.92234,1.01669 -4.12584,1.89101 0.52304,-2.70479 4.11376,-4.14098 6.53259,-4.64157 l -0.17191,-2.57865 0.68764,-0.17191 c 0.18584,0.85093 2.19416,1.11596 3.09438,1.37528 l -0.51573,-0.85955 c 0.73462,-1.55101 -2.62159,-2.68662 -3.13073,-4.46966 -0.5015,-1.75626 -0.0106,-3.93658 0.36027,-5.673033 0.11999,-0.561772 0.0928,-1.379929 0.46745,-1.838884 0.5198,-0.636825 1.66932,-0.39451 2.11943,-1.03677 0.35278,-0.503359 -0.18671,-1.356698 -0.0942,-1.937031 0.219,-1.373591 1.97701,-1.265319 3.02832,-1.204168 0.12408,-1.114058 0.84203,-1.878179 1.89101,-2.234831 -0.10627,-1.345041 -1.57624,-1.624164 -2.57865,-2.2461 -1.18251,-0.733682 -2.15532,-1.574262 -2.65451,-2.911203 -0.56983,-1.5261 -0.57036,-3.736316 -2.33101,-4.46834 -0.96767,-0.402326 -1.33688,0.668523 -2.06955,1.022175 -0.58131,0.280592 -1.28587,-0.09103 -1.88426,-0.163946 m 3.61012,-0.51573 c 1.62026,1.528335 1.46669,3.320485 2.48287,5.157302 0.94368,1.705796 2.8179,2.710627 4.56544,3.438202 v 0.34382 l -1.54719,1.891011 c -2.64908,0.11546 -3.23981,1.099336 -2.92247,3.610111 -0.65749,0.09674 -1.65392,0.219987 -2.10722,0.761529 -0.43977,0.525352 -0.44457,1.670468 -0.56375,2.332853 -0.39651,2.203843 -1.04321,4.984843 0.15479,7.048313 0.70904,1.22127 2.14453,1.52906 2.86,2.57865 l -1.7191,0.17191 c -0.4097,-0.73569 -0.96209,-0.57281 -1.7191,-0.51573 l -0.007,2.45356 -2.91519,1.37091 -3.4382,2.88002 c -0.38919,-0.75713 -0.68682,-1.00328 -1.54719,-1.03146 l 0.34382,4.9854 c 2.55859,0.19762 0.87393,4.28861 0.34382,5.67303 l -2.40674,-0.51573 1.03146,-2.92247 c -1.7732,0.267 -2.74775,2.13034 -1.88238,3.78202 0.74958,1.43072 2.44518,2.20863 2.98574,3.78202 0.26428,0.76926 -0.12163,1.37139 -0.41572,2.06292 h -0.34382 c -0.37001,-0.8801 -0.69364,-1.45214 -1.7191,-1.37528 0.69434,-1.88039 -1.84226,-1.71828 -3.09438,-1.7191 0.0996,2.17934 1.47214,4.40403 2.35421,6.36067 0.39692,0.88045 0.72075,1.97473 1.36546,2.7113 0.43324,0.49497 1.0651,0.44875 1.55303,0.82997 0.89906,0.70244 1.66393,2.4424 2.02074,3.50705 0.64668,1.92956 -2.90866,3.56265 -1.10468,5.32921 v 0.34382 c -0.63425,0.23298 -1.48064,0.3352 -1.99102,0.79986 -1.25844,1.14571 -1.22163,3.49003 -2.30408,4.74822 -0.63052,0.7329 -1.83483,0.8616 -2.52227,1.67904 -1.02776,1.22212 -0.91036,3.08274 -1.68183,4.46276 -2.10199,3.76004 -4.73787,5.71292 -4.73787,10.31461 h -0.85955 c 0.005,8.0506 8.05709,13.08202 11.44872,19.59775 1.13517,2.18081 0.58498,5.35121 0.58498,7.73595 -2.16742,0.56722 -3.7477,-1.63679 -5.32921,-2.93561 -0.45478,-0.37347 -1.45129,-0.81778 -1.64734,-1.39822 -0.14744,-0.4365 0.19426,-1.07113 0.27206,-1.51111 h -1.37528 v -1.20337 l -1.89101,0.68764 c -0.38402,-0.5629 -1.02095,-1.19818 -1.1202,-1.89101 -0.10196,-0.7117 0.29498,-1.4981 -0.015,-2.19623 -0.26607,-0.59926 -1.0561,-0.57375 -1.38882,-1.11781 -0.69929,-1.14349 -0.34222,-2.8383 -1.0101,-4.06867 -0.44141,-0.81319 -1.38538,-0.87353 -2.13893,-1.26891 -1.2544,-0.65818 -2.30704,-1.79207 -3.61011,-2.32782 -1.11974,-0.46036 -2.47544,-0.53342 -3.40225,0.35962 -0.68713,0.66208 -1.21635,1.95341 -2.27078,2.13295 -0.62359,0.10619 -1.21057,-0.53967 -1.7191,-0.81087 -0.82232,-0.43855 -1.83594,-0.62663 -2.75056,-0.76948 -2.15295,-0.33626 -4.08834,0.60718 -6.1881,0.53748 -0.77547,-0.0257 -1.06877,-0.63253 -1.20404,-1.3006 h -1.37528 v 1.7191 c -2.52597,0 -3.48095,0.98834 -5.67303,1.87337 -0.84696,0.34195 -1.73621,-0.42704 -2.57851,-0.0936 -0.80523,0.31872 -1.56023,1.53839 -0.61576,2.16943 0.71045,0.47469 2.17435,0.31628 3.02236,0.52051 l -0.17191,0.85955 c -1.01973,0.003 -1.80018,0.0273 -1.89101,1.20337 -1.37663,0.21242 -2.49427,2.35307 -3.2062,0.17602 -0.0935,-0.28607 -0.16426,-0.57087 -0.232,-0.86366 -1.72706,0.59285 -4.34304,-1.91501 -5.1573,0.85955 l -5.67304,-0.17191 v -1.03146 l -3.78202,2.40674 c -0.24872,-1.51901 -1.64243,-0.44162 -2.57865,-0.17191 l 0.68764,1.89101 -3.78202,3.48555 -2.67787,0.0724 0.0992,1.42741 c -1.44758,0.0474 -2.49861,1.38186 -2.40674,2.75056 h -1.37528 l 1.03146,2.23483 -2.06292,-0.17191 0.17191,1.89101 1.02031,0.29952 0.17259,1.41958 1.04193,3.09439 c -1.46494,-0.33908 -2.80494,-0.98469 -4.29775,-1.24635 -0.6334,-0.11102 -1.78973,-0.11048 -2.26667,-0.57635 -1.00244,-0.97919 -1.66739,-3.1296 -2.40926,-4.36607 -2.172861,-3.62151 -4.924052,-9.0533 -8.561151,-11.37724 -1.487519,-0.95044 -5.368947,-0.75721 -6.612966,0.58604 -0.780998,0.84329 -1.008136,2.19727 -1.466807,3.22716 -1.337009,-0.38693 -2.745971,-0.79024 -3.6645,-1.90653 -1.183645,-1.43849 -1.282065,-3.47527 -2.416956,-4.96987 -1.751307,-2.30639 -5.047408,-5.71699 -7.843261,-6.6858 -2.424594,-0.84015 -5.312796,-0.51643 -7.735953,-0.0187 v 1.89101 c -4.042673,0 -8.538099,0.31765 -12.377526,-1.19076 -2.659635,-1.04491 -5.060571,-2.73128 -7.564043,-4.08539 -1.212628,-0.6559 -2.767313,-0.93173 -3.899415,-1.67214 -0.696751,-0.4557 -0.368011,-1.52878 -1.267304,-1.8873 -0.784881,-0.31291 -1.765402,-0.002 -2.569235,0.0528 -1.857211,0.12717 -4.814523,0.35347 -6.507114,-0.51905 -0.896235,-0.46201 -0.393676,-1.75775 -0.714567,-2.55995 -0.605304,-1.51321 -2.250221,-2.81597 -3.780564,-3.26629 -0.1613,-1.77665 -1.350164,-1.47106 -2.559948,-2.25009 -0.647492,-0.41694 -0.769726,-1.23458 -1.403932,-1.68514 -1.016593,-0.72223 -2.577055,-0.777 -3.772073,-1.05016 0,-3.74089 -2.245836,-5.84902 -3.130461,-9.28302 -0.246711,-0.9577 0.76681,-1.40155 0.595185,-2.23562 -0.196138,-0.95321 -1.332877,-1.4985 -1.658747,-2.40608 -0.365463,-1.01785 0.400046,-2.06609 0.07163,-3.09438 -0.607506,-1.90215 -2.292903,-3.17551 -2.9748669,-4.9854 -0.6587779,-1.74834 0.3490875,-3.70824 0.1815933,-5.50099 -0.092605,-0.99118 -1.0979857,-1.59739 -1.1786982,-2.57878 -0.1004513,-1.22139 1.4890864,-2.61512 1.6820923,-3.95393 0.3908095,-2.71092 -0.4969986,-5.411 0.2887715,-8.07977 0.409433,-1.39059 1.840386,-2.03718 2.485135,-3.2663 0.717816,-1.3684 0.574847,-3.17984 0.997238,-4.64157 0.376798,-1.30395 1.429022,-2.30117 1.794047,-3.61011 1.192573,-4.27643 -0.01247,-8.580007 -0.01247,-12.893256 1.213566,0.503643 2.992703,2.067695 4.437827,1.355114 1.131352,-0.557858 0.953391,-2.658909 2.441229,-2.582093 6.93213,0.357891 13.867746,2.625941 20.798466,3.318954 13.473232,1.347202 27.00666,3.051246 40.570778,2.718989 3.519976,-0.08623 6.977541,-0.868522 10.486515,-1.022175 2.924003,-0.12803 5.83648,0.350473 8.76741,0.149761 1.90506,-0.130465 3.95874,-0.964959 5.82704,-0.939011 0.87431,0.01214 1.43604,1.20847 2.42465,1.356845 1.30756,0.196253 2.6289,-0.359433 3.95393,-0.198834 1.76263,0.213639 3.24993,1.410043 4.98539,1.651183 1.4364,0.199589 2.99692,-0.478545 4.46966,-0.479521 v 0.17191 c -1.54685,1.088614 -3.63729,2.807174 -4.57764,4.472184 -0.59911,1.06082 0.26341,2.26238 1.48326,1.86011 0.60114,-0.19824 1.12007,-0.61185 1.7191,-0.83117 l -0.17191,1.20337 c 4.21252,-0.0349 5.43388,-3.23785 8.59551,-5.329213 l -0.68764,3.094383 c 0.61552,-0.25885 1.35941,-1.01096 2.06292,-0.86539 0.92366,0.19113 1.41311,1.39879 2.40674,1.40804 1.52531,0.0142 3.57322,-1.55984 4.98539,-2.12419 1.07933,-0.43134 1.98256,-0.72861 2.06292,0.72199 1.04239,0.003 2.28583,-0.072 2.92247,0.85955 l -6.18876,1.40142 -2.39388,1.04445 -2.13056,5.46199 -0.15879,1.76871 1.76076,-0.56534 c -0.0795,3.85073 -0.96118,8.02496 0.74335,11.68989 1.37919,2.96539 4.55093,3.4766 5.72676,0 0.97999,-2.89759 -0.64901,-6.76953 -1.29224,-9.62697 -0.34813,-1.54648 -0.54541,-3.59625 0.83898,-4.64157 1.38602,2.0091 1.37528,-1.10988 1.37528,-2.06292 1.41769,-0.3413 0.94895,-1.19235 0.51573,-2.23483 2.94512,0.008 5.65496,1.37876 5.76363,4.64157 0.0307,0.92079 -2.73692,4.25951 -0.25574,4.55442 1.32968,0.15805 2.021,-1.97141 3.08762,-2.4915 l 1.7191,5.15731 c -1.39486,1.03644 -1.41295,2.55588 -1.70782,4.12584 -0.0996,0.53017 -0.48932,1.3193 -0.0529,1.78728 0.39356,0.42205 1.2426,0.27558 1.76076,0.27564 v 0.68764 c 4.40134,-0.38428 8.69462,-3.92606 11.34594,-7.22023 0.73085,-0.90805 1.9836,-2.09663 2.25007,-3.26629 0.17943,-0.78756 -0.49028,-1.6689 -0.70276,-2.40674 2.44128,-1.28642 5.60007,-1.06465 7.71035,-3.01333 0.66433,-0.61346 0.40631,-1.49995 0.49292,-2.31588 0.17143,-1.61477 0.2471,-3.29715 1.31944,-4.63892 2.34482,-2.933937 7.45341,-2.795467 10.59077,-4.480268 1.65871,-0.890745 2.41648,-2.939154 4.29775,-3.430248 l -0.91247,-1.547191 0.0529,-2.578651 0.17191,-6.016853 c 1.58398,0.03147 1.89939,-0.411896 3.09439,-1.37528 m -7.62136,33.293251 -0.0573,0.1146 0.0573,-0.1146 m 3.3236,0.74494 -0.17191,0.17191 0.17191,-0.17191 m -0.34382,0.17191 -0.17191,0.17191 0.17191,-0.17191 m -0.51573,0.34382 -0.17191,0.17191 0.17191,-0.17191 m -0.34382,0.17191 -0.17191,0.17191 0.17191,-0.17191 m -4.46966,5.84495 -0.51573,1.37528 h -0.17191 l 0.34382,-1.37528 h 0.34382 m -0.74494,1.8337 -0.0573,0.11461 0.0573,-0.11461 m 0.22921,0.57304 -0.17191,0.17191 0.17191,-0.17191 m -0.34382,5.32921 -0.17191,0.17191 0.17191,-0.17191 m -41.94606,55.35505 -0.17191,0.17191 0.17191,-0.17191 m 30.25618,0.68764 c 0.12718,0.69386 0.30902,1.07908 1.03146,1.20337 -0.13818,-0.67749 -0.36092,-1.00441 -1.03146,-1.20337 m 5.67303,4.98539 -0.17191,0.51573 h -0.17191 v -0.51573 h 0.34382 m -78.219088,7.90786 0.515731,2.75056 h 0.515727 c -0.006,-1.09262 0.22948,-2.38472 -1.031458,-2.75056 m 1.375278,3.43821 1.03146,0.85955 -1.03146,-0.85955 m 2.23483,2.75056 v 0.51573 h 2.06292 v -0.34382 z"
       id="path12"
       inkscape:label="Outline" /><path
       style="display:inline;fill:#ffffff;stroke-width:2952.76;stroke-dasharray:none"
       d="m 407.64018,772.65719 c -2.88775,-1.00974 -7.19925,-2.07938 -9.58111,-2.37697 -2.42869,-0.30345 -5.19919,-1.22426 -6.30823,-2.09664 -1.08767,-0.85556 -3.76255,-5.12108 -5.94419,-9.47895 -12.48074,-24.93053 -27.78723,-45.9982 -36.49707,-50.23414 -4.03328,-1.96154 -12.92972,-2.29645 -18.44116,-0.69423 -5.40995,1.57272 -7.54189,3.72411 -9.97476,10.06578 -2.11371,5.50971 -2.8162,5.69266 -9.28046,2.41698 -4.95082,-2.50878 -7.77499,-6.19777 -10.75916,-14.05389 -3.73915,-9.84366 -12.16781,-19.79609 -24.50656,-28.93696 -8.67688,-6.42805 -18.32825,-8.40195 -32.14184,-6.57365 l -7.48689,0.99093 v 3.80571 3.80571 l -9.96094,-0.0135 c -25.3284,-0.0344 -33.29376,-2.2229 -56.37184,-15.48811 -5.33069,-3.06406 -11.65881,-6.30552 -14.0625,-7.20324 -8.19345,-3.06006 -9.48509,-3.91751 -10.78129,-7.15704 -1.70694,-4.26606 -3.38277,-4.71118 -13.79182,-3.66326 -9.55709,0.96215 -17.15598,0.50107 -21.47365,-1.30297 -3.45668,-1.4443 -3.99961,-2.26508 -4.01475,-6.0694 -0.007,-1.65381 -0.58375,-4.21188 -1.2826,-5.6846 -1.56986,-3.30824 -7.382598,-8.52446 -10.927912,-9.80647 -1.454859,-0.52608 -2.656379,-1.50113 -2.670044,-2.16676 -0.04232,-2.06131 -1.838248,-3.7368 -6.26477,-5.84465 -2.737912,-1.30375 -4.902679,-3.02302 -6.065743,-4.81745 -2.091498,-3.22685 -6.491714,-5.43404 -12.388755,-6.2143 l -4.04099,-0.53469 -0.545309,-3.96487 c -0.694135,-5.04698 -2.44263,-9.98139 -6.834433,-19.28741 -4.757713,-10.08135 -5.391184,-12.57634 -3.901822,-15.36769 1.891419,-3.54489 1.387414,-6.06843 -2.090832,-10.46874 l -3.202049,-4.05089 0.508833,-5.61517 c 0.583611,-6.44036 0.366285,-7.02011 -6.303309,-16.81504 -5.272289,-7.74286 -6.185093,-10.83886 -5.123822,-17.3787 1.32993,-8.1954 1.035796,-12.34458 -1.123648,-15.85064 -2.648675,-4.30038 -2.464547,-6.41527 1.157249,-13.29218 l 3.130755,-5.94453 -0.05135,-13.56634 c -0.02824,-7.4615 0.316054,-14.91058 0.7651,-16.55353 0.473158,-1.73117 2.62215,-5.00476 5.110981,-7.78563 4.935982,-5.51517 5.579675,-6.91414 6.714015,-14.59192 1.0949,-7.41083 1.983683,-10.07542 5.179501,-15.52825 5.082847,-8.67257 5.569178,-14.89776 3.640071,-46.59414 l -0.491478,-8.07528 4.26502,2.40703 c 5.045764,2.84766 10.513991,3.82236 12.611703,2.24801 0.784823,-0.58901 2.366855,-2.81379 3.515625,-4.94396 2.075815,-3.84918 2.115131,-3.87457 6.38555,-4.12245 5.679342,-0.32967 18.005933,1.47393 41.796883,6.11561 23.97481,4.67755 29.47067,5.42277 68.74999,9.3223 76.11807,7.55674 111.34161,8.72612 142.96875,4.74639 11.14077,-1.40187 16.49198,-1.63257 33.20313,-1.43139 18.3691,0.22113 20.51452,0.10307 27.52543,-1.51465 9.9968,-2.30669 11.35302,-2.23799 15.46119,0.7832 3.67095,2.69964 3.65554,2.69756 15.99775,2.15999 4.76303,-0.20746 6.41333,0.13011 12.78832,2.61584 9.3224,3.63498 11.60136,3.93786 19.24293,2.55746 3.4375,-0.62097 6.35442,-1.02866 6.48204,-0.90598 0.12761,0.12267 -1.45442,1.46944 -3.51563,2.99282 -3.86721,2.85813 -8.86405,7.83722 -11.82238,11.78038 -3.15589,4.20648 -1.49713,9.85557 2.89393,9.85557 0.95008,0 3.16543,-0.73361 4.923,-1.63026 l 3.19557,-1.63026 -0.53232,2.12095 -0.53232,2.12094 4.18395,-0.34697 c 6.19821,-0.514 10.49195,-3.0055 19.44184,-11.28142 4.42924,-4.09569 8.17274,-7.08798 8.31889,-6.64954 0.14615,0.43845 -0.10619,2.13649 -0.56075,3.77343 -0.45457,1.63694 -0.82844,3.80771 -0.83083,4.82392 -0.004,1.79261 0.054,1.80944 1.95359,0.56477 4.43257,-2.90433 5.49314,-2.90745 9.26521,-0.0273 4.95343,3.78222 7.73962,3.62781 16.54684,-0.91706 11.99846,-6.19167 15.19875,-6.72741 15.19875,-2.54432 0,1.2316 0.6025,1.46683 3.75693,1.46683 2.06631,0 4.41719,0.4828 5.22417,1.07288 1.78804,1.30745 2.50156,1.04589 -11.71548,4.29441 -5.58593,1.27636 -12.03553,3.15917 -14.33243,4.18402 l -4.17619,1.86337 -4.22225,10.86402 c -4.26934,10.98517 -5.34078,16.7838 -3.10123,16.7838 0.61656,0 2.02059,-0.34202 3.12008,-0.76004 l 1.99906,-0.76004 -0.47621,15.01785 c -0.52419,16.5307 0.21047,21.98941 3.95364,29.3762 6.13659,12.10996 18.33552,11.37914 22.02715,-1.31961 1.77527,-6.10672 1.09914,-12.77394 -2.85727,-28.17516 -2.42009,-9.42073 -3.19096,-13.78494 -2.92459,-16.55716 0.42771,-4.45118 2.6302,-8.38521 3.9536,-7.0618 2.66194,2.66194 5.23977,-0.37094 5.23977,-6.1647 0,-2.28657 0.36249,-3.13654 1.49033,-3.4945 1.99774,-0.63406 2.47778,-2.16128 1.61974,-5.1531 l -0.71279,-2.48533 3.85763,0.37066 c 8.16607,0.78466 15.2344,6.77645 16.16325,13.70151 0.33253,2.4792 -0.12029,4.52011 -2.0101,9.05961 -2.81954,6.77287 -2.97801,8.36343 -1.01061,10.1439 2.79689,2.53115 5.56383,1.65661 10.01625,-3.16582 2.26416,-2.45232 4.25872,-4.29803 4.43236,-4.10156 0.17364,0.19647 1.62385,4.31416 3.22267,9.15042 l 2.90696,8.79319 -1.99855,2.37514 c -2.15275,2.5584 -2.92288,4.96267 -4.4616,13.92863 -0.92272,5.37654 -0.8907,5.83733 0.47497,6.83593 0.80541,0.58893 2.45187,1.07078 3.65881,1.07078 1.5108,0 2.19443,0.39815 2.19443,1.27807 0,3.18656 14.81491,-1.67377 24.32879,-7.98155 9.72414,-6.44719 26.37258,-24.35909 27.75302,-29.85923 0.46266,-1.84338 -0.22818,-5.56871 -1.65088,-8.90222 -0.59627,-1.39714 -0.87461,-1.29123 16.23927,-6.17944 6.97128,-1.9912 12.87128,-5.52696 13.35332,-8.00241 0.18007,-0.92474 0.7153,-5.16847 1.18939,-9.43053 1.0374,-9.32601 2.60706,-13.14753 7.0408,-17.14166 4.34402,-3.91331 9.24577,-6.02572 22.00288,-9.48213 13.89471,-3.76464 16.10769,-4.85087 21.90542,-10.75217 2.72105,-2.76966 6.11152,-5.63497 7.53437,-6.36735 l 2.58702,-1.33159 -1.80577,-3.27545 c -1.75977,-3.19205 -1.79581,-3.67304 -1.41513,-18.88848 l 0.39062,-15.61302 2.87928,-0.46674 c 1.5836,-0.25671 4.15557,-1.44022 5.71549,-2.63003 2.72524,-2.07864 2.88058,-2.1067 3.96986,-0.71711 1.9557,2.49487 2.7742,4.21394 4.69441,9.85959 3.54842,10.43281 6.33283,13.73518 15.88327,18.8379 l 4.69453,2.50825 -2.90279,3.63744 c -1.88808,2.36591 -3.52604,3.65053 -4.6857,3.6749 -2.80665,0.059 -6.8772,2.04474 -8.27124,4.03502 -0.77742,1.10991 -1.27398,3.387 -1.27398,5.84205 v 4.02319 l -3.06845,0.49067 c -4.59894,0.7354 -5.8649,2.92679 -7.36834,12.75468 -2.87444,18.79005 -1.50081,25.16737 6.66061,30.92296 l 4.6455,3.2761 -2.47261,0.64072 c -1.83463,0.4754 -2.81936,0.32691 -3.81649,-0.57548 -0.73913,-0.66891 -2.45877,-1.2162 -3.82142,-1.2162 h -2.47755 v 4.67768 4.67768 l -5.66406,2.84698 c -3.11524,1.56584 -8.37214,5.10243 -11.68199,7.85908 l -6.01793,5.0121 -1.59926,-1.59926 c -0.8796,-0.87959 -2.35449,-1.59926 -3.27756,-1.59926 -1.62181,0 -1.6614,0.2169 -1.17655,6.44532 0.27595,3.54492 0.50384,7.93945 0.50642,9.76562 0.003,2.42848 0.31945,3.32031 1.17655,3.32031 0.64454,0 1.92035,0.74847 2.83515,1.66327 1.4399,1.43991 1.60077,2.25296 1.19796,6.05469 -0.492,4.64337 -2.55941,11.53454 -3.66557,12.21819 -0.64644,0.39953 -6.81877,-0.73634 -7.45419,-1.37176 -0.17841,-0.1784 0.41523,-2.51446 1.31919,-5.19122 0.90396,-2.67677 1.44014,-5.07028 1.1915,-5.31892 -0.93938,-0.93938 -5.43328,1.68333 -6.84164,3.99287 -1.65343,2.71145 -1.92503,7.51421 -0.56972,10.07456 0.49682,0.93854 3.12364,4.11159 5.83736,7.05121 5.30347,5.74493 6.47114,8.69698 4.98556,12.60435 l -0.87745,2.30786 -1.96538,-2.5113 c -1.08096,-1.38121 -2.64303,-2.5113 -3.47127,-2.5113 -1.14839,0 -1.50587,-0.54986 -1.50587,-2.31626 0,-2.89852 -1.56886,-3.79504 -7.77648,-4.44387 -4.59934,-0.48072 -4.7234,-0.44457 -4.71916,1.3754 0.008,3.23084 1.58153,7.81697 6.00415,17.49411 7.69187,16.83063 7.12028,15.91205 11.18197,17.97026 3.75668,1.90365 5.99577,4.66169 8.78608,10.8224 2.05128,4.529 1.70324,7.06387 -1.75781,12.80237 -3.47187,5.75645 -3.60527,6.38195 -2.01629,9.4547 1.10869,2.14397 1.10863,2.14404 -2.73834,3.51036 -4.44648,1.57925 -5.49598,2.94118 -8.52662,11.06491 -2.95814,7.92939 -4.04072,9.41155 -8.53923,11.69113 -4.65389,2.35829 -6.53847,4.87142 -8.23566,10.98238 -2.13226,7.67749 -2.75748,8.93333 -9.67294,19.42951 -7.52271,11.41786 -10.26125,17.48438 -10.85659,24.04997 -0.35331,3.89627 -0.63774,4.55013 -1.97935,4.55013 -1.46424,0 -1.53821,0.37065 -1.13038,5.66407 0.83855,10.88403 6.31026,21.82627 18.26367,36.52343 20.11245,24.72899 23.4475,29.36204 25.71955,35.72961 0.68485,1.91934 1.06177,6.82132 1.08414,14.0996 0.0287,9.33993 -0.1614,11.23243 -1.16705,11.61833 -2.14041,0.82136 -7.97021,-2.0669 -12.71194,-6.29786 -2.54634,-2.27206 -5.99465,-5.14923 -7.6629,-6.39371 -4.10416,-3.06162 -4.29117,-3.39855 -3.75407,-6.76378 0.45548,-2.85386 0.40515,-2.92969 -1.94483,-2.92969 -2.15963,0 -2.41242,-0.24559 -2.41242,-2.34375 0,-2.74129 0.14395,-2.70128 -3.89925,-1.08352 -2.59012,1.03636 -3.36537,1.08117 -4.3642,0.25221 -2.31802,-1.92379 -3.64366,-5.54821 -3.21049,-8.77778 0.54659,-4.07508 -0.43517,-6.45147 -3.27118,-7.91802 -2.53501,-1.31091 -3.5722,-3.79376 -4.35874,-10.43403 -0.75525,-6.37613 -1.81377,-7.98477 -6.66366,-10.12677 -2.37083,-1.0471 -6.50846,-3.47074 -9.19474,-5.38587 -6.35433,-4.5302 -9.39878,-5.74497 -14.39803,-5.74497 -4.03903,0 -4.16581,0.073 -8.81493,5.07813 -5.16562,5.56113 -6.89033,6.13919 -10.54745,3.53509 -5.51442,-3.92662 -13.84111,-5.16628 -23.866,-3.55311 -9.84761,1.58464 -13.10985,1.53168 -14.71212,-0.23881 -0.71113,-0.78579 -1.29296,-1.84047 -1.29296,-2.34375 0,-0.54672 -1.25788,-0.91505 -3.125,-0.91505 -3.11903,0 -3.125,0.006 -3.125,3.08961 0,2.96193 -0.12105,3.10992 -2.92969,3.5814 -4.61465,0.77467 -8.03339,1.95275 -13.08594,4.50933 -3.90266,1.97474 -5.65365,2.38188 -10.45795,2.4317 -5.30493,0.055 -5.89612,0.22768 -7.32832,2.14027 -2.9406,3.92695 -0.0663,7.67039 5.90897,7.69586 3.88065,0.0165 5.96413,0.78298 5.48966,2.01944 -0.23108,0.60219 -1.18321,1.09489 -2.11586,1.09489 -2.01427,0 -5.16371,2.04583 -5.17963,3.36461 -0.0124,1.02647 -7.15627,5.22914 -8.88869,5.22914 -0.59766,0 -1.64932,-1.40625 -2.33702,-3.125 -1.03362,-2.58328 -1.6239,-3.1266 -3.40514,-3.13427 -1.18512,-0.005 -4.08836,-0.52827 -6.45164,-1.1626 -6.08313,-1.63278 -6.92625,-1.50177 -9.77519,1.51898 l -2.53781,2.69086 -9.85913,-0.46583 c -9.69313,-0.458 -9.85912,-0.49673 -9.85912,-2.30024 0,-1.00892 -0.18512,-1.8344 -0.41137,-1.8344 -0.22625,0 -3.46287,1.93602 -7.19249,4.30226 -5.59214,3.54791 -6.89665,4.09584 -7.43995,3.125 -0.8388,-1.49885 -3.75876,-1.50268 -7.33213,-0.01 -2.17426,0.90847 -2.67115,1.47201 -2.23875,2.53906 2.43082,5.99861 2.73278,5.22058 -4.78277,12.3233 l -6.93067,6.54997 -5.37565,0.0382 -5.37566,0.0381 0.41342,2.5476 c 0.38244,2.35673 0.18766,2.64399 -2.60001,3.8345 -3.02383,1.29136 -6.1942,5.29462 -6.1998,7.82855 -0.002,0.93965 -0.78765,1.3899 -2.72618,1.5625 l -2.72325,0.24248 1.95732,4.2122 1.95732,4.2122 -3.99433,-0.47307 c -3.39849,-0.4025 -3.92521,-0.29293 -3.53094,0.73451 0.25487,0.66417 0.46339,2.418 0.46339,3.89739 0,2.13451 0.39454,2.83982 1.9111,3.41642 1.38556,0.52679 2.06217,1.54194 2.46045,3.6916 0.30215,1.63075 1.19997,4.86574 1.99516,7.18887 2.23066,6.51688 2.36843,6.431 -5.75778,3.58957 z"
       id="path13"
       transform="scale(0.26458333)"
       inkscape:label="Fill Trace" /></g></svg>
